%TF.GenerationSoftware,KiCad,Pcbnew,(6.0.7-1)-1*%
%TF.CreationDate,2022-10-21T17:23:08-04:00*%
%TF.ProjectId,Splitboard-A,53706c69-7462-46f6-9172-642d412e6b69,rev?*%
%TF.SameCoordinates,Original*%
%TF.FileFunction,Legend,Bot*%
%TF.FilePolarity,Positive*%
%FSLAX46Y46*%
G04 Gerber Fmt 4.6, Leading zero omitted, Abs format (unit mm)*
G04 Created by KiCad (PCBNEW (6.0.7-1)-1) date 2022-10-21 17:23:08*
%MOMM*%
%LPD*%
G01*
G04 APERTURE LIST*
%ADD10C,0.125000*%
%ADD11C,0.150000*%
%ADD12C,0.120000*%
G04 APERTURE END LIST*
D10*
X267857142Y-81226190D02*
X268142857Y-81226190D01*
X268000000Y-81226190D02*
X268000000Y-80726190D01*
X268047619Y-80797619D01*
X268095238Y-80845238D01*
X268142857Y-80869047D01*
D11*
%TO.C,SW1*%
X257658333Y-132379761D02*
X257515476Y-132427380D01*
X257277380Y-132427380D01*
X257182142Y-132379761D01*
X257134523Y-132332142D01*
X257086904Y-132236904D01*
X257086904Y-132141666D01*
X257134523Y-132046428D01*
X257182142Y-131998809D01*
X257277380Y-131951190D01*
X257467857Y-131903571D01*
X257563095Y-131855952D01*
X257610714Y-131808333D01*
X257658333Y-131713095D01*
X257658333Y-131617857D01*
X257610714Y-131522619D01*
X257563095Y-131475000D01*
X257467857Y-131427380D01*
X257229761Y-131427380D01*
X257086904Y-131475000D01*
X256753571Y-131427380D02*
X256515476Y-132427380D01*
X256325000Y-131713095D01*
X256134523Y-132427380D01*
X255896428Y-131427380D01*
X254991666Y-132427380D02*
X255563095Y-132427380D01*
X255277380Y-132427380D02*
X255277380Y-131427380D01*
X255372619Y-131570238D01*
X255467857Y-131665476D01*
X255563095Y-131713095D01*
%TO.C,C5*%
X266466666Y-137857142D02*
X266514285Y-137904761D01*
X266657142Y-137952380D01*
X266752380Y-137952380D01*
X266895238Y-137904761D01*
X266990476Y-137809523D01*
X267038095Y-137714285D01*
X267085714Y-137523809D01*
X267085714Y-137380952D01*
X267038095Y-137190476D01*
X266990476Y-137095238D01*
X266895238Y-137000000D01*
X266752380Y-136952380D01*
X266657142Y-136952380D01*
X266514285Y-137000000D01*
X266466666Y-137047619D01*
X265561904Y-136952380D02*
X266038095Y-136952380D01*
X266085714Y-137428571D01*
X266038095Y-137380952D01*
X265942857Y-137333333D01*
X265704761Y-137333333D01*
X265609523Y-137380952D01*
X265561904Y-137428571D01*
X265514285Y-137523809D01*
X265514285Y-137761904D01*
X265561904Y-137857142D01*
X265609523Y-137904761D01*
X265704761Y-137952380D01*
X265942857Y-137952380D01*
X266038095Y-137904761D01*
X266085714Y-137857142D01*
%TO.C,C20*%
X267337142Y-46257142D02*
X267384761Y-46209523D01*
X267432380Y-46066666D01*
X267432380Y-45971428D01*
X267384761Y-45828571D01*
X267289523Y-45733333D01*
X267194285Y-45685714D01*
X267003809Y-45638095D01*
X266860952Y-45638095D01*
X266670476Y-45685714D01*
X266575238Y-45733333D01*
X266480000Y-45828571D01*
X266432380Y-45971428D01*
X266432380Y-46066666D01*
X266480000Y-46209523D01*
X266527619Y-46257142D01*
X266527619Y-46638095D02*
X266480000Y-46685714D01*
X266432380Y-46780952D01*
X266432380Y-47019047D01*
X266480000Y-47114285D01*
X266527619Y-47161904D01*
X266622857Y-47209523D01*
X266718095Y-47209523D01*
X266860952Y-47161904D01*
X267432380Y-46590476D01*
X267432380Y-47209523D01*
X266432380Y-47828571D02*
X266432380Y-47923809D01*
X266480000Y-48019047D01*
X266527619Y-48066666D01*
X266622857Y-48114285D01*
X266813333Y-48161904D01*
X267051428Y-48161904D01*
X267241904Y-48114285D01*
X267337142Y-48066666D01*
X267384761Y-48019047D01*
X267432380Y-47923809D01*
X267432380Y-47828571D01*
X267384761Y-47733333D01*
X267337142Y-47685714D01*
X267241904Y-47638095D01*
X267051428Y-47590476D01*
X266813333Y-47590476D01*
X266622857Y-47638095D01*
X266527619Y-47685714D01*
X266480000Y-47733333D01*
X266432380Y-47828571D01*
%TO.C,D41*%
X262214285Y-102802380D02*
X262214285Y-101802380D01*
X261976190Y-101802380D01*
X261833333Y-101850000D01*
X261738095Y-101945238D01*
X261690476Y-102040476D01*
X261642857Y-102230952D01*
X261642857Y-102373809D01*
X261690476Y-102564285D01*
X261738095Y-102659523D01*
X261833333Y-102754761D01*
X261976190Y-102802380D01*
X262214285Y-102802380D01*
X260785714Y-102135714D02*
X260785714Y-102802380D01*
X261023809Y-101754761D02*
X261261904Y-102469047D01*
X260642857Y-102469047D01*
X259738095Y-102802380D02*
X260309523Y-102802380D01*
X260023809Y-102802380D02*
X260023809Y-101802380D01*
X260119047Y-101945238D01*
X260214285Y-102040476D01*
X260309523Y-102088095D01*
%TO.C,R7*%
X234866666Y-82452380D02*
X235200000Y-81976190D01*
X235438095Y-82452380D02*
X235438095Y-81452380D01*
X235057142Y-81452380D01*
X234961904Y-81500000D01*
X234914285Y-81547619D01*
X234866666Y-81642857D01*
X234866666Y-81785714D01*
X234914285Y-81880952D01*
X234961904Y-81928571D01*
X235057142Y-81976190D01*
X235438095Y-81976190D01*
X234533333Y-81452380D02*
X233866666Y-81452380D01*
X234295238Y-82452380D01*
%TO.C,R14*%
X238442857Y-145552380D02*
X238776190Y-145076190D01*
X239014285Y-145552380D02*
X239014285Y-144552380D01*
X238633333Y-144552380D01*
X238538095Y-144600000D01*
X238490476Y-144647619D01*
X238442857Y-144742857D01*
X238442857Y-144885714D01*
X238490476Y-144980952D01*
X238538095Y-145028571D01*
X238633333Y-145076190D01*
X239014285Y-145076190D01*
X237490476Y-145552380D02*
X238061904Y-145552380D01*
X237776190Y-145552380D02*
X237776190Y-144552380D01*
X237871428Y-144695238D01*
X237966666Y-144790476D01*
X238061904Y-144838095D01*
X236633333Y-144885714D02*
X236633333Y-145552380D01*
X236871428Y-144504761D02*
X237109523Y-145219047D01*
X236490476Y-145219047D01*
%TO.C,C10*%
X248857142Y-76357142D02*
X248904761Y-76309523D01*
X248952380Y-76166666D01*
X248952380Y-76071428D01*
X248904761Y-75928571D01*
X248809523Y-75833333D01*
X248714285Y-75785714D01*
X248523809Y-75738095D01*
X248380952Y-75738095D01*
X248190476Y-75785714D01*
X248095238Y-75833333D01*
X248000000Y-75928571D01*
X247952380Y-76071428D01*
X247952380Y-76166666D01*
X248000000Y-76309523D01*
X248047619Y-76357142D01*
X248952380Y-77309523D02*
X248952380Y-76738095D01*
X248952380Y-77023809D02*
X247952380Y-77023809D01*
X248095238Y-76928571D01*
X248190476Y-76833333D01*
X248238095Y-76738095D01*
X247952380Y-77928571D02*
X247952380Y-78023809D01*
X248000000Y-78119047D01*
X248047619Y-78166666D01*
X248142857Y-78214285D01*
X248333333Y-78261904D01*
X248571428Y-78261904D01*
X248761904Y-78214285D01*
X248857142Y-78166666D01*
X248904761Y-78119047D01*
X248952380Y-78023809D01*
X248952380Y-77928571D01*
X248904761Y-77833333D01*
X248857142Y-77785714D01*
X248761904Y-77738095D01*
X248571428Y-77690476D01*
X248333333Y-77690476D01*
X248142857Y-77738095D01*
X248047619Y-77785714D01*
X248000000Y-77833333D01*
X247952380Y-77928571D01*
%TO.C,R16*%
X259652380Y-66357142D02*
X259176190Y-66023809D01*
X259652380Y-65785714D02*
X258652380Y-65785714D01*
X258652380Y-66166666D01*
X258700000Y-66261904D01*
X258747619Y-66309523D01*
X258842857Y-66357142D01*
X258985714Y-66357142D01*
X259080952Y-66309523D01*
X259128571Y-66261904D01*
X259176190Y-66166666D01*
X259176190Y-65785714D01*
X259652380Y-67309523D02*
X259652380Y-66738095D01*
X259652380Y-67023809D02*
X258652380Y-67023809D01*
X258795238Y-66928571D01*
X258890476Y-66833333D01*
X258938095Y-66738095D01*
X258652380Y-68166666D02*
X258652380Y-67976190D01*
X258700000Y-67880952D01*
X258747619Y-67833333D01*
X258890476Y-67738095D01*
X259080952Y-67690476D01*
X259461904Y-67690476D01*
X259557142Y-67738095D01*
X259604761Y-67785714D01*
X259652380Y-67880952D01*
X259652380Y-68071428D01*
X259604761Y-68166666D01*
X259557142Y-68214285D01*
X259461904Y-68261904D01*
X259223809Y-68261904D01*
X259128571Y-68214285D01*
X259080952Y-68166666D01*
X259033333Y-68071428D01*
X259033333Y-67880952D01*
X259080952Y-67785714D01*
X259128571Y-67738095D01*
X259223809Y-67690476D01*
%TO.C,C8*%
X264166666Y-99037142D02*
X264214285Y-99084761D01*
X264357142Y-99132380D01*
X264452380Y-99132380D01*
X264595238Y-99084761D01*
X264690476Y-98989523D01*
X264738095Y-98894285D01*
X264785714Y-98703809D01*
X264785714Y-98560952D01*
X264738095Y-98370476D01*
X264690476Y-98275238D01*
X264595238Y-98180000D01*
X264452380Y-98132380D01*
X264357142Y-98132380D01*
X264214285Y-98180000D01*
X264166666Y-98227619D01*
X263595238Y-98560952D02*
X263690476Y-98513333D01*
X263738095Y-98465714D01*
X263785714Y-98370476D01*
X263785714Y-98322857D01*
X263738095Y-98227619D01*
X263690476Y-98180000D01*
X263595238Y-98132380D01*
X263404761Y-98132380D01*
X263309523Y-98180000D01*
X263261904Y-98227619D01*
X263214285Y-98322857D01*
X263214285Y-98370476D01*
X263261904Y-98465714D01*
X263309523Y-98513333D01*
X263404761Y-98560952D01*
X263595238Y-98560952D01*
X263690476Y-98608571D01*
X263738095Y-98656190D01*
X263785714Y-98751428D01*
X263785714Y-98941904D01*
X263738095Y-99037142D01*
X263690476Y-99084761D01*
X263595238Y-99132380D01*
X263404761Y-99132380D01*
X263309523Y-99084761D01*
X263261904Y-99037142D01*
X263214285Y-98941904D01*
X263214285Y-98751428D01*
X263261904Y-98656190D01*
X263309523Y-98608571D01*
X263404761Y-98560952D01*
%TO.C,SW2*%
X238533333Y-106704761D02*
X238390476Y-106752380D01*
X238152380Y-106752380D01*
X238057142Y-106704761D01*
X238009523Y-106657142D01*
X237961904Y-106561904D01*
X237961904Y-106466666D01*
X238009523Y-106371428D01*
X238057142Y-106323809D01*
X238152380Y-106276190D01*
X238342857Y-106228571D01*
X238438095Y-106180952D01*
X238485714Y-106133333D01*
X238533333Y-106038095D01*
X238533333Y-105942857D01*
X238485714Y-105847619D01*
X238438095Y-105800000D01*
X238342857Y-105752380D01*
X238104761Y-105752380D01*
X237961904Y-105800000D01*
X237628571Y-105752380D02*
X237390476Y-106752380D01*
X237200000Y-106038095D01*
X237009523Y-106752380D01*
X236771428Y-105752380D01*
X236438095Y-105847619D02*
X236390476Y-105800000D01*
X236295238Y-105752380D01*
X236057142Y-105752380D01*
X235961904Y-105800000D01*
X235914285Y-105847619D01*
X235866666Y-105942857D01*
X235866666Y-106038095D01*
X235914285Y-106180952D01*
X236485714Y-106752380D01*
X235866666Y-106752380D01*
%TO.C,R25*%
X253802380Y-72857142D02*
X253326190Y-72523809D01*
X253802380Y-72285714D02*
X252802380Y-72285714D01*
X252802380Y-72666666D01*
X252850000Y-72761904D01*
X252897619Y-72809523D01*
X252992857Y-72857142D01*
X253135714Y-72857142D01*
X253230952Y-72809523D01*
X253278571Y-72761904D01*
X253326190Y-72666666D01*
X253326190Y-72285714D01*
X252897619Y-73238095D02*
X252850000Y-73285714D01*
X252802380Y-73380952D01*
X252802380Y-73619047D01*
X252850000Y-73714285D01*
X252897619Y-73761904D01*
X252992857Y-73809523D01*
X253088095Y-73809523D01*
X253230952Y-73761904D01*
X253802380Y-73190476D01*
X253802380Y-73809523D01*
X252802380Y-74714285D02*
X252802380Y-74238095D01*
X253278571Y-74190476D01*
X253230952Y-74238095D01*
X253183333Y-74333333D01*
X253183333Y-74571428D01*
X253230952Y-74666666D01*
X253278571Y-74714285D01*
X253373809Y-74761904D01*
X253611904Y-74761904D01*
X253707142Y-74714285D01*
X253754761Y-74666666D01*
X253802380Y-74571428D01*
X253802380Y-74333333D01*
X253754761Y-74238095D01*
X253707142Y-74190476D01*
%TO.C,C1*%
X254666666Y-99037142D02*
X254714285Y-99084761D01*
X254857142Y-99132380D01*
X254952380Y-99132380D01*
X255095238Y-99084761D01*
X255190476Y-98989523D01*
X255238095Y-98894285D01*
X255285714Y-98703809D01*
X255285714Y-98560952D01*
X255238095Y-98370476D01*
X255190476Y-98275238D01*
X255095238Y-98180000D01*
X254952380Y-98132380D01*
X254857142Y-98132380D01*
X254714285Y-98180000D01*
X254666666Y-98227619D01*
X253714285Y-99132380D02*
X254285714Y-99132380D01*
X254000000Y-99132380D02*
X254000000Y-98132380D01*
X254095238Y-98275238D01*
X254190476Y-98370476D01*
X254285714Y-98418095D01*
%TO.C,D22*%
X110214285Y-100452380D02*
X110214285Y-99452380D01*
X109976190Y-99452380D01*
X109833333Y-99500000D01*
X109738095Y-99595238D01*
X109690476Y-99690476D01*
X109642857Y-99880952D01*
X109642857Y-100023809D01*
X109690476Y-100214285D01*
X109738095Y-100309523D01*
X109833333Y-100404761D01*
X109976190Y-100452380D01*
X110214285Y-100452380D01*
X109261904Y-99547619D02*
X109214285Y-99500000D01*
X109119047Y-99452380D01*
X108880952Y-99452380D01*
X108785714Y-99500000D01*
X108738095Y-99547619D01*
X108690476Y-99642857D01*
X108690476Y-99738095D01*
X108738095Y-99880952D01*
X109309523Y-100452380D01*
X108690476Y-100452380D01*
X108309523Y-99547619D02*
X108261904Y-99500000D01*
X108166666Y-99452380D01*
X107928571Y-99452380D01*
X107833333Y-99500000D01*
X107785714Y-99547619D01*
X107738095Y-99642857D01*
X107738095Y-99738095D01*
X107785714Y-99880952D01*
X108357142Y-100452380D01*
X107738095Y-100452380D01*
%TO.C,R2*%
X231266666Y-49252380D02*
X231600000Y-48776190D01*
X231838095Y-49252380D02*
X231838095Y-48252380D01*
X231457142Y-48252380D01*
X231361904Y-48300000D01*
X231314285Y-48347619D01*
X231266666Y-48442857D01*
X231266666Y-48585714D01*
X231314285Y-48680952D01*
X231361904Y-48728571D01*
X231457142Y-48776190D01*
X231838095Y-48776190D01*
X230885714Y-48347619D02*
X230838095Y-48300000D01*
X230742857Y-48252380D01*
X230504761Y-48252380D01*
X230409523Y-48300000D01*
X230361904Y-48347619D01*
X230314285Y-48442857D01*
X230314285Y-48538095D01*
X230361904Y-48680952D01*
X230933333Y-49252380D01*
X230314285Y-49252380D01*
%TO.C,H1*%
X273761904Y-48752380D02*
X273761904Y-47752380D01*
X273761904Y-48228571D02*
X273190476Y-48228571D01*
X273190476Y-48752380D02*
X273190476Y-47752380D01*
X272190476Y-48752380D02*
X272761904Y-48752380D01*
X272476190Y-48752380D02*
X272476190Y-47752380D01*
X272571428Y-47895238D01*
X272666666Y-47990476D01*
X272761904Y-48038095D01*
%TO.C,C9*%
X246357142Y-77333333D02*
X246404761Y-77285714D01*
X246452380Y-77142857D01*
X246452380Y-77047619D01*
X246404761Y-76904761D01*
X246309523Y-76809523D01*
X246214285Y-76761904D01*
X246023809Y-76714285D01*
X245880952Y-76714285D01*
X245690476Y-76761904D01*
X245595238Y-76809523D01*
X245500000Y-76904761D01*
X245452380Y-77047619D01*
X245452380Y-77142857D01*
X245500000Y-77285714D01*
X245547619Y-77333333D01*
X246452380Y-77809523D02*
X246452380Y-78000000D01*
X246404761Y-78095238D01*
X246357142Y-78142857D01*
X246214285Y-78238095D01*
X246023809Y-78285714D01*
X245642857Y-78285714D01*
X245547619Y-78238095D01*
X245500000Y-78190476D01*
X245452380Y-78095238D01*
X245452380Y-77904761D01*
X245500000Y-77809523D01*
X245547619Y-77761904D01*
X245642857Y-77714285D01*
X245880952Y-77714285D01*
X245976190Y-77761904D01*
X246023809Y-77809523D01*
X246071428Y-77904761D01*
X246071428Y-78095238D01*
X246023809Y-78190476D01*
X245976190Y-78238095D01*
X245880952Y-78285714D01*
%TO.C,D19*%
X186214285Y-75452380D02*
X186214285Y-74452380D01*
X185976190Y-74452380D01*
X185833333Y-74500000D01*
X185738095Y-74595238D01*
X185690476Y-74690476D01*
X185642857Y-74880952D01*
X185642857Y-75023809D01*
X185690476Y-75214285D01*
X185738095Y-75309523D01*
X185833333Y-75404761D01*
X185976190Y-75452380D01*
X186214285Y-75452380D01*
X184690476Y-75452380D02*
X185261904Y-75452380D01*
X184976190Y-75452380D02*
X184976190Y-74452380D01*
X185071428Y-74595238D01*
X185166666Y-74690476D01*
X185261904Y-74738095D01*
X184214285Y-75452380D02*
X184023809Y-75452380D01*
X183928571Y-75404761D01*
X183880952Y-75357142D01*
X183785714Y-75214285D01*
X183738095Y-75023809D01*
X183738095Y-74642857D01*
X183785714Y-74547619D01*
X183833333Y-74500000D01*
X183928571Y-74452380D01*
X184119047Y-74452380D01*
X184214285Y-74500000D01*
X184261904Y-74547619D01*
X184309523Y-74642857D01*
X184309523Y-74880952D01*
X184261904Y-74976190D01*
X184214285Y-75023809D01*
X184119047Y-75071428D01*
X183928571Y-75071428D01*
X183833333Y-75023809D01*
X183785714Y-74976190D01*
X183738095Y-74880952D01*
%TO.C,C12*%
X269857142Y-72357142D02*
X269904761Y-72309523D01*
X269952380Y-72166666D01*
X269952380Y-72071428D01*
X269904761Y-71928571D01*
X269809523Y-71833333D01*
X269714285Y-71785714D01*
X269523809Y-71738095D01*
X269380952Y-71738095D01*
X269190476Y-71785714D01*
X269095238Y-71833333D01*
X269000000Y-71928571D01*
X268952380Y-72071428D01*
X268952380Y-72166666D01*
X269000000Y-72309523D01*
X269047619Y-72357142D01*
X269952380Y-73309523D02*
X269952380Y-72738095D01*
X269952380Y-73023809D02*
X268952380Y-73023809D01*
X269095238Y-72928571D01*
X269190476Y-72833333D01*
X269238095Y-72738095D01*
X269047619Y-73690476D02*
X269000000Y-73738095D01*
X268952380Y-73833333D01*
X268952380Y-74071428D01*
X269000000Y-74166666D01*
X269047619Y-74214285D01*
X269142857Y-74261904D01*
X269238095Y-74261904D01*
X269380952Y-74214285D01*
X269952380Y-73642857D01*
X269952380Y-74261904D01*
%TO.C,C3*%
X247166666Y-57357142D02*
X247214285Y-57404761D01*
X247357142Y-57452380D01*
X247452380Y-57452380D01*
X247595238Y-57404761D01*
X247690476Y-57309523D01*
X247738095Y-57214285D01*
X247785714Y-57023809D01*
X247785714Y-56880952D01*
X247738095Y-56690476D01*
X247690476Y-56595238D01*
X247595238Y-56500000D01*
X247452380Y-56452380D01*
X247357142Y-56452380D01*
X247214285Y-56500000D01*
X247166666Y-56547619D01*
X246833333Y-56452380D02*
X246214285Y-56452380D01*
X246547619Y-56833333D01*
X246404761Y-56833333D01*
X246309523Y-56880952D01*
X246261904Y-56928571D01*
X246214285Y-57023809D01*
X246214285Y-57261904D01*
X246261904Y-57357142D01*
X246309523Y-57404761D01*
X246404761Y-57452380D01*
X246690476Y-57452380D01*
X246785714Y-57404761D01*
X246833333Y-57357142D01*
%TO.C,D9*%
X128738095Y-58452380D02*
X128738095Y-57452380D01*
X128500000Y-57452380D01*
X128357142Y-57500000D01*
X128261904Y-57595238D01*
X128214285Y-57690476D01*
X128166666Y-57880952D01*
X128166666Y-58023809D01*
X128214285Y-58214285D01*
X128261904Y-58309523D01*
X128357142Y-58404761D01*
X128500000Y-58452380D01*
X128738095Y-58452380D01*
X127690476Y-58452380D02*
X127500000Y-58452380D01*
X127404761Y-58404761D01*
X127357142Y-58357142D01*
X127261904Y-58214285D01*
X127214285Y-58023809D01*
X127214285Y-57642857D01*
X127261904Y-57547619D01*
X127309523Y-57500000D01*
X127404761Y-57452380D01*
X127595238Y-57452380D01*
X127690476Y-57500000D01*
X127738095Y-57547619D01*
X127785714Y-57642857D01*
X127785714Y-57880952D01*
X127738095Y-57976190D01*
X127690476Y-58023809D01*
X127595238Y-58071428D01*
X127404761Y-58071428D01*
X127309523Y-58023809D01*
X127261904Y-57976190D01*
X127214285Y-57880952D01*
%TO.C,R38*%
X272542857Y-72702380D02*
X272876190Y-72226190D01*
X273114285Y-72702380D02*
X273114285Y-71702380D01*
X272733333Y-71702380D01*
X272638095Y-71750000D01*
X272590476Y-71797619D01*
X272542857Y-71892857D01*
X272542857Y-72035714D01*
X272590476Y-72130952D01*
X272638095Y-72178571D01*
X272733333Y-72226190D01*
X273114285Y-72226190D01*
X272209523Y-71702380D02*
X271590476Y-71702380D01*
X271923809Y-72083333D01*
X271780952Y-72083333D01*
X271685714Y-72130952D01*
X271638095Y-72178571D01*
X271590476Y-72273809D01*
X271590476Y-72511904D01*
X271638095Y-72607142D01*
X271685714Y-72654761D01*
X271780952Y-72702380D01*
X272066666Y-72702380D01*
X272161904Y-72654761D01*
X272209523Y-72607142D01*
X271019047Y-72130952D02*
X271114285Y-72083333D01*
X271161904Y-72035714D01*
X271209523Y-71940476D01*
X271209523Y-71892857D01*
X271161904Y-71797619D01*
X271114285Y-71750000D01*
X271019047Y-71702380D01*
X270828571Y-71702380D01*
X270733333Y-71750000D01*
X270685714Y-71797619D01*
X270638095Y-71892857D01*
X270638095Y-71940476D01*
X270685714Y-72035714D01*
X270733333Y-72083333D01*
X270828571Y-72130952D01*
X271019047Y-72130952D01*
X271114285Y-72178571D01*
X271161904Y-72226190D01*
X271209523Y-72321428D01*
X271209523Y-72511904D01*
X271161904Y-72607142D01*
X271114285Y-72654761D01*
X271019047Y-72702380D01*
X270828571Y-72702380D01*
X270733333Y-72654761D01*
X270685714Y-72607142D01*
X270638095Y-72511904D01*
X270638095Y-72321428D01*
X270685714Y-72226190D01*
X270733333Y-72178571D01*
X270828571Y-72130952D01*
%TO.C,D13*%
X205214285Y-58452380D02*
X205214285Y-57452380D01*
X204976190Y-57452380D01*
X204833333Y-57500000D01*
X204738095Y-57595238D01*
X204690476Y-57690476D01*
X204642857Y-57880952D01*
X204642857Y-58023809D01*
X204690476Y-58214285D01*
X204738095Y-58309523D01*
X204833333Y-58404761D01*
X204976190Y-58452380D01*
X205214285Y-58452380D01*
X203690476Y-58452380D02*
X204261904Y-58452380D01*
X203976190Y-58452380D02*
X203976190Y-57452380D01*
X204071428Y-57595238D01*
X204166666Y-57690476D01*
X204261904Y-57738095D01*
X203357142Y-57452380D02*
X202738095Y-57452380D01*
X203071428Y-57833333D01*
X202928571Y-57833333D01*
X202833333Y-57880952D01*
X202785714Y-57928571D01*
X202738095Y-58023809D01*
X202738095Y-58261904D01*
X202785714Y-58357142D01*
X202833333Y-58404761D01*
X202928571Y-58452380D01*
X203214285Y-58452380D01*
X203309523Y-58404761D01*
X203357142Y-58357142D01*
%TO.C,R36*%
X241742857Y-128502380D02*
X242076190Y-128026190D01*
X242314285Y-128502380D02*
X242314285Y-127502380D01*
X241933333Y-127502380D01*
X241838095Y-127550000D01*
X241790476Y-127597619D01*
X241742857Y-127692857D01*
X241742857Y-127835714D01*
X241790476Y-127930952D01*
X241838095Y-127978571D01*
X241933333Y-128026190D01*
X242314285Y-128026190D01*
X241409523Y-127502380D02*
X240790476Y-127502380D01*
X241123809Y-127883333D01*
X240980952Y-127883333D01*
X240885714Y-127930952D01*
X240838095Y-127978571D01*
X240790476Y-128073809D01*
X240790476Y-128311904D01*
X240838095Y-128407142D01*
X240885714Y-128454761D01*
X240980952Y-128502380D01*
X241266666Y-128502380D01*
X241361904Y-128454761D01*
X241409523Y-128407142D01*
X239933333Y-127502380D02*
X240123809Y-127502380D01*
X240219047Y-127550000D01*
X240266666Y-127597619D01*
X240361904Y-127740476D01*
X240409523Y-127930952D01*
X240409523Y-128311904D01*
X240361904Y-128407142D01*
X240314285Y-128454761D01*
X240219047Y-128502380D01*
X240028571Y-128502380D01*
X239933333Y-128454761D01*
X239885714Y-128407142D01*
X239838095Y-128311904D01*
X239838095Y-128073809D01*
X239885714Y-127978571D01*
X239933333Y-127930952D01*
X240028571Y-127883333D01*
X240219047Y-127883333D01*
X240314285Y-127930952D01*
X240361904Y-127978571D01*
X240409523Y-128073809D01*
%TO.C,D10*%
X148214285Y-56452380D02*
X148214285Y-55452380D01*
X147976190Y-55452380D01*
X147833333Y-55500000D01*
X147738095Y-55595238D01*
X147690476Y-55690476D01*
X147642857Y-55880952D01*
X147642857Y-56023809D01*
X147690476Y-56214285D01*
X147738095Y-56309523D01*
X147833333Y-56404761D01*
X147976190Y-56452380D01*
X148214285Y-56452380D01*
X146690476Y-56452380D02*
X147261904Y-56452380D01*
X146976190Y-56452380D02*
X146976190Y-55452380D01*
X147071428Y-55595238D01*
X147166666Y-55690476D01*
X147261904Y-55738095D01*
X146071428Y-55452380D02*
X145976190Y-55452380D01*
X145880952Y-55500000D01*
X145833333Y-55547619D01*
X145785714Y-55642857D01*
X145738095Y-55833333D01*
X145738095Y-56071428D01*
X145785714Y-56261904D01*
X145833333Y-56357142D01*
X145880952Y-56404761D01*
X145976190Y-56452380D01*
X146071428Y-56452380D01*
X146166666Y-56404761D01*
X146214285Y-56357142D01*
X146261904Y-56261904D01*
X146309523Y-56071428D01*
X146309523Y-55833333D01*
X146261904Y-55642857D01*
X146214285Y-55547619D01*
X146166666Y-55500000D01*
X146071428Y-55452380D01*
%TO.C,R20*%
X266452380Y-66369642D02*
X265976190Y-66036309D01*
X266452380Y-65798214D02*
X265452380Y-65798214D01*
X265452380Y-66179166D01*
X265500000Y-66274404D01*
X265547619Y-66322023D01*
X265642857Y-66369642D01*
X265785714Y-66369642D01*
X265880952Y-66322023D01*
X265928571Y-66274404D01*
X265976190Y-66179166D01*
X265976190Y-65798214D01*
X265547619Y-66750595D02*
X265500000Y-66798214D01*
X265452380Y-66893452D01*
X265452380Y-67131547D01*
X265500000Y-67226785D01*
X265547619Y-67274404D01*
X265642857Y-67322023D01*
X265738095Y-67322023D01*
X265880952Y-67274404D01*
X266452380Y-66702976D01*
X266452380Y-67322023D01*
X265452380Y-67941071D02*
X265452380Y-68036309D01*
X265500000Y-68131547D01*
X265547619Y-68179166D01*
X265642857Y-68226785D01*
X265833333Y-68274404D01*
X266071428Y-68274404D01*
X266261904Y-68226785D01*
X266357142Y-68179166D01*
X266404761Y-68131547D01*
X266452380Y-68036309D01*
X266452380Y-67941071D01*
X266404761Y-67845833D01*
X266357142Y-67798214D01*
X266261904Y-67750595D01*
X266071428Y-67702976D01*
X265833333Y-67702976D01*
X265642857Y-67750595D01*
X265547619Y-67798214D01*
X265500000Y-67845833D01*
X265452380Y-67941071D01*
%TO.C,D12*%
X186214285Y-56452380D02*
X186214285Y-55452380D01*
X185976190Y-55452380D01*
X185833333Y-55500000D01*
X185738095Y-55595238D01*
X185690476Y-55690476D01*
X185642857Y-55880952D01*
X185642857Y-56023809D01*
X185690476Y-56214285D01*
X185738095Y-56309523D01*
X185833333Y-56404761D01*
X185976190Y-56452380D01*
X186214285Y-56452380D01*
X184690476Y-56452380D02*
X185261904Y-56452380D01*
X184976190Y-56452380D02*
X184976190Y-55452380D01*
X185071428Y-55595238D01*
X185166666Y-55690476D01*
X185261904Y-55738095D01*
X184309523Y-55547619D02*
X184261904Y-55500000D01*
X184166666Y-55452380D01*
X183928571Y-55452380D01*
X183833333Y-55500000D01*
X183785714Y-55547619D01*
X183738095Y-55642857D01*
X183738095Y-55738095D01*
X183785714Y-55880952D01*
X184357142Y-56452380D01*
X183738095Y-56452380D01*
%TO.C,D16*%
X129214285Y-77452380D02*
X129214285Y-76452380D01*
X128976190Y-76452380D01*
X128833333Y-76500000D01*
X128738095Y-76595238D01*
X128690476Y-76690476D01*
X128642857Y-76880952D01*
X128642857Y-77023809D01*
X128690476Y-77214285D01*
X128738095Y-77309523D01*
X128833333Y-77404761D01*
X128976190Y-77452380D01*
X129214285Y-77452380D01*
X127690476Y-77452380D02*
X128261904Y-77452380D01*
X127976190Y-77452380D02*
X127976190Y-76452380D01*
X128071428Y-76595238D01*
X128166666Y-76690476D01*
X128261904Y-76738095D01*
X126833333Y-76452380D02*
X127023809Y-76452380D01*
X127119047Y-76500000D01*
X127166666Y-76547619D01*
X127261904Y-76690476D01*
X127309523Y-76880952D01*
X127309523Y-77261904D01*
X127261904Y-77357142D01*
X127214285Y-77404761D01*
X127119047Y-77452380D01*
X126928571Y-77452380D01*
X126833333Y-77404761D01*
X126785714Y-77357142D01*
X126738095Y-77261904D01*
X126738095Y-77023809D01*
X126785714Y-76928571D01*
X126833333Y-76880952D01*
X126928571Y-76833333D01*
X127119047Y-76833333D01*
X127214285Y-76880952D01*
X127261904Y-76928571D01*
X127309523Y-77023809D01*
%TO.C,R18*%
X264252380Y-66344642D02*
X263776190Y-66011309D01*
X264252380Y-65773214D02*
X263252380Y-65773214D01*
X263252380Y-66154166D01*
X263300000Y-66249404D01*
X263347619Y-66297023D01*
X263442857Y-66344642D01*
X263585714Y-66344642D01*
X263680952Y-66297023D01*
X263728571Y-66249404D01*
X263776190Y-66154166D01*
X263776190Y-65773214D01*
X264252380Y-67297023D02*
X264252380Y-66725595D01*
X264252380Y-67011309D02*
X263252380Y-67011309D01*
X263395238Y-66916071D01*
X263490476Y-66820833D01*
X263538095Y-66725595D01*
X263680952Y-67868452D02*
X263633333Y-67773214D01*
X263585714Y-67725595D01*
X263490476Y-67677976D01*
X263442857Y-67677976D01*
X263347619Y-67725595D01*
X263300000Y-67773214D01*
X263252380Y-67868452D01*
X263252380Y-68058928D01*
X263300000Y-68154166D01*
X263347619Y-68201785D01*
X263442857Y-68249404D01*
X263490476Y-68249404D01*
X263585714Y-68201785D01*
X263633333Y-68154166D01*
X263680952Y-68058928D01*
X263680952Y-67868452D01*
X263728571Y-67773214D01*
X263776190Y-67725595D01*
X263871428Y-67677976D01*
X264061904Y-67677976D01*
X264157142Y-67725595D01*
X264204761Y-67773214D01*
X264252380Y-67868452D01*
X264252380Y-68058928D01*
X264204761Y-68154166D01*
X264157142Y-68201785D01*
X264061904Y-68249404D01*
X263871428Y-68249404D01*
X263776190Y-68201785D01*
X263728571Y-68154166D01*
X263680952Y-68058928D01*
%TO.C,D15*%
X110214285Y-81452380D02*
X110214285Y-80452380D01*
X109976190Y-80452380D01*
X109833333Y-80500000D01*
X109738095Y-80595238D01*
X109690476Y-80690476D01*
X109642857Y-80880952D01*
X109642857Y-81023809D01*
X109690476Y-81214285D01*
X109738095Y-81309523D01*
X109833333Y-81404761D01*
X109976190Y-81452380D01*
X110214285Y-81452380D01*
X108690476Y-81452380D02*
X109261904Y-81452380D01*
X108976190Y-81452380D02*
X108976190Y-80452380D01*
X109071428Y-80595238D01*
X109166666Y-80690476D01*
X109261904Y-80738095D01*
X107785714Y-80452380D02*
X108261904Y-80452380D01*
X108309523Y-80928571D01*
X108261904Y-80880952D01*
X108166666Y-80833333D01*
X107928571Y-80833333D01*
X107833333Y-80880952D01*
X107785714Y-80928571D01*
X107738095Y-81023809D01*
X107738095Y-81261904D01*
X107785714Y-81357142D01*
X107833333Y-81404761D01*
X107928571Y-81452380D01*
X108166666Y-81452380D01*
X108261904Y-81404761D01*
X108309523Y-81357142D01*
%TO.C,R4*%
X243666666Y-87852380D02*
X244000000Y-87376190D01*
X244238095Y-87852380D02*
X244238095Y-86852380D01*
X243857142Y-86852380D01*
X243761904Y-86900000D01*
X243714285Y-86947619D01*
X243666666Y-87042857D01*
X243666666Y-87185714D01*
X243714285Y-87280952D01*
X243761904Y-87328571D01*
X243857142Y-87376190D01*
X244238095Y-87376190D01*
X242809523Y-87185714D02*
X242809523Y-87852380D01*
X243047619Y-86804761D02*
X243285714Y-87519047D01*
X242666666Y-87519047D01*
%TO.C,R30*%
X264302380Y-72857142D02*
X263826190Y-72523809D01*
X264302380Y-72285714D02*
X263302380Y-72285714D01*
X263302380Y-72666666D01*
X263350000Y-72761904D01*
X263397619Y-72809523D01*
X263492857Y-72857142D01*
X263635714Y-72857142D01*
X263730952Y-72809523D01*
X263778571Y-72761904D01*
X263826190Y-72666666D01*
X263826190Y-72285714D01*
X263302380Y-73190476D02*
X263302380Y-73809523D01*
X263683333Y-73476190D01*
X263683333Y-73619047D01*
X263730952Y-73714285D01*
X263778571Y-73761904D01*
X263873809Y-73809523D01*
X264111904Y-73809523D01*
X264207142Y-73761904D01*
X264254761Y-73714285D01*
X264302380Y-73619047D01*
X264302380Y-73333333D01*
X264254761Y-73238095D01*
X264207142Y-73190476D01*
X263302380Y-74428571D02*
X263302380Y-74523809D01*
X263350000Y-74619047D01*
X263397619Y-74666666D01*
X263492857Y-74714285D01*
X263683333Y-74761904D01*
X263921428Y-74761904D01*
X264111904Y-74714285D01*
X264207142Y-74666666D01*
X264254761Y-74619047D01*
X264302380Y-74523809D01*
X264302380Y-74428571D01*
X264254761Y-74333333D01*
X264207142Y-74285714D01*
X264111904Y-74238095D01*
X263921428Y-74190476D01*
X263683333Y-74190476D01*
X263492857Y-74238095D01*
X263397619Y-74285714D01*
X263350000Y-74333333D01*
X263302380Y-74428571D01*
%TO.C,R11*%
X238242857Y-137852380D02*
X238576190Y-137376190D01*
X238814285Y-137852380D02*
X238814285Y-136852380D01*
X238433333Y-136852380D01*
X238338095Y-136900000D01*
X238290476Y-136947619D01*
X238242857Y-137042857D01*
X238242857Y-137185714D01*
X238290476Y-137280952D01*
X238338095Y-137328571D01*
X238433333Y-137376190D01*
X238814285Y-137376190D01*
X237290476Y-137852380D02*
X237861904Y-137852380D01*
X237576190Y-137852380D02*
X237576190Y-136852380D01*
X237671428Y-136995238D01*
X237766666Y-137090476D01*
X237861904Y-137138095D01*
X236338095Y-137852380D02*
X236909523Y-137852380D01*
X236623809Y-137852380D02*
X236623809Y-136852380D01*
X236719047Y-136995238D01*
X236814285Y-137090476D01*
X236909523Y-137138095D01*
%TO.C,D37*%
X223239451Y-157651138D02*
X222532345Y-158358245D01*
X222700703Y-158526604D01*
X222835390Y-158593947D01*
X222970077Y-158593947D01*
X223071093Y-158560275D01*
X223239451Y-158459260D01*
X223340467Y-158358245D01*
X223441482Y-158189886D01*
X223475154Y-158088871D01*
X223475154Y-157954184D01*
X223407810Y-157819497D01*
X223239451Y-157651138D01*
X223172108Y-158998008D02*
X223609841Y-159435741D01*
X223643512Y-158930665D01*
X223744528Y-159031680D01*
X223845543Y-159065352D01*
X223912887Y-159065352D01*
X224013902Y-159031680D01*
X224182261Y-158863321D01*
X224215932Y-158762306D01*
X224215932Y-158694962D01*
X224182261Y-158593947D01*
X223980230Y-158391917D01*
X223879215Y-158358245D01*
X223811871Y-158358245D01*
X223845543Y-159671443D02*
X224316948Y-160142848D01*
X224721009Y-159132695D01*
%TO.C,R17*%
X257352380Y-66357142D02*
X256876190Y-66023809D01*
X257352380Y-65785714D02*
X256352380Y-65785714D01*
X256352380Y-66166666D01*
X256400000Y-66261904D01*
X256447619Y-66309523D01*
X256542857Y-66357142D01*
X256685714Y-66357142D01*
X256780952Y-66309523D01*
X256828571Y-66261904D01*
X256876190Y-66166666D01*
X256876190Y-65785714D01*
X257352380Y-67309523D02*
X257352380Y-66738095D01*
X257352380Y-67023809D02*
X256352380Y-67023809D01*
X256495238Y-66928571D01*
X256590476Y-66833333D01*
X256638095Y-66738095D01*
X256352380Y-67642857D02*
X256352380Y-68309523D01*
X257352380Y-67880952D01*
%TO.C,D11*%
X167214285Y-55452380D02*
X167214285Y-54452380D01*
X166976190Y-54452380D01*
X166833333Y-54500000D01*
X166738095Y-54595238D01*
X166690476Y-54690476D01*
X166642857Y-54880952D01*
X166642857Y-55023809D01*
X166690476Y-55214285D01*
X166738095Y-55309523D01*
X166833333Y-55404761D01*
X166976190Y-55452380D01*
X167214285Y-55452380D01*
X165690476Y-55452380D02*
X166261904Y-55452380D01*
X165976190Y-55452380D02*
X165976190Y-54452380D01*
X166071428Y-54595238D01*
X166166666Y-54690476D01*
X166261904Y-54738095D01*
X164738095Y-55452380D02*
X165309523Y-55452380D01*
X165023809Y-55452380D02*
X165023809Y-54452380D01*
X165119047Y-54595238D01*
X165214285Y-54690476D01*
X165309523Y-54738095D01*
%TO.C,R15*%
X274942857Y-88152380D02*
X275276190Y-87676190D01*
X275514285Y-88152380D02*
X275514285Y-87152380D01*
X275133333Y-87152380D01*
X275038095Y-87200000D01*
X274990476Y-87247619D01*
X274942857Y-87342857D01*
X274942857Y-87485714D01*
X274990476Y-87580952D01*
X275038095Y-87628571D01*
X275133333Y-87676190D01*
X275514285Y-87676190D01*
X273990476Y-88152380D02*
X274561904Y-88152380D01*
X274276190Y-88152380D02*
X274276190Y-87152380D01*
X274371428Y-87295238D01*
X274466666Y-87390476D01*
X274561904Y-87438095D01*
X273085714Y-87152380D02*
X273561904Y-87152380D01*
X273609523Y-87628571D01*
X273561904Y-87580952D01*
X273466666Y-87533333D01*
X273228571Y-87533333D01*
X273133333Y-87580952D01*
X273085714Y-87628571D01*
X273038095Y-87723809D01*
X273038095Y-87961904D01*
X273085714Y-88057142D01*
X273133333Y-88104761D01*
X273228571Y-88152380D01*
X273466666Y-88152380D01*
X273561904Y-88104761D01*
X273609523Y-88057142D01*
%TO.C,R22*%
X233102380Y-140457142D02*
X232626190Y-140123809D01*
X233102380Y-139885714D02*
X232102380Y-139885714D01*
X232102380Y-140266666D01*
X232150000Y-140361904D01*
X232197619Y-140409523D01*
X232292857Y-140457142D01*
X232435714Y-140457142D01*
X232530952Y-140409523D01*
X232578571Y-140361904D01*
X232626190Y-140266666D01*
X232626190Y-139885714D01*
X232197619Y-140838095D02*
X232150000Y-140885714D01*
X232102380Y-140980952D01*
X232102380Y-141219047D01*
X232150000Y-141314285D01*
X232197619Y-141361904D01*
X232292857Y-141409523D01*
X232388095Y-141409523D01*
X232530952Y-141361904D01*
X233102380Y-140790476D01*
X233102380Y-141409523D01*
X232197619Y-141790476D02*
X232150000Y-141838095D01*
X232102380Y-141933333D01*
X232102380Y-142171428D01*
X232150000Y-142266666D01*
X232197619Y-142314285D01*
X232292857Y-142361904D01*
X232388095Y-142361904D01*
X232530952Y-142314285D01*
X233102380Y-141742857D01*
X233102380Y-142361904D01*
%TO.C,D2*%
X128738095Y-39452380D02*
X128738095Y-38452380D01*
X128500000Y-38452380D01*
X128357142Y-38500000D01*
X128261904Y-38595238D01*
X128214285Y-38690476D01*
X128166666Y-38880952D01*
X128166666Y-39023809D01*
X128214285Y-39214285D01*
X128261904Y-39309523D01*
X128357142Y-39404761D01*
X128500000Y-39452380D01*
X128738095Y-39452380D01*
X127785714Y-38547619D02*
X127738095Y-38500000D01*
X127642857Y-38452380D01*
X127404761Y-38452380D01*
X127309523Y-38500000D01*
X127261904Y-38547619D01*
X127214285Y-38642857D01*
X127214285Y-38738095D01*
X127261904Y-38880952D01*
X127833333Y-39452380D01*
X127214285Y-39452380D01*
%TO.C,C13*%
X272357142Y-71907142D02*
X272404761Y-71859523D01*
X272452380Y-71716666D01*
X272452380Y-71621428D01*
X272404761Y-71478571D01*
X272309523Y-71383333D01*
X272214285Y-71335714D01*
X272023809Y-71288095D01*
X271880952Y-71288095D01*
X271690476Y-71335714D01*
X271595238Y-71383333D01*
X271500000Y-71478571D01*
X271452380Y-71621428D01*
X271452380Y-71716666D01*
X271500000Y-71859523D01*
X271547619Y-71907142D01*
X272452380Y-72859523D02*
X272452380Y-72288095D01*
X272452380Y-72573809D02*
X271452380Y-72573809D01*
X271595238Y-72478571D01*
X271690476Y-72383333D01*
X271738095Y-72288095D01*
X271452380Y-73192857D02*
X271452380Y-73811904D01*
X271833333Y-73478571D01*
X271833333Y-73621428D01*
X271880952Y-73716666D01*
X271928571Y-73764285D01*
X272023809Y-73811904D01*
X272261904Y-73811904D01*
X272357142Y-73764285D01*
X272404761Y-73716666D01*
X272452380Y-73621428D01*
X272452380Y-73335714D01*
X272404761Y-73240476D01*
X272357142Y-73192857D01*
%TO.C,C6*%
X266466666Y-135457142D02*
X266514285Y-135504761D01*
X266657142Y-135552380D01*
X266752380Y-135552380D01*
X266895238Y-135504761D01*
X266990476Y-135409523D01*
X267038095Y-135314285D01*
X267085714Y-135123809D01*
X267085714Y-134980952D01*
X267038095Y-134790476D01*
X266990476Y-134695238D01*
X266895238Y-134600000D01*
X266752380Y-134552380D01*
X266657142Y-134552380D01*
X266514285Y-134600000D01*
X266466666Y-134647619D01*
X265609523Y-134552380D02*
X265800000Y-134552380D01*
X265895238Y-134600000D01*
X265942857Y-134647619D01*
X266038095Y-134790476D01*
X266085714Y-134980952D01*
X266085714Y-135361904D01*
X266038095Y-135457142D01*
X265990476Y-135504761D01*
X265895238Y-135552380D01*
X265704761Y-135552380D01*
X265609523Y-135504761D01*
X265561904Y-135457142D01*
X265514285Y-135361904D01*
X265514285Y-135123809D01*
X265561904Y-135028571D01*
X265609523Y-134980952D01*
X265704761Y-134933333D01*
X265895238Y-134933333D01*
X265990476Y-134980952D01*
X266038095Y-135028571D01*
X266085714Y-135123809D01*
%TO.C,R9*%
X234866666Y-77452380D02*
X235200000Y-76976190D01*
X235438095Y-77452380D02*
X235438095Y-76452380D01*
X235057142Y-76452380D01*
X234961904Y-76500000D01*
X234914285Y-76547619D01*
X234866666Y-76642857D01*
X234866666Y-76785714D01*
X234914285Y-76880952D01*
X234961904Y-76928571D01*
X235057142Y-76976190D01*
X235438095Y-76976190D01*
X234390476Y-77452380D02*
X234200000Y-77452380D01*
X234104761Y-77404761D01*
X234057142Y-77357142D01*
X233961904Y-77214285D01*
X233914285Y-77023809D01*
X233914285Y-76642857D01*
X233961904Y-76547619D01*
X234009523Y-76500000D01*
X234104761Y-76452380D01*
X234295238Y-76452380D01*
X234390476Y-76500000D01*
X234438095Y-76547619D01*
X234485714Y-76642857D01*
X234485714Y-76880952D01*
X234438095Y-76976190D01*
X234390476Y-77023809D01*
X234295238Y-77071428D01*
X234104761Y-77071428D01*
X234009523Y-77023809D01*
X233961904Y-76976190D01*
X233914285Y-76880952D01*
%TO.C,D14*%
X224214285Y-62452380D02*
X224214285Y-61452380D01*
X223976190Y-61452380D01*
X223833333Y-61500000D01*
X223738095Y-61595238D01*
X223690476Y-61690476D01*
X223642857Y-61880952D01*
X223642857Y-62023809D01*
X223690476Y-62214285D01*
X223738095Y-62309523D01*
X223833333Y-62404761D01*
X223976190Y-62452380D01*
X224214285Y-62452380D01*
X222690476Y-62452380D02*
X223261904Y-62452380D01*
X222976190Y-62452380D02*
X222976190Y-61452380D01*
X223071428Y-61595238D01*
X223166666Y-61690476D01*
X223261904Y-61738095D01*
X221833333Y-61785714D02*
X221833333Y-62452380D01*
X222071428Y-61404761D02*
X222309523Y-62119047D01*
X221690476Y-62119047D01*
%TO.C,R39*%
X272542857Y-70402380D02*
X272876190Y-69926190D01*
X273114285Y-70402380D02*
X273114285Y-69402380D01*
X272733333Y-69402380D01*
X272638095Y-69450000D01*
X272590476Y-69497619D01*
X272542857Y-69592857D01*
X272542857Y-69735714D01*
X272590476Y-69830952D01*
X272638095Y-69878571D01*
X272733333Y-69926190D01*
X273114285Y-69926190D01*
X272209523Y-69402380D02*
X271590476Y-69402380D01*
X271923809Y-69783333D01*
X271780952Y-69783333D01*
X271685714Y-69830952D01*
X271638095Y-69878571D01*
X271590476Y-69973809D01*
X271590476Y-70211904D01*
X271638095Y-70307142D01*
X271685714Y-70354761D01*
X271780952Y-70402380D01*
X272066666Y-70402380D01*
X272161904Y-70354761D01*
X272209523Y-70307142D01*
X271114285Y-70402380D02*
X270923809Y-70402380D01*
X270828571Y-70354761D01*
X270780952Y-70307142D01*
X270685714Y-70164285D01*
X270638095Y-69973809D01*
X270638095Y-69592857D01*
X270685714Y-69497619D01*
X270733333Y-69450000D01*
X270828571Y-69402380D01*
X271019047Y-69402380D01*
X271114285Y-69450000D01*
X271161904Y-69497619D01*
X271209523Y-69592857D01*
X271209523Y-69830952D01*
X271161904Y-69926190D01*
X271114285Y-69973809D01*
X271019047Y-70021428D01*
X270828571Y-70021428D01*
X270733333Y-69973809D01*
X270685714Y-69926190D01*
X270638095Y-69830952D01*
%TO.C,C4*%
X229644642Y-53933333D02*
X229692261Y-53885714D01*
X229739880Y-53742857D01*
X229739880Y-53647619D01*
X229692261Y-53504761D01*
X229597023Y-53409523D01*
X229501785Y-53361904D01*
X229311309Y-53314285D01*
X229168452Y-53314285D01*
X228977976Y-53361904D01*
X228882738Y-53409523D01*
X228787500Y-53504761D01*
X228739880Y-53647619D01*
X228739880Y-53742857D01*
X228787500Y-53885714D01*
X228835119Y-53933333D01*
X229073214Y-54790476D02*
X229739880Y-54790476D01*
X228692261Y-54552380D02*
X229406547Y-54314285D01*
X229406547Y-54933333D01*
%TO.C,U4*%
X237461904Y-48452380D02*
X237461904Y-49261904D01*
X237414285Y-49357142D01*
X237366666Y-49404761D01*
X237271428Y-49452380D01*
X237080952Y-49452380D01*
X236985714Y-49404761D01*
X236938095Y-49357142D01*
X236890476Y-49261904D01*
X236890476Y-48452380D01*
X235985714Y-48785714D02*
X235985714Y-49452380D01*
X236223809Y-48404761D02*
X236461904Y-49119047D01*
X235842857Y-49119047D01*
%TO.C,D17*%
X148214285Y-75452380D02*
X148214285Y-74452380D01*
X147976190Y-74452380D01*
X147833333Y-74500000D01*
X147738095Y-74595238D01*
X147690476Y-74690476D01*
X147642857Y-74880952D01*
X147642857Y-75023809D01*
X147690476Y-75214285D01*
X147738095Y-75309523D01*
X147833333Y-75404761D01*
X147976190Y-75452380D01*
X148214285Y-75452380D01*
X146690476Y-75452380D02*
X147261904Y-75452380D01*
X146976190Y-75452380D02*
X146976190Y-74452380D01*
X147071428Y-74595238D01*
X147166666Y-74690476D01*
X147261904Y-74738095D01*
X146357142Y-74452380D02*
X145690476Y-74452380D01*
X146119047Y-75452380D01*
%TO.C,C16*%
X238442857Y-132657142D02*
X238490476Y-132704761D01*
X238633333Y-132752380D01*
X238728571Y-132752380D01*
X238871428Y-132704761D01*
X238966666Y-132609523D01*
X239014285Y-132514285D01*
X239061904Y-132323809D01*
X239061904Y-132180952D01*
X239014285Y-131990476D01*
X238966666Y-131895238D01*
X238871428Y-131800000D01*
X238728571Y-131752380D01*
X238633333Y-131752380D01*
X238490476Y-131800000D01*
X238442857Y-131847619D01*
X237490476Y-132752380D02*
X238061904Y-132752380D01*
X237776190Y-132752380D02*
X237776190Y-131752380D01*
X237871428Y-131895238D01*
X237966666Y-131990476D01*
X238061904Y-132038095D01*
X236633333Y-131752380D02*
X236823809Y-131752380D01*
X236919047Y-131800000D01*
X236966666Y-131847619D01*
X237061904Y-131990476D01*
X237109523Y-132180952D01*
X237109523Y-132561904D01*
X237061904Y-132657142D01*
X237014285Y-132704761D01*
X236919047Y-132752380D01*
X236728571Y-132752380D01*
X236633333Y-132704761D01*
X236585714Y-132657142D01*
X236538095Y-132561904D01*
X236538095Y-132323809D01*
X236585714Y-132228571D01*
X236633333Y-132180952D01*
X236728571Y-132133333D01*
X236919047Y-132133333D01*
X237014285Y-132180952D01*
X237061904Y-132228571D01*
X237109523Y-132323809D01*
%TO.C,D23*%
X129214285Y-96452380D02*
X129214285Y-95452380D01*
X128976190Y-95452380D01*
X128833333Y-95500000D01*
X128738095Y-95595238D01*
X128690476Y-95690476D01*
X128642857Y-95880952D01*
X128642857Y-96023809D01*
X128690476Y-96214285D01*
X128738095Y-96309523D01*
X128833333Y-96404761D01*
X128976190Y-96452380D01*
X129214285Y-96452380D01*
X128261904Y-95547619D02*
X128214285Y-95500000D01*
X128119047Y-95452380D01*
X127880952Y-95452380D01*
X127785714Y-95500000D01*
X127738095Y-95547619D01*
X127690476Y-95642857D01*
X127690476Y-95738095D01*
X127738095Y-95880952D01*
X128309523Y-96452380D01*
X127690476Y-96452380D01*
X127357142Y-95452380D02*
X126738095Y-95452380D01*
X127071428Y-95833333D01*
X126928571Y-95833333D01*
X126833333Y-95880952D01*
X126785714Y-95928571D01*
X126738095Y-96023809D01*
X126738095Y-96261904D01*
X126785714Y-96357142D01*
X126833333Y-96404761D01*
X126928571Y-96452380D01*
X127214285Y-96452380D01*
X127309523Y-96404761D01*
X127357142Y-96357142D01*
%TO.C,R33*%
X244330357Y-93932380D02*
X244663690Y-93456190D01*
X244901785Y-93932380D02*
X244901785Y-92932380D01*
X244520833Y-92932380D01*
X244425595Y-92980000D01*
X244377976Y-93027619D01*
X244330357Y-93122857D01*
X244330357Y-93265714D01*
X244377976Y-93360952D01*
X244425595Y-93408571D01*
X244520833Y-93456190D01*
X244901785Y-93456190D01*
X243997023Y-92932380D02*
X243377976Y-92932380D01*
X243711309Y-93313333D01*
X243568452Y-93313333D01*
X243473214Y-93360952D01*
X243425595Y-93408571D01*
X243377976Y-93503809D01*
X243377976Y-93741904D01*
X243425595Y-93837142D01*
X243473214Y-93884761D01*
X243568452Y-93932380D01*
X243854166Y-93932380D01*
X243949404Y-93884761D01*
X243997023Y-93837142D01*
X243044642Y-92932380D02*
X242425595Y-92932380D01*
X242758928Y-93313333D01*
X242616071Y-93313333D01*
X242520833Y-93360952D01*
X242473214Y-93408571D01*
X242425595Y-93503809D01*
X242425595Y-93741904D01*
X242473214Y-93837142D01*
X242520833Y-93884761D01*
X242616071Y-93932380D01*
X242901785Y-93932380D01*
X242997023Y-93884761D01*
X243044642Y-93837142D01*
%TO.C,D3*%
X147738095Y-37452380D02*
X147738095Y-36452380D01*
X147500000Y-36452380D01*
X147357142Y-36500000D01*
X147261904Y-36595238D01*
X147214285Y-36690476D01*
X147166666Y-36880952D01*
X147166666Y-37023809D01*
X147214285Y-37214285D01*
X147261904Y-37309523D01*
X147357142Y-37404761D01*
X147500000Y-37452380D01*
X147738095Y-37452380D01*
X146833333Y-36452380D02*
X146214285Y-36452380D01*
X146547619Y-36833333D01*
X146404761Y-36833333D01*
X146309523Y-36880952D01*
X146261904Y-36928571D01*
X146214285Y-37023809D01*
X146214285Y-37261904D01*
X146261904Y-37357142D01*
X146309523Y-37404761D01*
X146404761Y-37452380D01*
X146690476Y-37452380D01*
X146785714Y-37404761D01*
X146833333Y-37357142D01*
%TO.C,D34*%
X205214285Y-115452380D02*
X205214285Y-114452380D01*
X204976190Y-114452380D01*
X204833333Y-114500000D01*
X204738095Y-114595238D01*
X204690476Y-114690476D01*
X204642857Y-114880952D01*
X204642857Y-115023809D01*
X204690476Y-115214285D01*
X204738095Y-115309523D01*
X204833333Y-115404761D01*
X204976190Y-115452380D01*
X205214285Y-115452380D01*
X204309523Y-114452380D02*
X203690476Y-114452380D01*
X204023809Y-114833333D01*
X203880952Y-114833333D01*
X203785714Y-114880952D01*
X203738095Y-114928571D01*
X203690476Y-115023809D01*
X203690476Y-115261904D01*
X203738095Y-115357142D01*
X203785714Y-115404761D01*
X203880952Y-115452380D01*
X204166666Y-115452380D01*
X204261904Y-115404761D01*
X204309523Y-115357142D01*
X202833333Y-114785714D02*
X202833333Y-115452380D01*
X203071428Y-114404761D02*
X203309523Y-115119047D01*
X202690476Y-115119047D01*
%TO.C,C7*%
X249677142Y-96883333D02*
X249724761Y-96835714D01*
X249772380Y-96692857D01*
X249772380Y-96597619D01*
X249724761Y-96454761D01*
X249629523Y-96359523D01*
X249534285Y-96311904D01*
X249343809Y-96264285D01*
X249200952Y-96264285D01*
X249010476Y-96311904D01*
X248915238Y-96359523D01*
X248820000Y-96454761D01*
X248772380Y-96597619D01*
X248772380Y-96692857D01*
X248820000Y-96835714D01*
X248867619Y-96883333D01*
X248772380Y-97216666D02*
X248772380Y-97883333D01*
X249772380Y-97454761D01*
%TO.C,U1*%
X275561904Y-80652380D02*
X275561904Y-81461904D01*
X275514285Y-81557142D01*
X275466666Y-81604761D01*
X275371428Y-81652380D01*
X275180952Y-81652380D01*
X275085714Y-81604761D01*
X275038095Y-81557142D01*
X274990476Y-81461904D01*
X274990476Y-80652380D01*
X273990476Y-81652380D02*
X274561904Y-81652380D01*
X274276190Y-81652380D02*
X274276190Y-80652380D01*
X274371428Y-80795238D01*
X274466666Y-80890476D01*
X274561904Y-80938095D01*
X270873500Y-80650880D02*
X270873500Y-80888976D01*
X271111595Y-80793738D02*
X270873500Y-80888976D01*
X270635404Y-80793738D01*
X271016357Y-81079452D02*
X270873500Y-80888976D01*
X270730642Y-81079452D01*
%TO.C,R41*%
X258136380Y-116552742D02*
X257660190Y-116219409D01*
X258136380Y-115981314D02*
X257136380Y-115981314D01*
X257136380Y-116362266D01*
X257184000Y-116457504D01*
X257231619Y-116505123D01*
X257326857Y-116552742D01*
X257469714Y-116552742D01*
X257564952Y-116505123D01*
X257612571Y-116457504D01*
X257660190Y-116362266D01*
X257660190Y-115981314D01*
X257469714Y-117409885D02*
X258136380Y-117409885D01*
X257088761Y-117171790D02*
X257803047Y-116933695D01*
X257803047Y-117552742D01*
X258136380Y-118457504D02*
X258136380Y-117886076D01*
X258136380Y-118171790D02*
X257136380Y-118171790D01*
X257279238Y-118076552D01*
X257374476Y-117981314D01*
X257422095Y-117886076D01*
%TO.C,FB1*%
X248233333Y-54328571D02*
X248566666Y-54328571D01*
X248566666Y-54852380D02*
X248566666Y-53852380D01*
X248090476Y-53852380D01*
X247376190Y-54328571D02*
X247233333Y-54376190D01*
X247185714Y-54423809D01*
X247138095Y-54519047D01*
X247138095Y-54661904D01*
X247185714Y-54757142D01*
X247233333Y-54804761D01*
X247328571Y-54852380D01*
X247709523Y-54852380D01*
X247709523Y-53852380D01*
X247376190Y-53852380D01*
X247280952Y-53900000D01*
X247233333Y-53947619D01*
X247185714Y-54042857D01*
X247185714Y-54138095D01*
X247233333Y-54233333D01*
X247280952Y-54280952D01*
X247376190Y-54328571D01*
X247709523Y-54328571D01*
X246185714Y-54852380D02*
X246757142Y-54852380D01*
X246471428Y-54852380D02*
X246471428Y-53852380D01*
X246566666Y-53995238D01*
X246661904Y-54090476D01*
X246757142Y-54138095D01*
%TO.C,C14*%
X272242857Y-84857142D02*
X272290476Y-84904761D01*
X272433333Y-84952380D01*
X272528571Y-84952380D01*
X272671428Y-84904761D01*
X272766666Y-84809523D01*
X272814285Y-84714285D01*
X272861904Y-84523809D01*
X272861904Y-84380952D01*
X272814285Y-84190476D01*
X272766666Y-84095238D01*
X272671428Y-84000000D01*
X272528571Y-83952380D01*
X272433333Y-83952380D01*
X272290476Y-84000000D01*
X272242857Y-84047619D01*
X271290476Y-84952380D02*
X271861904Y-84952380D01*
X271576190Y-84952380D02*
X271576190Y-83952380D01*
X271671428Y-84095238D01*
X271766666Y-84190476D01*
X271861904Y-84238095D01*
X270433333Y-84285714D02*
X270433333Y-84952380D01*
X270671428Y-83904761D02*
X270909523Y-84619047D01*
X270290476Y-84619047D01*
%TO.C,C15*%
X272642857Y-91657142D02*
X272690476Y-91704761D01*
X272833333Y-91752380D01*
X272928571Y-91752380D01*
X273071428Y-91704761D01*
X273166666Y-91609523D01*
X273214285Y-91514285D01*
X273261904Y-91323809D01*
X273261904Y-91180952D01*
X273214285Y-90990476D01*
X273166666Y-90895238D01*
X273071428Y-90800000D01*
X272928571Y-90752380D01*
X272833333Y-90752380D01*
X272690476Y-90800000D01*
X272642857Y-90847619D01*
X271690476Y-91752380D02*
X272261904Y-91752380D01*
X271976190Y-91752380D02*
X271976190Y-90752380D01*
X272071428Y-90895238D01*
X272166666Y-90990476D01*
X272261904Y-91038095D01*
X270785714Y-90752380D02*
X271261904Y-90752380D01*
X271309523Y-91228571D01*
X271261904Y-91180952D01*
X271166666Y-91133333D01*
X270928571Y-91133333D01*
X270833333Y-91180952D01*
X270785714Y-91228571D01*
X270738095Y-91323809D01*
X270738095Y-91561904D01*
X270785714Y-91657142D01*
X270833333Y-91704761D01*
X270928571Y-91752380D01*
X271166666Y-91752380D01*
X271261904Y-91704761D01*
X271309523Y-91657142D01*
%TO.C,D30*%
X129214285Y-115452380D02*
X129214285Y-114452380D01*
X128976190Y-114452380D01*
X128833333Y-114500000D01*
X128738095Y-114595238D01*
X128690476Y-114690476D01*
X128642857Y-114880952D01*
X128642857Y-115023809D01*
X128690476Y-115214285D01*
X128738095Y-115309523D01*
X128833333Y-115404761D01*
X128976190Y-115452380D01*
X129214285Y-115452380D01*
X128309523Y-114452380D02*
X127690476Y-114452380D01*
X128023809Y-114833333D01*
X127880952Y-114833333D01*
X127785714Y-114880952D01*
X127738095Y-114928571D01*
X127690476Y-115023809D01*
X127690476Y-115261904D01*
X127738095Y-115357142D01*
X127785714Y-115404761D01*
X127880952Y-115452380D01*
X128166666Y-115452380D01*
X128261904Y-115404761D01*
X128309523Y-115357142D01*
X127071428Y-114452380D02*
X126976190Y-114452380D01*
X126880952Y-114500000D01*
X126833333Y-114547619D01*
X126785714Y-114642857D01*
X126738095Y-114833333D01*
X126738095Y-115071428D01*
X126785714Y-115261904D01*
X126833333Y-115357142D01*
X126880952Y-115404761D01*
X126976190Y-115452380D01*
X127071428Y-115452380D01*
X127166666Y-115404761D01*
X127214285Y-115357142D01*
X127261904Y-115261904D01*
X127309523Y-115071428D01*
X127309523Y-114833333D01*
X127261904Y-114642857D01*
X127214285Y-114547619D01*
X127166666Y-114500000D01*
X127071428Y-114452380D01*
%TO.C,D25*%
X167214285Y-93452380D02*
X167214285Y-92452380D01*
X166976190Y-92452380D01*
X166833333Y-92500000D01*
X166738095Y-92595238D01*
X166690476Y-92690476D01*
X166642857Y-92880952D01*
X166642857Y-93023809D01*
X166690476Y-93214285D01*
X166738095Y-93309523D01*
X166833333Y-93404761D01*
X166976190Y-93452380D01*
X167214285Y-93452380D01*
X166261904Y-92547619D02*
X166214285Y-92500000D01*
X166119047Y-92452380D01*
X165880952Y-92452380D01*
X165785714Y-92500000D01*
X165738095Y-92547619D01*
X165690476Y-92642857D01*
X165690476Y-92738095D01*
X165738095Y-92880952D01*
X166309523Y-93452380D01*
X165690476Y-93452380D01*
X164785714Y-92452380D02*
X165261904Y-92452380D01*
X165309523Y-92928571D01*
X165261904Y-92880952D01*
X165166666Y-92833333D01*
X164928571Y-92833333D01*
X164833333Y-92880952D01*
X164785714Y-92928571D01*
X164738095Y-93023809D01*
X164738095Y-93261904D01*
X164785714Y-93357142D01*
X164833333Y-93404761D01*
X164928571Y-93452380D01*
X165166666Y-93452380D01*
X165261904Y-93404761D01*
X165309523Y-93357142D01*
%TO.C,C17*%
X238342857Y-148057142D02*
X238390476Y-148104761D01*
X238533333Y-148152380D01*
X238628571Y-148152380D01*
X238771428Y-148104761D01*
X238866666Y-148009523D01*
X238914285Y-147914285D01*
X238961904Y-147723809D01*
X238961904Y-147580952D01*
X238914285Y-147390476D01*
X238866666Y-147295238D01*
X238771428Y-147200000D01*
X238628571Y-147152380D01*
X238533333Y-147152380D01*
X238390476Y-147200000D01*
X238342857Y-147247619D01*
X237390476Y-148152380D02*
X237961904Y-148152380D01*
X237676190Y-148152380D02*
X237676190Y-147152380D01*
X237771428Y-147295238D01*
X237866666Y-147390476D01*
X237961904Y-147438095D01*
X237057142Y-147152380D02*
X236390476Y-147152380D01*
X236819047Y-148152380D01*
%TO.C,D36*%
X209804417Y-144216112D02*
X209097311Y-144923219D01*
X209265669Y-145091578D01*
X209400356Y-145158921D01*
X209535043Y-145158921D01*
X209636059Y-145125249D01*
X209804417Y-145024234D01*
X209905433Y-144923219D01*
X210006448Y-144754860D01*
X210040120Y-144653845D01*
X210040120Y-144519158D01*
X209972776Y-144384471D01*
X209804417Y-144216112D01*
X209737074Y-145562982D02*
X210174807Y-146000715D01*
X210208478Y-145495639D01*
X210309494Y-145596654D01*
X210410509Y-145630326D01*
X210477853Y-145630326D01*
X210578868Y-145596654D01*
X210747227Y-145428295D01*
X210780898Y-145327280D01*
X210780898Y-145259936D01*
X210747227Y-145158921D01*
X210545196Y-144956891D01*
X210444181Y-144923219D01*
X210376837Y-144923219D01*
X210780898Y-146606807D02*
X210646211Y-146472120D01*
X210612540Y-146371104D01*
X210612540Y-146303761D01*
X210646211Y-146135402D01*
X210747227Y-145967043D01*
X211016601Y-145697669D01*
X211117616Y-145663998D01*
X211184959Y-145663998D01*
X211285975Y-145697669D01*
X211420662Y-145832356D01*
X211454333Y-145933372D01*
X211454333Y-146000715D01*
X211420662Y-146101730D01*
X211252303Y-146270089D01*
X211151288Y-146303761D01*
X211083944Y-146303761D01*
X210982929Y-146270089D01*
X210848242Y-146135402D01*
X210814570Y-146034387D01*
X210814570Y-145967043D01*
X210848242Y-145866028D01*
%TO.C,D35*%
X224214285Y-119452380D02*
X224214285Y-118452380D01*
X223976190Y-118452380D01*
X223833333Y-118500000D01*
X223738095Y-118595238D01*
X223690476Y-118690476D01*
X223642857Y-118880952D01*
X223642857Y-119023809D01*
X223690476Y-119214285D01*
X223738095Y-119309523D01*
X223833333Y-119404761D01*
X223976190Y-119452380D01*
X224214285Y-119452380D01*
X223309523Y-118452380D02*
X222690476Y-118452380D01*
X223023809Y-118833333D01*
X222880952Y-118833333D01*
X222785714Y-118880952D01*
X222738095Y-118928571D01*
X222690476Y-119023809D01*
X222690476Y-119261904D01*
X222738095Y-119357142D01*
X222785714Y-119404761D01*
X222880952Y-119452380D01*
X223166666Y-119452380D01*
X223261904Y-119404761D01*
X223309523Y-119357142D01*
X221785714Y-118452380D02*
X222261904Y-118452380D01*
X222309523Y-118928571D01*
X222261904Y-118880952D01*
X222166666Y-118833333D01*
X221928571Y-118833333D01*
X221833333Y-118880952D01*
X221785714Y-118928571D01*
X221738095Y-119023809D01*
X221738095Y-119261904D01*
X221785714Y-119357142D01*
X221833333Y-119404761D01*
X221928571Y-119452380D01*
X222166666Y-119452380D01*
X222261904Y-119404761D01*
X222309523Y-119357142D01*
%TO.C,R26*%
X255902380Y-72857142D02*
X255426190Y-72523809D01*
X255902380Y-72285714D02*
X254902380Y-72285714D01*
X254902380Y-72666666D01*
X254950000Y-72761904D01*
X254997619Y-72809523D01*
X255092857Y-72857142D01*
X255235714Y-72857142D01*
X255330952Y-72809523D01*
X255378571Y-72761904D01*
X255426190Y-72666666D01*
X255426190Y-72285714D01*
X254997619Y-73238095D02*
X254950000Y-73285714D01*
X254902380Y-73380952D01*
X254902380Y-73619047D01*
X254950000Y-73714285D01*
X254997619Y-73761904D01*
X255092857Y-73809523D01*
X255188095Y-73809523D01*
X255330952Y-73761904D01*
X255902380Y-73190476D01*
X255902380Y-73809523D01*
X254902380Y-74666666D02*
X254902380Y-74476190D01*
X254950000Y-74380952D01*
X254997619Y-74333333D01*
X255140476Y-74238095D01*
X255330952Y-74190476D01*
X255711904Y-74190476D01*
X255807142Y-74238095D01*
X255854761Y-74285714D01*
X255902380Y-74380952D01*
X255902380Y-74571428D01*
X255854761Y-74666666D01*
X255807142Y-74714285D01*
X255711904Y-74761904D01*
X255473809Y-74761904D01*
X255378571Y-74714285D01*
X255330952Y-74666666D01*
X255283333Y-74571428D01*
X255283333Y-74380952D01*
X255330952Y-74285714D01*
X255378571Y-74238095D01*
X255473809Y-74190476D01*
%TO.C,R28*%
X260102380Y-72857142D02*
X259626190Y-72523809D01*
X260102380Y-72285714D02*
X259102380Y-72285714D01*
X259102380Y-72666666D01*
X259150000Y-72761904D01*
X259197619Y-72809523D01*
X259292857Y-72857142D01*
X259435714Y-72857142D01*
X259530952Y-72809523D01*
X259578571Y-72761904D01*
X259626190Y-72666666D01*
X259626190Y-72285714D01*
X259197619Y-73238095D02*
X259150000Y-73285714D01*
X259102380Y-73380952D01*
X259102380Y-73619047D01*
X259150000Y-73714285D01*
X259197619Y-73761904D01*
X259292857Y-73809523D01*
X259388095Y-73809523D01*
X259530952Y-73761904D01*
X260102380Y-73190476D01*
X260102380Y-73809523D01*
X259530952Y-74380952D02*
X259483333Y-74285714D01*
X259435714Y-74238095D01*
X259340476Y-74190476D01*
X259292857Y-74190476D01*
X259197619Y-74238095D01*
X259150000Y-74285714D01*
X259102380Y-74380952D01*
X259102380Y-74571428D01*
X259150000Y-74666666D01*
X259197619Y-74714285D01*
X259292857Y-74761904D01*
X259340476Y-74761904D01*
X259435714Y-74714285D01*
X259483333Y-74666666D01*
X259530952Y-74571428D01*
X259530952Y-74380952D01*
X259578571Y-74285714D01*
X259626190Y-74238095D01*
X259721428Y-74190476D01*
X259911904Y-74190476D01*
X260007142Y-74238095D01*
X260054761Y-74285714D01*
X260102380Y-74380952D01*
X260102380Y-74571428D01*
X260054761Y-74666666D01*
X260007142Y-74714285D01*
X259911904Y-74761904D01*
X259721428Y-74761904D01*
X259626190Y-74714285D01*
X259578571Y-74666666D01*
X259530952Y-74571428D01*
%TO.C,R40*%
X242083580Y-115282742D02*
X241607390Y-114949409D01*
X242083580Y-114711314D02*
X241083580Y-114711314D01*
X241083580Y-115092266D01*
X241131200Y-115187504D01*
X241178819Y-115235123D01*
X241274057Y-115282742D01*
X241416914Y-115282742D01*
X241512152Y-115235123D01*
X241559771Y-115187504D01*
X241607390Y-115092266D01*
X241607390Y-114711314D01*
X241416914Y-116139885D02*
X242083580Y-116139885D01*
X241035961Y-115901790D02*
X241750247Y-115663695D01*
X241750247Y-116282742D01*
X241083580Y-116854171D02*
X241083580Y-116949409D01*
X241131200Y-117044647D01*
X241178819Y-117092266D01*
X241274057Y-117139885D01*
X241464533Y-117187504D01*
X241702628Y-117187504D01*
X241893104Y-117139885D01*
X241988342Y-117092266D01*
X242035961Y-117044647D01*
X242083580Y-116949409D01*
X242083580Y-116854171D01*
X242035961Y-116758933D01*
X241988342Y-116711314D01*
X241893104Y-116663695D01*
X241702628Y-116616076D01*
X241464533Y-116616076D01*
X241274057Y-116663695D01*
X241178819Y-116711314D01*
X241131200Y-116758933D01*
X241083580Y-116854171D01*
%TO.C,C21*%
X276537142Y-80557142D02*
X276584761Y-80509523D01*
X276632380Y-80366666D01*
X276632380Y-80271428D01*
X276584761Y-80128571D01*
X276489523Y-80033333D01*
X276394285Y-79985714D01*
X276203809Y-79938095D01*
X276060952Y-79938095D01*
X275870476Y-79985714D01*
X275775238Y-80033333D01*
X275680000Y-80128571D01*
X275632380Y-80271428D01*
X275632380Y-80366666D01*
X275680000Y-80509523D01*
X275727619Y-80557142D01*
X275727619Y-80938095D02*
X275680000Y-80985714D01*
X275632380Y-81080952D01*
X275632380Y-81319047D01*
X275680000Y-81414285D01*
X275727619Y-81461904D01*
X275822857Y-81509523D01*
X275918095Y-81509523D01*
X276060952Y-81461904D01*
X276632380Y-80890476D01*
X276632380Y-81509523D01*
X276632380Y-82461904D02*
X276632380Y-81890476D01*
X276632380Y-82176190D02*
X275632380Y-82176190D01*
X275775238Y-82080952D01*
X275870476Y-81985714D01*
X275918095Y-81890476D01*
%TO.C,R27*%
X258002380Y-72857142D02*
X257526190Y-72523809D01*
X258002380Y-72285714D02*
X257002380Y-72285714D01*
X257002380Y-72666666D01*
X257050000Y-72761904D01*
X257097619Y-72809523D01*
X257192857Y-72857142D01*
X257335714Y-72857142D01*
X257430952Y-72809523D01*
X257478571Y-72761904D01*
X257526190Y-72666666D01*
X257526190Y-72285714D01*
X257097619Y-73238095D02*
X257050000Y-73285714D01*
X257002380Y-73380952D01*
X257002380Y-73619047D01*
X257050000Y-73714285D01*
X257097619Y-73761904D01*
X257192857Y-73809523D01*
X257288095Y-73809523D01*
X257430952Y-73761904D01*
X258002380Y-73190476D01*
X258002380Y-73809523D01*
X257002380Y-74142857D02*
X257002380Y-74809523D01*
X258002380Y-74380952D01*
%TO.C,D31*%
X148214285Y-113452380D02*
X148214285Y-112452380D01*
X147976190Y-112452380D01*
X147833333Y-112500000D01*
X147738095Y-112595238D01*
X147690476Y-112690476D01*
X147642857Y-112880952D01*
X147642857Y-113023809D01*
X147690476Y-113214285D01*
X147738095Y-113309523D01*
X147833333Y-113404761D01*
X147976190Y-113452380D01*
X148214285Y-113452380D01*
X147309523Y-112452380D02*
X146690476Y-112452380D01*
X147023809Y-112833333D01*
X146880952Y-112833333D01*
X146785714Y-112880952D01*
X146738095Y-112928571D01*
X146690476Y-113023809D01*
X146690476Y-113261904D01*
X146738095Y-113357142D01*
X146785714Y-113404761D01*
X146880952Y-113452380D01*
X147166666Y-113452380D01*
X147261904Y-113404761D01*
X147309523Y-113357142D01*
X145738095Y-113452380D02*
X146309523Y-113452380D01*
X146023809Y-113452380D02*
X146023809Y-112452380D01*
X146119047Y-112595238D01*
X146214285Y-112690476D01*
X146309523Y-112738095D01*
%TO.C,H2*%
X117261904Y-26952380D02*
X117261904Y-25952380D01*
X117261904Y-26428571D02*
X116690476Y-26428571D01*
X116690476Y-26952380D02*
X116690476Y-25952380D01*
X116261904Y-26047619D02*
X116214285Y-26000000D01*
X116119047Y-25952380D01*
X115880952Y-25952380D01*
X115785714Y-26000000D01*
X115738095Y-26047619D01*
X115690476Y-26142857D01*
X115690476Y-26238095D01*
X115738095Y-26380952D01*
X116309523Y-26952380D01*
X115690476Y-26952380D01*
%TO.C,D21*%
X224214285Y-81452380D02*
X224214285Y-80452380D01*
X223976190Y-80452380D01*
X223833333Y-80500000D01*
X223738095Y-80595238D01*
X223690476Y-80690476D01*
X223642857Y-80880952D01*
X223642857Y-81023809D01*
X223690476Y-81214285D01*
X223738095Y-81309523D01*
X223833333Y-81404761D01*
X223976190Y-81452380D01*
X224214285Y-81452380D01*
X223261904Y-80547619D02*
X223214285Y-80500000D01*
X223119047Y-80452380D01*
X222880952Y-80452380D01*
X222785714Y-80500000D01*
X222738095Y-80547619D01*
X222690476Y-80642857D01*
X222690476Y-80738095D01*
X222738095Y-80880952D01*
X223309523Y-81452380D01*
X222690476Y-81452380D01*
X221738095Y-81452380D02*
X222309523Y-81452380D01*
X222023809Y-81452380D02*
X222023809Y-80452380D01*
X222119047Y-80595238D01*
X222214285Y-80690476D01*
X222309523Y-80738095D01*
%TO.C,C18*%
X248642857Y-118757142D02*
X248690476Y-118804761D01*
X248833333Y-118852380D01*
X248928571Y-118852380D01*
X249071428Y-118804761D01*
X249166666Y-118709523D01*
X249214285Y-118614285D01*
X249261904Y-118423809D01*
X249261904Y-118280952D01*
X249214285Y-118090476D01*
X249166666Y-117995238D01*
X249071428Y-117900000D01*
X248928571Y-117852380D01*
X248833333Y-117852380D01*
X248690476Y-117900000D01*
X248642857Y-117947619D01*
X247690476Y-118852380D02*
X248261904Y-118852380D01*
X247976190Y-118852380D02*
X247976190Y-117852380D01*
X248071428Y-117995238D01*
X248166666Y-118090476D01*
X248261904Y-118138095D01*
X247119047Y-118280952D02*
X247214285Y-118233333D01*
X247261904Y-118185714D01*
X247309523Y-118090476D01*
X247309523Y-118042857D01*
X247261904Y-117947619D01*
X247214285Y-117900000D01*
X247119047Y-117852380D01*
X246928571Y-117852380D01*
X246833333Y-117900000D01*
X246785714Y-117947619D01*
X246738095Y-118042857D01*
X246738095Y-118090476D01*
X246785714Y-118185714D01*
X246833333Y-118233333D01*
X246928571Y-118280952D01*
X247119047Y-118280952D01*
X247214285Y-118328571D01*
X247261904Y-118376190D01*
X247309523Y-118471428D01*
X247309523Y-118661904D01*
X247261904Y-118757142D01*
X247214285Y-118804761D01*
X247119047Y-118852380D01*
X246928571Y-118852380D01*
X246833333Y-118804761D01*
X246785714Y-118757142D01*
X246738095Y-118661904D01*
X246738095Y-118471428D01*
X246785714Y-118376190D01*
X246833333Y-118328571D01*
X246928571Y-118280952D01*
%TO.C,R43*%
X249601980Y-116222542D02*
X249125790Y-115889209D01*
X249601980Y-115651114D02*
X248601980Y-115651114D01*
X248601980Y-116032066D01*
X248649600Y-116127304D01*
X248697219Y-116174923D01*
X248792457Y-116222542D01*
X248935314Y-116222542D01*
X249030552Y-116174923D01*
X249078171Y-116127304D01*
X249125790Y-116032066D01*
X249125790Y-115651114D01*
X248935314Y-117079685D02*
X249601980Y-117079685D01*
X248554361Y-116841590D02*
X249268647Y-116603495D01*
X249268647Y-117222542D01*
X248601980Y-117508257D02*
X248601980Y-118127304D01*
X248982933Y-117793971D01*
X248982933Y-117936828D01*
X249030552Y-118032066D01*
X249078171Y-118079685D01*
X249173409Y-118127304D01*
X249411504Y-118127304D01*
X249506742Y-118079685D01*
X249554361Y-118032066D01*
X249601980Y-117936828D01*
X249601980Y-117651114D01*
X249554361Y-117555876D01*
X249506742Y-117508257D01*
%TO.C,R32*%
X244330357Y-96232380D02*
X244663690Y-95756190D01*
X244901785Y-96232380D02*
X244901785Y-95232380D01*
X244520833Y-95232380D01*
X244425595Y-95280000D01*
X244377976Y-95327619D01*
X244330357Y-95422857D01*
X244330357Y-95565714D01*
X244377976Y-95660952D01*
X244425595Y-95708571D01*
X244520833Y-95756190D01*
X244901785Y-95756190D01*
X243997023Y-95232380D02*
X243377976Y-95232380D01*
X243711309Y-95613333D01*
X243568452Y-95613333D01*
X243473214Y-95660952D01*
X243425595Y-95708571D01*
X243377976Y-95803809D01*
X243377976Y-96041904D01*
X243425595Y-96137142D01*
X243473214Y-96184761D01*
X243568452Y-96232380D01*
X243854166Y-96232380D01*
X243949404Y-96184761D01*
X243997023Y-96137142D01*
X242997023Y-95327619D02*
X242949404Y-95280000D01*
X242854166Y-95232380D01*
X242616071Y-95232380D01*
X242520833Y-95280000D01*
X242473214Y-95327619D01*
X242425595Y-95422857D01*
X242425595Y-95518095D01*
X242473214Y-95660952D01*
X243044642Y-96232380D01*
X242425595Y-96232380D01*
%TO.C,U5*%
X234980979Y-48739880D02*
X234980979Y-49549404D01*
X234933360Y-49644642D01*
X234885741Y-49692261D01*
X234790503Y-49739880D01*
X234600027Y-49739880D01*
X234504789Y-49692261D01*
X234457170Y-49644642D01*
X234409551Y-49549404D01*
X234409551Y-48739880D01*
X233457170Y-48739880D02*
X233933360Y-48739880D01*
X233980979Y-49216071D01*
X233933360Y-49168452D01*
X233838122Y-49120833D01*
X233600027Y-49120833D01*
X233504789Y-49168452D01*
X233457170Y-49216071D01*
X233409551Y-49311309D01*
X233409551Y-49549404D01*
X233457170Y-49644642D01*
X233504789Y-49692261D01*
X233600027Y-49739880D01*
X233838122Y-49739880D01*
X233933360Y-49692261D01*
X233980979Y-49644642D01*
%TO.C,U3*%
X259761904Y-77032380D02*
X259761904Y-77841904D01*
X259714285Y-77937142D01*
X259666666Y-77984761D01*
X259571428Y-78032380D01*
X259380952Y-78032380D01*
X259285714Y-77984761D01*
X259238095Y-77937142D01*
X259190476Y-77841904D01*
X259190476Y-77032380D01*
X258809523Y-77032380D02*
X258190476Y-77032380D01*
X258523809Y-77413333D01*
X258380952Y-77413333D01*
X258285714Y-77460952D01*
X258238095Y-77508571D01*
X258190476Y-77603809D01*
X258190476Y-77841904D01*
X258238095Y-77937142D01*
X258285714Y-77984761D01*
X258380952Y-78032380D01*
X258666666Y-78032380D01*
X258761904Y-77984761D01*
X258809523Y-77937142D01*
%TO.C,D38*%
X236674480Y-171086166D02*
X235967374Y-171793273D01*
X236135732Y-171961632D01*
X236270419Y-172028975D01*
X236405106Y-172028975D01*
X236506122Y-171995303D01*
X236674480Y-171894288D01*
X236775496Y-171793273D01*
X236876511Y-171624914D01*
X236910183Y-171523899D01*
X236910183Y-171389212D01*
X236842839Y-171254525D01*
X236674480Y-171086166D01*
X236607137Y-172433036D02*
X237044870Y-172870769D01*
X237078541Y-172365693D01*
X237179557Y-172466708D01*
X237280572Y-172500380D01*
X237347916Y-172500380D01*
X237448931Y-172466708D01*
X237617290Y-172298349D01*
X237650961Y-172197334D01*
X237650961Y-172129990D01*
X237617290Y-172028975D01*
X237415259Y-171826945D01*
X237314244Y-171793273D01*
X237246900Y-171793273D01*
X237751977Y-172971784D02*
X237650961Y-172938113D01*
X237583618Y-172938113D01*
X237482603Y-172971784D01*
X237448931Y-173005456D01*
X237415259Y-173106471D01*
X237415259Y-173173815D01*
X237448931Y-173274830D01*
X237583618Y-173409517D01*
X237684633Y-173443189D01*
X237751977Y-173443189D01*
X237852992Y-173409517D01*
X237886664Y-173375845D01*
X237920335Y-173274830D01*
X237920335Y-173207487D01*
X237886664Y-173106471D01*
X237751977Y-172971784D01*
X237718305Y-172870769D01*
X237718305Y-172803426D01*
X237751977Y-172702410D01*
X237886664Y-172567723D01*
X237987679Y-172534052D01*
X238055022Y-172534052D01*
X238156038Y-172567723D01*
X238290725Y-172702410D01*
X238324396Y-172803426D01*
X238324396Y-172870769D01*
X238290725Y-172971784D01*
X238156038Y-173106471D01*
X238055022Y-173140143D01*
X237987679Y-173140143D01*
X237886664Y-173106471D01*
%TO.C,R1*%
X229066666Y-49252380D02*
X229400000Y-48776190D01*
X229638095Y-49252380D02*
X229638095Y-48252380D01*
X229257142Y-48252380D01*
X229161904Y-48300000D01*
X229114285Y-48347619D01*
X229066666Y-48442857D01*
X229066666Y-48585714D01*
X229114285Y-48680952D01*
X229161904Y-48728571D01*
X229257142Y-48776190D01*
X229638095Y-48776190D01*
X228114285Y-49252380D02*
X228685714Y-49252380D01*
X228400000Y-49252380D02*
X228400000Y-48252380D01*
X228495238Y-48395238D01*
X228590476Y-48490476D01*
X228685714Y-48538095D01*
%TO.C,R44*%
X253538980Y-117033442D02*
X253062790Y-116700109D01*
X253538980Y-116462014D02*
X252538980Y-116462014D01*
X252538980Y-116842966D01*
X252586600Y-116938204D01*
X252634219Y-116985823D01*
X252729457Y-117033442D01*
X252872314Y-117033442D01*
X252967552Y-116985823D01*
X253015171Y-116938204D01*
X253062790Y-116842966D01*
X253062790Y-116462014D01*
X252872314Y-117890585D02*
X253538980Y-117890585D01*
X252491361Y-117652490D02*
X253205647Y-117414395D01*
X253205647Y-118033442D01*
X252872314Y-118842966D02*
X253538980Y-118842966D01*
X252491361Y-118604871D02*
X253205647Y-118366776D01*
X253205647Y-118985823D01*
%TO.C,D5*%
X185738095Y-37452380D02*
X185738095Y-36452380D01*
X185500000Y-36452380D01*
X185357142Y-36500000D01*
X185261904Y-36595238D01*
X185214285Y-36690476D01*
X185166666Y-36880952D01*
X185166666Y-37023809D01*
X185214285Y-37214285D01*
X185261904Y-37309523D01*
X185357142Y-37404761D01*
X185500000Y-37452380D01*
X185738095Y-37452380D01*
X184261904Y-36452380D02*
X184738095Y-36452380D01*
X184785714Y-36928571D01*
X184738095Y-36880952D01*
X184642857Y-36833333D01*
X184404761Y-36833333D01*
X184309523Y-36880952D01*
X184261904Y-36928571D01*
X184214285Y-37023809D01*
X184214285Y-37261904D01*
X184261904Y-37357142D01*
X184309523Y-37404761D01*
X184404761Y-37452380D01*
X184642857Y-37452380D01*
X184738095Y-37404761D01*
X184785714Y-37357142D01*
%TO.C,R13*%
X238242857Y-142952380D02*
X238576190Y-142476190D01*
X238814285Y-142952380D02*
X238814285Y-141952380D01*
X238433333Y-141952380D01*
X238338095Y-142000000D01*
X238290476Y-142047619D01*
X238242857Y-142142857D01*
X238242857Y-142285714D01*
X238290476Y-142380952D01*
X238338095Y-142428571D01*
X238433333Y-142476190D01*
X238814285Y-142476190D01*
X237290476Y-142952380D02*
X237861904Y-142952380D01*
X237576190Y-142952380D02*
X237576190Y-141952380D01*
X237671428Y-142095238D01*
X237766666Y-142190476D01*
X237861904Y-142238095D01*
X236957142Y-141952380D02*
X236338095Y-141952380D01*
X236671428Y-142333333D01*
X236528571Y-142333333D01*
X236433333Y-142380952D01*
X236385714Y-142428571D01*
X236338095Y-142523809D01*
X236338095Y-142761904D01*
X236385714Y-142857142D01*
X236433333Y-142904761D01*
X236528571Y-142952380D01*
X236814285Y-142952380D01*
X236909523Y-142904761D01*
X236957142Y-142857142D01*
%TO.C,D18*%
X167214285Y-74452380D02*
X167214285Y-73452380D01*
X166976190Y-73452380D01*
X166833333Y-73500000D01*
X166738095Y-73595238D01*
X166690476Y-73690476D01*
X166642857Y-73880952D01*
X166642857Y-74023809D01*
X166690476Y-74214285D01*
X166738095Y-74309523D01*
X166833333Y-74404761D01*
X166976190Y-74452380D01*
X167214285Y-74452380D01*
X165690476Y-74452380D02*
X166261904Y-74452380D01*
X165976190Y-74452380D02*
X165976190Y-73452380D01*
X166071428Y-73595238D01*
X166166666Y-73690476D01*
X166261904Y-73738095D01*
X165119047Y-73880952D02*
X165214285Y-73833333D01*
X165261904Y-73785714D01*
X165309523Y-73690476D01*
X165309523Y-73642857D01*
X165261904Y-73547619D01*
X165214285Y-73500000D01*
X165119047Y-73452380D01*
X164928571Y-73452380D01*
X164833333Y-73500000D01*
X164785714Y-73547619D01*
X164738095Y-73642857D01*
X164738095Y-73690476D01*
X164785714Y-73785714D01*
X164833333Y-73833333D01*
X164928571Y-73880952D01*
X165119047Y-73880952D01*
X165214285Y-73928571D01*
X165261904Y-73976190D01*
X165309523Y-74071428D01*
X165309523Y-74261904D01*
X165261904Y-74357142D01*
X165214285Y-74404761D01*
X165119047Y-74452380D01*
X164928571Y-74452380D01*
X164833333Y-74404761D01*
X164785714Y-74357142D01*
X164738095Y-74261904D01*
X164738095Y-74071428D01*
X164785714Y-73976190D01*
X164833333Y-73928571D01*
X164928571Y-73880952D01*
%TO.C,R21*%
X252652380Y-66357142D02*
X252176190Y-66023809D01*
X252652380Y-65785714D02*
X251652380Y-65785714D01*
X251652380Y-66166666D01*
X251700000Y-66261904D01*
X251747619Y-66309523D01*
X251842857Y-66357142D01*
X251985714Y-66357142D01*
X252080952Y-66309523D01*
X252128571Y-66261904D01*
X252176190Y-66166666D01*
X252176190Y-65785714D01*
X251747619Y-66738095D02*
X251700000Y-66785714D01*
X251652380Y-66880952D01*
X251652380Y-67119047D01*
X251700000Y-67214285D01*
X251747619Y-67261904D01*
X251842857Y-67309523D01*
X251938095Y-67309523D01*
X252080952Y-67261904D01*
X252652380Y-66690476D01*
X252652380Y-67309523D01*
X252652380Y-68261904D02*
X252652380Y-67690476D01*
X252652380Y-67976190D02*
X251652380Y-67976190D01*
X251795238Y-67880952D01*
X251890476Y-67785714D01*
X251938095Y-67690476D01*
%TO.C,H3*%
X253761904Y-151752380D02*
X253761904Y-150752380D01*
X253761904Y-151228571D02*
X253190476Y-151228571D01*
X253190476Y-151752380D02*
X253190476Y-150752380D01*
X252809523Y-150752380D02*
X252190476Y-150752380D01*
X252523809Y-151133333D01*
X252380952Y-151133333D01*
X252285714Y-151180952D01*
X252238095Y-151228571D01*
X252190476Y-151323809D01*
X252190476Y-151561904D01*
X252238095Y-151657142D01*
X252285714Y-151704761D01*
X252380952Y-151752380D01*
X252666666Y-151752380D01*
X252761904Y-151704761D01*
X252809523Y-151657142D01*
%TO.C,R8*%
X234866666Y-79952380D02*
X235200000Y-79476190D01*
X235438095Y-79952380D02*
X235438095Y-78952380D01*
X235057142Y-78952380D01*
X234961904Y-79000000D01*
X234914285Y-79047619D01*
X234866666Y-79142857D01*
X234866666Y-79285714D01*
X234914285Y-79380952D01*
X234961904Y-79428571D01*
X235057142Y-79476190D01*
X235438095Y-79476190D01*
X234295238Y-79380952D02*
X234390476Y-79333333D01*
X234438095Y-79285714D01*
X234485714Y-79190476D01*
X234485714Y-79142857D01*
X234438095Y-79047619D01*
X234390476Y-79000000D01*
X234295238Y-78952380D01*
X234104761Y-78952380D01*
X234009523Y-79000000D01*
X233961904Y-79047619D01*
X233914285Y-79142857D01*
X233914285Y-79190476D01*
X233961904Y-79285714D01*
X234009523Y-79333333D01*
X234104761Y-79380952D01*
X234295238Y-79380952D01*
X234390476Y-79428571D01*
X234438095Y-79476190D01*
X234485714Y-79571428D01*
X234485714Y-79761904D01*
X234438095Y-79857142D01*
X234390476Y-79904761D01*
X234295238Y-79952380D01*
X234104761Y-79952380D01*
X234009523Y-79904761D01*
X233961904Y-79857142D01*
X233914285Y-79761904D01*
X233914285Y-79571428D01*
X233961904Y-79476190D01*
X234009523Y-79428571D01*
X234104761Y-79380952D01*
%TO.C,D28*%
X224214285Y-100452380D02*
X224214285Y-99452380D01*
X223976190Y-99452380D01*
X223833333Y-99500000D01*
X223738095Y-99595238D01*
X223690476Y-99690476D01*
X223642857Y-99880952D01*
X223642857Y-100023809D01*
X223690476Y-100214285D01*
X223738095Y-100309523D01*
X223833333Y-100404761D01*
X223976190Y-100452380D01*
X224214285Y-100452380D01*
X223261904Y-99547619D02*
X223214285Y-99500000D01*
X223119047Y-99452380D01*
X222880952Y-99452380D01*
X222785714Y-99500000D01*
X222738095Y-99547619D01*
X222690476Y-99642857D01*
X222690476Y-99738095D01*
X222738095Y-99880952D01*
X223309523Y-100452380D01*
X222690476Y-100452380D01*
X222119047Y-99880952D02*
X222214285Y-99833333D01*
X222261904Y-99785714D01*
X222309523Y-99690476D01*
X222309523Y-99642857D01*
X222261904Y-99547619D01*
X222214285Y-99500000D01*
X222119047Y-99452380D01*
X221928571Y-99452380D01*
X221833333Y-99500000D01*
X221785714Y-99547619D01*
X221738095Y-99642857D01*
X221738095Y-99690476D01*
X221785714Y-99785714D01*
X221833333Y-99833333D01*
X221928571Y-99880952D01*
X222119047Y-99880952D01*
X222214285Y-99928571D01*
X222261904Y-99976190D01*
X222309523Y-100071428D01*
X222309523Y-100261904D01*
X222261904Y-100357142D01*
X222214285Y-100404761D01*
X222119047Y-100452380D01*
X221928571Y-100452380D01*
X221833333Y-100404761D01*
X221785714Y-100357142D01*
X221738095Y-100261904D01*
X221738095Y-100071428D01*
X221785714Y-99976190D01*
X221833333Y-99928571D01*
X221928571Y-99880952D01*
%TO.C,D32*%
X167214285Y-112452380D02*
X167214285Y-111452380D01*
X166976190Y-111452380D01*
X166833333Y-111500000D01*
X166738095Y-111595238D01*
X166690476Y-111690476D01*
X166642857Y-111880952D01*
X166642857Y-112023809D01*
X166690476Y-112214285D01*
X166738095Y-112309523D01*
X166833333Y-112404761D01*
X166976190Y-112452380D01*
X167214285Y-112452380D01*
X166309523Y-111452380D02*
X165690476Y-111452380D01*
X166023809Y-111833333D01*
X165880952Y-111833333D01*
X165785714Y-111880952D01*
X165738095Y-111928571D01*
X165690476Y-112023809D01*
X165690476Y-112261904D01*
X165738095Y-112357142D01*
X165785714Y-112404761D01*
X165880952Y-112452380D01*
X166166666Y-112452380D01*
X166261904Y-112404761D01*
X166309523Y-112357142D01*
X165309523Y-111547619D02*
X165261904Y-111500000D01*
X165166666Y-111452380D01*
X164928571Y-111452380D01*
X164833333Y-111500000D01*
X164785714Y-111547619D01*
X164738095Y-111642857D01*
X164738095Y-111738095D01*
X164785714Y-111880952D01*
X165357142Y-112452380D01*
X164738095Y-112452380D01*
%TO.C,C11*%
X267357142Y-72357142D02*
X267404761Y-72309523D01*
X267452380Y-72166666D01*
X267452380Y-72071428D01*
X267404761Y-71928571D01*
X267309523Y-71833333D01*
X267214285Y-71785714D01*
X267023809Y-71738095D01*
X266880952Y-71738095D01*
X266690476Y-71785714D01*
X266595238Y-71833333D01*
X266500000Y-71928571D01*
X266452380Y-72071428D01*
X266452380Y-72166666D01*
X266500000Y-72309523D01*
X266547619Y-72357142D01*
X267452380Y-73309523D02*
X267452380Y-72738095D01*
X267452380Y-73023809D02*
X266452380Y-73023809D01*
X266595238Y-72928571D01*
X266690476Y-72833333D01*
X266738095Y-72738095D01*
X267452380Y-74261904D02*
X267452380Y-73690476D01*
X267452380Y-73976190D02*
X266452380Y-73976190D01*
X266595238Y-73880952D01*
X266690476Y-73785714D01*
X266738095Y-73690476D01*
%TO.C,D40*%
X228102380Y-51285714D02*
X227102380Y-51285714D01*
X227102380Y-51523809D01*
X227150000Y-51666666D01*
X227245238Y-51761904D01*
X227340476Y-51809523D01*
X227530952Y-51857142D01*
X227673809Y-51857142D01*
X227864285Y-51809523D01*
X227959523Y-51761904D01*
X228054761Y-51666666D01*
X228102380Y-51523809D01*
X228102380Y-51285714D01*
X227435714Y-52714285D02*
X228102380Y-52714285D01*
X227054761Y-52476190D02*
X227769047Y-52238095D01*
X227769047Y-52857142D01*
X227102380Y-53428571D02*
X227102380Y-53523809D01*
X227150000Y-53619047D01*
X227197619Y-53666666D01*
X227292857Y-53714285D01*
X227483333Y-53761904D01*
X227721428Y-53761904D01*
X227911904Y-53714285D01*
X228007142Y-53666666D01*
X228054761Y-53619047D01*
X228102380Y-53523809D01*
X228102380Y-53428571D01*
X228054761Y-53333333D01*
X228007142Y-53285714D01*
X227911904Y-53238095D01*
X227721428Y-53190476D01*
X227483333Y-53190476D01*
X227292857Y-53238095D01*
X227197619Y-53285714D01*
X227150000Y-53333333D01*
X227102380Y-53428571D01*
%TO.C,R10*%
X267342857Y-140452380D02*
X267676190Y-139976190D01*
X267914285Y-140452380D02*
X267914285Y-139452380D01*
X267533333Y-139452380D01*
X267438095Y-139500000D01*
X267390476Y-139547619D01*
X267342857Y-139642857D01*
X267342857Y-139785714D01*
X267390476Y-139880952D01*
X267438095Y-139928571D01*
X267533333Y-139976190D01*
X267914285Y-139976190D01*
X266390476Y-140452380D02*
X266961904Y-140452380D01*
X266676190Y-140452380D02*
X266676190Y-139452380D01*
X266771428Y-139595238D01*
X266866666Y-139690476D01*
X266961904Y-139738095D01*
X265771428Y-139452380D02*
X265676190Y-139452380D01*
X265580952Y-139500000D01*
X265533333Y-139547619D01*
X265485714Y-139642857D01*
X265438095Y-139833333D01*
X265438095Y-140071428D01*
X265485714Y-140261904D01*
X265533333Y-140357142D01*
X265580952Y-140404761D01*
X265676190Y-140452380D01*
X265771428Y-140452380D01*
X265866666Y-140404761D01*
X265914285Y-140357142D01*
X265961904Y-140261904D01*
X266009523Y-140071428D01*
X266009523Y-139833333D01*
X265961904Y-139642857D01*
X265914285Y-139547619D01*
X265866666Y-139500000D01*
X265771428Y-139452380D01*
%TO.C,H4*%
X122261904Y-123952380D02*
X122261904Y-122952380D01*
X122261904Y-123428571D02*
X121690476Y-123428571D01*
X121690476Y-123952380D02*
X121690476Y-122952380D01*
X120785714Y-123285714D02*
X120785714Y-123952380D01*
X121023809Y-122904761D02*
X121261904Y-123619047D01*
X120642857Y-123619047D01*
%TO.C,D27*%
X205214285Y-96452380D02*
X205214285Y-95452380D01*
X204976190Y-95452380D01*
X204833333Y-95500000D01*
X204738095Y-95595238D01*
X204690476Y-95690476D01*
X204642857Y-95880952D01*
X204642857Y-96023809D01*
X204690476Y-96214285D01*
X204738095Y-96309523D01*
X204833333Y-96404761D01*
X204976190Y-96452380D01*
X205214285Y-96452380D01*
X204261904Y-95547619D02*
X204214285Y-95500000D01*
X204119047Y-95452380D01*
X203880952Y-95452380D01*
X203785714Y-95500000D01*
X203738095Y-95547619D01*
X203690476Y-95642857D01*
X203690476Y-95738095D01*
X203738095Y-95880952D01*
X204309523Y-96452380D01*
X203690476Y-96452380D01*
X203357142Y-95452380D02*
X202690476Y-95452380D01*
X203119047Y-96452380D01*
%TO.C,R19*%
X261952380Y-66357142D02*
X261476190Y-66023809D01*
X261952380Y-65785714D02*
X260952380Y-65785714D01*
X260952380Y-66166666D01*
X261000000Y-66261904D01*
X261047619Y-66309523D01*
X261142857Y-66357142D01*
X261285714Y-66357142D01*
X261380952Y-66309523D01*
X261428571Y-66261904D01*
X261476190Y-66166666D01*
X261476190Y-65785714D01*
X261952380Y-67309523D02*
X261952380Y-66738095D01*
X261952380Y-67023809D02*
X260952380Y-67023809D01*
X261095238Y-66928571D01*
X261190476Y-66833333D01*
X261238095Y-66738095D01*
X261952380Y-67785714D02*
X261952380Y-67976190D01*
X261904761Y-68071428D01*
X261857142Y-68119047D01*
X261714285Y-68214285D01*
X261523809Y-68261904D01*
X261142857Y-68261904D01*
X261047619Y-68214285D01*
X261000000Y-68166666D01*
X260952380Y-68071428D01*
X260952380Y-67880952D01*
X261000000Y-67785714D01*
X261047619Y-67738095D01*
X261142857Y-67690476D01*
X261380952Y-67690476D01*
X261476190Y-67738095D01*
X261523809Y-67785714D01*
X261571428Y-67880952D01*
X261571428Y-68071428D01*
X261523809Y-68166666D01*
X261476190Y-68214285D01*
X261380952Y-68261904D01*
%TO.C,D29*%
X110214285Y-119452380D02*
X110214285Y-118452380D01*
X109976190Y-118452380D01*
X109833333Y-118500000D01*
X109738095Y-118595238D01*
X109690476Y-118690476D01*
X109642857Y-118880952D01*
X109642857Y-119023809D01*
X109690476Y-119214285D01*
X109738095Y-119309523D01*
X109833333Y-119404761D01*
X109976190Y-119452380D01*
X110214285Y-119452380D01*
X109261904Y-118547619D02*
X109214285Y-118500000D01*
X109119047Y-118452380D01*
X108880952Y-118452380D01*
X108785714Y-118500000D01*
X108738095Y-118547619D01*
X108690476Y-118642857D01*
X108690476Y-118738095D01*
X108738095Y-118880952D01*
X109309523Y-119452380D01*
X108690476Y-119452380D01*
X108214285Y-119452380D02*
X108023809Y-119452380D01*
X107928571Y-119404761D01*
X107880952Y-119357142D01*
X107785714Y-119214285D01*
X107738095Y-119023809D01*
X107738095Y-118642857D01*
X107785714Y-118547619D01*
X107833333Y-118500000D01*
X107928571Y-118452380D01*
X108119047Y-118452380D01*
X108214285Y-118500000D01*
X108261904Y-118547619D01*
X108309523Y-118642857D01*
X108309523Y-118880952D01*
X108261904Y-118976190D01*
X108214285Y-119023809D01*
X108119047Y-119071428D01*
X107928571Y-119071428D01*
X107833333Y-119023809D01*
X107785714Y-118976190D01*
X107738095Y-118880952D01*
%TO.C,R35*%
X244330357Y-89452380D02*
X244663690Y-88976190D01*
X244901785Y-89452380D02*
X244901785Y-88452380D01*
X244520833Y-88452380D01*
X244425595Y-88500000D01*
X244377976Y-88547619D01*
X244330357Y-88642857D01*
X244330357Y-88785714D01*
X244377976Y-88880952D01*
X244425595Y-88928571D01*
X244520833Y-88976190D01*
X244901785Y-88976190D01*
X243997023Y-88452380D02*
X243377976Y-88452380D01*
X243711309Y-88833333D01*
X243568452Y-88833333D01*
X243473214Y-88880952D01*
X243425595Y-88928571D01*
X243377976Y-89023809D01*
X243377976Y-89261904D01*
X243425595Y-89357142D01*
X243473214Y-89404761D01*
X243568452Y-89452380D01*
X243854166Y-89452380D01*
X243949404Y-89404761D01*
X243997023Y-89357142D01*
X242473214Y-88452380D02*
X242949404Y-88452380D01*
X242997023Y-88928571D01*
X242949404Y-88880952D01*
X242854166Y-88833333D01*
X242616071Y-88833333D01*
X242520833Y-88880952D01*
X242473214Y-88928571D01*
X242425595Y-89023809D01*
X242425595Y-89261904D01*
X242473214Y-89357142D01*
X242520833Y-89404761D01*
X242616071Y-89452380D01*
X242854166Y-89452380D01*
X242949404Y-89404761D01*
X242997023Y-89357142D01*
%TO.C,R34*%
X244342857Y-91632380D02*
X244676190Y-91156190D01*
X244914285Y-91632380D02*
X244914285Y-90632380D01*
X244533333Y-90632380D01*
X244438095Y-90680000D01*
X244390476Y-90727619D01*
X244342857Y-90822857D01*
X244342857Y-90965714D01*
X244390476Y-91060952D01*
X244438095Y-91108571D01*
X244533333Y-91156190D01*
X244914285Y-91156190D01*
X244009523Y-90632380D02*
X243390476Y-90632380D01*
X243723809Y-91013333D01*
X243580952Y-91013333D01*
X243485714Y-91060952D01*
X243438095Y-91108571D01*
X243390476Y-91203809D01*
X243390476Y-91441904D01*
X243438095Y-91537142D01*
X243485714Y-91584761D01*
X243580952Y-91632380D01*
X243866666Y-91632380D01*
X243961904Y-91584761D01*
X244009523Y-91537142D01*
X242533333Y-90965714D02*
X242533333Y-91632380D01*
X242771428Y-90584761D02*
X243009523Y-91299047D01*
X242390476Y-91299047D01*
%TO.C,D7*%
X223738095Y-43452380D02*
X223738095Y-42452380D01*
X223500000Y-42452380D01*
X223357142Y-42500000D01*
X223261904Y-42595238D01*
X223214285Y-42690476D01*
X223166666Y-42880952D01*
X223166666Y-43023809D01*
X223214285Y-43214285D01*
X223261904Y-43309523D01*
X223357142Y-43404761D01*
X223500000Y-43452380D01*
X223738095Y-43452380D01*
X222833333Y-42452380D02*
X222166666Y-42452380D01*
X222595238Y-43452380D01*
%TO.C,D6*%
X204738095Y-39452380D02*
X204738095Y-38452380D01*
X204500000Y-38452380D01*
X204357142Y-38500000D01*
X204261904Y-38595238D01*
X204214285Y-38690476D01*
X204166666Y-38880952D01*
X204166666Y-39023809D01*
X204214285Y-39214285D01*
X204261904Y-39309523D01*
X204357142Y-39404761D01*
X204500000Y-39452380D01*
X204738095Y-39452380D01*
X203309523Y-38452380D02*
X203500000Y-38452380D01*
X203595238Y-38500000D01*
X203642857Y-38547619D01*
X203738095Y-38690476D01*
X203785714Y-38880952D01*
X203785714Y-39261904D01*
X203738095Y-39357142D01*
X203690476Y-39404761D01*
X203595238Y-39452380D01*
X203404761Y-39452380D01*
X203309523Y-39404761D01*
X203261904Y-39357142D01*
X203214285Y-39261904D01*
X203214285Y-39023809D01*
X203261904Y-38928571D01*
X203309523Y-38880952D01*
X203404761Y-38833333D01*
X203595238Y-38833333D01*
X203690476Y-38880952D01*
X203738095Y-38928571D01*
X203785714Y-39023809D01*
%TO.C,R6*%
X234866666Y-84952380D02*
X235200000Y-84476190D01*
X235438095Y-84952380D02*
X235438095Y-83952380D01*
X235057142Y-83952380D01*
X234961904Y-84000000D01*
X234914285Y-84047619D01*
X234866666Y-84142857D01*
X234866666Y-84285714D01*
X234914285Y-84380952D01*
X234961904Y-84428571D01*
X235057142Y-84476190D01*
X235438095Y-84476190D01*
X234009523Y-83952380D02*
X234200000Y-83952380D01*
X234295238Y-84000000D01*
X234342857Y-84047619D01*
X234438095Y-84190476D01*
X234485714Y-84380952D01*
X234485714Y-84761904D01*
X234438095Y-84857142D01*
X234390476Y-84904761D01*
X234295238Y-84952380D01*
X234104761Y-84952380D01*
X234009523Y-84904761D01*
X233961904Y-84857142D01*
X233914285Y-84761904D01*
X233914285Y-84523809D01*
X233961904Y-84428571D01*
X234009523Y-84380952D01*
X234104761Y-84333333D01*
X234295238Y-84333333D01*
X234390476Y-84380952D01*
X234438095Y-84428571D01*
X234485714Y-84523809D01*
%TO.C,R12*%
X238242857Y-135352380D02*
X238576190Y-134876190D01*
X238814285Y-135352380D02*
X238814285Y-134352380D01*
X238433333Y-134352380D01*
X238338095Y-134400000D01*
X238290476Y-134447619D01*
X238242857Y-134542857D01*
X238242857Y-134685714D01*
X238290476Y-134780952D01*
X238338095Y-134828571D01*
X238433333Y-134876190D01*
X238814285Y-134876190D01*
X237290476Y-135352380D02*
X237861904Y-135352380D01*
X237576190Y-135352380D02*
X237576190Y-134352380D01*
X237671428Y-134495238D01*
X237766666Y-134590476D01*
X237861904Y-134638095D01*
X236909523Y-134447619D02*
X236861904Y-134400000D01*
X236766666Y-134352380D01*
X236528571Y-134352380D01*
X236433333Y-134400000D01*
X236385714Y-134447619D01*
X236338095Y-134542857D01*
X236338095Y-134638095D01*
X236385714Y-134780952D01*
X236957142Y-135352380D01*
X236338095Y-135352380D01*
%TO.C,R29*%
X262202380Y-72857142D02*
X261726190Y-72523809D01*
X262202380Y-72285714D02*
X261202380Y-72285714D01*
X261202380Y-72666666D01*
X261250000Y-72761904D01*
X261297619Y-72809523D01*
X261392857Y-72857142D01*
X261535714Y-72857142D01*
X261630952Y-72809523D01*
X261678571Y-72761904D01*
X261726190Y-72666666D01*
X261726190Y-72285714D01*
X261297619Y-73238095D02*
X261250000Y-73285714D01*
X261202380Y-73380952D01*
X261202380Y-73619047D01*
X261250000Y-73714285D01*
X261297619Y-73761904D01*
X261392857Y-73809523D01*
X261488095Y-73809523D01*
X261630952Y-73761904D01*
X262202380Y-73190476D01*
X262202380Y-73809523D01*
X262202380Y-74285714D02*
X262202380Y-74476190D01*
X262154761Y-74571428D01*
X262107142Y-74619047D01*
X261964285Y-74714285D01*
X261773809Y-74761904D01*
X261392857Y-74761904D01*
X261297619Y-74714285D01*
X261250000Y-74666666D01*
X261202380Y-74571428D01*
X261202380Y-74380952D01*
X261250000Y-74285714D01*
X261297619Y-74238095D01*
X261392857Y-74190476D01*
X261630952Y-74190476D01*
X261726190Y-74238095D01*
X261773809Y-74285714D01*
X261821428Y-74380952D01*
X261821428Y-74571428D01*
X261773809Y-74666666D01*
X261726190Y-74714285D01*
X261630952Y-74761904D01*
%TO.C,R23*%
X249602380Y-72857142D02*
X249126190Y-72523809D01*
X249602380Y-72285714D02*
X248602380Y-72285714D01*
X248602380Y-72666666D01*
X248650000Y-72761904D01*
X248697619Y-72809523D01*
X248792857Y-72857142D01*
X248935714Y-72857142D01*
X249030952Y-72809523D01*
X249078571Y-72761904D01*
X249126190Y-72666666D01*
X249126190Y-72285714D01*
X248697619Y-73238095D02*
X248650000Y-73285714D01*
X248602380Y-73380952D01*
X248602380Y-73619047D01*
X248650000Y-73714285D01*
X248697619Y-73761904D01*
X248792857Y-73809523D01*
X248888095Y-73809523D01*
X249030952Y-73761904D01*
X249602380Y-73190476D01*
X249602380Y-73809523D01*
X248602380Y-74142857D02*
X248602380Y-74761904D01*
X248983333Y-74428571D01*
X248983333Y-74571428D01*
X249030952Y-74666666D01*
X249078571Y-74714285D01*
X249173809Y-74761904D01*
X249411904Y-74761904D01*
X249507142Y-74714285D01*
X249554761Y-74666666D01*
X249602380Y-74571428D01*
X249602380Y-74285714D01*
X249554761Y-74190476D01*
X249507142Y-74142857D01*
%TO.C,D1*%
X109738095Y-43452380D02*
X109738095Y-42452380D01*
X109500000Y-42452380D01*
X109357142Y-42500000D01*
X109261904Y-42595238D01*
X109214285Y-42690476D01*
X109166666Y-42880952D01*
X109166666Y-43023809D01*
X109214285Y-43214285D01*
X109261904Y-43309523D01*
X109357142Y-43404761D01*
X109500000Y-43452380D01*
X109738095Y-43452380D01*
X108214285Y-43452380D02*
X108785714Y-43452380D01*
X108500000Y-43452380D02*
X108500000Y-42452380D01*
X108595238Y-42595238D01*
X108690476Y-42690476D01*
X108785714Y-42738095D01*
%TO.C,J2*%
X249524224Y-50577031D02*
X249768524Y-49905822D01*
X249772637Y-49755294D01*
X249715716Y-49633226D01*
X249597760Y-49539619D01*
X249508266Y-49507045D01*
X249959523Y-50634117D02*
X249987983Y-50695151D01*
X250061191Y-50772471D01*
X250284927Y-50853905D01*
X250390709Y-50841731D01*
X250451743Y-50813270D01*
X250529063Y-50740062D01*
X250561637Y-50650568D01*
X250565749Y-50500039D01*
X250224222Y-49767632D01*
X250805937Y-49979359D01*
%TO.C,R37*%
X267342857Y-142952380D02*
X267676190Y-142476190D01*
X267914285Y-142952380D02*
X267914285Y-141952380D01*
X267533333Y-141952380D01*
X267438095Y-142000000D01*
X267390476Y-142047619D01*
X267342857Y-142142857D01*
X267342857Y-142285714D01*
X267390476Y-142380952D01*
X267438095Y-142428571D01*
X267533333Y-142476190D01*
X267914285Y-142476190D01*
X267009523Y-141952380D02*
X266390476Y-141952380D01*
X266723809Y-142333333D01*
X266580952Y-142333333D01*
X266485714Y-142380952D01*
X266438095Y-142428571D01*
X266390476Y-142523809D01*
X266390476Y-142761904D01*
X266438095Y-142857142D01*
X266485714Y-142904761D01*
X266580952Y-142952380D01*
X266866666Y-142952380D01*
X266961904Y-142904761D01*
X267009523Y-142857142D01*
X266057142Y-141952380D02*
X265390476Y-141952380D01*
X265819047Y-142952380D01*
%TO.C,D8*%
X109738095Y-62452380D02*
X109738095Y-61452380D01*
X109500000Y-61452380D01*
X109357142Y-61500000D01*
X109261904Y-61595238D01*
X109214285Y-61690476D01*
X109166666Y-61880952D01*
X109166666Y-62023809D01*
X109214285Y-62214285D01*
X109261904Y-62309523D01*
X109357142Y-62404761D01*
X109500000Y-62452380D01*
X109738095Y-62452380D01*
X108595238Y-61880952D02*
X108690476Y-61833333D01*
X108738095Y-61785714D01*
X108785714Y-61690476D01*
X108785714Y-61642857D01*
X108738095Y-61547619D01*
X108690476Y-61500000D01*
X108595238Y-61452380D01*
X108404761Y-61452380D01*
X108309523Y-61500000D01*
X108261904Y-61547619D01*
X108214285Y-61642857D01*
X108214285Y-61690476D01*
X108261904Y-61785714D01*
X108309523Y-61833333D01*
X108404761Y-61880952D01*
X108595238Y-61880952D01*
X108690476Y-61928571D01*
X108738095Y-61976190D01*
X108785714Y-62071428D01*
X108785714Y-62261904D01*
X108738095Y-62357142D01*
X108690476Y-62404761D01*
X108595238Y-62452380D01*
X108404761Y-62452380D01*
X108309523Y-62404761D01*
X108261904Y-62357142D01*
X108214285Y-62261904D01*
X108214285Y-62071428D01*
X108261904Y-61976190D01*
X108309523Y-61928571D01*
X108404761Y-61880952D01*
%TO.C,D20*%
X205214285Y-77452380D02*
X205214285Y-76452380D01*
X204976190Y-76452380D01*
X204833333Y-76500000D01*
X204738095Y-76595238D01*
X204690476Y-76690476D01*
X204642857Y-76880952D01*
X204642857Y-77023809D01*
X204690476Y-77214285D01*
X204738095Y-77309523D01*
X204833333Y-77404761D01*
X204976190Y-77452380D01*
X205214285Y-77452380D01*
X204261904Y-76547619D02*
X204214285Y-76500000D01*
X204119047Y-76452380D01*
X203880952Y-76452380D01*
X203785714Y-76500000D01*
X203738095Y-76547619D01*
X203690476Y-76642857D01*
X203690476Y-76738095D01*
X203738095Y-76880952D01*
X204309523Y-77452380D01*
X203690476Y-77452380D01*
X203071428Y-76452380D02*
X202976190Y-76452380D01*
X202880952Y-76500000D01*
X202833333Y-76547619D01*
X202785714Y-76642857D01*
X202738095Y-76833333D01*
X202738095Y-77071428D01*
X202785714Y-77261904D01*
X202833333Y-77357142D01*
X202880952Y-77404761D01*
X202976190Y-77452380D01*
X203071428Y-77452380D01*
X203166666Y-77404761D01*
X203214285Y-77357142D01*
X203261904Y-77261904D01*
X203309523Y-77071428D01*
X203309523Y-76833333D01*
X203261904Y-76642857D01*
X203214285Y-76547619D01*
X203166666Y-76500000D01*
X203071428Y-76452380D01*
%TO.C,J1*%
X233524224Y-44877031D02*
X233768524Y-44205822D01*
X233772637Y-44055294D01*
X233715716Y-43933226D01*
X233597760Y-43839619D01*
X233508266Y-43807045D01*
X234805937Y-44279359D02*
X234268969Y-44083919D01*
X234537453Y-44181639D02*
X234195433Y-45121331D01*
X234154798Y-44954516D01*
X234097877Y-44832448D01*
X234024669Y-44755128D01*
%TO.C,D26*%
X186214285Y-94452380D02*
X186214285Y-93452380D01*
X185976190Y-93452380D01*
X185833333Y-93500000D01*
X185738095Y-93595238D01*
X185690476Y-93690476D01*
X185642857Y-93880952D01*
X185642857Y-94023809D01*
X185690476Y-94214285D01*
X185738095Y-94309523D01*
X185833333Y-94404761D01*
X185976190Y-94452380D01*
X186214285Y-94452380D01*
X185261904Y-93547619D02*
X185214285Y-93500000D01*
X185119047Y-93452380D01*
X184880952Y-93452380D01*
X184785714Y-93500000D01*
X184738095Y-93547619D01*
X184690476Y-93642857D01*
X184690476Y-93738095D01*
X184738095Y-93880952D01*
X185309523Y-94452380D01*
X184690476Y-94452380D01*
X183833333Y-93452380D02*
X184023809Y-93452380D01*
X184119047Y-93500000D01*
X184166666Y-93547619D01*
X184261904Y-93690476D01*
X184309523Y-93880952D01*
X184309523Y-94261904D01*
X184261904Y-94357142D01*
X184214285Y-94404761D01*
X184119047Y-94452380D01*
X183928571Y-94452380D01*
X183833333Y-94404761D01*
X183785714Y-94357142D01*
X183738095Y-94261904D01*
X183738095Y-94023809D01*
X183785714Y-93928571D01*
X183833333Y-93880952D01*
X183928571Y-93833333D01*
X184119047Y-93833333D01*
X184214285Y-93880952D01*
X184261904Y-93928571D01*
X184309523Y-94023809D01*
%TO.C,C2*%
X246666666Y-84057142D02*
X246714285Y-84104761D01*
X246857142Y-84152380D01*
X246952380Y-84152380D01*
X247095238Y-84104761D01*
X247190476Y-84009523D01*
X247238095Y-83914285D01*
X247285714Y-83723809D01*
X247285714Y-83580952D01*
X247238095Y-83390476D01*
X247190476Y-83295238D01*
X247095238Y-83200000D01*
X246952380Y-83152380D01*
X246857142Y-83152380D01*
X246714285Y-83200000D01*
X246666666Y-83247619D01*
X246285714Y-83247619D02*
X246238095Y-83200000D01*
X246142857Y-83152380D01*
X245904761Y-83152380D01*
X245809523Y-83200000D01*
X245761904Y-83247619D01*
X245714285Y-83342857D01*
X245714285Y-83438095D01*
X245761904Y-83580952D01*
X246333333Y-84152380D01*
X245714285Y-84152380D01*
%TO.C,R3*%
X254952380Y-66333333D02*
X254476190Y-66000000D01*
X254952380Y-65761904D02*
X253952380Y-65761904D01*
X253952380Y-66142857D01*
X254000000Y-66238095D01*
X254047619Y-66285714D01*
X254142857Y-66333333D01*
X254285714Y-66333333D01*
X254380952Y-66285714D01*
X254428571Y-66238095D01*
X254476190Y-66142857D01*
X254476190Y-65761904D01*
X253952380Y-66666666D02*
X253952380Y-67285714D01*
X254333333Y-66952380D01*
X254333333Y-67095238D01*
X254380952Y-67190476D01*
X254428571Y-67238095D01*
X254523809Y-67285714D01*
X254761904Y-67285714D01*
X254857142Y-67238095D01*
X254904761Y-67190476D01*
X254952380Y-67095238D01*
X254952380Y-66809523D01*
X254904761Y-66714285D01*
X254857142Y-66666666D01*
%TO.C,D4*%
X166738095Y-36452380D02*
X166738095Y-35452380D01*
X166500000Y-35452380D01*
X166357142Y-35500000D01*
X166261904Y-35595238D01*
X166214285Y-35690476D01*
X166166666Y-35880952D01*
X166166666Y-36023809D01*
X166214285Y-36214285D01*
X166261904Y-36309523D01*
X166357142Y-36404761D01*
X166500000Y-36452380D01*
X166738095Y-36452380D01*
X165309523Y-35785714D02*
X165309523Y-36452380D01*
X165547619Y-35404761D02*
X165785714Y-36119047D01*
X165166666Y-36119047D01*
%TO.C,C19*%
X263937142Y-46257142D02*
X263984761Y-46209523D01*
X264032380Y-46066666D01*
X264032380Y-45971428D01*
X263984761Y-45828571D01*
X263889523Y-45733333D01*
X263794285Y-45685714D01*
X263603809Y-45638095D01*
X263460952Y-45638095D01*
X263270476Y-45685714D01*
X263175238Y-45733333D01*
X263080000Y-45828571D01*
X263032380Y-45971428D01*
X263032380Y-46066666D01*
X263080000Y-46209523D01*
X263127619Y-46257142D01*
X264032380Y-47209523D02*
X264032380Y-46638095D01*
X264032380Y-46923809D02*
X263032380Y-46923809D01*
X263175238Y-46828571D01*
X263270476Y-46733333D01*
X263318095Y-46638095D01*
X264032380Y-47685714D02*
X264032380Y-47876190D01*
X263984761Y-47971428D01*
X263937142Y-48019047D01*
X263794285Y-48114285D01*
X263603809Y-48161904D01*
X263222857Y-48161904D01*
X263127619Y-48114285D01*
X263080000Y-48066666D01*
X263032380Y-47971428D01*
X263032380Y-47780952D01*
X263080000Y-47685714D01*
X263127619Y-47638095D01*
X263222857Y-47590476D01*
X263460952Y-47590476D01*
X263556190Y-47638095D01*
X263603809Y-47685714D01*
X263651428Y-47780952D01*
X263651428Y-47971428D01*
X263603809Y-48066666D01*
X263556190Y-48114285D01*
X263460952Y-48161904D01*
%TO.C,R24*%
X251702380Y-72857142D02*
X251226190Y-72523809D01*
X251702380Y-72285714D02*
X250702380Y-72285714D01*
X250702380Y-72666666D01*
X250750000Y-72761904D01*
X250797619Y-72809523D01*
X250892857Y-72857142D01*
X251035714Y-72857142D01*
X251130952Y-72809523D01*
X251178571Y-72761904D01*
X251226190Y-72666666D01*
X251226190Y-72285714D01*
X250797619Y-73238095D02*
X250750000Y-73285714D01*
X250702380Y-73380952D01*
X250702380Y-73619047D01*
X250750000Y-73714285D01*
X250797619Y-73761904D01*
X250892857Y-73809523D01*
X250988095Y-73809523D01*
X251130952Y-73761904D01*
X251702380Y-73190476D01*
X251702380Y-73809523D01*
X251035714Y-74666666D02*
X251702380Y-74666666D01*
X250654761Y-74428571D02*
X251369047Y-74190476D01*
X251369047Y-74809523D01*
%TO.C,R31*%
X244342857Y-98652380D02*
X244676190Y-98176190D01*
X244914285Y-98652380D02*
X244914285Y-97652380D01*
X244533333Y-97652380D01*
X244438095Y-97700000D01*
X244390476Y-97747619D01*
X244342857Y-97842857D01*
X244342857Y-97985714D01*
X244390476Y-98080952D01*
X244438095Y-98128571D01*
X244533333Y-98176190D01*
X244914285Y-98176190D01*
X244009523Y-97652380D02*
X243390476Y-97652380D01*
X243723809Y-98033333D01*
X243580952Y-98033333D01*
X243485714Y-98080952D01*
X243438095Y-98128571D01*
X243390476Y-98223809D01*
X243390476Y-98461904D01*
X243438095Y-98557142D01*
X243485714Y-98604761D01*
X243580952Y-98652380D01*
X243866666Y-98652380D01*
X243961904Y-98604761D01*
X244009523Y-98557142D01*
X242438095Y-98652380D02*
X243009523Y-98652380D01*
X242723809Y-98652380D02*
X242723809Y-97652380D01*
X242819047Y-97795238D01*
X242914285Y-97890476D01*
X243009523Y-97938095D01*
%TO.C,D24*%
X148214285Y-94452380D02*
X148214285Y-93452380D01*
X147976190Y-93452380D01*
X147833333Y-93500000D01*
X147738095Y-93595238D01*
X147690476Y-93690476D01*
X147642857Y-93880952D01*
X147642857Y-94023809D01*
X147690476Y-94214285D01*
X147738095Y-94309523D01*
X147833333Y-94404761D01*
X147976190Y-94452380D01*
X148214285Y-94452380D01*
X147261904Y-93547619D02*
X147214285Y-93500000D01*
X147119047Y-93452380D01*
X146880952Y-93452380D01*
X146785714Y-93500000D01*
X146738095Y-93547619D01*
X146690476Y-93642857D01*
X146690476Y-93738095D01*
X146738095Y-93880952D01*
X147309523Y-94452380D01*
X146690476Y-94452380D01*
X145833333Y-93785714D02*
X145833333Y-94452380D01*
X146071428Y-93404761D02*
X146309523Y-94119047D01*
X145690476Y-94119047D01*
%TO.C,D39*%
X246302380Y-49585714D02*
X245302380Y-49585714D01*
X245302380Y-49823809D01*
X245350000Y-49966666D01*
X245445238Y-50061904D01*
X245540476Y-50109523D01*
X245730952Y-50157142D01*
X245873809Y-50157142D01*
X246064285Y-50109523D01*
X246159523Y-50061904D01*
X246254761Y-49966666D01*
X246302380Y-49823809D01*
X246302380Y-49585714D01*
X245302380Y-50490476D02*
X245302380Y-51109523D01*
X245683333Y-50776190D01*
X245683333Y-50919047D01*
X245730952Y-51014285D01*
X245778571Y-51061904D01*
X245873809Y-51109523D01*
X246111904Y-51109523D01*
X246207142Y-51061904D01*
X246254761Y-51014285D01*
X246302380Y-50919047D01*
X246302380Y-50633333D01*
X246254761Y-50538095D01*
X246207142Y-50490476D01*
X246302380Y-51585714D02*
X246302380Y-51776190D01*
X246254761Y-51871428D01*
X246207142Y-51919047D01*
X246064285Y-52014285D01*
X245873809Y-52061904D01*
X245492857Y-52061904D01*
X245397619Y-52014285D01*
X245350000Y-51966666D01*
X245302380Y-51871428D01*
X245302380Y-51680952D01*
X245350000Y-51585714D01*
X245397619Y-51538095D01*
X245492857Y-51490476D01*
X245730952Y-51490476D01*
X245826190Y-51538095D01*
X245873809Y-51585714D01*
X245921428Y-51680952D01*
X245921428Y-51871428D01*
X245873809Y-51966666D01*
X245826190Y-52014285D01*
X245730952Y-52061904D01*
%TO.C,R5*%
X241066666Y-87852380D02*
X241400000Y-87376190D01*
X241638095Y-87852380D02*
X241638095Y-86852380D01*
X241257142Y-86852380D01*
X241161904Y-86900000D01*
X241114285Y-86947619D01*
X241066666Y-87042857D01*
X241066666Y-87185714D01*
X241114285Y-87280952D01*
X241161904Y-87328571D01*
X241257142Y-87376190D01*
X241638095Y-87376190D01*
X240161904Y-86852380D02*
X240638095Y-86852380D01*
X240685714Y-87328571D01*
X240638095Y-87280952D01*
X240542857Y-87233333D01*
X240304761Y-87233333D01*
X240209523Y-87280952D01*
X240161904Y-87328571D01*
X240114285Y-87423809D01*
X240114285Y-87661904D01*
X240161904Y-87757142D01*
X240209523Y-87804761D01*
X240304761Y-87852380D01*
X240542857Y-87852380D01*
X240638095Y-87804761D01*
X240685714Y-87757142D01*
%TO.C,D33*%
X186214285Y-113452380D02*
X186214285Y-112452380D01*
X185976190Y-112452380D01*
X185833333Y-112500000D01*
X185738095Y-112595238D01*
X185690476Y-112690476D01*
X185642857Y-112880952D01*
X185642857Y-113023809D01*
X185690476Y-113214285D01*
X185738095Y-113309523D01*
X185833333Y-113404761D01*
X185976190Y-113452380D01*
X186214285Y-113452380D01*
X185309523Y-112452380D02*
X184690476Y-112452380D01*
X185023809Y-112833333D01*
X184880952Y-112833333D01*
X184785714Y-112880952D01*
X184738095Y-112928571D01*
X184690476Y-113023809D01*
X184690476Y-113261904D01*
X184738095Y-113357142D01*
X184785714Y-113404761D01*
X184880952Y-113452380D01*
X185166666Y-113452380D01*
X185261904Y-113404761D01*
X185309523Y-113357142D01*
X184357142Y-112452380D02*
X183738095Y-112452380D01*
X184071428Y-112833333D01*
X183928571Y-112833333D01*
X183833333Y-112880952D01*
X183785714Y-112928571D01*
X183738095Y-113023809D01*
X183738095Y-113261904D01*
X183785714Y-113357142D01*
X183833333Y-113404761D01*
X183928571Y-113452380D01*
X184214285Y-113452380D01*
X184309523Y-113404761D01*
X184357142Y-113357142D01*
D12*
%TO.C,K28*%
X218800000Y-94300000D02*
X223900000Y-94300000D01*
X214900000Y-90100000D02*
X220000000Y-90100000D01*
X218800000Y-94300000D02*
G75*
G03*
X216800000Y-96300000I-1J-1999999D01*
G01*
X214900000Y-90100000D02*
G75*
G03*
X212900000Y-92100000I-1J-1999999D01*
G01*
%TO.C,K11*%
X161800000Y-49300000D02*
X166900000Y-49300000D01*
X157900000Y-45100000D02*
X163000000Y-45100000D01*
X161800000Y-49300000D02*
G75*
G03*
X159800000Y-51300000I-1J-1999999D01*
G01*
X157900000Y-45100000D02*
G75*
G03*
X155900000Y-47100000I-1J-1999999D01*
G01*
%TO.C,K33*%
X180800000Y-107300000D02*
X185900000Y-107300000D01*
X176900000Y-103100000D02*
X182000000Y-103100000D01*
X176900000Y-103100000D02*
G75*
G03*
X174900000Y-105100000I-1J-1999999D01*
G01*
X180800000Y-107300000D02*
G75*
G03*
X178800000Y-109300000I-1J-1999999D01*
G01*
%TO.C,K20*%
X199800000Y-71300000D02*
X204900000Y-71300000D01*
X195900000Y-67100000D02*
X201000000Y-67100000D01*
X199800000Y-71300000D02*
G75*
G03*
X197800000Y-73300000I-1J-1999999D01*
G01*
X195900000Y-67100000D02*
G75*
G03*
X193900000Y-69100000I-1J-1999999D01*
G01*
%TO.C,K13*%
X199800000Y-52300000D02*
X204900000Y-52300000D01*
X195900000Y-48100000D02*
X201000000Y-48100000D01*
X199800000Y-52300000D02*
G75*
G03*
X197800000Y-54300000I-1J-1999999D01*
G01*
X195900000Y-48100000D02*
G75*
G03*
X193900000Y-50100000I-1J-1999999D01*
G01*
%TO.C,K7*%
X214900000Y-33100000D02*
X220000000Y-33100000D01*
X218800000Y-37300000D02*
X223900000Y-37300000D01*
X218800000Y-37300000D02*
G75*
G03*
X216800000Y-39300000I-1J-1999999D01*
G01*
X214900000Y-33100000D02*
G75*
G03*
X212900000Y-35100000I-1J-1999999D01*
G01*
%TO.C,K17*%
X138900000Y-65100000D02*
X144000000Y-65100000D01*
X142800000Y-69300000D02*
X147900000Y-69300000D01*
X142800000Y-69300000D02*
G75*
G03*
X140800000Y-71300000I-1J-1999999D01*
G01*
X138900000Y-65100000D02*
G75*
G03*
X136900000Y-67100000I-1J-1999999D01*
G01*
%TO.C,K16*%
X119900000Y-67100000D02*
X125000000Y-67100000D01*
X123800000Y-71300000D02*
X128900000Y-71300000D01*
X123800000Y-71300000D02*
G75*
G03*
X121800000Y-73300000I-1J-1999999D01*
G01*
X119900000Y-67100000D02*
G75*
G03*
X117900000Y-69100000I-1J-1999999D01*
G01*
%TO.C,K37*%
X227979899Y-143617090D02*
X231586144Y-147223335D01*
X227767767Y-149344655D02*
X231374012Y-152950900D01*
X227767766Y-149344656D02*
G75*
G03*
X224939340Y-149344655I-1414213J-1414211D01*
G01*
X227979899Y-143617090D02*
G75*
G03*
X225151472Y-143617090I-1414214J-1414214D01*
G01*
%TO.C,K2*%
X123800000Y-33300000D02*
X128900000Y-33300000D01*
X119900000Y-29100000D02*
X125000000Y-29100000D01*
X119900000Y-29100000D02*
G75*
G03*
X117900000Y-31100000I-1J-1999999D01*
G01*
X123800000Y-33300000D02*
G75*
G03*
X121800000Y-35300000I-1J-1999999D01*
G01*
%TO.C,K38*%
X241202796Y-162779684D02*
X244809041Y-166385929D01*
X241414928Y-157052119D02*
X245021173Y-160658364D01*
X241414928Y-157052119D02*
G75*
G03*
X238586501Y-157052119I-1414214J-1414214D01*
G01*
X241202795Y-162779685D02*
G75*
G03*
X238374369Y-162779684I-1414213J-1414211D01*
G01*
%TO.C,K5*%
X180800000Y-31300000D02*
X185900000Y-31300000D01*
X176900000Y-27100000D02*
X182000000Y-27100000D01*
X180800000Y-31300000D02*
G75*
G03*
X178800000Y-33300000I-1J-1999999D01*
G01*
X176900000Y-27100000D02*
G75*
G03*
X174900000Y-29100000I-1J-1999999D01*
G01*
%TO.C,K9*%
X119900000Y-48100000D02*
X125000000Y-48100000D01*
X123800000Y-52300000D02*
X128900000Y-52300000D01*
X119900000Y-48100000D02*
G75*
G03*
X117900000Y-50100000I-1J-1999999D01*
G01*
X123800000Y-52300000D02*
G75*
G03*
X121800000Y-54300000I-1J-1999999D01*
G01*
%TO.C,K32*%
X161800000Y-106300000D02*
X166900000Y-106300000D01*
X157900000Y-102100000D02*
X163000000Y-102100000D01*
X161800000Y-106300000D02*
G75*
G03*
X159800000Y-108300000I-1J-1999999D01*
G01*
X157900000Y-102100000D02*
G75*
G03*
X155900000Y-104100000I-1J-1999999D01*
G01*
%TO.C,K1*%
X104800000Y-37300000D02*
X109900000Y-37300000D01*
X100900000Y-33100000D02*
X106000000Y-33100000D01*
X104800000Y-37300000D02*
G75*
G03*
X102800000Y-39300000I-1J-1999999D01*
G01*
X100900000Y-33100000D02*
G75*
G03*
X98900000Y-35100000I-1J-1999999D01*
G01*
%TO.C,K26*%
X176900000Y-84100000D02*
X182000000Y-84100000D01*
X180800000Y-88300000D02*
X185900000Y-88300000D01*
X176900000Y-84100000D02*
G75*
G03*
X174900000Y-86100000I-1J-1999999D01*
G01*
X180800000Y-88300000D02*
G75*
G03*
X178800000Y-90300000I-1J-1999999D01*
G01*
%TO.C,K4*%
X157900000Y-26100000D02*
X163000000Y-26100000D01*
X161800000Y-30300000D02*
X166900000Y-30300000D01*
X161800000Y-30300000D02*
G75*
G03*
X159800000Y-32300000I-1J-1999999D01*
G01*
X157900000Y-26100000D02*
G75*
G03*
X155900000Y-28100000I-1J-1999999D01*
G01*
%TO.C,K34*%
X195900000Y-105100000D02*
X201000000Y-105100000D01*
X199800000Y-109300000D02*
X204900000Y-109300000D01*
X195900000Y-105100000D02*
G75*
G03*
X193900000Y-107100000I-1J-1999999D01*
G01*
X199800000Y-109300000D02*
G75*
G03*
X197800000Y-111300000I-1J-1999999D01*
G01*
%TO.C,K30*%
X123800000Y-109300000D02*
X128900000Y-109300000D01*
X119900000Y-105100000D02*
X125000000Y-105100000D01*
X119900000Y-105100000D02*
G75*
G03*
X117900000Y-107100000I-1J-1999999D01*
G01*
X123800000Y-109300000D02*
G75*
G03*
X121800000Y-111300000I-1J-1999999D01*
G01*
%TO.C,K14*%
X218800000Y-56300000D02*
X223900000Y-56300000D01*
X214900000Y-52100000D02*
X220000000Y-52100000D01*
X218800000Y-56300000D02*
G75*
G03*
X216800000Y-58300000I-1J-1999999D01*
G01*
X214900000Y-52100000D02*
G75*
G03*
X212900000Y-54100000I-1J-1999999D01*
G01*
%TO.C,K12*%
X176900000Y-46100000D02*
X182000000Y-46100000D01*
X180800000Y-50300000D02*
X185900000Y-50300000D01*
X180800000Y-50300000D02*
G75*
G03*
X178800000Y-52300000I-1J-1999999D01*
G01*
X176900000Y-46100000D02*
G75*
G03*
X174900000Y-48100000I-1J-1999999D01*
G01*
%TO.C,K22*%
X104800000Y-94300000D02*
X109900000Y-94300000D01*
X100900000Y-90100000D02*
X106000000Y-90100000D01*
X104800000Y-94300000D02*
G75*
G03*
X102800000Y-96300000I-1J-1999999D01*
G01*
X100900000Y-90100000D02*
G75*
G03*
X98900000Y-92100000I-1J-1999999D01*
G01*
%TO.C,K6*%
X195900000Y-29100000D02*
X201000000Y-29100000D01*
X199800000Y-33300000D02*
X204900000Y-33300000D01*
X195900000Y-29100000D02*
G75*
G03*
X193900000Y-31100000I-1J-1999999D01*
G01*
X199800000Y-33300000D02*
G75*
G03*
X197800000Y-35300000I-1J-1999999D01*
G01*
%TO.C,K8*%
X100900000Y-52100000D02*
X106000000Y-52100000D01*
X104800000Y-56300000D02*
X109900000Y-56300000D01*
X104800000Y-56300000D02*
G75*
G03*
X102800000Y-58300000I-1J-1999999D01*
G01*
X100900000Y-52100000D02*
G75*
G03*
X98900000Y-54100000I-1J-1999999D01*
G01*
%TO.C,K18*%
X157900000Y-64100000D02*
X163000000Y-64100000D01*
X161800000Y-68300000D02*
X166900000Y-68300000D01*
X161800000Y-68300000D02*
G75*
G03*
X159800000Y-70300000I-1J-1999999D01*
G01*
X157900000Y-64100000D02*
G75*
G03*
X155900000Y-66100000I-1J-1999999D01*
G01*
%TO.C,K15*%
X100900000Y-71100000D02*
X106000000Y-71100000D01*
X104800000Y-75300000D02*
X109900000Y-75300000D01*
X100900000Y-71100000D02*
G75*
G03*
X98900000Y-73100000I-1J-1999999D01*
G01*
X104800000Y-75300000D02*
G75*
G03*
X102800000Y-77300000I-1J-1999999D01*
G01*
%TO.C,K21*%
X214900000Y-71100000D02*
X220000000Y-71100000D01*
X218800000Y-75300000D02*
X223900000Y-75300000D01*
X214900000Y-71100000D02*
G75*
G03*
X212900000Y-73100000I-1J-1999999D01*
G01*
X218800000Y-75300000D02*
G75*
G03*
X216800000Y-77300000I-1J-1999999D01*
G01*
%TO.C,K19*%
X180800000Y-69300000D02*
X185900000Y-69300000D01*
X176900000Y-65100000D02*
X182000000Y-65100000D01*
X176900000Y-65100000D02*
G75*
G03*
X174900000Y-67100000I-1J-1999999D01*
G01*
X180800000Y-69300000D02*
G75*
G03*
X178800000Y-71300000I-1J-1999999D01*
G01*
%TO.C,K25*%
X157900000Y-83100000D02*
X163000000Y-83100000D01*
X161800000Y-87300000D02*
X166900000Y-87300000D01*
X161800000Y-87300000D02*
G75*
G03*
X159800000Y-89300000I-1J-1999999D01*
G01*
X157900000Y-83100000D02*
G75*
G03*
X155900000Y-85100000I-1J-1999999D01*
G01*
%TO.C,K10*%
X142800000Y-50300000D02*
X147900000Y-50300000D01*
X138900000Y-46100000D02*
X144000000Y-46100000D01*
X142800000Y-50300000D02*
G75*
G03*
X140800000Y-52300000I-1J-1999999D01*
G01*
X138900000Y-46100000D02*
G75*
G03*
X136900000Y-48100000I-1J-1999999D01*
G01*
%TO.C,K31*%
X142800000Y-107300000D02*
X147900000Y-107300000D01*
X138900000Y-103100000D02*
X144000000Y-103100000D01*
X142800000Y-107300000D02*
G75*
G03*
X140800000Y-109300000I-1J-1999999D01*
G01*
X138900000Y-103100000D02*
G75*
G03*
X136900000Y-105100000I-1J-1999999D01*
G01*
%TO.C,K23*%
X119900000Y-86100000D02*
X125000000Y-86100000D01*
X123800000Y-90300000D02*
X128900000Y-90300000D01*
X119900000Y-86100000D02*
G75*
G03*
X117900000Y-88100000I-1J-1999999D01*
G01*
X123800000Y-90300000D02*
G75*
G03*
X121800000Y-92300000I-1J-1999999D01*
G01*
%TO.C,K29*%
X100900000Y-109100000D02*
X106000000Y-109100000D01*
X104800000Y-113300000D02*
X109900000Y-113300000D01*
X100900000Y-109100000D02*
G75*
G03*
X98900000Y-111100000I-1J-1999999D01*
G01*
X104800000Y-113300000D02*
G75*
G03*
X102800000Y-115300000I-1J-1999999D01*
G01*
%TO.C,K24*%
X138900000Y-84100000D02*
X144000000Y-84100000D01*
X142800000Y-88300000D02*
X147900000Y-88300000D01*
X138900000Y-84100000D02*
G75*
G03*
X136900000Y-86100000I-1J-1999999D01*
G01*
X142800000Y-88300000D02*
G75*
G03*
X140800000Y-90300000I-1J-1999999D01*
G01*
%TO.C,K36*%
X214332738Y-135909626D02*
X217938983Y-139515871D01*
X214544870Y-130182061D02*
X218151115Y-133788306D01*
X214544870Y-130182061D02*
G75*
G03*
X211716443Y-130182061I-1414214J-1414214D01*
G01*
X214332737Y-135909627D02*
G75*
G03*
X211504311Y-135909626I-1414213J-1414211D01*
G01*
%TO.C,K35*%
X214900000Y-109100000D02*
X220000000Y-109100000D01*
X218800000Y-113300000D02*
X223900000Y-113300000D01*
X214900000Y-109100000D02*
G75*
G03*
X212900000Y-111100000I-1J-1999999D01*
G01*
X218800000Y-113300000D02*
G75*
G03*
X216800000Y-115300000I-1J-1999999D01*
G01*
%TO.C,K27*%
X199800000Y-90300000D02*
X204900000Y-90300000D01*
X195900000Y-86100000D02*
X201000000Y-86100000D01*
X199800000Y-90300000D02*
G75*
G03*
X197800000Y-92300000I-1J-1999999D01*
G01*
X195900000Y-86100000D02*
G75*
G03*
X193900000Y-88100000I-1J-1999999D01*
G01*
%TO.C,K3*%
X138900000Y-27100000D02*
X144000000Y-27100000D01*
X142800000Y-31300000D02*
X147900000Y-31300000D01*
X138900000Y-27100000D02*
G75*
G03*
X136900000Y-29100000I-1J-1999999D01*
G01*
X142800000Y-31300000D02*
G75*
G03*
X140800000Y-33300000I-1J-1999999D01*
G01*
%TO.C,C5*%
X263138748Y-136765000D02*
X263661252Y-136765000D01*
X263138748Y-138235000D02*
X263661252Y-138235000D01*
%TO.C,C20*%
X266035000Y-47161252D02*
X266035000Y-46638748D01*
X264565000Y-47161252D02*
X264565000Y-46638748D01*
%TO.C,D41*%
X259500000Y-101350000D02*
X262050000Y-101350000D01*
X259500000Y-99650000D02*
X262050000Y-99650000D01*
X259500000Y-101350000D02*
X259500000Y-99650000D01*
%TO.C,R7*%
X237272936Y-81265000D02*
X237727064Y-81265000D01*
X237272936Y-82735000D02*
X237727064Y-82735000D01*
%TO.C,R14*%
X241327064Y-145835000D02*
X240872936Y-145835000D01*
X241327064Y-144365000D02*
X240872936Y-144365000D01*
%TO.C,C10*%
X249235000Y-80238748D02*
X249235000Y-80761252D01*
X247765000Y-80238748D02*
X247765000Y-80761252D01*
%TO.C,R16*%
X258365000Y-64027064D02*
X258365000Y-63572936D01*
X259835000Y-64027064D02*
X259835000Y-63572936D01*
%TO.C,C8*%
X263738748Y-97735000D02*
X264261252Y-97735000D01*
X263738748Y-96265000D02*
X264261252Y-96265000D01*
%TO.C,SW2*%
X239500000Y-114000000D02*
X235000000Y-114000000D01*
X235000000Y-107500000D02*
X239500000Y-107500000D01*
X240750000Y-110000000D02*
X240750000Y-111500000D01*
X233750000Y-111500000D02*
X233750000Y-110000000D01*
%TO.C,R25*%
X252435000Y-73727064D02*
X252435000Y-73272936D01*
X250965000Y-73727064D02*
X250965000Y-73272936D01*
%TO.C,C1*%
X254238748Y-96265000D02*
X254761252Y-96265000D01*
X254238748Y-97735000D02*
X254761252Y-97735000D01*
%TO.C,D22*%
X111250000Y-101000000D02*
X111250000Y-103000000D01*
X111250000Y-103000000D02*
X107350000Y-103000000D01*
X111250000Y-101000000D02*
X107350000Y-101000000D01*
%TO.C,R2*%
X230365000Y-46072936D02*
X230365000Y-46527064D01*
X231835000Y-46072936D02*
X231835000Y-46527064D01*
%TO.C,C9*%
X246735000Y-80238748D02*
X246735000Y-80761252D01*
X245265000Y-80238748D02*
X245265000Y-80761252D01*
%TO.C,D19*%
X187250000Y-76000000D02*
X187250000Y-78000000D01*
X187250000Y-78000000D02*
X183350000Y-78000000D01*
X187250000Y-76000000D02*
X183350000Y-76000000D01*
%TO.C,C12*%
X270235000Y-76761252D02*
X270235000Y-76238748D01*
X268765000Y-76761252D02*
X268765000Y-76238748D01*
%TO.C,C3*%
X243938748Y-57535000D02*
X244461252Y-57535000D01*
X243938748Y-56065000D02*
X244461252Y-56065000D01*
%TO.C,D9*%
X130250000Y-59000000D02*
X130250000Y-61000000D01*
X130250000Y-61000000D02*
X126350000Y-61000000D01*
X130250000Y-59000000D02*
X126350000Y-59000000D01*
%TO.C,R38*%
X271672936Y-69865000D02*
X272127064Y-69865000D01*
X271672936Y-71335000D02*
X272127064Y-71335000D01*
%TO.C,D13*%
X206250000Y-59000000D02*
X206250000Y-61000000D01*
X206250000Y-59000000D02*
X202350000Y-59000000D01*
X206250000Y-61000000D02*
X202350000Y-61000000D01*
%TO.C,R36*%
X241327064Y-130435000D02*
X240872936Y-130435000D01*
X241327064Y-128965000D02*
X240872936Y-128965000D01*
%TO.C,D10*%
X149250000Y-57000000D02*
X145350000Y-57000000D01*
X149250000Y-59000000D02*
X145350000Y-59000000D01*
X149250000Y-57000000D02*
X149250000Y-59000000D01*
%TO.C,R20*%
X266635000Y-64039564D02*
X266635000Y-63585436D01*
X265165000Y-64039564D02*
X265165000Y-63585436D01*
%TO.C,D12*%
X187250000Y-57000000D02*
X187250000Y-59000000D01*
X187250000Y-57000000D02*
X183350000Y-57000000D01*
X187250000Y-59000000D02*
X183350000Y-59000000D01*
%TO.C,J3*%
X263895000Y-102380000D02*
X262625000Y-102380000D01*
X258525000Y-115970000D02*
X252525000Y-115970000D01*
X261582071Y-116730000D02*
X261185000Y-116730000D01*
X258525000Y-103570000D02*
X252525000Y-103570000D01*
X252525000Y-106570000D02*
X258525000Y-106570000D01*
X261582071Y-105810000D02*
X261185000Y-105810000D01*
X261582071Y-109110000D02*
X261185000Y-109110000D01*
X258525000Y-110890000D02*
X252525000Y-110890000D01*
X252525000Y-105810000D02*
X252525000Y-106570000D01*
X258525000Y-103330000D02*
X252525000Y-103330000D01*
X252525000Y-110890000D02*
X252525000Y-111650000D01*
X261582071Y-111650000D02*
X261185000Y-111650000D01*
X252525000Y-108350000D02*
X252525000Y-109110000D01*
X252525000Y-103270000D02*
X252525000Y-104030000D01*
X252525000Y-116730000D02*
X258525000Y-116730000D01*
X261582071Y-113430000D02*
X261185000Y-113430000D01*
X258525000Y-103450000D02*
X252525000Y-103450000D01*
X258525000Y-113430000D02*
X252525000Y-113430000D01*
X261582071Y-110890000D02*
X261185000Y-110890000D01*
X252525000Y-113430000D02*
X252525000Y-114190000D01*
X258525000Y-103270000D02*
X252525000Y-103270000D01*
X261185000Y-117680000D02*
X258525000Y-117680000D01*
X252525000Y-115970000D02*
X252525000Y-116730000D01*
X252525000Y-111650000D02*
X258525000Y-111650000D01*
X261582071Y-115970000D02*
X261185000Y-115970000D01*
X258525000Y-103690000D02*
X252525000Y-103690000D01*
X252525000Y-109110000D02*
X258525000Y-109110000D01*
X261515000Y-104030000D02*
X261185000Y-104030000D01*
X261185000Y-104920000D02*
X258525000Y-104920000D01*
X258525000Y-103810000D02*
X252525000Y-103810000D01*
X261582071Y-108350000D02*
X261185000Y-108350000D01*
X261185000Y-115080000D02*
X258525000Y-115080000D01*
X261185000Y-107460000D02*
X258525000Y-107460000D01*
X261185000Y-112540000D02*
X258525000Y-112540000D01*
X258525000Y-103930000D02*
X252525000Y-103930000D01*
X261582071Y-114190000D02*
X261185000Y-114190000D01*
X261185000Y-110000000D02*
X258525000Y-110000000D01*
X258525000Y-108350000D02*
X252525000Y-108350000D01*
X258525000Y-105810000D02*
X252525000Y-105810000D01*
X263895000Y-103650000D02*
X263895000Y-102380000D01*
X252525000Y-114190000D02*
X258525000Y-114190000D01*
X258525000Y-117680000D02*
X258525000Y-102320000D01*
X252525000Y-104030000D02*
X258525000Y-104030000D01*
X258525000Y-102320000D02*
X261185000Y-102320000D01*
X261185000Y-102320000D02*
X261185000Y-117680000D01*
X261582071Y-106570000D02*
X261185000Y-106570000D01*
X261515000Y-103270000D02*
X261185000Y-103270000D01*
%TO.C,D16*%
X130250000Y-80000000D02*
X126350000Y-80000000D01*
X130250000Y-78000000D02*
X130250000Y-80000000D01*
X130250000Y-78000000D02*
X126350000Y-78000000D01*
%TO.C,R18*%
X264435000Y-64014564D02*
X264435000Y-63560436D01*
X262965000Y-64014564D02*
X262965000Y-63560436D01*
%TO.C,D15*%
X111250000Y-82000000D02*
X107350000Y-82000000D01*
X111250000Y-82000000D02*
X111250000Y-84000000D01*
X111250000Y-84000000D02*
X107350000Y-84000000D01*
%TO.C,R4*%
X242765000Y-85139564D02*
X242765000Y-84685436D01*
X244235000Y-85139564D02*
X244235000Y-84685436D01*
%TO.C,R30*%
X262935000Y-73727064D02*
X262935000Y-73272936D01*
X261465000Y-73727064D02*
X261465000Y-73272936D01*
%TO.C,R11*%
X240872936Y-136752500D02*
X241327064Y-136752500D01*
X240872936Y-138222500D02*
X241327064Y-138222500D01*
%TO.C,D37*%
X222894317Y-156531553D02*
X224308531Y-155117339D01*
X224308531Y-155117339D02*
X227066247Y-157875055D01*
X222894317Y-156531553D02*
X225652033Y-159289269D01*
%TO.C,R17*%
X256065000Y-64027064D02*
X256065000Y-63572936D01*
X257535000Y-64027064D02*
X257535000Y-63572936D01*
%TO.C,D11*%
X168250000Y-56000000D02*
X164350000Y-56000000D01*
X168250000Y-56000000D02*
X168250000Y-58000000D01*
X168250000Y-58000000D02*
X164350000Y-58000000D01*
%TO.C,R15*%
X270765000Y-87272936D02*
X270765000Y-87727064D01*
X272235000Y-87272936D02*
X272235000Y-87727064D01*
%TO.C,R22*%
X233565000Y-140872936D02*
X233565000Y-141327064D01*
X235035000Y-140872936D02*
X235035000Y-141327064D01*
%TO.C,D2*%
X130250000Y-40000000D02*
X130250000Y-42000000D01*
X130250000Y-42000000D02*
X126350000Y-42000000D01*
X130250000Y-40000000D02*
X126350000Y-40000000D01*
%TO.C,C13*%
X272735000Y-76761252D02*
X272735000Y-76238748D01*
X271265000Y-76761252D02*
X271265000Y-76238748D01*
%TO.C,C6*%
X263138748Y-135835000D02*
X263661252Y-135835000D01*
X263138748Y-134365000D02*
X263661252Y-134365000D01*
%TO.C,R9*%
X237272936Y-76265000D02*
X237727064Y-76265000D01*
X237272936Y-77735000D02*
X237727064Y-77735000D01*
%TO.C,D14*%
X225250000Y-63000000D02*
X221350000Y-63000000D01*
X225250000Y-63000000D02*
X225250000Y-65000000D01*
X225250000Y-65000000D02*
X221350000Y-65000000D01*
%TO.C,R39*%
X271672936Y-67565000D02*
X272127064Y-67565000D01*
X271672936Y-69035000D02*
X272127064Y-69035000D01*
%TO.C,C4*%
X228665000Y-56888748D02*
X228665000Y-57411252D01*
X230135000Y-56888748D02*
X230135000Y-57411252D01*
%TO.C,U4*%
X238550000Y-56910000D02*
X234790000Y-56910000D01*
X234790000Y-50090000D02*
X234790000Y-51350000D01*
X240800000Y-50090000D02*
X234790000Y-50090000D01*
X234790000Y-56910000D02*
X234790000Y-55650000D01*
%TO.C,D17*%
X149250000Y-78000000D02*
X145350000Y-78000000D01*
X149250000Y-76000000D02*
X149250000Y-78000000D01*
X149250000Y-76000000D02*
X145350000Y-76000000D01*
%TO.C,C16*%
X240838748Y-133035000D02*
X241361252Y-133035000D01*
X240838748Y-131565000D02*
X241361252Y-131565000D01*
%TO.C,D23*%
X130250000Y-97000000D02*
X126350000Y-97000000D01*
X130250000Y-99000000D02*
X126350000Y-99000000D01*
X130250000Y-97000000D02*
X130250000Y-99000000D01*
%TO.C,R33*%
X247127064Y-94215000D02*
X246672936Y-94215000D01*
X247127064Y-92745000D02*
X246672936Y-92745000D01*
%TO.C,D3*%
X149250000Y-38000000D02*
X149250000Y-40000000D01*
X149250000Y-38000000D02*
X145350000Y-38000000D01*
X149250000Y-40000000D02*
X145350000Y-40000000D01*
%TO.C,D34*%
X206250000Y-116000000D02*
X206250000Y-118000000D01*
X206250000Y-118000000D02*
X202350000Y-118000000D01*
X206250000Y-116000000D02*
X202350000Y-116000000D01*
%TO.C,C7*%
X251735000Y-96788748D02*
X251735000Y-97311252D01*
X250265000Y-96788748D02*
X250265000Y-97311252D01*
%TO.C,U1*%
X269946400Y-79611000D02*
X271800600Y-79611000D01*
X269946400Y-81540761D02*
X269946400Y-80856239D01*
X271800600Y-82786000D02*
X269946400Y-82786000D01*
X273578700Y-80248500D02*
G75*
G03*
X273578700Y-80248500I-76200J0D01*
G01*
%TO.C,R41*%
X260069000Y-116968536D02*
X260069000Y-117422664D01*
X258599000Y-116968536D02*
X258599000Y-117422664D01*
%TO.C,FB1*%
X244427064Y-53665000D02*
X243972936Y-53665000D01*
X244427064Y-55135000D02*
X243972936Y-55135000D01*
%TO.C,C14*%
X269735000Y-85761252D02*
X269735000Y-85238748D01*
X268265000Y-85761252D02*
X268265000Y-85238748D01*
%TO.C,C15*%
X269735000Y-90738748D02*
X269735000Y-91261252D01*
X268265000Y-90738748D02*
X268265000Y-91261252D01*
%TO.C,D30*%
X130250000Y-116000000D02*
X130250000Y-118000000D01*
X130250000Y-118000000D02*
X126350000Y-118000000D01*
X130250000Y-116000000D02*
X126350000Y-116000000D01*
%TO.C,D25*%
X168250000Y-96000000D02*
X164350000Y-96000000D01*
X168250000Y-94000000D02*
X164350000Y-94000000D01*
X168250000Y-94000000D02*
X168250000Y-96000000D01*
%TO.C,C17*%
X241361252Y-146965000D02*
X240838748Y-146965000D01*
X241361252Y-148435000D02*
X240838748Y-148435000D01*
%TO.C,D36*%
X209459283Y-143096527D02*
X210873497Y-141682313D01*
X210873497Y-141682313D02*
X213631213Y-144440029D01*
X209459283Y-143096527D02*
X212216999Y-145854243D01*
%TO.C,D35*%
X225250000Y-120000000D02*
X221350000Y-120000000D01*
X225250000Y-120000000D02*
X225250000Y-122000000D01*
X225250000Y-122000000D02*
X221350000Y-122000000D01*
%TO.C,R26*%
X254535000Y-73727064D02*
X254535000Y-73272936D01*
X253065000Y-73727064D02*
X253065000Y-73272936D01*
%TO.C,R28*%
X258735000Y-73727064D02*
X258735000Y-73272936D01*
X257265000Y-73727064D02*
X257265000Y-73272936D01*
%TO.C,R40*%
X244016200Y-115698536D02*
X244016200Y-116152664D01*
X242546200Y-115698536D02*
X242546200Y-116152664D01*
%TO.C,C21*%
X273765000Y-81461252D02*
X273765000Y-80938748D01*
X275235000Y-81461252D02*
X275235000Y-80938748D01*
%TO.C,R27*%
X256635000Y-73727064D02*
X256635000Y-73272936D01*
X255165000Y-73727064D02*
X255165000Y-73272936D01*
%TO.C,D31*%
X149250000Y-114000000D02*
X145350000Y-114000000D01*
X149250000Y-114000000D02*
X149250000Y-116000000D01*
X149250000Y-116000000D02*
X145350000Y-116000000D01*
%TO.C,D21*%
X225250000Y-82000000D02*
X225250000Y-84000000D01*
X225250000Y-84000000D02*
X221350000Y-84000000D01*
X225250000Y-82000000D02*
X221350000Y-82000000D01*
%TO.C,C18*%
X248211252Y-115765000D02*
X247688748Y-115765000D01*
X248211252Y-117235000D02*
X247688748Y-117235000D01*
%TO.C,R43*%
X250064600Y-116638336D02*
X250064600Y-117092464D01*
X251534600Y-116638336D02*
X251534600Y-117092464D01*
%TO.C,R32*%
X247127064Y-95045000D02*
X246672936Y-95045000D01*
X247127064Y-96515000D02*
X246672936Y-96515000D01*
%TO.C,U5*%
X235019175Y-47979400D02*
X233418975Y-47979400D01*
X233418975Y-45515600D02*
X235019175Y-45515600D01*
%TO.C,U3*%
X265410000Y-79890000D02*
X266110000Y-79890000D01*
X266110000Y-80590000D02*
X267475000Y-80590000D01*
X251890000Y-79890000D02*
X251890000Y-80590000D01*
X266110000Y-79890000D02*
X266110000Y-80590000D01*
X251890000Y-94110000D02*
X251890000Y-93410000D01*
X252590000Y-79890000D02*
X251890000Y-79890000D01*
X266110000Y-94110000D02*
X266110000Y-93410000D01*
X252590000Y-94110000D02*
X251890000Y-94110000D01*
X265410000Y-94110000D02*
X266110000Y-94110000D01*
%TO.C,D38*%
X237743560Y-168552367D02*
X240501276Y-171310083D01*
X236329346Y-169966581D02*
X237743560Y-168552367D01*
X236329346Y-169966581D02*
X239087062Y-172724297D01*
%TO.C,R1*%
X228165000Y-46072936D02*
X228165000Y-46527064D01*
X229635000Y-46072936D02*
X229635000Y-46527064D01*
%TO.C,R44*%
X254001600Y-117449236D02*
X254001600Y-117903364D01*
X255471600Y-117449236D02*
X255471600Y-117903364D01*
%TO.C,D5*%
X187250000Y-38000000D02*
X187250000Y-40000000D01*
X187250000Y-40000000D02*
X183350000Y-40000000D01*
X187250000Y-38000000D02*
X183350000Y-38000000D01*
%TO.C,R13*%
X240872936Y-143222500D02*
X241327064Y-143222500D01*
X240872936Y-141752500D02*
X241327064Y-141752500D01*
%TO.C,D18*%
X168250000Y-77000000D02*
X164350000Y-77000000D01*
X168250000Y-75000000D02*
X168250000Y-77000000D01*
X168250000Y-75000000D02*
X164350000Y-75000000D01*
%TO.C,R21*%
X251365000Y-64027064D02*
X251365000Y-63572936D01*
X252835000Y-64027064D02*
X252835000Y-63572936D01*
%TO.C,R8*%
X237272936Y-78765000D02*
X237727064Y-78765000D01*
X237272936Y-80235000D02*
X237727064Y-80235000D01*
%TO.C,D28*%
X225250000Y-101000000D02*
X221350000Y-101000000D01*
X225250000Y-101000000D02*
X225250000Y-103000000D01*
X225250000Y-103000000D02*
X221350000Y-103000000D01*
%TO.C,D32*%
X168250000Y-113000000D02*
X168250000Y-115000000D01*
X168250000Y-115000000D02*
X164350000Y-115000000D01*
X168250000Y-113000000D02*
X164350000Y-113000000D01*
%TO.C,C11*%
X267735000Y-76761252D02*
X267735000Y-76238748D01*
X266265000Y-76761252D02*
X266265000Y-76238748D01*
%TO.C,D40*%
X230350000Y-51000000D02*
X230350000Y-53550000D01*
X228650000Y-51000000D02*
X228650000Y-53550000D01*
X228650000Y-51000000D02*
X230350000Y-51000000D01*
%TO.C,R10*%
X263172936Y-140735000D02*
X263627064Y-140735000D01*
X263172936Y-139265000D02*
X263627064Y-139265000D01*
%TO.C,D27*%
X206250000Y-97000000D02*
X206250000Y-99000000D01*
X206250000Y-97000000D02*
X202350000Y-97000000D01*
X206250000Y-99000000D02*
X202350000Y-99000000D01*
%TO.C,R19*%
X260665000Y-64027064D02*
X260665000Y-63572936D01*
X262135000Y-64027064D02*
X262135000Y-63572936D01*
%TO.C,D29*%
X111250000Y-122000000D02*
X107350000Y-122000000D01*
X111250000Y-120000000D02*
X107350000Y-120000000D01*
X111250000Y-120000000D02*
X111250000Y-122000000D01*
%TO.C,R35*%
X247127064Y-89735000D02*
X246672936Y-89735000D01*
X247127064Y-88265000D02*
X246672936Y-88265000D01*
%TO.C,R34*%
X247139564Y-91915000D02*
X246685436Y-91915000D01*
X247139564Y-90445000D02*
X246685436Y-90445000D01*
%TO.C,D7*%
X225250000Y-44000000D02*
X225250000Y-46000000D01*
X225250000Y-46000000D02*
X221350000Y-46000000D01*
X225250000Y-44000000D02*
X221350000Y-44000000D01*
%TO.C,D6*%
X206250000Y-40000000D02*
X206250000Y-42000000D01*
X206250000Y-42000000D02*
X202350000Y-42000000D01*
X206250000Y-40000000D02*
X202350000Y-40000000D01*
%TO.C,R6*%
X237272936Y-85235000D02*
X237727064Y-85235000D01*
X237272936Y-83765000D02*
X237727064Y-83765000D01*
%TO.C,R12*%
X240872936Y-134165000D02*
X241327064Y-134165000D01*
X240872936Y-135635000D02*
X241327064Y-135635000D01*
%TO.C,R29*%
X260835000Y-73727064D02*
X260835000Y-73272936D01*
X259365000Y-73727064D02*
X259365000Y-73272936D01*
%TO.C,R23*%
X248235000Y-73727064D02*
X248235000Y-73272936D01*
X246765000Y-73727064D02*
X246765000Y-73272936D01*
%TO.C,D1*%
X111250000Y-44000000D02*
X107350000Y-44000000D01*
X111250000Y-46000000D02*
X107350000Y-46000000D01*
X111250000Y-44000000D02*
X111250000Y-46000000D01*
%TO.C,J2*%
X245899812Y-47621554D02*
X248382878Y-40799385D01*
X254826892Y-50870745D02*
X257309958Y-44048577D01*
X253417353Y-50357715D02*
X254826892Y-50870745D01*
X245899812Y-47621554D02*
X247309351Y-48134584D01*
%TO.C,R37*%
X263627064Y-141765000D02*
X263172936Y-141765000D01*
X263627064Y-143235000D02*
X263172936Y-143235000D01*
%TO.C,D8*%
X111250000Y-63000000D02*
X107350000Y-63000000D01*
X111250000Y-63000000D02*
X111250000Y-65000000D01*
X111250000Y-65000000D02*
X107350000Y-65000000D01*
%TO.C,D20*%
X206250000Y-78000000D02*
X202350000Y-78000000D01*
X206250000Y-80000000D02*
X202350000Y-80000000D01*
X206250000Y-78000000D02*
X206250000Y-80000000D01*
%TO.C,J1*%
X237417353Y-44657715D02*
X238826892Y-45170745D01*
X229899812Y-41921554D02*
X232382878Y-35099385D01*
X238826892Y-45170745D02*
X241309958Y-38348577D01*
X229899812Y-41921554D02*
X231309351Y-42434584D01*
%TO.C,D26*%
X187250000Y-95000000D02*
X183350000Y-95000000D01*
X187250000Y-97000000D02*
X183350000Y-97000000D01*
X187250000Y-95000000D02*
X187250000Y-97000000D01*
%TO.C,C2*%
X249235000Y-84311252D02*
X249235000Y-83788748D01*
X247765000Y-84311252D02*
X247765000Y-83788748D01*
%TO.C,R3*%
X255135000Y-64027064D02*
X255135000Y-63572936D01*
X253665000Y-64027064D02*
X253665000Y-63572936D01*
%TO.C,D4*%
X168250000Y-37000000D02*
X168250000Y-39000000D01*
X168250000Y-39000000D02*
X164350000Y-39000000D01*
X168250000Y-37000000D02*
X164350000Y-37000000D01*
%TO.C,C19*%
X261165000Y-47161252D02*
X261165000Y-46638748D01*
X262635000Y-47161252D02*
X262635000Y-46638748D01*
%TO.C,R24*%
X250335000Y-73727064D02*
X250335000Y-73272936D01*
X248865000Y-73727064D02*
X248865000Y-73272936D01*
%TO.C,R31*%
X247139564Y-98935000D02*
X246685436Y-98935000D01*
X247139564Y-97465000D02*
X246685436Y-97465000D01*
%TO.C,D24*%
X149250000Y-97000000D02*
X145350000Y-97000000D01*
X149250000Y-95000000D02*
X149250000Y-97000000D01*
X149250000Y-95000000D02*
X145350000Y-95000000D01*
%TO.C,D39*%
X244850000Y-52300000D02*
X243150000Y-52300000D01*
X243150000Y-52300000D02*
X243150000Y-49750000D01*
X244850000Y-52300000D02*
X244850000Y-49750000D01*
%TO.C,R5*%
X240265000Y-85227064D02*
X240265000Y-84772936D01*
X241735000Y-85227064D02*
X241735000Y-84772936D01*
%TO.C,D33*%
X187250000Y-114000000D02*
X187250000Y-116000000D01*
X187250000Y-114000000D02*
X183350000Y-114000000D01*
X187250000Y-116000000D02*
X183350000Y-116000000D01*
%TD*%
M02*
