%TF.GenerationSoftware,KiCad,Pcbnew,(6.0.7-1)-1*%
%TF.CreationDate,2022-10-21T17:23:08-04:00*%
%TF.ProjectId,Splitboard-A,53706c69-7462-46f6-9172-642d412e6b69,rev?*%
%TF.SameCoordinates,Original*%
%TF.FileFunction,Legend,Top*%
%TF.FilePolarity,Positive*%
%FSLAX46Y46*%
G04 Gerber Fmt 4.6, Leading zero omitted, Abs format (unit mm)*
G04 Created by KiCad (PCBNEW (6.0.7-1)-1) date 2022-10-21 17:23:08*
%MOMM*%
%LPD*%
G01*
G04 APERTURE LIST*
%ADD10C,0.300000*%
%ADD11C,0.150000*%
%ADD12C,0.120000*%
G04 APERTURE END LIST*
D10*
X231043927Y-43721200D02*
X231854371Y-44000258D01*
X230960797Y-45279007D02*
X231449149Y-43860729D01*
X232597279Y-44256062D02*
X232867427Y-44349081D01*
X232979246Y-44463128D01*
X233067810Y-44644712D01*
X233042328Y-44938115D01*
X232879544Y-45410874D01*
X232718987Y-45657767D01*
X232537403Y-45746332D01*
X232379074Y-45767359D01*
X232108926Y-45674339D01*
X231997107Y-45560293D01*
X231908543Y-45378709D01*
X231934025Y-45085306D01*
X232096809Y-44612547D01*
X232257366Y-44365653D01*
X232438950Y-44277089D01*
X232597279Y-44256062D01*
X234405186Y-46465005D02*
X234893538Y-45046727D01*
X235433834Y-45232766D01*
X235545653Y-45346813D01*
X235589936Y-45437605D01*
X235610963Y-45595934D01*
X235541198Y-45798545D01*
X235427152Y-45910364D01*
X235336360Y-45954646D01*
X235178031Y-45975673D01*
X234637734Y-45789635D01*
X236680418Y-47097342D02*
X236589626Y-47141624D01*
X236363760Y-47139396D01*
X236228686Y-47092886D01*
X236049330Y-46955585D01*
X235960765Y-46774001D01*
X235939738Y-46615672D01*
X235965220Y-46322269D01*
X236034985Y-46119658D01*
X236195541Y-45872765D01*
X236309588Y-45760945D01*
X236491172Y-45672381D01*
X236717038Y-45674609D01*
X236852112Y-45721118D01*
X237031468Y-45858420D01*
X237075751Y-45949212D01*
D11*
X154180952Y-117979761D02*
X154323809Y-118027380D01*
X154561904Y-118027380D01*
X154657142Y-117979761D01*
X154704761Y-117932142D01*
X154752380Y-117836904D01*
X154752380Y-117741666D01*
X154704761Y-117646428D01*
X154657142Y-117598809D01*
X154561904Y-117551190D01*
X154371428Y-117503571D01*
X154276190Y-117455952D01*
X154228571Y-117408333D01*
X154180952Y-117313095D01*
X154180952Y-117217857D01*
X154228571Y-117122619D01*
X154276190Y-117075000D01*
X154371428Y-117027380D01*
X154609523Y-117027380D01*
X154752380Y-117075000D01*
X155180952Y-117360714D02*
X155180952Y-118360714D01*
X155180952Y-117408333D02*
X155276190Y-117360714D01*
X155466666Y-117360714D01*
X155561904Y-117408333D01*
X155609523Y-117455952D01*
X155657142Y-117551190D01*
X155657142Y-117836904D01*
X155609523Y-117932142D01*
X155561904Y-117979761D01*
X155466666Y-118027380D01*
X155276190Y-118027380D01*
X155180952Y-117979761D01*
X156228571Y-118027380D02*
X156133333Y-117979761D01*
X156085714Y-117884523D01*
X156085714Y-117027380D01*
X156609523Y-118027380D02*
X156609523Y-117360714D01*
X156609523Y-117027380D02*
X156561904Y-117075000D01*
X156609523Y-117122619D01*
X156657142Y-117075000D01*
X156609523Y-117027380D01*
X156609523Y-117122619D01*
X156942857Y-117360714D02*
X157323809Y-117360714D01*
X157085714Y-117027380D02*
X157085714Y-117884523D01*
X157133333Y-117979761D01*
X157228571Y-118027380D01*
X157323809Y-118027380D01*
X158419047Y-118027380D02*
X158419047Y-117027380D01*
X158990476Y-118027380D02*
X158561904Y-117455952D01*
X158990476Y-117027380D02*
X158419047Y-117598809D01*
X159800000Y-117979761D02*
X159704761Y-118027380D01*
X159514285Y-118027380D01*
X159419047Y-117979761D01*
X159371428Y-117884523D01*
X159371428Y-117503571D01*
X159419047Y-117408333D01*
X159514285Y-117360714D01*
X159704761Y-117360714D01*
X159800000Y-117408333D01*
X159847619Y-117503571D01*
X159847619Y-117598809D01*
X159371428Y-117694047D01*
X160180952Y-117360714D02*
X160419047Y-118027380D01*
X160657142Y-117360714D02*
X160419047Y-118027380D01*
X160323809Y-118265476D01*
X160276190Y-118313095D01*
X160180952Y-118360714D01*
X161038095Y-118027380D02*
X161038095Y-117027380D01*
X161038095Y-117408333D02*
X161133333Y-117360714D01*
X161323809Y-117360714D01*
X161419047Y-117408333D01*
X161466666Y-117455952D01*
X161514285Y-117551190D01*
X161514285Y-117836904D01*
X161466666Y-117932142D01*
X161419047Y-117979761D01*
X161323809Y-118027380D01*
X161133333Y-118027380D01*
X161038095Y-117979761D01*
X162085714Y-118027380D02*
X161990476Y-117979761D01*
X161942857Y-117932142D01*
X161895238Y-117836904D01*
X161895238Y-117551190D01*
X161942857Y-117455952D01*
X161990476Y-117408333D01*
X162085714Y-117360714D01*
X162228571Y-117360714D01*
X162323809Y-117408333D01*
X162371428Y-117455952D01*
X162419047Y-117551190D01*
X162419047Y-117836904D01*
X162371428Y-117932142D01*
X162323809Y-117979761D01*
X162228571Y-118027380D01*
X162085714Y-118027380D01*
X163276190Y-118027380D02*
X163276190Y-117503571D01*
X163228571Y-117408333D01*
X163133333Y-117360714D01*
X162942857Y-117360714D01*
X162847619Y-117408333D01*
X163276190Y-117979761D02*
X163180952Y-118027380D01*
X162942857Y-118027380D01*
X162847619Y-117979761D01*
X162800000Y-117884523D01*
X162800000Y-117789285D01*
X162847619Y-117694047D01*
X162942857Y-117646428D01*
X163180952Y-117646428D01*
X163276190Y-117598809D01*
X163752380Y-118027380D02*
X163752380Y-117360714D01*
X163752380Y-117551190D02*
X163800000Y-117455952D01*
X163847619Y-117408333D01*
X163942857Y-117360714D01*
X164038095Y-117360714D01*
X164800000Y-118027380D02*
X164800000Y-117027380D01*
X164800000Y-117979761D02*
X164704761Y-118027380D01*
X164514285Y-118027380D01*
X164419047Y-117979761D01*
X164371428Y-117932142D01*
X164323809Y-117836904D01*
X164323809Y-117551190D01*
X164371428Y-117455952D01*
X164419047Y-117408333D01*
X164514285Y-117360714D01*
X164704761Y-117360714D01*
X164800000Y-117408333D01*
X165990476Y-117979761D02*
X166133333Y-118027380D01*
X166371428Y-118027380D01*
X166466666Y-117979761D01*
X166514285Y-117932142D01*
X166561904Y-117836904D01*
X166561904Y-117741666D01*
X166514285Y-117646428D01*
X166466666Y-117598809D01*
X166371428Y-117551190D01*
X166180952Y-117503571D01*
X166085714Y-117455952D01*
X166038095Y-117408333D01*
X165990476Y-117313095D01*
X165990476Y-117217857D01*
X166038095Y-117122619D01*
X166085714Y-117075000D01*
X166180952Y-117027380D01*
X166419047Y-117027380D01*
X166561904Y-117075000D01*
X166990476Y-118027380D02*
X166990476Y-117360714D01*
X166990476Y-117027380D02*
X166942857Y-117075000D01*
X166990476Y-117122619D01*
X167038095Y-117075000D01*
X166990476Y-117027380D01*
X166990476Y-117122619D01*
X167895238Y-118027380D02*
X167895238Y-117027380D01*
X167895238Y-117979761D02*
X167800000Y-118027380D01*
X167609523Y-118027380D01*
X167514285Y-117979761D01*
X167466666Y-117932142D01*
X167419047Y-117836904D01*
X167419047Y-117551190D01*
X167466666Y-117455952D01*
X167514285Y-117408333D01*
X167609523Y-117360714D01*
X167800000Y-117360714D01*
X167895238Y-117408333D01*
X168752380Y-117979761D02*
X168657142Y-118027380D01*
X168466666Y-118027380D01*
X168371428Y-117979761D01*
X168323809Y-117884523D01*
X168323809Y-117503571D01*
X168371428Y-117408333D01*
X168466666Y-117360714D01*
X168657142Y-117360714D01*
X168752380Y-117408333D01*
X168800000Y-117503571D01*
X168800000Y-117598809D01*
X168323809Y-117694047D01*
X169942857Y-117741666D02*
X170419047Y-117741666D01*
X169847619Y-118027380D02*
X170180952Y-117027380D01*
X170514285Y-118027380D01*
X146252380Y-119113571D02*
X146585714Y-119113571D01*
X146728571Y-119637380D02*
X146252380Y-119637380D01*
X146252380Y-118637380D01*
X146728571Y-118637380D01*
X147728571Y-119542142D02*
X147680952Y-119589761D01*
X147538095Y-119637380D01*
X147442857Y-119637380D01*
X147300000Y-119589761D01*
X147204761Y-119494523D01*
X147157142Y-119399285D01*
X147109523Y-119208809D01*
X147109523Y-119065952D01*
X147157142Y-118875476D01*
X147204761Y-118780238D01*
X147300000Y-118685000D01*
X147442857Y-118637380D01*
X147538095Y-118637380D01*
X147680952Y-118685000D01*
X147728571Y-118732619D01*
X148157142Y-119113571D02*
X148490476Y-119113571D01*
X148633333Y-119637380D02*
X148157142Y-119637380D01*
X148157142Y-118637380D01*
X148633333Y-118637380D01*
X150252380Y-118970714D02*
X150252380Y-119637380D01*
X150014285Y-118589761D02*
X149776190Y-119304047D01*
X150395238Y-119304047D01*
X150680952Y-118637380D02*
X151347619Y-118637380D01*
X150919047Y-119637380D01*
X151633333Y-118637380D02*
X152300000Y-118637380D01*
X151871428Y-119637380D01*
X153966666Y-118685000D02*
X153871428Y-118637380D01*
X153728571Y-118637380D01*
X153585714Y-118685000D01*
X153490476Y-118780238D01*
X153442857Y-118875476D01*
X153395238Y-119065952D01*
X153395238Y-119208809D01*
X153442857Y-119399285D01*
X153490476Y-119494523D01*
X153585714Y-119589761D01*
X153728571Y-119637380D01*
X153823809Y-119637380D01*
X153966666Y-119589761D01*
X154014285Y-119542142D01*
X154014285Y-119208809D01*
X153823809Y-119208809D01*
X154442857Y-119637380D02*
X154442857Y-118970714D01*
X154442857Y-119161190D02*
X154490476Y-119065952D01*
X154538095Y-119018333D01*
X154633333Y-118970714D01*
X154728571Y-118970714D01*
X155204761Y-119637380D02*
X155109523Y-119589761D01*
X155061904Y-119542142D01*
X155014285Y-119446904D01*
X155014285Y-119161190D01*
X155061904Y-119065952D01*
X155109523Y-119018333D01*
X155204761Y-118970714D01*
X155347619Y-118970714D01*
X155442857Y-119018333D01*
X155490476Y-119065952D01*
X155538095Y-119161190D01*
X155538095Y-119446904D01*
X155490476Y-119542142D01*
X155442857Y-119589761D01*
X155347619Y-119637380D01*
X155204761Y-119637380D01*
X156395238Y-118970714D02*
X156395238Y-119637380D01*
X155966666Y-118970714D02*
X155966666Y-119494523D01*
X156014285Y-119589761D01*
X156109523Y-119637380D01*
X156252380Y-119637380D01*
X156347619Y-119589761D01*
X156395238Y-119542142D01*
X156871428Y-118970714D02*
X156871428Y-119970714D01*
X156871428Y-119018333D02*
X156966666Y-118970714D01*
X157157142Y-118970714D01*
X157252380Y-119018333D01*
X157300000Y-119065952D01*
X157347619Y-119161190D01*
X157347619Y-119446904D01*
X157300000Y-119542142D01*
X157252380Y-119589761D01*
X157157142Y-119637380D01*
X156966666Y-119637380D01*
X156871428Y-119589761D01*
X158966666Y-118970714D02*
X158966666Y-119637380D01*
X158728571Y-118589761D02*
X158490476Y-119304047D01*
X159109523Y-119304047D01*
X160585714Y-119113571D02*
X160252380Y-119113571D01*
X160252380Y-119637380D02*
X160252380Y-118637380D01*
X160728571Y-118637380D01*
X161538095Y-119637380D02*
X161538095Y-119113571D01*
X161490476Y-119018333D01*
X161395238Y-118970714D01*
X161204761Y-118970714D01*
X161109523Y-119018333D01*
X161538095Y-119589761D02*
X161442857Y-119637380D01*
X161204761Y-119637380D01*
X161109523Y-119589761D01*
X161061904Y-119494523D01*
X161061904Y-119399285D01*
X161109523Y-119304047D01*
X161204761Y-119256428D01*
X161442857Y-119256428D01*
X161538095Y-119208809D01*
X162157142Y-119637380D02*
X162061904Y-119589761D01*
X162014285Y-119494523D01*
X162014285Y-118637380D01*
X162680952Y-119637380D02*
X162585714Y-119589761D01*
X162538095Y-119494523D01*
X162538095Y-118637380D01*
X163776190Y-118732619D02*
X163823809Y-118685000D01*
X163919047Y-118637380D01*
X164157142Y-118637380D01*
X164252380Y-118685000D01*
X164299999Y-118732619D01*
X164347619Y-118827857D01*
X164347619Y-118923095D01*
X164299999Y-119065952D01*
X163728571Y-119637380D01*
X164347619Y-119637380D01*
X164966666Y-118637380D02*
X165061904Y-118637380D01*
X165157142Y-118685000D01*
X165204761Y-118732619D01*
X165252380Y-118827857D01*
X165299999Y-119018333D01*
X165299999Y-119256428D01*
X165252380Y-119446904D01*
X165204761Y-119542142D01*
X165157142Y-119589761D01*
X165061904Y-119637380D01*
X164966666Y-119637380D01*
X164871428Y-119589761D01*
X164823809Y-119542142D01*
X164776190Y-119446904D01*
X164728571Y-119256428D01*
X164728571Y-119018333D01*
X164776190Y-118827857D01*
X164823809Y-118732619D01*
X164871428Y-118685000D01*
X164966666Y-118637380D01*
X165680952Y-118732619D02*
X165728571Y-118685000D01*
X165823809Y-118637380D01*
X166061904Y-118637380D01*
X166157142Y-118685000D01*
X166204761Y-118732619D01*
X166252380Y-118827857D01*
X166252380Y-118923095D01*
X166204761Y-119065952D01*
X165633333Y-119637380D01*
X166252380Y-119637380D01*
X166633333Y-118732619D02*
X166680952Y-118685000D01*
X166776190Y-118637380D01*
X167014285Y-118637380D01*
X167109523Y-118685000D01*
X167157142Y-118732619D01*
X167204761Y-118827857D01*
X167204761Y-118923095D01*
X167157142Y-119065952D01*
X166585714Y-119637380D01*
X167204761Y-119637380D01*
X168347619Y-119589761D02*
X168490476Y-119637380D01*
X168728571Y-119637380D01*
X168823809Y-119589761D01*
X168871428Y-119542142D01*
X168919047Y-119446904D01*
X168919047Y-119351666D01*
X168871428Y-119256428D01*
X168823809Y-119208809D01*
X168728571Y-119161190D01*
X168538095Y-119113571D01*
X168442857Y-119065952D01*
X168395238Y-119018333D01*
X168347619Y-118923095D01*
X168347619Y-118827857D01*
X168395238Y-118732619D01*
X168442857Y-118685000D01*
X168538095Y-118637380D01*
X168776190Y-118637380D01*
X168919047Y-118685000D01*
X169728571Y-119589761D02*
X169633333Y-119637380D01*
X169442857Y-119637380D01*
X169347619Y-119589761D01*
X169299999Y-119494523D01*
X169299999Y-119113571D01*
X169347619Y-119018333D01*
X169442857Y-118970714D01*
X169633333Y-118970714D01*
X169728571Y-119018333D01*
X169776190Y-119113571D01*
X169776190Y-119208809D01*
X169299999Y-119304047D01*
X170204761Y-118970714D02*
X170204761Y-119637380D01*
X170204761Y-119065952D02*
X170252380Y-119018333D01*
X170347619Y-118970714D01*
X170490476Y-118970714D01*
X170585714Y-119018333D01*
X170633333Y-119113571D01*
X170633333Y-119637380D01*
X171109523Y-119637380D02*
X171109523Y-118970714D01*
X171109523Y-118637380D02*
X171061904Y-118685000D01*
X171109523Y-118732619D01*
X171157142Y-118685000D01*
X171109523Y-118637380D01*
X171109523Y-118732619D01*
X171728571Y-119637380D02*
X171633333Y-119589761D01*
X171585714Y-119542142D01*
X171538095Y-119446904D01*
X171538095Y-119161190D01*
X171585714Y-119065952D01*
X171633333Y-119018333D01*
X171728571Y-118970714D01*
X171871428Y-118970714D01*
X171966666Y-119018333D01*
X172014285Y-119065952D01*
X172061904Y-119161190D01*
X172061904Y-119446904D01*
X172014285Y-119542142D01*
X171966666Y-119589761D01*
X171871428Y-119637380D01*
X171728571Y-119637380D01*
X172490476Y-119637380D02*
X172490476Y-118970714D01*
X172490476Y-119161190D02*
X172538095Y-119065952D01*
X172585714Y-119018333D01*
X172680952Y-118970714D01*
X172776190Y-118970714D01*
X173871428Y-119637380D02*
X173871428Y-118637380D01*
X174109523Y-118637380D01*
X174252380Y-118685000D01*
X174347619Y-118780238D01*
X174395238Y-118875476D01*
X174442857Y-119065952D01*
X174442857Y-119208809D01*
X174395238Y-119399285D01*
X174347619Y-119494523D01*
X174252380Y-119589761D01*
X174109523Y-119637380D01*
X173871428Y-119637380D01*
X175252380Y-119589761D02*
X175157142Y-119637380D01*
X174966666Y-119637380D01*
X174871428Y-119589761D01*
X174823809Y-119494523D01*
X174823809Y-119113571D01*
X174871428Y-119018333D01*
X174966666Y-118970714D01*
X175157142Y-118970714D01*
X175252380Y-119018333D01*
X175299999Y-119113571D01*
X175299999Y-119208809D01*
X174823809Y-119304047D01*
X175680952Y-119589761D02*
X175776190Y-119637380D01*
X175966666Y-119637380D01*
X176061904Y-119589761D01*
X176109523Y-119494523D01*
X176109523Y-119446904D01*
X176061904Y-119351666D01*
X175966666Y-119304047D01*
X175823809Y-119304047D01*
X175728571Y-119256428D01*
X175680952Y-119161190D01*
X175680952Y-119113571D01*
X175728571Y-119018333D01*
X175823809Y-118970714D01*
X175966666Y-118970714D01*
X176061904Y-119018333D01*
X176538095Y-119637380D02*
X176538095Y-118970714D01*
X176538095Y-118637380D02*
X176490476Y-118685000D01*
X176538095Y-118732619D01*
X176585714Y-118685000D01*
X176538095Y-118637380D01*
X176538095Y-118732619D01*
X177442857Y-118970714D02*
X177442857Y-119780238D01*
X177395238Y-119875476D01*
X177347619Y-119923095D01*
X177252380Y-119970714D01*
X177109523Y-119970714D01*
X177014285Y-119923095D01*
X177442857Y-119589761D02*
X177347619Y-119637380D01*
X177157142Y-119637380D01*
X177061904Y-119589761D01*
X177014285Y-119542142D01*
X176966666Y-119446904D01*
X176966666Y-119161190D01*
X177014285Y-119065952D01*
X177061904Y-119018333D01*
X177157142Y-118970714D01*
X177347619Y-118970714D01*
X177442857Y-119018333D01*
X177919047Y-118970714D02*
X177919047Y-119637380D01*
X177919047Y-119065952D02*
X177966666Y-119018333D01*
X178061904Y-118970714D01*
X178204761Y-118970714D01*
X178299999Y-119018333D01*
X178347619Y-119113571D01*
X178347619Y-119637380D01*
X155585714Y-120961666D02*
X156061904Y-120961666D01*
X155490476Y-121247380D02*
X155823809Y-120247380D01*
X156157142Y-121247380D01*
X156490476Y-120580714D02*
X156490476Y-121247380D01*
X156490476Y-120675952D02*
X156538095Y-120628333D01*
X156633333Y-120580714D01*
X156776190Y-120580714D01*
X156871428Y-120628333D01*
X156919047Y-120723571D01*
X156919047Y-121247380D01*
X157823809Y-121247380D02*
X157823809Y-120247380D01*
X157823809Y-121199761D02*
X157728571Y-121247380D01*
X157538095Y-121247380D01*
X157442857Y-121199761D01*
X157395238Y-121152142D01*
X157347619Y-121056904D01*
X157347619Y-120771190D01*
X157395238Y-120675952D01*
X157442857Y-120628333D01*
X157538095Y-120580714D01*
X157728571Y-120580714D01*
X157823809Y-120628333D01*
X158300000Y-121247380D02*
X158300000Y-120580714D01*
X158300000Y-120771190D02*
X158347619Y-120675952D01*
X158395238Y-120628333D01*
X158490476Y-120580714D01*
X158585714Y-120580714D01*
X159300000Y-121199761D02*
X159204761Y-121247380D01*
X159014285Y-121247380D01*
X158919047Y-121199761D01*
X158871428Y-121104523D01*
X158871428Y-120723571D01*
X158919047Y-120628333D01*
X159014285Y-120580714D01*
X159204761Y-120580714D01*
X159300000Y-120628333D01*
X159347619Y-120723571D01*
X159347619Y-120818809D01*
X158871428Y-120914047D01*
X159680952Y-120580714D02*
X159871428Y-121247380D01*
X160061904Y-120771190D01*
X160252380Y-121247380D01*
X160442857Y-120580714D01*
X161538095Y-121199761D02*
X161680952Y-121247380D01*
X161919047Y-121247380D01*
X162014285Y-121199761D01*
X162061904Y-121152142D01*
X162109523Y-121056904D01*
X162109523Y-120961666D01*
X162061904Y-120866428D01*
X162014285Y-120818809D01*
X161919047Y-120771190D01*
X161728571Y-120723571D01*
X161633333Y-120675952D01*
X161585714Y-120628333D01*
X161538095Y-120533095D01*
X161538095Y-120437857D01*
X161585714Y-120342619D01*
X161633333Y-120295000D01*
X161728571Y-120247380D01*
X161966666Y-120247380D01*
X162109523Y-120295000D01*
X162538095Y-121247380D02*
X162538095Y-120580714D01*
X162538095Y-120675952D02*
X162585714Y-120628333D01*
X162680952Y-120580714D01*
X162823809Y-120580714D01*
X162919047Y-120628333D01*
X162966666Y-120723571D01*
X162966666Y-121247380D01*
X162966666Y-120723571D02*
X163014285Y-120628333D01*
X163109523Y-120580714D01*
X163252380Y-120580714D01*
X163347619Y-120628333D01*
X163395238Y-120723571D01*
X163395238Y-121247380D01*
X164014285Y-121247380D02*
X163919047Y-121199761D01*
X163871428Y-121152142D01*
X163823809Y-121056904D01*
X163823809Y-120771190D01*
X163871428Y-120675952D01*
X163919047Y-120628333D01*
X164014285Y-120580714D01*
X164157142Y-120580714D01*
X164252380Y-120628333D01*
X164300000Y-120675952D01*
X164347619Y-120771190D01*
X164347619Y-121056904D01*
X164300000Y-121152142D01*
X164252380Y-121199761D01*
X164157142Y-121247380D01*
X164014285Y-121247380D01*
X164919047Y-121247380D02*
X164823809Y-121199761D01*
X164776190Y-121104523D01*
X164776190Y-120247380D01*
X165680952Y-121199761D02*
X165585714Y-121247380D01*
X165395238Y-121247380D01*
X165300000Y-121199761D01*
X165252380Y-121104523D01*
X165252380Y-120723571D01*
X165300000Y-120628333D01*
X165395238Y-120580714D01*
X165585714Y-120580714D01*
X165680952Y-120628333D01*
X165728571Y-120723571D01*
X165728571Y-120818809D01*
X165252380Y-120914047D01*
X166157142Y-120580714D02*
X166157142Y-121247380D01*
X166157142Y-120675952D02*
X166204761Y-120628333D01*
X166300000Y-120580714D01*
X166442857Y-120580714D01*
X166538095Y-120628333D01*
X166585714Y-120723571D01*
X166585714Y-121247380D01*
X167014285Y-121199761D02*
X167109523Y-121247380D01*
X167300000Y-121247380D01*
X167395238Y-121199761D01*
X167442857Y-121104523D01*
X167442857Y-121056904D01*
X167395238Y-120961666D01*
X167300000Y-120914047D01*
X167157142Y-120914047D01*
X167061904Y-120866428D01*
X167014285Y-120771190D01*
X167014285Y-120723571D01*
X167061904Y-120628333D01*
X167157142Y-120580714D01*
X167300000Y-120580714D01*
X167395238Y-120628333D01*
X167871428Y-121247380D02*
X167871428Y-120247380D01*
X167966666Y-120866428D02*
X168252380Y-121247380D01*
X168252380Y-120580714D02*
X167871428Y-120961666D01*
X168585714Y-120580714D02*
X168823809Y-121247380D01*
X169061904Y-120580714D02*
X168823809Y-121247380D01*
X168728571Y-121485476D01*
X168680952Y-121533095D01*
X168585714Y-121580714D01*
X156871428Y-122857380D02*
X156395238Y-122857380D01*
X156395238Y-121857380D01*
X157347619Y-122857380D02*
X157252380Y-122809761D01*
X157204761Y-122762142D01*
X157157142Y-122666904D01*
X157157142Y-122381190D01*
X157204761Y-122285952D01*
X157252380Y-122238333D01*
X157347619Y-122190714D01*
X157490476Y-122190714D01*
X157585714Y-122238333D01*
X157633333Y-122285952D01*
X157680952Y-122381190D01*
X157680952Y-122666904D01*
X157633333Y-122762142D01*
X157585714Y-122809761D01*
X157490476Y-122857380D01*
X157347619Y-122857380D01*
X158538095Y-122190714D02*
X158538095Y-123000238D01*
X158490476Y-123095476D01*
X158442857Y-123143095D01*
X158347619Y-123190714D01*
X158204761Y-123190714D01*
X158109523Y-123143095D01*
X158538095Y-122809761D02*
X158442857Y-122857380D01*
X158252380Y-122857380D01*
X158157142Y-122809761D01*
X158109523Y-122762142D01*
X158061904Y-122666904D01*
X158061904Y-122381190D01*
X158109523Y-122285952D01*
X158157142Y-122238333D01*
X158252380Y-122190714D01*
X158442857Y-122190714D01*
X158538095Y-122238333D01*
X159442857Y-122857380D02*
X159442857Y-122333571D01*
X159395238Y-122238333D01*
X159300000Y-122190714D01*
X159109523Y-122190714D01*
X159014285Y-122238333D01*
X159442857Y-122809761D02*
X159347619Y-122857380D01*
X159109523Y-122857380D01*
X159014285Y-122809761D01*
X158966666Y-122714523D01*
X158966666Y-122619285D01*
X159014285Y-122524047D01*
X159109523Y-122476428D01*
X159347619Y-122476428D01*
X159442857Y-122428809D01*
X159919047Y-122190714D02*
X159919047Y-122857380D01*
X159919047Y-122285952D02*
X159966666Y-122238333D01*
X160061904Y-122190714D01*
X160204761Y-122190714D01*
X160300000Y-122238333D01*
X160347619Y-122333571D01*
X160347619Y-122857380D01*
X161538095Y-122809761D02*
X161680952Y-122857380D01*
X161919047Y-122857380D01*
X162014285Y-122809761D01*
X162061904Y-122762142D01*
X162109523Y-122666904D01*
X162109523Y-122571666D01*
X162061904Y-122476428D01*
X162014285Y-122428809D01*
X161919047Y-122381190D01*
X161728571Y-122333571D01*
X161633333Y-122285952D01*
X161585714Y-122238333D01*
X161538095Y-122143095D01*
X161538095Y-122047857D01*
X161585714Y-121952619D01*
X161633333Y-121905000D01*
X161728571Y-121857380D01*
X161966666Y-121857380D01*
X162109523Y-121905000D01*
X162395238Y-122190714D02*
X162776190Y-122190714D01*
X162538095Y-121857380D02*
X162538095Y-122714523D01*
X162585714Y-122809761D01*
X162680952Y-122857380D01*
X162776190Y-122857380D01*
X163538095Y-122857380D02*
X163538095Y-122333571D01*
X163490476Y-122238333D01*
X163395238Y-122190714D01*
X163204761Y-122190714D01*
X163109523Y-122238333D01*
X163538095Y-122809761D02*
X163442857Y-122857380D01*
X163204761Y-122857380D01*
X163109523Y-122809761D01*
X163061904Y-122714523D01*
X163061904Y-122619285D01*
X163109523Y-122524047D01*
X163204761Y-122476428D01*
X163442857Y-122476428D01*
X163538095Y-122428809D01*
X164014285Y-122190714D02*
X164014285Y-123190714D01*
X164014285Y-122238333D02*
X164109523Y-122190714D01*
X164300000Y-122190714D01*
X164395238Y-122238333D01*
X164442857Y-122285952D01*
X164490476Y-122381190D01*
X164490476Y-122666904D01*
X164442857Y-122762142D01*
X164395238Y-122809761D01*
X164300000Y-122857380D01*
X164109523Y-122857380D01*
X164014285Y-122809761D01*
X165061904Y-122857380D02*
X164966666Y-122809761D01*
X164919047Y-122714523D01*
X164919047Y-121857380D01*
X165823809Y-122809761D02*
X165728571Y-122857380D01*
X165538095Y-122857380D01*
X165442857Y-122809761D01*
X165395238Y-122714523D01*
X165395238Y-122333571D01*
X165442857Y-122238333D01*
X165538095Y-122190714D01*
X165728571Y-122190714D01*
X165823809Y-122238333D01*
X165871428Y-122333571D01*
X165871428Y-122428809D01*
X165395238Y-122524047D01*
X166157142Y-122190714D02*
X166538095Y-122190714D01*
X166300000Y-121857380D02*
X166300000Y-122714523D01*
X166347619Y-122809761D01*
X166442857Y-122857380D01*
X166538095Y-122857380D01*
X167014285Y-122857380D02*
X166919047Y-122809761D01*
X166871428Y-122762142D01*
X166823809Y-122666904D01*
X166823809Y-122381190D01*
X166871428Y-122285952D01*
X166919047Y-122238333D01*
X167014285Y-122190714D01*
X167157142Y-122190714D01*
X167252380Y-122238333D01*
X167300000Y-122285952D01*
X167347619Y-122381190D01*
X167347619Y-122666904D01*
X167300000Y-122762142D01*
X167252380Y-122809761D01*
X167157142Y-122857380D01*
X167014285Y-122857380D01*
X167776190Y-122190714D02*
X167776190Y-122857380D01*
X167776190Y-122285952D02*
X167823809Y-122238333D01*
X167919047Y-122190714D01*
X168061904Y-122190714D01*
X168157142Y-122238333D01*
X168204761Y-122333571D01*
X168204761Y-122857380D01*
X159109523Y-123467380D02*
X159109523Y-124181666D01*
X159061904Y-124324523D01*
X158966666Y-124419761D01*
X158823809Y-124467380D01*
X158728571Y-124467380D01*
X159728571Y-124467380D02*
X159633333Y-124419761D01*
X159585714Y-124372142D01*
X159538095Y-124276904D01*
X159538095Y-123991190D01*
X159585714Y-123895952D01*
X159633333Y-123848333D01*
X159728571Y-123800714D01*
X159871428Y-123800714D01*
X159966666Y-123848333D01*
X160014285Y-123895952D01*
X160061904Y-123991190D01*
X160061904Y-124276904D01*
X160014285Y-124372142D01*
X159966666Y-124419761D01*
X159871428Y-124467380D01*
X159728571Y-124467380D01*
X160871428Y-124419761D02*
X160776190Y-124467380D01*
X160585714Y-124467380D01*
X160490476Y-124419761D01*
X160442857Y-124324523D01*
X160442857Y-123943571D01*
X160490476Y-123848333D01*
X160585714Y-123800714D01*
X160776190Y-123800714D01*
X160871428Y-123848333D01*
X160919047Y-123943571D01*
X160919047Y-124038809D01*
X160442857Y-124134047D01*
X162014285Y-123467380D02*
X162680952Y-123467380D01*
X162014285Y-124467380D01*
X162680952Y-124467380D01*
X163204761Y-124467380D02*
X163109523Y-124419761D01*
X163061904Y-124372142D01*
X163014285Y-124276904D01*
X163014285Y-123991190D01*
X163061904Y-123895952D01*
X163109523Y-123848333D01*
X163204761Y-123800714D01*
X163347619Y-123800714D01*
X163442857Y-123848333D01*
X163490476Y-123895952D01*
X163538095Y-123991190D01*
X163538095Y-124276904D01*
X163490476Y-124372142D01*
X163442857Y-124419761D01*
X163347619Y-124467380D01*
X163204761Y-124467380D01*
X163966666Y-124467380D02*
X163966666Y-123467380D01*
X163966666Y-123848333D02*
X164061904Y-123800714D01*
X164252380Y-123800714D01*
X164347619Y-123848333D01*
X164395238Y-123895952D01*
X164442857Y-123991190D01*
X164442857Y-124276904D01*
X164395238Y-124372142D01*
X164347619Y-124419761D01*
X164252380Y-124467380D01*
X164061904Y-124467380D01*
X163966666Y-124419761D01*
X165252380Y-124419761D02*
X165157142Y-124467380D01*
X164966666Y-124467380D01*
X164871428Y-124419761D01*
X164823809Y-124324523D01*
X164823809Y-123943571D01*
X164871428Y-123848333D01*
X164966666Y-123800714D01*
X165157142Y-123800714D01*
X165252380Y-123848333D01*
X165300000Y-123943571D01*
X165300000Y-124038809D01*
X164823809Y-124134047D01*
X165871428Y-124467380D02*
X165776190Y-124419761D01*
X165728571Y-124324523D01*
X165728571Y-123467380D01*
X158157142Y-125077380D02*
X158157142Y-125791666D01*
X158109523Y-125934523D01*
X158014285Y-126029761D01*
X157871428Y-126077380D01*
X157776190Y-126077380D01*
X159061904Y-125410714D02*
X159061904Y-126077380D01*
X158633333Y-125410714D02*
X158633333Y-125934523D01*
X158680952Y-126029761D01*
X158776190Y-126077380D01*
X158919047Y-126077380D01*
X159014285Y-126029761D01*
X159061904Y-125982142D01*
X159490476Y-126029761D02*
X159585714Y-126077380D01*
X159776190Y-126077380D01*
X159871428Y-126029761D01*
X159919047Y-125934523D01*
X159919047Y-125886904D01*
X159871428Y-125791666D01*
X159776190Y-125744047D01*
X159633333Y-125744047D01*
X159538095Y-125696428D01*
X159490476Y-125601190D01*
X159490476Y-125553571D01*
X159538095Y-125458333D01*
X159633333Y-125410714D01*
X159776190Y-125410714D01*
X159871428Y-125458333D01*
X160204761Y-125410714D02*
X160585714Y-125410714D01*
X160347619Y-125077380D02*
X160347619Y-125934523D01*
X160395238Y-126029761D01*
X160490476Y-126077380D01*
X160585714Y-126077380D01*
X160919047Y-126077380D02*
X160919047Y-125410714D01*
X160919047Y-125077380D02*
X160871428Y-125125000D01*
X160919047Y-125172619D01*
X160966666Y-125125000D01*
X160919047Y-125077380D01*
X160919047Y-125172619D01*
X161395238Y-125410714D02*
X161395238Y-126077380D01*
X161395238Y-125505952D02*
X161442857Y-125458333D01*
X161538095Y-125410714D01*
X161680952Y-125410714D01*
X161776190Y-125458333D01*
X161823809Y-125553571D01*
X161823809Y-126077380D01*
X163014285Y-126029761D02*
X163157142Y-126077380D01*
X163395238Y-126077380D01*
X163490476Y-126029761D01*
X163538095Y-125982142D01*
X163585714Y-125886904D01*
X163585714Y-125791666D01*
X163538095Y-125696428D01*
X163490476Y-125648809D01*
X163395238Y-125601190D01*
X163204761Y-125553571D01*
X163109523Y-125505952D01*
X163061904Y-125458333D01*
X163014285Y-125363095D01*
X163014285Y-125267857D01*
X163061904Y-125172619D01*
X163109523Y-125125000D01*
X163204761Y-125077380D01*
X163442857Y-125077380D01*
X163585714Y-125125000D01*
X164395238Y-126029761D02*
X164300000Y-126077380D01*
X164109523Y-126077380D01*
X164014285Y-126029761D01*
X163966666Y-125934523D01*
X163966666Y-125553571D01*
X164014285Y-125458333D01*
X164109523Y-125410714D01*
X164300000Y-125410714D01*
X164395238Y-125458333D01*
X164442857Y-125553571D01*
X164442857Y-125648809D01*
X163966666Y-125744047D01*
X165014285Y-126077380D02*
X164919047Y-126029761D01*
X164871428Y-125934523D01*
X164871428Y-125077380D01*
X165395238Y-126077380D02*
X165395238Y-125077380D01*
X165395238Y-125458333D02*
X165490476Y-125410714D01*
X165680952Y-125410714D01*
X165776190Y-125458333D01*
X165823809Y-125505952D01*
X165871428Y-125601190D01*
X165871428Y-125886904D01*
X165823809Y-125982142D01*
X165776190Y-126029761D01*
X165680952Y-126077380D01*
X165490476Y-126077380D01*
X165395238Y-126029761D01*
X166442857Y-126077380D02*
X166347619Y-126029761D01*
X166300000Y-125982142D01*
X166252380Y-125886904D01*
X166252380Y-125601190D01*
X166300000Y-125505952D01*
X166347619Y-125458333D01*
X166442857Y-125410714D01*
X166585714Y-125410714D01*
X166680952Y-125458333D01*
X166728571Y-125505952D01*
X166776190Y-125601190D01*
X166776190Y-125886904D01*
X166728571Y-125982142D01*
X166680952Y-126029761D01*
X166585714Y-126077380D01*
X166442857Y-126077380D01*
D10*
X244765773Y-48797816D02*
X245576217Y-49076875D01*
X244682643Y-50355623D02*
X245170995Y-48937346D01*
X246319125Y-49332678D02*
X246589273Y-49425698D01*
X246701092Y-49539745D01*
X246789656Y-49721328D01*
X246764174Y-50014731D01*
X246601390Y-50487491D01*
X246440833Y-50734384D01*
X246259250Y-50822948D01*
X246100921Y-50843976D01*
X245830772Y-50750956D01*
X245718953Y-50636909D01*
X245630389Y-50455326D01*
X245655871Y-50161923D01*
X245818655Y-49689163D01*
X245979212Y-49442270D01*
X246160796Y-49353706D01*
X246319125Y-49332678D01*
X248082750Y-51450830D02*
X248262106Y-51588131D01*
X248599791Y-51704406D01*
X248758120Y-51683378D01*
X248848912Y-51639096D01*
X248962959Y-51527277D01*
X249009469Y-51392203D01*
X248988441Y-51233874D01*
X248944159Y-51143082D01*
X248832340Y-51029035D01*
X248585447Y-50868479D01*
X248473627Y-50754432D01*
X248429345Y-50663640D01*
X248408318Y-50505311D01*
X248454828Y-50370237D01*
X248568874Y-50258418D01*
X248659666Y-50214136D01*
X248817995Y-50193108D01*
X249155680Y-50309383D01*
X249335037Y-50446684D01*
X249477773Y-52006719D02*
X249966125Y-50588441D01*
X250153143Y-52239268D02*
X250641495Y-50820990D01*
X250979181Y-50937264D01*
X251158537Y-51074566D01*
X251247101Y-51256150D01*
X251268128Y-51414479D01*
X251242646Y-51707882D01*
X251172881Y-51910493D01*
X251012325Y-52157386D01*
X250898278Y-52269205D01*
X250716694Y-52357770D01*
X250490828Y-52355542D01*
X250153143Y-52239268D01*
X251827225Y-51984713D02*
X252299984Y-52147497D01*
X252246791Y-52960169D02*
X251571421Y-52727620D01*
X252059773Y-51309342D01*
X252735144Y-51541891D01*
X254663780Y-52961417D02*
X254843136Y-53098719D01*
X254887419Y-53189511D01*
X254908446Y-53347840D01*
X254838681Y-53550451D01*
X254724635Y-53662270D01*
X254633843Y-53706552D01*
X254475514Y-53727579D01*
X253935217Y-53541540D01*
X254423570Y-52123263D01*
X254896329Y-52286047D01*
X255008148Y-52400093D01*
X255052430Y-52490885D01*
X255073458Y-52649214D01*
X255026948Y-52784288D01*
X254912901Y-52896108D01*
X254822109Y-52940390D01*
X254663780Y-52961417D01*
X254191021Y-52798633D01*
D11*
%TO.C,K28*%
X217785714Y-89452380D02*
X217785714Y-88452380D01*
X218357142Y-89452380D02*
X217928571Y-88880952D01*
X218357142Y-88452380D02*
X217785714Y-89023809D01*
X218738095Y-88547619D02*
X218785714Y-88500000D01*
X218880952Y-88452380D01*
X219119047Y-88452380D01*
X219214285Y-88500000D01*
X219261904Y-88547619D01*
X219309523Y-88642857D01*
X219309523Y-88738095D01*
X219261904Y-88880952D01*
X218690476Y-89452380D01*
X219309523Y-89452380D01*
X219880952Y-88880952D02*
X219785714Y-88833333D01*
X219738095Y-88785714D01*
X219690476Y-88690476D01*
X219690476Y-88642857D01*
X219738095Y-88547619D01*
X219785714Y-88500000D01*
X219880952Y-88452380D01*
X220071428Y-88452380D01*
X220166666Y-88500000D01*
X220214285Y-88547619D01*
X220261904Y-88642857D01*
X220261904Y-88690476D01*
X220214285Y-88785714D01*
X220166666Y-88833333D01*
X220071428Y-88880952D01*
X219880952Y-88880952D01*
X219785714Y-88928571D01*
X219738095Y-88976190D01*
X219690476Y-89071428D01*
X219690476Y-89261904D01*
X219738095Y-89357142D01*
X219785714Y-89404761D01*
X219880952Y-89452380D01*
X220071428Y-89452380D01*
X220166666Y-89404761D01*
X220214285Y-89357142D01*
X220261904Y-89261904D01*
X220261904Y-89071428D01*
X220214285Y-88976190D01*
X220166666Y-88928571D01*
X220071428Y-88880952D01*
%TO.C,K11*%
X160785714Y-44452380D02*
X160785714Y-43452380D01*
X161357142Y-44452380D02*
X160928571Y-43880952D01*
X161357142Y-43452380D02*
X160785714Y-44023809D01*
X162309523Y-44452380D02*
X161738095Y-44452380D01*
X162023809Y-44452380D02*
X162023809Y-43452380D01*
X161928571Y-43595238D01*
X161833333Y-43690476D01*
X161738095Y-43738095D01*
X163261904Y-44452380D02*
X162690476Y-44452380D01*
X162976190Y-44452380D02*
X162976190Y-43452380D01*
X162880952Y-43595238D01*
X162785714Y-43690476D01*
X162690476Y-43738095D01*
%TO.C,K33*%
X179785714Y-102452380D02*
X179785714Y-101452380D01*
X180357142Y-102452380D02*
X179928571Y-101880952D01*
X180357142Y-101452380D02*
X179785714Y-102023809D01*
X180690476Y-101452380D02*
X181309523Y-101452380D01*
X180976190Y-101833333D01*
X181119047Y-101833333D01*
X181214285Y-101880952D01*
X181261904Y-101928571D01*
X181309523Y-102023809D01*
X181309523Y-102261904D01*
X181261904Y-102357142D01*
X181214285Y-102404761D01*
X181119047Y-102452380D01*
X180833333Y-102452380D01*
X180738095Y-102404761D01*
X180690476Y-102357142D01*
X181642857Y-101452380D02*
X182261904Y-101452380D01*
X181928571Y-101833333D01*
X182071428Y-101833333D01*
X182166666Y-101880952D01*
X182214285Y-101928571D01*
X182261904Y-102023809D01*
X182261904Y-102261904D01*
X182214285Y-102357142D01*
X182166666Y-102404761D01*
X182071428Y-102452380D01*
X181785714Y-102452380D01*
X181690476Y-102404761D01*
X181642857Y-102357142D01*
%TO.C,K20*%
X198785714Y-66452380D02*
X198785714Y-65452380D01*
X199357142Y-66452380D02*
X198928571Y-65880952D01*
X199357142Y-65452380D02*
X198785714Y-66023809D01*
X199738095Y-65547619D02*
X199785714Y-65500000D01*
X199880952Y-65452380D01*
X200119047Y-65452380D01*
X200214285Y-65500000D01*
X200261904Y-65547619D01*
X200309523Y-65642857D01*
X200309523Y-65738095D01*
X200261904Y-65880952D01*
X199690476Y-66452380D01*
X200309523Y-66452380D01*
X200928571Y-65452380D02*
X201023809Y-65452380D01*
X201119047Y-65500000D01*
X201166666Y-65547619D01*
X201214285Y-65642857D01*
X201261904Y-65833333D01*
X201261904Y-66071428D01*
X201214285Y-66261904D01*
X201166666Y-66357142D01*
X201119047Y-66404761D01*
X201023809Y-66452380D01*
X200928571Y-66452380D01*
X200833333Y-66404761D01*
X200785714Y-66357142D01*
X200738095Y-66261904D01*
X200690476Y-66071428D01*
X200690476Y-65833333D01*
X200738095Y-65642857D01*
X200785714Y-65547619D01*
X200833333Y-65500000D01*
X200928571Y-65452380D01*
%TO.C,K13*%
X198785714Y-47452380D02*
X198785714Y-46452380D01*
X199357142Y-47452380D02*
X198928571Y-46880952D01*
X199357142Y-46452380D02*
X198785714Y-47023809D01*
X200309523Y-47452380D02*
X199738095Y-47452380D01*
X200023809Y-47452380D02*
X200023809Y-46452380D01*
X199928571Y-46595238D01*
X199833333Y-46690476D01*
X199738095Y-46738095D01*
X200642857Y-46452380D02*
X201261904Y-46452380D01*
X200928571Y-46833333D01*
X201071428Y-46833333D01*
X201166666Y-46880952D01*
X201214285Y-46928571D01*
X201261904Y-47023809D01*
X201261904Y-47261904D01*
X201214285Y-47357142D01*
X201166666Y-47404761D01*
X201071428Y-47452380D01*
X200785714Y-47452380D01*
X200690476Y-47404761D01*
X200642857Y-47357142D01*
%TO.C,K7*%
X218261904Y-32452380D02*
X218261904Y-31452380D01*
X218833333Y-32452380D02*
X218404761Y-31880952D01*
X218833333Y-31452380D02*
X218261904Y-32023809D01*
X219166666Y-31452380D02*
X219833333Y-31452380D01*
X219404761Y-32452380D01*
%TO.C,K17*%
X141785714Y-64452380D02*
X141785714Y-63452380D01*
X142357142Y-64452380D02*
X141928571Y-63880952D01*
X142357142Y-63452380D02*
X141785714Y-64023809D01*
X143309523Y-64452380D02*
X142738095Y-64452380D01*
X143023809Y-64452380D02*
X143023809Y-63452380D01*
X142928571Y-63595238D01*
X142833333Y-63690476D01*
X142738095Y-63738095D01*
X143642857Y-63452380D02*
X144309523Y-63452380D01*
X143880952Y-64452380D01*
%TO.C,K16*%
X122785714Y-66452380D02*
X122785714Y-65452380D01*
X123357142Y-66452380D02*
X122928571Y-65880952D01*
X123357142Y-65452380D02*
X122785714Y-66023809D01*
X124309523Y-66452380D02*
X123738095Y-66452380D01*
X124023809Y-66452380D02*
X124023809Y-65452380D01*
X123928571Y-65595238D01*
X123833333Y-65690476D01*
X123738095Y-65738095D01*
X125166666Y-65452380D02*
X124976190Y-65452380D01*
X124880952Y-65500000D01*
X124833333Y-65547619D01*
X124738095Y-65690476D01*
X124690476Y-65880952D01*
X124690476Y-66261904D01*
X124738095Y-66357142D01*
X124785714Y-66404761D01*
X124880952Y-66452380D01*
X125071428Y-66452380D01*
X125166666Y-66404761D01*
X125214285Y-66357142D01*
X125261904Y-66261904D01*
X125261904Y-66023809D01*
X125214285Y-65928571D01*
X125166666Y-65880952D01*
X125071428Y-65833333D01*
X124880952Y-65833333D01*
X124785714Y-65880952D01*
X124738095Y-65928571D01*
X124690476Y-66023809D01*
%TO.C,K37*%
X232835365Y-146277159D02*
X232128258Y-146984265D01*
X232431304Y-145873098D02*
X232330289Y-146580204D01*
X231724197Y-146580204D02*
X232532319Y-146580204D01*
X231488495Y-146344502D02*
X231050762Y-145906769D01*
X231555838Y-145873098D01*
X231454823Y-145772082D01*
X231421151Y-145671067D01*
X231421151Y-145603723D01*
X231454823Y-145502708D01*
X231623182Y-145334349D01*
X231724197Y-145300678D01*
X231791541Y-145300678D01*
X231892556Y-145334349D01*
X232094586Y-145536380D01*
X232128258Y-145637395D01*
X232128258Y-145704739D01*
X230815060Y-145671067D02*
X230343655Y-145199662D01*
X231353808Y-144795601D01*
%TO.C,U2*%
X231672380Y-123971904D02*
X232481904Y-123971904D01*
X232577142Y-123924285D01*
X232624761Y-123876666D01*
X232672380Y-123781428D01*
X232672380Y-123590952D01*
X232624761Y-123495714D01*
X232577142Y-123448095D01*
X232481904Y-123400476D01*
X231672380Y-123400476D01*
X231767619Y-122971904D02*
X231720000Y-122924285D01*
X231672380Y-122829047D01*
X231672380Y-122590952D01*
X231720000Y-122495714D01*
X231767619Y-122448095D01*
X231862857Y-122400476D01*
X231958095Y-122400476D01*
X232100952Y-122448095D01*
X232672380Y-123019523D01*
X232672380Y-122400476D01*
%TO.C,K2*%
X123261904Y-28452380D02*
X123261904Y-27452380D01*
X123833333Y-28452380D02*
X123404761Y-27880952D01*
X123833333Y-27452380D02*
X123261904Y-28023809D01*
X124214285Y-27547619D02*
X124261904Y-27500000D01*
X124357142Y-27452380D01*
X124595238Y-27452380D01*
X124690476Y-27500000D01*
X124738095Y-27547619D01*
X124785714Y-27642857D01*
X124785714Y-27738095D01*
X124738095Y-27880952D01*
X124166666Y-28452380D01*
X124785714Y-28452380D01*
%TO.C,K38*%
X246270394Y-159712188D02*
X245563287Y-160419294D01*
X245866333Y-159308127D02*
X245765318Y-160015233D01*
X245159226Y-160015233D02*
X245967348Y-160015233D01*
X244923524Y-159779531D02*
X244485791Y-159341798D01*
X244990867Y-159308127D01*
X244889852Y-159207111D01*
X244856180Y-159106096D01*
X244856180Y-159038752D01*
X244889852Y-158937737D01*
X245058211Y-158769378D01*
X245159226Y-158735707D01*
X245226570Y-158735707D01*
X245327585Y-158769378D01*
X245529615Y-158971409D01*
X245563287Y-159072424D01*
X245563287Y-159139768D01*
X244384776Y-158634691D02*
X244418447Y-158735707D01*
X244418447Y-158803050D01*
X244384776Y-158904065D01*
X244351104Y-158937737D01*
X244250089Y-158971409D01*
X244182745Y-158971409D01*
X244081730Y-158937737D01*
X243947043Y-158803050D01*
X243913371Y-158702035D01*
X243913371Y-158634691D01*
X243947043Y-158533676D01*
X243980715Y-158500004D01*
X244081730Y-158466333D01*
X244149073Y-158466333D01*
X244250089Y-158500004D01*
X244384776Y-158634691D01*
X244485791Y-158668363D01*
X244553134Y-158668363D01*
X244654150Y-158634691D01*
X244788837Y-158500004D01*
X244822508Y-158398989D01*
X244822508Y-158331646D01*
X244788837Y-158230630D01*
X244654150Y-158095943D01*
X244553134Y-158062272D01*
X244485791Y-158062272D01*
X244384776Y-158095943D01*
X244250089Y-158230630D01*
X244216417Y-158331646D01*
X244216417Y-158398989D01*
X244250089Y-158500004D01*
%TO.C,K5*%
X180261904Y-26452380D02*
X180261904Y-25452380D01*
X180833333Y-26452380D02*
X180404761Y-25880952D01*
X180833333Y-25452380D02*
X180261904Y-26023809D01*
X181738095Y-25452380D02*
X181261904Y-25452380D01*
X181214285Y-25928571D01*
X181261904Y-25880952D01*
X181357142Y-25833333D01*
X181595238Y-25833333D01*
X181690476Y-25880952D01*
X181738095Y-25928571D01*
X181785714Y-26023809D01*
X181785714Y-26261904D01*
X181738095Y-26357142D01*
X181690476Y-26404761D01*
X181595238Y-26452380D01*
X181357142Y-26452380D01*
X181261904Y-26404761D01*
X181214285Y-26357142D01*
%TO.C,K9*%
X123261904Y-47452380D02*
X123261904Y-46452380D01*
X123833333Y-47452380D02*
X123404761Y-46880952D01*
X123833333Y-46452380D02*
X123261904Y-47023809D01*
X124309523Y-47452380D02*
X124500000Y-47452380D01*
X124595238Y-47404761D01*
X124642857Y-47357142D01*
X124738095Y-47214285D01*
X124785714Y-47023809D01*
X124785714Y-46642857D01*
X124738095Y-46547619D01*
X124690476Y-46500000D01*
X124595238Y-46452380D01*
X124404761Y-46452380D01*
X124309523Y-46500000D01*
X124261904Y-46547619D01*
X124214285Y-46642857D01*
X124214285Y-46880952D01*
X124261904Y-46976190D01*
X124309523Y-47023809D01*
X124404761Y-47071428D01*
X124595238Y-47071428D01*
X124690476Y-47023809D01*
X124738095Y-46976190D01*
X124785714Y-46880952D01*
%TO.C,K32*%
X160785714Y-101452380D02*
X160785714Y-100452380D01*
X161357142Y-101452380D02*
X160928571Y-100880952D01*
X161357142Y-100452380D02*
X160785714Y-101023809D01*
X161690476Y-100452380D02*
X162309523Y-100452380D01*
X161976190Y-100833333D01*
X162119047Y-100833333D01*
X162214285Y-100880952D01*
X162261904Y-100928571D01*
X162309523Y-101023809D01*
X162309523Y-101261904D01*
X162261904Y-101357142D01*
X162214285Y-101404761D01*
X162119047Y-101452380D01*
X161833333Y-101452380D01*
X161738095Y-101404761D01*
X161690476Y-101357142D01*
X162690476Y-100547619D02*
X162738095Y-100500000D01*
X162833333Y-100452380D01*
X163071428Y-100452380D01*
X163166666Y-100500000D01*
X163214285Y-100547619D01*
X163261904Y-100642857D01*
X163261904Y-100738095D01*
X163214285Y-100880952D01*
X162642857Y-101452380D01*
X163261904Y-101452380D01*
%TO.C,K1*%
X104261904Y-32452380D02*
X104261904Y-31452380D01*
X104833333Y-32452380D02*
X104404761Y-31880952D01*
X104833333Y-31452380D02*
X104261904Y-32023809D01*
X105785714Y-32452380D02*
X105214285Y-32452380D01*
X105500000Y-32452380D02*
X105500000Y-31452380D01*
X105404761Y-31595238D01*
X105309523Y-31690476D01*
X105214285Y-31738095D01*
%TO.C,K26*%
X179785714Y-83452380D02*
X179785714Y-82452380D01*
X180357142Y-83452380D02*
X179928571Y-82880952D01*
X180357142Y-82452380D02*
X179785714Y-83023809D01*
X180738095Y-82547619D02*
X180785714Y-82500000D01*
X180880952Y-82452380D01*
X181119047Y-82452380D01*
X181214285Y-82500000D01*
X181261904Y-82547619D01*
X181309523Y-82642857D01*
X181309523Y-82738095D01*
X181261904Y-82880952D01*
X180690476Y-83452380D01*
X181309523Y-83452380D01*
X182166666Y-82452380D02*
X181976190Y-82452380D01*
X181880952Y-82500000D01*
X181833333Y-82547619D01*
X181738095Y-82690476D01*
X181690476Y-82880952D01*
X181690476Y-83261904D01*
X181738095Y-83357142D01*
X181785714Y-83404761D01*
X181880952Y-83452380D01*
X182071428Y-83452380D01*
X182166666Y-83404761D01*
X182214285Y-83357142D01*
X182261904Y-83261904D01*
X182261904Y-83023809D01*
X182214285Y-82928571D01*
X182166666Y-82880952D01*
X182071428Y-82833333D01*
X181880952Y-82833333D01*
X181785714Y-82880952D01*
X181738095Y-82928571D01*
X181690476Y-83023809D01*
%TO.C,K4*%
X161261904Y-25452380D02*
X161261904Y-24452380D01*
X161833333Y-25452380D02*
X161404761Y-24880952D01*
X161833333Y-24452380D02*
X161261904Y-25023809D01*
X162690476Y-24785714D02*
X162690476Y-25452380D01*
X162452380Y-24404761D02*
X162214285Y-25119047D01*
X162833333Y-25119047D01*
%TO.C,K34*%
X198785714Y-104452380D02*
X198785714Y-103452380D01*
X199357142Y-104452380D02*
X198928571Y-103880952D01*
X199357142Y-103452380D02*
X198785714Y-104023809D01*
X199690476Y-103452380D02*
X200309523Y-103452380D01*
X199976190Y-103833333D01*
X200119047Y-103833333D01*
X200214285Y-103880952D01*
X200261904Y-103928571D01*
X200309523Y-104023809D01*
X200309523Y-104261904D01*
X200261904Y-104357142D01*
X200214285Y-104404761D01*
X200119047Y-104452380D01*
X199833333Y-104452380D01*
X199738095Y-104404761D01*
X199690476Y-104357142D01*
X201166666Y-103785714D02*
X201166666Y-104452380D01*
X200928571Y-103404761D02*
X200690476Y-104119047D01*
X201309523Y-104119047D01*
%TO.C,K30*%
X122785714Y-104452380D02*
X122785714Y-103452380D01*
X123357142Y-104452380D02*
X122928571Y-103880952D01*
X123357142Y-103452380D02*
X122785714Y-104023809D01*
X123690476Y-103452380D02*
X124309523Y-103452380D01*
X123976190Y-103833333D01*
X124119047Y-103833333D01*
X124214285Y-103880952D01*
X124261904Y-103928571D01*
X124309523Y-104023809D01*
X124309523Y-104261904D01*
X124261904Y-104357142D01*
X124214285Y-104404761D01*
X124119047Y-104452380D01*
X123833333Y-104452380D01*
X123738095Y-104404761D01*
X123690476Y-104357142D01*
X124928571Y-103452380D02*
X125023809Y-103452380D01*
X125119047Y-103500000D01*
X125166666Y-103547619D01*
X125214285Y-103642857D01*
X125261904Y-103833333D01*
X125261904Y-104071428D01*
X125214285Y-104261904D01*
X125166666Y-104357142D01*
X125119047Y-104404761D01*
X125023809Y-104452380D01*
X124928571Y-104452380D01*
X124833333Y-104404761D01*
X124785714Y-104357142D01*
X124738095Y-104261904D01*
X124690476Y-104071428D01*
X124690476Y-103833333D01*
X124738095Y-103642857D01*
X124785714Y-103547619D01*
X124833333Y-103500000D01*
X124928571Y-103452380D01*
%TO.C,K14*%
X217785714Y-51452380D02*
X217785714Y-50452380D01*
X218357142Y-51452380D02*
X217928571Y-50880952D01*
X218357142Y-50452380D02*
X217785714Y-51023809D01*
X219309523Y-51452380D02*
X218738095Y-51452380D01*
X219023809Y-51452380D02*
X219023809Y-50452380D01*
X218928571Y-50595238D01*
X218833333Y-50690476D01*
X218738095Y-50738095D01*
X220166666Y-50785714D02*
X220166666Y-51452380D01*
X219928571Y-50404761D02*
X219690476Y-51119047D01*
X220309523Y-51119047D01*
%TO.C,K12*%
X179785714Y-45452380D02*
X179785714Y-44452380D01*
X180357142Y-45452380D02*
X179928571Y-44880952D01*
X180357142Y-44452380D02*
X179785714Y-45023809D01*
X181309523Y-45452380D02*
X180738095Y-45452380D01*
X181023809Y-45452380D02*
X181023809Y-44452380D01*
X180928571Y-44595238D01*
X180833333Y-44690476D01*
X180738095Y-44738095D01*
X181690476Y-44547619D02*
X181738095Y-44500000D01*
X181833333Y-44452380D01*
X182071428Y-44452380D01*
X182166666Y-44500000D01*
X182214285Y-44547619D01*
X182261904Y-44642857D01*
X182261904Y-44738095D01*
X182214285Y-44880952D01*
X181642857Y-45452380D01*
X182261904Y-45452380D01*
%TO.C,K22*%
X103785714Y-89452380D02*
X103785714Y-88452380D01*
X104357142Y-89452380D02*
X103928571Y-88880952D01*
X104357142Y-88452380D02*
X103785714Y-89023809D01*
X104738095Y-88547619D02*
X104785714Y-88500000D01*
X104880952Y-88452380D01*
X105119047Y-88452380D01*
X105214285Y-88500000D01*
X105261904Y-88547619D01*
X105309523Y-88642857D01*
X105309523Y-88738095D01*
X105261904Y-88880952D01*
X104690476Y-89452380D01*
X105309523Y-89452380D01*
X105690476Y-88547619D02*
X105738095Y-88500000D01*
X105833333Y-88452380D01*
X106071428Y-88452380D01*
X106166666Y-88500000D01*
X106214285Y-88547619D01*
X106261904Y-88642857D01*
X106261904Y-88738095D01*
X106214285Y-88880952D01*
X105642857Y-89452380D01*
X106261904Y-89452380D01*
%TO.C,K6*%
X199261904Y-28452380D02*
X199261904Y-27452380D01*
X199833333Y-28452380D02*
X199404761Y-27880952D01*
X199833333Y-27452380D02*
X199261904Y-28023809D01*
X200690476Y-27452380D02*
X200500000Y-27452380D01*
X200404761Y-27500000D01*
X200357142Y-27547619D01*
X200261904Y-27690476D01*
X200214285Y-27880952D01*
X200214285Y-28261904D01*
X200261904Y-28357142D01*
X200309523Y-28404761D01*
X200404761Y-28452380D01*
X200595238Y-28452380D01*
X200690476Y-28404761D01*
X200738095Y-28357142D01*
X200785714Y-28261904D01*
X200785714Y-28023809D01*
X200738095Y-27928571D01*
X200690476Y-27880952D01*
X200595238Y-27833333D01*
X200404761Y-27833333D01*
X200309523Y-27880952D01*
X200261904Y-27928571D01*
X200214285Y-28023809D01*
%TO.C,K8*%
X104261904Y-51452380D02*
X104261904Y-50452380D01*
X104833333Y-51452380D02*
X104404761Y-50880952D01*
X104833333Y-50452380D02*
X104261904Y-51023809D01*
X105404761Y-50880952D02*
X105309523Y-50833333D01*
X105261904Y-50785714D01*
X105214285Y-50690476D01*
X105214285Y-50642857D01*
X105261904Y-50547619D01*
X105309523Y-50500000D01*
X105404761Y-50452380D01*
X105595238Y-50452380D01*
X105690476Y-50500000D01*
X105738095Y-50547619D01*
X105785714Y-50642857D01*
X105785714Y-50690476D01*
X105738095Y-50785714D01*
X105690476Y-50833333D01*
X105595238Y-50880952D01*
X105404761Y-50880952D01*
X105309523Y-50928571D01*
X105261904Y-50976190D01*
X105214285Y-51071428D01*
X105214285Y-51261904D01*
X105261904Y-51357142D01*
X105309523Y-51404761D01*
X105404761Y-51452380D01*
X105595238Y-51452380D01*
X105690476Y-51404761D01*
X105738095Y-51357142D01*
X105785714Y-51261904D01*
X105785714Y-51071428D01*
X105738095Y-50976190D01*
X105690476Y-50928571D01*
X105595238Y-50880952D01*
%TO.C,K18*%
X160785714Y-63452380D02*
X160785714Y-62452380D01*
X161357142Y-63452380D02*
X160928571Y-62880952D01*
X161357142Y-62452380D02*
X160785714Y-63023809D01*
X162309523Y-63452380D02*
X161738095Y-63452380D01*
X162023809Y-63452380D02*
X162023809Y-62452380D01*
X161928571Y-62595238D01*
X161833333Y-62690476D01*
X161738095Y-62738095D01*
X162880952Y-62880952D02*
X162785714Y-62833333D01*
X162738095Y-62785714D01*
X162690476Y-62690476D01*
X162690476Y-62642857D01*
X162738095Y-62547619D01*
X162785714Y-62500000D01*
X162880952Y-62452380D01*
X163071428Y-62452380D01*
X163166666Y-62500000D01*
X163214285Y-62547619D01*
X163261904Y-62642857D01*
X163261904Y-62690476D01*
X163214285Y-62785714D01*
X163166666Y-62833333D01*
X163071428Y-62880952D01*
X162880952Y-62880952D01*
X162785714Y-62928571D01*
X162738095Y-62976190D01*
X162690476Y-63071428D01*
X162690476Y-63261904D01*
X162738095Y-63357142D01*
X162785714Y-63404761D01*
X162880952Y-63452380D01*
X163071428Y-63452380D01*
X163166666Y-63404761D01*
X163214285Y-63357142D01*
X163261904Y-63261904D01*
X163261904Y-63071428D01*
X163214285Y-62976190D01*
X163166666Y-62928571D01*
X163071428Y-62880952D01*
%TO.C,R42*%
X255338342Y-125954780D02*
X255005009Y-125478590D01*
X254766914Y-125954780D02*
X254766914Y-124954780D01*
X255147866Y-124954780D01*
X255243104Y-125002400D01*
X255290723Y-125050019D01*
X255338342Y-125145257D01*
X255338342Y-125288114D01*
X255290723Y-125383352D01*
X255243104Y-125430971D01*
X255147866Y-125478590D01*
X254766914Y-125478590D01*
X256195485Y-125288114D02*
X256195485Y-125954780D01*
X255957390Y-124907161D02*
X255719295Y-125621447D01*
X256338342Y-125621447D01*
X256671676Y-125050019D02*
X256719295Y-125002400D01*
X256814533Y-124954780D01*
X257052628Y-124954780D01*
X257147866Y-125002400D01*
X257195485Y-125050019D01*
X257243104Y-125145257D01*
X257243104Y-125240495D01*
X257195485Y-125383352D01*
X256624057Y-125954780D01*
X257243104Y-125954780D01*
%TO.C,K15*%
X103785714Y-70452380D02*
X103785714Y-69452380D01*
X104357142Y-70452380D02*
X103928571Y-69880952D01*
X104357142Y-69452380D02*
X103785714Y-70023809D01*
X105309523Y-70452380D02*
X104738095Y-70452380D01*
X105023809Y-70452380D02*
X105023809Y-69452380D01*
X104928571Y-69595238D01*
X104833333Y-69690476D01*
X104738095Y-69738095D01*
X106214285Y-69452380D02*
X105738095Y-69452380D01*
X105690476Y-69928571D01*
X105738095Y-69880952D01*
X105833333Y-69833333D01*
X106071428Y-69833333D01*
X106166666Y-69880952D01*
X106214285Y-69928571D01*
X106261904Y-70023809D01*
X106261904Y-70261904D01*
X106214285Y-70357142D01*
X106166666Y-70404761D01*
X106071428Y-70452380D01*
X105833333Y-70452380D01*
X105738095Y-70404761D01*
X105690476Y-70357142D01*
%TO.C,K21*%
X217785714Y-70452380D02*
X217785714Y-69452380D01*
X218357142Y-70452380D02*
X217928571Y-69880952D01*
X218357142Y-69452380D02*
X217785714Y-70023809D01*
X218738095Y-69547619D02*
X218785714Y-69500000D01*
X218880952Y-69452380D01*
X219119047Y-69452380D01*
X219214285Y-69500000D01*
X219261904Y-69547619D01*
X219309523Y-69642857D01*
X219309523Y-69738095D01*
X219261904Y-69880952D01*
X218690476Y-70452380D01*
X219309523Y-70452380D01*
X220261904Y-70452380D02*
X219690476Y-70452380D01*
X219976190Y-70452380D02*
X219976190Y-69452380D01*
X219880952Y-69595238D01*
X219785714Y-69690476D01*
X219690476Y-69738095D01*
%TO.C,K19*%
X179785714Y-64452380D02*
X179785714Y-63452380D01*
X180357142Y-64452380D02*
X179928571Y-63880952D01*
X180357142Y-63452380D02*
X179785714Y-64023809D01*
X181309523Y-64452380D02*
X180738095Y-64452380D01*
X181023809Y-64452380D02*
X181023809Y-63452380D01*
X180928571Y-63595238D01*
X180833333Y-63690476D01*
X180738095Y-63738095D01*
X181785714Y-64452380D02*
X181976190Y-64452380D01*
X182071428Y-64404761D01*
X182119047Y-64357142D01*
X182214285Y-64214285D01*
X182261904Y-64023809D01*
X182261904Y-63642857D01*
X182214285Y-63547619D01*
X182166666Y-63500000D01*
X182071428Y-63452380D01*
X181880952Y-63452380D01*
X181785714Y-63500000D01*
X181738095Y-63547619D01*
X181690476Y-63642857D01*
X181690476Y-63880952D01*
X181738095Y-63976190D01*
X181785714Y-64023809D01*
X181880952Y-64071428D01*
X182071428Y-64071428D01*
X182166666Y-64023809D01*
X182214285Y-63976190D01*
X182261904Y-63880952D01*
%TO.C,K25*%
X160785714Y-82452380D02*
X160785714Y-81452380D01*
X161357142Y-82452380D02*
X160928571Y-81880952D01*
X161357142Y-81452380D02*
X160785714Y-82023809D01*
X161738095Y-81547619D02*
X161785714Y-81500000D01*
X161880952Y-81452380D01*
X162119047Y-81452380D01*
X162214285Y-81500000D01*
X162261904Y-81547619D01*
X162309523Y-81642857D01*
X162309523Y-81738095D01*
X162261904Y-81880952D01*
X161690476Y-82452380D01*
X162309523Y-82452380D01*
X163214285Y-81452380D02*
X162738095Y-81452380D01*
X162690476Y-81928571D01*
X162738095Y-81880952D01*
X162833333Y-81833333D01*
X163071428Y-81833333D01*
X163166666Y-81880952D01*
X163214285Y-81928571D01*
X163261904Y-82023809D01*
X163261904Y-82261904D01*
X163214285Y-82357142D01*
X163166666Y-82404761D01*
X163071428Y-82452380D01*
X162833333Y-82452380D01*
X162738095Y-82404761D01*
X162690476Y-82357142D01*
%TO.C,K10*%
X141785714Y-45452380D02*
X141785714Y-44452380D01*
X142357142Y-45452380D02*
X141928571Y-44880952D01*
X142357142Y-44452380D02*
X141785714Y-45023809D01*
X143309523Y-45452380D02*
X142738095Y-45452380D01*
X143023809Y-45452380D02*
X143023809Y-44452380D01*
X142928571Y-44595238D01*
X142833333Y-44690476D01*
X142738095Y-44738095D01*
X143928571Y-44452380D02*
X144023809Y-44452380D01*
X144119047Y-44500000D01*
X144166666Y-44547619D01*
X144214285Y-44642857D01*
X144261904Y-44833333D01*
X144261904Y-45071428D01*
X144214285Y-45261904D01*
X144166666Y-45357142D01*
X144119047Y-45404761D01*
X144023809Y-45452380D01*
X143928571Y-45452380D01*
X143833333Y-45404761D01*
X143785714Y-45357142D01*
X143738095Y-45261904D01*
X143690476Y-45071428D01*
X143690476Y-44833333D01*
X143738095Y-44642857D01*
X143785714Y-44547619D01*
X143833333Y-44500000D01*
X143928571Y-44452380D01*
%TO.C,K31*%
X141785714Y-102452380D02*
X141785714Y-101452380D01*
X142357142Y-102452380D02*
X141928571Y-101880952D01*
X142357142Y-101452380D02*
X141785714Y-102023809D01*
X142690476Y-101452380D02*
X143309523Y-101452380D01*
X142976190Y-101833333D01*
X143119047Y-101833333D01*
X143214285Y-101880952D01*
X143261904Y-101928571D01*
X143309523Y-102023809D01*
X143309523Y-102261904D01*
X143261904Y-102357142D01*
X143214285Y-102404761D01*
X143119047Y-102452380D01*
X142833333Y-102452380D01*
X142738095Y-102404761D01*
X142690476Y-102357142D01*
X144261904Y-102452380D02*
X143690476Y-102452380D01*
X143976190Y-102452380D02*
X143976190Y-101452380D01*
X143880952Y-101595238D01*
X143785714Y-101690476D01*
X143690476Y-101738095D01*
%TO.C,K23*%
X122785714Y-85452380D02*
X122785714Y-84452380D01*
X123357142Y-85452380D02*
X122928571Y-84880952D01*
X123357142Y-84452380D02*
X122785714Y-85023809D01*
X123738095Y-84547619D02*
X123785714Y-84500000D01*
X123880952Y-84452380D01*
X124119047Y-84452380D01*
X124214285Y-84500000D01*
X124261904Y-84547619D01*
X124309523Y-84642857D01*
X124309523Y-84738095D01*
X124261904Y-84880952D01*
X123690476Y-85452380D01*
X124309523Y-85452380D01*
X124642857Y-84452380D02*
X125261904Y-84452380D01*
X124928571Y-84833333D01*
X125071428Y-84833333D01*
X125166666Y-84880952D01*
X125214285Y-84928571D01*
X125261904Y-85023809D01*
X125261904Y-85261904D01*
X125214285Y-85357142D01*
X125166666Y-85404761D01*
X125071428Y-85452380D01*
X124785714Y-85452380D01*
X124690476Y-85404761D01*
X124642857Y-85357142D01*
%TO.C,K29*%
X103785714Y-108452380D02*
X103785714Y-107452380D01*
X104357142Y-108452380D02*
X103928571Y-107880952D01*
X104357142Y-107452380D02*
X103785714Y-108023809D01*
X104738095Y-107547619D02*
X104785714Y-107500000D01*
X104880952Y-107452380D01*
X105119047Y-107452380D01*
X105214285Y-107500000D01*
X105261904Y-107547619D01*
X105309523Y-107642857D01*
X105309523Y-107738095D01*
X105261904Y-107880952D01*
X104690476Y-108452380D01*
X105309523Y-108452380D01*
X105785714Y-108452380D02*
X105976190Y-108452380D01*
X106071428Y-108404761D01*
X106119047Y-108357142D01*
X106214285Y-108214285D01*
X106261904Y-108023809D01*
X106261904Y-107642857D01*
X106214285Y-107547619D01*
X106166666Y-107500000D01*
X106071428Y-107452380D01*
X105880952Y-107452380D01*
X105785714Y-107500000D01*
X105738095Y-107547619D01*
X105690476Y-107642857D01*
X105690476Y-107880952D01*
X105738095Y-107976190D01*
X105785714Y-108023809D01*
X105880952Y-108071428D01*
X106071428Y-108071428D01*
X106166666Y-108023809D01*
X106214285Y-107976190D01*
X106261904Y-107880952D01*
%TO.C,K24*%
X141785714Y-83452380D02*
X141785714Y-82452380D01*
X142357142Y-83452380D02*
X141928571Y-82880952D01*
X142357142Y-82452380D02*
X141785714Y-83023809D01*
X142738095Y-82547619D02*
X142785714Y-82500000D01*
X142880952Y-82452380D01*
X143119047Y-82452380D01*
X143214285Y-82500000D01*
X143261904Y-82547619D01*
X143309523Y-82642857D01*
X143309523Y-82738095D01*
X143261904Y-82880952D01*
X142690476Y-83452380D01*
X143309523Y-83452380D01*
X144166666Y-82785714D02*
X144166666Y-83452380D01*
X143928571Y-82404761D02*
X143690476Y-83119047D01*
X144309523Y-83119047D01*
%TO.C,K36*%
X219400336Y-132842130D02*
X218693229Y-133549236D01*
X218996275Y-132438069D02*
X218895260Y-133145175D01*
X218289168Y-133145175D02*
X219097290Y-133145175D01*
X218053466Y-132909473D02*
X217615733Y-132471740D01*
X218120809Y-132438069D01*
X218019794Y-132337053D01*
X217986122Y-132236038D01*
X217986122Y-132168694D01*
X218019794Y-132067679D01*
X218188153Y-131899320D01*
X218289168Y-131865649D01*
X218356512Y-131865649D01*
X218457527Y-131899320D01*
X218659557Y-132101351D01*
X218693229Y-132202366D01*
X218693229Y-132269710D01*
X217009641Y-131865649D02*
X217144328Y-132000336D01*
X217245344Y-132034007D01*
X217312687Y-132034007D01*
X217481046Y-132000336D01*
X217649405Y-131899320D01*
X217918779Y-131629946D01*
X217952450Y-131528931D01*
X217952450Y-131461588D01*
X217918779Y-131360572D01*
X217784092Y-131225885D01*
X217683076Y-131192214D01*
X217615733Y-131192214D01*
X217514718Y-131225885D01*
X217346359Y-131394244D01*
X217312687Y-131495259D01*
X217312687Y-131562603D01*
X217346359Y-131663618D01*
X217481046Y-131798305D01*
X217582061Y-131831977D01*
X217649405Y-131831977D01*
X217750420Y-131798305D01*
%TO.C,K35*%
X217785714Y-108452380D02*
X217785714Y-107452380D01*
X218357142Y-108452380D02*
X217928571Y-107880952D01*
X218357142Y-107452380D02*
X217785714Y-108023809D01*
X218690476Y-107452380D02*
X219309523Y-107452380D01*
X218976190Y-107833333D01*
X219119047Y-107833333D01*
X219214285Y-107880952D01*
X219261904Y-107928571D01*
X219309523Y-108023809D01*
X219309523Y-108261904D01*
X219261904Y-108357142D01*
X219214285Y-108404761D01*
X219119047Y-108452380D01*
X218833333Y-108452380D01*
X218738095Y-108404761D01*
X218690476Y-108357142D01*
X220214285Y-107452380D02*
X219738095Y-107452380D01*
X219690476Y-107928571D01*
X219738095Y-107880952D01*
X219833333Y-107833333D01*
X220071428Y-107833333D01*
X220166666Y-107880952D01*
X220214285Y-107928571D01*
X220261904Y-108023809D01*
X220261904Y-108261904D01*
X220214285Y-108357142D01*
X220166666Y-108404761D01*
X220071428Y-108452380D01*
X219833333Y-108452380D01*
X219738095Y-108404761D01*
X219690476Y-108357142D01*
%TO.C,K27*%
X198785714Y-85452380D02*
X198785714Y-84452380D01*
X199357142Y-85452380D02*
X198928571Y-84880952D01*
X199357142Y-84452380D02*
X198785714Y-85023809D01*
X199738095Y-84547619D02*
X199785714Y-84500000D01*
X199880952Y-84452380D01*
X200119047Y-84452380D01*
X200214285Y-84500000D01*
X200261904Y-84547619D01*
X200309523Y-84642857D01*
X200309523Y-84738095D01*
X200261904Y-84880952D01*
X199690476Y-85452380D01*
X200309523Y-85452380D01*
X200642857Y-84452380D02*
X201309523Y-84452380D01*
X200880952Y-85452380D01*
%TO.C,K3*%
X142261904Y-26452380D02*
X142261904Y-25452380D01*
X142833333Y-26452380D02*
X142404761Y-25880952D01*
X142833333Y-25452380D02*
X142261904Y-26023809D01*
X143166666Y-25452380D02*
X143785714Y-25452380D01*
X143452380Y-25833333D01*
X143595238Y-25833333D01*
X143690476Y-25880952D01*
X143738095Y-25928571D01*
X143785714Y-26023809D01*
X143785714Y-26261904D01*
X143738095Y-26357142D01*
X143690476Y-26404761D01*
X143595238Y-26452380D01*
X143309523Y-26452380D01*
X143214285Y-26404761D01*
X143166666Y-26357142D01*
%TO.C,J3*%
X257816666Y-100452380D02*
X257816666Y-101166666D01*
X257769047Y-101309523D01*
X257673809Y-101404761D01*
X257530952Y-101452380D01*
X257435714Y-101452380D01*
X258197619Y-100452380D02*
X258816666Y-100452380D01*
X258483333Y-100833333D01*
X258626190Y-100833333D01*
X258721428Y-100880952D01*
X258769047Y-100928571D01*
X258816666Y-101023809D01*
X258816666Y-101261904D01*
X258769047Y-101357142D01*
X258721428Y-101404761D01*
X258626190Y-101452380D01*
X258340476Y-101452380D01*
X258245238Y-101404761D01*
X258197619Y-101357142D01*
D12*
%TO.C,K28*%
X211900000Y-104100000D02*
X226100000Y-104100000D01*
X226100000Y-104100000D02*
X226100000Y-89900000D01*
X226100000Y-89900000D02*
X211900000Y-89900000D01*
X211900000Y-89900000D02*
X211900000Y-104100000D01*
%TO.C,K11*%
X154900000Y-44900000D02*
X154900000Y-59100000D01*
X169100000Y-59100000D02*
X169100000Y-44900000D01*
X154900000Y-59100000D02*
X169100000Y-59100000D01*
X169100000Y-44900000D02*
X154900000Y-44900000D01*
%TO.C,K33*%
X188100000Y-102900000D02*
X173900000Y-102900000D01*
X173900000Y-102900000D02*
X173900000Y-117100000D01*
X173900000Y-117100000D02*
X188100000Y-117100000D01*
X188100000Y-117100000D02*
X188100000Y-102900000D01*
%TO.C,K20*%
X192900000Y-66900000D02*
X192900000Y-81100000D01*
X192900000Y-81100000D02*
X207100000Y-81100000D01*
X207100000Y-81100000D02*
X207100000Y-66900000D01*
X207100000Y-66900000D02*
X192900000Y-66900000D01*
%TO.C,K13*%
X192900000Y-62100000D02*
X207100000Y-62100000D01*
X192900000Y-47900000D02*
X192900000Y-62100000D01*
X207100000Y-62100000D02*
X207100000Y-47900000D01*
X207100000Y-47900000D02*
X192900000Y-47900000D01*
%TO.C,K7*%
X226100000Y-32900000D02*
X211900000Y-32900000D01*
X211900000Y-47100000D02*
X226100000Y-47100000D01*
X211900000Y-32900000D02*
X211900000Y-47100000D01*
X226100000Y-47100000D02*
X226100000Y-32900000D01*
%TO.C,K17*%
X150100000Y-64900000D02*
X135900000Y-64900000D01*
X150100000Y-79100000D02*
X150100000Y-64900000D01*
X135900000Y-64900000D02*
X135900000Y-79100000D01*
X135900000Y-79100000D02*
X150100000Y-79100000D01*
%TO.C,K16*%
X116900000Y-66900000D02*
X116900000Y-81100000D01*
X131100000Y-66900000D02*
X116900000Y-66900000D01*
X116900000Y-81100000D02*
X131100000Y-81100000D01*
X131100000Y-81100000D02*
X131100000Y-66900000D01*
%TO.C,K37*%
X236040916Y-151395265D02*
X226000000Y-141354349D01*
X226000000Y-161436181D02*
X236040916Y-151395265D01*
X215959084Y-151395265D02*
X226000000Y-161436181D01*
X226000000Y-141354349D02*
X215959084Y-151395265D01*
%TO.C,U2*%
X235400000Y-117800000D02*
X235400000Y-65800000D01*
X271400000Y-65800000D02*
X271400000Y-117800000D01*
X273730000Y-57980000D02*
X273730000Y-125420000D01*
X271400000Y-117800000D02*
X235400000Y-117800000D01*
X233390000Y-125420000D02*
X233390000Y-57980000D01*
X273730000Y-125420000D02*
X233390000Y-125420000D01*
X235400000Y-65800000D02*
X271400000Y-65800000D01*
X240400000Y-125800000D02*
X245400000Y-125800000D01*
X233390000Y-57980000D02*
X273730000Y-57980000D01*
%TO.C,K2*%
X116900000Y-28900000D02*
X116900000Y-43100000D01*
X116900000Y-43100000D02*
X131100000Y-43100000D01*
X131100000Y-43100000D02*
X131100000Y-28900000D01*
X131100000Y-28900000D02*
X116900000Y-28900000D01*
%TO.C,K38*%
X239435029Y-174871210D02*
X249475945Y-164830294D01*
X249475945Y-164830294D02*
X239435029Y-154789378D01*
X239435029Y-154789378D02*
X229394113Y-164830294D01*
X229394113Y-164830294D02*
X239435029Y-174871210D01*
%TO.C,K5*%
X173900000Y-26900000D02*
X173900000Y-41100000D01*
X173900000Y-41100000D02*
X188100000Y-41100000D01*
X188100000Y-41100000D02*
X188100000Y-26900000D01*
X188100000Y-26900000D02*
X173900000Y-26900000D01*
%TO.C,K9*%
X116900000Y-62100000D02*
X131100000Y-62100000D01*
X131100000Y-47900000D02*
X116900000Y-47900000D01*
X131100000Y-62100000D02*
X131100000Y-47900000D01*
X116900000Y-47900000D02*
X116900000Y-62100000D01*
%TO.C,K32*%
X154900000Y-101900000D02*
X154900000Y-116100000D01*
X169100000Y-116100000D02*
X169100000Y-101900000D01*
X154900000Y-116100000D02*
X169100000Y-116100000D01*
X169100000Y-101900000D02*
X154900000Y-101900000D01*
%TO.C,K1*%
X112100000Y-32900000D02*
X97900000Y-32900000D01*
X97900000Y-32900000D02*
X97900000Y-47100000D01*
X97900000Y-47100000D02*
X112100000Y-47100000D01*
X112100000Y-47100000D02*
X112100000Y-32900000D01*
%TO.C,K26*%
X188100000Y-98100000D02*
X188100000Y-83900000D01*
X173900000Y-83900000D02*
X173900000Y-98100000D01*
X173900000Y-98100000D02*
X188100000Y-98100000D01*
X188100000Y-83900000D02*
X173900000Y-83900000D01*
%TO.C,SW1*%
X252675000Y-139475000D02*
X252675000Y-140475000D01*
X254675000Y-134075000D02*
X258775000Y-134075000D01*
X244875000Y-135875000D02*
X245475000Y-135875000D01*
X245475000Y-135875000D02*
X245175000Y-136175000D01*
X258775000Y-134075000D02*
X258775000Y-136475000D01*
X258775000Y-138675000D02*
X258775000Y-141275000D01*
X246575000Y-134075000D02*
X246575000Y-145875000D01*
X250675000Y-134075000D02*
X246575000Y-134075000D01*
X245175000Y-136175000D02*
X244875000Y-135875000D01*
X252175000Y-139975000D02*
X253175000Y-139975000D01*
X258775000Y-145875000D02*
X254675000Y-145875000D01*
X258775000Y-143475000D02*
X258775000Y-145875000D01*
X250675000Y-145875000D02*
X246575000Y-145875000D01*
X255675000Y-139975000D02*
G75*
G03*
X255675000Y-139975000I-3000000J0D01*
G01*
%TO.C,K4*%
X169100000Y-25900000D02*
X154900000Y-25900000D01*
X169100000Y-40100000D02*
X169100000Y-25900000D01*
X154900000Y-25900000D02*
X154900000Y-40100000D01*
X154900000Y-40100000D02*
X169100000Y-40100000D01*
%TO.C,K34*%
X207100000Y-119100000D02*
X207100000Y-104900000D01*
X192900000Y-119100000D02*
X207100000Y-119100000D01*
X207100000Y-104900000D02*
X192900000Y-104900000D01*
X192900000Y-104900000D02*
X192900000Y-119100000D01*
%TO.C,K30*%
X131100000Y-104900000D02*
X116900000Y-104900000D01*
X131100000Y-119100000D02*
X131100000Y-104900000D01*
X116900000Y-104900000D02*
X116900000Y-119100000D01*
X116900000Y-119100000D02*
X131100000Y-119100000D01*
%TO.C,K14*%
X226100000Y-66100000D02*
X226100000Y-51900000D01*
X226100000Y-51900000D02*
X211900000Y-51900000D01*
X211900000Y-66100000D02*
X226100000Y-66100000D01*
X211900000Y-51900000D02*
X211900000Y-66100000D01*
%TO.C,K12*%
X188100000Y-60100000D02*
X188100000Y-45900000D01*
X173900000Y-60100000D02*
X188100000Y-60100000D01*
X188100000Y-45900000D02*
X173900000Y-45900000D01*
X173900000Y-45900000D02*
X173900000Y-60100000D01*
%TO.C,K22*%
X112100000Y-89900000D02*
X97900000Y-89900000D01*
X112100000Y-104100000D02*
X112100000Y-89900000D01*
X97900000Y-89900000D02*
X97900000Y-104100000D01*
X97900000Y-104100000D02*
X112100000Y-104100000D01*
%TO.C,K6*%
X207100000Y-28900000D02*
X192900000Y-28900000D01*
X207100000Y-43100000D02*
X207100000Y-28900000D01*
X192900000Y-28900000D02*
X192900000Y-43100000D01*
X192900000Y-43100000D02*
X207100000Y-43100000D01*
%TO.C,K8*%
X112100000Y-66100000D02*
X112100000Y-51900000D01*
X97900000Y-51900000D02*
X97900000Y-66100000D01*
X97900000Y-66100000D02*
X112100000Y-66100000D01*
X112100000Y-51900000D02*
X97900000Y-51900000D01*
%TO.C,K18*%
X154900000Y-78100000D02*
X169100000Y-78100000D01*
X169100000Y-78100000D02*
X169100000Y-63900000D01*
X154900000Y-63900000D02*
X154900000Y-78100000D01*
X169100000Y-63900000D02*
X154900000Y-63900000D01*
%TO.C,R42*%
X255754136Y-127887400D02*
X256208264Y-127887400D01*
X255754136Y-126417400D02*
X256208264Y-126417400D01*
%TO.C,K15*%
X97900000Y-85100000D02*
X112100000Y-85100000D01*
X112100000Y-85100000D02*
X112100000Y-70900000D01*
X112100000Y-70900000D02*
X97900000Y-70900000D01*
X97900000Y-70900000D02*
X97900000Y-85100000D01*
%TO.C,K21*%
X226100000Y-70900000D02*
X211900000Y-70900000D01*
X211900000Y-85100000D02*
X226100000Y-85100000D01*
X226100000Y-85100000D02*
X226100000Y-70900000D01*
X211900000Y-70900000D02*
X211900000Y-85100000D01*
%TO.C,K19*%
X188100000Y-64900000D02*
X173900000Y-64900000D01*
X188100000Y-79100000D02*
X188100000Y-64900000D01*
X173900000Y-79100000D02*
X188100000Y-79100000D01*
X173900000Y-64900000D02*
X173900000Y-79100000D01*
%TO.C,K25*%
X169100000Y-97100000D02*
X169100000Y-82900000D01*
X169100000Y-82900000D02*
X154900000Y-82900000D01*
X154900000Y-82900000D02*
X154900000Y-97100000D01*
X154900000Y-97100000D02*
X169100000Y-97100000D01*
%TO.C,K10*%
X135900000Y-45900000D02*
X135900000Y-60100000D01*
X135900000Y-60100000D02*
X150100000Y-60100000D01*
X150100000Y-45900000D02*
X135900000Y-45900000D01*
X150100000Y-60100000D02*
X150100000Y-45900000D01*
%TO.C,K31*%
X135900000Y-102900000D02*
X135900000Y-117100000D01*
X150100000Y-102900000D02*
X135900000Y-102900000D01*
X150100000Y-117100000D02*
X150100000Y-102900000D01*
X135900000Y-117100000D02*
X150100000Y-117100000D01*
%TO.C,K23*%
X131100000Y-85900000D02*
X116900000Y-85900000D01*
X116900000Y-85900000D02*
X116900000Y-100100000D01*
X131100000Y-100100000D02*
X131100000Y-85900000D01*
X116900000Y-100100000D02*
X131100000Y-100100000D01*
%TO.C,K29*%
X112100000Y-108900000D02*
X97900000Y-108900000D01*
X97900000Y-123100000D02*
X112100000Y-123100000D01*
X112100000Y-123100000D02*
X112100000Y-108900000D01*
X97900000Y-108900000D02*
X97900000Y-123100000D01*
%TO.C,K24*%
X150100000Y-83900000D02*
X135900000Y-83900000D01*
X135900000Y-83900000D02*
X135900000Y-98100000D01*
X150100000Y-98100000D02*
X150100000Y-83900000D01*
X135900000Y-98100000D02*
X150100000Y-98100000D01*
%TO.C,K36*%
X202524055Y-137960236D02*
X212564971Y-148001152D01*
X212564971Y-127919320D02*
X202524055Y-137960236D01*
X222605887Y-137960236D02*
X212564971Y-127919320D01*
X212564971Y-148001152D02*
X222605887Y-137960236D01*
%TO.C,K35*%
X211900000Y-108900000D02*
X211900000Y-123100000D01*
X226100000Y-108900000D02*
X211900000Y-108900000D01*
X211900000Y-123100000D02*
X226100000Y-123100000D01*
X226100000Y-123100000D02*
X226100000Y-108900000D01*
%TO.C,K27*%
X192900000Y-100100000D02*
X207100000Y-100100000D01*
X207100000Y-100100000D02*
X207100000Y-85900000D01*
X207100000Y-85900000D02*
X192900000Y-85900000D01*
X192900000Y-85900000D02*
X192900000Y-100100000D01*
%TO.C,K3*%
X150100000Y-26900000D02*
X135900000Y-26900000D01*
X135900000Y-41100000D02*
X150100000Y-41100000D01*
X150100000Y-41100000D02*
X150100000Y-26900000D01*
X135900000Y-26900000D02*
X135900000Y-41100000D01*
%TD*%
M02*
