%TF.GenerationSoftware,KiCad,Pcbnew,(6.0.7-1)-1*%
%TF.CreationDate,2022-10-21T17:23:08-04:00*%
%TF.ProjectId,Splitboard-A,53706c69-7462-46f6-9172-642d412e6b69,rev?*%
%TF.SameCoordinates,Original*%
%TF.FileFunction,Copper,L1,Top*%
%TF.FilePolarity,Positive*%
%FSLAX46Y46*%
G04 Gerber Fmt 4.6, Leading zero omitted, Abs format (unit mm)*
G04 Created by KiCad (PCBNEW (6.0.7-1)-1) date 2022-10-21 17:23:08*
%MOMM*%
%LPD*%
G01*
G04 APERTURE LIST*
G04 Aperture macros list*
%AMRoundRect*
0 Rectangle with rounded corners*
0 $1 Rounding radius*
0 $2 $3 $4 $5 $6 $7 $8 $9 X,Y pos of 4 corners*
0 Add a 4 corners polygon primitive as box body*
4,1,4,$2,$3,$4,$5,$6,$7,$8,$9,$2,$3,0*
0 Add four circle primitives for the rounded corners*
1,1,$1+$1,$2,$3*
1,1,$1+$1,$4,$5*
1,1,$1+$1,$6,$7*
1,1,$1+$1,$8,$9*
0 Add four rect primitives between the rounded corners*
20,1,$1+$1,$2,$3,$4,$5,0*
20,1,$1+$1,$4,$5,$6,$7,0*
20,1,$1+$1,$6,$7,$8,$9,0*
20,1,$1+$1,$8,$9,$2,$3,0*%
%AMHorizOval*
0 Thick line with rounded ends*
0 $1 width*
0 $2 $3 position (X,Y) of the first rounded end (center of the circle)*
0 $4 $5 position (X,Y) of the second rounded end (center of the circle)*
0 Add line between two ends*
20,1,$1,$2,$3,$4,$5,0*
0 Add two circle primitives to create the rounded ends*
1,1,$1,$2,$3*
1,1,$1,$4,$5*%
G04 Aperture macros list end*
%TA.AperFunction,ComponentPad*%
%ADD10C,3.600000*%
%TD*%
%TA.AperFunction,ComponentPad*%
%ADD11C,4.000000*%
%TD*%
%TA.AperFunction,ComponentPad*%
%ADD12R,1.500000X1.500000*%
%TD*%
%TA.AperFunction,ComponentPad*%
%ADD13C,1.500000*%
%TD*%
%TA.AperFunction,ComponentPad*%
%ADD14R,2.000000X2.000000*%
%TD*%
%TA.AperFunction,ComponentPad*%
%ADD15C,2.000000*%
%TD*%
%TA.AperFunction,ComponentPad*%
%ADD16R,3.200000X2.000000*%
%TD*%
%TA.AperFunction,SMDPad,CuDef*%
%ADD17RoundRect,0.250000X-0.262500X-0.450000X0.262500X-0.450000X0.262500X0.450000X-0.262500X0.450000X0*%
%TD*%
%TA.AperFunction,ComponentPad*%
%ADD18R,1.700000X1.700000*%
%TD*%
%TA.AperFunction,ComponentPad*%
%ADD19O,1.700000X1.700000*%
%TD*%
%TA.AperFunction,ComponentPad*%
%ADD20C,0.650000*%
%TD*%
%TA.AperFunction,ComponentPad*%
%ADD21HorizOval,0.800000X-0.102606X-0.281908X0.102606X0.281908X0*%
%TD*%
%TA.AperFunction,ViaPad*%
%ADD22C,0.800000*%
%TD*%
%TA.AperFunction,ViaPad*%
%ADD23C,1.500000*%
%TD*%
%TA.AperFunction,Conductor*%
%ADD24C,0.250000*%
%TD*%
%TA.AperFunction,Conductor*%
%ADD25C,1.250000*%
%TD*%
%TA.AperFunction,Conductor*%
%ADD26C,0.200000*%
%TD*%
G04 APERTURE END LIST*
D10*
%TO.P,K28,1*%
%TO.N,/col3*%
X215190000Y-94460000D03*
%TO.P,K28,2*%
%TO.N,Net-(D28-Pad2)*%
X221540000Y-91920000D03*
%TD*%
%TO.P,K11,1*%
%TO.N,/col1*%
X158190000Y-49460000D03*
%TO.P,K11,2*%
%TO.N,Net-(D11-Pad2)*%
X164540000Y-46920000D03*
%TD*%
%TO.P,K33,1*%
%TO.N,/col4*%
X177190000Y-107460000D03*
%TO.P,K33,2*%
%TO.N,Net-(D33-Pad2)*%
X183540000Y-104920000D03*
%TD*%
%TO.P,K20,1*%
%TO.N,/col2*%
X196190000Y-71460000D03*
%TO.P,K20,2*%
%TO.N,Net-(D20-Pad2)*%
X202540000Y-68920000D03*
%TD*%
%TO.P,K13,1*%
%TO.N,/col1*%
X196190000Y-52460000D03*
%TO.P,K13,2*%
%TO.N,Net-(D13-Pad2)*%
X202540000Y-49920000D03*
%TD*%
%TO.P,K7,1*%
%TO.N,/col0*%
X215190000Y-37460000D03*
%TO.P,K7,2*%
%TO.N,Net-(D7-Pad2)*%
X221540000Y-34920000D03*
%TD*%
%TO.P,K17,1*%
%TO.N,/col2*%
X139190000Y-69460000D03*
%TO.P,K17,2*%
%TO.N,Net-(D17-Pad2)*%
X145540000Y-66920000D03*
%TD*%
%TO.P,K16,1*%
%TO.N,/col2*%
X120190000Y-71460000D03*
%TO.P,K16,2*%
%TO.N,Net-(D16-Pad2)*%
X126540000Y-68920000D03*
%TD*%
%TO.P,K37,1*%
%TO.N,/col5*%
X225101974Y-146905137D03*
%TO.P,K37,2*%
%TO.N,Net-(D37-Pad2)*%
X231388154Y-149599214D03*
%TD*%
D11*
%TO.P,U2,*%
%TO.N,*%
X270610000Y-61100000D03*
X270610000Y-122300000D03*
X236510000Y-61100000D03*
X236510000Y-122300000D03*
D12*
%TO.P,U2,1,VCC*%
%TO.N,VBUS*%
X243400000Y-123800000D03*
D13*
%TO.P,U2,2,GND*%
%TO.N,GND*%
X245940000Y-123800000D03*
%TO.P,U2,3,~{CS}*%
%TO.N,Net-(U2-Pad3)*%
X248480000Y-123800000D03*
%TO.P,U2,4,RESET*%
%TO.N,Net-(U2-Pad4)*%
X251020000Y-123800000D03*
%TO.P,U2,5,D/~{C}*%
%TO.N,Net-(U2-Pad5)*%
X253560000Y-123800000D03*
%TO.P,U2,6,MOSI*%
%TO.N,Net-(U2-Pad6)*%
X256100000Y-123800000D03*
%TO.P,U2,7,SCK*%
%TO.N,Net-(U2-Pad7)*%
X258640000Y-123800000D03*
%TO.P,U2,8,LED*%
%TO.N,+3.3V*%
X261180000Y-123800000D03*
%TO.P,U2,9,MISO*%
%TO.N,unconnected-(U2-Pad9)*%
X263720000Y-123800000D03*
%TO.P,U2,10,SD_CS*%
%TO.N,unconnected-(U2-Pad10)*%
X248480000Y-60280000D03*
%TO.P,U2,11,SD_MOSI*%
%TO.N,unconnected-(U2-Pad11)*%
X251020000Y-60280000D03*
%TO.P,U2,12,SD_MISO*%
%TO.N,unconnected-(U2-Pad12)*%
X253560000Y-60280000D03*
%TO.P,U2,13,SD_SCK*%
%TO.N,unconnected-(U2-Pad13)*%
X256100000Y-60280000D03*
%TO.P,U2,14,FLASH_CD*%
%TO.N,unconnected-(U2-Pad14)*%
X258640000Y-60280000D03*
%TD*%
D10*
%TO.P,K2,1*%
%TO.N,/col0*%
X120190000Y-33460000D03*
%TO.P,K2,2*%
%TO.N,Net-(D2-Pad2)*%
X126540000Y-30920000D03*
%TD*%
%TO.P,K38,1*%
%TO.N,/col5*%
X238537003Y-160340166D03*
%TO.P,K38,2*%
%TO.N,Net-(D38-Pad2)*%
X244823183Y-163034243D03*
%TD*%
%TO.P,K5,1*%
%TO.N,/col0*%
X177190000Y-31460000D03*
%TO.P,K5,2*%
%TO.N,Net-(D5-Pad2)*%
X183540000Y-28920000D03*
%TD*%
%TO.P,K9,1*%
%TO.N,/col1*%
X120190000Y-52460000D03*
%TO.P,K9,2*%
%TO.N,Net-(D9-Pad2)*%
X126540000Y-49920000D03*
%TD*%
%TO.P,K32,1*%
%TO.N,/col4*%
X158190000Y-106460000D03*
%TO.P,K32,2*%
%TO.N,Net-(D32-Pad2)*%
X164540000Y-103920000D03*
%TD*%
%TO.P,K1,1*%
%TO.N,/col0*%
X101190000Y-37460000D03*
%TO.P,K1,2*%
%TO.N,Net-(D1-Pad2)*%
X107540000Y-34920000D03*
%TD*%
%TO.P,K26,1*%
%TO.N,/col3*%
X177190000Y-88460000D03*
%TO.P,K26,2*%
%TO.N,Net-(D26-Pad2)*%
X183540000Y-85920000D03*
%TD*%
D14*
%TO.P,SW1,A,A*%
%TO.N,Net-(R11-Pad2)*%
X245175000Y-137475000D03*
D15*
%TO.P,SW1,B,B*%
%TO.N,Net-(R13-Pad2)*%
X245175000Y-142475000D03*
%TO.P,SW1,C,C*%
%TO.N,GND*%
X245175000Y-139975000D03*
D16*
%TO.P,SW1,MP*%
%TO.N,N/C*%
X252675000Y-145575000D03*
X252675000Y-134375000D03*
D15*
%TO.P,SW1,S1,S1*%
%TO.N,/ENC_SW*%
X259675000Y-142475000D03*
%TO.P,SW1,S2,S2*%
%TO.N,GND*%
X259675000Y-137475000D03*
%TD*%
D10*
%TO.P,K4,1*%
%TO.N,/col0*%
X158190000Y-30460000D03*
%TO.P,K4,2*%
%TO.N,Net-(D4-Pad2)*%
X164540000Y-27920000D03*
%TD*%
%TO.P,K34,1*%
%TO.N,/col4*%
X196190000Y-109460000D03*
%TO.P,K34,2*%
%TO.N,Net-(D34-Pad2)*%
X202540000Y-106920000D03*
%TD*%
%TO.P,K30,1*%
%TO.N,/col4*%
X120190000Y-109460000D03*
%TO.P,K30,2*%
%TO.N,Net-(D30-Pad2)*%
X126540000Y-106920000D03*
%TD*%
%TO.P,K14,1*%
%TO.N,/col1*%
X215190000Y-56460000D03*
%TO.P,K14,2*%
%TO.N,Net-(D14-Pad2)*%
X221540000Y-53920000D03*
%TD*%
%TO.P,K12,1*%
%TO.N,/col1*%
X177190000Y-50460000D03*
%TO.P,K12,2*%
%TO.N,Net-(D12-Pad2)*%
X183540000Y-47920000D03*
%TD*%
%TO.P,K22,1*%
%TO.N,/col3*%
X101190000Y-94460000D03*
%TO.P,K22,2*%
%TO.N,Net-(D22-Pad2)*%
X107540000Y-91920000D03*
%TD*%
%TO.P,K6,1*%
%TO.N,/col0*%
X196190000Y-33460000D03*
%TO.P,K6,2*%
%TO.N,Net-(D6-Pad2)*%
X202540000Y-30920000D03*
%TD*%
%TO.P,K8,1*%
%TO.N,/col1*%
X101190000Y-56460000D03*
%TO.P,K8,2*%
%TO.N,Net-(D8-Pad2)*%
X107540000Y-53920000D03*
%TD*%
%TO.P,K18,1*%
%TO.N,/col2*%
X158190000Y-68460000D03*
%TO.P,K18,2*%
%TO.N,Net-(D18-Pad2)*%
X164540000Y-65920000D03*
%TD*%
D17*
%TO.P,R42,1*%
%TO.N,/SCK*%
X255068700Y-127152400D03*
%TO.P,R42,2*%
%TO.N,Net-(U2-Pad7)*%
X256893700Y-127152400D03*
%TD*%
D10*
%TO.P,K15,1*%
%TO.N,/col2*%
X101190000Y-75460000D03*
%TO.P,K15,2*%
%TO.N,Net-(D15-Pad2)*%
X107540000Y-72920000D03*
%TD*%
%TO.P,K21,1*%
%TO.N,/col2*%
X215190000Y-75460000D03*
%TO.P,K21,2*%
%TO.N,Net-(D21-Pad2)*%
X221540000Y-72920000D03*
%TD*%
%TO.P,K19,1*%
%TO.N,/col2*%
X177190000Y-69460000D03*
%TO.P,K19,2*%
%TO.N,Net-(D19-Pad2)*%
X183540000Y-66920000D03*
%TD*%
%TO.P,K25,1*%
%TO.N,/col3*%
X158190000Y-87460000D03*
%TO.P,K25,2*%
%TO.N,Net-(D25-Pad2)*%
X164540000Y-84920000D03*
%TD*%
%TO.P,K10,1*%
%TO.N,/col1*%
X139190000Y-50460000D03*
%TO.P,K10,2*%
%TO.N,Net-(D10-Pad2)*%
X145540000Y-47920000D03*
%TD*%
%TO.P,K31,1*%
%TO.N,/col4*%
X139190000Y-107460000D03*
%TO.P,K31,2*%
%TO.N,Net-(D31-Pad2)*%
X145540000Y-104920000D03*
%TD*%
%TO.P,K23,1*%
%TO.N,/col3*%
X120190000Y-90460000D03*
%TO.P,K23,2*%
%TO.N,Net-(D23-Pad2)*%
X126540000Y-87920000D03*
%TD*%
%TO.P,K29,1*%
%TO.N,/col4*%
X101190000Y-113460000D03*
%TO.P,K29,2*%
%TO.N,Net-(D29-Pad2)*%
X107540000Y-110920000D03*
%TD*%
%TO.P,K24,1*%
%TO.N,/col3*%
X139190000Y-88460000D03*
%TO.P,K24,2*%
%TO.N,Net-(D24-Pad2)*%
X145540000Y-85920000D03*
%TD*%
%TO.P,K36,1*%
%TO.N,/col5*%
X211666945Y-133470108D03*
%TO.P,K36,2*%
%TO.N,Net-(D36-Pad2)*%
X217953125Y-136164185D03*
%TD*%
%TO.P,K35,1*%
%TO.N,/col4*%
X215190000Y-113460000D03*
%TO.P,K35,2*%
%TO.N,Net-(D35-Pad2)*%
X221540000Y-110920000D03*
%TD*%
%TO.P,K27,1*%
%TO.N,/col3*%
X196190000Y-90460000D03*
%TO.P,K27,2*%
%TO.N,Net-(D27-Pad2)*%
X202540000Y-87920000D03*
%TD*%
%TO.P,K3,1*%
%TO.N,/col0*%
X139190000Y-31460000D03*
%TO.P,K3,2*%
%TO.N,Net-(D3-Pad2)*%
X145540000Y-28920000D03*
%TD*%
D15*
%TO.P,SW2,1,1*%
%TO.N,GND*%
X234000000Y-108500000D03*
X240500000Y-108500000D03*
%TO.P,SW2,2,2*%
%TO.N,/NRST*%
X234000000Y-113000000D03*
X240500000Y-113000000D03*
%TD*%
D18*
%TO.P,J3,1,Pin_1*%
%TO.N,Net-(D41-Pad2)*%
X262625000Y-103650000D03*
D19*
%TO.P,J3,2,Pin_2*%
%TO.N,/SWCLK*%
X262625000Y-106190000D03*
%TO.P,J3,3,Pin_3*%
%TO.N,GND*%
X262625000Y-108730000D03*
%TO.P,J3,4,Pin_4*%
%TO.N,/SWDIO*%
X262625000Y-111270000D03*
%TO.P,J3,5,Pin_5*%
%TO.N,/NRST*%
X262625000Y-113810000D03*
%TO.P,J3,6,Pin_6*%
%TO.N,/SWO*%
X262625000Y-116350000D03*
%TD*%
D20*
%TO.P,J2,B1,GND*%
%TO.N,GND*%
X253562245Y-48643916D03*
%TO.P,J2,B2,TX2+*%
%TO.N,Net-(J2-PadA2)*%
X253425782Y-47849323D03*
%TO.P,J2,B3,TX2-*%
%TO.N,Net-(J2-PadA3)*%
X252674028Y-47575707D03*
%TO.P,J2,B4,VBUS*%
%TO.N,VBUS*%
X252058736Y-48096684D03*
%TO.P,J2,B5,CC2*%
%TO.N,Net-(J2-PadA5)*%
X251922273Y-47302091D03*
%TO.P,J2,B6,D+*%
%TO.N,Net-(J2-PadA6)*%
X251306982Y-47823068D03*
%TO.P,J2,B7,D-*%
%TO.N,Net-(J2-PadA7)*%
X250555228Y-47549452D03*
%TO.P,J2,B8,SBU2*%
%TO.N,Net-(J2-PadA8)*%
X250418765Y-46754859D03*
%TO.P,J2,B9,VBUS*%
%TO.N,VBUS*%
X249803474Y-47275835D03*
%TO.P,J2,B10,RX1-*%
%TO.N,Net-(J2-PadA10)*%
X249667011Y-46481243D03*
%TO.P,J2,B11,RX1+*%
%TO.N,Net-(J2-PadA11)*%
X248915257Y-46207626D03*
%TO.P,J2,B12,GND*%
%TO.N,GND*%
X248299966Y-46728603D03*
D21*
%TO.P,J2,S1,SHIELD*%
X247255387Y-45709901D03*
X257390557Y-43066943D03*
X255017248Y-48534987D03*
X248952117Y-39995603D03*
%TD*%
D20*
%TO.P,J1,B1,GND*%
%TO.N,GND*%
X237562245Y-42943916D03*
%TO.P,J1,B2*%
%TO.N,N/C*%
X237425782Y-42149323D03*
%TO.P,J1,B3*%
X236674028Y-41875707D03*
%TO.P,J1,B4,VBUS*%
%TO.N,VBUS*%
X236058736Y-42396684D03*
%TO.P,J1,B5,CC2*%
%TO.N,Net-(J1-PadB5)*%
X235922273Y-41602091D03*
%TO.P,J1,B6,D+*%
%TO.N,/USB_CONN_D+*%
X235306982Y-42123068D03*
%TO.P,J1,B7,D-*%
%TO.N,/USB_CONN_D-*%
X234555228Y-41849452D03*
%TO.P,J1,B8,SBU2*%
%TO.N,unconnected-(J1-PadB8)*%
X234418765Y-41054859D03*
%TO.P,J1,B9,VBUS*%
%TO.N,VBUS*%
X233803474Y-41575835D03*
%TO.P,J1,B10*%
%TO.N,N/C*%
X233667011Y-40781243D03*
%TO.P,J1,B11*%
X232915257Y-40507626D03*
%TO.P,J1,B12,GND*%
%TO.N,GND*%
X232299966Y-41028603D03*
D21*
%TO.P,J1,S1,SHIELD*%
X241390557Y-37366943D03*
X232952117Y-34295603D03*
X231255387Y-40009901D03*
X239017248Y-42834987D03*
%TD*%
D22*
%TO.N,/row0*%
X113500000Y-57700000D03*
X246200000Y-71800000D03*
%TO.N,/row1*%
X132500000Y-58700000D03*
X244700000Y-70923500D03*
%TO.N,/row2*%
X151500000Y-60700000D03*
X243000000Y-70199000D03*
%TO.N,/row3*%
X170500000Y-61600000D03*
X241700000Y-69474500D03*
%TO.N,/col2*%
X239200000Y-88600000D03*
%TO.N,/col3*%
X241500000Y-89500000D03*
%TO.N,GND*%
X232664000Y-49174400D03*
X243550000Y-132450000D03*
X267200000Y-50600000D03*
X267200000Y-55500000D03*
X229637101Y-48738301D03*
%TO.N,/row4*%
X189500000Y-62585500D03*
X240410199Y-69024500D03*
%TO.N,/row5*%
X239074549Y-69074549D03*
X208500000Y-63800000D03*
%TO.N,/row6*%
X227000000Y-69800000D03*
X237400000Y-69724500D03*
%TO.N,/col4*%
X243500000Y-88500000D03*
%TO.N,/col5*%
X246000000Y-87500497D03*
%TO.N,/NRST*%
X268775500Y-88549003D03*
X253600000Y-113700000D03*
X270500000Y-90000000D03*
X247000000Y-113000000D03*
%TO.N,+3.3V*%
X263387701Y-91912299D03*
X253400000Y-99500000D03*
X264107641Y-81607642D03*
X258546600Y-107823000D03*
X255775500Y-99500000D03*
X237800000Y-73200000D03*
X235762300Y-72237700D03*
X264500000Y-90800000D03*
X262500000Y-80775500D03*
X256794000Y-121894600D03*
D23*
%TO.N,VBUS*%
X239400000Y-47500000D03*
X258000000Y-50000000D03*
X247000000Y-49000000D03*
D22*
%TO.N,/SWDIO*%
X254000000Y-111000000D03*
X259700000Y-88700000D03*
%TO.N,/USB_CONN_D-*%
X230200000Y-44100000D03*
X235000500Y-40081200D03*
%TO.N,/USB_CONN_D+*%
X234145477Y-46000000D03*
%TO.N,Net-(J1-PadB5)*%
X227524500Y-45700000D03*
%TO.N,/SWCLK*%
X254775500Y-77724500D03*
%TO.N,/SWO*%
X260000000Y-77000000D03*
%TO.N,/LCD2_RST*%
X249912299Y-84612299D03*
X268100000Y-68000000D03*
%TO.N,/RCC_OSC_IN*%
X268775500Y-87549500D03*
X270000000Y-79000000D03*
%TO.N,/LCD1_RST*%
X250850400Y-114579400D03*
X255015021Y-87988378D03*
%TO.N,unconnected-(U3-Pad32)*%
X261724500Y-97586800D03*
%TO.N,unconnected-(U3-Pad33)*%
X260275500Y-98552000D03*
%TO.N,unconnected-(U3-Pad34)*%
X260275000Y-97510600D03*
%TO.N,unconnected-(U3-Pad35)*%
X260223000Y-96367600D03*
%TO.N,unconnected-(U3-Pad39)*%
X259323041Y-98864872D03*
%TO.N,unconnected-(U3-Pad40)*%
X258749800Y-99775500D03*
%TO.N,unconnected-(U3-Pad41)*%
X258262572Y-97875437D03*
%TO.N,unconnected-(U3-Pad42)*%
X257844284Y-98783201D03*
%TO.N,unconnected-(U3-Pad43)*%
X257724500Y-99775500D03*
%TO.N,/USB_D-*%
X233100000Y-44800000D03*
X254800000Y-83300000D03*
%TO.N,/USB_D+*%
X236600000Y-47900000D03*
X253700000Y-83224500D03*
%TO.N,/SCL*%
X256800000Y-91200000D03*
X268100000Y-71200000D03*
%TO.N,/SDA*%
X268112299Y-72212299D03*
X255900000Y-92600000D03*
%TO.N,/LCD1_DC*%
X254889000Y-115392200D03*
X258375500Y-86500000D03*
%TO.N,/LCD1_CS*%
X253400000Y-86236799D03*
X243281200Y-113724500D03*
%TO.N,/LCD2_DC*%
X249799386Y-85605403D03*
X268112299Y-70112299D03*
%TO.N,/LCD2_CS*%
X268100000Y-69100000D03*
X255200000Y-85074000D03*
%TO.N,/MOSI*%
X259156200Y-115112800D03*
X262700000Y-76100000D03*
X265292358Y-89492358D03*
%TO.N,/SCK*%
X246700000Y-66100000D03*
X253474895Y-92476237D03*
%TO.N,Net-(J2-PadA2)*%
X247875500Y-50400000D03*
%TO.N,Net-(J2-PadA3)*%
X248600000Y-51400000D03*
X260000000Y-51300000D03*
%TO.N,Net-(J2-PadA5)*%
X248800000Y-55500994D03*
%TO.N,Net-(J2-PadA7)*%
X251500000Y-46300000D03*
X248800000Y-57500000D03*
%TO.N,Net-(J2-PadA8)*%
X252026748Y-54387978D03*
X248512022Y-54387978D03*
%TO.N,Net-(J2-PadA10)*%
X252117952Y-53392645D03*
%TO.N,Net-(J2-PadA11)*%
X261400000Y-58300000D03*
X261400000Y-54800000D03*
X253031069Y-52986170D03*
%TO.N,Net-(R22-Pad1)*%
X249200000Y-88000000D03*
X231500000Y-140200000D03*
%TO.N,Net-(R36-Pad1)*%
X252630695Y-88581862D03*
X244000000Y-129700000D03*
%TO.N,Net-(R37-Pad1)*%
X264300000Y-144700000D03*
X254224500Y-88600000D03*
%TO.N,Net-(U2-Pad3)*%
X243763800Y-118389400D03*
%TO.N,Net-(U2-Pad6)*%
X257810000Y-119227600D03*
%TO.N,Net-(U2-Pad4)*%
X251180600Y-119126000D03*
%TO.N,Net-(U2-Pad5)*%
X253314200Y-119375500D03*
%TD*%
D24*
%TO.N,/row0*%
X113500000Y-57700000D02*
X150836396Y-57700000D01*
X214436396Y-65500000D02*
X208736396Y-59800000D01*
X214436396Y-65500000D02*
X240301805Y-65500000D01*
X246200000Y-71800000D02*
X246200000Y-71398195D01*
X152936396Y-59800000D02*
X208736396Y-59800000D01*
X150836396Y-57700000D02*
X152936396Y-59800000D01*
X246200000Y-71398195D02*
X240301805Y-65500000D01*
%TO.N,/row1*%
X244700000Y-70812799D02*
X240187201Y-66300000D01*
X152800000Y-60300000D02*
X151200000Y-58700000D01*
X151200000Y-58700000D02*
X132500000Y-58700000D01*
X244700000Y-70923500D02*
X244700000Y-70812799D01*
X214600000Y-66300000D02*
X208600000Y-60300000D01*
X208600000Y-60300000D02*
X152800000Y-60300000D01*
X240187201Y-66300000D02*
X214600000Y-66300000D01*
%TO.N,/row2*%
X243000000Y-69749195D02*
X240150805Y-66900000D01*
X240150805Y-66900000D02*
X214436396Y-66900000D01*
X182075000Y-60875000D02*
X151675000Y-60875000D01*
X151675000Y-60875000D02*
X151500000Y-60700000D01*
X208636396Y-61100000D02*
X182300000Y-61100000D01*
X214436396Y-66900000D02*
X208636396Y-61100000D01*
X182300000Y-61100000D02*
X182075000Y-60875000D01*
X243000000Y-70199000D02*
X243000000Y-69749195D01*
%TO.N,/row3*%
X241700000Y-69288996D02*
X239811004Y-67400000D01*
X214300000Y-67400000D02*
X208500000Y-61600000D01*
X241700000Y-69474500D02*
X241700000Y-69288996D01*
X239811004Y-67400000D02*
X214300000Y-67400000D01*
X208500000Y-61600000D02*
X170500000Y-61600000D01*
%TO.N,/col0*%
X132500000Y-26000000D02*
X130500000Y-28000000D01*
X130500000Y-28000000D02*
X120000000Y-28000000D01*
X120190000Y-33460000D02*
X120190000Y-28190000D01*
X158500000Y-25000000D02*
X154500000Y-25000000D01*
X177190000Y-31460000D02*
X177190000Y-26310000D01*
X120190000Y-28190000D02*
X120000000Y-28000000D01*
X196190000Y-33460000D02*
X196190000Y-28310000D01*
X158190000Y-25310000D02*
X158500000Y-25000000D01*
X188500000Y-26000000D02*
X177500000Y-26000000D01*
X114500000Y-32500000D02*
X106150000Y-32500000D01*
X120000000Y-28000000D02*
X119000000Y-28000000D01*
X153500000Y-26000000D02*
X139000000Y-26000000D01*
X177190000Y-26310000D02*
X177500000Y-26000000D01*
X169500000Y-25000000D02*
X158500000Y-25000000D01*
X196190000Y-28310000D02*
X196500000Y-28000000D01*
X158190000Y-30460000D02*
X158190000Y-25310000D01*
X139000000Y-26000000D02*
X132500000Y-26000000D01*
X154500000Y-25000000D02*
X153500000Y-26000000D01*
X139190000Y-26190000D02*
X139000000Y-26000000D01*
X215190000Y-37460000D02*
X215190000Y-34690000D01*
X119000000Y-28000000D02*
X114500000Y-32500000D01*
X196500000Y-28000000D02*
X190500000Y-28000000D01*
X190500000Y-28000000D02*
X188500000Y-26000000D01*
X106150000Y-32500000D02*
X101190000Y-37460000D01*
X215190000Y-34690000D02*
X208500000Y-28000000D01*
X177500000Y-26000000D02*
X170500000Y-26000000D01*
X139190000Y-31460000D02*
X139190000Y-26190000D01*
X208500000Y-28000000D02*
X196500000Y-28000000D01*
X170500000Y-26000000D02*
X169500000Y-25000000D01*
%TO.N,/col1*%
X158000000Y-49770000D02*
X158000000Y-45120000D01*
X138810000Y-44810000D02*
X158310000Y-44810000D01*
X139000000Y-50770000D02*
X139000000Y-45000000D01*
X108460000Y-49310000D02*
X113310000Y-49310000D01*
X158310000Y-44810000D02*
X158593800Y-44526200D01*
X120000000Y-52770000D02*
X120000000Y-45000000D01*
X206310000Y-44810000D02*
X215000000Y-53500000D01*
X117810000Y-44810000D02*
X119810000Y-44810000D01*
X196000000Y-52770000D02*
X196000000Y-45000000D01*
X113310000Y-49310000D02*
X117810000Y-44810000D01*
X101000000Y-56770000D02*
X108460000Y-49310000D01*
X158593800Y-44526200D02*
X176526200Y-44526200D01*
X120000000Y-45000000D02*
X119810000Y-44810000D01*
X215000000Y-53500000D02*
X215000000Y-56770000D01*
X177000000Y-50770000D02*
X177000000Y-45000000D01*
X119810000Y-44810000D02*
X138810000Y-44810000D01*
X158000000Y-45120000D02*
X158310000Y-44810000D01*
X176810000Y-44810000D02*
X206310000Y-44810000D01*
X177000000Y-45000000D02*
X176810000Y-44810000D01*
X139000000Y-45000000D02*
X138810000Y-44810000D01*
X176526200Y-44526200D02*
X176810000Y-44810000D01*
%TO.N,/col2*%
X215500000Y-72000000D02*
X215500000Y-75270000D01*
X139500000Y-69270000D02*
X139500000Y-63500000D01*
X239200000Y-88600000D02*
X238600000Y-88000000D01*
X120500000Y-63500000D02*
X120310000Y-63310000D01*
X177310000Y-63310000D02*
X206810000Y-63310000D01*
X113810000Y-67810000D02*
X118310000Y-63310000D01*
X222989590Y-88000000D02*
X215190000Y-80200410D01*
X158500000Y-63620000D02*
X158810000Y-63310000D01*
X139500000Y-63500000D02*
X139310000Y-63310000D01*
X108960000Y-67810000D02*
X113810000Y-67810000D01*
X101500000Y-75270000D02*
X108960000Y-67810000D01*
X206810000Y-63310000D02*
X215500000Y-72000000D01*
X139310000Y-63310000D02*
X158810000Y-63310000D01*
X196500000Y-71270000D02*
X196500000Y-63500000D01*
X177500000Y-69270000D02*
X177500000Y-63500000D01*
X118310000Y-63310000D02*
X120310000Y-63310000D01*
X120310000Y-63310000D02*
X139310000Y-63310000D01*
X215190000Y-80200410D02*
X215190000Y-75460000D01*
X177500000Y-63500000D02*
X177310000Y-63310000D01*
X120500000Y-71270000D02*
X120500000Y-63500000D01*
X238600000Y-88000000D02*
X222989590Y-88000000D01*
X158500000Y-68270000D02*
X158500000Y-63620000D01*
X158810000Y-63310000D02*
X177310000Y-63310000D01*
%TO.N,/col3*%
X139000000Y-82500000D02*
X138810000Y-82310000D01*
X177000000Y-88270000D02*
X177000000Y-82500000D01*
X158000000Y-82620000D02*
X158310000Y-82310000D01*
X101000000Y-94270000D02*
X108460000Y-86810000D01*
X215000000Y-91000000D02*
X215000000Y-94270000D01*
X117810000Y-82310000D02*
X119810000Y-82310000D01*
X158310000Y-82310000D02*
X176810000Y-82310000D01*
X120000000Y-90270000D02*
X120000000Y-82500000D01*
X138810000Y-82310000D02*
X158310000Y-82310000D01*
X177000000Y-82500000D02*
X176810000Y-82310000D01*
X119810000Y-82310000D02*
X138810000Y-82310000D01*
X158000000Y-87270000D02*
X158000000Y-82620000D01*
X120000000Y-82500000D02*
X119810000Y-82310000D01*
X108460000Y-86810000D02*
X113310000Y-86810000D01*
X241500000Y-89500000D02*
X216500000Y-89500000D01*
X176810000Y-82310000D02*
X206310000Y-82310000D01*
X206310000Y-82310000D02*
X215000000Y-91000000D01*
X196000000Y-90270000D02*
X196000000Y-82500000D01*
X113310000Y-86810000D02*
X117810000Y-82310000D01*
X216500000Y-89500000D02*
X215000000Y-91000000D01*
X139000000Y-88270000D02*
X139000000Y-82500000D01*
%TO.N,GND*%
X229637101Y-48738301D02*
X230073200Y-49174400D01*
X234000000Y-108500000D02*
X230200000Y-112300000D01*
X230073200Y-49174400D02*
X232664000Y-49174400D01*
X230200000Y-115800000D02*
X230960000Y-116560000D01*
X267200000Y-55500000D02*
X267200000Y-50600000D01*
X245940000Y-123800000D02*
X243100000Y-126640000D01*
X240500000Y-108500000D02*
X234000000Y-108500000D01*
X243100000Y-132000000D02*
X243550000Y-132450000D01*
X230960000Y-116560000D02*
X238700000Y-116560000D01*
X230200000Y-112300000D02*
X230200000Y-115800000D01*
X245940000Y-123800000D02*
X238700000Y-116560000D01*
X243100000Y-126640000D02*
X243100000Y-132000000D01*
%TO.N,/row4*%
X239599303Y-68213604D02*
X213938909Y-68213604D01*
X240410199Y-69024500D02*
X239599303Y-68213604D01*
X208310805Y-62585500D02*
X189500000Y-62585500D01*
X213938909Y-68213604D02*
X208310805Y-62585500D01*
%TO.N,/row5*%
X213136396Y-69000000D02*
X208500000Y-64363604D01*
X239074549Y-69074549D02*
X239000000Y-69000000D01*
X208500000Y-64363604D02*
X208500000Y-63800000D01*
X239000000Y-69000000D02*
X213136396Y-69000000D01*
%TO.N,/row6*%
X237324500Y-69800000D02*
X227000000Y-69800000D01*
X237400000Y-69724500D02*
X237324500Y-69800000D01*
%TO.N,/col4*%
X158190000Y-101810000D02*
X158500000Y-101500000D01*
X243500000Y-93025305D02*
X223065305Y-113460000D01*
X177000000Y-101500000D02*
X196000000Y-101500000D01*
X196000000Y-101500000D02*
X206500000Y-101500000D01*
X206500000Y-101500000D02*
X215190000Y-110190000D01*
X177190000Y-101690000D02*
X177000000Y-101500000D01*
X215190000Y-110190000D02*
X215190000Y-113460000D01*
X139190000Y-101690000D02*
X139000000Y-101500000D01*
X177190000Y-107460000D02*
X177190000Y-101690000D01*
X223065305Y-113460000D02*
X215190000Y-113460000D01*
X158190000Y-106460000D02*
X158190000Y-101810000D01*
X120000000Y-101500000D02*
X139000000Y-101500000D01*
X196190000Y-109460000D02*
X196190000Y-101690000D01*
X158500000Y-101500000D02*
X177000000Y-101500000D01*
X108650000Y-106000000D02*
X113500000Y-106000000D01*
X139190000Y-107460000D02*
X139190000Y-101690000D01*
X118000000Y-101500000D02*
X120000000Y-101500000D01*
X243500000Y-88500000D02*
X243500000Y-93025305D01*
X113500000Y-106000000D02*
X118000000Y-101500000D01*
X196190000Y-101690000D02*
X196000000Y-101500000D01*
X139000000Y-101500000D02*
X158500000Y-101500000D01*
X120190000Y-101690000D02*
X120000000Y-101500000D01*
X101190000Y-113460000D02*
X108650000Y-106000000D01*
X120190000Y-109460000D02*
X120190000Y-101690000D01*
%TO.N,/col5*%
X221375001Y-123762052D02*
X211666945Y-133470108D01*
X225101974Y-146905137D02*
X211666945Y-133470108D01*
X246000000Y-87500497D02*
X246000000Y-91600000D01*
X238537003Y-160340166D02*
X225101974Y-146905137D01*
X221375001Y-116224999D02*
X221375001Y-123762052D01*
X246000000Y-91600000D02*
X221375001Y-116224999D01*
%TO.N,/NRST*%
X269049003Y-88549003D02*
X270500000Y-90000000D01*
X234000000Y-113000000D02*
X240500000Y-113000000D01*
X253600000Y-113700000D02*
X247700000Y-113700000D01*
X268775500Y-88549003D02*
X269049003Y-88549003D01*
X247700000Y-113700000D02*
X247000000Y-113000000D01*
%TO.N,+3.3V*%
X264500000Y-90800000D02*
X263387701Y-91912299D01*
X262500000Y-80775500D02*
X263275499Y-80775500D01*
X235762300Y-72237700D02*
X236837700Y-72237700D01*
X257175000Y-114477800D02*
X256794000Y-114858800D01*
X253400000Y-99500000D02*
X255775500Y-99500000D01*
X258546600Y-107823000D02*
X258546600Y-113106200D01*
X258546600Y-113106200D02*
X257175000Y-114477800D01*
X256794000Y-114858800D02*
X256794000Y-121894600D01*
X263275499Y-80775500D02*
X264107641Y-81607642D01*
X236837700Y-72237700D02*
X237800000Y-73200000D01*
D25*
%TO.N,VBUS*%
X251918069Y-49279498D02*
X251918069Y-48918069D01*
X237300000Y-45400000D02*
X237300000Y-45000000D01*
X236194600Y-43891200D02*
X235915200Y-44170600D01*
X251918069Y-48918069D02*
X251863070Y-48973068D01*
X232714800Y-42485200D02*
X233100000Y-42100000D01*
X251863070Y-48973068D02*
X249973068Y-48973068D01*
X258000000Y-50000000D02*
X256500000Y-50000000D01*
D24*
X233803474Y-41575835D02*
X233320435Y-41575835D01*
D25*
X248500000Y-49000000D02*
X247000000Y-49000000D01*
X253438571Y-50800000D02*
X251918069Y-49279498D01*
X234383147Y-43874999D02*
X233993999Y-43874999D01*
X239400000Y-47500000D02*
X237300000Y-45400000D01*
X236058736Y-43758736D02*
X236058736Y-43218069D01*
X249250000Y-48250000D02*
X249250000Y-47631243D01*
X249973068Y-48973068D02*
X249250000Y-48250000D01*
D24*
X233320435Y-41575835D02*
X233222800Y-41478200D01*
D25*
X234678748Y-44170600D02*
X234383147Y-43874999D01*
X256500000Y-50000000D02*
X255700000Y-50800000D01*
X237300000Y-45000000D02*
X236058736Y-43758736D01*
X232714800Y-42595800D02*
X232714800Y-42485200D01*
X235915200Y-44170600D02*
X234678748Y-44170600D01*
X233993999Y-43874999D02*
X232714800Y-42595800D01*
X255700000Y-50800000D02*
X253438571Y-50800000D01*
X249250000Y-48250000D02*
X248500000Y-49000000D01*
D24*
%TO.N,/SWDIO*%
X259700000Y-88700000D02*
X258800000Y-89600000D01*
X258800000Y-93900000D02*
X256500000Y-96200000D01*
X256500000Y-96200000D02*
X256500000Y-108500000D01*
X256500000Y-108500000D02*
X254000000Y-111000000D01*
X258800000Y-89600000D02*
X258800000Y-93900000D01*
%TO.N,/USB_CONN_D-*%
X228600000Y-38400000D02*
X228600000Y-43298960D01*
X230100000Y-36900000D02*
X228600000Y-38400000D01*
X233200000Y-36900000D02*
X230100000Y-36900000D01*
X235200000Y-38900000D02*
X233200000Y-36900000D01*
X229401040Y-44100000D02*
X230200000Y-44100000D01*
X228600000Y-43298960D02*
X229401040Y-44100000D01*
D26*
X235200000Y-39881700D02*
X235200000Y-38900000D01*
X235000500Y-40081200D02*
X235200000Y-39881700D01*
%TO.N,/USB_CONN_D+*%
X229900000Y-36400000D02*
X228100000Y-38200000D01*
X235700500Y-38700500D02*
X233400000Y-36400000D01*
X233400000Y-36400000D02*
X229900000Y-36400000D01*
X235306982Y-42123068D02*
X235297273Y-42113359D01*
X228100000Y-38200000D02*
X228100000Y-43400000D01*
X228100000Y-43400000D02*
X230700000Y-46000000D01*
X235297273Y-41003927D02*
X235700500Y-40600700D01*
X230700000Y-46000000D02*
X234145477Y-46000000D01*
X235700500Y-40600700D02*
X235700500Y-38700500D01*
X235297273Y-42113359D02*
X235297273Y-41003927D01*
D24*
%TO.N,Net-(J1-PadB5)*%
X227524500Y-38174460D02*
X229723960Y-35975000D01*
X229723960Y-35975000D02*
X233576040Y-35975000D01*
X227524500Y-45700000D02*
X227524500Y-38174460D01*
X233576040Y-35975000D02*
X236125000Y-38523960D01*
X236125000Y-38523960D02*
X236125000Y-41399364D01*
X236125000Y-41399364D02*
X235922273Y-41602091D01*
%TO.N,/SWCLK*%
X261900000Y-84849000D02*
X254775500Y-77724500D01*
X262625000Y-106190000D02*
X261000000Y-104565000D01*
X261000000Y-104565000D02*
X261000000Y-94749805D01*
X261000000Y-94749805D02*
X261900000Y-93849805D01*
X261900000Y-93849805D02*
X261900000Y-84849000D01*
%TO.N,/SWO*%
X259500000Y-80500000D02*
X267500000Y-88500000D01*
X260000000Y-77000000D02*
X259500000Y-77500000D01*
X259500000Y-77500000D02*
X259500000Y-80500000D01*
X267500000Y-111475000D02*
X262625000Y-116350000D01*
X267500000Y-88500000D02*
X267500000Y-111475000D01*
%TO.N,/LCD2_RST*%
X254513006Y-84612299D02*
X249912299Y-84612299D01*
X264700000Y-71400000D02*
X254000000Y-71400000D01*
X254000000Y-71400000D02*
X250500000Y-74900000D01*
X250500000Y-74900000D02*
X250500000Y-77600000D01*
X255600000Y-82700000D02*
X255600000Y-83525305D01*
X255600000Y-83525305D02*
X254513006Y-84612299D01*
X250500000Y-77600000D02*
X255600000Y-82700000D01*
X268100000Y-68000000D02*
X264700000Y-71400000D01*
%TO.N,/RCC_OSC_IN*%
X268775500Y-80224500D02*
X270000000Y-79000000D01*
X268775500Y-87549500D02*
X268775500Y-80224500D01*
%TO.N,/LCD1_RST*%
X245000000Y-112945400D02*
X246481600Y-114427000D01*
X250063000Y-114427000D02*
X250698000Y-114427000D01*
X251400000Y-106800000D02*
X250300000Y-106800000D01*
X250698000Y-114427000D02*
X250850400Y-114579400D01*
X255300000Y-89336396D02*
X251700000Y-92936396D01*
X251700000Y-106500000D02*
X251400000Y-106800000D01*
X255015021Y-87988378D02*
X255015021Y-88015021D01*
X246481600Y-114427000D02*
X250063000Y-114427000D01*
X255015021Y-88015021D02*
X255300000Y-88300000D01*
X250300000Y-106800000D02*
X245000000Y-112100000D01*
X245000000Y-112100000D02*
X245000000Y-112945400D01*
X255300000Y-88300000D02*
X255300000Y-89336396D01*
X251700000Y-92936396D02*
X251700000Y-106500000D01*
D26*
%TO.N,/USB_D-*%
X247600000Y-65065686D02*
X247600000Y-78200000D01*
X234000000Y-44800000D02*
X235900000Y-46700000D01*
X235900000Y-46700000D02*
X235900000Y-53365686D01*
X235900000Y-53365686D02*
X247600000Y-65065686D01*
X253324500Y-83924500D02*
X254175500Y-83924500D01*
X254175500Y-83924500D02*
X254800000Y-83300000D01*
X247600000Y-78200000D02*
X253324500Y-83924500D01*
X233100000Y-44800000D02*
X234000000Y-44800000D01*
%TO.N,/USB_D+*%
X253700000Y-83224500D02*
X248000000Y-77524500D01*
X248000000Y-77524500D02*
X248000000Y-64900000D01*
X248000000Y-64900000D02*
X236600000Y-53500000D01*
X236600000Y-53500000D02*
X236600000Y-47900000D01*
D24*
%TO.N,/SCL*%
X257000000Y-91000000D02*
X256800000Y-91200000D01*
X257000000Y-82190812D02*
X257000000Y-91000000D01*
X251954594Y-75531802D02*
X251954594Y-77145406D01*
X251954594Y-77145406D02*
X257000000Y-82190812D01*
X265750000Y-73550000D02*
X253936396Y-73550000D01*
X253936396Y-73550000D02*
X251954594Y-75531802D01*
X268100000Y-71200000D02*
X265750000Y-73550000D01*
%TO.N,/SDA*%
X257600000Y-91425305D02*
X257600000Y-82154416D01*
X252404594Y-76959010D02*
X252404594Y-75718198D01*
X257600000Y-82154416D02*
X252404594Y-76959010D01*
X266224598Y-74100000D02*
X268112299Y-72212299D01*
X255900000Y-92600000D02*
X256425305Y-92600000D01*
X252404594Y-75718198D02*
X254022792Y-74100000D01*
X254022792Y-74100000D02*
X266224598Y-74100000D01*
X256425305Y-92600000D02*
X257600000Y-91425305D01*
%TO.N,/LCD1_DC*%
X261000000Y-94113409D02*
X261000000Y-86200000D01*
X255850000Y-111350000D02*
X257000000Y-110200000D01*
X257000000Y-110200000D02*
X257000000Y-98113409D01*
X255600200Y-115392200D02*
X254889000Y-115392200D01*
X261000000Y-86200000D02*
X258675500Y-86200000D01*
X255850000Y-115142400D02*
X255600200Y-115392200D01*
X257000000Y-98113409D02*
X261000000Y-94113409D01*
X258675500Y-86200000D02*
X258375500Y-86500000D01*
X255850000Y-115142400D02*
X255850000Y-111350000D01*
%TO.N,/LCD1_CS*%
X249250000Y-93750000D02*
X249250000Y-99486396D01*
X253500000Y-89500000D02*
X249250000Y-93750000D01*
X249250000Y-99486396D02*
X243200000Y-105536396D01*
X253500000Y-86336799D02*
X253500000Y-89500000D01*
X253400000Y-86236799D02*
X253500000Y-86336799D01*
X243200000Y-105536396D02*
X243200000Y-113643300D01*
X243200000Y-113643300D02*
X243281200Y-113724500D01*
%TO.N,/LCD2_DC*%
X256550000Y-82377208D02*
X256550000Y-84360396D01*
X254899695Y-85799000D02*
X254162994Y-85062299D01*
X256105198Y-84805198D02*
X256105198Y-85194107D01*
X255500305Y-85799000D02*
X254899695Y-85799000D01*
X250487604Y-85062299D02*
X249944500Y-85605403D01*
X251450000Y-77277208D02*
X256550000Y-82377208D01*
X265124598Y-73100000D02*
X253750000Y-73100000D01*
X254162994Y-85062299D02*
X250487604Y-85062299D01*
X253750000Y-73100000D02*
X251450000Y-75400000D01*
X268112299Y-70112299D02*
X265124598Y-73100000D01*
X256550000Y-84360396D02*
X256105198Y-84805198D01*
X251450000Y-75400000D02*
X251450000Y-77277208D01*
X256105198Y-85194107D02*
X255500305Y-85799000D01*
X249944500Y-85605403D02*
X249799386Y-85605403D01*
%TO.N,/LCD2_CS*%
X256100000Y-82563604D02*
X256100000Y-84174000D01*
X253900000Y-72200000D02*
X251000000Y-75100000D01*
X251000000Y-75100000D02*
X251000000Y-77463604D01*
X265000000Y-72200000D02*
X253900000Y-72200000D01*
X251000000Y-77463604D02*
X256100000Y-82563604D01*
X268100000Y-69100000D02*
X265000000Y-72200000D01*
X256100000Y-84174000D02*
X255200000Y-85074000D01*
%TO.N,/MOSI*%
X265292358Y-87392358D02*
X265292358Y-89492358D01*
X265292358Y-111007642D02*
X263700000Y-112600000D01*
X258200000Y-80300000D02*
X265292358Y-87392358D01*
X263700000Y-112600000D02*
X260900000Y-112600000D01*
X259105400Y-115062000D02*
X259105400Y-114394600D01*
X260900000Y-112600000D02*
X259216200Y-114283800D01*
X259105400Y-114394600D02*
X259216200Y-114283800D01*
X259216200Y-114283800D02*
X259100000Y-114400000D01*
X259156200Y-115112800D02*
X259105400Y-115062000D01*
X259000000Y-76100000D02*
X258200000Y-76900000D01*
X262700000Y-76100000D02*
X259000000Y-76100000D01*
X265292358Y-89492358D02*
X265292358Y-111007642D01*
X258200000Y-76900000D02*
X258200000Y-80300000D01*
%TO.N,/SCK*%
X254952400Y-127152400D02*
X255068700Y-127152400D01*
X247175000Y-85275000D02*
X247175000Y-66575000D01*
X250917795Y-85512299D02*
X250099691Y-86330403D01*
X252300000Y-116177800D02*
X252300000Y-124500000D01*
X253474895Y-92476237D02*
X253474895Y-92025105D01*
X255825500Y-89674500D02*
X255825500Y-87575305D01*
X253762494Y-85512299D02*
X250917795Y-85512299D01*
X254325000Y-113325000D02*
X254325000Y-114152800D01*
X252200000Y-111200000D02*
X254325000Y-113325000D01*
X253474895Y-92025105D02*
X255825500Y-89674500D01*
X248230403Y-86330403D02*
X247175000Y-85275000D01*
X252300000Y-124500000D02*
X254952400Y-127152400D01*
X254325000Y-114152800D02*
X252300000Y-116177800D01*
X253474895Y-92476237D02*
X253000000Y-92951132D01*
X253000000Y-92951132D02*
X253000000Y-97800000D01*
X253000000Y-97800000D02*
X252200000Y-98600000D01*
X252200000Y-98600000D02*
X252200000Y-111200000D01*
X255825500Y-87575305D02*
X253762494Y-85512299D01*
X250099691Y-86330403D02*
X248230403Y-86330403D01*
X247175000Y-66575000D02*
X246700000Y-66100000D01*
%TO.N,Net-(J2-PadA2)*%
X248700000Y-50400000D02*
X247875500Y-50400000D01*
X254425105Y-46850000D02*
X256513604Y-46850000D01*
X259300000Y-49636396D02*
X259300000Y-51063604D01*
X250067645Y-51767645D02*
X258567645Y-51767645D01*
X256513604Y-46850000D02*
X259300000Y-49636396D01*
X259300000Y-51063604D02*
X258581802Y-51781802D01*
X250067645Y-51767645D02*
X248700000Y-50400000D01*
X258581802Y-51781802D02*
X258567645Y-51767645D01*
X253425782Y-47849323D02*
X254425105Y-46850000D01*
%TO.N,Net-(J2-PadA3)*%
X251598896Y-52250000D02*
X249450000Y-52250000D01*
X251631251Y-52217645D02*
X251598896Y-52250000D01*
X252898940Y-52217645D02*
X251631251Y-52217645D01*
X258750000Y-52250000D02*
X252931295Y-52250000D01*
X259650000Y-51350000D02*
X259700000Y-51300000D01*
X253849735Y-46400000D02*
X256700000Y-46400000D01*
X259700000Y-51300000D02*
X260000000Y-51300000D01*
X256700000Y-46400000D02*
X260650000Y-50350000D01*
X259650000Y-51350000D02*
X258750000Y-52250000D01*
X249450000Y-52250000D02*
X248600000Y-51400000D01*
X260650000Y-50350000D02*
X259650000Y-51350000D01*
X252931295Y-52250000D02*
X252898940Y-52217645D01*
X252674028Y-47575707D02*
X253849735Y-46400000D01*
%TO.N,Net-(J2-PadA5)*%
X253300000Y-45924364D02*
X251922273Y-47302091D01*
X262500000Y-51500000D02*
X256900000Y-45900000D01*
X256900000Y-45900000D02*
X253300000Y-45900000D01*
X248800000Y-55500994D02*
X251899006Y-55500994D01*
X253300000Y-45900000D02*
X253300000Y-45924364D01*
X259000000Y-55000000D02*
X262500000Y-51500000D01*
X251899006Y-55500994D02*
X252364472Y-55035528D01*
X252414472Y-55000000D02*
X259000000Y-55000000D01*
%TO.N,Net-(J2-PadA7)*%
X251500000Y-46300000D02*
X251500000Y-45100000D01*
X248400000Y-57500000D02*
X248800000Y-57500000D01*
X243200000Y-45900000D02*
X243200000Y-58100000D01*
X249600000Y-43200000D02*
X245900000Y-43200000D01*
X243200000Y-58100000D02*
X243900000Y-58800000D01*
X251500000Y-45100000D02*
X249600000Y-43200000D01*
X243900000Y-58800000D02*
X247100000Y-58800000D01*
X245900000Y-43200000D02*
X243200000Y-45900000D01*
X247100000Y-58800000D02*
X248400000Y-57500000D01*
%TO.N,Net-(J2-PadA8)*%
X248512022Y-54387978D02*
X246912978Y-54387978D01*
X244600000Y-52075000D02*
X244600000Y-45627208D01*
X246912978Y-54387978D02*
X244600000Y-52075000D01*
X246577208Y-43650000D02*
X248086396Y-43650000D01*
X244600000Y-45627208D02*
X246577208Y-43650000D01*
X248086396Y-43650000D02*
X250418765Y-45982369D01*
X252026748Y-54387978D02*
X248512022Y-54387978D01*
X250418765Y-45982369D02*
X250418765Y-46754859D01*
%TO.N,Net-(J2-PadA10)*%
X251726443Y-53662978D02*
X251451443Y-53937978D01*
X245250000Y-49886396D02*
X245250000Y-45613604D01*
X249667011Y-45867011D02*
X249667011Y-46481243D01*
X251847619Y-53662978D02*
X251726443Y-53662978D01*
X247900000Y-44100000D02*
X249667011Y-45867011D01*
X249301582Y-53937978D02*
X245250000Y-49886396D01*
X246763604Y-44100000D02*
X247900000Y-44100000D01*
X251451443Y-53937978D02*
X249301582Y-53937978D01*
X252117952Y-53392645D02*
X251847619Y-53662978D01*
X245250000Y-45613604D02*
X246763604Y-44100000D01*
%TO.N,Net-(J2-PadA11)*%
X251485292Y-53000000D02*
X249000000Y-53000000D01*
X253031069Y-52986170D02*
X252712544Y-52667645D01*
X249000000Y-53000000D02*
X245700000Y-49700000D01*
X248915257Y-45815257D02*
X248915257Y-46207626D01*
X245700000Y-49700000D02*
X245700000Y-45800000D01*
X247700000Y-44600000D02*
X248915257Y-45815257D01*
X251817647Y-52667645D02*
X251485292Y-53000000D01*
X261400000Y-54800000D02*
X261400000Y-58300000D01*
X246900000Y-44600000D02*
X247700000Y-44600000D01*
X245700000Y-45800000D02*
X246900000Y-44600000D01*
X252712544Y-52667645D02*
X251817647Y-52667645D01*
%TO.N,Net-(R22-Pad1)*%
X249200000Y-88000000D02*
X247800000Y-89400000D01*
X247800000Y-90900000D02*
X226300000Y-112400000D01*
X247800000Y-89400000D02*
X247800000Y-90900000D01*
X226300000Y-135000000D02*
X231500000Y-140200000D01*
X226300000Y-112400000D02*
X226300000Y-135000000D01*
%TO.N,Net-(R36-Pad1)*%
X242227865Y-105872135D02*
X242227865Y-117927865D01*
X252630695Y-88581862D02*
X252630695Y-89469305D01*
X242227865Y-117927865D02*
X247100000Y-122800000D01*
X252630695Y-89469305D02*
X248700000Y-93400000D01*
X247100000Y-122800000D02*
X247100000Y-126600000D01*
X248700000Y-99400000D02*
X242227865Y-105872135D01*
X247100000Y-126600000D02*
X244000000Y-129700000D01*
X248700000Y-93400000D02*
X248700000Y-99400000D01*
%TO.N,Net-(R37-Pad1)*%
X250470600Y-130299627D02*
X250470600Y-138770600D01*
X243800000Y-106400000D02*
X243800000Y-109027600D01*
X249800000Y-123500000D02*
X249800000Y-129629027D01*
X250470600Y-138770600D02*
X256400000Y-144700000D01*
X249700000Y-94300000D02*
X249700000Y-100500000D01*
X256400000Y-144700000D02*
X264300000Y-144700000D01*
X249800000Y-129629027D02*
X250470600Y-130299627D01*
X244500400Y-109728000D02*
X244500400Y-118200400D01*
X244500400Y-118200400D02*
X249800000Y-123500000D01*
X249700000Y-100500000D02*
X243800000Y-106400000D01*
X254224500Y-89775500D02*
X249700000Y-94300000D01*
X243800000Y-109027600D02*
X244500400Y-109728000D01*
X254224500Y-88600000D02*
X254224500Y-89775500D01*
%TO.N,Net-(U2-Pad3)*%
X248480000Y-123800000D02*
X248480000Y-122816396D01*
X248190796Y-122816396D02*
X243763800Y-118389400D01*
X248480000Y-122816396D02*
X248190796Y-122816396D01*
%TO.N,Net-(U2-Pad6)*%
X257810000Y-119227600D02*
X257810000Y-122090000D01*
X257810000Y-122090000D02*
X256100000Y-123800000D01*
%TO.N,Net-(U2-Pad7)*%
X258640000Y-125406100D02*
X256893700Y-127152400D01*
X258640000Y-123800000D02*
X258640000Y-125406100D01*
%TO.N,Net-(U2-Pad4)*%
X250825000Y-123605000D02*
X251020000Y-123800000D01*
X251020000Y-119286600D02*
X251180600Y-119126000D01*
X251020000Y-123800000D02*
X251020000Y-119286600D01*
%TO.N,Net-(U2-Pad5)*%
X253314200Y-119375500D02*
X253314200Y-122199400D01*
X253560000Y-123800000D02*
X253560000Y-122445200D01*
X253314200Y-122199400D02*
X253560000Y-122445200D01*
%TD*%
M02*
