%TF.GenerationSoftware,KiCad,Pcbnew,(6.0.7-1)-1*%
%TF.CreationDate,2022-10-21T17:23:08-04:00*%
%TF.ProjectId,Splitboard-A,53706c69-7462-46f6-9172-642d412e6b69,rev?*%
%TF.SameCoordinates,Original*%
%TF.FileFunction,Copper,L2,Bot*%
%TF.FilePolarity,Positive*%
%FSLAX46Y46*%
G04 Gerber Fmt 4.6, Leading zero omitted, Abs format (unit mm)*
G04 Created by KiCad (PCBNEW (6.0.7-1)-1) date 2022-10-21 17:23:08*
%MOMM*%
%LPD*%
G01*
G04 APERTURE LIST*
G04 Aperture macros list*
%AMRoundRect*
0 Rectangle with rounded corners*
0 $1 Rounding radius*
0 $2 $3 $4 $5 $6 $7 $8 $9 X,Y pos of 4 corners*
0 Add a 4 corners polygon primitive as box body*
4,1,4,$2,$3,$4,$5,$6,$7,$8,$9,$2,$3,0*
0 Add four circle primitives for the rounded corners*
1,1,$1+$1,$2,$3*
1,1,$1+$1,$4,$5*
1,1,$1+$1,$6,$7*
1,1,$1+$1,$8,$9*
0 Add four rect primitives between the rounded corners*
20,1,$1+$1,$2,$3,$4,$5,0*
20,1,$1+$1,$4,$5,$6,$7,0*
20,1,$1+$1,$6,$7,$8,$9,0*
20,1,$1+$1,$8,$9,$2,$3,0*%
%AMHorizOval*
0 Thick line with rounded ends*
0 $1 width*
0 $2 $3 position (X,Y) of the first rounded end (center of the circle)*
0 $4 $5 position (X,Y) of the second rounded end (center of the circle)*
0 Add line between two ends*
20,1,$1,$2,$3,$4,$5,0*
0 Add two circle primitives to create the rounded ends*
1,1,$1,$2,$3*
1,1,$1,$4,$5*%
%AMRotRect*
0 Rectangle, with rotation*
0 The origin of the aperture is its center*
0 $1 length*
0 $2 width*
0 $3 Rotation angle, in degrees counterclockwise*
0 Add horizontal line*
21,1,$1,$2,0,0,$3*%
G04 Aperture macros list end*
%TA.AperFunction,SMDPad,CuDef*%
%ADD10RoundRect,0.250000X-1.525000X-1.000000X1.525000X-1.000000X1.525000X1.000000X-1.525000X1.000000X0*%
%TD*%
%TA.AperFunction,ComponentPad*%
%ADD11C,3.600000*%
%TD*%
%TA.AperFunction,SMDPad,CuDef*%
%ADD12RoundRect,0.250000X-1.785445X0.371231X0.371231X-1.785445X1.785445X-0.371231X-0.371231X1.785445X0*%
%TD*%
%TA.AperFunction,ComponentPad*%
%ADD13C,4.000000*%
%TD*%
%TA.AperFunction,ComponentPad*%
%ADD14R,1.500000X1.500000*%
%TD*%
%TA.AperFunction,ComponentPad*%
%ADD15C,1.500000*%
%TD*%
%TA.AperFunction,ComponentPad*%
%ADD16R,2.000000X2.000000*%
%TD*%
%TA.AperFunction,ComponentPad*%
%ADD17C,2.000000*%
%TD*%
%TA.AperFunction,ComponentPad*%
%ADD18R,3.200000X2.000000*%
%TD*%
%TA.AperFunction,SMDPad,CuDef*%
%ADD19RoundRect,0.250000X-0.250000X-0.475000X0.250000X-0.475000X0.250000X0.475000X-0.250000X0.475000X0*%
%TD*%
%TA.AperFunction,SMDPad,CuDef*%
%ADD20RoundRect,0.250000X0.475000X-0.250000X0.475000X0.250000X-0.475000X0.250000X-0.475000X-0.250000X0*%
%TD*%
%TA.AperFunction,SMDPad,CuDef*%
%ADD21R,0.600000X0.450000*%
%TD*%
%TA.AperFunction,SMDPad,CuDef*%
%ADD22RoundRect,0.250000X-0.262500X-0.450000X0.262500X-0.450000X0.262500X0.450000X-0.262500X0.450000X0*%
%TD*%
%TA.AperFunction,SMDPad,CuDef*%
%ADD23RoundRect,0.250000X0.262500X0.450000X-0.262500X0.450000X-0.262500X-0.450000X0.262500X-0.450000X0*%
%TD*%
%TA.AperFunction,SMDPad,CuDef*%
%ADD24RoundRect,0.250000X-0.475000X0.250000X-0.475000X-0.250000X0.475000X-0.250000X0.475000X0.250000X0*%
%TD*%
%TA.AperFunction,SMDPad,CuDef*%
%ADD25RoundRect,0.250000X0.450000X-0.262500X0.450000X0.262500X-0.450000X0.262500X-0.450000X-0.262500X0*%
%TD*%
%TA.AperFunction,SMDPad,CuDef*%
%ADD26R,0.900000X1.200000*%
%TD*%
%TA.AperFunction,SMDPad,CuDef*%
%ADD27RoundRect,0.250000X-0.450000X0.262500X-0.450000X-0.262500X0.450000X-0.262500X0.450000X0.262500X0*%
%TD*%
%TA.AperFunction,ComponentPad*%
%ADD28R,1.700000X1.700000*%
%TD*%
%TA.AperFunction,ComponentPad*%
%ADD29O,1.700000X1.700000*%
%TD*%
%TA.AperFunction,SMDPad,CuDef*%
%ADD30RotRect,0.900000X1.200000X315.000000*%
%TD*%
%TA.AperFunction,SMDPad,CuDef*%
%ADD31R,2.000000X1.500000*%
%TD*%
%TA.AperFunction,SMDPad,CuDef*%
%ADD32R,2.000000X3.800000*%
%TD*%
%TA.AperFunction,SMDPad,CuDef*%
%ADD33R,1.300000X0.550000*%
%TD*%
%TA.AperFunction,SMDPad,CuDef*%
%ADD34RoundRect,0.250000X0.250000X0.475000X-0.250000X0.475000X-0.250000X-0.475000X0.250000X-0.475000X0*%
%TD*%
%TA.AperFunction,SMDPad,CuDef*%
%ADD35R,0.876300X0.355600*%
%TD*%
%TA.AperFunction,SMDPad,CuDef*%
%ADD36RoundRect,0.075000X0.725000X0.075000X-0.725000X0.075000X-0.725000X-0.075000X0.725000X-0.075000X0*%
%TD*%
%TA.AperFunction,SMDPad,CuDef*%
%ADD37RoundRect,0.075000X0.075000X0.725000X-0.075000X0.725000X-0.075000X-0.725000X0.075000X-0.725000X0*%
%TD*%
%TA.AperFunction,SMDPad,CuDef*%
%ADD38R,0.450000X0.600000*%
%TD*%
%TA.AperFunction,SMDPad,CuDef*%
%ADD39RotRect,0.300000X0.700000X340.000000*%
%TD*%
%TA.AperFunction,ComponentPad*%
%ADD40C,0.650000*%
%TD*%
%TA.AperFunction,ComponentPad*%
%ADD41HorizOval,0.800000X-0.102606X-0.281908X0.102606X0.281908X0*%
%TD*%
%TA.AperFunction,ViaPad*%
%ADD42C,0.800000*%
%TD*%
%TA.AperFunction,ViaPad*%
%ADD43C,1.500000*%
%TD*%
%TA.AperFunction,Conductor*%
%ADD44C,0.250000*%
%TD*%
%TA.AperFunction,Conductor*%
%ADD45C,1.250000*%
%TD*%
%TA.AperFunction,Conductor*%
%ADD46C,0.200000*%
%TD*%
G04 APERTURE END LIST*
D10*
%TO.P,K28,1*%
%TO.N,/col3*%
X212415000Y-94460000D03*
D11*
X215190000Y-94460000D03*
%TO.P,K28,2*%
%TO.N,Net-(D28-Pad2)*%
X221540000Y-91920000D03*
D10*
X224320000Y-91920000D03*
%TD*%
%TO.P,K11,1*%
%TO.N,/col1*%
X155415000Y-49460000D03*
D11*
X158190000Y-49460000D03*
D10*
%TO.P,K11,2*%
%TO.N,Net-(D11-Pad2)*%
X167320000Y-46920000D03*
D11*
X164540000Y-46920000D03*
%TD*%
D10*
%TO.P,K33,1*%
%TO.N,/col4*%
X174415000Y-107460000D03*
D11*
X177190000Y-107460000D03*
D10*
%TO.P,K33,2*%
%TO.N,Net-(D33-Pad2)*%
X186320000Y-104920000D03*
D11*
X183540000Y-104920000D03*
%TD*%
D10*
%TO.P,K20,1*%
%TO.N,/col2*%
X193415000Y-71460000D03*
D11*
X196190000Y-71460000D03*
D10*
%TO.P,K20,2*%
%TO.N,Net-(D20-Pad2)*%
X205320000Y-68920000D03*
D11*
X202540000Y-68920000D03*
%TD*%
D10*
%TO.P,K13,1*%
%TO.N,/col1*%
X193415000Y-52460000D03*
D11*
X196190000Y-52460000D03*
%TO.P,K13,2*%
%TO.N,Net-(D13-Pad2)*%
X202540000Y-49920000D03*
D10*
X205320000Y-49920000D03*
%TD*%
%TO.P,K7,1*%
%TO.N,/col0*%
X212415000Y-37460000D03*
D11*
X215190000Y-37460000D03*
D10*
%TO.P,K7,2*%
%TO.N,Net-(D7-Pad2)*%
X224320000Y-34920000D03*
D11*
X221540000Y-34920000D03*
%TD*%
%TO.P,K17,1*%
%TO.N,/col2*%
X139190000Y-69460000D03*
D10*
X136415000Y-69460000D03*
%TO.P,K17,2*%
%TO.N,Net-(D17-Pad2)*%
X148320000Y-66920000D03*
D11*
X145540000Y-66920000D03*
%TD*%
D10*
%TO.P,K16,1*%
%TO.N,/col2*%
X117415000Y-71460000D03*
D11*
X120190000Y-71460000D03*
%TO.P,K16,2*%
%TO.N,Net-(D16-Pad2)*%
X126540000Y-68920000D03*
D10*
X129320000Y-68920000D03*
%TD*%
D12*
%TO.P,K37,1*%
%TO.N,/col5*%
X223139753Y-144942916D03*
D11*
X225101974Y-146905137D03*
D12*
%TO.P,K37,2*%
%TO.N,Net-(D37-Pad2)*%
X233353911Y-151564971D03*
D11*
X231388154Y-149599214D03*
%TD*%
D13*
%TO.P,U2,*%
%TO.N,*%
X270610000Y-61100000D03*
X270610000Y-122300000D03*
X236510000Y-61100000D03*
X236510000Y-122300000D03*
D14*
%TO.P,U2,1,VCC*%
%TO.N,VBUS*%
X243400000Y-123800000D03*
D15*
%TO.P,U2,2,GND*%
%TO.N,GND*%
X245940000Y-123800000D03*
%TO.P,U2,3,~{CS}*%
%TO.N,Net-(U2-Pad3)*%
X248480000Y-123800000D03*
%TO.P,U2,4,RESET*%
%TO.N,Net-(U2-Pad4)*%
X251020000Y-123800000D03*
%TO.P,U2,5,D/~{C}*%
%TO.N,Net-(U2-Pad5)*%
X253560000Y-123800000D03*
%TO.P,U2,6,MOSI*%
%TO.N,Net-(U2-Pad6)*%
X256100000Y-123800000D03*
%TO.P,U2,7,SCK*%
%TO.N,Net-(U2-Pad7)*%
X258640000Y-123800000D03*
%TO.P,U2,8,LED*%
%TO.N,+3.3V*%
X261180000Y-123800000D03*
%TO.P,U2,9,MISO*%
%TO.N,unconnected-(U2-Pad9)*%
X263720000Y-123800000D03*
%TO.P,U2,10,SD_CS*%
%TO.N,unconnected-(U2-Pad10)*%
X248480000Y-60280000D03*
%TO.P,U2,11,SD_MOSI*%
%TO.N,unconnected-(U2-Pad11)*%
X251020000Y-60280000D03*
%TO.P,U2,12,SD_MISO*%
%TO.N,unconnected-(U2-Pad12)*%
X253560000Y-60280000D03*
%TO.P,U2,13,SD_SCK*%
%TO.N,unconnected-(U2-Pad13)*%
X256100000Y-60280000D03*
%TO.P,U2,14,FLASH_CD*%
%TO.N,unconnected-(U2-Pad14)*%
X258640000Y-60280000D03*
%TD*%
D11*
%TO.P,K2,1*%
%TO.N,/col0*%
X120190000Y-33460000D03*
D10*
X117415000Y-33460000D03*
D11*
%TO.P,K2,2*%
%TO.N,Net-(D2-Pad2)*%
X126540000Y-30920000D03*
D10*
X129320000Y-30920000D03*
%TD*%
D11*
%TO.P,K38,1*%
%TO.N,/col5*%
X238537003Y-160340166D03*
D12*
X236574782Y-158377945D03*
D11*
%TO.P,K38,2*%
%TO.N,Net-(D38-Pad2)*%
X244823183Y-163034243D03*
D12*
X246788940Y-165000000D03*
%TD*%
D10*
%TO.P,K5,1*%
%TO.N,/col0*%
X174415000Y-31460000D03*
D11*
X177190000Y-31460000D03*
D10*
%TO.P,K5,2*%
%TO.N,Net-(D5-Pad2)*%
X186320000Y-28920000D03*
D11*
X183540000Y-28920000D03*
%TD*%
%TO.P,K9,1*%
%TO.N,/col1*%
X120190000Y-52460000D03*
D10*
X117415000Y-52460000D03*
D11*
%TO.P,K9,2*%
%TO.N,Net-(D9-Pad2)*%
X126540000Y-49920000D03*
D10*
X129320000Y-49920000D03*
%TD*%
%TO.P,K32,1*%
%TO.N,/col4*%
X155415000Y-106460000D03*
D11*
X158190000Y-106460000D03*
%TO.P,K32,2*%
%TO.N,Net-(D32-Pad2)*%
X164540000Y-103920000D03*
D10*
X167320000Y-103920000D03*
%TD*%
%TO.P,K1,1*%
%TO.N,/col0*%
X98415000Y-37460000D03*
D11*
X101190000Y-37460000D03*
%TO.P,K1,2*%
%TO.N,Net-(D1-Pad2)*%
X107540000Y-34920000D03*
D10*
X110320000Y-34920000D03*
%TD*%
D11*
%TO.P,K26,1*%
%TO.N,/col3*%
X177190000Y-88460000D03*
D10*
X174415000Y-88460000D03*
%TO.P,K26,2*%
%TO.N,Net-(D26-Pad2)*%
X186320000Y-85920000D03*
D11*
X183540000Y-85920000D03*
%TD*%
D16*
%TO.P,SW1,A,A*%
%TO.N,Net-(R11-Pad2)*%
X245175000Y-137475000D03*
D17*
%TO.P,SW1,B,B*%
%TO.N,Net-(R13-Pad2)*%
X245175000Y-142475000D03*
%TO.P,SW1,C,C*%
%TO.N,GND*%
X245175000Y-139975000D03*
D18*
%TO.P,SW1,MP*%
%TO.N,N/C*%
X252675000Y-145575000D03*
X252675000Y-134375000D03*
D17*
%TO.P,SW1,S1,S1*%
%TO.N,/ENC_SW*%
X259675000Y-142475000D03*
%TO.P,SW1,S2,S2*%
%TO.N,GND*%
X259675000Y-137475000D03*
%TD*%
D11*
%TO.P,K4,1*%
%TO.N,/col0*%
X158190000Y-30460000D03*
D10*
X155415000Y-30460000D03*
D11*
%TO.P,K4,2*%
%TO.N,Net-(D4-Pad2)*%
X164540000Y-27920000D03*
D10*
X167320000Y-27920000D03*
%TD*%
%TO.P,K34,1*%
%TO.N,/col4*%
X193415000Y-109460000D03*
D11*
X196190000Y-109460000D03*
%TO.P,K34,2*%
%TO.N,Net-(D34-Pad2)*%
X202540000Y-106920000D03*
D10*
X205320000Y-106920000D03*
%TD*%
%TO.P,K30,1*%
%TO.N,/col4*%
X117415000Y-109460000D03*
D11*
X120190000Y-109460000D03*
%TO.P,K30,2*%
%TO.N,Net-(D30-Pad2)*%
X126540000Y-106920000D03*
D10*
X129320000Y-106920000D03*
%TD*%
D11*
%TO.P,K14,1*%
%TO.N,/col1*%
X215190000Y-56460000D03*
D10*
X212415000Y-56460000D03*
D11*
%TO.P,K14,2*%
%TO.N,Net-(D14-Pad2)*%
X221540000Y-53920000D03*
D10*
X224320000Y-53920000D03*
%TD*%
D11*
%TO.P,K12,1*%
%TO.N,/col1*%
X177190000Y-50460000D03*
D10*
X174415000Y-50460000D03*
D11*
%TO.P,K12,2*%
%TO.N,Net-(D12-Pad2)*%
X183540000Y-47920000D03*
D10*
X186320000Y-47920000D03*
%TD*%
D11*
%TO.P,K22,1*%
%TO.N,/col3*%
X101190000Y-94460000D03*
D10*
X98415000Y-94460000D03*
D11*
%TO.P,K22,2*%
%TO.N,Net-(D22-Pad2)*%
X107540000Y-91920000D03*
D10*
X110320000Y-91920000D03*
%TD*%
%TO.P,K6,1*%
%TO.N,/col0*%
X193415000Y-33460000D03*
D11*
X196190000Y-33460000D03*
%TO.P,K6,2*%
%TO.N,Net-(D6-Pad2)*%
X202540000Y-30920000D03*
D10*
X205320000Y-30920000D03*
%TD*%
%TO.P,K8,1*%
%TO.N,/col1*%
X98415000Y-56460000D03*
D11*
X101190000Y-56460000D03*
%TO.P,K8,2*%
%TO.N,Net-(D8-Pad2)*%
X107540000Y-53920000D03*
D10*
X110320000Y-53920000D03*
%TD*%
%TO.P,K18,1*%
%TO.N,/col2*%
X155415000Y-68460000D03*
D11*
X158190000Y-68460000D03*
%TO.P,K18,2*%
%TO.N,Net-(D18-Pad2)*%
X164540000Y-65920000D03*
D10*
X167320000Y-65920000D03*
%TD*%
%TO.P,K15,1*%
%TO.N,/col2*%
X98415000Y-75460000D03*
D11*
X101190000Y-75460000D03*
%TO.P,K15,2*%
%TO.N,Net-(D15-Pad2)*%
X107540000Y-72920000D03*
D10*
X110320000Y-72920000D03*
%TD*%
%TO.P,K21,1*%
%TO.N,/col2*%
X212415000Y-75460000D03*
D11*
X215190000Y-75460000D03*
%TO.P,K21,2*%
%TO.N,Net-(D21-Pad2)*%
X221540000Y-72920000D03*
D10*
X224320000Y-72920000D03*
%TD*%
%TO.P,K19,1*%
%TO.N,/col2*%
X174415000Y-69460000D03*
D11*
X177190000Y-69460000D03*
%TO.P,K19,2*%
%TO.N,Net-(D19-Pad2)*%
X183540000Y-66920000D03*
D10*
X186320000Y-66920000D03*
%TD*%
D11*
%TO.P,K25,1*%
%TO.N,/col3*%
X158190000Y-87460000D03*
D10*
X155415000Y-87460000D03*
D11*
%TO.P,K25,2*%
%TO.N,Net-(D25-Pad2)*%
X164540000Y-84920000D03*
D10*
X167320000Y-84920000D03*
%TD*%
%TO.P,K10,1*%
%TO.N,/col1*%
X136415000Y-50460000D03*
D11*
X139190000Y-50460000D03*
D10*
%TO.P,K10,2*%
%TO.N,Net-(D10-Pad2)*%
X148320000Y-47920000D03*
D11*
X145540000Y-47920000D03*
%TD*%
D10*
%TO.P,K31,1*%
%TO.N,/col4*%
X136415000Y-107460000D03*
D11*
X139190000Y-107460000D03*
D10*
%TO.P,K31,2*%
%TO.N,Net-(D31-Pad2)*%
X148320000Y-104920000D03*
D11*
X145540000Y-104920000D03*
%TD*%
%TO.P,K23,1*%
%TO.N,/col3*%
X120190000Y-90460000D03*
D10*
X117415000Y-90460000D03*
%TO.P,K23,2*%
%TO.N,Net-(D23-Pad2)*%
X129320000Y-87920000D03*
D11*
X126540000Y-87920000D03*
%TD*%
%TO.P,K29,1*%
%TO.N,/col4*%
X101190000Y-113460000D03*
D10*
X98415000Y-113460000D03*
D11*
%TO.P,K29,2*%
%TO.N,Net-(D29-Pad2)*%
X107540000Y-110920000D03*
D10*
X110320000Y-110920000D03*
%TD*%
%TO.P,K24,1*%
%TO.N,/col3*%
X136415000Y-88460000D03*
D11*
X139190000Y-88460000D03*
%TO.P,K24,2*%
%TO.N,Net-(D24-Pad2)*%
X145540000Y-85920000D03*
D10*
X148320000Y-85920000D03*
%TD*%
D12*
%TO.P,K36,1*%
%TO.N,/col5*%
X209704724Y-131507887D03*
D11*
X211666945Y-133470108D03*
D12*
%TO.P,K36,2*%
%TO.N,Net-(D36-Pad2)*%
X219918882Y-138129942D03*
D11*
X217953125Y-136164185D03*
%TD*%
D10*
%TO.P,K35,1*%
%TO.N,/col4*%
X212415000Y-113460000D03*
D11*
X215190000Y-113460000D03*
%TO.P,K35,2*%
%TO.N,Net-(D35-Pad2)*%
X221540000Y-110920000D03*
D10*
X224320000Y-110920000D03*
%TD*%
%TO.P,K27,1*%
%TO.N,/col3*%
X193415000Y-90460000D03*
D11*
X196190000Y-90460000D03*
D10*
%TO.P,K27,2*%
%TO.N,Net-(D27-Pad2)*%
X205320000Y-87920000D03*
D11*
X202540000Y-87920000D03*
%TD*%
%TO.P,K3,1*%
%TO.N,/col0*%
X139190000Y-31460000D03*
D10*
X136415000Y-31460000D03*
%TO.P,K3,2*%
%TO.N,Net-(D3-Pad2)*%
X148320000Y-28920000D03*
D11*
X145540000Y-28920000D03*
%TD*%
D19*
%TO.P,C5,1*%
%TO.N,GND*%
X262450000Y-137500000D03*
%TO.P,C5,2*%
%TO.N,/ENC_SW*%
X264350000Y-137500000D03*
%TD*%
D20*
%TO.P,C20,1*%
%TO.N,VBUS*%
X265300000Y-47850000D03*
%TO.P,C20,2*%
%TO.N,GND*%
X265300000Y-45950000D03*
%TD*%
D21*
%TO.P,D41,1,K*%
%TO.N,+3.3V*%
X259950000Y-100500000D03*
%TO.P,D41,2,A*%
%TO.N,Net-(D41-Pad2)*%
X262050000Y-100500000D03*
%TD*%
D22*
%TO.P,R7,1*%
%TO.N,/col2*%
X236587500Y-82000000D03*
%TO.P,R7,2*%
%TO.N,+3.3V*%
X238412500Y-82000000D03*
%TD*%
D23*
%TO.P,R14,1*%
%TO.N,Net-(R13-Pad2)*%
X242012500Y-145100000D03*
%TO.P,R14,2*%
%TO.N,/ENC_B*%
X240187500Y-145100000D03*
%TD*%
D24*
%TO.P,C10,1*%
%TO.N,+3.3V*%
X248500000Y-79550000D03*
%TO.P,C10,2*%
%TO.N,GND*%
X248500000Y-81450000D03*
%TD*%
D25*
%TO.P,R16,1*%
%TO.N,/SCL*%
X259100000Y-64712500D03*
%TO.P,R16,2*%
%TO.N,Net-(J2-PadA7)*%
X259100000Y-62887500D03*
%TD*%
D19*
%TO.P,C8,1*%
%TO.N,+3.3V*%
X263050000Y-97000000D03*
%TO.P,C8,2*%
%TO.N,GND*%
X264950000Y-97000000D03*
%TD*%
D17*
%TO.P,SW2,1,1*%
%TO.N,GND*%
X234000000Y-108500000D03*
X240500000Y-108500000D03*
%TO.P,SW2,2,2*%
%TO.N,/NRST*%
X234000000Y-113000000D03*
X240500000Y-113000000D03*
%TD*%
D25*
%TO.P,R25,1*%
%TO.N,Net-(R25-Pad1)*%
X251700000Y-74412500D03*
%TO.P,R25,2*%
%TO.N,/row2*%
X251700000Y-72587500D03*
%TD*%
D19*
%TO.P,C1,1*%
%TO.N,Net-(C1-Pad1)*%
X253550000Y-97000000D03*
%TO.P,C1,2*%
%TO.N,GND*%
X255450000Y-97000000D03*
%TD*%
D26*
%TO.P,D22,1,K*%
%TO.N,/row0*%
X110650000Y-102000000D03*
%TO.P,D22,2,A*%
%TO.N,Net-(D22-Pad2)*%
X107350000Y-102000000D03*
%TD*%
D27*
%TO.P,R2,1*%
%TO.N,Net-(J1-PadB5)*%
X231100000Y-45387500D03*
%TO.P,R2,2*%
%TO.N,GND*%
X231100000Y-47212500D03*
%TD*%
D24*
%TO.P,C9,1*%
%TO.N,+3.3V*%
X246000000Y-79550000D03*
%TO.P,C9,2*%
%TO.N,GND*%
X246000000Y-81450000D03*
%TD*%
D26*
%TO.P,D19,1,K*%
%TO.N,/row4*%
X186650000Y-77000000D03*
%TO.P,D19,2,A*%
%TO.N,Net-(D19-Pad2)*%
X183350000Y-77000000D03*
%TD*%
D20*
%TO.P,C12,1*%
%TO.N,+3.3V*%
X269500000Y-77450000D03*
%TO.P,C12,2*%
%TO.N,GND*%
X269500000Y-75550000D03*
%TD*%
D19*
%TO.P,C3,1*%
%TO.N,Net-(C3-Pad1)*%
X243250000Y-56800000D03*
%TO.P,C3,2*%
%TO.N,GND*%
X245150000Y-56800000D03*
%TD*%
D26*
%TO.P,D9,1,K*%
%TO.N,/row1*%
X129650000Y-60000000D03*
%TO.P,D9,2,A*%
%TO.N,Net-(D9-Pad2)*%
X126350000Y-60000000D03*
%TD*%
D22*
%TO.P,R38,1*%
%TO.N,/SDA*%
X270987500Y-70600000D03*
%TO.P,R38,2*%
%TO.N,+3.3V*%
X272812500Y-70600000D03*
%TD*%
D26*
%TO.P,D13,1,K*%
%TO.N,/row5*%
X205650000Y-60000000D03*
%TO.P,D13,2,A*%
%TO.N,Net-(D13-Pad2)*%
X202350000Y-60000000D03*
%TD*%
D23*
%TO.P,R36,1*%
%TO.N,Net-(R36-Pad1)*%
X242012500Y-129700000D03*
%TO.P,R36,2*%
%TO.N,/ENC_A*%
X240187500Y-129700000D03*
%TD*%
D26*
%TO.P,D10,1,K*%
%TO.N,/row2*%
X148650000Y-58000000D03*
%TO.P,D10,2,A*%
%TO.N,Net-(D10-Pad2)*%
X145350000Y-58000000D03*
%TD*%
D25*
%TO.P,R20,1*%
%TO.N,/LCD2_RST*%
X265900000Y-64725000D03*
%TO.P,R20,2*%
%TO.N,Net-(J2-PadA3)*%
X265900000Y-62900000D03*
%TD*%
D26*
%TO.P,D12,1,K*%
%TO.N,/row4*%
X186650000Y-58000000D03*
%TO.P,D12,2,A*%
%TO.N,Net-(D12-Pad2)*%
X183350000Y-58000000D03*
%TD*%
D28*
%TO.P,J3,1,Pin_1*%
%TO.N,Net-(D41-Pad2)*%
X262625000Y-103650000D03*
D29*
%TO.P,J3,2,Pin_2*%
%TO.N,/SWCLK*%
X262625000Y-106190000D03*
%TO.P,J3,3,Pin_3*%
%TO.N,GND*%
X262625000Y-108730000D03*
%TO.P,J3,4,Pin_4*%
%TO.N,/SWDIO*%
X262625000Y-111270000D03*
%TO.P,J3,5,Pin_5*%
%TO.N,/NRST*%
X262625000Y-113810000D03*
%TO.P,J3,6,Pin_6*%
%TO.N,/SWO*%
X262625000Y-116350000D03*
%TD*%
D26*
%TO.P,D16,1,K*%
%TO.N,/row1*%
X129650000Y-79000000D03*
%TO.P,D16,2,A*%
%TO.N,Net-(D16-Pad2)*%
X126350000Y-79000000D03*
%TD*%
D25*
%TO.P,R18,1*%
%TO.N,/LCD2_CS*%
X263700000Y-64700000D03*
%TO.P,R18,2*%
%TO.N,Net-(J2-PadA10)*%
X263700000Y-62875000D03*
%TD*%
D26*
%TO.P,D15,1,K*%
%TO.N,/row0*%
X110650000Y-83000000D03*
%TO.P,D15,2,A*%
%TO.N,Net-(D15-Pad2)*%
X107350000Y-83000000D03*
%TD*%
D25*
%TO.P,R4,1*%
%TO.N,/col5*%
X243500000Y-85825000D03*
%TO.P,R4,2*%
%TO.N,+3.3V*%
X243500000Y-84000000D03*
%TD*%
%TO.P,R30,1*%
%TO.N,Net-(R30-Pad1)*%
X262200000Y-74412500D03*
%TO.P,R30,2*%
%TO.N,/col0*%
X262200000Y-72587500D03*
%TD*%
D22*
%TO.P,R11,1*%
%TO.N,+3.3V*%
X240187500Y-137487500D03*
%TO.P,R11,2*%
%TO.N,Net-(R11-Pad2)*%
X242012500Y-137487500D03*
%TD*%
D30*
%TO.P,D37,1,K*%
%TO.N,/row1*%
X224025688Y-156248710D03*
%TO.P,D37,2,A*%
%TO.N,Net-(D37-Pad2)*%
X226359140Y-158582162D03*
%TD*%
D25*
%TO.P,R17,1*%
%TO.N,/SDA*%
X256800000Y-64712500D03*
%TO.P,R17,2*%
%TO.N,Net-(J2-PadA6)*%
X256800000Y-62887500D03*
%TD*%
D26*
%TO.P,D11,1,K*%
%TO.N,/row3*%
X167650000Y-57000000D03*
%TO.P,D11,2,A*%
%TO.N,Net-(D11-Pad2)*%
X164350000Y-57000000D03*
%TD*%
D27*
%TO.P,R15,1*%
%TO.N,+3.3V*%
X271500000Y-86587500D03*
%TO.P,R15,2*%
%TO.N,/NRST*%
X271500000Y-88412500D03*
%TD*%
%TO.P,R22,1*%
%TO.N,Net-(R22-Pad1)*%
X234300000Y-140187500D03*
%TO.P,R22,2*%
%TO.N,/ENC_B*%
X234300000Y-142012500D03*
%TD*%
D26*
%TO.P,D2,1,K*%
%TO.N,/row1*%
X129650000Y-41000000D03*
%TO.P,D2,2,A*%
%TO.N,Net-(D2-Pad2)*%
X126350000Y-41000000D03*
%TD*%
D20*
%TO.P,C13,1*%
%TO.N,+3.3V*%
X272000000Y-77450000D03*
%TO.P,C13,2*%
%TO.N,GND*%
X272000000Y-75550000D03*
%TD*%
D19*
%TO.P,C6,1*%
%TO.N,+3.3V*%
X262450000Y-135100000D03*
%TO.P,C6,2*%
%TO.N,GND*%
X264350000Y-135100000D03*
%TD*%
D22*
%TO.P,R9,1*%
%TO.N,/col0*%
X236587500Y-77000000D03*
%TO.P,R9,2*%
%TO.N,+3.3V*%
X238412500Y-77000000D03*
%TD*%
D26*
%TO.P,D14,1,K*%
%TO.N,/row6*%
X224650000Y-64000000D03*
%TO.P,D14,2,A*%
%TO.N,Net-(D14-Pad2)*%
X221350000Y-64000000D03*
%TD*%
D22*
%TO.P,R39,1*%
%TO.N,/SCL*%
X270987500Y-68300000D03*
%TO.P,R39,2*%
%TO.N,+3.3V*%
X272812500Y-68300000D03*
%TD*%
D24*
%TO.P,C4,1*%
%TO.N,Net-(C4-Pad1)*%
X229400000Y-56200000D03*
%TO.P,C4,2*%
%TO.N,GND*%
X229400000Y-58100000D03*
%TD*%
D31*
%TO.P,U4,1,GND*%
%TO.N,GND*%
X239850000Y-51200000D03*
%TO.P,U4,2,VO*%
%TO.N,Net-(C4-Pad1)*%
X239850000Y-53500000D03*
D32*
X233550000Y-53500000D03*
D31*
%TO.P,U4,3,VI*%
%TO.N,Net-(C3-Pad1)*%
X239850000Y-55800000D03*
%TD*%
D26*
%TO.P,D17,1,K*%
%TO.N,/row2*%
X148650000Y-77000000D03*
%TO.P,D17,2,A*%
%TO.N,Net-(D17-Pad2)*%
X145350000Y-77000000D03*
%TD*%
D19*
%TO.P,C16,1*%
%TO.N,/ENC_A*%
X240150000Y-132300000D03*
%TO.P,C16,2*%
%TO.N,GND*%
X242050000Y-132300000D03*
%TD*%
D26*
%TO.P,D23,1,K*%
%TO.N,/row1*%
X129650000Y-98000000D03*
%TO.P,D23,2,A*%
%TO.N,Net-(D23-Pad2)*%
X126350000Y-98000000D03*
%TD*%
D23*
%TO.P,R33,1*%
%TO.N,Net-(R33-Pad1)*%
X247812500Y-93480000D03*
%TO.P,R33,2*%
%TO.N,/col3*%
X245987500Y-93480000D03*
%TD*%
D26*
%TO.P,D3,1,K*%
%TO.N,/row2*%
X148650000Y-39000000D03*
%TO.P,D3,2,A*%
%TO.N,Net-(D3-Pad2)*%
X145350000Y-39000000D03*
%TD*%
%TO.P,D34,1,K*%
%TO.N,/row5*%
X205650000Y-117000000D03*
%TO.P,D34,2,A*%
%TO.N,Net-(D34-Pad2)*%
X202350000Y-117000000D03*
%TD*%
D24*
%TO.P,C7,1*%
%TO.N,+3.3V*%
X251000000Y-96100000D03*
%TO.P,C7,2*%
%TO.N,GND*%
X251000000Y-98000000D03*
%TD*%
D33*
%TO.P,U1,1,GND*%
%TO.N,GND*%
X272123500Y-80248499D03*
%TO.P,U1,2,NC*%
%TO.N,unconnected-(U1-Pad2)*%
X272123500Y-81198500D03*
%TO.P,U1,3,OE/NC*%
%TO.N,+3.3V*%
X272123500Y-82148501D03*
%TO.P,U1,4,VDD*%
X269623500Y-82148501D03*
%TO.P,U1,5,OUT*%
%TO.N,/RCC_OSC_IN*%
X269623500Y-80248499D03*
%TD*%
D27*
%TO.P,R41,1*%
%TO.N,/MOSI*%
X259334000Y-116283100D03*
%TO.P,R41,2*%
%TO.N,Net-(U2-Pad6)*%
X259334000Y-118108100D03*
%TD*%
D23*
%TO.P,FB1,1*%
%TO.N,Net-(D39-Pad1)*%
X245112500Y-54400000D03*
%TO.P,FB1,2*%
%TO.N,Net-(C3-Pad1)*%
X243287500Y-54400000D03*
%TD*%
D20*
%TO.P,C14,1*%
%TO.N,+3.3V*%
X269000000Y-86450000D03*
%TO.P,C14,2*%
%TO.N,GND*%
X269000000Y-84550000D03*
%TD*%
D24*
%TO.P,C15,1*%
%TO.N,+3.3V*%
X269000000Y-90050000D03*
%TO.P,C15,2*%
%TO.N,GND*%
X269000000Y-91950000D03*
%TD*%
D26*
%TO.P,D30,1,K*%
%TO.N,/row1*%
X129650000Y-117000000D03*
%TO.P,D30,2,A*%
%TO.N,Net-(D30-Pad2)*%
X126350000Y-117000000D03*
%TD*%
%TO.P,D25,1,K*%
%TO.N,/row3*%
X167650000Y-95000000D03*
%TO.P,D25,2,A*%
%TO.N,Net-(D25-Pad2)*%
X164350000Y-95000000D03*
%TD*%
D34*
%TO.P,C17,1*%
%TO.N,GND*%
X242050000Y-147700000D03*
%TO.P,C17,2*%
%TO.N,/ENC_B*%
X240150000Y-147700000D03*
%TD*%
D30*
%TO.P,D36,1,K*%
%TO.N,/row0*%
X210590654Y-142813684D03*
%TO.P,D36,2,A*%
%TO.N,Net-(D36-Pad2)*%
X212924106Y-145147136D03*
%TD*%
D26*
%TO.P,D35,1,K*%
%TO.N,/row6*%
X224650000Y-121000000D03*
%TO.P,D35,2,A*%
%TO.N,Net-(D35-Pad2)*%
X221350000Y-121000000D03*
%TD*%
D25*
%TO.P,R26,1*%
%TO.N,Net-(R26-Pad1)*%
X253800000Y-74412500D03*
%TO.P,R26,2*%
%TO.N,/row3*%
X253800000Y-72587500D03*
%TD*%
%TO.P,R28,1*%
%TO.N,Net-(R28-Pad1)*%
X258000000Y-74412500D03*
%TO.P,R28,2*%
%TO.N,/row5*%
X258000000Y-72587500D03*
%TD*%
D27*
%TO.P,R40,1*%
%TO.N,/LCD1_CS*%
X243281200Y-115013100D03*
%TO.P,R40,2*%
%TO.N,Net-(U2-Pad3)*%
X243281200Y-116838100D03*
%TD*%
D20*
%TO.P,C21,1*%
%TO.N,+3.3V*%
X274500000Y-82150000D03*
%TO.P,C21,2*%
%TO.N,GND*%
X274500000Y-80250000D03*
%TD*%
D25*
%TO.P,R27,1*%
%TO.N,Net-(R27-Pad1)*%
X255900000Y-74412500D03*
%TO.P,R27,2*%
%TO.N,/row4*%
X255900000Y-72587500D03*
%TD*%
D26*
%TO.P,D31,1,K*%
%TO.N,/row2*%
X148650000Y-115000000D03*
%TO.P,D31,2,A*%
%TO.N,Net-(D31-Pad2)*%
X145350000Y-115000000D03*
%TD*%
%TO.P,D21,1,K*%
%TO.N,/row6*%
X224650000Y-83000000D03*
%TO.P,D21,2,A*%
%TO.N,Net-(D21-Pad2)*%
X221350000Y-83000000D03*
%TD*%
D34*
%TO.P,C18,1*%
%TO.N,GND*%
X248900000Y-116500000D03*
%TO.P,C18,2*%
%TO.N,/NRST*%
X247000000Y-116500000D03*
%TD*%
D27*
%TO.P,R43,1*%
%TO.N,/LCD1_RST*%
X250799600Y-115952900D03*
%TO.P,R43,2*%
%TO.N,Net-(U2-Pad4)*%
X250799600Y-117777900D03*
%TD*%
D23*
%TO.P,R32,1*%
%TO.N,Net-(R32-Pad1)*%
X247812500Y-95780000D03*
%TO.P,R32,2*%
%TO.N,/col2*%
X245987500Y-95780000D03*
%TD*%
D35*
%TO.P,U5,1,D1*%
%TO.N,/USB_CONN_D+*%
X233107825Y-47397499D03*
%TO.P,U5,2,GND*%
%TO.N,GND*%
X233107825Y-46747500D03*
%TO.P,U5,3,D2*%
%TO.N,/USB_CONN_D-*%
X233107825Y-46097501D03*
%TO.P,U5,4,D3*%
%TO.N,/USB_D-*%
X235330325Y-46097501D03*
%TO.P,U5,5,VDD*%
%TO.N,+3.3V*%
X235330325Y-46747500D03*
%TO.P,U5,6,D4*%
%TO.N,/USB_D+*%
X235330325Y-47397499D03*
%TD*%
D36*
%TO.P,U3,1,PE2*%
%TO.N,unconnected-(U3-Pad1)*%
X266675000Y-81000000D03*
%TO.P,U3,2,PE3*%
%TO.N,unconnected-(U3-Pad2)*%
X266675000Y-81500000D03*
%TO.P,U3,3,PE4*%
%TO.N,unconnected-(U3-Pad3)*%
X266675000Y-82000000D03*
%TO.P,U3,4,PE5*%
%TO.N,unconnected-(U3-Pad4)*%
X266675000Y-82500000D03*
%TO.P,U3,5,PE6*%
%TO.N,unconnected-(U3-Pad5)*%
X266675000Y-83000000D03*
%TO.P,U3,6,VBAT*%
%TO.N,+3.3V*%
X266675000Y-83500000D03*
%TO.P,U3,7,PC13*%
%TO.N,unconnected-(U3-Pad7)*%
X266675000Y-84000000D03*
%TO.P,U3,8,PC14*%
%TO.N,unconnected-(U3-Pad8)*%
X266675000Y-84500000D03*
%TO.P,U3,9,PC15*%
%TO.N,unconnected-(U3-Pad9)*%
X266675000Y-85000000D03*
%TO.P,U3,10,VSS*%
%TO.N,GND*%
X266675000Y-85500000D03*
%TO.P,U3,11,VDD*%
%TO.N,+3.3V*%
X266675000Y-86000000D03*
%TO.P,U3,12,PH0*%
%TO.N,/RCC_OSC_IN*%
X266675000Y-86500000D03*
%TO.P,U3,13,PH1*%
%TO.N,/RCC_OSC_OUT*%
X266675000Y-87000000D03*
%TO.P,U3,14,NRST*%
%TO.N,/NRST*%
X266675000Y-87500000D03*
%TO.P,U3,15,PC0*%
%TO.N,unconnected-(U3-Pad15)*%
X266675000Y-88000000D03*
%TO.P,U3,16,PC1*%
%TO.N,unconnected-(U3-Pad16)*%
X266675000Y-88500000D03*
%TO.P,U3,17,PC2*%
%TO.N,unconnected-(U3-Pad17)*%
X266675000Y-89000000D03*
%TO.P,U3,18,PC3*%
%TO.N,/MOSI*%
X266675000Y-89500000D03*
%TO.P,U3,19,VDD*%
%TO.N,+3.3V*%
X266675000Y-90000000D03*
%TO.P,U3,20,VSSA*%
%TO.N,GND*%
X266675000Y-90500000D03*
%TO.P,U3,21,VREF+*%
%TO.N,+3.3V*%
X266675000Y-91000000D03*
%TO.P,U3,22,VDDA*%
X266675000Y-91500000D03*
%TO.P,U3,23,PA0*%
%TO.N,unconnected-(U3-Pad23)*%
X266675000Y-92000000D03*
%TO.P,U3,24,PA1*%
%TO.N,unconnected-(U3-Pad24)*%
X266675000Y-92500000D03*
%TO.P,U3,25,PA2*%
%TO.N,unconnected-(U3-Pad25)*%
X266675000Y-93000000D03*
D37*
%TO.P,U3,26,PA3*%
%TO.N,unconnected-(U3-Pad26)*%
X265000000Y-94675000D03*
%TO.P,U3,27,VSS*%
%TO.N,GND*%
X264500000Y-94675000D03*
%TO.P,U3,28,VDD*%
%TO.N,+3.3V*%
X264000000Y-94675000D03*
%TO.P,U3,29,PA4*%
%TO.N,unconnected-(U3-Pad29)*%
X263500000Y-94675000D03*
%TO.P,U3,30,PA5*%
%TO.N,unconnected-(U3-Pad30)*%
X263000000Y-94675000D03*
%TO.P,U3,31,PA6*%
%TO.N,unconnected-(U3-Pad31)*%
X262500000Y-94675000D03*
%TO.P,U3,32,PA7*%
%TO.N,unconnected-(U3-Pad32)*%
X262000000Y-94675000D03*
%TO.P,U3,33,PC4*%
%TO.N,unconnected-(U3-Pad33)*%
X261500000Y-94675000D03*
%TO.P,U3,34,PC5*%
%TO.N,unconnected-(U3-Pad34)*%
X261000000Y-94675000D03*
%TO.P,U3,35,PB0*%
%TO.N,unconnected-(U3-Pad35)*%
X260500000Y-94675000D03*
%TO.P,U3,36,PB1*%
%TO.N,unconnected-(U3-Pad36)*%
X260000000Y-94675000D03*
%TO.P,U3,37,PB2*%
%TO.N,unconnected-(U3-Pad37)*%
X259500000Y-94675000D03*
%TO.P,U3,38,PE7*%
%TO.N,unconnected-(U3-Pad38)*%
X259000000Y-94675000D03*
%TO.P,U3,39,PE8*%
%TO.N,unconnected-(U3-Pad39)*%
X258500000Y-94675000D03*
%TO.P,U3,40,PE9*%
%TO.N,unconnected-(U3-Pad40)*%
X258000000Y-94675000D03*
%TO.P,U3,41,PE10*%
%TO.N,unconnected-(U3-Pad41)*%
X257500000Y-94675000D03*
%TO.P,U3,42,PE11*%
%TO.N,unconnected-(U3-Pad42)*%
X257000000Y-94675000D03*
%TO.P,U3,43,PE12*%
%TO.N,unconnected-(U3-Pad43)*%
X256500000Y-94675000D03*
%TO.P,U3,44,PE13*%
%TO.N,unconnected-(U3-Pad44)*%
X256000000Y-94675000D03*
%TO.P,U3,45,PE14*%
%TO.N,unconnected-(U3-Pad45)*%
X255500000Y-94675000D03*
%TO.P,U3,46,PE15*%
%TO.N,unconnected-(U3-Pad46)*%
X255000000Y-94675000D03*
%TO.P,U3,47,PB10*%
%TO.N,/SCL*%
X254500000Y-94675000D03*
%TO.P,U3,48,PB11*%
%TO.N,/SDA*%
X254000000Y-94675000D03*
%TO.P,U3,49,VCAP_1*%
%TO.N,Net-(C1-Pad1)*%
X253500000Y-94675000D03*
%TO.P,U3,50,VDD*%
%TO.N,+3.3V*%
X253000000Y-94675000D03*
D36*
%TO.P,U3,51,PB12*%
%TO.N,unconnected-(U3-Pad51)*%
X251325000Y-93000000D03*
%TO.P,U3,52,PB13*%
%TO.N,/SCK*%
X251325000Y-92500000D03*
%TO.P,U3,53,PB14*%
%TO.N,unconnected-(U3-Pad53)*%
X251325000Y-92000000D03*
%TO.P,U3,54,PB15*%
%TO.N,unconnected-(U3-Pad54)*%
X251325000Y-91500000D03*
%TO.P,U3,55,PD8*%
%TO.N,Net-(R31-Pad1)*%
X251325000Y-91000000D03*
%TO.P,U3,56,PD9*%
%TO.N,Net-(R32-Pad1)*%
X251325000Y-90500000D03*
%TO.P,U3,57,PD10*%
%TO.N,Net-(R33-Pad1)*%
X251325000Y-90000000D03*
%TO.P,U3,58,PD11*%
%TO.N,Net-(R34-Pad1)*%
X251325000Y-89500000D03*
%TO.P,U3,59,PD12*%
%TO.N,Net-(R35-Pad1)*%
X251325000Y-89000000D03*
%TO.P,U3,60,PD13*%
%TO.N,Net-(R36-Pad1)*%
X251325000Y-88500000D03*
%TO.P,U3,61,PD14*%
%TO.N,Net-(R22-Pad1)*%
X251325000Y-88000000D03*
%TO.P,U3,62,PD15*%
%TO.N,Net-(R37-Pad1)*%
X251325000Y-87500000D03*
%TO.P,U3,63,PC6*%
%TO.N,unconnected-(U3-Pad63)*%
X251325000Y-87000000D03*
%TO.P,U3,64,PC7*%
%TO.N,/LCD1_DC*%
X251325000Y-86500000D03*
%TO.P,U3,65,PC8*%
%TO.N,/LCD1_CS*%
X251325000Y-86000000D03*
%TO.P,U3,66,PC9*%
%TO.N,/LCD2_DC*%
X251325000Y-85500000D03*
%TO.P,U3,67,PA8*%
%TO.N,/LCD2_CS*%
X251325000Y-85000000D03*
%TO.P,U3,68,PA9*%
%TO.N,/LCD2_RST*%
X251325000Y-84500000D03*
%TO.P,U3,69,PA10*%
%TO.N,/LCD1_RST*%
X251325000Y-84000000D03*
%TO.P,U3,70,PA11*%
%TO.N,/USB_D-*%
X251325000Y-83500000D03*
%TO.P,U3,71,PA12*%
%TO.N,/USB_D+*%
X251325000Y-83000000D03*
%TO.P,U3,72,PA13*%
%TO.N,/SWDIO*%
X251325000Y-82500000D03*
%TO.P,U3,73,VCAP_2*%
%TO.N,Net-(C2-Pad1)*%
X251325000Y-82000000D03*
%TO.P,U3,74,VSS*%
%TO.N,GND*%
X251325000Y-81500000D03*
%TO.P,U3,75,VDD*%
%TO.N,+3.3V*%
X251325000Y-81000000D03*
D37*
%TO.P,U3,76,PA14*%
%TO.N,/SWCLK*%
X253000000Y-79325000D03*
%TO.P,U3,77,PA15*%
%TO.N,unconnected-(U3-Pad77)*%
X253500000Y-79325000D03*
%TO.P,U3,78,PC10*%
%TO.N,unconnected-(U3-Pad78)*%
X254000000Y-79325000D03*
%TO.P,U3,79,PC11*%
%TO.N,unconnected-(U3-Pad79)*%
X254500000Y-79325000D03*
%TO.P,U3,80,PC12*%
%TO.N,unconnected-(U3-Pad80)*%
X255000000Y-79325000D03*
%TO.P,U3,81,PD0*%
%TO.N,Net-(R23-Pad1)*%
X255500000Y-79325000D03*
%TO.P,U3,82,PD1*%
%TO.N,Net-(R24-Pad1)*%
X256000000Y-79325000D03*
%TO.P,U3,83,PD2*%
%TO.N,Net-(R25-Pad1)*%
X256500000Y-79325000D03*
%TO.P,U3,84,PD3*%
%TO.N,Net-(R26-Pad1)*%
X257000000Y-79325000D03*
%TO.P,U3,85,PD4*%
%TO.N,Net-(R27-Pad1)*%
X257500000Y-79325000D03*
%TO.P,U3,86,PD5*%
%TO.N,Net-(R28-Pad1)*%
X258000000Y-79325000D03*
%TO.P,U3,87,PD6*%
%TO.N,Net-(R29-Pad1)*%
X258500000Y-79325000D03*
%TO.P,U3,88,PD7*%
%TO.N,Net-(R30-Pad1)*%
X259000000Y-79325000D03*
%TO.P,U3,89,PB3*%
%TO.N,/SWO*%
X259500000Y-79325000D03*
%TO.P,U3,90,PB4*%
%TO.N,unconnected-(U3-Pad90)*%
X260000000Y-79325000D03*
%TO.P,U3,91,PB5*%
%TO.N,unconnected-(U3-Pad91)*%
X260500000Y-79325000D03*
%TO.P,U3,92,PB6*%
%TO.N,unconnected-(U3-Pad92)*%
X261000000Y-79325000D03*
%TO.P,U3,93,PB7*%
%TO.N,unconnected-(U3-Pad93)*%
X261500000Y-79325000D03*
%TO.P,U3,94,BOOT0*%
%TO.N,GND*%
X262000000Y-79325000D03*
%TO.P,U3,95,PB8*%
%TO.N,unconnected-(U3-Pad95)*%
X262500000Y-79325000D03*
%TO.P,U3,96,PB9*%
%TO.N,unconnected-(U3-Pad96)*%
X263000000Y-79325000D03*
%TO.P,U3,97,PE0*%
%TO.N,unconnected-(U3-Pad97)*%
X263500000Y-79325000D03*
%TO.P,U3,98,PE1*%
%TO.N,unconnected-(U3-Pad98)*%
X264000000Y-79325000D03*
%TO.P,U3,99,VSS*%
%TO.N,GND*%
X264500000Y-79325000D03*
%TO.P,U3,100,VDD*%
%TO.N,+3.3V*%
X265000000Y-79325000D03*
%TD*%
D30*
%TO.P,D38,1,K*%
%TO.N,/row2*%
X237460717Y-169683738D03*
%TO.P,D38,2,A*%
%TO.N,Net-(D38-Pad2)*%
X239794169Y-172017190D03*
%TD*%
D27*
%TO.P,R1,1*%
%TO.N,Net-(J1-PadA5)*%
X228900000Y-45387500D03*
%TO.P,R1,2*%
%TO.N,GND*%
X228900000Y-47212500D03*
%TD*%
%TO.P,R44,1*%
%TO.N,/LCD1_DC*%
X254736600Y-116763800D03*
%TO.P,R44,2*%
%TO.N,Net-(U2-Pad5)*%
X254736600Y-118588800D03*
%TD*%
D26*
%TO.P,D5,1,K*%
%TO.N,/row4*%
X186650000Y-39000000D03*
%TO.P,D5,2,A*%
%TO.N,Net-(D5-Pad2)*%
X183350000Y-39000000D03*
%TD*%
D22*
%TO.P,R13,1*%
%TO.N,+3.3V*%
X240187500Y-142487500D03*
%TO.P,R13,2*%
%TO.N,Net-(R13-Pad2)*%
X242012500Y-142487500D03*
%TD*%
D26*
%TO.P,D18,1,K*%
%TO.N,/row3*%
X167650000Y-76000000D03*
%TO.P,D18,2,A*%
%TO.N,Net-(D18-Pad2)*%
X164350000Y-76000000D03*
%TD*%
D25*
%TO.P,R21,1*%
%TO.N,/SCK*%
X252100000Y-64712500D03*
%TO.P,R21,2*%
%TO.N,Net-(J2-PadA8)*%
X252100000Y-62887500D03*
%TD*%
D22*
%TO.P,R8,1*%
%TO.N,/col1*%
X236587500Y-79500000D03*
%TO.P,R8,2*%
%TO.N,+3.3V*%
X238412500Y-79500000D03*
%TD*%
D26*
%TO.P,D28,1,K*%
%TO.N,/row6*%
X224650000Y-102000000D03*
%TO.P,D28,2,A*%
%TO.N,Net-(D28-Pad2)*%
X221350000Y-102000000D03*
%TD*%
%TO.P,D32,1,K*%
%TO.N,/row3*%
X167650000Y-114000000D03*
%TO.P,D32,2,A*%
%TO.N,Net-(D32-Pad2)*%
X164350000Y-114000000D03*
%TD*%
D20*
%TO.P,C11,1*%
%TO.N,+3.3V*%
X267000000Y-77450000D03*
%TO.P,C11,2*%
%TO.N,GND*%
X267000000Y-75550000D03*
%TD*%
D38*
%TO.P,D40,1,K*%
%TO.N,+3.3V*%
X229500000Y-51450000D03*
%TO.P,D40,2,A*%
%TO.N,Net-(C4-Pad1)*%
X229500000Y-53550000D03*
%TD*%
D22*
%TO.P,R10,1*%
%TO.N,/ENC_SW*%
X262487500Y-140000000D03*
%TO.P,R10,2*%
%TO.N,+3.3V*%
X264312500Y-140000000D03*
%TD*%
D26*
%TO.P,D27,1,K*%
%TO.N,/row5*%
X205650000Y-98000000D03*
%TO.P,D27,2,A*%
%TO.N,Net-(D27-Pad2)*%
X202350000Y-98000000D03*
%TD*%
D25*
%TO.P,R19,1*%
%TO.N,/LCD2_DC*%
X261400000Y-64712500D03*
%TO.P,R19,2*%
%TO.N,Net-(J2-PadA11)*%
X261400000Y-62887500D03*
%TD*%
D26*
%TO.P,D29,1,K*%
%TO.N,/row0*%
X110650000Y-121000000D03*
%TO.P,D29,2,A*%
%TO.N,Net-(D29-Pad2)*%
X107350000Y-121000000D03*
%TD*%
D23*
%TO.P,R35,1*%
%TO.N,Net-(R35-Pad1)*%
X247812500Y-89000000D03*
%TO.P,R35,2*%
%TO.N,/col5*%
X245987500Y-89000000D03*
%TD*%
%TO.P,R34,1*%
%TO.N,Net-(R34-Pad1)*%
X247825000Y-91180000D03*
%TO.P,R34,2*%
%TO.N,/col4*%
X246000000Y-91180000D03*
%TD*%
D26*
%TO.P,D7,1,K*%
%TO.N,/row6*%
X224650000Y-45000000D03*
%TO.P,D7,2,A*%
%TO.N,Net-(D7-Pad2)*%
X221350000Y-45000000D03*
%TD*%
%TO.P,D6,1,K*%
%TO.N,/row5*%
X205650000Y-41000000D03*
%TO.P,D6,2,A*%
%TO.N,Net-(D6-Pad2)*%
X202350000Y-41000000D03*
%TD*%
D22*
%TO.P,R6,1*%
%TO.N,/col3*%
X236587500Y-84500000D03*
%TO.P,R6,2*%
%TO.N,+3.3V*%
X238412500Y-84500000D03*
%TD*%
%TO.P,R12,1*%
%TO.N,/ENC_A*%
X240187500Y-134900000D03*
%TO.P,R12,2*%
%TO.N,Net-(R11-Pad2)*%
X242012500Y-134900000D03*
%TD*%
D25*
%TO.P,R29,1*%
%TO.N,Net-(R29-Pad1)*%
X260100000Y-74412500D03*
%TO.P,R29,2*%
%TO.N,/row6*%
X260100000Y-72587500D03*
%TD*%
%TO.P,R23,1*%
%TO.N,Net-(R23-Pad1)*%
X247500000Y-74412500D03*
%TO.P,R23,2*%
%TO.N,/row0*%
X247500000Y-72587500D03*
%TD*%
D26*
%TO.P,D1,1,K*%
%TO.N,/row0*%
X110650000Y-45000000D03*
%TO.P,D1,2,A*%
%TO.N,Net-(D1-Pad2)*%
X107350000Y-45000000D03*
%TD*%
D39*
%TO.P,J2,A1,GND*%
%TO.N,GND*%
X247898904Y-47976702D03*
%TO.P,J2,A2,TX1+*%
%TO.N,Net-(J2-PadA2)*%
X248368750Y-48147712D03*
%TO.P,J2,A3,TX1-*%
%TO.N,Net-(J2-PadA3)*%
X248838597Y-48318722D03*
%TO.P,J2,A4,VBUS*%
%TO.N,VBUS*%
X249308443Y-48489732D03*
%TO.P,J2,A5,CC1*%
%TO.N,Net-(J2-PadA5)*%
X249778289Y-48660742D03*
%TO.P,J2,A6,D+*%
%TO.N,Net-(J2-PadA6)*%
X250248136Y-48831752D03*
%TO.P,J2,A7,D-*%
%TO.N,Net-(J2-PadA7)*%
X250717982Y-49002762D03*
%TO.P,J2,A8,SBU1*%
%TO.N,Net-(J2-PadA8)*%
X251187828Y-49173772D03*
%TO.P,J2,A9,VBUS*%
%TO.N,VBUS*%
X251657675Y-49344782D03*
%TO.P,J2,A10,RX2-*%
%TO.N,Net-(J2-PadA10)*%
X252127521Y-49515792D03*
%TO.P,J2,A11,RX2+*%
%TO.N,Net-(J2-PadA11)*%
X252597367Y-49686802D03*
%TO.P,J2,A12,GND*%
%TO.N,GND*%
X253067214Y-49857812D03*
D40*
%TO.P,J2,B1,GND*%
X253562245Y-48643916D03*
%TO.P,J2,B2,TX2+*%
%TO.N,Net-(J2-PadA2)*%
X253425782Y-47849323D03*
%TO.P,J2,B3,TX2-*%
%TO.N,Net-(J2-PadA3)*%
X252674028Y-47575707D03*
%TO.P,J2,B4,VBUS*%
%TO.N,VBUS*%
X252058736Y-48096684D03*
%TO.P,J2,B5,CC2*%
%TO.N,Net-(J2-PadA5)*%
X251922273Y-47302091D03*
%TO.P,J2,B6,D+*%
%TO.N,Net-(J2-PadA6)*%
X251306982Y-47823068D03*
%TO.P,J2,B7,D-*%
%TO.N,Net-(J2-PadA7)*%
X250555228Y-47549452D03*
%TO.P,J2,B8,SBU2*%
%TO.N,Net-(J2-PadA8)*%
X250418765Y-46754859D03*
%TO.P,J2,B9,VBUS*%
%TO.N,VBUS*%
X249803474Y-47275835D03*
%TO.P,J2,B10,RX1-*%
%TO.N,Net-(J2-PadA10)*%
X249667011Y-46481243D03*
%TO.P,J2,B11,RX1+*%
%TO.N,Net-(J2-PadA11)*%
X248915257Y-46207626D03*
%TO.P,J2,B12,GND*%
%TO.N,GND*%
X248299966Y-46728603D03*
D41*
%TO.P,J2,S1,SHIELD*%
X247255387Y-45709901D03*
X257390557Y-43066943D03*
X255017248Y-48534987D03*
X248952117Y-39995603D03*
%TD*%
D23*
%TO.P,R37,1*%
%TO.N,Net-(R37-Pad1)*%
X264312500Y-142500000D03*
%TO.P,R37,2*%
%TO.N,/ENC_SW*%
X262487500Y-142500000D03*
%TD*%
D26*
%TO.P,D8,1,K*%
%TO.N,/row0*%
X110650000Y-64000000D03*
%TO.P,D8,2,A*%
%TO.N,Net-(D8-Pad2)*%
X107350000Y-64000000D03*
%TD*%
%TO.P,D20,1,K*%
%TO.N,/row5*%
X205650000Y-79000000D03*
%TO.P,D20,2,A*%
%TO.N,Net-(D20-Pad2)*%
X202350000Y-79000000D03*
%TD*%
D39*
%TO.P,J1,A1,GND*%
%TO.N,GND*%
X231898904Y-42276702D03*
%TO.P,J1,A2*%
%TO.N,N/C*%
X232368750Y-42447712D03*
%TO.P,J1,A3*%
X232838597Y-42618722D03*
%TO.P,J1,A4,VBUS*%
%TO.N,VBUS*%
X233308443Y-42789732D03*
%TO.P,J1,A5,CC1*%
%TO.N,Net-(J1-PadA5)*%
X233778289Y-42960742D03*
%TO.P,J1,A6,D+*%
%TO.N,/USB_CONN_D+*%
X234248136Y-43131752D03*
%TO.P,J1,A7,D-*%
%TO.N,/USB_CONN_D-*%
X234717982Y-43302762D03*
%TO.P,J1,A8,SBU1*%
%TO.N,unconnected-(J1-PadA8)*%
X235187828Y-43473772D03*
%TO.P,J1,A9,VBUS*%
%TO.N,VBUS*%
X235657675Y-43644782D03*
%TO.P,J1,A10*%
%TO.N,N/C*%
X236127521Y-43815792D03*
%TO.P,J1,A11*%
X236597367Y-43986802D03*
%TO.P,J1,A12,GND*%
%TO.N,GND*%
X237067214Y-44157812D03*
D40*
%TO.P,J1,B1,GND*%
X237562245Y-42943916D03*
%TO.P,J1,B2*%
%TO.N,N/C*%
X237425782Y-42149323D03*
%TO.P,J1,B3*%
X236674028Y-41875707D03*
%TO.P,J1,B4,VBUS*%
%TO.N,VBUS*%
X236058736Y-42396684D03*
%TO.P,J1,B5,CC2*%
%TO.N,Net-(J1-PadB5)*%
X235922273Y-41602091D03*
%TO.P,J1,B6,D+*%
%TO.N,/USB_CONN_D+*%
X235306982Y-42123068D03*
%TO.P,J1,B7,D-*%
%TO.N,/USB_CONN_D-*%
X234555228Y-41849452D03*
%TO.P,J1,B8,SBU2*%
%TO.N,unconnected-(J1-PadB8)*%
X234418765Y-41054859D03*
%TO.P,J1,B9,VBUS*%
%TO.N,VBUS*%
X233803474Y-41575835D03*
%TO.P,J1,B10*%
%TO.N,N/C*%
X233667011Y-40781243D03*
%TO.P,J1,B11*%
X232915257Y-40507626D03*
%TO.P,J1,B12,GND*%
%TO.N,GND*%
X232299966Y-41028603D03*
D41*
%TO.P,J1,S1,SHIELD*%
X241390557Y-37366943D03*
X232952117Y-34295603D03*
X231255387Y-40009901D03*
X239017248Y-42834987D03*
%TD*%
D26*
%TO.P,D26,1,K*%
%TO.N,/row4*%
X186650000Y-96000000D03*
%TO.P,D26,2,A*%
%TO.N,Net-(D26-Pad2)*%
X183350000Y-96000000D03*
%TD*%
D20*
%TO.P,C2,1*%
%TO.N,Net-(C2-Pad1)*%
X248500000Y-85000000D03*
%TO.P,C2,2*%
%TO.N,GND*%
X248500000Y-83100000D03*
%TD*%
D25*
%TO.P,R3,1*%
%TO.N,/MOSI*%
X254400000Y-64712500D03*
%TO.P,R3,2*%
%TO.N,Net-(J2-PadA5)*%
X254400000Y-62887500D03*
%TD*%
D26*
%TO.P,D4,1,K*%
%TO.N,/row3*%
X167650000Y-38000000D03*
%TO.P,D4,2,A*%
%TO.N,Net-(D4-Pad2)*%
X164350000Y-38000000D03*
%TD*%
D20*
%TO.P,C19,1*%
%TO.N,VBUS*%
X261900000Y-47850000D03*
%TO.P,C19,2*%
%TO.N,GND*%
X261900000Y-45950000D03*
%TD*%
D25*
%TO.P,R24,1*%
%TO.N,Net-(R24-Pad1)*%
X249600000Y-74412500D03*
%TO.P,R24,2*%
%TO.N,/row1*%
X249600000Y-72587500D03*
%TD*%
D23*
%TO.P,R31,1*%
%TO.N,Net-(R31-Pad1)*%
X247825000Y-98200000D03*
%TO.P,R31,2*%
%TO.N,/col1*%
X246000000Y-98200000D03*
%TD*%
D26*
%TO.P,D24,1,K*%
%TO.N,/row2*%
X148650000Y-96000000D03*
%TO.P,D24,2,A*%
%TO.N,Net-(D24-Pad2)*%
X145350000Y-96000000D03*
%TD*%
D38*
%TO.P,D39,1,K*%
%TO.N,Net-(D39-Pad1)*%
X244000000Y-51850000D03*
%TO.P,D39,2,A*%
%TO.N,VBUS*%
X244000000Y-49750000D03*
%TD*%
D25*
%TO.P,R5,1*%
%TO.N,/col4*%
X241000000Y-85912500D03*
%TO.P,R5,2*%
%TO.N,+3.3V*%
X241000000Y-84087500D03*
%TD*%
D26*
%TO.P,D33,1,K*%
%TO.N,/row4*%
X186650000Y-115000000D03*
%TO.P,D33,2,A*%
%TO.N,Net-(D33-Pad2)*%
X183350000Y-115000000D03*
%TD*%
D42*
%TO.N,/row0*%
X113500000Y-57700000D03*
X246200000Y-71800000D03*
%TO.N,/row1*%
X132500000Y-58700000D03*
X244700000Y-70923500D03*
%TO.N,/row2*%
X151500000Y-60700000D03*
X243000000Y-70199000D03*
%TO.N,/row3*%
X170500000Y-61600000D03*
X241700000Y-69474500D03*
%TO.N,/col2*%
X239200000Y-88600000D03*
%TO.N,/col3*%
X241500000Y-89500000D03*
%TO.N,GND*%
X232664000Y-49174400D03*
X243550000Y-132450000D03*
X267200000Y-50600000D03*
X267200000Y-55500000D03*
X229637101Y-48738301D03*
%TO.N,/row4*%
X189500000Y-62585500D03*
X240410199Y-69024500D03*
%TO.N,/row5*%
X239074549Y-69074549D03*
X208500000Y-63800000D03*
%TO.N,/row6*%
X227000000Y-69800000D03*
X237400000Y-69724500D03*
%TO.N,/col4*%
X243500000Y-88500000D03*
%TO.N,/col5*%
X246000000Y-87500497D03*
%TO.N,/NRST*%
X268775500Y-88549003D03*
X253600000Y-113700000D03*
X270500000Y-90000000D03*
X247000000Y-113000000D03*
%TO.N,+3.3V*%
X263387701Y-91912299D03*
X253400000Y-99500000D03*
X264107641Y-81607642D03*
X258546600Y-107823000D03*
X255775500Y-99500000D03*
X237800000Y-73200000D03*
X235762300Y-72237700D03*
X264500000Y-90800000D03*
X262500000Y-80775500D03*
X256794000Y-121894600D03*
D43*
%TO.N,VBUS*%
X239400000Y-47500000D03*
X258000000Y-50000000D03*
X247000000Y-49000000D03*
D42*
%TO.N,/SWDIO*%
X254000000Y-111000000D03*
X259700000Y-88700000D03*
%TO.N,/USB_CONN_D-*%
X230200000Y-44100000D03*
X235000500Y-40081200D03*
%TO.N,/USB_CONN_D+*%
X234145477Y-46000000D03*
%TO.N,Net-(J1-PadB5)*%
X227524500Y-45700000D03*
%TO.N,/SWCLK*%
X254775500Y-77724500D03*
%TO.N,/SWO*%
X260000000Y-77000000D03*
%TO.N,/LCD2_RST*%
X249912299Y-84612299D03*
X268100000Y-68000000D03*
%TO.N,/RCC_OSC_IN*%
X268775500Y-87549500D03*
X270000000Y-79000000D03*
%TO.N,/LCD1_RST*%
X250850400Y-114579400D03*
X255015021Y-87988378D03*
%TO.N,unconnected-(U3-Pad32)*%
X261724500Y-97586800D03*
%TO.N,unconnected-(U3-Pad33)*%
X260275500Y-98552000D03*
%TO.N,unconnected-(U3-Pad34)*%
X260275000Y-97510600D03*
%TO.N,unconnected-(U3-Pad35)*%
X260223000Y-96367600D03*
%TO.N,unconnected-(U3-Pad39)*%
X259323041Y-98864872D03*
%TO.N,unconnected-(U3-Pad40)*%
X258749800Y-99775500D03*
%TO.N,unconnected-(U3-Pad41)*%
X258262572Y-97875437D03*
%TO.N,unconnected-(U3-Pad42)*%
X257844284Y-98783201D03*
%TO.N,unconnected-(U3-Pad43)*%
X257724500Y-99775500D03*
%TO.N,/USB_D-*%
X233100000Y-44800000D03*
X254800000Y-83300000D03*
%TO.N,/USB_D+*%
X236600000Y-47900000D03*
X253700000Y-83224500D03*
%TO.N,/SCL*%
X256800000Y-91200000D03*
X268100000Y-71200000D03*
%TO.N,/SDA*%
X268112299Y-72212299D03*
X255900000Y-92600000D03*
%TO.N,/LCD1_DC*%
X254889000Y-115392200D03*
X258375500Y-86500000D03*
%TO.N,/LCD1_CS*%
X253400000Y-86236799D03*
X243281200Y-113724500D03*
%TO.N,/LCD2_DC*%
X249799386Y-85605403D03*
X268112299Y-70112299D03*
%TO.N,/LCD2_CS*%
X268100000Y-69100000D03*
X255200000Y-85074000D03*
%TO.N,/MOSI*%
X259156200Y-115112800D03*
X262700000Y-76100000D03*
X265292358Y-89492358D03*
%TO.N,/SCK*%
X246700000Y-66100000D03*
X253474895Y-92476237D03*
%TO.N,Net-(J2-PadA2)*%
X247875500Y-50400000D03*
%TO.N,Net-(J2-PadA3)*%
X248600000Y-51400000D03*
X260000000Y-51300000D03*
%TO.N,Net-(J2-PadA5)*%
X248800000Y-55500994D03*
%TO.N,Net-(J2-PadA7)*%
X251500000Y-46300000D03*
X248800000Y-57500000D03*
%TO.N,Net-(J2-PadA8)*%
X252026748Y-54387978D03*
X248512022Y-54387978D03*
%TO.N,Net-(J2-PadA10)*%
X252117952Y-53392645D03*
%TO.N,Net-(J2-PadA11)*%
X261400000Y-58300000D03*
X261400000Y-54800000D03*
X253031069Y-52986170D03*
%TO.N,Net-(R22-Pad1)*%
X249200000Y-88000000D03*
X231500000Y-140200000D03*
%TO.N,Net-(R36-Pad1)*%
X252630695Y-88581862D03*
X244000000Y-129700000D03*
%TO.N,Net-(R37-Pad1)*%
X264300000Y-144700000D03*
X254224500Y-88600000D03*
%TO.N,Net-(U2-Pad3)*%
X243763800Y-118389400D03*
%TO.N,Net-(U2-Pad6)*%
X257810000Y-119227600D03*
%TO.N,Net-(U2-Pad4)*%
X251180600Y-119126000D03*
%TO.N,Net-(U2-Pad5)*%
X253314200Y-119375500D03*
%TD*%
D44*
%TO.N,/ENC_A*%
X240150000Y-132300000D02*
X240150000Y-134862500D01*
X240187500Y-129700000D02*
X240187500Y-132262500D01*
%TO.N,/row0*%
X113500000Y-118000000D02*
X113500000Y-118150000D01*
X191776970Y-124000000D02*
X210590654Y-142813684D01*
X118500000Y-118000000D02*
X124500000Y-124000000D01*
X124500000Y-124000000D02*
X191776970Y-124000000D01*
X113500000Y-64000000D02*
X113500000Y-83000000D01*
X110650000Y-83000000D02*
X113500000Y-83000000D01*
X113500000Y-102000000D02*
X113500000Y-118000000D01*
X110650000Y-45000000D02*
X111000000Y-45000000D01*
X113500000Y-118150000D02*
X110650000Y-121000000D01*
X113500000Y-118000000D02*
X118500000Y-118000000D01*
X110650000Y-102000000D02*
X113500000Y-102000000D01*
X113500000Y-83000000D02*
X113500000Y-102000000D01*
X110650000Y-64000000D02*
X113500000Y-64000000D01*
X113500000Y-47500000D02*
X113500000Y-64000000D01*
X111000000Y-45000000D02*
X113500000Y-47500000D01*
X246987500Y-72587500D02*
X246200000Y-71800000D01*
%TO.N,/ENC_B*%
X240187500Y-145100000D02*
X237387500Y-145100000D01*
X240150000Y-147700000D02*
X240150000Y-145137500D01*
X237387500Y-145100000D02*
X234300000Y-142012500D01*
%TO.N,/row1*%
X247936000Y-70923500D02*
X244700000Y-70923500D01*
X211658116Y-142572998D02*
X211658116Y-145658116D01*
X129650000Y-78850000D02*
X132500000Y-78850000D01*
X132500000Y-114000000D02*
X141500000Y-123000000D01*
X141500000Y-123000000D02*
X192085118Y-123000000D01*
X129650000Y-97850000D02*
X132500000Y-97850000D01*
X222248710Y-156248710D02*
X224025688Y-156248710D01*
X130000000Y-40850000D02*
X132500000Y-43350000D01*
X192085118Y-123000000D02*
X211658116Y-142572998D01*
X132500000Y-114000000D02*
X129650000Y-116850000D01*
X132500000Y-97850000D02*
X132500000Y-114000000D01*
X132500000Y-59850000D02*
X132500000Y-78850000D01*
X211658116Y-145658116D02*
X222248710Y-156248710D01*
X129650000Y-59850000D02*
X132500000Y-59850000D01*
X132500000Y-58700000D02*
X132500000Y-59850000D01*
X249600000Y-72587500D02*
X247936000Y-70923500D01*
X132500000Y-43350000D02*
X132500000Y-58700000D01*
X132500000Y-78850000D02*
X132500000Y-97850000D01*
%TO.N,/ENC_SW*%
X262487500Y-140000000D02*
X262487500Y-142500000D01*
X264350000Y-137500000D02*
X264350000Y-138137500D01*
X259675000Y-142475000D02*
X262150000Y-140000000D01*
X264350000Y-138137500D02*
X262487500Y-140000000D01*
%TO.N,/row2*%
X251700000Y-72400000D02*
X249499000Y-70199000D01*
X151500000Y-57850000D02*
X151500000Y-60700000D01*
X232500000Y-158000000D02*
X232500000Y-164723021D01*
X151500000Y-60700000D02*
X151500000Y-76850000D01*
X151500000Y-112000000D02*
X148650000Y-114850000D01*
X151500000Y-95850000D02*
X151500000Y-112000000D01*
X151500000Y-76850000D02*
X151500000Y-95850000D01*
X151500000Y-112000000D02*
X162050000Y-122550000D01*
X235965379Y-154534621D02*
X232500000Y-158000000D01*
X151500000Y-41350000D02*
X151500000Y-57850000D01*
X232500000Y-164723021D02*
X237460717Y-169683738D01*
X211050000Y-122550000D02*
X235965379Y-147465379D01*
X249499000Y-70199000D02*
X243000000Y-70199000D01*
X148650000Y-95850000D02*
X151500000Y-95850000D01*
X235965379Y-147465379D02*
X235965379Y-154534621D01*
X148650000Y-76850000D02*
X151500000Y-76850000D01*
X148650000Y-57850000D02*
X151500000Y-57850000D01*
X149000000Y-38850000D02*
X151500000Y-41350000D01*
X162050000Y-122550000D02*
X211050000Y-122550000D01*
%TO.N,Net-(D4-Pad2)*%
X164500000Y-27555000D02*
X164500000Y-37445000D01*
%TO.N,/row3*%
X250687000Y-69474500D02*
X241700000Y-69474500D01*
X170500000Y-75850000D02*
X170500000Y-94850000D01*
X170500000Y-56850000D02*
X170500000Y-61600000D01*
X167650000Y-56850000D02*
X170500000Y-56850000D01*
X167650000Y-94850000D02*
X170500000Y-94850000D01*
X170500000Y-111000000D02*
X167650000Y-113850000D01*
X253800000Y-72587500D02*
X250687000Y-69474500D01*
X170500000Y-61600000D02*
X170500000Y-75850000D01*
X168000000Y-37850000D02*
X170500000Y-40350000D01*
X170500000Y-94850000D02*
X170500000Y-111000000D01*
X167650000Y-75850000D02*
X170500000Y-75850000D01*
X170500000Y-40350000D02*
X170500000Y-56850000D01*
%TO.N,Net-(D5-Pad2)*%
X183500000Y-29055000D02*
X183500000Y-38945000D01*
%TO.N,Net-(D6-Pad2)*%
X202500000Y-31055000D02*
X202500000Y-40945000D01*
%TO.N,Net-(D7-Pad2)*%
X221500000Y-35055000D02*
X221500000Y-44945000D01*
%TO.N,Net-(D8-Pad2)*%
X107540000Y-53920000D02*
X107540000Y-63810000D01*
%TO.N,Net-(D9-Pad2)*%
X126500000Y-50055000D02*
X126500000Y-59945000D01*
%TO.N,Net-(D10-Pad2)*%
X145500000Y-48055000D02*
X145500000Y-57945000D01*
%TO.N,Net-(D11-Pad2)*%
X164500000Y-46555000D02*
X164500000Y-56445000D01*
%TO.N,Net-(D12-Pad2)*%
X183500000Y-48055000D02*
X183500000Y-57945000D01*
%TO.N,Net-(D13-Pad2)*%
X202500000Y-50055000D02*
X202500000Y-59945000D01*
%TO.N,Net-(D14-Pad2)*%
X221500000Y-54055000D02*
X221500000Y-63945000D01*
%TO.N,Net-(D15-Pad2)*%
X107540000Y-72920000D02*
X107540000Y-82810000D01*
%TO.N,Net-(D16-Pad2)*%
X126500000Y-69055000D02*
X126500000Y-78945000D01*
%TO.N,/col0*%
X226800000Y-51789035D02*
X227500000Y-52489035D01*
X218500000Y-32500000D02*
X219500000Y-31500000D01*
X236587500Y-74087500D02*
X236587500Y-77000000D01*
X238100000Y-67400000D02*
X236587500Y-68912500D01*
X215190000Y-37460000D02*
X218500000Y-34150000D01*
X227500000Y-52489035D02*
X227500000Y-63887208D01*
X228175000Y-65675000D02*
X236587500Y-74087500D01*
X226000000Y-31500000D02*
X226800000Y-32300000D01*
X219500000Y-31500000D02*
X226000000Y-31500000D01*
X218500000Y-34150000D02*
X218500000Y-32500000D01*
X257300000Y-67400000D02*
X238100000Y-67400000D01*
X236587500Y-68912500D02*
X236587500Y-74087500D01*
X262200000Y-72300000D02*
X257300000Y-67400000D01*
X226800000Y-32300000D02*
X226800000Y-51789035D01*
X228175000Y-64562208D02*
X228175000Y-65675000D01*
X227500000Y-63887208D02*
X228175000Y-64562208D01*
%TO.N,/col1*%
X227050000Y-52675431D02*
X226350000Y-51975431D01*
X222500000Y-45450000D02*
X222500000Y-49150000D01*
X227450000Y-77450000D02*
X227450000Y-71075305D01*
X227725000Y-70800305D02*
X227725000Y-64748604D01*
X227725000Y-64748604D02*
X227050000Y-64073604D01*
X222500000Y-49150000D02*
X215190000Y-56460000D01*
X240600000Y-98200000D02*
X230500000Y-88100000D01*
X227050000Y-64073604D02*
X227050000Y-52675431D01*
X236587500Y-79500000D02*
X234000000Y-79500000D01*
X246000000Y-98200000D02*
X240600000Y-98200000D01*
X227450000Y-71075305D02*
X227725000Y-70800305D01*
X230500000Y-88100000D02*
X230500000Y-83000000D01*
X234000000Y-79500000D02*
X231750000Y-81750000D01*
X226350000Y-45000000D02*
X225350000Y-44000000D01*
X226350000Y-51975431D02*
X226350000Y-45000000D01*
X230500000Y-83000000D02*
X231750000Y-81750000D01*
X225350000Y-44000000D02*
X223950000Y-44000000D01*
X231750000Y-81750000D02*
X227450000Y-77450000D01*
X223950000Y-44000000D02*
X222500000Y-45450000D01*
%TO.N,/col2*%
X233000000Y-82000000D02*
X236587500Y-82000000D01*
X238600000Y-88000000D02*
X232000000Y-88000000D01*
X239200000Y-88600000D02*
X238600000Y-88000000D01*
X232000000Y-83000000D02*
X233000000Y-82000000D01*
X239200000Y-88600000D02*
X239200000Y-88992500D01*
X232000000Y-88000000D02*
X232000000Y-83000000D01*
X239200000Y-88992500D02*
X245987500Y-95780000D01*
%TO.N,/col3*%
X241500000Y-89412500D02*
X236587500Y-84500000D01*
X241500000Y-89500000D02*
X241500000Y-89412500D01*
X245480000Y-93480000D02*
X245987500Y-93480000D01*
X241500000Y-89500000D02*
X245480000Y-93480000D01*
%TO.N,GND*%
X264500000Y-96550000D02*
X264500000Y-95500000D01*
X246500000Y-81450000D02*
X248950000Y-81450000D01*
X274500000Y-80250000D02*
X272125001Y-80250000D01*
X247575000Y-136475000D02*
X247575000Y-139975000D01*
X228900000Y-47212500D02*
X228900000Y-48001200D01*
X254730000Y-97720000D02*
X255450000Y-97000000D01*
X248500000Y-110000000D02*
X247000000Y-108500000D01*
X232664000Y-49174400D02*
X239374400Y-49174400D01*
X264500000Y-84000000D02*
X264500000Y-85500000D01*
X248500000Y-81450000D02*
X248500000Y-83100000D01*
X259675000Y-137475000D02*
X262425000Y-137475000D01*
X267000000Y-75550000D02*
X272000000Y-75550000D01*
X264500000Y-80190685D02*
X264500000Y-79325000D01*
X264950000Y-97000000D02*
X265500000Y-97000000D01*
X265300000Y-45950000D02*
X261900000Y-45950000D01*
X273050000Y-76600000D02*
X273050000Y-79321999D01*
X246600000Y-52700000D02*
X246600000Y-55350000D01*
X264950000Y-97000000D02*
X264950000Y-106405000D01*
X240500000Y-108500000D02*
X247000000Y-108500000D01*
X254730000Y-108730000D02*
X254730000Y-98770000D01*
X247575000Y-143525000D02*
X247575000Y-139975000D01*
X245100000Y-51200000D02*
X246600000Y-52700000D01*
X267550000Y-90500000D02*
X266675000Y-90500000D01*
X264950000Y-106405000D02*
X262625000Y-108730000D01*
X261900000Y-45950000D02*
X259016943Y-43066943D01*
X259016943Y-43066943D02*
X257390557Y-43066943D01*
X269000000Y-93500000D02*
X269000000Y-91950000D01*
X263500000Y-91000000D02*
X264500000Y-92000000D01*
X254000000Y-108500000D02*
X250000000Y-108500000D01*
X231565000Y-46747500D02*
X231100000Y-47212500D01*
X249100000Y-81500000D02*
X263190685Y-81500000D01*
X268050000Y-85500000D02*
X269000000Y-84550000D01*
X257175000Y-139975000D02*
X259675000Y-137475000D01*
X239500000Y-62500000D02*
X238000000Y-64000000D01*
X262000000Y-78459315D02*
X262259315Y-78200000D01*
X264500000Y-95540685D02*
X264500000Y-92000000D01*
X243400000Y-147700000D02*
X247575000Y-143525000D01*
X239374400Y-49174400D02*
X239850000Y-49650000D01*
X249100000Y-81500000D02*
X251325000Y-81500000D01*
X267200000Y-48211827D02*
X267200000Y-50600000D01*
X243883106Y-58066894D02*
X241233106Y-58066894D01*
X262259315Y-78200000D02*
X263800000Y-78200000D01*
X231100000Y-47212500D02*
X228900000Y-47212500D01*
X229400000Y-58600000D02*
X229400000Y-58100000D01*
X263190685Y-81500000D02*
X264500000Y-80190685D01*
X263800000Y-77300000D02*
X263800000Y-78200000D01*
X272000000Y-75550000D02*
X273050000Y-76600000D01*
X251000000Y-98000000D02*
X251770000Y-98770000D01*
X248900000Y-116500000D02*
X248900000Y-110400000D01*
X239500000Y-59800000D02*
X239500000Y-62500000D01*
X265300000Y-46311827D02*
X267200000Y-48211827D01*
X267200000Y-62000000D02*
X267200000Y-55500000D01*
X271975000Y-75525000D02*
X271975000Y-66775000D01*
X262450000Y-137500000D02*
X264350000Y-135600000D01*
X266675000Y-85500000D02*
X268050000Y-85500000D01*
X237067214Y-46867214D02*
X239850000Y-49650000D01*
X263500000Y-86500000D02*
X263500000Y-91000000D01*
X242050000Y-147700000D02*
X243400000Y-147700000D01*
X228900000Y-48001200D02*
X229637101Y-48738301D01*
X262000000Y-79325000D02*
X262000000Y-78459315D01*
X234800000Y-64000000D02*
X229400000Y-58600000D01*
X237067214Y-44157812D02*
X237067214Y-46867214D01*
X262625000Y-108730000D02*
X254730000Y-108730000D01*
X265550000Y-75550000D02*
X263800000Y-77300000D01*
X233107825Y-46747500D02*
X231565000Y-46747500D01*
X242050000Y-132300000D02*
X243400000Y-132300000D01*
X271975000Y-66775000D02*
X267200000Y-62000000D01*
X264500000Y-78459315D02*
X264500000Y-79325000D01*
X264950000Y-97000000D02*
X264500000Y-96550000D01*
X238000000Y-64000000D02*
X234800000Y-64000000D01*
X245150000Y-56800000D02*
X243883106Y-58066894D01*
X251770000Y-98770000D02*
X254730000Y-98770000D01*
X243400000Y-132300000D02*
X243550000Y-132450000D01*
X263800000Y-78200000D02*
X264240685Y-78200000D01*
X241233106Y-58066894D02*
X239500000Y-59800000D01*
X266675000Y-85500000D02*
X264500000Y-85500000D01*
X246600000Y-55350000D02*
X245150000Y-56800000D01*
X264500000Y-92000000D02*
X264500000Y-94675000D01*
X273050000Y-79321999D02*
X272123500Y-80248499D01*
X264500000Y-85500000D02*
X263500000Y-86500000D01*
X269000000Y-91950000D02*
X267550000Y-90500000D01*
X254230000Y-108730000D02*
X254000000Y-108500000D01*
X239850000Y-49650000D02*
X239850000Y-51200000D01*
X265500000Y-97000000D02*
X269000000Y-93500000D01*
X250000000Y-108500000D02*
X248500000Y-110000000D01*
X247575000Y-139975000D02*
X257175000Y-139975000D01*
X248900000Y-110400000D02*
X248500000Y-110000000D01*
X263190685Y-81500000D02*
X263190685Y-82690685D01*
X263190685Y-82690685D02*
X264500000Y-84000000D01*
X254730000Y-108730000D02*
X254230000Y-108730000D01*
X243550000Y-132450000D02*
X247575000Y-136475000D01*
X239850000Y-51200000D02*
X245100000Y-51200000D01*
X264240685Y-78200000D02*
X264500000Y-78459315D01*
X265550000Y-75550000D02*
X267000000Y-75550000D01*
X254730000Y-98770000D02*
X254730000Y-97720000D01*
X245175000Y-139975000D02*
X247575000Y-139975000D01*
%TO.N,/row4*%
X189500000Y-41350000D02*
X189500000Y-57850000D01*
X189500000Y-76850000D02*
X189500000Y-95850000D01*
X189500000Y-112000000D02*
X186650000Y-114850000D01*
X187000000Y-38850000D02*
X189500000Y-41350000D01*
X240684699Y-68750000D02*
X240410199Y-69024500D01*
X186650000Y-57850000D02*
X189500000Y-57850000D01*
X186650000Y-95850000D02*
X189500000Y-95850000D01*
X189500000Y-57850000D02*
X189500000Y-76850000D01*
X252250000Y-68750000D02*
X240684699Y-68750000D01*
X189500000Y-95850000D02*
X189500000Y-112000000D01*
X255900000Y-72400000D02*
X252250000Y-68750000D01*
X186650000Y-76850000D02*
X189500000Y-76850000D01*
%TO.N,/row5*%
X253800000Y-68300000D02*
X239849098Y-68300000D01*
X208500000Y-59850000D02*
X208500000Y-63800000D01*
X208500000Y-97850000D02*
X208500000Y-114000000D01*
X205650000Y-97850000D02*
X208500000Y-97850000D01*
X205650000Y-59850000D02*
X208500000Y-59850000D01*
X205650000Y-78850000D02*
X208500000Y-78850000D01*
X208500000Y-114000000D02*
X205650000Y-116850000D01*
X239849098Y-68300000D02*
X239074549Y-69074549D01*
X206000000Y-40850000D02*
X208500000Y-43350000D01*
X258000000Y-72500000D02*
X253800000Y-68300000D01*
X208500000Y-63800000D02*
X208500000Y-78850000D01*
X208500000Y-43350000D02*
X208500000Y-59850000D01*
X208500000Y-78850000D02*
X208500000Y-97850000D01*
%TO.N,/row6*%
X255550000Y-67850000D02*
X260100000Y-72400000D01*
X224650000Y-121000000D02*
X224650000Y-118850000D01*
X226340000Y-83000000D02*
X226420000Y-83080000D01*
X226600000Y-52861827D02*
X226600000Y-64200000D01*
X227000000Y-83660000D02*
X227000000Y-99650000D01*
X227000000Y-82500000D02*
X226420000Y-83080000D01*
X237400000Y-69724500D02*
X239274500Y-67850000D01*
X224650000Y-83000000D02*
X226340000Y-83000000D01*
X224650000Y-45000000D02*
X225900000Y-46250000D01*
X224650000Y-64000000D02*
X226340000Y-64000000D01*
X227000000Y-99650000D02*
X226575000Y-100075000D01*
X226420000Y-64080000D02*
X227000000Y-64660000D01*
X227000000Y-69800000D02*
X227000000Y-82500000D01*
X226575000Y-100075000D02*
X224650000Y-102000000D01*
X225900000Y-46250000D02*
X225900000Y-52161827D01*
X228000000Y-101500000D02*
X226575000Y-100075000D01*
X224650000Y-118850000D02*
X228000000Y-115500000D01*
X228000000Y-115500000D02*
X228000000Y-101500000D01*
X226420000Y-83080000D02*
X227000000Y-83660000D01*
X227000000Y-64660000D02*
X227000000Y-69800000D01*
X239274500Y-67850000D02*
X255550000Y-67850000D01*
X225900000Y-52161827D02*
X226600000Y-52861827D01*
X226340000Y-64000000D02*
X226420000Y-64080000D01*
%TO.N,Net-(D17-Pad2)*%
X145500000Y-67055000D02*
X145500000Y-76945000D01*
%TO.N,Net-(D18-Pad2)*%
X164500000Y-65555000D02*
X164500000Y-75445000D01*
%TO.N,Net-(D19-Pad2)*%
X183500000Y-67055000D02*
X183500000Y-76945000D01*
%TO.N,Net-(D20-Pad2)*%
X202500000Y-69055000D02*
X202500000Y-78945000D01*
%TO.N,Net-(D21-Pad2)*%
X221500000Y-73055000D02*
X221500000Y-82945000D01*
%TO.N,Net-(D22-Pad2)*%
X107500000Y-92110000D02*
X107500000Y-102000000D01*
%TO.N,Net-(D23-Pad2)*%
X126460000Y-88245000D02*
X126460000Y-98135000D01*
%TO.N,Net-(D24-Pad2)*%
X145460000Y-86245000D02*
X145460000Y-96135000D01*
%TO.N,Net-(D25-Pad2)*%
X164460000Y-84745000D02*
X164460000Y-94635000D01*
%TO.N,Net-(D26-Pad2)*%
X183460000Y-86245000D02*
X183460000Y-96135000D01*
%TO.N,Net-(D27-Pad2)*%
X202460000Y-88245000D02*
X202460000Y-98135000D01*
%TO.N,Net-(D28-Pad2)*%
X221460000Y-92245000D02*
X221460000Y-102135000D01*
%TO.N,Net-(D29-Pad2)*%
X107540000Y-110920000D02*
X107540000Y-120810000D01*
%TO.N,Net-(D30-Pad2)*%
X126500000Y-107055000D02*
X126500000Y-116945000D01*
%TO.N,Net-(D31-Pad2)*%
X145500000Y-105055000D02*
X145500000Y-114945000D01*
%TO.N,Net-(D32-Pad2)*%
X164500000Y-103555000D02*
X164500000Y-113445000D01*
%TO.N,Net-(D33-Pad2)*%
X183500000Y-105055000D02*
X183500000Y-114945000D01*
%TO.N,Net-(C1-Pad1)*%
X253500000Y-94675000D02*
X253500000Y-96950000D01*
%TO.N,Net-(D35-Pad2)*%
X221540000Y-110920000D02*
X221540000Y-120810000D01*
%TO.N,Net-(D36-Pad2)*%
X212924106Y-145147136D02*
X217352864Y-145147136D01*
X217352864Y-145147136D02*
X220000000Y-142500000D01*
X220000000Y-142500000D02*
X220000000Y-138211060D01*
%TO.N,Net-(D37-Pad2)*%
X233353911Y-155146089D02*
X233353911Y-151564971D01*
X226359140Y-158582162D02*
X229917838Y-158582162D01*
X229917838Y-158582162D02*
X233353911Y-155146089D01*
%TO.N,Net-(D38-Pad2)*%
X242967873Y-172017190D02*
X246788940Y-168196123D01*
X239794169Y-172017190D02*
X242967873Y-172017190D01*
X246788940Y-168196123D02*
X246788940Y-165000000D01*
%TO.N,/col4*%
X241000000Y-86000000D02*
X243500000Y-88500000D01*
X243500000Y-88500000D02*
X243500000Y-88680000D01*
X243500000Y-88680000D02*
X246000000Y-91180000D01*
%TO.N,/col5*%
X245987500Y-89000000D02*
X245987500Y-87512997D01*
X243500000Y-85825000D02*
X244324503Y-85825000D01*
X245987500Y-87512997D02*
X246000000Y-87500497D01*
X244324503Y-85825000D02*
X246000000Y-87500497D01*
%TO.N,/NRST*%
X271000000Y-105435000D02*
X262625000Y-113810000D01*
X268540685Y-88500000D02*
X269000000Y-88500000D01*
X267540685Y-87500000D02*
X268540685Y-88500000D01*
X268824503Y-88500000D02*
X268775500Y-88549003D01*
X253710000Y-113810000D02*
X262625000Y-113810000D01*
X253600000Y-113700000D02*
X253710000Y-113810000D01*
X271500000Y-89000000D02*
X270500000Y-90000000D01*
X271500000Y-88412500D02*
X271500000Y-89000000D01*
X271000000Y-90500000D02*
X271000000Y-105435000D01*
X269000000Y-88500000D02*
X268824503Y-88500000D01*
X266675000Y-87500000D02*
X267540685Y-87500000D01*
X240500000Y-113000000D02*
X247000000Y-113000000D01*
X270500000Y-90000000D02*
X271000000Y-90500000D01*
X247000000Y-113000000D02*
X247000000Y-116500000D01*
%TO.N,Net-(C3-Pad1)*%
X243250000Y-56800000D02*
X243250000Y-54437500D01*
X242250000Y-55800000D02*
X243250000Y-56800000D01*
X239850000Y-55800000D02*
X242250000Y-55800000D01*
%TO.N,Net-(C2-Pad1)*%
X249550000Y-83950000D02*
X249550000Y-82450000D01*
X248500000Y-85000000D02*
X249550000Y-83950000D01*
X249550000Y-82450000D02*
X250000000Y-82000000D01*
X250000000Y-82000000D02*
X251325000Y-82000000D01*
%TO.N,+3.3V*%
X268950000Y-90000000D02*
X266675000Y-90000000D01*
X250100000Y-96100000D02*
X249800000Y-96400000D01*
X239000000Y-126700000D02*
X258280000Y-126700000D01*
X259950000Y-100500000D02*
X263050000Y-97400000D01*
X263050000Y-97400000D02*
X263050000Y-97000000D01*
X235330325Y-46747500D02*
X234852500Y-46747500D01*
X253000000Y-94675000D02*
X252425000Y-94675000D01*
X241000000Y-84087500D02*
X243412500Y-84087500D01*
X259950000Y-100500000D02*
X256775500Y-100500000D01*
X238200000Y-127500000D02*
X239000000Y-126700000D01*
X264000000Y-92524598D02*
X264000000Y-94675000D01*
X265809315Y-90000000D02*
X265500000Y-90309315D01*
X270000000Y-83500000D02*
X270500000Y-84000000D01*
X228000000Y-50500000D02*
X227950000Y-50550000D01*
X250100000Y-99500000D02*
X253400000Y-99500000D01*
X249800000Y-99200000D02*
X250100000Y-99500000D01*
X265500000Y-90309315D02*
X265500000Y-90700000D01*
X265800000Y-138512500D02*
X265800000Y-134200000D01*
X275600000Y-81050000D02*
X275600000Y-73387500D01*
X269623500Y-82148501D02*
X269623500Y-83376500D01*
X249800000Y-96400000D02*
X249800000Y-99200000D01*
X234852500Y-46747500D02*
X233400000Y-48200000D01*
X238412500Y-82000000D02*
X238412500Y-84500000D01*
X259240000Y-125740000D02*
X259240000Y-130390000D01*
X263387701Y-91912299D02*
X264000000Y-92524598D01*
X240187500Y-137487500D02*
X238200000Y-135500000D01*
X238462500Y-79550000D02*
X248500000Y-79550000D01*
X265500000Y-91000000D02*
X266000000Y-91500000D01*
X238412500Y-79500000D02*
X238412500Y-77000000D01*
X240587500Y-84500000D02*
X241000000Y-84087500D01*
X274500000Y-82150000D02*
X275600000Y-81050000D01*
X269623500Y-83376500D02*
X269500000Y-83500000D01*
X264107641Y-81607642D02*
X264107641Y-81798326D01*
X264600000Y-90700000D02*
X264500000Y-90800000D01*
X228818198Y-65681802D02*
X235374096Y-72237700D01*
X270000000Y-86000000D02*
X266675000Y-86000000D01*
X271500000Y-86500000D02*
X270500000Y-85500000D01*
X238412500Y-73812500D02*
X238412500Y-77000000D01*
X272123500Y-82376500D02*
X270500000Y-84000000D01*
X259950000Y-106419600D02*
X258546600Y-107823000D01*
X233400000Y-48200000D02*
X231200000Y-48200000D01*
X265200000Y-133600000D02*
X262450000Y-133600000D01*
X263050000Y-97000000D02*
X264000000Y-96050000D01*
X251325000Y-81000000D02*
X262275500Y-81000000D01*
X266675000Y-91000000D02*
X265500000Y-91000000D01*
X272812500Y-70600000D02*
X272812500Y-68300000D01*
X262450000Y-133600000D02*
X262450000Y-135100000D01*
X228600000Y-49900000D02*
X228000000Y-50500000D01*
X269500000Y-83500000D02*
X270000000Y-83500000D01*
X259240000Y-125740000D02*
X261180000Y-123800000D01*
X265809315Y-83500000D02*
X266675000Y-83500000D01*
X259950000Y-100500000D02*
X259950000Y-106419600D01*
X262275500Y-81000000D02*
X262500000Y-80775500D01*
X258280000Y-126700000D02*
X259240000Y-125740000D01*
X256775500Y-100500000D02*
X255775500Y-99500000D01*
X227950000Y-50550000D02*
X227950000Y-63700812D01*
X274500000Y-82150000D02*
X272124999Y-82150000D01*
X228818198Y-64569010D02*
X228818198Y-65681802D01*
X256794000Y-121894600D02*
X259274600Y-121894600D01*
X269500000Y-86950000D02*
X269500000Y-89550000D01*
X266675000Y-90000000D02*
X265809315Y-90000000D01*
X259240000Y-130390000D02*
X262450000Y-133600000D01*
X251000000Y-96100000D02*
X250100000Y-96100000D01*
X237800000Y-73200000D02*
X238412500Y-73812500D01*
X259274600Y-121894600D02*
X261180000Y-123800000D01*
X264107641Y-81798326D02*
X265809315Y-83500000D01*
X272123500Y-82148501D02*
X272123500Y-82376500D01*
X229500000Y-49900000D02*
X229500000Y-51450000D01*
X231200000Y-48200000D02*
X229500000Y-49900000D01*
X240187500Y-137487500D02*
X240187500Y-142487500D01*
X264312500Y-140000000D02*
X265800000Y-138512500D01*
X270500000Y-85500000D02*
X270000000Y-86000000D01*
X270500000Y-84000000D02*
X270500000Y-85500000D01*
X266675000Y-83500000D02*
X269500000Y-83500000D01*
X272000000Y-77450000D02*
X267000000Y-77450000D01*
X264000000Y-96050000D02*
X264000000Y-94675000D01*
X269000000Y-86450000D02*
X269500000Y-86950000D01*
X265500000Y-90700000D02*
X265500000Y-91000000D01*
X265500000Y-90700000D02*
X264600000Y-90700000D01*
X251000000Y-96100000D02*
X252425000Y-94675000D01*
X251325000Y-81000000D02*
X249950000Y-81000000D01*
X269500000Y-89550000D02*
X269000000Y-90050000D01*
X267000000Y-77450000D02*
X266050000Y-77450000D01*
X229500000Y-49900000D02*
X228600000Y-49900000D01*
X265800000Y-134200000D02*
X265200000Y-133600000D01*
X227950000Y-63700812D02*
X228818198Y-64569010D01*
X238412500Y-82000000D02*
X238412500Y-79500000D01*
X275600000Y-73387500D02*
X272812500Y-70600000D01*
X266050000Y-77450000D02*
X265000000Y-78500000D01*
X249950000Y-81000000D02*
X248500000Y-79550000D01*
X238412500Y-84500000D02*
X240587500Y-84500000D01*
X264107641Y-81607642D02*
X265000000Y-80715283D01*
X235374096Y-72237700D02*
X235762300Y-72237700D01*
X238200000Y-135500000D02*
X238200000Y-127500000D01*
X265000000Y-80715283D02*
X265000000Y-79325000D01*
D45*
%TO.N,VBUS*%
X276200000Y-62200000D02*
X276200000Y-70600000D01*
X276200000Y-70600000D02*
X277200000Y-71600000D01*
D44*
X236100000Y-43000000D02*
X235735510Y-43364490D01*
X249803474Y-47774495D02*
X249438984Y-48138985D01*
D45*
X264000000Y-50000000D02*
X276200000Y-62200000D01*
D44*
X236100000Y-42501340D02*
X236100000Y-43000000D01*
D45*
X261500000Y-50000000D02*
X264000000Y-50000000D01*
X239600000Y-47700000D02*
X241200000Y-47700000D01*
X258000000Y-50000000D02*
X261500000Y-50000000D01*
X274100000Y-117500000D02*
X272600000Y-119000000D01*
X241200000Y-47700000D02*
X242650000Y-49150000D01*
D44*
X233800000Y-42100000D02*
X233435510Y-42464490D01*
D45*
X272600000Y-119000000D02*
X266500000Y-119000000D01*
D44*
X252058736Y-48096684D02*
X252058736Y-48723515D01*
D45*
X244150000Y-49000000D02*
X244000000Y-49150000D01*
X261500000Y-48250000D02*
X261900000Y-47850000D01*
X261500000Y-50000000D02*
X261500000Y-48250000D01*
X246600000Y-120600000D02*
X243400000Y-123800000D01*
X277200000Y-71600000D02*
X277200000Y-95300000D01*
X247000000Y-49000000D02*
X244150000Y-49000000D01*
D44*
X252058736Y-48723515D02*
X251791125Y-48991126D01*
D45*
X277200000Y-95300000D02*
X274100000Y-98400000D01*
D44*
X233800000Y-41601340D02*
X233800000Y-42100000D01*
D45*
X239400000Y-47500000D02*
X239600000Y-47700000D01*
X242650000Y-49150000D02*
X244000000Y-49150000D01*
X274100000Y-98400000D02*
X274100000Y-117500000D01*
D44*
X249803474Y-47275835D02*
X249803474Y-47774495D01*
D45*
X265300000Y-48700000D02*
X265300000Y-47850000D01*
X264000000Y-50000000D02*
X265300000Y-48700000D01*
X264900000Y-120600000D02*
X246600000Y-120600000D01*
X266500000Y-119000000D02*
X264900000Y-120600000D01*
D44*
%TO.N,/SWDIO*%
X259700000Y-88700000D02*
X259700000Y-84563604D01*
X257636396Y-82500000D02*
X251325000Y-82500000D01*
X259700000Y-84563604D02*
X257636396Y-82500000D01*
X254000000Y-111000000D02*
X254270000Y-111270000D01*
X254270000Y-111270000D02*
X262625000Y-111270000D01*
D46*
%TO.N,/USB_CONN_D-*%
X232400000Y-44510050D02*
X232810050Y-44100000D01*
X235043765Y-40124465D02*
X235000500Y-40081200D01*
X232400000Y-44510050D02*
X231989950Y-44100000D01*
X233107825Y-46097501D02*
X232400000Y-45389676D01*
X232810050Y-44100000D02*
X234105594Y-44100000D01*
X235043765Y-41249600D02*
X235043765Y-40124465D01*
X232400000Y-45389676D02*
X232400000Y-44510050D01*
X231989950Y-44100000D02*
X230200000Y-44100000D01*
X234105594Y-44100000D02*
X234602797Y-43602797D01*
X235043765Y-41360915D02*
X235043765Y-41249600D01*
X234555228Y-41849452D02*
X235043765Y-41360915D01*
%TO.N,/USB_CONN_D+*%
X234400000Y-42795038D02*
X234400000Y-42800000D01*
X233601461Y-47397499D02*
X234100000Y-46898960D01*
X234100000Y-46898960D02*
X234100000Y-46200000D01*
X235306982Y-42123068D02*
X234807483Y-42622567D01*
X234572471Y-42622567D02*
X234400000Y-42795038D01*
X233107825Y-47397499D02*
X233601461Y-47397499D01*
X234807483Y-42622567D02*
X234572471Y-42622567D01*
X234100000Y-46200000D02*
X234100000Y-46045477D01*
X234100000Y-46045477D02*
X234145477Y-46000000D01*
D44*
%TO.N,Net-(J1-PadB5)*%
X230262500Y-46225000D02*
X228049500Y-46225000D01*
X228049500Y-46225000D02*
X227524500Y-45700000D01*
X231100000Y-45387500D02*
X230262500Y-46225000D01*
%TO.N,/SWCLK*%
X254775500Y-77724500D02*
X253275500Y-77724500D01*
X253000000Y-78000000D02*
X253000000Y-79325000D01*
X253275500Y-77724500D02*
X253000000Y-78000000D01*
%TO.N,Net-(J1-PadA5)*%
X230619927Y-43494927D02*
X233464310Y-43494927D01*
X228900000Y-45387500D02*
X228900000Y-44000000D01*
X229525000Y-43375000D02*
X230500000Y-43375000D01*
X230500000Y-43375000D02*
X230619927Y-43494927D01*
X228900000Y-44000000D02*
X229525000Y-43375000D01*
X233464310Y-43494927D02*
X233629619Y-43329618D01*
%TO.N,/SWO*%
X259500000Y-79325000D02*
X259500000Y-77500000D01*
X259500000Y-77500000D02*
X260000000Y-77000000D01*
%TO.N,Net-(C4-Pad1)*%
X239850000Y-53500000D02*
X233550000Y-53500000D01*
X229500000Y-53550000D02*
X229500000Y-56100000D01*
X229550000Y-53500000D02*
X229500000Y-53550000D01*
X233550000Y-53500000D02*
X229550000Y-53500000D01*
%TO.N,/LCD2_RST*%
X251325000Y-84500000D02*
X250024598Y-84500000D01*
X266600000Y-68000000D02*
X265900000Y-67300000D01*
X265900000Y-67300000D02*
X265900000Y-64725000D01*
X268100000Y-68000000D02*
X266600000Y-68000000D01*
X250024598Y-84500000D02*
X249912299Y-84612299D01*
%TO.N,Net-(R11-Pad2)*%
X245175000Y-137475000D02*
X242137500Y-137475000D01*
X242012500Y-134900000D02*
X242012500Y-137487500D01*
%TO.N,Net-(R13-Pad2)*%
X242012500Y-142487500D02*
X242012500Y-145100000D01*
X242137500Y-142475000D02*
X245175000Y-142475000D01*
%TO.N,/RCC_OSC_IN*%
X267800000Y-86788173D02*
X267800000Y-86759315D01*
X268775500Y-87549500D02*
X268561327Y-87549500D01*
X267540685Y-86500000D02*
X266675000Y-86500000D01*
X269623500Y-80248499D02*
X269623500Y-79376500D01*
X268561327Y-87549500D02*
X267800000Y-86788173D01*
X267800000Y-86759315D02*
X267540685Y-86500000D01*
X269623500Y-79376500D02*
X270000000Y-79000000D01*
%TO.N,/LCD1_RST*%
X253234010Y-84349500D02*
X252884510Y-84000000D01*
X255015021Y-87988378D02*
X258211622Y-87988378D01*
X259100000Y-84600000D02*
X258849500Y-84349500D01*
X259100000Y-87100000D02*
X259100000Y-84600000D01*
X258849500Y-84349500D02*
X253234010Y-84349500D01*
X258211622Y-87988378D02*
X259100000Y-87100000D01*
X252884510Y-84000000D02*
X251325000Y-84000000D01*
X250850400Y-114579400D02*
X250850400Y-115902100D01*
X250850400Y-115902100D02*
X250799600Y-115952900D01*
%TO.N,unconnected-(U3-Pad32)*%
X262000000Y-97311300D02*
X261724500Y-97586800D01*
X262000000Y-94675000D02*
X262000000Y-97311300D01*
%TO.N,unconnected-(U3-Pad33)*%
X261424195Y-96861800D02*
X261500000Y-96861800D01*
X260275500Y-98552000D02*
X260999500Y-97828000D01*
X260999500Y-97286495D02*
X261424195Y-96861800D01*
X261500000Y-96861800D02*
X261500000Y-94675000D01*
X260999500Y-97828000D02*
X260999500Y-97286495D01*
%TO.N,unconnected-(U3-Pad34)*%
X260275000Y-97374599D02*
X261000000Y-96649599D01*
X260275000Y-97510600D02*
X260275000Y-97374599D01*
X261000000Y-96649599D02*
X261000000Y-95540685D01*
%TO.N,unconnected-(U3-Pad35)*%
X260500000Y-96090600D02*
X260223000Y-96367600D01*
X260500000Y-94675000D02*
X260500000Y-96090600D01*
%TO.N,unconnected-(U3-Pad39)*%
X259550500Y-98637413D02*
X259550500Y-97473100D01*
X259323041Y-98864872D02*
X259550500Y-98637413D01*
X259550500Y-97473100D02*
X258500000Y-96422600D01*
X258500000Y-96422600D02*
X258500000Y-94675000D01*
%TO.N,unconnected-(U3-Pad40)*%
X258173968Y-97150437D02*
X258000000Y-96976469D01*
X258569284Y-98594030D02*
X258987572Y-98175742D01*
X258987572Y-97575132D02*
X258562877Y-97150437D01*
X258987572Y-98175742D02*
X258987572Y-97575132D01*
X258749800Y-99775500D02*
X258569284Y-99594984D01*
X258569284Y-99594984D02*
X258569284Y-98594030D01*
X258000000Y-96976469D02*
X258000000Y-94675000D01*
X258562877Y-97150437D02*
X258173968Y-97150437D01*
%TO.N,unconnected-(U3-Pad41)*%
X257500000Y-97112865D02*
X257500000Y-94675000D01*
X258262572Y-97875437D02*
X257500000Y-97112865D01*
%TO.N,unconnected-(U3-Pad42)*%
X257000000Y-97938917D02*
X257000000Y-94675000D01*
X257844284Y-98783201D02*
X257000000Y-97938917D01*
%TO.N,unconnected-(U3-Pad43)*%
X256500000Y-98551000D02*
X256500000Y-94675000D01*
X257724500Y-99775500D02*
X256500000Y-98551000D01*
D46*
%TO.N,/USB_D-*%
X253410050Y-83924500D02*
X254175500Y-83924500D01*
X234032824Y-44800000D02*
X235330325Y-46097501D01*
X252985550Y-83500000D02*
X253410050Y-83924500D01*
X254175500Y-83924500D02*
X254800000Y-83300000D01*
X233100000Y-44800000D02*
X234032824Y-44800000D01*
X251325000Y-83500000D02*
X252985550Y-83500000D01*
%TO.N,/USB_D+*%
X236600000Y-47900000D02*
X235832826Y-47900000D01*
X235832826Y-47900000D02*
X235330325Y-47397499D01*
X251325000Y-83000000D02*
X253475500Y-83000000D01*
X253475500Y-83000000D02*
X253700000Y-83224500D01*
D44*
%TO.N,/SCL*%
X256800000Y-92800000D02*
X256800000Y-91200000D01*
X254500000Y-93809315D02*
X254759315Y-93550000D01*
X265587500Y-71200000D02*
X259100000Y-64712500D01*
X254759315Y-93550000D02*
X256050000Y-93550000D01*
X256050000Y-93550000D02*
X256800000Y-92800000D01*
X254500000Y-94675000D02*
X254500000Y-93809315D01*
X270987500Y-68312500D02*
X268100000Y-71200000D01*
X268100000Y-71200000D02*
X265587500Y-71200000D01*
%TO.N,/SDA*%
X264912299Y-72212299D02*
X257412500Y-64712500D01*
X254000000Y-93672919D02*
X254000000Y-94675000D01*
X270987500Y-70600000D02*
X269724598Y-70600000D01*
X269724598Y-70600000D02*
X268112299Y-72212299D01*
X255072919Y-92600000D02*
X254000000Y-93672919D01*
X255900000Y-92600000D02*
X255072919Y-92600000D01*
X257412500Y-64712500D02*
X256800000Y-64712500D01*
X268112299Y-72212299D02*
X264912299Y-72212299D01*
%TO.N,/LCD1_DC*%
X254889000Y-116611400D02*
X254736600Y-116763800D01*
X252200000Y-86500000D02*
X251325000Y-86500000D01*
X254538201Y-86961799D02*
X252661799Y-86961799D01*
X255000000Y-86500000D02*
X254538201Y-86961799D01*
X252661799Y-86961799D02*
X252200000Y-86500000D01*
X258375500Y-86500000D02*
X255000000Y-86500000D01*
X254889000Y-115392200D02*
X254889000Y-116611400D01*
%TO.N,/LCD1_CS*%
X251325000Y-86000000D02*
X253163201Y-86000000D01*
X253163201Y-86000000D02*
X253400000Y-86236799D01*
X243281200Y-113724500D02*
X243281200Y-115013100D01*
%TO.N,/LCD2_DC*%
X266212299Y-70112299D02*
X261400000Y-65300000D01*
X268112299Y-70112299D02*
X266212299Y-70112299D01*
X261400000Y-65300000D02*
X261400000Y-64712500D01*
X249904789Y-85500000D02*
X249799386Y-85605403D01*
X251325000Y-85500000D02*
X249904789Y-85500000D01*
%TO.N,/LCD2_CS*%
X263700000Y-66300000D02*
X263700000Y-64700000D01*
X255200000Y-85074000D02*
X255126000Y-85000000D01*
X266500000Y-69100000D02*
X263700000Y-66300000D01*
X255126000Y-85000000D02*
X251325000Y-85000000D01*
X268100000Y-69100000D02*
X266500000Y-69100000D01*
%TO.N,/MOSI*%
X263700000Y-75100000D02*
X262700000Y-76100000D01*
X255900000Y-66800000D02*
X258400000Y-66800000D01*
X254400000Y-65300000D02*
X255900000Y-66800000D01*
X259334000Y-116283100D02*
X259334000Y-115290600D01*
X259334000Y-115290600D02*
X259156200Y-115112800D01*
X263700000Y-72100000D02*
X263700000Y-75100000D01*
X258400000Y-66800000D02*
X263700000Y-72100000D01*
X265292358Y-89492358D02*
X266667358Y-89492358D01*
X254400000Y-64712500D02*
X254400000Y-65300000D01*
%TO.N,/SCK*%
X252100000Y-64712500D02*
X248087500Y-64712500D01*
X253451132Y-92500000D02*
X251325000Y-92500000D01*
X248087500Y-64712500D02*
X246700000Y-66100000D01*
X253474895Y-92476237D02*
X253451132Y-92500000D01*
%TO.N,Net-(D1-Pad2)*%
X107540000Y-34920000D02*
X107540000Y-44810000D01*
%TO.N,Net-(D2-Pad2)*%
X126500000Y-31055000D02*
X126500000Y-40945000D01*
X126540000Y-40810000D02*
X126540000Y-30920000D01*
%TO.N,Net-(D3-Pad2)*%
X145500000Y-29055000D02*
X145500000Y-38945000D01*
%TO.N,Net-(D34-Pad2)*%
X202540000Y-106920000D02*
X202540000Y-116810000D01*
%TO.N,Net-(D39-Pad1)*%
X245112500Y-53562500D02*
X244000000Y-52450000D01*
X245112500Y-54400000D02*
X245112500Y-53562500D01*
X244000000Y-52450000D02*
X244000000Y-51850000D01*
%TO.N,Net-(J2-PadA2)*%
X248075000Y-48666128D02*
X248270564Y-48470564D01*
X247875500Y-50400000D02*
X248075000Y-50200500D01*
X248075000Y-50200500D02*
X248075000Y-48666128D01*
%TO.N,Net-(J2-PadA3)*%
X265900000Y-57200000D02*
X265900000Y-62900000D01*
X248700000Y-50100000D02*
X248700000Y-48677524D01*
X248600000Y-51400000D02*
X248600000Y-50200000D01*
X248700000Y-48677524D02*
X248738762Y-48638762D01*
X260000000Y-51300000D02*
X265900000Y-57200000D01*
X248600000Y-50200000D02*
X248700000Y-50100000D01*
%TO.N,Net-(J2-PadA5)*%
X249450000Y-54850994D02*
X249450000Y-49212475D01*
X247000000Y-61100000D02*
X247000000Y-57300994D01*
X248800000Y-55500994D02*
X249450000Y-54850994D01*
X247600000Y-61700000D02*
X247000000Y-61100000D01*
X247000000Y-57300994D02*
X248800000Y-55500994D01*
X249450000Y-49212475D02*
X249662475Y-49000000D01*
X253400000Y-61700000D02*
X247600000Y-61700000D01*
X254400000Y-62700000D02*
X253400000Y-61700000D01*
%TO.N,Net-(J2-PadA6)*%
X250100000Y-55300000D02*
X250100000Y-49200000D01*
X253545000Y-58600000D02*
X248200000Y-58600000D01*
X250611149Y-48248533D02*
X250379841Y-48479841D01*
X248500000Y-56600000D02*
X248800000Y-56600000D01*
X247800000Y-57300000D02*
X248500000Y-56600000D01*
X251306982Y-47823068D02*
X250881517Y-48248533D01*
X256800000Y-62887500D02*
X254700000Y-60787500D01*
X254700000Y-59755000D02*
X253545000Y-58600000D01*
X254700000Y-60787500D02*
X254700000Y-59755000D01*
X247800000Y-58200000D02*
X247800000Y-57300000D01*
X250881517Y-48248533D02*
X250611149Y-48248533D01*
X248200000Y-58600000D02*
X247800000Y-58200000D01*
X248800000Y-56600000D02*
X250100000Y-55300000D01*
%TO.N,Net-(J2-PadA7)*%
X249000706Y-57500000D02*
X250600000Y-55900706D01*
X250600706Y-55900000D02*
X250600000Y-55900706D01*
X260216443Y-61771057D02*
X260216443Y-56716443D01*
X250600000Y-55900706D02*
X250600000Y-49340950D01*
X250600000Y-49340950D02*
X250620475Y-49320475D01*
X259100000Y-62887500D02*
X260216443Y-61771057D01*
X260216443Y-56716443D02*
X259400000Y-55900000D01*
X251500000Y-46604680D02*
X251500000Y-46300000D01*
X248800000Y-57500000D02*
X249000706Y-57500000D01*
X250555228Y-47549452D02*
X251500000Y-46604680D01*
X259400000Y-55900000D02*
X250600706Y-55900000D01*
%TO.N,Net-(J2-PadA8)*%
X246550000Y-56350000D02*
X248512022Y-54387978D01*
X251072014Y-54327986D02*
X251072014Y-49500000D01*
X251712500Y-62500000D02*
X247600000Y-62500000D01*
X252026748Y-54387978D02*
X251132006Y-54387978D01*
X246550000Y-61450000D02*
X246550000Y-56350000D01*
X251132006Y-54387978D02*
X251072014Y-54327986D01*
X247600000Y-62500000D02*
X246550000Y-61450000D01*
%TO.N,Net-(J2-PadA10)*%
X252000000Y-53274693D02*
X252000000Y-49900000D01*
X252117952Y-53417952D02*
X252850000Y-54150000D01*
X252117952Y-53392645D02*
X252117952Y-53417952D01*
X252850000Y-54150000D02*
X259150000Y-54150000D01*
X263700000Y-58700000D02*
X259150000Y-54150000D01*
X263700000Y-62875000D02*
X263700000Y-58700000D01*
X252117952Y-53392645D02*
X252000000Y-53274693D01*
%TO.N,Net-(J2-PadA11)*%
X261400000Y-58300000D02*
X261400000Y-62887500D01*
X253031069Y-52986170D02*
X252452187Y-52407288D01*
X259586170Y-52986170D02*
X261400000Y-54800000D01*
X252452187Y-52407288D02*
X252452187Y-50052187D01*
X253031069Y-52986170D02*
X259586170Y-52986170D01*
%TO.N,Net-(D41-Pad2)*%
X262050000Y-100500000D02*
X262050000Y-102233200D01*
X262050000Y-102233200D02*
X262625000Y-102808200D01*
X262625000Y-102808200D02*
X262625000Y-103650000D01*
%TO.N,Net-(R22-Pad1)*%
X249200000Y-88000000D02*
X251325000Y-88000000D01*
X234300000Y-140187500D02*
X231512500Y-140187500D01*
X231512500Y-140187500D02*
X231500000Y-140200000D01*
%TO.N,Net-(R23-Pad1)*%
X249800000Y-75250000D02*
X250250000Y-75700000D01*
X253900000Y-76150000D02*
X254600000Y-76850000D01*
X255000000Y-76850000D02*
X255500000Y-77350000D01*
X248337500Y-75250000D02*
X249800000Y-75250000D01*
X255500000Y-77350000D02*
X255500000Y-79325000D01*
X252150000Y-76150000D02*
X253900000Y-76150000D01*
X254600000Y-76850000D02*
X255000000Y-76850000D01*
X247500000Y-74412500D02*
X248337500Y-75250000D01*
X251700000Y-75700000D02*
X252150000Y-76150000D01*
X250250000Y-75700000D02*
X251700000Y-75700000D01*
%TO.N,Net-(R24-Pad1)*%
X254813604Y-76400000D02*
X255713604Y-76400000D01*
X249600000Y-74412500D02*
X250437500Y-75250000D01*
X251900000Y-75250000D02*
X252350000Y-75700000D01*
X254113604Y-75700000D02*
X254813604Y-76400000D01*
X256000000Y-76686396D02*
X256000000Y-79325000D01*
X250437500Y-75250000D02*
X251900000Y-75250000D01*
X252350000Y-75700000D02*
X254113604Y-75700000D01*
X255713604Y-76400000D02*
X256000000Y-76686396D01*
%TO.N,Net-(R25-Pad1)*%
X252537500Y-75250000D02*
X254300000Y-75250000D01*
X255000000Y-75950000D02*
X255900000Y-75950000D01*
X256500000Y-76550000D02*
X256500000Y-79325000D01*
X254300000Y-75250000D02*
X255000000Y-75950000D01*
X255900000Y-75950000D02*
X256500000Y-76550000D01*
X251700000Y-74412500D02*
X252537500Y-75250000D01*
%TO.N,Net-(R26-Pad1)*%
X255200000Y-75500000D02*
X256351104Y-75500000D01*
X254112500Y-74412500D02*
X255200000Y-75500000D01*
X256351104Y-75500000D02*
X257000000Y-76148896D01*
X257000000Y-76148896D02*
X257000000Y-79325000D01*
%TO.N,Net-(R27-Pad1)*%
X255900000Y-74412500D02*
X257500000Y-76012500D01*
X257500000Y-76012500D02*
X257500000Y-79325000D01*
%TO.N,Net-(R28-Pad1)*%
X258000000Y-74412500D02*
X258000000Y-79325000D01*
%TO.N,Net-(R29-Pad1)*%
X258500000Y-76012500D02*
X258500000Y-79325000D01*
X260100000Y-74412500D02*
X258500000Y-76012500D01*
%TO.N,Net-(R30-Pad1)*%
X262200000Y-74412500D02*
X261012500Y-75600000D01*
X259548896Y-75600000D02*
X259000000Y-76148896D01*
X259000000Y-76148896D02*
X259000000Y-79325000D01*
X261012500Y-75600000D02*
X259548896Y-75600000D01*
%TO.N,Net-(R31-Pad1)*%
X250409315Y-91000000D02*
X251325000Y-91000000D01*
X247825000Y-98200000D02*
X248650000Y-97375000D01*
X249562500Y-93892069D02*
X249562500Y-91846815D01*
X248650000Y-97375000D02*
X248650000Y-94804569D01*
X249562500Y-91846815D02*
X250409315Y-91000000D01*
X248650000Y-94804569D02*
X249562500Y-93892069D01*
%TO.N,Net-(R32-Pad1)*%
X247812500Y-95005673D02*
X249112500Y-93705673D01*
X250212500Y-90500000D02*
X251325000Y-90500000D01*
X249112500Y-93705673D02*
X249112500Y-91600000D01*
X247812500Y-95780000D02*
X247812500Y-95005673D01*
X249112500Y-91600000D02*
X250212500Y-90500000D01*
%TO.N,Net-(R33-Pad1)*%
X247812500Y-93480000D02*
X248662500Y-92630000D01*
X248662500Y-91391827D02*
X250054327Y-90000000D01*
X250054327Y-90000000D02*
X251325000Y-90000000D01*
X248662500Y-92630000D02*
X248662500Y-91391827D01*
%TO.N,Net-(R34-Pad1)*%
X249505000Y-89500000D02*
X247825000Y-91180000D01*
X251325000Y-89500000D02*
X249505000Y-89500000D01*
%TO.N,Net-(R35-Pad1)*%
X251325000Y-89000000D02*
X247812500Y-89000000D01*
%TO.N,Net-(R36-Pad1)*%
X252548833Y-88500000D02*
X252630695Y-88581862D01*
X244000000Y-129700000D02*
X242012500Y-129700000D01*
X251325000Y-88500000D02*
X252548833Y-88500000D01*
%TO.N,Net-(R37-Pad1)*%
X254224500Y-88600000D02*
X253124500Y-87500000D01*
X264300000Y-144700000D02*
X264300000Y-142512500D01*
X253124500Y-87500000D02*
X251325000Y-87500000D01*
%TO.N,Net-(U2-Pad3)*%
X243763800Y-118389400D02*
X243763800Y-117320700D01*
X243763800Y-117320700D02*
X243281200Y-116838100D01*
%TO.N,Net-(U2-Pad6)*%
X259334000Y-118108100D02*
X258929500Y-118108100D01*
X258929500Y-118108100D02*
X257810000Y-119227600D01*
%TO.N,Net-(U2-Pad4)*%
X251180600Y-118158900D02*
X250799600Y-117777900D01*
X251180600Y-119126000D02*
X251180600Y-118158900D01*
%TO.N,Net-(U2-Pad5)*%
X254100900Y-118588800D02*
X253314200Y-119375500D01*
X254736600Y-118588800D02*
X254100900Y-118588800D01*
%TD*%
%TA.AperFunction,Conductor*%
%TO.N,GND*%
G36*
X232903921Y-30480629D02*
G01*
X233006249Y-30503399D01*
X233021918Y-30507970D01*
X256607870Y-39084679D01*
X259582314Y-40166295D01*
X259600037Y-40174340D01*
X259709252Y-40234498D01*
X259739967Y-40258248D01*
X259818873Y-40341617D01*
X259840901Y-40373595D01*
X259890675Y-40477034D01*
X259901919Y-40514200D01*
X259917833Y-40627882D01*
X259917227Y-40666702D01*
X259896090Y-40789592D01*
X259891320Y-40808451D01*
X259285955Y-42604819D01*
X256384721Y-51213979D01*
X256138996Y-51943146D01*
X256132640Y-51958556D01*
X256085435Y-52054450D01*
X256066931Y-52082096D01*
X256001849Y-52155967D01*
X255976754Y-52177807D01*
X255894608Y-52232069D01*
X255864675Y-52246579D01*
X255771184Y-52277454D01*
X255738496Y-52283624D01*
X255707990Y-52285278D01*
X255640189Y-52288954D01*
X255607024Y-52286354D01*
X255502509Y-52264009D01*
X255486474Y-52259453D01*
X252861309Y-51321894D01*
X252803884Y-51280146D01*
X252778146Y-51213979D01*
X252777687Y-51203235D01*
X252777687Y-50845443D01*
X252797689Y-50777322D01*
X252851345Y-50730829D01*
X252921619Y-50720725D01*
X252946781Y-50727042D01*
X252956692Y-50730649D01*
X252963211Y-50732630D01*
X253012913Y-50744839D01*
X253028481Y-50746647D01*
X253157114Y-50745412D01*
X253174684Y-50742723D01*
X253296763Y-50705749D01*
X253312878Y-50698235D01*
X253419669Y-50628485D01*
X253433027Y-50616751D01*
X253516655Y-50519009D01*
X253525279Y-50505917D01*
X253547867Y-50460012D01*
X253550548Y-50453725D01*
X253628032Y-50240839D01*
X253629039Y-50224988D01*
X253617047Y-50203433D01*
X253609224Y-50168793D01*
X253585189Y-50182925D01*
X253511420Y-50179117D01*
X252993827Y-49990728D01*
X252936656Y-49948634D01*
X252911318Y-49882312D01*
X252918521Y-49829232D01*
X252919880Y-49825500D01*
X252934939Y-49784126D01*
X252977032Y-49726956D01*
X253043354Y-49701618D01*
X253096434Y-49708821D01*
X253496584Y-49854464D01*
X253538613Y-49879968D01*
X253611701Y-49946940D01*
X253611704Y-49946942D01*
X253617790Y-49952519D01*
X253625109Y-49956329D01*
X253626787Y-49957504D01*
X253671115Y-50012962D01*
X253673027Y-50031440D01*
X253682186Y-50024470D01*
X253752960Y-50018844D01*
X253770246Y-50023772D01*
X254071253Y-50133329D01*
X254182049Y-50157892D01*
X254190296Y-50157532D01*
X254190297Y-50157532D01*
X254222976Y-50156105D01*
X254333437Y-50151282D01*
X254365496Y-50141174D01*
X254470075Y-50108200D01*
X254470078Y-50108199D01*
X254477955Y-50105715D01*
X254605756Y-50024297D01*
X254708130Y-49912577D01*
X254768576Y-49796461D01*
X254817773Y-49745274D01*
X254884735Y-49728719D01*
X254889363Y-49728881D01*
X255066593Y-49716487D01*
X255079533Y-49714205D01*
X255250310Y-49665236D01*
X255262491Y-49660315D01*
X255419355Y-49576908D01*
X255430244Y-49569564D01*
X255566341Y-49455365D01*
X255575470Y-49445911D01*
X255684843Y-49305920D01*
X255691808Y-49294774D01*
X255750162Y-49175132D01*
X255752734Y-49169071D01*
X255777420Y-49101247D01*
X255778427Y-49085395D01*
X255777534Y-49083789D01*
X255770883Y-49079589D01*
X254691693Y-48686796D01*
X254360287Y-48566174D01*
X254333612Y-48564479D01*
X253439388Y-48981463D01*
X252992578Y-49189814D01*
X252922386Y-49200475D01*
X252857574Y-49171495D01*
X252825133Y-49128868D01*
X252792106Y-49058040D01*
X252782779Y-49047447D01*
X252769297Y-49051518D01*
X252708133Y-49091467D01*
X252640161Y-49111972D01*
X252620063Y-49110508D01*
X252570037Y-49102808D01*
X252523839Y-49085994D01*
X252502081Y-49072791D01*
X252475314Y-49056548D01*
X252469496Y-49054430D01*
X252469493Y-49054429D01*
X252425598Y-49038453D01*
X252368426Y-48996359D01*
X252343088Y-48930038D01*
X252354059Y-48869241D01*
X252358290Y-48863199D01*
X252361143Y-48852552D01*
X252362620Y-48849385D01*
X252363814Y-48846104D01*
X252369324Y-48836560D01*
X252375870Y-48799439D01*
X252378244Y-48788732D01*
X252387999Y-48752322D01*
X252384715Y-48714784D01*
X252384236Y-48703803D01*
X252384236Y-48571433D01*
X252404238Y-48503312D01*
X252421139Y-48482339D01*
X252426977Y-48476501D01*
X252433527Y-48471475D01*
X252438553Y-48464925D01*
X252438556Y-48464922D01*
X252512734Y-48368251D01*
X252517760Y-48361701D01*
X252517947Y-48361251D01*
X252566726Y-48314742D01*
X252636440Y-48301308D01*
X252702350Y-48327697D01*
X252743530Y-48385530D01*
X252746906Y-48456446D01*
X252745272Y-48462216D01*
X252742270Y-48476335D01*
X252725347Y-48637351D01*
X252725347Y-48650481D01*
X252733817Y-48731063D01*
X252739181Y-48744102D01*
X252745837Y-48744356D01*
X253522897Y-48382006D01*
X255347992Y-48382006D01*
X255348886Y-48383614D01*
X255355533Y-48387811D01*
X255940339Y-48600663D01*
X255956190Y-48601670D01*
X255957798Y-48600775D01*
X255961995Y-48594129D01*
X255988242Y-48522015D01*
X255990170Y-48515710D01*
X256022373Y-48386554D01*
X256024202Y-48373541D01*
X256030402Y-48195990D01*
X256029486Y-48182893D01*
X255998633Y-48007922D01*
X255995013Y-47995300D01*
X255928460Y-47830570D01*
X255922296Y-47818977D01*
X255822944Y-47671684D01*
X255814508Y-47661630D01*
X255686708Y-47538214D01*
X255676346Y-47530119D01*
X255672928Y-47527983D01*
X255659346Y-47524181D01*
X255652503Y-47532283D01*
X255348999Y-48366155D01*
X255347992Y-48382006D01*
X253522897Y-48382006D01*
X253599357Y-48346352D01*
X253604370Y-48344147D01*
X253668548Y-48317564D01*
X253683169Y-48311508D01*
X253683170Y-48311507D01*
X253690800Y-48308347D01*
X253697352Y-48303319D01*
X253704506Y-48299189D01*
X253704560Y-48299283D01*
X253718704Y-48290700D01*
X254157551Y-48086062D01*
X254186584Y-48060498D01*
X254201126Y-48037470D01*
X254265470Y-48007464D01*
X254327489Y-48013634D01*
X254848416Y-48203236D01*
X254864267Y-48204243D01*
X254865875Y-48203349D01*
X254870072Y-48196702D01*
X255174003Y-47361659D01*
X255174897Y-47347586D01*
X255165548Y-47342577D01*
X255158252Y-47341551D01*
X255145133Y-47341093D01*
X254967902Y-47353487D01*
X254954962Y-47355769D01*
X254784186Y-47404737D01*
X254772005Y-47409659D01*
X254615140Y-47493067D01*
X254604251Y-47500411D01*
X254468155Y-47614609D01*
X254459026Y-47624063D01*
X254349653Y-47764054D01*
X254342688Y-47775200D01*
X254284334Y-47894843D01*
X254281766Y-47900893D01*
X254270982Y-47930524D01*
X254228888Y-47987696D01*
X254162567Y-48013035D01*
X254093075Y-47998495D01*
X254078520Y-47989368D01*
X254006679Y-47937173D01*
X253963324Y-47880950D01*
X253957347Y-47849122D01*
X253955817Y-47849323D01*
X253946058Y-47775200D01*
X253937756Y-47712140D01*
X253884806Y-47584306D01*
X253820431Y-47500411D01*
X253805602Y-47481085D01*
X253805599Y-47481082D01*
X253800573Y-47474532D01*
X253690800Y-47390299D01*
X253683171Y-47387139D01*
X253570593Y-47340508D01*
X253570589Y-47340507D01*
X253562965Y-47337349D01*
X253554785Y-47336272D01*
X253554781Y-47336271D01*
X253433970Y-47320366D01*
X253425782Y-47319288D01*
X253288599Y-47337349D01*
X253280966Y-47340511D01*
X253280965Y-47340511D01*
X253275414Y-47342810D01*
X253204825Y-47350400D01*
X253141337Y-47318622D01*
X253127233Y-47303106D01*
X253053848Y-47207469D01*
X253053845Y-47207466D01*
X253048819Y-47200916D01*
X253007147Y-47168939D01*
X252945596Y-47121709D01*
X252939046Y-47116683D01*
X252926007Y-47111282D01*
X252818839Y-47066892D01*
X252818835Y-47066891D01*
X252811211Y-47063733D01*
X252803031Y-47062656D01*
X252803027Y-47062655D01*
X252682216Y-47046750D01*
X252674028Y-47045672D01*
X252536845Y-47063733D01*
X252529213Y-47066894D01*
X252529214Y-47066894D01*
X252523656Y-47069196D01*
X252453066Y-47076784D01*
X252389580Y-47045003D01*
X252375478Y-47029490D01*
X252302093Y-46933853D01*
X252302090Y-46933850D01*
X252297064Y-46927300D01*
X252288470Y-46920705D01*
X252193841Y-46848093D01*
X252187291Y-46843067D01*
X252075622Y-46796813D01*
X252020341Y-46752265D01*
X251997920Y-46684902D01*
X252015478Y-46616110D01*
X252016517Y-46614574D01*
X252019507Y-46609395D01*
X252024536Y-46602841D01*
X252078466Y-46472643D01*
X252081884Y-46464391D01*
X252085044Y-46456762D01*
X252105682Y-46300000D01*
X252085044Y-46143238D01*
X252024536Y-45997159D01*
X251939623Y-45886498D01*
X251933305Y-45878264D01*
X251928282Y-45871718D01*
X251802841Y-45775464D01*
X251656762Y-45714956D01*
X251500000Y-45694318D01*
X251343238Y-45714956D01*
X251197159Y-45775464D01*
X251071718Y-45871718D01*
X251066695Y-45878264D01*
X251060377Y-45886498D01*
X250975464Y-45997159D01*
X250914956Y-46143238D01*
X250913878Y-46151426D01*
X250903985Y-46226572D01*
X250875263Y-46291499D01*
X250815998Y-46330591D01*
X250745006Y-46331436D01*
X250702359Y-46310089D01*
X250701247Y-46309236D01*
X250683783Y-46295835D01*
X250676154Y-46292675D01*
X250563576Y-46246044D01*
X250563572Y-46246043D01*
X250555948Y-46242885D01*
X250547768Y-46241808D01*
X250547764Y-46241807D01*
X250426953Y-46225902D01*
X250418765Y-46224824D01*
X250281582Y-46242885D01*
X250273949Y-46246047D01*
X250273948Y-46246047D01*
X250268397Y-46248346D01*
X250197808Y-46255936D01*
X250134320Y-46224158D01*
X250120216Y-46208642D01*
X250046831Y-46113005D01*
X250046828Y-46113002D01*
X250041802Y-46106452D01*
X250034046Y-46100500D01*
X249938579Y-46027245D01*
X249932029Y-46022219D01*
X249924400Y-46019059D01*
X249811822Y-45972428D01*
X249811818Y-45972427D01*
X249804194Y-45969269D01*
X249796014Y-45968192D01*
X249796010Y-45968191D01*
X249675199Y-45952286D01*
X249667011Y-45951208D01*
X249529828Y-45969269D01*
X249522195Y-45972431D01*
X249522194Y-45972431D01*
X249516643Y-45974730D01*
X249446054Y-45982320D01*
X249382566Y-45950542D01*
X249368462Y-45935026D01*
X249341550Y-45899953D01*
X249290048Y-45832835D01*
X249249184Y-45801478D01*
X249186825Y-45753628D01*
X249180275Y-45748602D01*
X249148327Y-45735369D01*
X249060068Y-45698811D01*
X249060064Y-45698810D01*
X249052440Y-45695652D01*
X249044260Y-45694575D01*
X249044256Y-45694574D01*
X248923445Y-45678669D01*
X248915257Y-45677591D01*
X248778074Y-45695652D01*
X248650240Y-45748602D01*
X248615233Y-45775464D01*
X248547019Y-45827806D01*
X248547017Y-45827808D01*
X248540466Y-45832835D01*
X248535440Y-45839385D01*
X248526006Y-45851680D01*
X248468668Y-45893547D01*
X248399850Y-45898223D01*
X248393985Y-45896976D01*
X248380915Y-45895603D01*
X248334016Y-45895603D01*
X248265895Y-45875601D01*
X248219402Y-45821945D01*
X248209298Y-45751671D01*
X248215615Y-45726508D01*
X248226383Y-45696923D01*
X248228309Y-45690624D01*
X248260512Y-45561468D01*
X248262341Y-45548455D01*
X248268541Y-45370904D01*
X248267625Y-45357807D01*
X248236772Y-45182836D01*
X248233152Y-45170214D01*
X248166599Y-45005484D01*
X248160435Y-44993891D01*
X248061083Y-44846598D01*
X248052647Y-44836544D01*
X247924847Y-44713128D01*
X247914485Y-44705033D01*
X247911067Y-44702897D01*
X247897485Y-44699095D01*
X247890642Y-44707197D01*
X247587138Y-45541069D01*
X247586131Y-45556920D01*
X247587025Y-45558528D01*
X247593674Y-45562726D01*
X248118335Y-45753687D01*
X248175507Y-45795781D01*
X248200845Y-45862102D01*
X248200986Y-45880101D01*
X248199011Y-45911091D01*
X248418224Y-46381195D01*
X248420438Y-46386227D01*
X248452815Y-46464391D01*
X248456233Y-46472643D01*
X248461259Y-46479193D01*
X248465390Y-46486348D01*
X248465296Y-46486402D01*
X248473879Y-46500546D01*
X248859390Y-47327277D01*
X248868709Y-47337860D01*
X248873642Y-47336369D01*
X248973170Y-47225833D01*
X248980892Y-47215204D01*
X249053471Y-47089493D01*
X249104853Y-47040500D01*
X249174567Y-47027064D01*
X249240478Y-47053450D01*
X249281660Y-47111282D01*
X249287512Y-47168939D01*
X249280309Y-47223652D01*
X249273439Y-47275835D01*
X249291500Y-47413018D01*
X249294661Y-47420649D01*
X249340901Y-47532283D01*
X249344450Y-47540852D01*
X249369813Y-47573905D01*
X249378059Y-47584652D01*
X249403660Y-47650872D01*
X249389395Y-47720421D01*
X249367192Y-47750451D01*
X249295772Y-47821871D01*
X249233460Y-47855897D01*
X249163583Y-47851177D01*
X249152236Y-47847047D01*
X248867368Y-47743364D01*
X248811266Y-47734729D01*
X248765067Y-47717913D01*
X248721798Y-47691656D01*
X248673938Y-47639216D01*
X248666575Y-47620461D01*
X248645405Y-47550563D01*
X248637672Y-47538751D01*
X248623751Y-47540869D01*
X248552905Y-47573905D01*
X248482713Y-47584566D01*
X248417901Y-47555586D01*
X248385460Y-47512960D01*
X247962419Y-46605746D01*
X247763280Y-46178692D01*
X247745617Y-46158632D01*
X246929832Y-45861710D01*
X246332296Y-45644225D01*
X246316445Y-45643218D01*
X246314837Y-45644113D01*
X246310640Y-45650759D01*
X246284393Y-45722873D01*
X246282465Y-45729178D01*
X246250262Y-45858334D01*
X246248433Y-45871347D01*
X246242233Y-46048899D01*
X246243149Y-46061997D01*
X246274001Y-46236967D01*
X246277620Y-46249589D01*
X246344174Y-46414314D01*
X246350340Y-46425912D01*
X246449688Y-46573201D01*
X246458131Y-46583263D01*
X246585926Y-46706674D01*
X246596285Y-46714766D01*
X246708957Y-46785171D01*
X246756127Y-46838232D01*
X246767122Y-46908372D01*
X246766144Y-46913302D01*
X246765212Y-46915551D01*
X246745433Y-47065787D01*
X246765212Y-47216023D01*
X246823201Y-47356020D01*
X246915448Y-47476238D01*
X247035666Y-47568485D01*
X247175663Y-47626474D01*
X247183851Y-47627552D01*
X247280333Y-47640254D01*
X247288179Y-47641287D01*
X247363619Y-47641287D01*
X247367701Y-47640750D01*
X247367710Y-47640749D01*
X247371469Y-47640254D01*
X247431009Y-47646775D01*
X247972290Y-47843785D01*
X248029461Y-47885879D01*
X248054799Y-47952200D01*
X248047596Y-48005280D01*
X248031179Y-48050386D01*
X247989085Y-48107558D01*
X247922764Y-48132896D01*
X247869683Y-48125693D01*
X247246307Y-47898803D01*
X247230456Y-47897796D01*
X247228848Y-47898690D01*
X247224650Y-47905338D01*
X247201354Y-47969343D01*
X247159259Y-48026514D01*
X247092938Y-48051852D01*
X247069784Y-48051558D01*
X247030578Y-48047437D01*
X247012796Y-48045568D01*
X247012795Y-48045568D01*
X247006668Y-48044924D01*
X246933772Y-48051558D01*
X246827171Y-48061259D01*
X246827168Y-48061260D01*
X246821032Y-48061818D01*
X246815122Y-48063557D01*
X246815119Y-48063558D01*
X246648129Y-48112707D01*
X246642214Y-48114448D01*
X246636751Y-48117304D01*
X246554770Y-48160162D01*
X246496395Y-48174500D01*
X244190010Y-48174500D01*
X244179467Y-48174058D01*
X244129712Y-48169880D01*
X244122953Y-48170782D01*
X244122947Y-48170782D01*
X244091520Y-48174975D01*
X244032480Y-48168741D01*
X242198242Y-47513656D01*
X242151525Y-47484092D01*
X241812016Y-47144583D01*
X241804873Y-47136816D01*
X241787859Y-47116683D01*
X241772638Y-47098671D01*
X241710558Y-47051207D01*
X241708250Y-47049397D01*
X241647378Y-47000455D01*
X241641267Y-46997421D01*
X241639245Y-46996128D01*
X241638781Y-46995803D01*
X241638115Y-46995389D01*
X241637639Y-46995127D01*
X241635568Y-46993873D01*
X241630153Y-46989733D01*
X241559413Y-46956746D01*
X241556641Y-46955412D01*
X241486724Y-46920705D01*
X241480101Y-46919054D01*
X241477843Y-46918223D01*
X241477322Y-46918006D01*
X241476588Y-46917746D01*
X241476038Y-46917584D01*
X241473780Y-46916815D01*
X241467599Y-46913933D01*
X241460942Y-46912445D01*
X241460936Y-46912443D01*
X241391434Y-46896907D01*
X241388438Y-46896199D01*
X241336328Y-46883207D01*
X241312694Y-46877314D01*
X241305871Y-46877123D01*
X241303476Y-46876795D01*
X241302379Y-46876597D01*
X241297606Y-46875935D01*
X241292560Y-46874807D01*
X241287069Y-46874500D01*
X241213693Y-46874500D01*
X241210176Y-46874451D01*
X241140226Y-46872497D01*
X241140221Y-46872497D01*
X241133405Y-46872307D01*
X241126702Y-46873586D01*
X241120387Y-46874094D01*
X241110280Y-46874500D01*
X240430430Y-46874500D01*
X240388052Y-46867160D01*
X239925952Y-46702124D01*
X239908405Y-46694302D01*
X239891020Y-46684902D01*
X239770116Y-46619529D01*
X239681083Y-46591969D01*
X239597936Y-46566231D01*
X239597933Y-46566230D01*
X239592049Y-46564409D01*
X239585922Y-46563765D01*
X239533786Y-46558285D01*
X239504579Y-46551634D01*
X239321930Y-46486402D01*
X237973413Y-46004789D01*
X235606582Y-45159492D01*
X246494208Y-45159492D01*
X246495103Y-45161101D01*
X246501750Y-45165299D01*
X247086555Y-45378150D01*
X247102406Y-45379157D01*
X247104014Y-45378263D01*
X247108211Y-45371616D01*
X247412142Y-44536573D01*
X247413036Y-44522500D01*
X247403687Y-44517491D01*
X247396391Y-44516465D01*
X247383272Y-44516007D01*
X247206041Y-44528401D01*
X247193101Y-44530683D01*
X247022325Y-44579651D01*
X247010144Y-44584573D01*
X246853279Y-44667981D01*
X246842390Y-44675325D01*
X246706294Y-44789523D01*
X246697165Y-44798977D01*
X246587792Y-44938968D01*
X246580827Y-44950114D01*
X246522473Y-45069757D01*
X246519901Y-45075818D01*
X246495215Y-45143641D01*
X246494208Y-45159492D01*
X235606582Y-45159492D01*
X235199759Y-45014198D01*
X236919904Y-45014198D01*
X236920799Y-45015806D01*
X236927445Y-45020003D01*
X236956684Y-45030645D01*
X236963228Y-45032634D01*
X237012913Y-45044839D01*
X237028481Y-45046647D01*
X237157114Y-45045412D01*
X237174684Y-45042723D01*
X237296763Y-45005749D01*
X237312878Y-44998235D01*
X237419669Y-44928485D01*
X237433027Y-44916751D01*
X237516655Y-44819009D01*
X237525279Y-44805917D01*
X237547867Y-44760012D01*
X237550548Y-44753725D01*
X237628032Y-44540839D01*
X237629039Y-44524988D01*
X237617047Y-44503433D01*
X237609224Y-44468793D01*
X237585189Y-44482925D01*
X237511420Y-44479117D01*
X237173888Y-44356265D01*
X237158037Y-44355258D01*
X237156429Y-44356152D01*
X237152232Y-44362799D01*
X236920911Y-44998347D01*
X236919904Y-45014198D01*
X235199759Y-45014198D01*
X234405472Y-44730524D01*
X234358755Y-44700960D01*
X234282343Y-44624548D01*
X234280587Y-44622514D01*
X234278249Y-44617731D01*
X234242347Y-44584427D01*
X234238942Y-44581147D01*
X234225547Y-44567752D01*
X234226641Y-44566658D01*
X234191143Y-44513841D01*
X234189684Y-44442859D01*
X234226832Y-44382357D01*
X234261543Y-44360100D01*
X234275657Y-44354036D01*
X234280543Y-44350022D01*
X234282728Y-44347837D01*
X234284991Y-44345785D01*
X234285136Y-44345945D01*
X234294143Y-44338825D01*
X234301038Y-44332573D01*
X234310942Y-44326468D01*
X234327500Y-44304693D01*
X234338701Y-44291864D01*
X234681437Y-43949129D01*
X234743749Y-43915104D01*
X234814565Y-43920169D01*
X234829114Y-43927219D01*
X234829158Y-43927126D01*
X234834744Y-43929805D01*
X234840035Y-43933016D01*
X234845853Y-43935134D01*
X234845856Y-43935135D01*
X234928559Y-43965236D01*
X235159057Y-44049130D01*
X235206173Y-44056382D01*
X235215159Y-44057765D01*
X235261357Y-44074580D01*
X235309882Y-44104026D01*
X235315700Y-44106144D01*
X235315703Y-44106145D01*
X235436593Y-44150145D01*
X235628904Y-44220140D01*
X235635017Y-44221081D01*
X235635029Y-44221084D01*
X235685005Y-44228776D01*
X235731203Y-44245590D01*
X235779728Y-44275036D01*
X235785546Y-44277154D01*
X235785549Y-44277155D01*
X235883929Y-44312962D01*
X236098750Y-44391150D01*
X236104863Y-44392091D01*
X236104875Y-44392094D01*
X236154851Y-44399786D01*
X236201049Y-44416600D01*
X236226286Y-44431914D01*
X236244319Y-44442857D01*
X236292179Y-44495297D01*
X236299544Y-44514053D01*
X236338812Y-44643708D01*
X236346324Y-44659816D01*
X236416076Y-44766610D01*
X236427812Y-44779969D01*
X236525550Y-44863594D01*
X236538644Y-44872220D01*
X236584548Y-44894807D01*
X236590829Y-44897487D01*
X236615786Y-44906570D01*
X236631634Y-44907577D01*
X236633241Y-44906683D01*
X236637441Y-44900032D01*
X236798062Y-44458730D01*
X236799384Y-44455587D01*
X236800268Y-44454130D01*
X236802209Y-44448797D01*
X236934939Y-44084126D01*
X236977033Y-44026955D01*
X237043355Y-44001617D01*
X237096435Y-44008820D01*
X237215010Y-44051978D01*
X237496584Y-44154463D01*
X237538613Y-44179967D01*
X237617790Y-44252519D01*
X237625109Y-44256329D01*
X237626787Y-44257504D01*
X237671115Y-44312962D01*
X237673027Y-44331440D01*
X237682186Y-44324470D01*
X237752960Y-44318844D01*
X237770246Y-44323772D01*
X238071253Y-44433329D01*
X238182049Y-44457892D01*
X238190296Y-44457532D01*
X238190297Y-44457532D01*
X238222976Y-44456105D01*
X238333437Y-44451282D01*
X238365496Y-44441174D01*
X238470075Y-44408200D01*
X238470078Y-44408199D01*
X238477955Y-44405715D01*
X238489711Y-44398226D01*
X238538068Y-44367419D01*
X238605756Y-44324297D01*
X238669857Y-44254344D01*
X257232908Y-44254344D01*
X257242257Y-44259353D01*
X257249553Y-44260379D01*
X257262672Y-44260837D01*
X257439902Y-44248443D01*
X257452842Y-44246161D01*
X257623619Y-44197192D01*
X257635800Y-44192271D01*
X257792664Y-44108864D01*
X257803553Y-44101520D01*
X257939650Y-43987321D01*
X257948779Y-43977867D01*
X258058152Y-43837876D01*
X258065117Y-43826730D01*
X258123471Y-43707088D01*
X258126043Y-43701027D01*
X258150729Y-43633203D01*
X258151736Y-43617351D01*
X258150842Y-43615743D01*
X258144195Y-43611546D01*
X257559389Y-43398694D01*
X257543538Y-43397687D01*
X257541930Y-43398581D01*
X257537733Y-43405228D01*
X257233802Y-44240271D01*
X257232908Y-44254344D01*
X238669857Y-44254344D01*
X238708130Y-44212577D01*
X238768576Y-44096461D01*
X238817773Y-44045274D01*
X238884735Y-44028719D01*
X238889363Y-44028881D01*
X239066593Y-44016487D01*
X239079533Y-44014205D01*
X239250310Y-43965236D01*
X239262491Y-43960315D01*
X239419355Y-43876908D01*
X239430244Y-43869564D01*
X239566341Y-43755365D01*
X239575470Y-43745911D01*
X239684843Y-43605920D01*
X239691808Y-43594774D01*
X239750162Y-43475132D01*
X239752734Y-43469071D01*
X239775712Y-43405941D01*
X256377403Y-43405941D01*
X256378319Y-43419039D01*
X256409171Y-43594009D01*
X256412790Y-43606631D01*
X256479344Y-43771356D01*
X256485510Y-43782954D01*
X256584858Y-43930243D01*
X256593301Y-43940305D01*
X256721096Y-44063716D01*
X256731459Y-44071811D01*
X256734877Y-44073947D01*
X256748459Y-44077749D01*
X256755302Y-44069647D01*
X257058806Y-43235775D01*
X257059813Y-43219924D01*
X257058919Y-43218316D01*
X257052272Y-43214119D01*
X256467466Y-43001267D01*
X256451615Y-43000260D01*
X256450007Y-43001155D01*
X256445810Y-43007801D01*
X256419563Y-43079915D01*
X256417635Y-43086220D01*
X256385432Y-43215376D01*
X256383603Y-43228389D01*
X256377403Y-43405941D01*
X239775712Y-43405941D01*
X239777420Y-43401247D01*
X239778427Y-43385395D01*
X239777534Y-43383789D01*
X239770883Y-43379589D01*
X238691693Y-42986796D01*
X238491583Y-42913962D01*
X257721301Y-42913962D01*
X257722195Y-42915570D01*
X257728842Y-42919767D01*
X258313648Y-43132619D01*
X258329499Y-43133626D01*
X258331107Y-43132731D01*
X258335304Y-43126085D01*
X258361551Y-43053971D01*
X258363479Y-43047666D01*
X258395682Y-42918510D01*
X258397511Y-42905497D01*
X258403711Y-42727946D01*
X258402795Y-42714849D01*
X258371942Y-42539878D01*
X258368322Y-42527256D01*
X258301769Y-42362526D01*
X258295605Y-42350933D01*
X258196253Y-42203640D01*
X258187817Y-42193586D01*
X258060017Y-42070170D01*
X258049655Y-42062075D01*
X258046237Y-42059939D01*
X258032655Y-42056137D01*
X258025812Y-42064239D01*
X257722308Y-42898111D01*
X257721301Y-42913962D01*
X238491583Y-42913962D01*
X238360287Y-42866174D01*
X238333612Y-42864479D01*
X237439388Y-43281463D01*
X236992578Y-43489814D01*
X236922386Y-43500475D01*
X236857574Y-43471495D01*
X236825133Y-43428868D01*
X236792106Y-43358040D01*
X236782779Y-43347447D01*
X236769297Y-43351518D01*
X236708133Y-43391467D01*
X236640161Y-43411972D01*
X236620063Y-43410508D01*
X236570037Y-43402808D01*
X236523839Y-43385994D01*
X236513284Y-43379589D01*
X236475314Y-43356548D01*
X236448233Y-43346691D01*
X236391063Y-43304599D01*
X236365724Y-43238278D01*
X236380264Y-43168786D01*
X236388115Y-43156020D01*
X236393230Y-43148716D01*
X236393231Y-43148714D01*
X236399554Y-43139684D01*
X236402408Y-43129034D01*
X236403885Y-43125866D01*
X236405077Y-43122590D01*
X236410588Y-43113045D01*
X236417130Y-43075942D01*
X236419509Y-43065210D01*
X236419723Y-43064412D01*
X236429264Y-43028807D01*
X236427427Y-43007801D01*
X236425979Y-42991257D01*
X236425500Y-42980276D01*
X236425500Y-42824707D01*
X236445502Y-42756586D01*
X236451538Y-42748003D01*
X236512734Y-42668251D01*
X236517760Y-42661701D01*
X236517947Y-42661251D01*
X236566726Y-42614742D01*
X236636440Y-42601308D01*
X236702350Y-42627697D01*
X236743530Y-42685530D01*
X236746906Y-42756446D01*
X236745272Y-42762216D01*
X236742270Y-42776335D01*
X236725347Y-42937351D01*
X236725347Y-42950481D01*
X236733817Y-43031063D01*
X236739181Y-43044102D01*
X236745837Y-43044356D01*
X237522897Y-42682006D01*
X239347992Y-42682006D01*
X239348886Y-42683614D01*
X239355533Y-42687811D01*
X239940339Y-42900663D01*
X239956190Y-42901670D01*
X239957798Y-42900775D01*
X239961995Y-42894129D01*
X239988242Y-42822015D01*
X239990170Y-42815710D01*
X240022373Y-42686554D01*
X240024202Y-42673541D01*
X240029685Y-42516534D01*
X256629378Y-42516534D01*
X256630273Y-42518143D01*
X256636920Y-42522341D01*
X257221725Y-42735192D01*
X257237576Y-42736199D01*
X257239184Y-42735305D01*
X257243381Y-42728658D01*
X257547312Y-41893615D01*
X257548206Y-41879542D01*
X257538857Y-41874533D01*
X257531561Y-41873507D01*
X257518442Y-41873049D01*
X257341211Y-41885443D01*
X257328271Y-41887725D01*
X257157495Y-41936693D01*
X257145314Y-41941615D01*
X256988449Y-42025023D01*
X256977560Y-42032367D01*
X256841464Y-42146565D01*
X256832335Y-42156019D01*
X256722962Y-42296010D01*
X256715997Y-42307156D01*
X256657643Y-42426799D01*
X256655071Y-42432860D01*
X256630385Y-42500683D01*
X256629378Y-42516534D01*
X240029685Y-42516534D01*
X240030402Y-42495990D01*
X240029486Y-42482893D01*
X239998633Y-42307922D01*
X239995013Y-42295300D01*
X239928460Y-42130570D01*
X239922296Y-42118977D01*
X239822944Y-41971684D01*
X239814508Y-41961630D01*
X239686708Y-41838214D01*
X239676346Y-41830119D01*
X239672928Y-41827983D01*
X239659346Y-41824181D01*
X239652503Y-41832283D01*
X239348999Y-42666155D01*
X239347992Y-42682006D01*
X237522897Y-42682006D01*
X237599357Y-42646352D01*
X237604370Y-42644147D01*
X237690800Y-42608347D01*
X237697352Y-42603319D01*
X237704506Y-42599189D01*
X237704560Y-42599283D01*
X237718704Y-42590700D01*
X238157551Y-42386062D01*
X238186584Y-42360498D01*
X238201126Y-42337470D01*
X238265470Y-42307464D01*
X238327489Y-42313634D01*
X238848416Y-42503236D01*
X238864267Y-42504243D01*
X238865875Y-42503349D01*
X238870072Y-42496702D01*
X239174003Y-41661659D01*
X239174897Y-41647586D01*
X239165548Y-41642577D01*
X239158252Y-41641551D01*
X239145133Y-41641093D01*
X238967902Y-41653487D01*
X238954962Y-41655769D01*
X238784186Y-41704737D01*
X238772005Y-41709659D01*
X238615140Y-41793067D01*
X238604251Y-41800411D01*
X238468155Y-41914609D01*
X238459026Y-41924063D01*
X238349653Y-42064054D01*
X238342688Y-42075200D01*
X238284334Y-42194843D01*
X238281766Y-42200893D01*
X238270982Y-42230524D01*
X238228888Y-42287696D01*
X238162567Y-42313035D01*
X238093075Y-42298495D01*
X238078520Y-42289368D01*
X238006679Y-42237173D01*
X237963324Y-42180950D01*
X237957347Y-42149122D01*
X237955817Y-42149323D01*
X237940730Y-42034729D01*
X237937756Y-42012140D01*
X237884806Y-41884306D01*
X237820431Y-41800411D01*
X237805602Y-41781085D01*
X237805599Y-41781082D01*
X237800573Y-41774532D01*
X237690800Y-41690299D01*
X237683171Y-41687139D01*
X237570593Y-41640508D01*
X237570589Y-41640507D01*
X237562965Y-41637349D01*
X237554785Y-41636272D01*
X237554781Y-41636271D01*
X237433970Y-41620366D01*
X237425782Y-41619288D01*
X237288599Y-41637349D01*
X237280966Y-41640511D01*
X237280965Y-41640511D01*
X237275414Y-41642810D01*
X237204825Y-41650400D01*
X237141337Y-41618622D01*
X237127233Y-41603106D01*
X237053848Y-41507469D01*
X237053845Y-41507466D01*
X237048819Y-41500916D01*
X237007147Y-41468939D01*
X236945596Y-41421709D01*
X236939046Y-41416683D01*
X236926007Y-41411282D01*
X236818839Y-41366892D01*
X236818835Y-41366891D01*
X236811211Y-41363733D01*
X236803031Y-41362656D01*
X236803027Y-41362655D01*
X236682216Y-41346750D01*
X236674028Y-41345672D01*
X236536845Y-41363733D01*
X236529213Y-41366894D01*
X236529214Y-41366894D01*
X236523656Y-41369196D01*
X236453066Y-41376784D01*
X236389580Y-41345003D01*
X236375478Y-41329490D01*
X236302093Y-41233853D01*
X236302090Y-41233850D01*
X236297064Y-41227300D01*
X236239337Y-41183004D01*
X248794468Y-41183004D01*
X248803817Y-41188013D01*
X248811113Y-41189039D01*
X248824232Y-41189497D01*
X249001462Y-41177103D01*
X249014402Y-41174821D01*
X249185179Y-41125852D01*
X249197360Y-41120931D01*
X249354224Y-41037524D01*
X249365113Y-41030180D01*
X249501210Y-40915981D01*
X249510339Y-40906527D01*
X249619712Y-40766536D01*
X249626677Y-40755390D01*
X249685031Y-40635748D01*
X249687603Y-40629687D01*
X249712289Y-40561863D01*
X249713296Y-40546011D01*
X249712402Y-40544403D01*
X249705755Y-40540206D01*
X249120949Y-40327354D01*
X249105098Y-40326347D01*
X249103490Y-40327241D01*
X249099293Y-40333888D01*
X248795362Y-41168931D01*
X248794468Y-41183004D01*
X236239337Y-41183004D01*
X236187291Y-41143067D01*
X236175618Y-41138232D01*
X236067084Y-41093276D01*
X236067080Y-41093275D01*
X236059456Y-41090117D01*
X236051276Y-41089040D01*
X236051272Y-41089039D01*
X235930461Y-41073134D01*
X235922273Y-41072056D01*
X235785090Y-41090117D01*
X235657256Y-41143067D01*
X235547482Y-41227300D01*
X235545390Y-41224574D01*
X235497048Y-41250972D01*
X235426233Y-41245907D01*
X235369397Y-41203360D01*
X235344586Y-41136840D01*
X235344265Y-41127851D01*
X235344265Y-40636471D01*
X235364267Y-40568350D01*
X235393561Y-40536508D01*
X235422236Y-40514505D01*
X235428782Y-40509482D01*
X235525036Y-40384041D01*
X235545515Y-40334601D01*
X247938963Y-40334601D01*
X247939879Y-40347699D01*
X247970731Y-40522669D01*
X247974350Y-40535291D01*
X248040904Y-40700016D01*
X248047070Y-40711614D01*
X248146418Y-40858903D01*
X248154861Y-40868965D01*
X248282656Y-40992376D01*
X248293019Y-41000471D01*
X248296437Y-41002607D01*
X248310019Y-41006409D01*
X248316862Y-40998307D01*
X248620366Y-40164435D01*
X248621373Y-40148584D01*
X248620479Y-40146976D01*
X248613832Y-40142779D01*
X248029026Y-39929927D01*
X248013175Y-39928920D01*
X248011567Y-39929815D01*
X248007370Y-39936461D01*
X247981123Y-40008575D01*
X247979195Y-40014880D01*
X247946992Y-40144036D01*
X247945163Y-40157049D01*
X247938963Y-40334601D01*
X235545515Y-40334601D01*
X235585544Y-40237962D01*
X235606182Y-40081200D01*
X235585544Y-39924438D01*
X235551655Y-39842622D01*
X249282861Y-39842622D01*
X249283755Y-39844230D01*
X249290402Y-39848427D01*
X249875208Y-40061279D01*
X249891059Y-40062286D01*
X249892667Y-40061391D01*
X249896864Y-40054745D01*
X249923111Y-39982631D01*
X249925039Y-39976326D01*
X249957242Y-39847170D01*
X249959071Y-39834157D01*
X249965271Y-39656606D01*
X249964355Y-39643509D01*
X249933502Y-39468538D01*
X249929882Y-39455916D01*
X249863329Y-39291186D01*
X249857165Y-39279593D01*
X249757813Y-39132300D01*
X249749377Y-39122246D01*
X249621577Y-38998830D01*
X249611215Y-38990735D01*
X249607797Y-38988599D01*
X249594215Y-38984797D01*
X249587372Y-38992899D01*
X249283868Y-39826771D01*
X249282861Y-39842622D01*
X235551655Y-39842622D01*
X235525036Y-39778359D01*
X235428782Y-39652918D01*
X235303341Y-39556664D01*
X235157262Y-39496156D01*
X235000500Y-39475518D01*
X234843738Y-39496156D01*
X234697659Y-39556664D01*
X234572218Y-39652918D01*
X234475964Y-39778359D01*
X234415456Y-39924438D01*
X234394818Y-40081200D01*
X234415456Y-40237962D01*
X234458392Y-40341617D01*
X234465466Y-40358696D01*
X234473055Y-40429285D01*
X234441276Y-40492772D01*
X234380218Y-40529000D01*
X234365504Y-40531836D01*
X234330019Y-40536508D01*
X234281582Y-40542885D01*
X234273949Y-40546047D01*
X234273948Y-40546047D01*
X234268397Y-40548346D01*
X234197808Y-40555936D01*
X234134320Y-40524158D01*
X234120216Y-40508642D01*
X234046831Y-40413005D01*
X234046828Y-40413002D01*
X234041802Y-40406452D01*
X234002653Y-40376411D01*
X233938579Y-40327245D01*
X233932029Y-40322219D01*
X233924400Y-40319059D01*
X233811822Y-40272428D01*
X233811818Y-40272427D01*
X233804194Y-40269269D01*
X233796014Y-40268192D01*
X233796010Y-40268191D01*
X233675199Y-40252286D01*
X233667011Y-40251208D01*
X233529828Y-40269269D01*
X233522195Y-40272431D01*
X233522194Y-40272431D01*
X233516643Y-40274730D01*
X233446054Y-40282320D01*
X233382566Y-40250542D01*
X233368462Y-40235026D01*
X233326317Y-40180101D01*
X233290048Y-40132835D01*
X233180275Y-40048602D01*
X233172646Y-40045442D01*
X233060068Y-39998811D01*
X233060064Y-39998810D01*
X233052440Y-39995652D01*
X233044260Y-39994575D01*
X233044256Y-39994574D01*
X232923445Y-39978669D01*
X232915257Y-39977591D01*
X232778074Y-39995652D01*
X232650240Y-40048602D01*
X232607758Y-40081200D01*
X232547019Y-40127806D01*
X232547017Y-40127808D01*
X232540466Y-40132835D01*
X232528382Y-40148584D01*
X232526006Y-40151680D01*
X232468668Y-40193547D01*
X232399850Y-40198223D01*
X232393985Y-40196976D01*
X232380915Y-40195603D01*
X232334016Y-40195603D01*
X232265895Y-40175601D01*
X232219402Y-40121945D01*
X232209298Y-40051671D01*
X232215615Y-40026508D01*
X232226383Y-39996923D01*
X232228309Y-39990624D01*
X232260512Y-39861468D01*
X232262341Y-39848455D01*
X232268541Y-39670904D01*
X232267625Y-39657807D01*
X232236772Y-39482836D01*
X232233152Y-39470214D01*
X232223044Y-39445194D01*
X248190938Y-39445194D01*
X248191833Y-39446803D01*
X248198480Y-39451001D01*
X248783285Y-39663852D01*
X248799136Y-39664859D01*
X248800744Y-39663965D01*
X248804941Y-39657318D01*
X249108872Y-38822275D01*
X249109766Y-38808202D01*
X249100417Y-38803193D01*
X249093121Y-38802167D01*
X249080002Y-38801709D01*
X248902771Y-38814103D01*
X248889831Y-38816385D01*
X248719055Y-38865353D01*
X248706874Y-38870275D01*
X248550009Y-38953683D01*
X248539120Y-38961027D01*
X248403024Y-39075225D01*
X248393895Y-39084679D01*
X248284522Y-39224670D01*
X248277557Y-39235816D01*
X248219203Y-39355459D01*
X248216631Y-39361520D01*
X248191945Y-39429343D01*
X248190938Y-39445194D01*
X232223044Y-39445194D01*
X232166599Y-39305484D01*
X232160435Y-39293891D01*
X232061083Y-39146598D01*
X232052647Y-39136544D01*
X231924847Y-39013128D01*
X231914485Y-39005033D01*
X231911067Y-39002897D01*
X231897485Y-38999095D01*
X231890642Y-39007197D01*
X231587138Y-39841069D01*
X231586131Y-39856920D01*
X231587025Y-39858528D01*
X231593674Y-39862726D01*
X232118335Y-40053687D01*
X232175507Y-40095781D01*
X232200845Y-40162102D01*
X232200986Y-40180101D01*
X232199011Y-40211091D01*
X232418224Y-40681195D01*
X232420438Y-40686227D01*
X232453073Y-40765015D01*
X232456233Y-40772643D01*
X232461259Y-40779193D01*
X232465390Y-40786348D01*
X232465296Y-40786402D01*
X232473879Y-40800546D01*
X232859390Y-41627277D01*
X232868709Y-41637860D01*
X232873642Y-41636369D01*
X232973170Y-41525833D01*
X232980892Y-41515204D01*
X233053471Y-41389493D01*
X233104853Y-41340500D01*
X233174567Y-41327064D01*
X233240478Y-41353450D01*
X233281660Y-41411282D01*
X233287512Y-41468939D01*
X233276361Y-41553638D01*
X233273439Y-41575835D01*
X233291500Y-41713018D01*
X233294661Y-41720649D01*
X233340901Y-41832283D01*
X233344450Y-41840852D01*
X233351902Y-41850563D01*
X233387625Y-41897119D01*
X233413225Y-41963339D01*
X233398960Y-42032888D01*
X233376757Y-42062917D01*
X233311924Y-42127750D01*
X233249612Y-42161776D01*
X233179736Y-42157056D01*
X232867368Y-42043364D01*
X232811266Y-42034729D01*
X232765067Y-42017913D01*
X232721798Y-41991656D01*
X232673938Y-41939216D01*
X232666575Y-41920461D01*
X232645405Y-41850563D01*
X232637672Y-41838751D01*
X232623751Y-41840869D01*
X232552905Y-41873905D01*
X232482713Y-41884566D01*
X232417901Y-41855586D01*
X232385460Y-41812960D01*
X231962419Y-40905746D01*
X231763280Y-40478692D01*
X231745617Y-40458632D01*
X230929832Y-40161710D01*
X230332296Y-39944225D01*
X230316445Y-39943218D01*
X230314837Y-39944113D01*
X230310640Y-39950759D01*
X230284393Y-40022873D01*
X230282465Y-40029178D01*
X230250262Y-40158334D01*
X230248433Y-40171347D01*
X230242233Y-40348899D01*
X230243149Y-40361997D01*
X230274001Y-40536967D01*
X230277620Y-40549589D01*
X230344174Y-40714314D01*
X230350340Y-40725912D01*
X230449688Y-40873201D01*
X230458131Y-40883263D01*
X230585926Y-41006674D01*
X230596285Y-41014766D01*
X230708957Y-41085171D01*
X230756127Y-41138232D01*
X230767122Y-41208372D01*
X230766144Y-41213302D01*
X230765212Y-41215551D01*
X230745433Y-41365787D01*
X230765212Y-41516023D01*
X230823201Y-41656020D01*
X230915448Y-41776238D01*
X231035666Y-41868485D01*
X231175663Y-41926474D01*
X231183851Y-41927552D01*
X231280333Y-41940254D01*
X231288179Y-41941287D01*
X231363619Y-41941287D01*
X231367701Y-41940750D01*
X231367710Y-41940749D01*
X231371469Y-41940254D01*
X231431009Y-41946775D01*
X231972290Y-42143785D01*
X232029461Y-42185879D01*
X232054799Y-42252200D01*
X232047596Y-42305280D01*
X232031179Y-42350386D01*
X231989085Y-42407558D01*
X231922764Y-42432896D01*
X231869683Y-42425693D01*
X231246307Y-42198803D01*
X231230456Y-42197796D01*
X231228848Y-42198690D01*
X231224651Y-42205337D01*
X231145598Y-42422533D01*
X231143620Y-42429041D01*
X231131413Y-42478736D01*
X231129603Y-42494320D01*
X231130839Y-42622950D01*
X231133525Y-42640507D01*
X231170502Y-42762598D01*
X231178014Y-42778706D01*
X231247766Y-42885500D01*
X231259499Y-42898856D01*
X231316572Y-42947688D01*
X231355329Y-43007173D01*
X231355773Y-43078168D01*
X231317764Y-43138133D01*
X231253369Y-43168030D01*
X231234657Y-43169427D01*
X230811169Y-43169427D01*
X230743048Y-43149425D01*
X230728552Y-43136662D01*
X230727986Y-43137337D01*
X230719541Y-43130251D01*
X230712455Y-43121806D01*
X230697280Y-43113045D01*
X230679815Y-43102961D01*
X230670544Y-43097055D01*
X230648715Y-43081770D01*
X230639684Y-43075446D01*
X230629034Y-43072592D01*
X230625866Y-43071115D01*
X230622590Y-43069923D01*
X230613045Y-43064412D01*
X230579301Y-43058462D01*
X230575942Y-43057870D01*
X230565215Y-43055492D01*
X230528807Y-43045736D01*
X230517822Y-43046697D01*
X230517820Y-43046697D01*
X230491272Y-43049020D01*
X230480290Y-43049500D01*
X229720426Y-43049500D01*
X229678050Y-43042159D01*
X228690864Y-42689593D01*
X228461368Y-42607630D01*
X228446068Y-42600994D01*
X228351006Y-42552049D01*
X228323687Y-42533040D01*
X228250976Y-42466596D01*
X228229589Y-42441098D01*
X228176813Y-42357939D01*
X228162847Y-42327730D01*
X228133685Y-42233654D01*
X228128116Y-42200845D01*
X228124603Y-42102411D01*
X228127819Y-42069287D01*
X228152114Y-41965162D01*
X228156970Y-41949207D01*
X228208516Y-41812960D01*
X228707234Y-40494740D01*
X229098896Y-39459492D01*
X230494208Y-39459492D01*
X230495103Y-39461101D01*
X230501750Y-39465299D01*
X231086555Y-39678150D01*
X231102406Y-39679157D01*
X231104014Y-39678263D01*
X231108211Y-39671616D01*
X231412142Y-38836573D01*
X231413036Y-38822500D01*
X231403687Y-38817491D01*
X231396391Y-38816465D01*
X231383272Y-38816007D01*
X231206041Y-38828401D01*
X231193101Y-38830683D01*
X231022325Y-38879651D01*
X231010144Y-38884573D01*
X230853279Y-38967981D01*
X230842390Y-38975325D01*
X230706294Y-39089523D01*
X230697165Y-39098977D01*
X230587792Y-39238968D01*
X230580827Y-39250114D01*
X230522473Y-39369757D01*
X230519901Y-39375818D01*
X230495215Y-39443641D01*
X230494208Y-39459492D01*
X229098896Y-39459492D01*
X229441338Y-38554344D01*
X241232908Y-38554344D01*
X241242257Y-38559353D01*
X241249553Y-38560379D01*
X241262672Y-38560837D01*
X241439902Y-38548443D01*
X241452842Y-38546161D01*
X241623619Y-38497192D01*
X241635800Y-38492271D01*
X241792664Y-38408864D01*
X241803553Y-38401520D01*
X241939650Y-38287321D01*
X241948779Y-38277867D01*
X242058152Y-38137876D01*
X242065117Y-38126730D01*
X242123471Y-38007088D01*
X242126043Y-38001027D01*
X242150729Y-37933203D01*
X242151736Y-37917351D01*
X242150842Y-37915743D01*
X242144195Y-37911546D01*
X241559389Y-37698694D01*
X241543538Y-37697687D01*
X241541930Y-37698581D01*
X241537733Y-37705228D01*
X241233802Y-38540271D01*
X241232908Y-38554344D01*
X229441338Y-38554344D01*
X229762311Y-37705941D01*
X240377403Y-37705941D01*
X240378319Y-37719039D01*
X240409171Y-37894009D01*
X240412790Y-37906631D01*
X240479344Y-38071356D01*
X240485510Y-38082954D01*
X240584858Y-38230243D01*
X240593301Y-38240305D01*
X240721096Y-38363716D01*
X240731459Y-38371811D01*
X240734877Y-38373947D01*
X240748459Y-38377749D01*
X240755302Y-38369647D01*
X241058806Y-37535775D01*
X241059813Y-37519924D01*
X241058919Y-37518316D01*
X241052272Y-37514119D01*
X240467466Y-37301267D01*
X240451615Y-37300260D01*
X240450007Y-37301155D01*
X240445810Y-37307801D01*
X240419563Y-37379915D01*
X240417635Y-37386220D01*
X240385432Y-37515376D01*
X240383603Y-37528389D01*
X240377403Y-37705941D01*
X229762311Y-37705941D01*
X229948440Y-37213962D01*
X241721301Y-37213962D01*
X241722195Y-37215570D01*
X241728842Y-37219767D01*
X242313648Y-37432619D01*
X242329499Y-37433626D01*
X242331107Y-37432731D01*
X242335304Y-37426085D01*
X242361551Y-37353971D01*
X242363479Y-37347666D01*
X242395682Y-37218510D01*
X242397511Y-37205497D01*
X242403711Y-37027946D01*
X242402795Y-37014849D01*
X242371942Y-36839878D01*
X242368322Y-36827256D01*
X242301769Y-36662526D01*
X242295605Y-36650933D01*
X242196253Y-36503640D01*
X242187817Y-36493586D01*
X242060017Y-36370170D01*
X242049655Y-36362075D01*
X242046237Y-36359939D01*
X242032655Y-36356137D01*
X242025812Y-36364239D01*
X241722308Y-37198111D01*
X241721301Y-37213962D01*
X229948440Y-37213962D01*
X230098797Y-36816534D01*
X240629378Y-36816534D01*
X240630273Y-36818143D01*
X240636920Y-36822341D01*
X241221725Y-37035192D01*
X241237576Y-37036199D01*
X241239184Y-37035305D01*
X241243381Y-37028658D01*
X241547312Y-36193615D01*
X241548206Y-36179542D01*
X241538857Y-36174533D01*
X241531561Y-36173507D01*
X241518442Y-36173049D01*
X241341211Y-36185443D01*
X241328271Y-36187725D01*
X241157495Y-36236693D01*
X241145314Y-36241615D01*
X240988449Y-36325023D01*
X240977560Y-36332367D01*
X240841464Y-36446565D01*
X240832335Y-36456019D01*
X240722962Y-36596010D01*
X240715997Y-36607156D01*
X240657643Y-36726799D01*
X240655071Y-36732860D01*
X240630385Y-36800683D01*
X240629378Y-36816534D01*
X230098797Y-36816534D01*
X230603307Y-35483004D01*
X232794468Y-35483004D01*
X232803817Y-35488013D01*
X232811113Y-35489039D01*
X232824232Y-35489497D01*
X233001462Y-35477103D01*
X233014402Y-35474821D01*
X233185179Y-35425852D01*
X233197360Y-35420931D01*
X233354224Y-35337524D01*
X233365113Y-35330180D01*
X233501210Y-35215981D01*
X233510339Y-35206527D01*
X233619712Y-35066536D01*
X233626677Y-35055390D01*
X233685031Y-34935748D01*
X233687603Y-34929687D01*
X233712289Y-34861863D01*
X233713296Y-34846011D01*
X233712402Y-34844403D01*
X233705755Y-34840206D01*
X233120949Y-34627354D01*
X233105098Y-34626347D01*
X233103490Y-34627241D01*
X233099293Y-34633888D01*
X232795362Y-35468931D01*
X232794468Y-35483004D01*
X230603307Y-35483004D01*
X230924280Y-34634601D01*
X231938963Y-34634601D01*
X231939879Y-34647699D01*
X231970731Y-34822669D01*
X231974350Y-34835291D01*
X232040904Y-35000016D01*
X232047070Y-35011614D01*
X232146418Y-35158903D01*
X232154861Y-35168965D01*
X232282656Y-35292376D01*
X232293019Y-35300471D01*
X232296437Y-35302607D01*
X232310019Y-35306409D01*
X232316862Y-35298307D01*
X232620366Y-34464435D01*
X232621373Y-34448584D01*
X232620479Y-34446976D01*
X232613832Y-34442779D01*
X232029026Y-34229927D01*
X232013175Y-34228920D01*
X232011567Y-34229815D01*
X232007370Y-34236461D01*
X231981123Y-34308575D01*
X231979195Y-34314880D01*
X231946992Y-34444036D01*
X231945163Y-34457049D01*
X231938963Y-34634601D01*
X230924280Y-34634601D01*
X231110409Y-34142622D01*
X233282861Y-34142622D01*
X233283755Y-34144230D01*
X233290402Y-34148427D01*
X233875208Y-34361279D01*
X233891059Y-34362286D01*
X233892667Y-34361391D01*
X233896864Y-34354745D01*
X233923111Y-34282631D01*
X233925039Y-34276326D01*
X233957242Y-34147170D01*
X233959071Y-34134157D01*
X233965271Y-33956606D01*
X233964355Y-33943509D01*
X233933502Y-33768538D01*
X233929882Y-33755916D01*
X233863329Y-33591186D01*
X233857165Y-33579593D01*
X233757813Y-33432300D01*
X233749377Y-33422246D01*
X233621577Y-33298830D01*
X233611215Y-33290735D01*
X233607797Y-33288599D01*
X233594215Y-33284797D01*
X233587372Y-33292899D01*
X233283868Y-34126771D01*
X233282861Y-34142622D01*
X231110409Y-34142622D01*
X231260766Y-33745194D01*
X232190938Y-33745194D01*
X232191833Y-33746803D01*
X232198480Y-33751001D01*
X232783285Y-33963852D01*
X232799136Y-33964859D01*
X232800744Y-33963965D01*
X232804941Y-33957318D01*
X233108872Y-33122275D01*
X233109766Y-33108202D01*
X233100417Y-33103193D01*
X233093121Y-33102167D01*
X233080002Y-33101709D01*
X232902771Y-33114103D01*
X232889831Y-33116385D01*
X232719055Y-33165353D01*
X232706874Y-33170275D01*
X232550009Y-33253683D01*
X232539120Y-33261027D01*
X232403024Y-33375225D01*
X232393895Y-33384679D01*
X232284522Y-33524670D01*
X232277557Y-33535816D01*
X232219203Y-33655459D01*
X232216631Y-33661520D01*
X232191945Y-33729343D01*
X232190938Y-33745194D01*
X231260766Y-33745194D01*
X232372819Y-30805794D01*
X232379571Y-30790937D01*
X232429047Y-30698515D01*
X232448034Y-30671993D01*
X232513937Y-30601415D01*
X232539099Y-30580655D01*
X232620914Y-30529362D01*
X232650565Y-30515758D01*
X232742796Y-30487192D01*
X232774946Y-30481655D01*
X232811392Y-30480170D01*
X232871431Y-30477725D01*
X232903921Y-30480629D01*
G37*
%TD.AperFunction*%
%TD*%
%TA.AperFunction,Conductor*%
%TO.N,Net-(C4-Pad1)*%
G36*
X232221790Y-48545502D02*
G01*
X232268283Y-48599158D01*
X232278387Y-48669432D01*
X232248893Y-48734012D01*
X232242764Y-48740595D01*
X232242264Y-48741095D01*
X232235718Y-48746118D01*
X232139464Y-48871559D01*
X232078956Y-49017638D01*
X232058318Y-49174400D01*
X232078956Y-49331162D01*
X232139464Y-49477241D01*
X232235718Y-49602682D01*
X232361159Y-49698936D01*
X232507238Y-49759444D01*
X232664000Y-49780082D01*
X232672188Y-49779004D01*
X232812574Y-49760522D01*
X232820762Y-49759444D01*
X232966841Y-49698936D01*
X233092282Y-49602682D01*
X233133323Y-49549196D01*
X233190661Y-49507329D01*
X233233286Y-49499900D01*
X239187384Y-49499900D01*
X239255505Y-49519902D01*
X239276479Y-49536805D01*
X239487595Y-49747921D01*
X239521621Y-49810233D01*
X239524500Y-49837016D01*
X239524500Y-50123500D01*
X239504498Y-50191621D01*
X239450842Y-50238114D01*
X239398500Y-50249500D01*
X238830252Y-50249500D01*
X238824184Y-50250707D01*
X238783939Y-50258712D01*
X238783938Y-50258712D01*
X238771769Y-50261133D01*
X238705448Y-50305448D01*
X238661133Y-50371769D01*
X238649500Y-50430252D01*
X238649500Y-51969748D01*
X238661133Y-52028231D01*
X238668026Y-52038547D01*
X238705448Y-52094552D01*
X238702036Y-52096832D01*
X238725099Y-52139067D01*
X238720034Y-52209882D01*
X238677487Y-52266718D01*
X238646207Y-52283832D01*
X238611948Y-52296675D01*
X238596351Y-52305214D01*
X238494276Y-52381715D01*
X238481715Y-52394276D01*
X238405214Y-52496351D01*
X238396676Y-52511946D01*
X238351522Y-52632394D01*
X238347895Y-52647649D01*
X238342369Y-52698514D01*
X238342000Y-52705328D01*
X238342000Y-53227885D01*
X238346475Y-53243124D01*
X238347865Y-53244329D01*
X238355548Y-53246000D01*
X241339884Y-53246000D01*
X241355123Y-53241525D01*
X241356328Y-53240135D01*
X241357999Y-53232452D01*
X241357999Y-52705331D01*
X241357629Y-52698510D01*
X241352105Y-52647648D01*
X241348479Y-52632396D01*
X241303324Y-52511946D01*
X241294786Y-52496351D01*
X241218285Y-52394276D01*
X241205724Y-52381715D01*
X241103649Y-52305214D01*
X241088052Y-52296675D01*
X241053793Y-52283832D01*
X240997028Y-52241191D01*
X240972328Y-52174630D01*
X240987535Y-52105281D01*
X240995237Y-52095010D01*
X240994552Y-52094552D01*
X241031974Y-52038547D01*
X241038867Y-52028231D01*
X241050500Y-51969748D01*
X241050500Y-51651500D01*
X241070502Y-51583379D01*
X241124158Y-51536886D01*
X241176500Y-51525500D01*
X242074000Y-51525500D01*
X242142121Y-51545502D01*
X242188614Y-51599158D01*
X242200000Y-51651500D01*
X242200000Y-55348500D01*
X242179998Y-55416621D01*
X242126342Y-55463114D01*
X242074000Y-55474500D01*
X241176500Y-55474500D01*
X241108379Y-55454498D01*
X241061886Y-55400842D01*
X241050500Y-55348500D01*
X241050500Y-55030252D01*
X241038867Y-54971769D01*
X240994552Y-54905448D01*
X240997964Y-54903168D01*
X240974901Y-54860933D01*
X240979966Y-54790118D01*
X241022513Y-54733282D01*
X241053793Y-54716168D01*
X241088052Y-54703325D01*
X241103649Y-54694786D01*
X241205724Y-54618285D01*
X241218285Y-54605724D01*
X241294786Y-54503649D01*
X241303324Y-54488054D01*
X241348478Y-54367606D01*
X241352105Y-54352351D01*
X241357631Y-54301486D01*
X241358000Y-54294672D01*
X241358000Y-53772115D01*
X241353525Y-53756876D01*
X241352135Y-53755671D01*
X241344452Y-53754000D01*
X238360116Y-53754000D01*
X238344877Y-53758475D01*
X238343672Y-53759865D01*
X238342001Y-53767548D01*
X238342001Y-54294669D01*
X238342371Y-54301490D01*
X238347895Y-54352352D01*
X238351521Y-54367604D01*
X238396676Y-54488054D01*
X238405214Y-54503649D01*
X238481715Y-54605724D01*
X238494276Y-54618285D01*
X238596351Y-54694786D01*
X238611948Y-54703325D01*
X238646207Y-54716168D01*
X238702972Y-54758809D01*
X238727672Y-54825370D01*
X238712465Y-54894719D01*
X238704763Y-54904990D01*
X238705448Y-54905448D01*
X238661133Y-54971769D01*
X238649500Y-55030252D01*
X238649500Y-56569748D01*
X238661133Y-56628231D01*
X238705448Y-56694552D01*
X238771769Y-56738867D01*
X238783938Y-56741288D01*
X238783939Y-56741288D01*
X238824184Y-56749293D01*
X238830252Y-56750500D01*
X240869748Y-56750500D01*
X240875816Y-56749293D01*
X240916061Y-56741288D01*
X240916062Y-56741288D01*
X240928231Y-56738867D01*
X240994552Y-56694552D01*
X241038867Y-56628231D01*
X241050500Y-56569748D01*
X241050500Y-56251500D01*
X241070502Y-56183379D01*
X241124158Y-56136886D01*
X241176500Y-56125500D01*
X242062984Y-56125500D01*
X242131105Y-56145502D01*
X242152079Y-56162405D01*
X242163095Y-56173421D01*
X242197121Y-56235733D01*
X242200000Y-56262516D01*
X242200000Y-57615394D01*
X242179998Y-57683515D01*
X242126342Y-57730008D01*
X242074000Y-57741394D01*
X241252816Y-57741394D01*
X241241834Y-57740914D01*
X241215286Y-57738591D01*
X241215284Y-57738591D01*
X241204299Y-57737630D01*
X241167891Y-57747386D01*
X241157164Y-57749764D01*
X241153805Y-57750356D01*
X241120061Y-57756306D01*
X241110516Y-57761817D01*
X241107240Y-57763009D01*
X241104072Y-57764486D01*
X241093422Y-57767340D01*
X241084391Y-57773664D01*
X241062562Y-57788949D01*
X241053291Y-57794855D01*
X241030200Y-57808187D01*
X241020651Y-57813700D01*
X241013565Y-57822145D01*
X240996421Y-57842576D01*
X240988995Y-57850679D01*
X240376579Y-58463095D01*
X240314267Y-58497121D01*
X240287484Y-58500000D01*
X231708258Y-58500000D01*
X231691812Y-58498922D01*
X231587037Y-58485128D01*
X231555265Y-58476615D01*
X231465326Y-58439361D01*
X231436840Y-58422914D01*
X231359607Y-58363651D01*
X231336349Y-58340393D01*
X231277086Y-58263160D01*
X231260639Y-58234674D01*
X231223385Y-58144735D01*
X231214872Y-58112963D01*
X231201078Y-58008188D01*
X231200000Y-57991742D01*
X231200000Y-55444669D01*
X232042001Y-55444669D01*
X232042371Y-55451490D01*
X232047895Y-55502352D01*
X232051521Y-55517604D01*
X232096676Y-55638054D01*
X232105214Y-55653649D01*
X232181715Y-55755724D01*
X232194276Y-55768285D01*
X232296351Y-55844786D01*
X232311946Y-55853324D01*
X232432394Y-55898478D01*
X232447649Y-55902105D01*
X232498514Y-55907631D01*
X232505328Y-55908000D01*
X233277885Y-55908000D01*
X233293124Y-55903525D01*
X233294329Y-55902135D01*
X233296000Y-55894452D01*
X233296000Y-55889884D01*
X233804000Y-55889884D01*
X233808475Y-55905123D01*
X233809865Y-55906328D01*
X233817548Y-55907999D01*
X234594669Y-55907999D01*
X234601490Y-55907629D01*
X234652352Y-55902105D01*
X234667604Y-55898479D01*
X234788054Y-55853324D01*
X234803649Y-55844786D01*
X234905724Y-55768285D01*
X234918285Y-55755724D01*
X234994786Y-55653649D01*
X235003324Y-55638054D01*
X235048478Y-55517606D01*
X235052105Y-55502351D01*
X235057631Y-55451486D01*
X235058000Y-55444672D01*
X235058000Y-53772115D01*
X235053525Y-53756876D01*
X235052135Y-53755671D01*
X235044452Y-53754000D01*
X233822115Y-53754000D01*
X233806876Y-53758475D01*
X233805671Y-53759865D01*
X233804000Y-53767548D01*
X233804000Y-55889884D01*
X233296000Y-55889884D01*
X233296000Y-53772115D01*
X233291525Y-53756876D01*
X233290135Y-53755671D01*
X233282452Y-53754000D01*
X232060116Y-53754000D01*
X232044877Y-53758475D01*
X232043672Y-53759865D01*
X232042001Y-53767548D01*
X232042001Y-55444669D01*
X231200000Y-55444669D01*
X231200000Y-53227885D01*
X232042000Y-53227885D01*
X232046475Y-53243124D01*
X232047865Y-53244329D01*
X232055548Y-53246000D01*
X233277885Y-53246000D01*
X233293124Y-53241525D01*
X233294329Y-53240135D01*
X233296000Y-53232452D01*
X233296000Y-53227885D01*
X233804000Y-53227885D01*
X233808475Y-53243124D01*
X233809865Y-53244329D01*
X233817548Y-53246000D01*
X235039884Y-53246000D01*
X235055123Y-53241525D01*
X235056328Y-53240135D01*
X235057999Y-53232452D01*
X235057999Y-51555331D01*
X235057629Y-51548510D01*
X235052105Y-51497648D01*
X235048479Y-51482396D01*
X235003324Y-51361946D01*
X234994786Y-51346351D01*
X234918285Y-51244276D01*
X234905724Y-51231715D01*
X234803649Y-51155214D01*
X234788054Y-51146676D01*
X234667606Y-51101522D01*
X234652351Y-51097895D01*
X234601486Y-51092369D01*
X234594672Y-51092000D01*
X233822115Y-51092000D01*
X233806876Y-51096475D01*
X233805671Y-51097865D01*
X233804000Y-51105548D01*
X233804000Y-53227885D01*
X233296000Y-53227885D01*
X233296000Y-51110116D01*
X233291525Y-51094877D01*
X233290135Y-51093672D01*
X233282452Y-51092001D01*
X232505331Y-51092001D01*
X232498510Y-51092371D01*
X232447648Y-51097895D01*
X232432396Y-51101521D01*
X232311946Y-51146676D01*
X232296351Y-51155214D01*
X232194276Y-51231715D01*
X232181715Y-51244276D01*
X232105214Y-51346351D01*
X232096676Y-51361946D01*
X232051522Y-51482394D01*
X232047895Y-51497649D01*
X232042369Y-51548514D01*
X232042000Y-51555328D01*
X232042000Y-53227885D01*
X231200000Y-53227885D01*
X231200000Y-49008258D01*
X231201078Y-48991812D01*
X231214872Y-48887037D01*
X231223385Y-48855265D01*
X231260639Y-48765326D01*
X231277086Y-48736840D01*
X231336349Y-48659607D01*
X231359607Y-48636349D01*
X231436840Y-48577086D01*
X231465326Y-48560639D01*
X231527004Y-48535091D01*
X231575222Y-48525500D01*
X232153669Y-48525500D01*
X232221790Y-48545502D01*
G37*
%TD.AperFunction*%
%TD*%
M02*
