%TF.GenerationSoftware,KiCad,Pcbnew,(6.0.7-1)-1*%
%TF.CreationDate,2022-10-21T17:23:08-04:00*%
%TF.ProjectId,Splitboard-A,53706c69-7462-46f6-9172-642d412e6b69,rev?*%
%TF.SameCoordinates,Original*%
%TF.FileFunction,Soldermask,Bot*%
%TF.FilePolarity,Negative*%
%FSLAX46Y46*%
G04 Gerber Fmt 4.6, Leading zero omitted, Abs format (unit mm)*
G04 Created by KiCad (PCBNEW (6.0.7-1)-1) date 2022-10-21 17:23:08*
%MOMM*%
%LPD*%
G01*
G04 APERTURE LIST*
G04 Aperture macros list*
%AMRoundRect*
0 Rectangle with rounded corners*
0 $1 Rounding radius*
0 $2 $3 $4 $5 $6 $7 $8 $9 X,Y pos of 4 corners*
0 Add a 4 corners polygon primitive as box body*
4,1,4,$2,$3,$4,$5,$6,$7,$8,$9,$2,$3,0*
0 Add four circle primitives for the rounded corners*
1,1,$1+$1,$2,$3*
1,1,$1+$1,$4,$5*
1,1,$1+$1,$6,$7*
1,1,$1+$1,$8,$9*
0 Add four rect primitives between the rounded corners*
20,1,$1+$1,$2,$3,$4,$5,0*
20,1,$1+$1,$4,$5,$6,$7,0*
20,1,$1+$1,$6,$7,$8,$9,0*
20,1,$1+$1,$8,$9,$2,$3,0*%
%AMHorizOval*
0 Thick line with rounded ends*
0 $1 width*
0 $2 $3 position (X,Y) of the first rounded end (center of the circle)*
0 $4 $5 position (X,Y) of the second rounded end (center of the circle)*
0 Add line between two ends*
20,1,$1,$2,$3,$4,$5,0*
0 Add two circle primitives to create the rounded ends*
1,1,$1,$2,$3*
1,1,$1,$4,$5*%
%AMRotRect*
0 Rectangle, with rotation*
0 The origin of the aperture is its center*
0 $1 length*
0 $2 width*
0 $3 Rotation angle, in degrees counterclockwise*
0 Add horizontal line*
21,1,$1,$2,0,0,$3*%
G04 Aperture macros list end*
%ADD10C,1.750000*%
%ADD11RoundRect,0.250000X-1.025000X-1.000000X1.025000X-1.000000X1.025000X1.000000X-1.025000X1.000000X0*%
%ADD12C,4.000000*%
%ADD13C,3.600000*%
%ADD14RoundRect,0.250000X-1.431891X0.017678X0.017678X-1.431891X1.431891X-0.017678X-0.017678X1.431891X0*%
%ADD15R,1.500000X1.500000*%
%ADD16C,1.500000*%
%ADD17R,2.000000X2.000000*%
%ADD18C,2.000000*%
%ADD19R,3.200000X2.000000*%
%ADD20RoundRect,0.250000X-0.250000X-0.475000X0.250000X-0.475000X0.250000X0.475000X-0.250000X0.475000X0*%
%ADD21RoundRect,0.250000X0.475000X-0.250000X0.475000X0.250000X-0.475000X0.250000X-0.475000X-0.250000X0*%
%ADD22R,0.600000X0.450000*%
%ADD23RoundRect,0.250000X-0.262500X-0.450000X0.262500X-0.450000X0.262500X0.450000X-0.262500X0.450000X0*%
%ADD24RoundRect,0.250000X0.262500X0.450000X-0.262500X0.450000X-0.262500X-0.450000X0.262500X-0.450000X0*%
%ADD25RoundRect,0.250000X-0.475000X0.250000X-0.475000X-0.250000X0.475000X-0.250000X0.475000X0.250000X0*%
%ADD26RoundRect,0.250000X0.450000X-0.262500X0.450000X0.262500X-0.450000X0.262500X-0.450000X-0.262500X0*%
%ADD27R,0.900000X1.200000*%
%ADD28RoundRect,0.250000X-0.450000X0.262500X-0.450000X-0.262500X0.450000X-0.262500X0.450000X0.262500X0*%
%ADD29C,2.700000*%
%ADD30R,1.700000X1.700000*%
%ADD31O,1.700000X1.700000*%
%ADD32RotRect,0.900000X1.200000X315.000000*%
%ADD33R,2.000000X1.500000*%
%ADD34R,2.000000X3.800000*%
%ADD35R,1.300000X0.550000*%
%ADD36RoundRect,0.250000X0.250000X0.475000X-0.250000X0.475000X-0.250000X-0.475000X0.250000X-0.475000X0*%
%ADD37R,0.876300X0.355600*%
%ADD38RoundRect,0.075000X0.725000X0.075000X-0.725000X0.075000X-0.725000X-0.075000X0.725000X-0.075000X0*%
%ADD39RoundRect,0.075000X0.075000X0.725000X-0.075000X0.725000X-0.075000X-0.725000X0.075000X-0.725000X0*%
%ADD40R,0.450000X0.600000*%
%ADD41HorizOval,0.650000X0.140954X-0.051303X-0.140954X0.051303X0*%
%ADD42C,0.650000*%
%ADD43RotRect,0.300000X0.700000X340.000000*%
%ADD44HorizOval,0.800000X-0.102606X-0.281908X0.102606X0.281908X0*%
%ADD45C,0.800000*%
G04 APERTURE END LIST*
D10*
%TO.C,K28*%
X224080000Y-97000000D03*
D11*
X224842000Y-91920000D03*
D12*
X219000000Y-97000000D03*
D11*
X211915000Y-94460000D03*
D10*
X213920000Y-97000000D03*
D13*
X215190000Y-94460000D03*
X221540000Y-91920000D03*
%TD*%
D12*
%TO.C,K11*%
X162000000Y-52000000D03*
D10*
X156920000Y-52000000D03*
D11*
X167842000Y-46920000D03*
D10*
X167080000Y-52000000D03*
D11*
X154915000Y-49460000D03*
D13*
X158190000Y-49460000D03*
X164540000Y-46920000D03*
%TD*%
D12*
%TO.C,K33*%
X181000000Y-110000000D03*
D11*
X186842000Y-104920000D03*
D10*
X175920000Y-110000000D03*
X186080000Y-110000000D03*
D11*
X173915000Y-107460000D03*
D13*
X177190000Y-107460000D03*
X183540000Y-104920000D03*
%TD*%
D10*
%TO.C,K20*%
X205080000Y-74000000D03*
D12*
X200000000Y-74000000D03*
D11*
X205842000Y-68920000D03*
X192915000Y-71460000D03*
D10*
X194920000Y-74000000D03*
D13*
X196190000Y-71460000D03*
X202540000Y-68920000D03*
%TD*%
D11*
%TO.C,K13*%
X205842000Y-49920000D03*
X192915000Y-52460000D03*
D10*
X194920000Y-55000000D03*
X205080000Y-55000000D03*
D12*
X200000000Y-55000000D03*
D13*
X196190000Y-52460000D03*
X202540000Y-49920000D03*
%TD*%
D11*
%TO.C,K7*%
X211915000Y-37460000D03*
X224842000Y-34920000D03*
D10*
X224080000Y-40000000D03*
D12*
X219000000Y-40000000D03*
D10*
X213920000Y-40000000D03*
D13*
X215190000Y-37460000D03*
X221540000Y-34920000D03*
%TD*%
D11*
%TO.C,K17*%
X148842000Y-66920000D03*
D12*
X143000000Y-72000000D03*
D10*
X148080000Y-72000000D03*
D11*
X135915000Y-69460000D03*
D10*
X137920000Y-72000000D03*
D13*
X139190000Y-69460000D03*
X145540000Y-66920000D03*
%TD*%
D11*
%TO.C,K16*%
X129842000Y-68920000D03*
D12*
X124000000Y-74000000D03*
D11*
X116915000Y-71460000D03*
D10*
X129080000Y-74000000D03*
X118920000Y-74000000D03*
D13*
X120190000Y-71460000D03*
X126540000Y-68920000D03*
%TD*%
D10*
%TO.C,K37*%
X229592102Y-154987367D03*
D12*
X226000000Y-151395265D03*
D10*
X222407898Y-147803163D03*
D14*
X233723020Y-151934080D03*
X222786200Y-144589362D03*
D13*
X225101974Y-146905137D03*
X231388154Y-149599214D03*
%TD*%
D12*
%TO.C,U2*%
X270610000Y-61100000D03*
X270610000Y-122300000D03*
X236510000Y-61100000D03*
X236510000Y-122300000D03*
D15*
X243400000Y-123800000D03*
D16*
X245940000Y-123800000D03*
X248480000Y-123800000D03*
X251020000Y-123800000D03*
X253560000Y-123800000D03*
X256100000Y-123800000D03*
X258640000Y-123800000D03*
X261180000Y-123800000D03*
X263720000Y-123800000D03*
X248480000Y-60280000D03*
X251020000Y-60280000D03*
X253560000Y-60280000D03*
X256100000Y-60280000D03*
X258640000Y-60280000D03*
%TD*%
D11*
%TO.C,K2*%
X116915000Y-33460000D03*
D10*
X129080000Y-36000000D03*
X118920000Y-36000000D03*
D12*
X124000000Y-36000000D03*
D11*
X129842000Y-30920000D03*
D13*
X120190000Y-33460000D03*
X126540000Y-30920000D03*
%TD*%
D10*
%TO.C,K38*%
X243027131Y-168422396D03*
D14*
X247158049Y-165369109D03*
X236221229Y-158024391D03*
D12*
X239435029Y-164830294D03*
D10*
X235842927Y-161238192D03*
D13*
X238537003Y-160340166D03*
X244823183Y-163034243D03*
%TD*%
D12*
%TO.C,K5*%
X181000000Y-34000000D03*
D11*
X186842000Y-28920000D03*
D10*
X186080000Y-34000000D03*
D11*
X173915000Y-31460000D03*
D10*
X175920000Y-34000000D03*
D13*
X177190000Y-31460000D03*
X183540000Y-28920000D03*
%TD*%
D11*
%TO.C,K9*%
X129842000Y-49920000D03*
D10*
X118920000Y-55000000D03*
X129080000Y-55000000D03*
D11*
X116915000Y-52460000D03*
D12*
X124000000Y-55000000D03*
D13*
X120190000Y-52460000D03*
X126540000Y-49920000D03*
%TD*%
D10*
%TO.C,K32*%
X156920000Y-109000000D03*
D11*
X154915000Y-106460000D03*
D12*
X162000000Y-109000000D03*
D10*
X167080000Y-109000000D03*
D11*
X167842000Y-103920000D03*
D13*
X158190000Y-106460000D03*
X164540000Y-103920000D03*
%TD*%
D10*
%TO.C,K1*%
X110080000Y-40000000D03*
D12*
X105000000Y-40000000D03*
D11*
X97915000Y-37460000D03*
X110842000Y-34920000D03*
D10*
X99920000Y-40000000D03*
D13*
X101190000Y-37460000D03*
X107540000Y-34920000D03*
%TD*%
D10*
%TO.C,K26*%
X175920000Y-91000000D03*
D11*
X186842000Y-85920000D03*
X173915000Y-88460000D03*
D12*
X181000000Y-91000000D03*
D10*
X186080000Y-91000000D03*
D13*
X177190000Y-88460000D03*
X183540000Y-85920000D03*
%TD*%
D17*
%TO.C,SW1*%
X245175000Y-137475000D03*
D18*
X245175000Y-142475000D03*
X245175000Y-139975000D03*
D19*
X252675000Y-145575000D03*
X252675000Y-134375000D03*
D18*
X259675000Y-142475000D03*
X259675000Y-137475000D03*
%TD*%
D11*
%TO.C,K4*%
X167842000Y-27920000D03*
X154915000Y-30460000D03*
D12*
X162000000Y-33000000D03*
D10*
X167080000Y-33000000D03*
X156920000Y-33000000D03*
D13*
X158190000Y-30460000D03*
X164540000Y-27920000D03*
%TD*%
D11*
%TO.C,K34*%
X192915000Y-109460000D03*
D10*
X194920000Y-112000000D03*
D12*
X200000000Y-112000000D03*
D11*
X205842000Y-106920000D03*
D10*
X205080000Y-112000000D03*
D13*
X196190000Y-109460000D03*
X202540000Y-106920000D03*
%TD*%
D11*
%TO.C,K30*%
X116915000Y-109460000D03*
X129842000Y-106920000D03*
D10*
X129080000Y-112000000D03*
D12*
X124000000Y-112000000D03*
D10*
X118920000Y-112000000D03*
D13*
X120190000Y-109460000D03*
X126540000Y-106920000D03*
%TD*%
D11*
%TO.C,K14*%
X224842000Y-53920000D03*
D10*
X213920000Y-59000000D03*
X224080000Y-59000000D03*
D11*
X211915000Y-56460000D03*
D12*
X219000000Y-59000000D03*
D13*
X215190000Y-56460000D03*
X221540000Y-53920000D03*
%TD*%
D11*
%TO.C,K12*%
X173915000Y-50460000D03*
X186842000Y-47920000D03*
D10*
X186080000Y-53000000D03*
X175920000Y-53000000D03*
D12*
X181000000Y-53000000D03*
D13*
X177190000Y-50460000D03*
X183540000Y-47920000D03*
%TD*%
D12*
%TO.C,K22*%
X105000000Y-97000000D03*
D10*
X110080000Y-97000000D03*
X99920000Y-97000000D03*
D11*
X110842000Y-91920000D03*
X97915000Y-94460000D03*
D13*
X101190000Y-94460000D03*
X107540000Y-91920000D03*
%TD*%
D10*
%TO.C,K6*%
X205080000Y-36000000D03*
D11*
X192915000Y-33460000D03*
D12*
X200000000Y-36000000D03*
D10*
X194920000Y-36000000D03*
D11*
X205842000Y-30920000D03*
D13*
X196190000Y-33460000D03*
X202540000Y-30920000D03*
%TD*%
D10*
%TO.C,K8*%
X110080000Y-59000000D03*
D11*
X97915000Y-56460000D03*
D12*
X105000000Y-59000000D03*
D10*
X99920000Y-59000000D03*
D11*
X110842000Y-53920000D03*
D13*
X101190000Y-56460000D03*
X107540000Y-53920000D03*
%TD*%
D10*
%TO.C,K18*%
X156920000Y-71000000D03*
D11*
X154915000Y-68460000D03*
D12*
X162000000Y-71000000D03*
D10*
X167080000Y-71000000D03*
D11*
X167842000Y-65920000D03*
D13*
X158190000Y-68460000D03*
X164540000Y-65920000D03*
%TD*%
D11*
%TO.C,K15*%
X110842000Y-72920000D03*
D10*
X110080000Y-78000000D03*
D11*
X97915000Y-75460000D03*
D10*
X99920000Y-78000000D03*
D12*
X105000000Y-78000000D03*
D13*
X101190000Y-75460000D03*
X107540000Y-72920000D03*
%TD*%
D12*
%TO.C,K21*%
X219000000Y-78000000D03*
D11*
X224842000Y-72920000D03*
X211915000Y-75460000D03*
D10*
X224080000Y-78000000D03*
X213920000Y-78000000D03*
D13*
X215190000Y-75460000D03*
X221540000Y-72920000D03*
%TD*%
D11*
%TO.C,K19*%
X173915000Y-69460000D03*
X186842000Y-66920000D03*
D10*
X175920000Y-72000000D03*
D12*
X181000000Y-72000000D03*
D10*
X186080000Y-72000000D03*
D13*
X177190000Y-69460000D03*
X183540000Y-66920000D03*
%TD*%
D12*
%TO.C,K25*%
X162000000Y-90000000D03*
D11*
X167842000Y-84920000D03*
X154915000Y-87460000D03*
D10*
X167080000Y-90000000D03*
X156920000Y-90000000D03*
D13*
X158190000Y-87460000D03*
X164540000Y-84920000D03*
%TD*%
D10*
%TO.C,K10*%
X137920000Y-53000000D03*
D11*
X135915000Y-50460000D03*
D10*
X148080000Y-53000000D03*
D12*
X143000000Y-53000000D03*
D11*
X148842000Y-47920000D03*
D13*
X139190000Y-50460000D03*
X145540000Y-47920000D03*
%TD*%
D10*
%TO.C,K31*%
X137920000Y-110000000D03*
X148080000Y-110000000D03*
D11*
X135915000Y-107460000D03*
D12*
X143000000Y-110000000D03*
D11*
X148842000Y-104920000D03*
D13*
X139190000Y-107460000D03*
X145540000Y-104920000D03*
%TD*%
D11*
%TO.C,K23*%
X116915000Y-90460000D03*
X129842000Y-87920000D03*
D10*
X129080000Y-93000000D03*
D12*
X124000000Y-93000000D03*
D10*
X118920000Y-93000000D03*
D13*
X120190000Y-90460000D03*
X126540000Y-87920000D03*
%TD*%
D10*
%TO.C,K29*%
X99920000Y-116000000D03*
D11*
X110842000Y-110920000D03*
X97915000Y-113460000D03*
D12*
X105000000Y-116000000D03*
D10*
X110080000Y-116000000D03*
D13*
X101190000Y-113460000D03*
X107540000Y-110920000D03*
%TD*%
D11*
%TO.C,K24*%
X148842000Y-85920000D03*
D10*
X148080000Y-91000000D03*
D11*
X135915000Y-88460000D03*
D12*
X143000000Y-91000000D03*
D10*
X137920000Y-91000000D03*
D13*
X139190000Y-88460000D03*
X145540000Y-85920000D03*
%TD*%
D14*
%TO.C,K36*%
X209351171Y-131154333D03*
D10*
X216157073Y-141552338D03*
D14*
X220287991Y-138499051D03*
D10*
X208972869Y-134368134D03*
D12*
X212564971Y-137960236D03*
D13*
X211666945Y-133470108D03*
X217953125Y-136164185D03*
%TD*%
D10*
%TO.C,K35*%
X213920000Y-116000000D03*
D11*
X211915000Y-113460000D03*
D10*
X224080000Y-116000000D03*
D12*
X219000000Y-116000000D03*
D11*
X224842000Y-110920000D03*
D13*
X215190000Y-113460000D03*
X221540000Y-110920000D03*
%TD*%
D11*
%TO.C,K27*%
X205842000Y-87920000D03*
D12*
X200000000Y-93000000D03*
D10*
X194920000Y-93000000D03*
D11*
X192915000Y-90460000D03*
D10*
X205080000Y-93000000D03*
D13*
X196190000Y-90460000D03*
X202540000Y-87920000D03*
%TD*%
D10*
%TO.C,K3*%
X148080000Y-34000000D03*
X137920000Y-34000000D03*
D11*
X148842000Y-28920000D03*
D12*
X143000000Y-34000000D03*
D11*
X135915000Y-31460000D03*
D13*
X139190000Y-31460000D03*
X145540000Y-28920000D03*
%TD*%
D20*
%TO.C,C5*%
X262450000Y-137500000D03*
X264350000Y-137500000D03*
%TD*%
D21*
%TO.C,C20*%
X265300000Y-47850000D03*
X265300000Y-45950000D03*
%TD*%
D22*
%TO.C,D41*%
X259950000Y-100500000D03*
X262050000Y-100500000D03*
%TD*%
D23*
%TO.C,R7*%
X236587500Y-82000000D03*
X238412500Y-82000000D03*
%TD*%
D24*
%TO.C,R14*%
X242012500Y-145100000D03*
X240187500Y-145100000D03*
%TD*%
D25*
%TO.C,C10*%
X248500000Y-79550000D03*
X248500000Y-81450000D03*
%TD*%
D26*
%TO.C,R16*%
X259100000Y-64712500D03*
X259100000Y-62887500D03*
%TD*%
D20*
%TO.C,C8*%
X263050000Y-97000000D03*
X264950000Y-97000000D03*
%TD*%
D18*
%TO.C,SW2*%
X234000000Y-108500000D03*
X240500000Y-108500000D03*
X234000000Y-113000000D03*
X240500000Y-113000000D03*
%TD*%
D26*
%TO.C,R25*%
X251700000Y-74412500D03*
X251700000Y-72587500D03*
%TD*%
D20*
%TO.C,C1*%
X253550000Y-97000000D03*
X255450000Y-97000000D03*
%TD*%
D27*
%TO.C,D22*%
X110650000Y-102000000D03*
X107350000Y-102000000D03*
%TD*%
D28*
%TO.C,R2*%
X231100000Y-45387500D03*
X231100000Y-47212500D03*
%TD*%
D29*
%TO.C,H1*%
X273000000Y-52000000D03*
%TD*%
D25*
%TO.C,C9*%
X246000000Y-79550000D03*
X246000000Y-81450000D03*
%TD*%
D27*
%TO.C,D19*%
X186650000Y-77000000D03*
X183350000Y-77000000D03*
%TD*%
D21*
%TO.C,C12*%
X269500000Y-77450000D03*
X269500000Y-75550000D03*
%TD*%
D20*
%TO.C,C3*%
X243250000Y-56800000D03*
X245150000Y-56800000D03*
%TD*%
D27*
%TO.C,D9*%
X129650000Y-60000000D03*
X126350000Y-60000000D03*
%TD*%
D23*
%TO.C,R38*%
X270987500Y-70600000D03*
X272812500Y-70600000D03*
%TD*%
D27*
%TO.C,D13*%
X205650000Y-60000000D03*
X202350000Y-60000000D03*
%TD*%
D24*
%TO.C,R36*%
X242012500Y-129700000D03*
X240187500Y-129700000D03*
%TD*%
D27*
%TO.C,D10*%
X148650000Y-58000000D03*
X145350000Y-58000000D03*
%TD*%
D26*
%TO.C,R20*%
X265900000Y-64725000D03*
X265900000Y-62900000D03*
%TD*%
D27*
%TO.C,D12*%
X186650000Y-58000000D03*
X183350000Y-58000000D03*
%TD*%
D30*
%TO.C,J3*%
X262625000Y-103650000D03*
D31*
X262625000Y-106190000D03*
X262625000Y-108730000D03*
X262625000Y-111270000D03*
X262625000Y-113810000D03*
X262625000Y-116350000D03*
%TD*%
D27*
%TO.C,D16*%
X129650000Y-79000000D03*
X126350000Y-79000000D03*
%TD*%
D26*
%TO.C,R18*%
X263700000Y-64700000D03*
X263700000Y-62875000D03*
%TD*%
D27*
%TO.C,D15*%
X110650000Y-83000000D03*
X107350000Y-83000000D03*
%TD*%
D26*
%TO.C,R4*%
X243500000Y-85825000D03*
X243500000Y-84000000D03*
%TD*%
%TO.C,R30*%
X262200000Y-74412500D03*
X262200000Y-72587500D03*
%TD*%
D23*
%TO.C,R11*%
X240187500Y-137487500D03*
X242012500Y-137487500D03*
%TD*%
D32*
%TO.C,D37*%
X224025688Y-156248710D03*
X226359140Y-158582162D03*
%TD*%
D26*
%TO.C,R17*%
X256800000Y-64712500D03*
X256800000Y-62887500D03*
%TD*%
D27*
%TO.C,D11*%
X167650000Y-57000000D03*
X164350000Y-57000000D03*
%TD*%
D28*
%TO.C,R15*%
X271500000Y-86587500D03*
X271500000Y-88412500D03*
%TD*%
%TO.C,R22*%
X234300000Y-140187500D03*
X234300000Y-142012500D03*
%TD*%
D27*
%TO.C,D2*%
X129650000Y-41000000D03*
X126350000Y-41000000D03*
%TD*%
D21*
%TO.C,C13*%
X272000000Y-77450000D03*
X272000000Y-75550000D03*
%TD*%
D20*
%TO.C,C6*%
X262450000Y-135100000D03*
X264350000Y-135100000D03*
%TD*%
D23*
%TO.C,R9*%
X236587500Y-77000000D03*
X238412500Y-77000000D03*
%TD*%
D27*
%TO.C,D14*%
X224650000Y-64000000D03*
X221350000Y-64000000D03*
%TD*%
D23*
%TO.C,R39*%
X270987500Y-68300000D03*
X272812500Y-68300000D03*
%TD*%
D25*
%TO.C,C4*%
X229400000Y-56200000D03*
X229400000Y-58100000D03*
%TD*%
D33*
%TO.C,U4*%
X239850000Y-51200000D03*
X239850000Y-53500000D03*
D34*
X233550000Y-53500000D03*
D33*
X239850000Y-55800000D03*
%TD*%
D27*
%TO.C,D17*%
X148650000Y-77000000D03*
X145350000Y-77000000D03*
%TD*%
D20*
%TO.C,C16*%
X240150000Y-132300000D03*
X242050000Y-132300000D03*
%TD*%
D27*
%TO.C,D23*%
X129650000Y-98000000D03*
X126350000Y-98000000D03*
%TD*%
D24*
%TO.C,R33*%
X247812500Y-93480000D03*
X245987500Y-93480000D03*
%TD*%
D27*
%TO.C,D3*%
X148650000Y-39000000D03*
X145350000Y-39000000D03*
%TD*%
%TO.C,D34*%
X205650000Y-117000000D03*
X202350000Y-117000000D03*
%TD*%
D25*
%TO.C,C7*%
X251000000Y-96100000D03*
X251000000Y-98000000D03*
%TD*%
D35*
%TO.C,U1*%
X272123500Y-80248499D03*
X272123500Y-81198500D03*
X272123500Y-82148501D03*
X269623500Y-82148501D03*
X269623500Y-80248499D03*
%TD*%
D28*
%TO.C,R41*%
X259334000Y-116283100D03*
X259334000Y-118108100D03*
%TD*%
D24*
%TO.C,FB1*%
X245112500Y-54400000D03*
X243287500Y-54400000D03*
%TD*%
D21*
%TO.C,C14*%
X269000000Y-86450000D03*
X269000000Y-84550000D03*
%TD*%
D25*
%TO.C,C15*%
X269000000Y-90050000D03*
X269000000Y-91950000D03*
%TD*%
D27*
%TO.C,D30*%
X129650000Y-117000000D03*
X126350000Y-117000000D03*
%TD*%
%TO.C,D25*%
X167650000Y-95000000D03*
X164350000Y-95000000D03*
%TD*%
D36*
%TO.C,C17*%
X242050000Y-147700000D03*
X240150000Y-147700000D03*
%TD*%
D32*
%TO.C,D36*%
X210590654Y-142813684D03*
X212924106Y-145147136D03*
%TD*%
D27*
%TO.C,D35*%
X224650000Y-121000000D03*
X221350000Y-121000000D03*
%TD*%
D26*
%TO.C,R26*%
X253800000Y-74412500D03*
X253800000Y-72587500D03*
%TD*%
%TO.C,R28*%
X258000000Y-74412500D03*
X258000000Y-72587500D03*
%TD*%
D28*
%TO.C,R40*%
X243281200Y-115013100D03*
X243281200Y-116838100D03*
%TD*%
D21*
%TO.C,C21*%
X274500000Y-82150000D03*
X274500000Y-80250000D03*
%TD*%
D26*
%TO.C,R27*%
X255900000Y-74412500D03*
X255900000Y-72587500D03*
%TD*%
D27*
%TO.C,D31*%
X148650000Y-115000000D03*
X145350000Y-115000000D03*
%TD*%
D29*
%TO.C,H2*%
X112500000Y-28500000D03*
%TD*%
D27*
%TO.C,D21*%
X224650000Y-83000000D03*
X221350000Y-83000000D03*
%TD*%
D36*
%TO.C,C18*%
X248900000Y-116500000D03*
X247000000Y-116500000D03*
%TD*%
D28*
%TO.C,R43*%
X250799600Y-115952900D03*
X250799600Y-117777900D03*
%TD*%
D24*
%TO.C,R32*%
X247812500Y-95780000D03*
X245987500Y-95780000D03*
%TD*%
D37*
%TO.C,U5*%
X233107825Y-47397499D03*
X233107825Y-46747500D03*
X233107825Y-46097501D03*
X235330325Y-46097501D03*
X235330325Y-46747500D03*
X235330325Y-47397499D03*
%TD*%
D38*
%TO.C,U3*%
X266675000Y-81000000D03*
X266675000Y-81500000D03*
X266675000Y-82000000D03*
X266675000Y-82500000D03*
X266675000Y-83000000D03*
X266675000Y-83500000D03*
X266675000Y-84000000D03*
X266675000Y-84500000D03*
X266675000Y-85000000D03*
X266675000Y-85500000D03*
X266675000Y-86000000D03*
X266675000Y-86500000D03*
X266675000Y-87000000D03*
X266675000Y-87500000D03*
X266675000Y-88000000D03*
X266675000Y-88500000D03*
X266675000Y-89000000D03*
X266675000Y-89500000D03*
X266675000Y-90000000D03*
X266675000Y-90500000D03*
X266675000Y-91000000D03*
X266675000Y-91500000D03*
X266675000Y-92000000D03*
X266675000Y-92500000D03*
X266675000Y-93000000D03*
D39*
X265000000Y-94675000D03*
X264500000Y-94675000D03*
X264000000Y-94675000D03*
X263500000Y-94675000D03*
X263000000Y-94675000D03*
X262500000Y-94675000D03*
X262000000Y-94675000D03*
X261500000Y-94675000D03*
X261000000Y-94675000D03*
X260500000Y-94675000D03*
X260000000Y-94675000D03*
X259500000Y-94675000D03*
X259000000Y-94675000D03*
X258500000Y-94675000D03*
X258000000Y-94675000D03*
X257500000Y-94675000D03*
X257000000Y-94675000D03*
X256500000Y-94675000D03*
X256000000Y-94675000D03*
X255500000Y-94675000D03*
X255000000Y-94675000D03*
X254500000Y-94675000D03*
X254000000Y-94675000D03*
X253500000Y-94675000D03*
X253000000Y-94675000D03*
D38*
X251325000Y-93000000D03*
X251325000Y-92500000D03*
X251325000Y-92000000D03*
X251325000Y-91500000D03*
X251325000Y-91000000D03*
X251325000Y-90500000D03*
X251325000Y-90000000D03*
X251325000Y-89500000D03*
X251325000Y-89000000D03*
X251325000Y-88500000D03*
X251325000Y-88000000D03*
X251325000Y-87500000D03*
X251325000Y-87000000D03*
X251325000Y-86500000D03*
X251325000Y-86000000D03*
X251325000Y-85500000D03*
X251325000Y-85000000D03*
X251325000Y-84500000D03*
X251325000Y-84000000D03*
X251325000Y-83500000D03*
X251325000Y-83000000D03*
X251325000Y-82500000D03*
X251325000Y-82000000D03*
X251325000Y-81500000D03*
X251325000Y-81000000D03*
D39*
X253000000Y-79325000D03*
X253500000Y-79325000D03*
X254000000Y-79325000D03*
X254500000Y-79325000D03*
X255000000Y-79325000D03*
X255500000Y-79325000D03*
X256000000Y-79325000D03*
X256500000Y-79325000D03*
X257000000Y-79325000D03*
X257500000Y-79325000D03*
X258000000Y-79325000D03*
X258500000Y-79325000D03*
X259000000Y-79325000D03*
X259500000Y-79325000D03*
X260000000Y-79325000D03*
X260500000Y-79325000D03*
X261000000Y-79325000D03*
X261500000Y-79325000D03*
X262000000Y-79325000D03*
X262500000Y-79325000D03*
X263000000Y-79325000D03*
X263500000Y-79325000D03*
X264000000Y-79325000D03*
X264500000Y-79325000D03*
X265000000Y-79325000D03*
%TD*%
D32*
%TO.C,D38*%
X237460717Y-169683738D03*
X239794169Y-172017190D03*
%TD*%
D28*
%TO.C,R1*%
X228900000Y-45387500D03*
X228900000Y-47212500D03*
%TD*%
%TO.C,R44*%
X254736600Y-116763800D03*
X254736600Y-118588800D03*
%TD*%
D27*
%TO.C,D5*%
X186650000Y-39000000D03*
X183350000Y-39000000D03*
%TD*%
D23*
%TO.C,R13*%
X240187500Y-142487500D03*
X242012500Y-142487500D03*
%TD*%
D27*
%TO.C,D18*%
X167650000Y-76000000D03*
X164350000Y-76000000D03*
%TD*%
D26*
%TO.C,R21*%
X252100000Y-64712500D03*
X252100000Y-62887500D03*
%TD*%
D29*
%TO.C,H3*%
X253000000Y-155000000D03*
%TD*%
D23*
%TO.C,R8*%
X236587500Y-79500000D03*
X238412500Y-79500000D03*
%TD*%
D27*
%TO.C,D28*%
X224650000Y-102000000D03*
X221350000Y-102000000D03*
%TD*%
%TO.C,D32*%
X167650000Y-114000000D03*
X164350000Y-114000000D03*
%TD*%
D21*
%TO.C,C11*%
X267000000Y-77450000D03*
X267000000Y-75550000D03*
%TD*%
D40*
%TO.C,D40*%
X229500000Y-51450000D03*
X229500000Y-53550000D03*
%TD*%
D23*
%TO.C,R10*%
X262487500Y-140000000D03*
X264312500Y-140000000D03*
%TD*%
D29*
%TO.C,H4*%
X117000000Y-123000000D03*
%TD*%
D27*
%TO.C,D27*%
X205650000Y-98000000D03*
X202350000Y-98000000D03*
%TD*%
D26*
%TO.C,R19*%
X261400000Y-64712500D03*
X261400000Y-62887500D03*
%TD*%
D27*
%TO.C,D29*%
X110650000Y-121000000D03*
X107350000Y-121000000D03*
%TD*%
D24*
%TO.C,R35*%
X247812500Y-89000000D03*
X245987500Y-89000000D03*
%TD*%
%TO.C,R34*%
X247825000Y-91180000D03*
X246000000Y-91180000D03*
%TD*%
D27*
%TO.C,D7*%
X224650000Y-45000000D03*
X221350000Y-45000000D03*
%TD*%
%TO.C,D6*%
X205650000Y-41000000D03*
X202350000Y-41000000D03*
%TD*%
D23*
%TO.C,R6*%
X236587500Y-84500000D03*
X238412500Y-84500000D03*
%TD*%
%TO.C,R12*%
X240187500Y-134900000D03*
X242012500Y-134900000D03*
%TD*%
D26*
%TO.C,R29*%
X260100000Y-74412500D03*
X260100000Y-72587500D03*
%TD*%
%TO.C,R23*%
X247500000Y-74412500D03*
X247500000Y-72587500D03*
%TD*%
D27*
%TO.C,D1*%
X110650000Y-45000000D03*
X107350000Y-45000000D03*
%TD*%
D41*
%TO.C,J2*%
X254091686Y-49528332D03*
D42*
X247325899Y-47065787D03*
D43*
X247898904Y-47976702D03*
X248368750Y-48147712D03*
X248838597Y-48318722D03*
X249308443Y-48489732D03*
X249778289Y-48660742D03*
X250248136Y-48831752D03*
X250717982Y-49002762D03*
X251187828Y-49173772D03*
X251657675Y-49344782D03*
X252127521Y-49515792D03*
X252597367Y-49686802D03*
X253067214Y-49857812D03*
D42*
X253562245Y-48643916D03*
X253425782Y-47849323D03*
X252674028Y-47575707D03*
X252058736Y-48096684D03*
X251922273Y-47302091D03*
X251306982Y-47823068D03*
X250555228Y-47549452D03*
X250418765Y-46754859D03*
X249803474Y-47275835D03*
X249667011Y-46481243D03*
X248915257Y-46207626D03*
X248299966Y-46728603D03*
D44*
X247255387Y-45709901D03*
X257390557Y-43066943D03*
X255017248Y-48534987D03*
X248952117Y-39995603D03*
%TD*%
D24*
%TO.C,R37*%
X264312500Y-142500000D03*
X262487500Y-142500000D03*
%TD*%
D27*
%TO.C,D8*%
X110650000Y-64000000D03*
X107350000Y-64000000D03*
%TD*%
%TO.C,D20*%
X205650000Y-79000000D03*
X202350000Y-79000000D03*
%TD*%
D41*
%TO.C,J1*%
X238091686Y-43828332D03*
D42*
X231325899Y-41365787D03*
D43*
X231898904Y-42276702D03*
X232368750Y-42447712D03*
X232838597Y-42618722D03*
X233308443Y-42789732D03*
X233778289Y-42960742D03*
X234248136Y-43131752D03*
X234717982Y-43302762D03*
X235187828Y-43473772D03*
X235657675Y-43644782D03*
X236127521Y-43815792D03*
X236597367Y-43986802D03*
X237067214Y-44157812D03*
D42*
X237562245Y-42943916D03*
X237425782Y-42149323D03*
X236674028Y-41875707D03*
X236058736Y-42396684D03*
X235922273Y-41602091D03*
X235306982Y-42123068D03*
X234555228Y-41849452D03*
X234418765Y-41054859D03*
X233803474Y-41575835D03*
X233667011Y-40781243D03*
X232915257Y-40507626D03*
X232299966Y-41028603D03*
D44*
X241390557Y-37366943D03*
X232952117Y-34295603D03*
X231255387Y-40009901D03*
X239017248Y-42834987D03*
%TD*%
D27*
%TO.C,D26*%
X186650000Y-96000000D03*
X183350000Y-96000000D03*
%TD*%
D21*
%TO.C,C2*%
X248500000Y-85000000D03*
X248500000Y-83100000D03*
%TD*%
D26*
%TO.C,R3*%
X254400000Y-64712500D03*
X254400000Y-62887500D03*
%TD*%
D27*
%TO.C,D4*%
X167650000Y-38000000D03*
X164350000Y-38000000D03*
%TD*%
D21*
%TO.C,C19*%
X261900000Y-47850000D03*
X261900000Y-45950000D03*
%TD*%
D26*
%TO.C,R24*%
X249600000Y-74412500D03*
X249600000Y-72587500D03*
%TD*%
D24*
%TO.C,R31*%
X247825000Y-98200000D03*
X246000000Y-98200000D03*
%TD*%
D27*
%TO.C,D24*%
X148650000Y-96000000D03*
X145350000Y-96000000D03*
%TD*%
D40*
%TO.C,D39*%
X244000000Y-51850000D03*
X244000000Y-49750000D03*
%TD*%
D26*
%TO.C,R5*%
X241000000Y-85912500D03*
X241000000Y-84087500D03*
%TD*%
D27*
%TO.C,D33*%
X186650000Y-115000000D03*
X183350000Y-115000000D03*
%TD*%
D45*
X113500000Y-57700000D03*
X246200000Y-71800000D03*
X132500000Y-58700000D03*
X244700000Y-70923500D03*
X151500000Y-60700000D03*
X243000000Y-70199000D03*
X170500000Y-61600000D03*
X241700000Y-69474500D03*
X239200000Y-88600000D03*
X241500000Y-89500000D03*
X232664000Y-49174400D03*
X243550000Y-132450000D03*
X267200000Y-50600000D03*
X267200000Y-55500000D03*
X229637101Y-48738301D03*
X189500000Y-62585500D03*
X240410199Y-69024500D03*
X239074549Y-69074549D03*
X208500000Y-63800000D03*
X227000000Y-69800000D03*
X237400000Y-69724500D03*
X243500000Y-88500000D03*
X246000000Y-87500497D03*
X268775500Y-88549003D03*
X253600000Y-113700000D03*
X270500000Y-90000000D03*
X247000000Y-113000000D03*
X263387701Y-91912299D03*
X253400000Y-99500000D03*
X264107641Y-81607642D03*
X258546600Y-107823000D03*
X255775500Y-99500000D03*
X237800000Y-73200000D03*
X235762300Y-72237700D03*
X264500000Y-90800000D03*
X262500000Y-80775500D03*
X256794000Y-121894600D03*
D16*
X239400000Y-47500000D03*
X258000000Y-50000000D03*
X247000000Y-49000000D03*
D45*
X254000000Y-111000000D03*
X259700000Y-88700000D03*
X230200000Y-44100000D03*
X235000500Y-40081200D03*
X234145477Y-46000000D03*
X227524500Y-45700000D03*
X254775500Y-77724500D03*
X260000000Y-77000000D03*
X249912299Y-84612299D03*
X268100000Y-68000000D03*
X268775500Y-87549500D03*
X270000000Y-79000000D03*
X250850400Y-114579400D03*
X255015021Y-87988378D03*
X261724500Y-97586800D03*
X260275500Y-98552000D03*
X260275000Y-97510600D03*
X260223000Y-96367600D03*
X259323041Y-98864872D03*
X258749800Y-99775500D03*
X258262572Y-97875437D03*
X257844284Y-98783201D03*
X257724500Y-99775500D03*
X233100000Y-44800000D03*
X254800000Y-83300000D03*
X236600000Y-47900000D03*
X253700000Y-83224500D03*
X256800000Y-91200000D03*
X268100000Y-71200000D03*
X268112299Y-72212299D03*
X255900000Y-92600000D03*
X254889000Y-115392200D03*
X258375500Y-86500000D03*
X253400000Y-86236799D03*
X243281200Y-113724500D03*
X249799386Y-85605403D03*
X268112299Y-70112299D03*
X268100000Y-69100000D03*
X255200000Y-85074000D03*
X259156200Y-115112800D03*
X262700000Y-76100000D03*
X265292358Y-89492358D03*
X246700000Y-66100000D03*
X253474895Y-92476237D03*
X247875500Y-50400000D03*
X248600000Y-51400000D03*
X260000000Y-51300000D03*
X248800000Y-55500994D03*
X251500000Y-46300000D03*
X248800000Y-57500000D03*
X252026748Y-54387978D03*
X248512022Y-54387978D03*
X252117952Y-53392645D03*
X261400000Y-58300000D03*
X261400000Y-54800000D03*
X253031069Y-52986170D03*
X249200000Y-88000000D03*
X231500000Y-140200000D03*
X252630695Y-88581862D03*
X244000000Y-129700000D03*
X264300000Y-144700000D03*
X254224500Y-88600000D03*
X243763800Y-118389400D03*
X257810000Y-119227600D03*
X251180600Y-119126000D03*
X253314200Y-119375500D03*
M02*
