%TF.GenerationSoftware,KiCad,Pcbnew,(6.0.7-1)-1*%
%TF.CreationDate,2022-10-21T17:23:11-04:00*%
%TF.ProjectId,Splitboard-A,53706c69-7462-46f6-9172-642d412e6b69,rev?*%
%TF.SameCoordinates,Original*%
%TF.FileFunction,NonPlated,1,2,NPTH,Mixed*%
%TF.FilePolarity,Positive*%
%FSLAX46Y46*%
G04 Gerber Fmt 4.6, Leading zero omitted, Abs format (unit mm)*
G04 Created by KiCad (PCBNEW (6.0.7-1)-1) date 2022-10-21 17:23:11*
%MOMM*%
%LPD*%
G01*
G04 APERTURE LIST*
G04 Aperture macros list*
%AMHorizOval*
0 Thick line with rounded ends*
0 $1 width*
0 $2 $3 position (X,Y) of the first rounded end (center of the circle)*
0 $4 $5 position (X,Y) of the second rounded end (center of the circle)*
0 Add line between two ends*
20,1,$1,$2,$3,$4,$5,0*
0 Add two circle primitives to create the rounded ends*
1,1,$1,$2,$3*
1,1,$1,$4,$5*%
G04 Aperture macros list end*
%TA.AperFunction,ComponentDrill*%
%ADD10C,0.650000*%
%TD*%
G04 aperture for slot hole*
%TA.AperFunction,ComponentDrill*%
%ADD11HorizOval,0.650000X0.140954X-0.051303X-0.140954X0.051303X0*%
%TD*%
%TA.AperFunction,ComponentDrill*%
%ADD12C,1.750000*%
%TD*%
%TA.AperFunction,ComponentDrill*%
%ADD13C,2.700000*%
%TD*%
%TA.AperFunction,ComponentDrill*%
%ADD14C,4.000000*%
%TD*%
G04 APERTURE END LIST*
D10*
%TO.C,J1*%
X231325899Y-41365787D03*
D11*
X238091686Y-43828332D03*
D10*
%TO.C,J2*%
X247325899Y-47065787D03*
D11*
X254091686Y-49528332D03*
D12*
%TO.C,K1*%
X99920000Y-40000000D03*
%TO.C,K8*%
X99920000Y-59000000D03*
%TO.C,K15*%
X99920000Y-78000000D03*
%TO.C,K22*%
X99920000Y-97000000D03*
%TO.C,K29*%
X99920000Y-116000000D03*
%TO.C,K1*%
X110080000Y-40000000D03*
%TO.C,K8*%
X110080000Y-59000000D03*
%TO.C,K15*%
X110080000Y-78000000D03*
%TO.C,K22*%
X110080000Y-97000000D03*
%TO.C,K29*%
X110080000Y-116000000D03*
%TO.C,K2*%
X118920000Y-36000000D03*
%TO.C,K9*%
X118920000Y-55000000D03*
%TO.C,K16*%
X118920000Y-74000000D03*
%TO.C,K23*%
X118920000Y-93000000D03*
%TO.C,K30*%
X118920000Y-112000000D03*
%TO.C,K2*%
X129080000Y-36000000D03*
%TO.C,K9*%
X129080000Y-55000000D03*
%TO.C,K16*%
X129080000Y-74000000D03*
%TO.C,K23*%
X129080000Y-93000000D03*
%TO.C,K30*%
X129080000Y-112000000D03*
%TO.C,K3*%
X137920000Y-34000000D03*
%TO.C,K10*%
X137920000Y-53000000D03*
%TO.C,K17*%
X137920000Y-72000000D03*
%TO.C,K24*%
X137920000Y-91000000D03*
%TO.C,K31*%
X137920000Y-110000000D03*
%TO.C,K3*%
X148080000Y-34000000D03*
%TO.C,K10*%
X148080000Y-53000000D03*
%TO.C,K17*%
X148080000Y-72000000D03*
%TO.C,K24*%
X148080000Y-91000000D03*
%TO.C,K31*%
X148080000Y-110000000D03*
%TO.C,K4*%
X156920000Y-33000000D03*
%TO.C,K11*%
X156920000Y-52000000D03*
%TO.C,K18*%
X156920000Y-71000000D03*
%TO.C,K25*%
X156920000Y-90000000D03*
%TO.C,K32*%
X156920000Y-109000000D03*
%TO.C,K4*%
X167080000Y-33000000D03*
%TO.C,K11*%
X167080000Y-52000000D03*
%TO.C,K18*%
X167080000Y-71000000D03*
%TO.C,K25*%
X167080000Y-90000000D03*
%TO.C,K32*%
X167080000Y-109000000D03*
%TO.C,K5*%
X175920000Y-34000000D03*
%TO.C,K12*%
X175920000Y-53000000D03*
%TO.C,K19*%
X175920000Y-72000000D03*
%TO.C,K26*%
X175920000Y-91000000D03*
%TO.C,K33*%
X175920000Y-110000000D03*
%TO.C,K5*%
X186080000Y-34000000D03*
%TO.C,K12*%
X186080000Y-53000000D03*
%TO.C,K19*%
X186080000Y-72000000D03*
%TO.C,K26*%
X186080000Y-91000000D03*
%TO.C,K33*%
X186080000Y-110000000D03*
%TO.C,K6*%
X194920000Y-36000000D03*
%TO.C,K13*%
X194920000Y-55000000D03*
%TO.C,K20*%
X194920000Y-74000000D03*
%TO.C,K27*%
X194920000Y-93000000D03*
%TO.C,K34*%
X194920000Y-112000000D03*
%TO.C,K6*%
X205080000Y-36000000D03*
%TO.C,K13*%
X205080000Y-55000000D03*
%TO.C,K20*%
X205080000Y-74000000D03*
%TO.C,K27*%
X205080000Y-93000000D03*
%TO.C,K34*%
X205080000Y-112000000D03*
%TO.C,K36*%
X208972869Y-134368134D03*
%TO.C,K7*%
X213920000Y-40000000D03*
%TO.C,K14*%
X213920000Y-59000000D03*
%TO.C,K21*%
X213920000Y-78000000D03*
%TO.C,K28*%
X213920000Y-97000000D03*
%TO.C,K35*%
X213920000Y-116000000D03*
%TO.C,K36*%
X216157073Y-141552338D03*
%TO.C,K37*%
X222407898Y-147803163D03*
%TO.C,K7*%
X224080000Y-40000000D03*
%TO.C,K14*%
X224080000Y-59000000D03*
%TO.C,K21*%
X224080000Y-78000000D03*
%TO.C,K28*%
X224080000Y-97000000D03*
%TO.C,K35*%
X224080000Y-116000000D03*
%TO.C,K37*%
X229592102Y-154987367D03*
%TO.C,K38*%
X235842927Y-161238192D03*
X243027131Y-168422396D03*
D13*
%TO.C,H2*%
X112500000Y-28500000D03*
%TO.C,H4*%
X117000000Y-123000000D03*
%TO.C,H3*%
X253000000Y-155000000D03*
%TO.C,H1*%
X273000000Y-52000000D03*
D14*
%TO.C,K1*%
X105000000Y-40000000D03*
%TO.C,K8*%
X105000000Y-59000000D03*
%TO.C,K15*%
X105000000Y-78000000D03*
%TO.C,K22*%
X105000000Y-97000000D03*
%TO.C,K29*%
X105000000Y-116000000D03*
%TO.C,K2*%
X124000000Y-36000000D03*
%TO.C,K9*%
X124000000Y-55000000D03*
%TO.C,K16*%
X124000000Y-74000000D03*
%TO.C,K23*%
X124000000Y-93000000D03*
%TO.C,K30*%
X124000000Y-112000000D03*
%TO.C,K3*%
X143000000Y-34000000D03*
%TO.C,K10*%
X143000000Y-53000000D03*
%TO.C,K17*%
X143000000Y-72000000D03*
%TO.C,K24*%
X143000000Y-91000000D03*
%TO.C,K31*%
X143000000Y-110000000D03*
%TO.C,K4*%
X162000000Y-33000000D03*
%TO.C,K11*%
X162000000Y-52000000D03*
%TO.C,K18*%
X162000000Y-71000000D03*
%TO.C,K25*%
X162000000Y-90000000D03*
%TO.C,K32*%
X162000000Y-109000000D03*
%TO.C,K5*%
X181000000Y-34000000D03*
%TO.C,K12*%
X181000000Y-53000000D03*
%TO.C,K19*%
X181000000Y-72000000D03*
%TO.C,K26*%
X181000000Y-91000000D03*
%TO.C,K33*%
X181000000Y-110000000D03*
%TO.C,K6*%
X200000000Y-36000000D03*
%TO.C,K13*%
X200000000Y-55000000D03*
%TO.C,K20*%
X200000000Y-74000000D03*
%TO.C,K27*%
X200000000Y-93000000D03*
%TO.C,K34*%
X200000000Y-112000000D03*
%TO.C,K36*%
X212564971Y-137960236D03*
%TO.C,K7*%
X219000000Y-40000000D03*
%TO.C,K14*%
X219000000Y-59000000D03*
%TO.C,K21*%
X219000000Y-78000000D03*
%TO.C,K28*%
X219000000Y-97000000D03*
%TO.C,K35*%
X219000000Y-116000000D03*
%TO.C,K37*%
X226000000Y-151395265D03*
%TO.C,K38*%
X239435029Y-164830294D03*
M02*
