0
SECTION
2
HEADER
9
$INSUNITS
70
4
9
$ACADVER
1
AC1014
9
$HANDSEED
5
FFFF
0
ENDSEC
0
SECTION
2
TABLES
0
TABLE
2
VPORT
5
8
100
AcDbSymbolTable
0
ENDTAB
0
TABLE
2
LTYPE
5
5
100
AcDbSymbolTable
0
LTYPE
5
14
100
AcDbSymbolTableRecord
100
AcDbLinetypeTableRecord
2
BYBLOCK
70
0
0
LTYPE
5
15
100
AcDbSymbolTableRecord
100
AcDbLinetypeTableRecord
2
BYLAYER
70
0
0
ENDTAB
0
TABLE
2
LAYER
5
2
100
AcDbSymbolTable
70
2
0
LAYER
5
50
100
AcDbSymbolTableRecord
100
AcDbLayerTableRecord
2
0
70
0
6
CONTINUOUS
0
ENDTAB
0
TABLE
2
STYLE
5
3
100
AcDbSymbolTable
70
1
0
STYLE
5
11
100
AcDbSymbolTableRecord
100
AcDbTextStyleTableRecord
2
STANDARD
70
0
0
ENDTAB
0
TABLE
2
VIEW
5
6
100
AcDbSymbolTable
70
0
0
ENDTAB
0
TABLE
2
UCS
5
7
100
AcDbSymbolTable
70
0
0
ENDTAB
0
TABLE
2
APPID
5
9
100
AcDbSymbolTable
70
2
0
APPID
5
12
100
AcDbSymbolTableRecord
100
AcDbRegAppTableRecord
2
ACAD
70
0
0
ENDTAB
0
TABLE
2
DIMSTYLE
5
A
100
AcDbSymbolTable
70
1
0
ENDTAB
0
TABLE
2
BLOCK_RECORD
5
1
100
AcDbSymbolTable
70
1
0
BLOCK_RECORD
5
1F
100
AcDbSymbolTableRecord
100
AcDbBlockTableRecord
2
*MODEL_SPACE
0
BLOCK_RECORD
5
1B
100
AcDbSymbolTableRecord
100
AcDbBlockTableRecord
2
*PAPER_SPACE
0
ENDTAB
0
ENDSEC
0
SECTION
2
BLOCKS
0
BLOCK
5
20
100
AcDbEntity
100
AcDbBlockBegin
2
*MODEL_SPACE
0
ENDBLK
5
21
100
AcDbEntity
100
AcDbBlockEnd
0
BLOCK
5
1C
100
AcDbEntity
100
AcDbBlockBegin
2
*PAPER_SPACE
0
ENDBLK
5
1D
100
AcDbEntity
100
AcDbBlockEnd
0
ENDSEC
0
SECTION
2
ENTITIES
0
LWPOLYLINE
5
100
100
AcDbEntity
8
0
100
AcDbPolyline
90
8
70
1
43
0.0
10
-71.500000000000014
20
96.5
10
-71.499999999999716
20
105
10
-105
20
105
10
-105
20
15
10
-15
20
15
10
-15
20
105
10
-48.50000000000005
20
105
10
-48.500000000000014
20
96.499999999999986
0
LWPOLYLINE
5
101
100
AcDbEntity
8
0
100
AcDbPolyline
90
12
70
1
43
0.0
10
-25.105499999999992
20
94.084000000000003
10
-25.105499999999992
20
78.336000000000013
10
-29.740999999999993
20
78.336000000000013
10
-29.740999999999993
20
79.225000000000009
10
-34.058999999999997
20
79.225000000000009
10
-34.058999999999997
20
78.336000000000013
10
-38.694500000000012
20
78.336000000000013
10
-38.694500000000012
20
94.084000000000003
10
-34.058999999999997
20
94.084000000000003
10
-34.058999999999997
20
93.195000000000022
10
-29.740999999999993
20
93.195000000000022
10
-29.740999999999993
20
94.084000000000003
0
LWPOLYLINE
5
102
100
AcDbEntity
8
0
100
AcDbPolyline
90
12
70
1
43
0.0
10
-25.105499999999992
20
75.084000000000003
10
-25.105499999999992
20
59.335999999999999
10
-29.740999999999993
20
59.335999999999999
10
-29.740999999999993
20
60.225000000000009
10
-34.058999999999997
20
60.225000000000009
10
-34.058999999999997
20
59.335999999999999
10
-38.694500000000012
20
59.335999999999999
10
-38.694500000000012
20
75.084000000000003
10
-34.058999999999997
20
75.084000000000003
10
-34.058999999999997
20
74.195000000000007
10
-29.740999999999993
20
74.195000000000007
10
-29.740999999999993
20
75.084000000000003
0
LWPOLYLINE
5
103
100
AcDbEntity
8
0
100
AcDbPolyline
90
12
70
1
43
0.0
10
-25.105499999999992
20
56.084000000000003
10
-25.105499999999992
20
40.336000000000006
10
-29.740999999999993
20
40.336000000000006
10
-29.740999999999993
20
41.225000000000009
10
-34.058999999999997
20
41.225000000000009
10
-34.058999999999997
20
40.336000000000006
10
-38.694500000000012
20
40.336000000000006
10
-38.694500000000012
20
56.084000000000003
10
-34.058999999999997
20
56.084000000000003
10
-34.058999999999997
20
55.195000000000007
10
-29.740999999999993
20
55.195000000000007
10
-29.740999999999993
20
56.084000000000003
0
LWPOLYLINE
5
104
100
AcDbEntity
8
0
100
AcDbPolyline
90
12
70
1
43
0.0
10
-25.105499999999992
20
37.084000000000003
10
-25.105499999999992
20
21.336000000000006
10
-29.740999999999993
20
21.336000000000006
10
-29.740999999999993
20
22.225000000000001
10
-34.058999999999997
20
22.225000000000001
10
-34.058999999999997
20
21.336000000000006
10
-38.694500000000012
20
21.336000000000006
10
-38.694500000000012
20
37.084000000000003
10
-34.058999999999997
20
37.084000000000003
10
-34.058999999999997
20
36.195000000000007
10
-29.740999999999993
20
36.195000000000007
10
-29.740999999999993
20
37.084000000000003
0
LWPOLYLINE
5
105
100
AcDbEntity
8
0
100
AcDbPolyline
90
12
70
1
43
0.0
10
-44.105499999999992
20
94.084000000000003
10
-44.105499999999992
20
78.336000000000013
10
-48.740999999999985
20
78.336000000000013
10
-48.740999999999985
20
79.225000000000009
10
-53.058999999999997
20
79.225000000000009
10
-53.058999999999997
20
78.336000000000013
10
-57.694500000000005
20
78.336000000000013
10
-57.694500000000005
20
94.084000000000003
10
-53.058999999999997
20
94.084000000000003
10
-53.058999999999997
20
93.195000000000022
10
-48.740999999999985
20
93.195000000000022
10
-48.740999999999985
20
94.084000000000003
0
LWPOLYLINE
5
106
100
AcDbEntity
8
0
100
AcDbPolyline
90
12
70
1
43
0.0
10
-44.105499999999992
20
75.084000000000003
10
-44.105499999999992
20
59.335999999999999
10
-48.740999999999985
20
59.335999999999999
10
-48.740999999999985
20
60.225000000000009
10
-53.058999999999997
20
60.225000000000009
10
-53.058999999999997
20
59.335999999999999
10
-57.694500000000005
20
59.335999999999999
10
-57.694500000000005
20
75.084000000000003
10
-53.058999999999997
20
75.084000000000003
10
-53.058999999999997
20
74.195000000000007
10
-48.740999999999985
20
74.195000000000007
10
-48.740999999999985
20
75.084000000000003
0
LWPOLYLINE
5
107
100
AcDbEntity
8
0
100
AcDbPolyline
90
12
70
1
43
0.0
10
-44.105499999999992
20
56.084000000000003
10
-44.105499999999992
20
40.336000000000006
10
-48.740999999999985
20
40.336000000000006
10
-48.740999999999985
20
41.225000000000009
10
-53.058999999999997
20
41.225000000000009
10
-53.058999999999997
20
40.336000000000006
10
-57.694500000000005
20
40.336000000000006
10
-57.694500000000005
20
56.084000000000003
10
-53.058999999999997
20
56.084000000000003
10
-53.058999999999997
20
55.195000000000007
10
-48.740999999999985
20
55.195000000000007
10
-48.740999999999985
20
56.084000000000003
0
LWPOLYLINE
5
108
100
AcDbEntity
8
0
100
AcDbPolyline
90
12
70
1
43
0.0
10
-44.105499999999992
20
37.084000000000003
10
-44.105499999999992
20
21.336000000000006
10
-48.740999999999985
20
21.336000000000006
10
-48.740999999999985
20
22.225000000000001
10
-53.058999999999997
20
22.225000000000001
10
-53.058999999999997
20
21.336000000000006
10
-57.694500000000005
20
21.336000000000006
10
-57.694500000000005
20
37.084000000000003
10
-53.058999999999997
20
37.084000000000003
10
-53.058999999999997
20
36.195000000000007
10
-48.740999999999985
20
36.195000000000007
10
-48.740999999999985
20
37.084000000000003
0
LWPOLYLINE
5
109
100
AcDbEntity
8
0
100
AcDbPolyline
90
12
70
1
43
0.0
10
-63.105499999999992
20
94.084000000000003
10
-63.105499999999992
20
78.336000000000013
10
-67.740999999999985
20
78.336000000000013
10
-67.740999999999985
20
79.225000000000009
10
-72.058999999999997
20
79.225000000000009
10
-72.058999999999997
20
78.336000000000013
10
-76.694500000000005
20
78.336000000000013
10
-76.694500000000005
20
94.084000000000003
10
-72.058999999999997
20
94.084000000000003
10
-72.058999999999997
20
93.195000000000022
10
-67.740999999999985
20
93.195000000000022
10
-67.740999999999985
20
94.084000000000003
0
LWPOLYLINE
5
110
100
AcDbEntity
8
0
100
AcDbPolyline
90
12
70
1
43
0.0
10
-63.105499999999992
20
75.084000000000003
10
-63.105499999999992
20
59.335999999999999
10
-67.740999999999985
20
59.335999999999999
10
-67.740999999999985
20
60.225000000000009
10
-72.058999999999997
20
60.225000000000009
10
-72.058999999999997
20
59.335999999999999
10
-76.694500000000005
20
59.335999999999999
10
-76.694500000000005
20
75.084000000000003
10
-72.058999999999997
20
75.084000000000003
10
-72.058999999999997
20
74.195000000000007
10
-67.740999999999985
20
74.195000000000007
10
-67.740999999999985
20
75.084000000000003
0
LWPOLYLINE
5
111
100
AcDbEntity
8
0
100
AcDbPolyline
90
12
70
1
43
0.0
10
-63.105499999999992
20
56.084000000000003
10
-63.105499999999992
20
40.336000000000006
10
-67.740999999999985
20
40.336000000000006
10
-67.740999999999985
20
41.225000000000009
10
-72.058999999999997
20
41.225000000000009
10
-72.058999999999997
20
40.336000000000006
10
-76.694500000000005
20
40.336000000000006
10
-76.694500000000005
20
56.084000000000003
10
-72.058999999999997
20
56.084000000000003
10
-72.058999999999997
20
55.195000000000007
10
-67.740999999999985
20
55.195000000000007
10
-67.740999999999985
20
56.084000000000003
0
LWPOLYLINE
5
112
100
AcDbEntity
8
0
100
AcDbPolyline
90
12
70
1
43
0.0
10
-63.105499999999992
20
37.084000000000003
10
-63.105499999999992
20
21.336000000000006
10
-67.740999999999985
20
21.336000000000006
10
-67.740999999999985
20
22.225000000000001
10
-72.058999999999997
20
22.225000000000001
10
-72.058999999999997
20
21.336000000000006
10
-76.694500000000005
20
21.336000000000006
10
-76.694500000000005
20
37.084000000000003
10
-72.058999999999997
20
37.084000000000003
10
-72.058999999999997
20
36.195000000000007
10
-67.740999999999985
20
36.195000000000007
10
-67.740999999999985
20
37.084000000000003
0
LWPOLYLINE
5
113
100
AcDbEntity
8
0
100
AcDbPolyline
90
12
70
1
43
0.0
10
-82.105499999999992
20
94.084000000000003
10
-82.105499999999992
20
78.336000000000013
10
-86.740999999999985
20
78.336000000000013
10
-86.740999999999985
20
79.225000000000009
10
-91.058999999999997
20
79.225000000000009
10
-91.058999999999997
20
78.336000000000013
10
-95.694500000000019
20
78.336000000000013
10
-95.694500000000019
20
94.084000000000003
10
-91.058999999999997
20
94.084000000000003
10
-91.058999999999997
20
93.195000000000022
10
-86.740999999999985
20
93.195000000000022
10
-86.740999999999985
20
94.084000000000003
0
LWPOLYLINE
5
114
100
AcDbEntity
8
0
100
AcDbPolyline
90
12
70
1
43
0.0
10
-82.105499999999992
20
75.084000000000003
10
-82.105499999999992
20
59.335999999999999
10
-86.740999999999985
20
59.335999999999999
10
-86.740999999999985
20
60.225000000000009
10
-91.058999999999997
20
60.225000000000009
10
-91.058999999999997
20
59.335999999999999
10
-95.694500000000019
20
59.335999999999999
10
-95.694500000000019
20
75.084000000000003
10
-91.058999999999997
20
75.084000000000003
10
-91.058999999999997
20
74.195000000000007
10
-86.740999999999985
20
74.195000000000007
10
-86.740999999999985
20
75.084000000000003
0
LWPOLYLINE
5
115
100
AcDbEntity
8
0
100
AcDbPolyline
90
12
70
1
43
0.0
10
-82.105499999999992
20
56.084000000000003
10
-82.105499999999992
20
40.336000000000006
10
-86.740999999999985
20
40.336000000000006
10
-86.740999999999985
20
41.225000000000009
10
-91.058999999999997
20
41.225000000000009
10
-91.058999999999997
20
40.336000000000006
10
-95.694500000000019
20
40.336000000000006
10
-95.694500000000019
20
56.084000000000003
10
-91.058999999999997
20
56.084000000000003
10
-91.058999999999997
20
55.195000000000007
10
-86.740999999999985
20
55.195000000000007
10
-86.740999999999985
20
56.084000000000003
0
LWPOLYLINE
5
116
100
AcDbEntity
8
0
100
AcDbPolyline
90
12
70
1
43
0.0
10
-82.105499999999992
20
37.084000000000003
10
-82.105499999999992
20
21.336000000000006
10
-86.740999999999985
20
21.336000000000006
10
-86.740999999999985
20
22.225000000000001
10
-91.058999999999997
20
22.225000000000001
10
-91.058999999999997
20
21.336000000000006
10
-95.694500000000019
20
21.336000000000006
10
-95.694500000000019
20
37.084000000000003
10
-91.058999999999997
20
37.084000000000003
10
-91.058999999999997
20
36.195000000000007
10
-86.740999999999985
20
36.195000000000007
10
-86.740999999999985
20
37.084000000000003
0
CIRCLE
5
117
100
AcDbEntity
8
0
100
AcDbCircle
10
-99
20
21
30
0
40
1.4732000000000001
210
0
220
0
230
1
0
CIRCLE
5
118
100
AcDbEntity
8
0
100
AcDbCircle
10
-21
20
99
30
0
40
1.4732000000000001
210
0
220
0
230
1
0
CIRCLE
5
119
100
AcDbEntity
8
0
100
AcDbCircle
10
-99
20
99
30
0
40
1.4732000000000001
210
0
220
0
230
1
0
CIRCLE
5
120
100
AcDbEntity
8
0
100
AcDbCircle
10
-21
20
21
30
0
40
1.4732000000000001
210
0
220
0
230
1
0
LWPOLYLINE
5
121
100
AcDbEntity
8
0
100
AcDbPolyline
90
8
70
1
43
0.0
10
-48.500000000000014
20
96.499999999999986
10
-48.50000000000005
20
105
10
-15
20
105
10
-15
20
15
10
-105
20
15
10
-105
20
105
10
-71.499999999999716
20
105
10
-71.500000000000014
20
96.5
0
CIRCLE
5
122
100
AcDbEntity
8
0
100
AcDbCircle
10
-21
20
21
30
0
40
1.4732000000000001
210
0
220
0
230
1
0
CIRCLE
5
123
100
AcDbEntity
8
0
100
AcDbCircle
10
-99
20
99
30
0
40
1.4732000000000001
210
0
220
0
230
1
0
CIRCLE
5
124
100
AcDbEntity
8
0
100
AcDbCircle
10
-21
20
99
30
0
40
1.4732000000000001
210
0
220
0
230
1
0
CIRCLE
5
125
100
AcDbEntity
8
0
100
AcDbCircle
10
-99
20
21
30
0
40
1.4732000000000001
210
0
220
0
230
1
0
LWPOLYLINE
5
126
100
AcDbEntity
8
0
100
AcDbPolyline
90
12
70
1
43
0.0
10
-82.105499999999992
20
21.336000000000006
10
-82.105499999999992
20
37.084000000000003
10
-86.740999999999985
20
37.084000000000003
10
-86.740999999999985
20
36.195000000000007
10
-91.058999999999997
20
36.195000000000007
10
-91.058999999999997
20
37.084000000000003
10
-95.694500000000019
20
37.084000000000003
10
-95.694500000000019
20
21.336000000000006
10
-91.058999999999997
20
21.336000000000009
10
-91.058999999999997
20
22.225000000000001
10
-86.740999999999985
20
22.225000000000001
10
-86.740999999999985
20
21.336000000000006
0
LWPOLYLINE
5
127
100
AcDbEntity
8
0
100
AcDbPolyline
90
12
70
1
43
0.0
10
-82.105499999999992
20
40.336000000000006
10
-82.105499999999992
20
56.084000000000003
10
-86.740999999999985
20
56.083999999999996
10
-86.740999999999985
20
55.195000000000007
10
-91.058999999999997
20
55.195000000000007
10
-91.058999999999997
20
56.084000000000003
10
-95.694500000000019
20
56.083999999999996
10
-95.694500000000019
20
40.336000000000006
10
-91.058999999999997
20
40.335999999999999
10
-91.058999999999997
20
41.225000000000009
10
-86.740999999999985
20
41.225000000000009
10
-86.740999999999985
20
40.336000000000006
0
LWPOLYLINE
5
128
100
AcDbEntity
8
0
100
AcDbPolyline
90
12
70
1
43
0.0
10
-82.105499999999992
20
59.335999999999999
10
-82.105499999999992
20
75.084000000000003
10
-86.740999999999985
20
75.084000000000003
10
-86.740999999999985
20
74.195000000000007
10
-91.058999999999997
20
74.195000000000007
10
-91.058999999999997
20
75.084000000000003
10
-95.694500000000019
20
75.084000000000003
10
-95.694500000000019
20
59.335999999999999
10
-91.058999999999997
20
59.335999999999999
10
-91.058999999999997
20
60.225000000000009
10
-86.740999999999985
20
60.225000000000009
10
-86.740999999999985
20
59.335999999999999
0
LWPOLYLINE
5
129
100
AcDbEntity
8
0
100
AcDbPolyline
90
12
70
1
43
0.0
10
-82.105499999999992
20
78.336000000000013
10
-82.105499999999992
20
94.084000000000003
10
-86.740999999999985
20
94.084000000000003
10
-86.740999999999985
20
93.195000000000022
10
-91.058999999999997
20
93.195000000000022
10
-91.058999999999997
20
94.084000000000003
10
-95.694500000000019
20
94.084000000000003
10
-95.694500000000019
20
78.336000000000013
10
-91.058999999999997
20
78.336000000000013
10
-91.058999999999997
20
79.225000000000009
10
-86.740999999999985
20
79.224999999999994
10
-86.740999999999985
20
78.336000000000013
0
LWPOLYLINE
5
130
100
AcDbEntity
8
0
100
AcDbPolyline
90
12
70
1
43
0.0
10
-63.105499999999992
20
21.336000000000006
10
-63.105499999999992
20
37.084000000000003
10
-67.740999999999985
20
37.084000000000003
10
-67.740999999999985
20
36.195000000000007
10
-72.058999999999997
20
36.195000000000007
10
-72.058999999999997
20
37.084000000000003
10
-76.694500000000005
20
37.084000000000003
10
-76.694500000000005
20
21.336000000000006
10
-72.058999999999997
20
21.336000000000009
10
-72.058999999999997
20
22.225000000000001
10
-67.740999999999985
20
22.225000000000001
10
-67.740999999999985
20
21.336000000000006
0
LWPOLYLINE
5
131
100
AcDbEntity
8
0
100
AcDbPolyline
90
12
70
1
43
0.0
10
-63.105499999999992
20
40.336000000000006
10
-63.105499999999992
20
56.084000000000003
10
-67.740999999999985
20
56.083999999999996
10
-67.740999999999985
20
55.195000000000007
10
-72.058999999999997
20
55.195000000000007
10
-72.058999999999997
20
56.084000000000003
10
-76.694500000000005
20
56.083999999999996
10
-76.694500000000005
20
40.336000000000006
10
-72.058999999999997
20
40.335999999999999
10
-72.058999999999997
20
41.225000000000009
10
-67.740999999999985
20
41.225000000000009
10
-67.740999999999985
20
40.336000000000006
0
LWPOLYLINE
5
132
100
AcDbEntity
8
0
100
AcDbPolyline
90
12
70
1
43
0.0
10
-63.105499999999992
20
59.335999999999999
10
-63.105499999999992
20
75.084000000000003
10
-67.740999999999985
20
75.084000000000003
10
-67.740999999999985
20
74.195000000000007
10
-72.058999999999997
20
74.195000000000007
10
-72.058999999999997
20
75.084000000000003
10
-76.694500000000005
20
75.084000000000003
10
-76.694500000000005
20
59.335999999999999
10
-72.058999999999997
20
59.335999999999999
10
-72.058999999999997
20
60.225000000000009
10
-67.740999999999985
20
60.225000000000009
10
-67.740999999999985
20
59.335999999999999
0
LWPOLYLINE
5
133
100
AcDbEntity
8
0
100
AcDbPolyline
90
12
70
1
43
0.0
10
-63.105499999999992
20
78.336000000000013
10
-63.105499999999992
20
94.084000000000003
10
-67.740999999999985
20
94.084000000000003
10
-67.740999999999985
20
93.195000000000022
10
-72.058999999999997
20
93.195000000000022
10
-72.058999999999997
20
94.084000000000003
10
-76.694500000000005
20
94.084000000000003
10
-76.694500000000005
20
78.336000000000013
10
-72.058999999999997
20
78.336000000000013
10
-72.058999999999997
20
79.225000000000009
10
-67.740999999999985
20
79.224999999999994
10
-67.740999999999985
20
78.336000000000013
0
LWPOLYLINE
5
134
100
AcDbEntity
8
0
100
AcDbPolyline
90
12
70
1
43
0.0
10
-44.105499999999992
20
21.336000000000006
10
-44.105499999999992
20
37.084000000000003
10
-48.740999999999985
20
37.084000000000003
10
-48.740999999999985
20
36.195000000000007
10
-53.058999999999997
20
36.195000000000007
10
-53.058999999999997
20
37.084000000000003
10
-57.694500000000005
20
37.084000000000003
10
-57.694500000000005
20
21.336000000000006
10
-53.058999999999997
20
21.336000000000009
10
-53.058999999999997
20
22.225000000000001
10
-48.740999999999985
20
22.225000000000001
10
-48.740999999999985
20
21.336000000000006
0
LWPOLYLINE
5
135
100
AcDbEntity
8
0
100
AcDbPolyline
90
12
70
1
43
0.0
10
-44.105499999999992
20
40.336000000000006
10
-44.105499999999992
20
56.084000000000003
10
-48.740999999999985
20
56.083999999999996
10
-48.740999999999985
20
55.195000000000007
10
-53.058999999999997
20
55.195000000000007
10
-53.058999999999997
20
56.084000000000003
10
-57.694500000000005
20
56.083999999999996
10
-57.694500000000005
20
40.336000000000006
10
-53.058999999999997
20
40.335999999999999
10
-53.058999999999997
20
41.225000000000009
10
-48.740999999999985
20
41.225000000000009
10
-48.740999999999985
20
40.336000000000006
0
LWPOLYLINE
5
136
100
AcDbEntity
8
0
100
AcDbPolyline
90
12
70
1
43
0.0
10
-44.105499999999992
20
59.335999999999999
10
-44.105499999999992
20
75.084000000000003
10
-48.740999999999985
20
75.084000000000003
10
-48.740999999999985
20
74.195000000000007
10
-53.058999999999997
20
74.195000000000007
10
-53.058999999999997
20
75.084000000000003
10
-57.694500000000005
20
75.084000000000003
10
-57.694500000000005
20
59.335999999999999
10
-53.058999999999997
20
59.335999999999999
10
-53.058999999999997
20
60.225000000000009
10
-48.740999999999985
20
60.225000000000009
10
-48.740999999999985
20
59.335999999999999
0
LWPOLYLINE
5
137
100
AcDbEntity
8
0
100
AcDbPolyline
90
12
70
1
43
0.0
10
-44.105499999999992
20
78.336000000000013
10
-44.105499999999992
20
94.084000000000003
10
-48.740999999999985
20
94.084000000000003
10
-48.740999999999985
20
93.195000000000022
10
-53.058999999999997
20
93.195000000000022
10
-53.058999999999997
20
94.084000000000003
10
-57.694500000000005
20
94.084000000000003
10
-57.694500000000005
20
78.336000000000013
10
-53.058999999999997
20
78.336000000000013
10
-53.058999999999997
20
79.225000000000009
10
-48.740999999999985
20
79.224999999999994
10
-48.740999999999985
20
78.336000000000013
0
LWPOLYLINE
5
138
100
AcDbEntity
8
0
100
AcDbPolyline
90
12
70
1
43
0.0
10
-25.105499999999989
20
21.336000000000006
10
-25.105499999999989
20
37.084000000000003
10
-29.740999999999993
20
37.084000000000003
10
-29.740999999999996
20
36.195000000000007
10
-34.058999999999997
20
36.195000000000007
10
-34.058999999999997
20
37.084000000000003
10
-38.694500000000012
20
37.084000000000003
10
-38.694500000000012
20
21.336000000000006
10
-34.058999999999997
20
21.336000000000009
10
-34.058999999999997
20
22.225000000000001
10
-29.740999999999993
20
22.225000000000001
10
-29.740999999999996
20
21.336000000000006
0
LWPOLYLINE
5
139
100
AcDbEntity
8
0
100
AcDbPolyline
90
12
70
1
43
0.0
10
-25.105499999999989
20
40.336000000000006
10
-25.105499999999989
20
56.084000000000003
10
-29.740999999999993
20
56.083999999999996
10
-29.740999999999996
20
55.195000000000007
10
-34.058999999999997
20
55.195000000000007
10
-34.058999999999997
20
56.084000000000003
10
-38.694500000000012
20
56.083999999999996
10
-38.694500000000012
20
40.336000000000006
10
-34.058999999999997
20
40.335999999999999
10
-34.058999999999997
20
41.225000000000009
10
-29.740999999999993
20
41.225000000000009
10
-29.740999999999996
20
40.336000000000006
0
LWPOLYLINE
5
140
100
AcDbEntity
8
0
100
AcDbPolyline
90
12
70
1
43
0.0
10
-25.105499999999989
20
59.335999999999999
10
-25.105499999999989
20
75.084000000000003
10
-29.740999999999993
20
75.084000000000003
10
-29.740999999999996
20
74.195000000000007
10
-34.058999999999997
20
74.195000000000007
10
-34.058999999999997
20
75.084000000000003
10
-38.694500000000012
20
75.084000000000003
10
-38.694500000000012
20
59.335999999999999
10
-34.058999999999997
20
59.335999999999999
10
-34.058999999999997
20
60.225000000000009
10
-29.740999999999993
20
60.225000000000009
10
-29.740999999999996
20
59.335999999999999
0
LWPOLYLINE
5
141
100
AcDbEntity
8
0
100
AcDbPolyline
90
12
70
1
43
0.0
10
-25.105499999999989
20
78.336000000000013
10
-25.105499999999989
20
94.084000000000003
10
-29.740999999999993
20
94.084000000000003
10
-29.740999999999996
20
93.195000000000022
10
-34.058999999999997
20
93.195000000000022
10
-34.058999999999997
20
94.084000000000003
10
-38.694500000000012
20
94.084000000000003
10
-38.694500000000012
20
78.336000000000013
10
-34.058999999999997
20
78.336000000000013
10
-34.058999999999997
20
79.225000000000009
10
-29.740999999999993
20
79.224999999999994
10
-29.740999999999996
20
78.336000000000013
0
ENDSEC
0
SECTION
2
OBJECTS
0
DICTIONARY
5
C
100
AcDbDictionary
3
ACAD_GROUP
350
D
3
ACAD_MLINESTYLE
350
17
0
DICTIONARY
5
D
100
AcDbDictionary
0
DICTIONARY
5
1A
330
C
100
AcDbDictionary
0
DICTIONARY
5
17
100
AcDbDictionary
0
ENDSEC
0
EOF
