%TF.GenerationSoftware,KiCad,Pcbnew,6.0.7-f9a2dced07~116~ubuntu20.04.1*%
%TF.CreationDate,2022-10-18T12:20:34-04:00*%
%TF.ProjectId,Splitboard-A,53706c69-7462-46f6-9172-642d412e6b69,rev?*%
%TF.SameCoordinates,Original*%
%TF.FileFunction,Copper,L2,Bot*%
%TF.FilePolarity,Positive*%
%FSLAX46Y46*%
G04 Gerber Fmt 4.6, Leading zero omitted, Abs format (unit mm)*
G04 Created by KiCad (PCBNEW 6.0.7-f9a2dced07~116~ubuntu20.04.1) date 2022-10-18 12:20:34*
%MOMM*%
%LPD*%
G01*
G04 APERTURE LIST*
G04 Aperture macros list*
%AMRoundRect*
0 Rectangle with rounded corners*
0 $1 Rounding radius*
0 $2 $3 $4 $5 $6 $7 $8 $9 X,Y pos of 4 corners*
0 Add a 4 corners polygon primitive as box body*
4,1,4,$2,$3,$4,$5,$6,$7,$8,$9,$2,$3,0*
0 Add four circle primitives for the rounded corners*
1,1,$1+$1,$2,$3*
1,1,$1+$1,$4,$5*
1,1,$1+$1,$6,$7*
1,1,$1+$1,$8,$9*
0 Add four rect primitives between the rounded corners*
20,1,$1+$1,$2,$3,$4,$5,0*
20,1,$1+$1,$4,$5,$6,$7,0*
20,1,$1+$1,$6,$7,$8,$9,0*
20,1,$1+$1,$8,$9,$2,$3,0*%
%AMHorizOval*
0 Thick line with rounded ends*
0 $1 width*
0 $2 $3 position (X,Y) of the first rounded end (center of the circle)*
0 $4 $5 position (X,Y) of the second rounded end (center of the circle)*
0 Add line between two ends*
20,1,$1,$2,$3,$4,$5,0*
0 Add two circle primitives to create the rounded ends*
1,1,$1,$2,$3*
1,1,$1,$4,$5*%
%AMRotRect*
0 Rectangle, with rotation*
0 The origin of the aperture is its center*
0 $1 length*
0 $2 width*
0 $3 Rotation angle, in degrees counterclockwise*
0 Add horizontal line*
21,1,$1,$2,0,0,$3*%
G04 Aperture macros list end*
%TA.AperFunction,SMDPad,CuDef*%
%ADD10RotRect,0.300000X0.700000X340.000000*%
%TD*%
%TA.AperFunction,ComponentPad*%
%ADD11C,0.650000*%
%TD*%
%TA.AperFunction,ComponentPad*%
%ADD12HorizOval,0.800000X-0.102606X-0.281908X0.102606X0.281908X0*%
%TD*%
%TA.AperFunction,SMDPad,CuDef*%
%ADD13RoundRect,0.250000X-1.525000X-1.000000X1.525000X-1.000000X1.525000X1.000000X-1.525000X1.000000X0*%
%TD*%
%TA.AperFunction,ComponentPad*%
%ADD14C,3.600000*%
%TD*%
%TA.AperFunction,SMDPad,CuDef*%
%ADD15RoundRect,0.250000X-1.785445X0.371231X0.371231X-1.785445X1.785445X-0.371231X-0.371231X1.785445X0*%
%TD*%
%TA.AperFunction,ComponentPad*%
%ADD16R,1.700000X1.700000*%
%TD*%
%TA.AperFunction,ComponentPad*%
%ADD17O,1.700000X1.700000*%
%TD*%
%TA.AperFunction,ComponentPad*%
%ADD18C,2.000000*%
%TD*%
%TA.AperFunction,ComponentPad*%
%ADD19R,3.200000X2.000000*%
%TD*%
%TA.AperFunction,ComponentPad*%
%ADD20R,2.000000X2.000000*%
%TD*%
%TA.AperFunction,SMDPad,CuDef*%
%ADD21RoundRect,0.250000X-0.250000X-0.475000X0.250000X-0.475000X0.250000X0.475000X-0.250000X0.475000X0*%
%TD*%
%TA.AperFunction,SMDPad,CuDef*%
%ADD22RoundRect,0.250000X-0.262500X-0.450000X0.262500X-0.450000X0.262500X0.450000X-0.262500X0.450000X0*%
%TD*%
%TA.AperFunction,SMDPad,CuDef*%
%ADD23RoundRect,0.250000X0.262500X0.450000X-0.262500X0.450000X-0.262500X-0.450000X0.262500X-0.450000X0*%
%TD*%
%TA.AperFunction,SMDPad,CuDef*%
%ADD24RoundRect,0.250000X-0.475000X0.250000X-0.475000X-0.250000X0.475000X-0.250000X0.475000X0.250000X0*%
%TD*%
%TA.AperFunction,SMDPad,CuDef*%
%ADD25R,0.900000X1.200000*%
%TD*%
%TA.AperFunction,SMDPad,CuDef*%
%ADD26RoundRect,0.250000X-0.450000X0.262500X-0.450000X-0.262500X0.450000X-0.262500X0.450000X0.262500X0*%
%TD*%
%TA.AperFunction,SMDPad,CuDef*%
%ADD27RoundRect,0.250000X0.475000X-0.250000X0.475000X0.250000X-0.475000X0.250000X-0.475000X-0.250000X0*%
%TD*%
%TA.AperFunction,ComponentPad*%
%ADD28C,4.000000*%
%TD*%
%TA.AperFunction,ComponentPad*%
%ADD29R,1.500000X1.500000*%
%TD*%
%TA.AperFunction,ComponentPad*%
%ADD30C,1.500000*%
%TD*%
%TA.AperFunction,SMDPad,CuDef*%
%ADD31RoundRect,0.250000X0.450000X-0.262500X0.450000X0.262500X-0.450000X0.262500X-0.450000X-0.262500X0*%
%TD*%
%TA.AperFunction,SMDPad,CuDef*%
%ADD32RotRect,0.900000X1.200000X315.000000*%
%TD*%
%TA.AperFunction,SMDPad,CuDef*%
%ADD33R,2.000000X1.500000*%
%TD*%
%TA.AperFunction,SMDPad,CuDef*%
%ADD34R,2.000000X3.800000*%
%TD*%
%TA.AperFunction,SMDPad,CuDef*%
%ADD35R,1.300000X0.550000*%
%TD*%
%TA.AperFunction,SMDPad,CuDef*%
%ADD36RoundRect,0.250000X0.250000X0.475000X-0.250000X0.475000X-0.250000X-0.475000X0.250000X-0.475000X0*%
%TD*%
%TA.AperFunction,SMDPad,CuDef*%
%ADD37R,0.876300X0.355600*%
%TD*%
%TA.AperFunction,SMDPad,CuDef*%
%ADD38RoundRect,0.075000X0.725000X0.075000X-0.725000X0.075000X-0.725000X-0.075000X0.725000X-0.075000X0*%
%TD*%
%TA.AperFunction,SMDPad,CuDef*%
%ADD39RoundRect,0.075000X0.075000X0.725000X-0.075000X0.725000X-0.075000X-0.725000X0.075000X-0.725000X0*%
%TD*%
%TA.AperFunction,ViaPad*%
%ADD40C,0.800000*%
%TD*%
%TA.AperFunction,Conductor*%
%ADD41C,0.250000*%
%TD*%
%TA.AperFunction,Conductor*%
%ADD42C,0.200000*%
%TD*%
G04 APERTURE END LIST*
D10*
%TO.P,J1,A1,GND*%
%TO.N,GND*%
X231898904Y-42276702D03*
%TO.P,J1,A2*%
%TO.N,N/C*%
X232368750Y-42447712D03*
%TO.P,J1,A3*%
X232838597Y-42618722D03*
%TO.P,J1,A4,VBUS*%
%TO.N,VBUS*%
X233308443Y-42789732D03*
%TO.P,J1,A5,CC1*%
%TO.N,Net-(J1-PadA5)*%
X233778289Y-42960742D03*
%TO.P,J1,A6,D+*%
%TO.N,/USB_CONN_D+*%
X234248136Y-43131752D03*
%TO.P,J1,A7,D-*%
%TO.N,/USB_CONN_D-*%
X234717982Y-43302762D03*
%TO.P,J1,A8,SBU1*%
%TO.N,unconnected-(J1-PadA8)*%
X235187828Y-43473772D03*
%TO.P,J1,A9,VBUS*%
%TO.N,VBUS*%
X235657675Y-43644782D03*
%TO.P,J1,A10*%
%TO.N,N/C*%
X236127521Y-43815792D03*
%TO.P,J1,A11*%
X236597367Y-43986802D03*
%TO.P,J1,A12,GND*%
%TO.N,GND*%
X237067214Y-44157812D03*
D11*
%TO.P,J1,B1,GND*%
X237562245Y-42943916D03*
%TO.P,J1,B2*%
%TO.N,N/C*%
X237425782Y-42149323D03*
%TO.P,J1,B3*%
X236674028Y-41875707D03*
%TO.P,J1,B4,VBUS*%
%TO.N,VBUS*%
X236058736Y-42396684D03*
%TO.P,J1,B5,CC2*%
%TO.N,Net-(J1-PadB5)*%
X235922273Y-41602091D03*
%TO.P,J1,B6,D+*%
%TO.N,/USB_CONN_D+*%
X235306982Y-42123068D03*
%TO.P,J1,B7,D-*%
%TO.N,/USB_CONN_D-*%
X234555228Y-41849452D03*
%TO.P,J1,B8,SBU2*%
%TO.N,unconnected-(J1-PadB8)*%
X234418765Y-41054859D03*
%TO.P,J1,B9,VBUS*%
%TO.N,VBUS*%
X233803474Y-41575835D03*
%TO.P,J1,B10*%
%TO.N,N/C*%
X233667011Y-40781243D03*
%TO.P,J1,B11*%
X232915257Y-40507626D03*
%TO.P,J1,B12,GND*%
%TO.N,GND*%
X232299966Y-41028603D03*
D12*
%TO.P,J1,S1,SHIELD*%
X241390557Y-37366943D03*
X239017248Y-42834987D03*
X232952117Y-34295603D03*
X231255387Y-40009901D03*
%TD*%
D13*
%TO.P,K28,1*%
%TO.N,/col3*%
X212415000Y-94460000D03*
D14*
X215190000Y-94460000D03*
%TO.P,K28,2*%
%TO.N,Net-(D28-Pad2)*%
X221540000Y-91920000D03*
D13*
X224320000Y-91920000D03*
%TD*%
%TO.P,K11,1*%
%TO.N,/col1*%
X155415000Y-49460000D03*
D14*
X158190000Y-49460000D03*
D13*
%TO.P,K11,2*%
%TO.N,Net-(D11-Pad2)*%
X167320000Y-46920000D03*
D14*
X164540000Y-46920000D03*
%TD*%
D13*
%TO.P,K33,1*%
%TO.N,/col4*%
X174415000Y-107460000D03*
D14*
X177190000Y-107460000D03*
D13*
%TO.P,K33,2*%
%TO.N,Net-(D33-Pad2)*%
X186320000Y-104920000D03*
D14*
X183540000Y-104920000D03*
%TD*%
D13*
%TO.P,K20,1*%
%TO.N,/col2*%
X193415000Y-71460000D03*
D14*
X196190000Y-71460000D03*
D13*
%TO.P,K20,2*%
%TO.N,Net-(D20-Pad2)*%
X205320000Y-68920000D03*
D14*
X202540000Y-68920000D03*
%TD*%
D13*
%TO.P,K13,1*%
%TO.N,/col1*%
X193415000Y-52460000D03*
D14*
X196190000Y-52460000D03*
%TO.P,K13,2*%
%TO.N,Net-(D13-Pad2)*%
X202540000Y-49920000D03*
D13*
X205320000Y-49920000D03*
%TD*%
%TO.P,K7,1*%
%TO.N,/col0*%
X212415000Y-37460000D03*
D14*
X215190000Y-37460000D03*
D13*
%TO.P,K7,2*%
%TO.N,Net-(D7-Pad2)*%
X224320000Y-34920000D03*
D14*
X221540000Y-34920000D03*
%TD*%
%TO.P,K17,1*%
%TO.N,/col2*%
X139190000Y-69460000D03*
D13*
X136415000Y-69460000D03*
%TO.P,K17,2*%
%TO.N,Net-(D17-Pad2)*%
X148320000Y-66920000D03*
D14*
X145540000Y-66920000D03*
%TD*%
D13*
%TO.P,K16,1*%
%TO.N,/col2*%
X117415000Y-71460000D03*
D14*
X120190000Y-71460000D03*
%TO.P,K16,2*%
%TO.N,Net-(D16-Pad2)*%
X126540000Y-68920000D03*
D13*
X129320000Y-68920000D03*
%TD*%
D14*
%TO.P,K37,2*%
%TO.N,Net-(D37-Pad2)*%
X231388154Y-149599214D03*
D15*
X233353911Y-151564971D03*
D14*
%TO.P,K37,1*%
%TO.N,/col5*%
X225101974Y-146905137D03*
D15*
X223139753Y-144942916D03*
%TD*%
D14*
%TO.P,K2,1*%
%TO.N,/col0*%
X120190000Y-33460000D03*
D13*
X117415000Y-33460000D03*
D14*
%TO.P,K2,2*%
%TO.N,Net-(D2-Pad2)*%
X126540000Y-30920000D03*
D13*
X129320000Y-30920000D03*
%TD*%
D14*
%TO.P,K38,1*%
%TO.N,/col5*%
X238537003Y-160340166D03*
D15*
X236574782Y-158377945D03*
D14*
%TO.P,K38,2*%
%TO.N,Net-(D38-Pad2)*%
X244823183Y-163034243D03*
D15*
X246788940Y-165000000D03*
%TD*%
D13*
%TO.P,K5,1*%
%TO.N,/col0*%
X174415000Y-31460000D03*
D14*
X177190000Y-31460000D03*
D13*
%TO.P,K5,2*%
%TO.N,Net-(D5-Pad2)*%
X186320000Y-28920000D03*
D14*
X183540000Y-28920000D03*
%TD*%
D16*
%TO.P,J3,1,Pin_1*%
%TO.N,+3.3V*%
X262625000Y-103650000D03*
D17*
%TO.P,J3,2,Pin_2*%
%TO.N,/SWCLK*%
X262625000Y-106190000D03*
%TO.P,J3,3,Pin_3*%
%TO.N,GND*%
X262625000Y-108730000D03*
%TO.P,J3,4,Pin_4*%
%TO.N,/SWDIO*%
X262625000Y-111270000D03*
%TO.P,J3,5,Pin_5*%
%TO.N,/NRST*%
X262625000Y-113810000D03*
%TO.P,J3,6,Pin_6*%
%TO.N,/SWO*%
X262625000Y-116350000D03*
%TD*%
D14*
%TO.P,K9,1*%
%TO.N,/col1*%
X120190000Y-52460000D03*
D13*
X117415000Y-52460000D03*
D14*
%TO.P,K9,2*%
%TO.N,Net-(D9-Pad2)*%
X126540000Y-49920000D03*
D13*
X129320000Y-49920000D03*
%TD*%
%TO.P,K32,1*%
%TO.N,/col4*%
X155415000Y-106460000D03*
D14*
X158190000Y-106460000D03*
%TO.P,K32,2*%
%TO.N,Net-(D32-Pad2)*%
X164540000Y-103920000D03*
D13*
X167320000Y-103920000D03*
%TD*%
%TO.P,K1,1*%
%TO.N,/col0*%
X98415000Y-37460000D03*
D14*
X101190000Y-37460000D03*
%TO.P,K1,2*%
%TO.N,Net-(D1-Pad2)*%
X107540000Y-34920000D03*
D13*
X110320000Y-34920000D03*
%TD*%
D14*
%TO.P,K26,1*%
%TO.N,/col3*%
X177190000Y-88460000D03*
D13*
X174415000Y-88460000D03*
%TO.P,K26,2*%
%TO.N,Net-(D26-Pad2)*%
X186320000Y-85920000D03*
D14*
X183540000Y-85920000D03*
%TD*%
D18*
%TO.P,SW1,S2,S2*%
%TO.N,GND*%
X259675000Y-137475000D03*
%TO.P,SW1,S1,S1*%
%TO.N,/ENC_SW*%
X259675000Y-142475000D03*
D19*
%TO.P,SW1,MP*%
%TO.N,N/C*%
X252675000Y-134375000D03*
X252675000Y-145575000D03*
D18*
%TO.P,SW1,C,C*%
%TO.N,GND*%
X245175000Y-139975000D03*
%TO.P,SW1,B,B*%
%TO.N,Net-(R13-Pad2)*%
X245175000Y-142475000D03*
D20*
%TO.P,SW1,A,A*%
%TO.N,Net-(R11-Pad2)*%
X245175000Y-137475000D03*
%TD*%
D14*
%TO.P,K4,1*%
%TO.N,/col0*%
X158190000Y-30460000D03*
D13*
X155415000Y-30460000D03*
D14*
%TO.P,K4,2*%
%TO.N,Net-(D4-Pad2)*%
X164540000Y-27920000D03*
D13*
X167320000Y-27920000D03*
%TD*%
%TO.P,K34,1*%
%TO.N,/col4*%
X193415000Y-109460000D03*
D14*
X196190000Y-109460000D03*
%TO.P,K34,2*%
%TO.N,Net-(D34-Pad2)*%
X202540000Y-106920000D03*
D13*
X205320000Y-106920000D03*
%TD*%
%TO.P,K30,1*%
%TO.N,/col4*%
X117415000Y-109460000D03*
D14*
X120190000Y-109460000D03*
%TO.P,K30,2*%
%TO.N,Net-(D30-Pad2)*%
X126540000Y-106920000D03*
D13*
X129320000Y-106920000D03*
%TD*%
D14*
%TO.P,K14,1*%
%TO.N,/col1*%
X215190000Y-56460000D03*
D13*
X212415000Y-56460000D03*
D14*
%TO.P,K14,2*%
%TO.N,Net-(D14-Pad2)*%
X221540000Y-53920000D03*
D13*
X224320000Y-53920000D03*
%TD*%
D14*
%TO.P,K12,1*%
%TO.N,/col1*%
X177190000Y-50460000D03*
D13*
X174415000Y-50460000D03*
D14*
%TO.P,K12,2*%
%TO.N,Net-(D12-Pad2)*%
X183540000Y-47920000D03*
D13*
X186320000Y-47920000D03*
%TD*%
D14*
%TO.P,K22,1*%
%TO.N,/col3*%
X101190000Y-94460000D03*
D13*
X98415000Y-94460000D03*
D14*
%TO.P,K22,2*%
%TO.N,Net-(D22-Pad2)*%
X107540000Y-91920000D03*
D13*
X110320000Y-91920000D03*
%TD*%
%TO.P,K6,1*%
%TO.N,/col0*%
X193415000Y-33460000D03*
D14*
X196190000Y-33460000D03*
%TO.P,K6,2*%
%TO.N,Net-(D6-Pad2)*%
X202540000Y-30920000D03*
D13*
X205320000Y-30920000D03*
%TD*%
%TO.P,K8,1*%
%TO.N,/col1*%
X98415000Y-56460000D03*
D14*
X101190000Y-56460000D03*
%TO.P,K8,2*%
%TO.N,Net-(D8-Pad2)*%
X107540000Y-53920000D03*
D13*
X110320000Y-53920000D03*
%TD*%
%TO.P,K18,1*%
%TO.N,/col2*%
X155415000Y-68460000D03*
D14*
X158190000Y-68460000D03*
%TO.P,K18,2*%
%TO.N,Net-(D18-Pad2)*%
X164540000Y-65920000D03*
D13*
X167320000Y-65920000D03*
%TD*%
%TO.P,K15,1*%
%TO.N,/col2*%
X98415000Y-75460000D03*
D14*
X101190000Y-75460000D03*
%TO.P,K15,2*%
%TO.N,Net-(D15-Pad2)*%
X107540000Y-72920000D03*
D13*
X110320000Y-72920000D03*
%TD*%
%TO.P,K21,1*%
%TO.N,/col2*%
X212415000Y-75460000D03*
D14*
X215190000Y-75460000D03*
%TO.P,K21,2*%
%TO.N,Net-(D21-Pad2)*%
X221540000Y-72920000D03*
D13*
X224320000Y-72920000D03*
%TD*%
%TO.P,K19,1*%
%TO.N,/col2*%
X174415000Y-69460000D03*
D14*
X177190000Y-69460000D03*
%TO.P,K19,2*%
%TO.N,Net-(D19-Pad2)*%
X183540000Y-66920000D03*
D13*
X186320000Y-66920000D03*
%TD*%
D14*
%TO.P,K25,1*%
%TO.N,/col3*%
X158190000Y-87460000D03*
D13*
X155415000Y-87460000D03*
D14*
%TO.P,K25,2*%
%TO.N,Net-(D25-Pad2)*%
X164540000Y-84920000D03*
D13*
X167320000Y-84920000D03*
%TD*%
%TO.P,K10,1*%
%TO.N,/col1*%
X136415000Y-50460000D03*
D14*
X139190000Y-50460000D03*
D13*
%TO.P,K10,2*%
%TO.N,Net-(D10-Pad2)*%
X148320000Y-47920000D03*
D14*
X145540000Y-47920000D03*
%TD*%
D13*
%TO.P,K31,1*%
%TO.N,/col4*%
X136415000Y-107460000D03*
D14*
X139190000Y-107460000D03*
D13*
%TO.P,K31,2*%
%TO.N,Net-(D31-Pad2)*%
X148320000Y-104920000D03*
D14*
X145540000Y-104920000D03*
%TD*%
%TO.P,K23,1*%
%TO.N,/col3*%
X120190000Y-90460000D03*
D13*
X117415000Y-90460000D03*
%TO.P,K23,2*%
%TO.N,Net-(D23-Pad2)*%
X129320000Y-87920000D03*
D14*
X126540000Y-87920000D03*
%TD*%
%TO.P,K29,1*%
%TO.N,/col4*%
X101190000Y-113460000D03*
D13*
X98415000Y-113460000D03*
D14*
%TO.P,K29,2*%
%TO.N,Net-(D29-Pad2)*%
X107540000Y-110920000D03*
D13*
X110320000Y-110920000D03*
%TD*%
%TO.P,K24,1*%
%TO.N,/col3*%
X136415000Y-88460000D03*
D14*
X139190000Y-88460000D03*
%TO.P,K24,2*%
%TO.N,Net-(D24-Pad2)*%
X145540000Y-85920000D03*
D13*
X148320000Y-85920000D03*
%TD*%
D15*
%TO.P,K36,1*%
%TO.N,/col5*%
X209704724Y-131507887D03*
D14*
X211666945Y-133470108D03*
D15*
%TO.P,K36,2*%
%TO.N,Net-(D36-Pad2)*%
X219918882Y-138129942D03*
D14*
X217953125Y-136164185D03*
%TD*%
D13*
%TO.P,K35,1*%
%TO.N,/col4*%
X212415000Y-113460000D03*
D14*
X215190000Y-113460000D03*
%TO.P,K35,2*%
%TO.N,Net-(D35-Pad2)*%
X221540000Y-110920000D03*
D13*
X224320000Y-110920000D03*
%TD*%
%TO.P,K27,1*%
%TO.N,/col3*%
X193415000Y-90460000D03*
D14*
X196190000Y-90460000D03*
D13*
%TO.P,K27,2*%
%TO.N,Net-(D27-Pad2)*%
X205320000Y-87920000D03*
D14*
X202540000Y-87920000D03*
%TD*%
%TO.P,K3,1*%
%TO.N,/col0*%
X139190000Y-31460000D03*
D13*
X136415000Y-31460000D03*
%TO.P,K3,2*%
%TO.N,Net-(D3-Pad2)*%
X148320000Y-28920000D03*
D14*
X145540000Y-28920000D03*
%TD*%
D21*
%TO.P,C5,2*%
%TO.N,/ENC_SW*%
X264350000Y-137500000D03*
%TO.P,C5,1*%
%TO.N,GND*%
X262450000Y-137500000D03*
%TD*%
D22*
%TO.P,R7,1*%
%TO.N,/col2*%
X236587500Y-82000000D03*
%TO.P,R7,2*%
%TO.N,+3.3V*%
X238412500Y-82000000D03*
%TD*%
D23*
%TO.P,R14,2*%
%TO.N,/ENC_B*%
X240187500Y-145100000D03*
%TO.P,R14,1*%
%TO.N,Net-(R13-Pad2)*%
X242012500Y-145100000D03*
%TD*%
D24*
%TO.P,C10,1*%
%TO.N,+3.3V*%
X248500000Y-79550000D03*
%TO.P,C10,2*%
%TO.N,GND*%
X248500000Y-81450000D03*
%TD*%
D21*
%TO.P,C8,1*%
%TO.N,+3.3V*%
X263050000Y-97000000D03*
%TO.P,C8,2*%
%TO.N,GND*%
X264950000Y-97000000D03*
%TD*%
D18*
%TO.P,SW2,1,1*%
%TO.N,GND*%
X240500000Y-108500000D03*
X247000000Y-108500000D03*
%TO.P,SW2,2,2*%
%TO.N,/NRST*%
X240500000Y-113000000D03*
X247000000Y-113000000D03*
%TD*%
D21*
%TO.P,C1,1*%
%TO.N,Net-(C1-Pad1)*%
X253550000Y-97000000D03*
%TO.P,C1,2*%
%TO.N,GND*%
X255450000Y-97000000D03*
%TD*%
D25*
%TO.P,D22,1,K*%
%TO.N,/row0*%
X110650000Y-102000000D03*
%TO.P,D22,2,A*%
%TO.N,Net-(D22-Pad2)*%
X107350000Y-102000000D03*
%TD*%
D26*
%TO.P,R2,1*%
%TO.N,Net-(J1-PadB5)*%
X257500000Y-51587500D03*
%TO.P,R2,2*%
%TO.N,GND*%
X257500000Y-53412500D03*
%TD*%
D24*
%TO.P,C9,1*%
%TO.N,+3.3V*%
X246000000Y-79550000D03*
%TO.P,C9,2*%
%TO.N,GND*%
X246000000Y-81450000D03*
%TD*%
D25*
%TO.P,D19,1,K*%
%TO.N,/row4*%
X186650000Y-77000000D03*
%TO.P,D19,2,A*%
%TO.N,Net-(D19-Pad2)*%
X183350000Y-77000000D03*
%TD*%
D27*
%TO.P,C12,1*%
%TO.N,+3.3V*%
X269500000Y-77450000D03*
%TO.P,C12,2*%
%TO.N,GND*%
X269500000Y-75550000D03*
%TD*%
D28*
%TO.P,U2,*%
%TO.N,*%
X236450000Y-61257500D03*
X236450000Y-122457500D03*
X270550000Y-61257500D03*
X270550000Y-122457500D03*
D29*
%TO.P,U2,1,VCC*%
%TO.N,VBUS*%
X263660000Y-123957500D03*
D30*
%TO.P,U2,2,GND*%
%TO.N,GND*%
X261120000Y-123957500D03*
%TO.P,U2,3,~{CS}*%
%TO.N,/LCD1_CS*%
X258580000Y-123957500D03*
%TO.P,U2,4,RESET*%
%TO.N,/LCD1_RST*%
X256040000Y-123957500D03*
%TO.P,U2,5,D/~{C}*%
%TO.N,/LCD1_DC*%
X253500000Y-123957500D03*
%TO.P,U2,6,MOSI*%
%TO.N,/MOSI*%
X250960000Y-123957500D03*
%TO.P,U2,7,SCK*%
%TO.N,/SCK*%
X248420000Y-123957500D03*
%TO.P,U2,8,LED*%
%TO.N,+3.3V*%
X245880000Y-123957500D03*
%TO.P,U2,9,MISO*%
%TO.N,unconnected-(U2-Pad9)*%
X243340000Y-123957500D03*
%TO.P,U2,10,SD_CS*%
%TO.N,unconnected-(U2-Pad10)*%
X258580000Y-60437500D03*
%TO.P,U2,11,SD_MOSI*%
%TO.N,unconnected-(U2-Pad11)*%
X256040000Y-60437500D03*
%TO.P,U2,12,SD_MISO*%
%TO.N,unconnected-(U2-Pad12)*%
X253500000Y-60437500D03*
%TO.P,U2,13,SD_SCK*%
%TO.N,unconnected-(U2-Pad13)*%
X250960000Y-60437500D03*
%TO.P,U2,14,FLASH_CD*%
%TO.N,unconnected-(U2-Pad14)*%
X248420000Y-60437500D03*
%TD*%
D27*
%TO.P,C3,1*%
%TO.N,Net-(C3-Pad1)*%
X257500000Y-57450000D03*
%TO.P,C3,2*%
%TO.N,GND*%
X257500000Y-55550000D03*
%TD*%
D25*
%TO.P,D9,1,K*%
%TO.N,/row1*%
X129650000Y-60000000D03*
%TO.P,D9,2,A*%
%TO.N,Net-(D9-Pad2)*%
X126350000Y-60000000D03*
%TD*%
%TO.P,D13,1,K*%
%TO.N,/row5*%
X205650000Y-60000000D03*
%TO.P,D13,2,A*%
%TO.N,Net-(D13-Pad2)*%
X202350000Y-60000000D03*
%TD*%
%TO.P,D10,1,K*%
%TO.N,/row2*%
X148650000Y-58000000D03*
%TO.P,D10,2,A*%
%TO.N,Net-(D10-Pad2)*%
X145350000Y-58000000D03*
%TD*%
%TO.P,D12,1,K*%
%TO.N,/row4*%
X186650000Y-58000000D03*
%TO.P,D12,2,A*%
%TO.N,Net-(D12-Pad2)*%
X183350000Y-58000000D03*
%TD*%
%TO.P,D16,1,K*%
%TO.N,/row1*%
X129650000Y-79000000D03*
%TO.P,D16,2,A*%
%TO.N,Net-(D16-Pad2)*%
X126350000Y-79000000D03*
%TD*%
%TO.P,D15,1,K*%
%TO.N,/row0*%
X110650000Y-83000000D03*
%TO.P,D15,2,A*%
%TO.N,Net-(D15-Pad2)*%
X107350000Y-83000000D03*
%TD*%
D31*
%TO.P,R4,1*%
%TO.N,/col5*%
X243500000Y-85825000D03*
%TO.P,R4,2*%
%TO.N,+3.3V*%
X243500000Y-84000000D03*
%TD*%
D22*
%TO.P,R11,2*%
%TO.N,Net-(R11-Pad2)*%
X242012500Y-137487500D03*
%TO.P,R11,1*%
%TO.N,+3.3V*%
X240187500Y-137487500D03*
%TD*%
D32*
%TO.P,D37,1,K*%
%TO.N,/row1*%
X224025688Y-156248710D03*
%TO.P,D37,2,A*%
%TO.N,Net-(D37-Pad2)*%
X226359140Y-158582162D03*
%TD*%
D25*
%TO.P,D11,1,K*%
%TO.N,/row3*%
X167650000Y-57000000D03*
%TO.P,D11,2,A*%
%TO.N,Net-(D11-Pad2)*%
X164350000Y-57000000D03*
%TD*%
D26*
%TO.P,R15,1*%
%TO.N,+3.3V*%
X271500000Y-86587500D03*
%TO.P,R15,2*%
%TO.N,/NRST*%
X271500000Y-88412500D03*
%TD*%
D25*
%TO.P,D2,1,K*%
%TO.N,/row1*%
X129650000Y-41000000D03*
%TO.P,D2,2,A*%
%TO.N,Net-(D2-Pad2)*%
X126350000Y-41000000D03*
%TD*%
D27*
%TO.P,C13,1*%
%TO.N,+3.3V*%
X272000000Y-77450000D03*
%TO.P,C13,2*%
%TO.N,GND*%
X272000000Y-75550000D03*
%TD*%
D21*
%TO.P,C6,2*%
%TO.N,GND*%
X264350000Y-135100000D03*
%TO.P,C6,1*%
%TO.N,+3.3V*%
X262450000Y-135100000D03*
%TD*%
D22*
%TO.P,R9,1*%
%TO.N,/col0*%
X236587500Y-77000000D03*
%TO.P,R9,2*%
%TO.N,+3.3V*%
X238412500Y-77000000D03*
%TD*%
D25*
%TO.P,D14,1,K*%
%TO.N,/row6*%
X224650000Y-64000000D03*
%TO.P,D14,2,A*%
%TO.N,Net-(D14-Pad2)*%
X221350000Y-64000000D03*
%TD*%
D21*
%TO.P,C4,2*%
%TO.N,GND*%
X242100000Y-139987500D03*
%TO.P,C4,1*%
%TO.N,+3.3V*%
X240200000Y-139987500D03*
%TD*%
D33*
%TO.P,U4,3,VI*%
%TO.N,Net-(C3-Pad1)*%
X239850000Y-55800000D03*
D34*
%TO.P,U4,2,VO*%
%TO.N,+3.3V*%
X233550000Y-53500000D03*
D33*
X239850000Y-53500000D03*
%TO.P,U4,1,GND*%
%TO.N,GND*%
X239850000Y-51200000D03*
%TD*%
D25*
%TO.P,D17,1,K*%
%TO.N,/row2*%
X148650000Y-77000000D03*
%TO.P,D17,2,A*%
%TO.N,Net-(D17-Pad2)*%
X145350000Y-77000000D03*
%TD*%
D21*
%TO.P,C16,2*%
%TO.N,GND*%
X242050000Y-132300000D03*
%TO.P,C16,1*%
%TO.N,/ENC_A*%
X240150000Y-132300000D03*
%TD*%
D25*
%TO.P,D23,1,K*%
%TO.N,/row1*%
X129650000Y-98000000D03*
%TO.P,D23,2,A*%
%TO.N,Net-(D23-Pad2)*%
X126350000Y-98000000D03*
%TD*%
%TO.P,D3,1,K*%
%TO.N,/row2*%
X148650000Y-39000000D03*
%TO.P,D3,2,A*%
%TO.N,Net-(D3-Pad2)*%
X145350000Y-39000000D03*
%TD*%
%TO.P,D34,1,K*%
%TO.N,/row5*%
X205650000Y-117000000D03*
%TO.P,D34,2,A*%
%TO.N,Net-(D34-Pad2)*%
X202350000Y-117000000D03*
%TD*%
D24*
%TO.P,C7,1*%
%TO.N,+3.3V*%
X251000000Y-96100000D03*
%TO.P,C7,2*%
%TO.N,GND*%
X251000000Y-98000000D03*
%TD*%
D35*
%TO.P,U1,1,GND*%
%TO.N,GND*%
X272123500Y-80248499D03*
%TO.P,U1,2,NC*%
%TO.N,unconnected-(U1-Pad2)*%
X272123500Y-81198500D03*
%TO.P,U1,3,OE/NC*%
%TO.N,+3.3V*%
X272123500Y-82148501D03*
%TO.P,U1,4,VDD*%
X269623500Y-82148501D03*
%TO.P,U1,5,OUT*%
%TO.N,/RCC_OSC_IN*%
X269623500Y-80248499D03*
%TD*%
D31*
%TO.P,FB1,1*%
%TO.N,Net-(D39-Pad1)*%
X262000000Y-61000000D03*
%TO.P,FB1,2*%
%TO.N,Net-(C3-Pad1)*%
X262000000Y-59175000D03*
%TD*%
D27*
%TO.P,C14,1*%
%TO.N,+3.3V*%
X269000000Y-86450000D03*
%TO.P,C14,2*%
%TO.N,GND*%
X269000000Y-84550000D03*
%TD*%
D24*
%TO.P,C15,1*%
%TO.N,+3.3V*%
X269000000Y-90050000D03*
%TO.P,C15,2*%
%TO.N,GND*%
X269000000Y-91950000D03*
%TD*%
D25*
%TO.P,D30,1,K*%
%TO.N,/row1*%
X129650000Y-117000000D03*
%TO.P,D30,2,A*%
%TO.N,Net-(D30-Pad2)*%
X126350000Y-117000000D03*
%TD*%
%TO.P,D25,1,K*%
%TO.N,/row3*%
X167650000Y-95000000D03*
%TO.P,D25,2,A*%
%TO.N,Net-(D25-Pad2)*%
X164350000Y-95000000D03*
%TD*%
D36*
%TO.P,C17,2*%
%TO.N,/ENC_B*%
X240150000Y-147700000D03*
%TO.P,C17,1*%
%TO.N,GND*%
X242050000Y-147700000D03*
%TD*%
D32*
%TO.P,D36,1,K*%
%TO.N,/row0*%
X210590654Y-142813684D03*
%TO.P,D36,2,A*%
%TO.N,Net-(D36-Pad2)*%
X212924106Y-145147136D03*
%TD*%
D25*
%TO.P,D35,1,K*%
%TO.N,/row6*%
X224650000Y-121000000D03*
%TO.P,D35,2,A*%
%TO.N,Net-(D35-Pad2)*%
X221350000Y-121000000D03*
%TD*%
%TO.P,D31,1,K*%
%TO.N,/row2*%
X148650000Y-115000000D03*
%TO.P,D31,2,A*%
%TO.N,Net-(D31-Pad2)*%
X145350000Y-115000000D03*
%TD*%
%TO.P,D21,1,K*%
%TO.N,/row6*%
X224650000Y-83000000D03*
%TO.P,D21,2,A*%
%TO.N,Net-(D21-Pad2)*%
X221350000Y-83000000D03*
%TD*%
D36*
%TO.P,C18,1*%
%TO.N,GND*%
X248900000Y-116500000D03*
%TO.P,C18,2*%
%TO.N,/NRST*%
X247000000Y-116500000D03*
%TD*%
D37*
%TO.P,U5,1,D1*%
%TO.N,/USB_CONN_D+*%
X229388750Y-47249999D03*
%TO.P,U5,2,GND*%
%TO.N,GND*%
X229388750Y-46600000D03*
%TO.P,U5,3,D2*%
%TO.N,/USB_CONN_D-*%
X229388750Y-45950001D03*
%TO.P,U5,4,D3*%
%TO.N,/USB_D-*%
X231611250Y-45950001D03*
%TO.P,U5,5,VDD*%
%TO.N,+3.3V*%
X231611250Y-46600000D03*
%TO.P,U5,6,D4*%
%TO.N,/USB_D+*%
X231611250Y-47249999D03*
%TD*%
D38*
%TO.P,U3,1,PE2*%
%TO.N,unconnected-(U3-Pad1)*%
X266675000Y-81000000D03*
%TO.P,U3,2,PE3*%
%TO.N,unconnected-(U3-Pad2)*%
X266675000Y-81500000D03*
%TO.P,U3,3,PE4*%
%TO.N,unconnected-(U3-Pad3)*%
X266675000Y-82000000D03*
%TO.P,U3,4,PE5*%
%TO.N,unconnected-(U3-Pad4)*%
X266675000Y-82500000D03*
%TO.P,U3,5,PE6*%
%TO.N,unconnected-(U3-Pad5)*%
X266675000Y-83000000D03*
%TO.P,U3,6,VBAT*%
%TO.N,+3.3V*%
X266675000Y-83500000D03*
%TO.P,U3,7,PC13*%
%TO.N,unconnected-(U3-Pad7)*%
X266675000Y-84000000D03*
%TO.P,U3,8,PC14*%
%TO.N,unconnected-(U3-Pad8)*%
X266675000Y-84500000D03*
%TO.P,U3,9,PC15*%
%TO.N,unconnected-(U3-Pad9)*%
X266675000Y-85000000D03*
%TO.P,U3,10,VSS*%
%TO.N,GND*%
X266675000Y-85500000D03*
%TO.P,U3,11,VDD*%
%TO.N,+3.3V*%
X266675000Y-86000000D03*
%TO.P,U3,12,PH0*%
%TO.N,/RCC_OSC_IN*%
X266675000Y-86500000D03*
%TO.P,U3,13,PH1*%
%TO.N,/RCC_OSC_OUT*%
X266675000Y-87000000D03*
%TO.P,U3,14,NRST*%
%TO.N,/NRST*%
X266675000Y-87500000D03*
%TO.P,U3,15,PC0*%
%TO.N,unconnected-(U3-Pad15)*%
X266675000Y-88000000D03*
%TO.P,U3,16,PC1*%
%TO.N,unconnected-(U3-Pad16)*%
X266675000Y-88500000D03*
%TO.P,U3,17,PC2*%
%TO.N,unconnected-(U3-Pad17)*%
X266675000Y-89000000D03*
%TO.P,U3,18,PC3*%
%TO.N,/MOSI*%
X266675000Y-89500000D03*
%TO.P,U3,19,VDD*%
%TO.N,+3.3V*%
X266675000Y-90000000D03*
%TO.P,U3,20,VSSA*%
%TO.N,GND*%
X266675000Y-90500000D03*
%TO.P,U3,21,VREF+*%
%TO.N,+3.3V*%
X266675000Y-91000000D03*
%TO.P,U3,22,VDDA*%
X266675000Y-91500000D03*
%TO.P,U3,23,PA0*%
%TO.N,unconnected-(U3-Pad23)*%
X266675000Y-92000000D03*
%TO.P,U3,24,PA1*%
%TO.N,unconnected-(U3-Pad24)*%
X266675000Y-92500000D03*
%TO.P,U3,25,PA2*%
%TO.N,unconnected-(U3-Pad25)*%
X266675000Y-93000000D03*
D39*
%TO.P,U3,26,PA3*%
%TO.N,unconnected-(U3-Pad26)*%
X265000000Y-94675000D03*
%TO.P,U3,27,VSS*%
%TO.N,GND*%
X264500000Y-94675000D03*
%TO.P,U3,28,VDD*%
%TO.N,+3.3V*%
X264000000Y-94675000D03*
%TO.P,U3,29,PA4*%
%TO.N,unconnected-(U3-Pad29)*%
X263500000Y-94675000D03*
%TO.P,U3,30,PA5*%
%TO.N,unconnected-(U3-Pad30)*%
X263000000Y-94675000D03*
%TO.P,U3,31,PA6*%
%TO.N,unconnected-(U3-Pad31)*%
X262500000Y-94675000D03*
%TO.P,U3,32,PA7*%
%TO.N,unconnected-(U3-Pad32)*%
X262000000Y-94675000D03*
%TO.P,U3,33,PC4*%
%TO.N,unconnected-(U3-Pad33)*%
X261500000Y-94675000D03*
%TO.P,U3,34,PC5*%
%TO.N,unconnected-(U3-Pad34)*%
X261000000Y-94675000D03*
%TO.P,U3,35,PB0*%
%TO.N,unconnected-(U3-Pad35)*%
X260500000Y-94675000D03*
%TO.P,U3,36,PB1*%
%TO.N,unconnected-(U3-Pad36)*%
X260000000Y-94675000D03*
%TO.P,U3,37,PB2*%
%TO.N,unconnected-(U3-Pad37)*%
X259500000Y-94675000D03*
%TO.P,U3,38,PE7*%
%TO.N,unconnected-(U3-Pad38)*%
X259000000Y-94675000D03*
%TO.P,U3,39,PE8*%
%TO.N,unconnected-(U3-Pad39)*%
X258500000Y-94675000D03*
%TO.P,U3,40,PE9*%
%TO.N,unconnected-(U3-Pad40)*%
X258000000Y-94675000D03*
%TO.P,U3,41,PE10*%
%TO.N,unconnected-(U3-Pad41)*%
X257500000Y-94675000D03*
%TO.P,U3,42,PE11*%
%TO.N,unconnected-(U3-Pad42)*%
X257000000Y-94675000D03*
%TO.P,U3,43,PE12*%
%TO.N,unconnected-(U3-Pad43)*%
X256500000Y-94675000D03*
%TO.P,U3,44,PE13*%
%TO.N,unconnected-(U3-Pad44)*%
X256000000Y-94675000D03*
%TO.P,U3,45,PE14*%
%TO.N,unconnected-(U3-Pad45)*%
X255500000Y-94675000D03*
%TO.P,U3,46,PE15*%
%TO.N,unconnected-(U3-Pad46)*%
X255000000Y-94675000D03*
%TO.P,U3,47,PB10*%
%TO.N,/SCL*%
X254500000Y-94675000D03*
%TO.P,U3,48,PB11*%
%TO.N,/SDA*%
X254000000Y-94675000D03*
%TO.P,U3,49,VCAP_1*%
%TO.N,Net-(C1-Pad1)*%
X253500000Y-94675000D03*
%TO.P,U3,50,VDD*%
%TO.N,+3.3V*%
X253000000Y-94675000D03*
D38*
%TO.P,U3,51,PB12*%
%TO.N,unconnected-(U3-Pad51)*%
X251325000Y-93000000D03*
%TO.P,U3,52,PB13*%
%TO.N,/SCK*%
X251325000Y-92500000D03*
%TO.P,U3,53,PB14*%
%TO.N,unconnected-(U3-Pad53)*%
X251325000Y-92000000D03*
%TO.P,U3,54,PB15*%
%TO.N,unconnected-(U3-Pad54)*%
X251325000Y-91500000D03*
%TO.P,U3,55,PD8*%
%TO.N,/col1*%
X251325000Y-91000000D03*
%TO.P,U3,56,PD9*%
%TO.N,/col2*%
X251325000Y-90500000D03*
%TO.P,U3,57,PD10*%
%TO.N,/col3*%
X251325000Y-90000000D03*
%TO.P,U3,58,PD11*%
%TO.N,/col4*%
X251325000Y-89500000D03*
%TO.P,U3,59,PD12*%
%TO.N,/col5*%
X251325000Y-89000000D03*
%TO.P,U3,60,PD13*%
%TO.N,/ENC_A*%
X251325000Y-88500000D03*
%TO.P,U3,61,PD14*%
%TO.N,/ENC_B*%
X251325000Y-88000000D03*
%TO.P,U3,62,PD15*%
%TO.N,/ENC_SW*%
X251325000Y-87500000D03*
%TO.P,U3,63,PC6*%
%TO.N,unconnected-(U3-Pad63)*%
X251325000Y-87000000D03*
%TO.P,U3,64,PC7*%
%TO.N,/LCD1_DC*%
X251325000Y-86500000D03*
%TO.P,U3,65,PC8*%
%TO.N,/LCD1_CS*%
X251325000Y-86000000D03*
%TO.P,U3,66,PC9*%
%TO.N,/LCD2_DC*%
X251325000Y-85500000D03*
%TO.P,U3,67,PA8*%
%TO.N,/LCD2_CS*%
X251325000Y-85000000D03*
%TO.P,U3,68,PA9*%
%TO.N,/LCD2_RST*%
X251325000Y-84500000D03*
%TO.P,U3,69,PA10*%
%TO.N,/LCD1_RST*%
X251325000Y-84000000D03*
%TO.P,U3,70,PA11*%
%TO.N,/USB_D-*%
X251325000Y-83500000D03*
%TO.P,U3,71,PA12*%
%TO.N,/USB_D+*%
X251325000Y-83000000D03*
%TO.P,U3,72,PA13*%
%TO.N,/SWDIO*%
X251325000Y-82500000D03*
%TO.P,U3,73,VCAP_2*%
%TO.N,Net-(C2-Pad1)*%
X251325000Y-82000000D03*
%TO.P,U3,74,VSS*%
%TO.N,GND*%
X251325000Y-81500000D03*
%TO.P,U3,75,VDD*%
%TO.N,+3.3V*%
X251325000Y-81000000D03*
D39*
%TO.P,U3,76,PA14*%
%TO.N,/SWCLK*%
X253000000Y-79325000D03*
%TO.P,U3,77,PA15*%
%TO.N,unconnected-(U3-Pad77)*%
X253500000Y-79325000D03*
%TO.P,U3,78,PC10*%
%TO.N,unconnected-(U3-Pad78)*%
X254000000Y-79325000D03*
%TO.P,U3,79,PC11*%
%TO.N,unconnected-(U3-Pad79)*%
X254500000Y-79325000D03*
%TO.P,U3,80,PC12*%
%TO.N,unconnected-(U3-Pad80)*%
X255000000Y-79325000D03*
%TO.P,U3,81,PD0*%
%TO.N,/row0*%
X255500000Y-79325000D03*
%TO.P,U3,82,PD1*%
%TO.N,/row1*%
X256000000Y-79325000D03*
%TO.P,U3,83,PD2*%
%TO.N,/row2*%
X256500000Y-79325000D03*
%TO.P,U3,84,PD3*%
%TO.N,/row3*%
X257000000Y-79325000D03*
%TO.P,U3,85,PD4*%
%TO.N,/row4*%
X257500000Y-79325000D03*
%TO.P,U3,86,PD5*%
%TO.N,/row5*%
X258000000Y-79325000D03*
%TO.P,U3,87,PD6*%
%TO.N,/row6*%
X258500000Y-79325000D03*
%TO.P,U3,88,PD7*%
%TO.N,/col0*%
X259000000Y-79325000D03*
%TO.P,U3,89,PB3*%
%TO.N,/SWO*%
X259500000Y-79325000D03*
%TO.P,U3,90,PB4*%
%TO.N,unconnected-(U3-Pad90)*%
X260000000Y-79325000D03*
%TO.P,U3,91,PB5*%
%TO.N,unconnected-(U3-Pad91)*%
X260500000Y-79325000D03*
%TO.P,U3,92,PB6*%
%TO.N,unconnected-(U3-Pad92)*%
X261000000Y-79325000D03*
%TO.P,U3,93,PB7*%
%TO.N,unconnected-(U3-Pad93)*%
X261500000Y-79325000D03*
%TO.P,U3,94,BOOT0*%
%TO.N,GND*%
X262000000Y-79325000D03*
%TO.P,U3,95,PB8*%
%TO.N,unconnected-(U3-Pad95)*%
X262500000Y-79325000D03*
%TO.P,U3,96,PB9*%
%TO.N,unconnected-(U3-Pad96)*%
X263000000Y-79325000D03*
%TO.P,U3,97,PE0*%
%TO.N,unconnected-(U3-Pad97)*%
X263500000Y-79325000D03*
%TO.P,U3,98,PE1*%
%TO.N,unconnected-(U3-Pad98)*%
X264000000Y-79325000D03*
%TO.P,U3,99,VSS*%
%TO.N,GND*%
X264500000Y-79325000D03*
%TO.P,U3,100,VDD*%
%TO.N,+3.3V*%
X265000000Y-79325000D03*
%TD*%
D32*
%TO.P,D38,1,K*%
%TO.N,/row2*%
X237460717Y-169683738D03*
%TO.P,D38,2,A*%
%TO.N,Net-(D38-Pad2)*%
X239794169Y-172017190D03*
%TD*%
D23*
%TO.P,R1,1*%
%TO.N,Net-(J1-PadA5)*%
X247912500Y-52500000D03*
%TO.P,R1,2*%
%TO.N,GND*%
X246087500Y-52500000D03*
%TD*%
D25*
%TO.P,D5,1,K*%
%TO.N,/row4*%
X186650000Y-39000000D03*
%TO.P,D5,2,A*%
%TO.N,Net-(D5-Pad2)*%
X183350000Y-39000000D03*
%TD*%
D22*
%TO.P,R13,2*%
%TO.N,Net-(R13-Pad2)*%
X242012500Y-142487500D03*
%TO.P,R13,1*%
%TO.N,+3.3V*%
X240187500Y-142487500D03*
%TD*%
D25*
%TO.P,D18,1,K*%
%TO.N,/row3*%
X167650000Y-76000000D03*
%TO.P,D18,2,A*%
%TO.N,Net-(D18-Pad2)*%
X164350000Y-76000000D03*
%TD*%
D22*
%TO.P,R8,1*%
%TO.N,/col1*%
X236587500Y-79500000D03*
%TO.P,R8,2*%
%TO.N,+3.3V*%
X238412500Y-79500000D03*
%TD*%
D25*
%TO.P,D28,1,K*%
%TO.N,/row6*%
X224650000Y-102000000D03*
%TO.P,D28,2,A*%
%TO.N,Net-(D28-Pad2)*%
X221350000Y-102000000D03*
%TD*%
%TO.P,D32,1,K*%
%TO.N,/row3*%
X167650000Y-114000000D03*
%TO.P,D32,2,A*%
%TO.N,Net-(D32-Pad2)*%
X164350000Y-114000000D03*
%TD*%
D27*
%TO.P,C11,1*%
%TO.N,+3.3V*%
X267000000Y-77450000D03*
%TO.P,C11,2*%
%TO.N,GND*%
X267000000Y-75550000D03*
%TD*%
D22*
%TO.P,R10,2*%
%TO.N,+3.3V*%
X264312500Y-140000000D03*
%TO.P,R10,1*%
%TO.N,/ENC_SW*%
X262487500Y-140000000D03*
%TD*%
D25*
%TO.P,D27,1,K*%
%TO.N,/row5*%
X205650000Y-98000000D03*
%TO.P,D27,2,A*%
%TO.N,Net-(D27-Pad2)*%
X202350000Y-98000000D03*
%TD*%
%TO.P,D29,1,K*%
%TO.N,/row0*%
X110650000Y-121000000D03*
%TO.P,D29,2,A*%
%TO.N,Net-(D29-Pad2)*%
X107350000Y-121000000D03*
%TD*%
%TO.P,D7,1,K*%
%TO.N,/row6*%
X224650000Y-45000000D03*
%TO.P,D7,2,A*%
%TO.N,Net-(D7-Pad2)*%
X221350000Y-45000000D03*
%TD*%
%TO.P,D6,1,K*%
%TO.N,/row5*%
X205650000Y-41000000D03*
%TO.P,D6,2,A*%
%TO.N,Net-(D6-Pad2)*%
X202350000Y-41000000D03*
%TD*%
D22*
%TO.P,R6,1*%
%TO.N,/col3*%
X236587500Y-84500000D03*
%TO.P,R6,2*%
%TO.N,+3.3V*%
X238412500Y-84500000D03*
%TD*%
%TO.P,R12,2*%
%TO.N,Net-(R11-Pad2)*%
X242012500Y-134900000D03*
%TO.P,R12,1*%
%TO.N,/ENC_A*%
X240187500Y-134900000D03*
%TD*%
D25*
%TO.P,D1,1,K*%
%TO.N,/row0*%
X110650000Y-45000000D03*
%TO.P,D1,2,A*%
%TO.N,Net-(D1-Pad2)*%
X107350000Y-45000000D03*
%TD*%
D10*
%TO.P,J2,A1,GND*%
%TO.N,GND*%
X247898904Y-47976702D03*
%TO.P,J2,A2,TX1+*%
%TO.N,unconnected-(J2-PadA2)*%
X248368750Y-48147712D03*
%TO.P,J2,A3,TX1-*%
%TO.N,/LCD2_RST*%
X248838597Y-48318722D03*
%TO.P,J2,A4,VBUS*%
%TO.N,VBUS*%
X249308443Y-48489732D03*
%TO.P,J2,A5,CC1*%
%TO.N,/MOSI*%
X249778289Y-48660742D03*
%TO.P,J2,A6,D+*%
%TO.N,/SDA*%
X250248136Y-48831752D03*
%TO.P,J2,A7,D-*%
%TO.N,/SCL*%
X250717982Y-49002762D03*
%TO.P,J2,A8,SBU1*%
%TO.N,/SCK*%
X251187828Y-49173772D03*
%TO.P,J2,A9,VBUS*%
%TO.N,VBUS*%
X251657675Y-49344782D03*
%TO.P,J2,A10,RX2-*%
%TO.N,/LCD2_CS*%
X252127521Y-49515792D03*
%TO.P,J2,A11,RX2+*%
%TO.N,/LCD2_DC*%
X252597367Y-49686802D03*
%TO.P,J2,A12,GND*%
%TO.N,GND*%
X253067214Y-49857812D03*
D11*
%TO.P,J2,B1,GND*%
X253562245Y-48643916D03*
%TO.P,J2,B2,TX2+*%
%TO.N,unconnected-(J2-PadB2)*%
X253425782Y-47849323D03*
%TO.P,J2,B3,TX2-*%
%TO.N,/LCD2_RST*%
X252674028Y-47575707D03*
%TO.P,J2,B4,VBUS*%
%TO.N,VBUS*%
X252058736Y-48096684D03*
%TO.P,J2,B5,CC2*%
%TO.N,/MOSI*%
X251922273Y-47302091D03*
%TO.P,J2,B6,D+*%
%TO.N,/SDA*%
X251306982Y-47823068D03*
%TO.P,J2,B7,D-*%
%TO.N,/SCL*%
X250555228Y-47549452D03*
%TO.P,J2,B8,SBU2*%
%TO.N,/SCK*%
X250418765Y-46754859D03*
%TO.P,J2,B9,VBUS*%
%TO.N,VBUS*%
X249803474Y-47275835D03*
%TO.P,J2,B10,RX1-*%
%TO.N,/LCD2_CS*%
X249667011Y-46481243D03*
%TO.P,J2,B11,RX1+*%
%TO.N,/LCD2_DC*%
X248915257Y-46207626D03*
%TO.P,J2,B12,GND*%
%TO.N,GND*%
X248299966Y-46728603D03*
D12*
%TO.P,J2,S1,SHIELD*%
X247255387Y-45709901D03*
X257390557Y-43066943D03*
X255017248Y-48534987D03*
X248952117Y-39995603D03*
%TD*%
D25*
%TO.P,D8,1,K*%
%TO.N,/row0*%
X110650000Y-64000000D03*
%TO.P,D8,2,A*%
%TO.N,Net-(D8-Pad2)*%
X107350000Y-64000000D03*
%TD*%
%TO.P,D20,1,K*%
%TO.N,/row5*%
X205650000Y-79000000D03*
%TO.P,D20,2,A*%
%TO.N,Net-(D20-Pad2)*%
X202350000Y-79000000D03*
%TD*%
%TO.P,D26,1,K*%
%TO.N,/row4*%
X186650000Y-96000000D03*
%TO.P,D26,2,A*%
%TO.N,Net-(D26-Pad2)*%
X183350000Y-96000000D03*
%TD*%
D27*
%TO.P,C2,1*%
%TO.N,Net-(C2-Pad1)*%
X248500000Y-85000000D03*
%TO.P,C2,2*%
%TO.N,GND*%
X248500000Y-83100000D03*
%TD*%
D26*
%TO.P,R3,2*%
%TO.N,+3.3V*%
X274500000Y-139812500D03*
%TO.P,R3,1*%
%TO.N,/ENC_SW*%
X274500000Y-137987500D03*
%TD*%
D25*
%TO.P,D4,1,K*%
%TO.N,/row3*%
X167650000Y-38000000D03*
%TO.P,D4,2,A*%
%TO.N,Net-(D4-Pad2)*%
X164350000Y-38000000D03*
%TD*%
%TO.P,D24,1,K*%
%TO.N,/row2*%
X148650000Y-96000000D03*
%TO.P,D24,2,A*%
%TO.N,Net-(D24-Pad2)*%
X145350000Y-96000000D03*
%TD*%
%TO.P,D39,1,K*%
%TO.N,Net-(D39-Pad1)*%
X266150000Y-45000000D03*
%TO.P,D39,2,A*%
%TO.N,VBUS*%
X262850000Y-45000000D03*
%TD*%
D31*
%TO.P,R5,1*%
%TO.N,/col4*%
X241000000Y-85912500D03*
%TO.P,R5,2*%
%TO.N,+3.3V*%
X241000000Y-84087500D03*
%TD*%
D25*
%TO.P,D33,1,K*%
%TO.N,/row4*%
X186650000Y-115000000D03*
%TO.P,D33,2,A*%
%TO.N,Net-(D33-Pad2)*%
X183350000Y-115000000D03*
%TD*%
D40*
%TO.N,/SCK*%
X252800000Y-92500000D03*
%TO.N,/ENC_SW*%
X253800000Y-87500000D03*
%TO.N,+3.3V*%
X253400000Y-99500000D03*
%TO.N,/ENC_B*%
X248200000Y-87900000D03*
X248318975Y-91915800D03*
%TO.N,/ENC_A*%
X249300000Y-91724500D03*
X249300000Y-88275500D03*
%TO.N,+3.3V*%
X238600000Y-136300000D03*
X255775500Y-99500000D03*
X261724500Y-97000000D03*
%TO.N,/row0*%
X243000000Y-77000000D03*
X203138485Y-135361515D03*
%TO.N,/row1*%
X242000000Y-76000000D03*
X132500000Y-100500000D03*
%TO.N,/row2*%
X242000000Y-74999503D03*
X151500000Y-62500000D03*
%TO.N,/row3*%
X242000000Y-74000000D03*
X170500000Y-62000000D03*
%TO.N,/col2*%
X239200000Y-88600000D03*
%TO.N,/col3*%
X241500000Y-89500000D03*
%TO.N,GND*%
X254000000Y-108500000D03*
X264000000Y-74000000D03*
X254500000Y-55500000D03*
%TO.N,/row4*%
X242000000Y-72774506D03*
X189500000Y-60500000D03*
%TO.N,/row5*%
X208500000Y-58000000D03*
X242000000Y-71775003D03*
%TO.N,/row6*%
X227000000Y-70500000D03*
X242000000Y-70775500D03*
%TO.N,/col4*%
X243500000Y-88500000D03*
%TO.N,/col5*%
X246000000Y-87500497D03*
%TO.N,/NRST*%
X268775500Y-88549003D03*
X253600000Y-113700000D03*
X270500000Y-90000000D03*
%TO.N,+3.3V*%
X264500000Y-58500000D03*
X264107641Y-81607642D03*
X267500000Y-79000000D03*
X262500000Y-80775500D03*
%TO.N,/SWDIO*%
X254000000Y-111000000D03*
X253500000Y-82300500D03*
%TO.N,/SWCLK*%
X254775500Y-77724500D03*
%TO.N,/SWO*%
X260000000Y-77000000D03*
%TO.N,/RCC_OSC_IN*%
X268775500Y-87549500D03*
X270000000Y-79000000D03*
%TO.N,/LCD1_RST*%
X258500000Y-84500000D03*
%TO.N,/USB_D-*%
X252500000Y-63000000D03*
X257000000Y-83500000D03*
%TO.N,/USB_D+*%
X255000000Y-82500000D03*
X250000000Y-62000000D03*
%TO.N,/LCD1_DC*%
X257500000Y-86724500D03*
%TO.N,/LCD1_CS*%
X259500000Y-86000000D03*
%TO.N,/MOSI*%
X265224500Y-89500000D03*
%TD*%
D41*
%TO.N,/row6*%
X224650000Y-45000000D02*
X226600000Y-46950000D01*
X226600000Y-46950000D02*
X226600000Y-64200000D01*
X227000000Y-64660000D02*
X227000000Y-70500000D01*
X226420000Y-64080000D02*
X227000000Y-64660000D01*
%TO.N,/col0*%
X226000000Y-31500000D02*
X219500000Y-31500000D01*
X226500000Y-38000000D02*
X228000000Y-36500000D01*
X228000000Y-33500000D02*
X226000000Y-31500000D01*
X218500000Y-32500000D02*
X218500000Y-34150000D01*
X228000000Y-36500000D02*
X228000000Y-33500000D01*
X227500000Y-44500000D02*
X226500000Y-43500000D01*
X219500000Y-31500000D02*
X218500000Y-32500000D01*
X227500000Y-63887208D02*
X227500000Y-44500000D01*
X228175000Y-64562208D02*
X227500000Y-63887208D01*
X226500000Y-43500000D02*
X226500000Y-38000000D01*
X228175000Y-65675000D02*
X228175000Y-64562208D01*
X231500000Y-69000000D02*
X228175000Y-65675000D01*
X236500000Y-69000000D02*
X231500000Y-69000000D01*
X218500000Y-34150000D02*
X215190000Y-37460000D01*
%TO.N,/col1*%
X231750000Y-81750000D02*
X227450000Y-77450000D01*
X222500000Y-49150000D02*
X215190000Y-56460000D01*
X227450000Y-77450000D02*
X227450000Y-71075305D01*
X225350000Y-44000000D02*
X223950000Y-44000000D01*
X227450000Y-71075305D02*
X227725000Y-70800305D01*
X227725000Y-70800305D02*
X227725000Y-64748604D01*
X223950000Y-44000000D02*
X222500000Y-45450000D01*
X227725000Y-64748604D02*
X227050000Y-64073604D01*
X222500000Y-45450000D02*
X222500000Y-49150000D01*
X227050000Y-64073604D02*
X227050000Y-45700000D01*
X227050000Y-45700000D02*
X225350000Y-44000000D01*
%TO.N,+3.3V*%
X250100000Y-99500000D02*
X246800000Y-99500000D01*
X246800000Y-99500000D02*
X238700000Y-107600000D01*
X238700000Y-107600000D02*
X238700000Y-116777500D01*
X238700000Y-116777500D02*
X245880000Y-123957500D01*
%TO.N,/SCK*%
X252800000Y-92500000D02*
X251325000Y-92500000D01*
%TO.N,GND*%
X261120000Y-123957500D02*
X253662500Y-116500000D01*
X253662500Y-116500000D02*
X248900000Y-116500000D01*
%TO.N,/ENC_SW*%
X253800000Y-87500000D02*
X251325000Y-87500000D01*
%TO.N,/row0*%
X210590654Y-142813684D02*
X203138485Y-135361515D01*
%TO.N,+3.3V*%
X250100000Y-99500000D02*
X253400000Y-99500000D01*
X250000000Y-99400000D02*
X250100000Y-99500000D01*
X250100000Y-96100000D02*
X249500000Y-96700000D01*
X249500000Y-96700000D02*
X249500000Y-98900000D01*
X251000000Y-96100000D02*
X250100000Y-96100000D01*
X249500000Y-98900000D02*
X250000000Y-99400000D01*
%TO.N,/ENC_B*%
X251325000Y-88000000D02*
X250050000Y-88000000D01*
X250050000Y-88000000D02*
X249550000Y-87500000D01*
X249550000Y-87500000D02*
X248600000Y-87500000D01*
X248600000Y-87500000D02*
X248200000Y-87900000D01*
X245100000Y-92500000D02*
X247734775Y-92500000D01*
X247734775Y-92500000D02*
X248318975Y-91915800D01*
%TO.N,/ENC_A*%
X249300000Y-91724500D02*
X249300000Y-93000000D01*
X249300000Y-93000000D02*
X248700000Y-93600000D01*
X237400000Y-132300000D02*
X240150000Y-132300000D01*
X248700000Y-93600000D02*
X245100000Y-93600000D01*
X245100000Y-93600000D02*
X231900000Y-106800000D01*
X231900000Y-106800000D02*
X231900000Y-126800000D01*
X231900000Y-126800000D02*
X237400000Y-132300000D01*
X249300000Y-88275500D02*
X249524500Y-88500000D01*
X249524500Y-88500000D02*
X251325000Y-88500000D01*
%TO.N,/ENC_B*%
X231100000Y-106500000D02*
X245100000Y-92500000D01*
X231100000Y-120400000D02*
X231100000Y-106500000D01*
X240187500Y-145100000D02*
X231100000Y-136012500D01*
X231100000Y-136012500D02*
X231100000Y-120400000D01*
%TO.N,+3.3V*%
X262450000Y-133600000D02*
X255522500Y-133600000D01*
X255522500Y-133600000D02*
X245880000Y-123957500D01*
X264312500Y-140000000D02*
X265800000Y-138512500D01*
X265800000Y-138512500D02*
X265800000Y-134200000D01*
X265800000Y-134200000D02*
X265200000Y-133600000D01*
X265200000Y-133600000D02*
X262450000Y-133600000D01*
X262450000Y-133600000D02*
X262450000Y-135100000D01*
%TO.N,GND*%
X262450000Y-137500000D02*
X264350000Y-135600000D01*
X264350000Y-135600000D02*
X264350000Y-135100000D01*
X259675000Y-137475000D02*
X262425000Y-137475000D01*
X262425000Y-137475000D02*
X262450000Y-137500000D01*
%TO.N,/ENC_SW*%
X264350000Y-137500000D02*
X264350000Y-138137500D01*
X264350000Y-138137500D02*
X262487500Y-140000000D01*
X259675000Y-142475000D02*
X262150000Y-140000000D01*
X262150000Y-140000000D02*
X262487500Y-140000000D01*
%TO.N,+3.3V*%
X240187500Y-137487500D02*
X239787500Y-137487500D01*
X239787500Y-137487500D02*
X238600000Y-136300000D01*
%TO.N,Net-(R13-Pad2)*%
X242012500Y-142487500D02*
X242012500Y-145100000D01*
%TO.N,Net-(R11-Pad2)*%
X242012500Y-134900000D02*
X242012500Y-137487500D01*
%TO.N,/ENC_A*%
X240150000Y-132300000D02*
X240150000Y-134862500D01*
%TO.N,GND*%
X242050000Y-132300000D02*
X243400000Y-132300000D01*
X243400000Y-132300000D02*
X247575000Y-136475000D01*
X247575000Y-136475000D02*
X247575000Y-139975000D01*
X245175000Y-139975000D02*
X247575000Y-139975000D01*
X247575000Y-139975000D02*
X257175000Y-139975000D01*
X242050000Y-147700000D02*
X243400000Y-147700000D01*
X243400000Y-147700000D02*
X247575000Y-143525000D01*
X247575000Y-143525000D02*
X247575000Y-139975000D01*
%TO.N,/ENC_B*%
X240150000Y-147700000D02*
X240150000Y-145137500D01*
%TO.N,/col3*%
X241500000Y-89500000D02*
X241500000Y-89412500D01*
X241500000Y-89412500D02*
X236587500Y-84500000D01*
%TO.N,/col2*%
X239236396Y-88600000D02*
X241136396Y-90500000D01*
X241136396Y-90500000D02*
X251325000Y-90500000D01*
X239200000Y-88600000D02*
X238600000Y-88000000D01*
X239200000Y-88600000D02*
X239236396Y-88600000D01*
X232000000Y-88000000D02*
X232000000Y-83000000D01*
X238600000Y-88000000D02*
X232000000Y-88000000D01*
X233000000Y-82000000D02*
X236587500Y-82000000D01*
X232000000Y-83000000D02*
X233000000Y-82000000D01*
%TO.N,/NRST*%
X253600000Y-113700000D02*
X253710000Y-113810000D01*
X253710000Y-113810000D02*
X262625000Y-113810000D01*
%TO.N,+3.3V*%
X272123500Y-82148501D02*
X272123500Y-82376500D01*
X272123500Y-82376500D02*
X270500000Y-84000000D01*
%TO.N,GND*%
X246083089Y-52495589D02*
X246083089Y-48776702D01*
X257394761Y-53412500D02*
X253317248Y-49334987D01*
X264950000Y-97000000D02*
X265500000Y-97000000D01*
X265500000Y-97000000D02*
X269000000Y-93500000D01*
X269000000Y-93500000D02*
X269000000Y-91950000D01*
X256500000Y-98050000D02*
X263900000Y-98050000D01*
X263900000Y-98050000D02*
X264950000Y-97000000D01*
%TO.N,+3.3V*%
X259925500Y-103650000D02*
X255775500Y-99500000D01*
X262625000Y-103650000D02*
X259925500Y-103650000D01*
X252425000Y-94675000D02*
X252050000Y-95050000D01*
X252050000Y-95050000D02*
X251000000Y-96100000D01*
X263050000Y-97000000D02*
X261724500Y-97000000D01*
X263050000Y-97000000D02*
X264000000Y-96050000D01*
X264000000Y-96050000D02*
X264000000Y-94675000D01*
%TO.N,GND*%
X264950000Y-97000000D02*
X264500000Y-96550000D01*
X264500000Y-96550000D02*
X264500000Y-95500000D01*
D42*
%TO.N,/USB_D-*%
X252238383Y-62738383D02*
X252238383Y-59238383D01*
X252500000Y-63000000D02*
X252238383Y-62738383D01*
X252238383Y-59238383D02*
X251149999Y-58149999D01*
X251149999Y-58149999D02*
X251149999Y-56611250D01*
D41*
%TO.N,/row0*%
X113500000Y-118000000D02*
X113500000Y-118150000D01*
X255500000Y-80190685D02*
X255500000Y-79325000D01*
X249309315Y-77000000D02*
X252759315Y-80450000D01*
X191776970Y-124000000D02*
X203138485Y-135361515D01*
X118500000Y-118000000D02*
X124500000Y-124000000D01*
X124500000Y-124000000D02*
X191776970Y-124000000D01*
X113500000Y-64000000D02*
X113500000Y-83000000D01*
X110650000Y-83000000D02*
X113500000Y-83000000D01*
X255240685Y-80450000D02*
X255500000Y-80190685D01*
X113500000Y-102000000D02*
X113500000Y-118000000D01*
X252759315Y-80450000D02*
X255240685Y-80450000D01*
X110650000Y-45000000D02*
X111000000Y-45000000D01*
X113500000Y-118150000D02*
X110650000Y-121000000D01*
X243000000Y-77000000D02*
X249309315Y-77000000D01*
X113500000Y-118000000D02*
X118500000Y-118000000D01*
X110650000Y-102000000D02*
X113500000Y-102000000D01*
X113500000Y-83000000D02*
X113500000Y-102000000D01*
X110650000Y-64000000D02*
X113500000Y-64000000D01*
X113500000Y-47500000D02*
X113500000Y-64000000D01*
X111000000Y-45000000D02*
X113500000Y-47500000D01*
%TO.N,/row1*%
X211658116Y-142572998D02*
X211658116Y-145658116D01*
X129650000Y-78850000D02*
X132500000Y-78850000D01*
X256000000Y-76863604D02*
X256000000Y-79325000D01*
X132500000Y-114000000D02*
X141500000Y-123000000D01*
X141500000Y-123000000D02*
X192085118Y-123000000D01*
X129650000Y-97850000D02*
X132500000Y-97850000D01*
X222248710Y-156248710D02*
X224025688Y-156248710D01*
X130000000Y-40850000D02*
X132500000Y-43350000D01*
X192085118Y-123000000D02*
X211658116Y-142572998D01*
X132500000Y-114000000D02*
X129650000Y-116850000D01*
X242000000Y-76000000D02*
X255136396Y-76000000D01*
X132500000Y-97850000D02*
X132500000Y-100500000D01*
X132500000Y-43350000D02*
X132500000Y-59850000D01*
X132500000Y-59850000D02*
X132500000Y-78850000D01*
X255136396Y-76000000D02*
X256000000Y-76863604D01*
X211658116Y-145658116D02*
X222248710Y-156248710D01*
X129650000Y-59850000D02*
X132500000Y-59850000D01*
X132500000Y-100500000D02*
X132500000Y-114000000D01*
X132500000Y-78850000D02*
X132500000Y-97850000D01*
%TO.N,/row2*%
X232500000Y-158000000D02*
X232500000Y-164723021D01*
X151500000Y-112000000D02*
X148650000Y-114850000D01*
X151500000Y-95850000D02*
X151500000Y-112000000D01*
X151500000Y-76850000D02*
X151500000Y-95850000D01*
X151500000Y-112000000D02*
X162050000Y-122550000D01*
X235965379Y-154534621D02*
X232500000Y-158000000D01*
X151500000Y-41350000D02*
X151500000Y-57850000D01*
X232500000Y-164723021D02*
X237460717Y-169683738D01*
X211050000Y-122550000D02*
X235965379Y-147465379D01*
X148650000Y-95850000D02*
X151500000Y-95850000D01*
X254772295Y-74999503D02*
X256500000Y-76727208D01*
X235965379Y-147465379D02*
X235965379Y-154534621D01*
X256500000Y-76727208D02*
X256500000Y-79325000D01*
X148650000Y-76850000D02*
X151500000Y-76850000D01*
X148650000Y-57850000D02*
X151500000Y-57850000D01*
X151500000Y-57850000D02*
X151500000Y-62500000D01*
X149000000Y-38850000D02*
X151500000Y-41350000D01*
X151500000Y-62500000D02*
X151500000Y-76850000D01*
X162050000Y-122550000D02*
X211050000Y-122550000D01*
X242000000Y-74999503D02*
X254772295Y-74999503D01*
%TO.N,Net-(D4-Pad2)*%
X164500000Y-27555000D02*
X164500000Y-37445000D01*
%TO.N,/row3*%
X170500000Y-75850000D02*
X170500000Y-94850000D01*
X167650000Y-56850000D02*
X170500000Y-56850000D01*
X167650000Y-94850000D02*
X170500000Y-94850000D01*
X170500000Y-56850000D02*
X170500000Y-75850000D01*
X170500000Y-111000000D02*
X167650000Y-113850000D01*
X242000000Y-74000000D02*
X254500000Y-74000000D01*
X257000000Y-76500000D02*
X257000000Y-79325000D01*
X168000000Y-37850000D02*
X170500000Y-40350000D01*
X170500000Y-94850000D02*
X170500000Y-111000000D01*
X167650000Y-75850000D02*
X170500000Y-75850000D01*
X254500000Y-74000000D02*
X257000000Y-76500000D01*
X170500000Y-40350000D02*
X170500000Y-56850000D01*
%TO.N,Net-(D5-Pad2)*%
X183500000Y-29055000D02*
X183500000Y-38945000D01*
%TO.N,Net-(D6-Pad2)*%
X202500000Y-31055000D02*
X202500000Y-40945000D01*
%TO.N,Net-(D7-Pad2)*%
X221500000Y-35055000D02*
X221500000Y-44945000D01*
%TO.N,Net-(D8-Pad2)*%
X107540000Y-53920000D02*
X107540000Y-63810000D01*
%TO.N,Net-(D9-Pad2)*%
X126500000Y-50055000D02*
X126500000Y-59945000D01*
%TO.N,Net-(D10-Pad2)*%
X145500000Y-48055000D02*
X145500000Y-57945000D01*
%TO.N,Net-(D11-Pad2)*%
X164500000Y-46555000D02*
X164500000Y-56445000D01*
%TO.N,Net-(D12-Pad2)*%
X183500000Y-48055000D02*
X183500000Y-57945000D01*
%TO.N,Net-(D13-Pad2)*%
X202500000Y-50055000D02*
X202500000Y-59945000D01*
%TO.N,Net-(D14-Pad2)*%
X221500000Y-54055000D02*
X221500000Y-63945000D01*
%TO.N,Net-(D15-Pad2)*%
X107540000Y-72920000D02*
X107540000Y-82810000D01*
%TO.N,Net-(D16-Pad2)*%
X126500000Y-69055000D02*
X126500000Y-78945000D01*
%TO.N,/col0*%
X236587500Y-77000000D02*
X236587500Y-69087500D01*
X259000000Y-75863604D02*
X252136396Y-69000000D01*
X259000000Y-79325000D02*
X259000000Y-75863604D01*
X236587500Y-69087500D02*
X236500000Y-69000000D01*
X252136396Y-69000000D02*
X236500000Y-69000000D01*
%TO.N,/col1*%
X234000000Y-91000000D02*
X231500000Y-88500000D01*
X231500000Y-88500000D02*
X231500000Y-82000000D01*
X236587500Y-79500000D02*
X234000000Y-79500000D01*
X234000000Y-79500000D02*
X231750000Y-81750000D01*
X251325000Y-91000000D02*
X234000000Y-91000000D01*
X231500000Y-82000000D02*
X231750000Y-81750000D01*
%TO.N,/col3*%
X242000000Y-90000000D02*
X251325000Y-90000000D01*
X241500000Y-89500000D02*
X242000000Y-90000000D01*
%TO.N,GND*%
X246500000Y-81450000D02*
X248950000Y-81450000D01*
X264500000Y-85500000D02*
X264500000Y-92000000D01*
X254730000Y-97720000D02*
X255450000Y-97000000D01*
X264500000Y-84000000D02*
X264500000Y-85500000D01*
X257500000Y-55550000D02*
X254550000Y-55550000D01*
X248500000Y-81450000D02*
X248500000Y-83100000D01*
X267000000Y-75550000D02*
X272000000Y-75550000D01*
X264500000Y-80190685D02*
X264500000Y-79325000D01*
X273050000Y-76600000D02*
X273050000Y-79321999D01*
X240500000Y-108500000D02*
X247000000Y-108500000D01*
X254730000Y-108730000D02*
X254730000Y-98770000D01*
X267550000Y-90500000D02*
X266675000Y-90500000D01*
X255450000Y-97000000D02*
X256500000Y-98050000D01*
X249100000Y-81500000D02*
X263190685Y-81500000D01*
X268050000Y-85500000D02*
X269000000Y-84550000D01*
X257175000Y-139975000D02*
X259675000Y-137475000D01*
X262000000Y-78459315D02*
X262259315Y-78200000D01*
X264500000Y-95540685D02*
X264500000Y-92000000D01*
X249100000Y-81500000D02*
X251325000Y-81500000D01*
X262259315Y-78200000D02*
X263800000Y-78200000D01*
X242225000Y-139975000D02*
X245175000Y-139975000D01*
X263190685Y-81500000D02*
X264500000Y-80190685D01*
X263800000Y-77300000D02*
X263800000Y-78200000D01*
X272000000Y-75550000D02*
X273050000Y-76600000D01*
X251000000Y-98000000D02*
X251770000Y-98770000D01*
X248900000Y-116500000D02*
X248900000Y-110400000D01*
X257500000Y-53412500D02*
X257500000Y-55550000D01*
X266675000Y-85500000D02*
X268050000Y-85500000D01*
X262000000Y-79325000D02*
X262000000Y-78459315D01*
X254550000Y-55550000D02*
X254500000Y-55500000D01*
X262625000Y-108730000D02*
X254730000Y-108730000D01*
X265550000Y-75550000D02*
X263800000Y-77300000D01*
X264500000Y-78459315D02*
X264500000Y-79325000D01*
X248900000Y-110400000D02*
X247000000Y-108500000D01*
X251770000Y-98770000D02*
X254730000Y-98770000D01*
X263800000Y-78200000D02*
X264240685Y-78200000D01*
X266675000Y-85500000D02*
X264500000Y-85500000D01*
X264500000Y-92000000D02*
X264500000Y-94675000D01*
X273050000Y-79321999D02*
X272123500Y-80248499D01*
X269000000Y-91950000D02*
X267550000Y-90500000D01*
X254230000Y-108730000D02*
X254000000Y-108500000D01*
X264000000Y-74000000D02*
X265550000Y-75550000D01*
X263190685Y-81500000D02*
X263190685Y-82690685D01*
X263190685Y-82690685D02*
X264500000Y-84000000D01*
X254730000Y-108730000D02*
X254230000Y-108730000D01*
X264240685Y-78200000D02*
X264500000Y-78459315D01*
X265550000Y-75550000D02*
X267000000Y-75550000D01*
X254730000Y-98770000D02*
X254730000Y-97720000D01*
%TO.N,/row4*%
X189500000Y-41350000D02*
X189500000Y-57850000D01*
X189500000Y-76850000D02*
X189500000Y-95850000D01*
X242000497Y-72775003D02*
X253911399Y-72775003D01*
X189500000Y-112000000D02*
X186650000Y-114850000D01*
X187000000Y-38850000D02*
X189500000Y-41350000D01*
X253911399Y-72775003D02*
X257500000Y-76363604D01*
X242000000Y-72774506D02*
X242000497Y-72775003D01*
X186650000Y-57850000D02*
X189500000Y-57850000D01*
X186650000Y-95850000D02*
X189500000Y-95850000D01*
X189500000Y-57850000D02*
X189500000Y-60500000D01*
X257500000Y-76363604D02*
X257500000Y-79325000D01*
X189500000Y-95850000D02*
X189500000Y-112000000D01*
X189500000Y-60500000D02*
X189500000Y-76850000D01*
X186650000Y-76850000D02*
X189500000Y-76850000D01*
%TO.N,/row5*%
X242000000Y-71775003D02*
X242000497Y-71775500D01*
X208500000Y-97850000D02*
X208500000Y-114000000D01*
X253548292Y-71775500D02*
X258000000Y-76227208D01*
X205650000Y-97850000D02*
X208500000Y-97850000D01*
X208500000Y-59850000D02*
X208500000Y-78850000D01*
X205650000Y-59850000D02*
X208500000Y-59850000D01*
X205650000Y-78850000D02*
X208500000Y-78850000D01*
X258000000Y-76227208D02*
X258000000Y-79325000D01*
X208500000Y-114000000D02*
X205650000Y-116850000D01*
X206000000Y-40850000D02*
X208500000Y-43350000D01*
X242000497Y-71775500D02*
X253548292Y-71775500D01*
X208500000Y-43350000D02*
X208500000Y-59850000D01*
X208500000Y-78850000D02*
X208500000Y-97850000D01*
%TO.N,/row6*%
X224650000Y-121000000D02*
X224650000Y-118850000D01*
X226340000Y-83000000D02*
X226420000Y-83080000D01*
X253275500Y-70775500D02*
X258500000Y-76000000D01*
X227000000Y-83660000D02*
X227000000Y-99650000D01*
X258500000Y-76000000D02*
X258500000Y-79325000D01*
X227000000Y-82500000D02*
X226420000Y-83080000D01*
X224650000Y-83000000D02*
X226340000Y-83000000D01*
X224650000Y-64000000D02*
X226340000Y-64000000D01*
X227000000Y-99650000D02*
X226575000Y-100075000D01*
X242000000Y-70775500D02*
X253275500Y-70775500D01*
X226575000Y-100075000D02*
X224650000Y-102000000D01*
X228000000Y-101500000D02*
X226575000Y-100075000D01*
X227000000Y-70500000D02*
X227000000Y-82500000D01*
X224650000Y-118850000D02*
X228000000Y-115500000D01*
X228000000Y-115500000D02*
X228000000Y-101500000D01*
X226420000Y-83080000D02*
X227000000Y-83660000D01*
X226340000Y-64000000D02*
X226420000Y-64080000D01*
%TO.N,Net-(D17-Pad2)*%
X145500000Y-67055000D02*
X145500000Y-76945000D01*
%TO.N,Net-(D18-Pad2)*%
X164500000Y-65555000D02*
X164500000Y-75445000D01*
%TO.N,Net-(D19-Pad2)*%
X183500000Y-67055000D02*
X183500000Y-76945000D01*
%TO.N,Net-(D20-Pad2)*%
X202500000Y-69055000D02*
X202500000Y-78945000D01*
%TO.N,Net-(D21-Pad2)*%
X221500000Y-73055000D02*
X221500000Y-82945000D01*
%TO.N,Net-(D22-Pad2)*%
X107500000Y-92110000D02*
X107500000Y-102000000D01*
%TO.N,Net-(D23-Pad2)*%
X126460000Y-88245000D02*
X126460000Y-98135000D01*
%TO.N,Net-(D24-Pad2)*%
X145460000Y-86245000D02*
X145460000Y-96135000D01*
%TO.N,Net-(D25-Pad2)*%
X164460000Y-84745000D02*
X164460000Y-94635000D01*
%TO.N,Net-(D26-Pad2)*%
X183460000Y-86245000D02*
X183460000Y-96135000D01*
%TO.N,Net-(D27-Pad2)*%
X202460000Y-88245000D02*
X202460000Y-98135000D01*
%TO.N,Net-(D28-Pad2)*%
X221460000Y-92245000D02*
X221460000Y-102135000D01*
%TO.N,Net-(D29-Pad2)*%
X107540000Y-110920000D02*
X107540000Y-120810000D01*
%TO.N,Net-(D30-Pad2)*%
X126500000Y-107055000D02*
X126500000Y-116945000D01*
%TO.N,Net-(D31-Pad2)*%
X145500000Y-105055000D02*
X145500000Y-114945000D01*
%TO.N,Net-(D32-Pad2)*%
X164500000Y-103555000D02*
X164500000Y-113445000D01*
%TO.N,Net-(D33-Pad2)*%
X183500000Y-105055000D02*
X183500000Y-114945000D01*
%TO.N,Net-(C1-Pad1)*%
X253500000Y-94675000D02*
X253500000Y-96950000D01*
%TO.N,Net-(D35-Pad2)*%
X221540000Y-110920000D02*
X221540000Y-120810000D01*
%TO.N,Net-(D36-Pad2)*%
X212924106Y-145147136D02*
X217352864Y-145147136D01*
X217352864Y-145147136D02*
X220000000Y-142500000D01*
X220000000Y-142500000D02*
X220000000Y-138211060D01*
%TO.N,Net-(D37-Pad2)*%
X233353911Y-155146089D02*
X233353911Y-151564971D01*
X226359140Y-158582162D02*
X229917838Y-158582162D01*
X229917838Y-158582162D02*
X233353911Y-155146089D01*
%TO.N,Net-(D38-Pad2)*%
X242967873Y-172017190D02*
X246788940Y-168196123D01*
X239794169Y-172017190D02*
X242967873Y-172017190D01*
X246788940Y-168196123D02*
X246788940Y-165000000D01*
%TO.N,/col4*%
X246025305Y-88500000D02*
X247025305Y-89500000D01*
X241000000Y-86000000D02*
X243500000Y-88500000D01*
X247025305Y-89500000D02*
X251325000Y-89500000D01*
X243500000Y-88500000D02*
X246025305Y-88500000D01*
%TO.N,/col5*%
X246300305Y-87775000D02*
X246274503Y-87775000D01*
X251325000Y-89000000D02*
X247525305Y-89000000D01*
X247525305Y-89000000D02*
X246300305Y-87775000D01*
X243500000Y-85825000D02*
X244324503Y-85825000D01*
X246274503Y-87775000D02*
X246000000Y-87500497D01*
X244324503Y-85825000D02*
X246000000Y-87500497D01*
%TO.N,/NRST*%
X271000000Y-105435000D02*
X262625000Y-113810000D01*
X268540685Y-88500000D02*
X269000000Y-88500000D01*
X267540685Y-87500000D02*
X268540685Y-88500000D01*
X268824503Y-88500000D02*
X268775500Y-88549003D01*
X271500000Y-89000000D02*
X270500000Y-90000000D01*
X271500000Y-88412500D02*
X271500000Y-89000000D01*
X271000000Y-90500000D02*
X271000000Y-105435000D01*
X269000000Y-88500000D02*
X268824503Y-88500000D01*
X266675000Y-87500000D02*
X267540685Y-87500000D01*
X240500000Y-113000000D02*
X247000000Y-113000000D01*
X270500000Y-90000000D02*
X271000000Y-90500000D01*
X247000000Y-113000000D02*
X247000000Y-116500000D01*
%TO.N,Net-(C3-Pad1)*%
X261325000Y-58500000D02*
X262000000Y-59175000D01*
X257500000Y-57450000D02*
X258550000Y-58500000D01*
X258550000Y-58500000D02*
X261325000Y-58500000D01*
%TO.N,Net-(C2-Pad1)*%
X249550000Y-83950000D02*
X249550000Y-82450000D01*
X248500000Y-85000000D02*
X249550000Y-83950000D01*
X249550000Y-82450000D02*
X250000000Y-82000000D01*
X250000000Y-82000000D02*
X251325000Y-82000000D01*
%TO.N,+3.3V*%
X268950000Y-90000000D02*
X266675000Y-90000000D01*
X270500000Y-96000000D02*
X270500000Y-91550000D01*
X267000000Y-77450000D02*
X267000000Y-78500000D01*
X253000000Y-94675000D02*
X252425000Y-94675000D01*
X241000000Y-84087500D02*
X243412500Y-84087500D01*
X250500000Y-55923100D02*
X250923100Y-55500000D01*
X250500000Y-56611250D02*
X250500000Y-55923100D01*
X265809315Y-90000000D02*
X265500000Y-90309315D01*
X267000000Y-78500000D02*
X267500000Y-79000000D01*
X270000000Y-83500000D02*
X270500000Y-84000000D01*
X255500000Y-59000000D02*
X259500000Y-59000000D01*
X269623500Y-82148501D02*
X269623500Y-83376500D01*
X238412500Y-82000000D02*
X238412500Y-84500000D01*
X240200000Y-139987500D02*
X240200000Y-142475000D01*
X262987500Y-60012500D02*
X264500000Y-58500000D01*
X238462500Y-79550000D02*
X248500000Y-79550000D01*
X265500000Y-91000000D02*
X266000000Y-91500000D01*
X238412500Y-79500000D02*
X238412500Y-77000000D01*
X240587500Y-84500000D02*
X241000000Y-84087500D01*
X262850000Y-103650000D02*
X270500000Y-96000000D01*
X269623500Y-83376500D02*
X269500000Y-83500000D01*
X264107641Y-81607642D02*
X264107641Y-81798326D01*
X270000000Y-86000000D02*
X266675000Y-86000000D01*
X271500000Y-86500000D02*
X270500000Y-85500000D01*
X250923100Y-55500000D02*
X252000000Y-55500000D01*
X251325000Y-81000000D02*
X262275500Y-81000000D01*
X266675000Y-91000000D02*
X265500000Y-91000000D01*
X269500000Y-83500000D02*
X270000000Y-83500000D01*
X252000000Y-55500000D02*
X255500000Y-59000000D01*
X265809315Y-83500000D02*
X266675000Y-83500000D01*
X240187500Y-137487500D02*
X240187500Y-139975000D01*
X262275500Y-81000000D02*
X262500000Y-80775500D01*
X259500000Y-59000000D02*
X260512500Y-60012500D01*
X269500000Y-86950000D02*
X269500000Y-89550000D01*
X266675000Y-90000000D02*
X265809315Y-90000000D01*
X264107641Y-81798326D02*
X265809315Y-83500000D01*
X265500000Y-90309315D02*
X265500000Y-91000000D01*
X270500000Y-85500000D02*
X270000000Y-86000000D01*
X270500000Y-84000000D02*
X270500000Y-85500000D01*
X266675000Y-83500000D02*
X269500000Y-83500000D01*
X272000000Y-77450000D02*
X267000000Y-77450000D01*
X269000000Y-86450000D02*
X269500000Y-86950000D01*
X270500000Y-91550000D02*
X269000000Y-90050000D01*
X251325000Y-81000000D02*
X249950000Y-81000000D01*
X269500000Y-89550000D02*
X269000000Y-90050000D01*
X267000000Y-77450000D02*
X266050000Y-77450000D01*
X260512500Y-60012500D02*
X262987500Y-60012500D01*
X238412500Y-82000000D02*
X238412500Y-79500000D01*
X266050000Y-77450000D02*
X265000000Y-78500000D01*
X249950000Y-81000000D02*
X248500000Y-79550000D01*
X238412500Y-84500000D02*
X240587500Y-84500000D01*
X264107641Y-81607642D02*
X265000000Y-80715283D01*
X265000000Y-80715283D02*
X265000000Y-79325000D01*
%TO.N,VBUS*%
X274500000Y-48000000D02*
X272136396Y-48000000D01*
X272136396Y-48000000D02*
X268636396Y-44500000D01*
X277500000Y-108000000D02*
X277500000Y-51000000D01*
X260500000Y-44000000D02*
X260500000Y-45000000D01*
X263660000Y-123957500D02*
X263660000Y-121840000D01*
X263660000Y-121840000D02*
X277500000Y-108000000D01*
X268636396Y-44500000D02*
X268000000Y-44500000D01*
X260500000Y-45000000D02*
X262850000Y-45000000D01*
X277500000Y-51000000D02*
X274500000Y-48000000D01*
X267000000Y-43500000D02*
X261000000Y-43500000D01*
X268000000Y-44500000D02*
X267000000Y-43500000D01*
X261000000Y-43500000D02*
X260500000Y-44000000D01*
%TO.N,/SWDIO*%
X253300500Y-82500000D02*
X253500000Y-82300500D01*
X251325000Y-82500000D02*
X253300500Y-82500000D01*
X254000000Y-111000000D02*
X254270000Y-111270000D01*
X254270000Y-111270000D02*
X262625000Y-111270000D01*
%TO.N,/SWCLK*%
X254775500Y-77724500D02*
X253275500Y-77724500D01*
X253000000Y-78000000D02*
X253000000Y-79325000D01*
X253275500Y-77724500D02*
X253000000Y-78000000D01*
%TO.N,/SWO*%
X259500000Y-79325000D02*
X259500000Y-77500000D01*
X259500000Y-77500000D02*
X260000000Y-77000000D01*
%TO.N,Net-(R11-Pad2)*%
X245175000Y-137475000D02*
X242137500Y-137475000D01*
%TO.N,Net-(R13-Pad2)*%
X242137500Y-142475000D02*
X245175000Y-142475000D01*
%TO.N,/RCC_OSC_IN*%
X267800000Y-86788173D02*
X267800000Y-86759315D01*
X268775500Y-87549500D02*
X268561327Y-87549500D01*
X267540685Y-86500000D02*
X266675000Y-86500000D01*
X269623500Y-80248499D02*
X269623500Y-79376500D01*
X268561327Y-87549500D02*
X267800000Y-86788173D01*
X267800000Y-86759315D02*
X267540685Y-86500000D01*
X269623500Y-79376500D02*
X270000000Y-79000000D01*
%TO.N,/LCD1_RST*%
X251325000Y-84000000D02*
X252190685Y-84000000D01*
X252690685Y-84500000D02*
X258500000Y-84500000D01*
X252190685Y-84000000D02*
X252690685Y-84500000D01*
D42*
%TO.N,/USB_D-*%
X257000000Y-83500000D02*
X251325000Y-83500000D01*
%TO.N,/USB_D+*%
X254500000Y-83000000D02*
X255000000Y-82500000D01*
X251325000Y-83000000D02*
X254500000Y-83000000D01*
X250000000Y-62000000D02*
X249850001Y-61850001D01*
X249850001Y-61850001D02*
X249850001Y-56611250D01*
D41*
%TO.N,/LCD1_DC*%
X251325000Y-86500000D02*
X257275500Y-86500000D01*
X257275500Y-86500000D02*
X257500000Y-86724500D01*
%TO.N,/LCD1_CS*%
X251325000Y-86000000D02*
X259500000Y-86000000D01*
%TO.N,/MOSI*%
X265224500Y-89500000D02*
X266675000Y-89500000D01*
%TO.N,Net-(D1-Pad2)*%
X107540000Y-34920000D02*
X107540000Y-44810000D01*
%TO.N,Net-(D2-Pad2)*%
X126500000Y-31055000D02*
X126500000Y-40945000D01*
X126540000Y-40810000D02*
X126540000Y-30920000D01*
%TO.N,Net-(D3-Pad2)*%
X145500000Y-29055000D02*
X145500000Y-38945000D01*
%TO.N,Net-(D39-Pad1)*%
X272250000Y-58000000D02*
X269759727Y-58000000D01*
X268500000Y-45000000D02*
X272000000Y-48500000D01*
X274363604Y-48500000D02*
X277000000Y-51136396D01*
X266759727Y-61000000D02*
X262000000Y-61000000D01*
X272000000Y-48500000D02*
X274363604Y-48500000D01*
X266150000Y-45000000D02*
X268500000Y-45000000D01*
X277000000Y-51136396D02*
X277000000Y-53250000D01*
X277000000Y-53250000D02*
X272250000Y-58000000D01*
X269759727Y-58000000D02*
X266759727Y-61000000D01*
%TD*%
%TA.AperFunction,Conductor*%
%TO.N,GND*%
G36*
X232903921Y-30480629D02*
G01*
X233006249Y-30503399D01*
X233021918Y-30507970D01*
X257374776Y-39363554D01*
X259582314Y-40166295D01*
X259600037Y-40174340D01*
X259709252Y-40234498D01*
X259739967Y-40258248D01*
X259818873Y-40341617D01*
X259840901Y-40373595D01*
X259890675Y-40477034D01*
X259901919Y-40514200D01*
X259917833Y-40627882D01*
X259917227Y-40666702D01*
X259896090Y-40789592D01*
X259891320Y-40808451D01*
X259285955Y-42604819D01*
X256728279Y-50194500D01*
X256138996Y-51943146D01*
X256132640Y-51958556D01*
X256085435Y-52054450D01*
X256066931Y-52082096D01*
X256001849Y-52155967D01*
X255976754Y-52177807D01*
X255894608Y-52232069D01*
X255864675Y-52246579D01*
X255771184Y-52277454D01*
X255738496Y-52283624D01*
X255707990Y-52285278D01*
X255640189Y-52288954D01*
X255607024Y-52286354D01*
X255502509Y-52264009D01*
X255486474Y-52259453D01*
X244775815Y-48434218D01*
X247903856Y-48434218D01*
X247922815Y-48511696D01*
X247969980Y-48576022D01*
X247980586Y-48582458D01*
X247980587Y-48582459D01*
X247991932Y-48589343D01*
X248020957Y-48606956D01*
X248026775Y-48609074D01*
X248026778Y-48609075D01*
X248092482Y-48632989D01*
X248339979Y-48723070D01*
X248387095Y-48730322D01*
X248396081Y-48731705D01*
X248442279Y-48748520D01*
X248490804Y-48777966D01*
X248496622Y-48780084D01*
X248496625Y-48780085D01*
X248607556Y-48820460D01*
X248809826Y-48894080D01*
X248815939Y-48895021D01*
X248815951Y-48895024D01*
X248865927Y-48902716D01*
X248912125Y-48919530D01*
X248960650Y-48948976D01*
X248966468Y-48951094D01*
X248966471Y-48951095D01*
X249101797Y-49000349D01*
X249279672Y-49065090D01*
X249285785Y-49066031D01*
X249285797Y-49066034D01*
X249335773Y-49073726D01*
X249381971Y-49090540D01*
X249430496Y-49119986D01*
X249436314Y-49122104D01*
X249436317Y-49122105D01*
X249496713Y-49144087D01*
X249749518Y-49236100D01*
X249796634Y-49243352D01*
X249805620Y-49244735D01*
X249851818Y-49261550D01*
X249900343Y-49290996D01*
X249906161Y-49293114D01*
X249906164Y-49293115D01*
X250000228Y-49327351D01*
X250219365Y-49407110D01*
X250225478Y-49408051D01*
X250225490Y-49408054D01*
X250275466Y-49415746D01*
X250321664Y-49432560D01*
X250370189Y-49462006D01*
X250376007Y-49464124D01*
X250376010Y-49464125D01*
X250439115Y-49487093D01*
X250689211Y-49578120D01*
X250695324Y-49579061D01*
X250695336Y-49579064D01*
X250745312Y-49586756D01*
X250791510Y-49603570D01*
X250840035Y-49633016D01*
X250845853Y-49635134D01*
X250845856Y-49635135D01*
X250981182Y-49684389D01*
X251159057Y-49749130D01*
X251206173Y-49756382D01*
X251215159Y-49757765D01*
X251261357Y-49774580D01*
X251309882Y-49804026D01*
X251315700Y-49806144D01*
X251315703Y-49806145D01*
X251417454Y-49843179D01*
X251628904Y-49920140D01*
X251635017Y-49921081D01*
X251635029Y-49921084D01*
X251685005Y-49928776D01*
X251731203Y-49945590D01*
X251779728Y-49975036D01*
X251785546Y-49977154D01*
X251785549Y-49977155D01*
X251865716Y-50006333D01*
X252098750Y-50091150D01*
X252104863Y-50092091D01*
X252104875Y-50092094D01*
X252154851Y-50099786D01*
X252201049Y-50116600D01*
X252249574Y-50146046D01*
X252255392Y-50148164D01*
X252255395Y-50148165D01*
X252382701Y-50194500D01*
X252568596Y-50262160D01*
X252627531Y-50271231D01*
X252705009Y-50252272D01*
X252769334Y-50205107D01*
X252800268Y-50154130D01*
X252802440Y-50148165D01*
X253051073Y-49465050D01*
X253053191Y-49459231D01*
X253058238Y-49426439D01*
X253372475Y-49426439D01*
X253379085Y-49577826D01*
X253424652Y-49722344D01*
X253506069Y-49850145D01*
X253617790Y-49952519D01*
X253718454Y-50004921D01*
X254071253Y-50133329D01*
X254182049Y-50157892D01*
X254190296Y-50157532D01*
X254190297Y-50157532D01*
X254222976Y-50156105D01*
X254333437Y-50151282D01*
X254365496Y-50141174D01*
X254470075Y-50108200D01*
X254470078Y-50108199D01*
X254477955Y-50105715D01*
X254605756Y-50024297D01*
X254708130Y-49912577D01*
X254778100Y-49778166D01*
X254810897Y-49630225D01*
X254804287Y-49478838D01*
X254790366Y-49434687D01*
X254761205Y-49342199D01*
X254761204Y-49342196D01*
X254758720Y-49334319D01*
X254745019Y-49312812D01*
X254711413Y-49260062D01*
X254677302Y-49206519D01*
X254575859Y-49113562D01*
X254571674Y-49109727D01*
X254571672Y-49109726D01*
X254565582Y-49104145D01*
X254480318Y-49059760D01*
X254468577Y-49053648D01*
X254468574Y-49053647D01*
X254464917Y-49051743D01*
X254320133Y-48999046D01*
X254116002Y-48924748D01*
X254115998Y-48924747D01*
X254112119Y-48923335D01*
X254108086Y-48922441D01*
X254108083Y-48922440D01*
X254009384Y-48900559D01*
X254009382Y-48900559D01*
X254001322Y-48898772D01*
X253993075Y-48899132D01*
X253993074Y-48899132D01*
X253961837Y-48900496D01*
X253849935Y-48905382D01*
X253705417Y-48950949D01*
X253577616Y-49032366D01*
X253572038Y-49038453D01*
X253572037Y-49038454D01*
X253480820Y-49137999D01*
X253480818Y-49138002D01*
X253475242Y-49144087D01*
X253405272Y-49278498D01*
X253403484Y-49286562D01*
X253403484Y-49286563D01*
X253374846Y-49415746D01*
X253372475Y-49426439D01*
X253058238Y-49426439D01*
X253062261Y-49400296D01*
X253043302Y-49322818D01*
X252996137Y-49258492D01*
X252985531Y-49252056D01*
X252985530Y-49252055D01*
X252972080Y-49243894D01*
X252945160Y-49227558D01*
X252939342Y-49225440D01*
X252939339Y-49225439D01*
X252715824Y-49144087D01*
X252626138Y-49111444D01*
X252620025Y-49110503D01*
X252620013Y-49110500D01*
X252570037Y-49102808D01*
X252523839Y-49085994D01*
X252503622Y-49073726D01*
X252475314Y-49056548D01*
X252469496Y-49054430D01*
X252469493Y-49054429D01*
X252334167Y-49005175D01*
X252156292Y-48940434D01*
X252150179Y-48939493D01*
X252150167Y-48939490D01*
X252100191Y-48931798D01*
X252053993Y-48914984D01*
X252049994Y-48912557D01*
X252005468Y-48885538D01*
X251942318Y-48862553D01*
X251885148Y-48820460D01*
X251859810Y-48754138D01*
X251874351Y-48684647D01*
X251924153Y-48634048D01*
X251993405Y-48618407D01*
X252001860Y-48619231D01*
X252058736Y-48626719D01*
X252066924Y-48625641D01*
X252187735Y-48609736D01*
X252187739Y-48609735D01*
X252195919Y-48608658D01*
X252203543Y-48605500D01*
X252203547Y-48605499D01*
X252316125Y-48558868D01*
X252323754Y-48555708D01*
X252396817Y-48499644D01*
X252426976Y-48476502D01*
X252426977Y-48476501D01*
X252433527Y-48471475D01*
X252438553Y-48464925D01*
X252438556Y-48464922D01*
X252485731Y-48403442D01*
X252517760Y-48361701D01*
X252570710Y-48233867D01*
X252573434Y-48213177D01*
X252602158Y-48148251D01*
X252661424Y-48109160D01*
X252681907Y-48104705D01*
X252732821Y-48098001D01*
X252803026Y-48088759D01*
X252803029Y-48088758D01*
X252811211Y-48087681D01*
X252824401Y-48082218D01*
X252894989Y-48074630D01*
X252958475Y-48106411D01*
X252972577Y-48121924D01*
X253045962Y-48217561D01*
X253045965Y-48217564D01*
X253050991Y-48224114D01*
X253057541Y-48229140D01*
X253057542Y-48229141D01*
X253154214Y-48303321D01*
X253160764Y-48308347D01*
X253168393Y-48311507D01*
X253280971Y-48358138D01*
X253280975Y-48358139D01*
X253288599Y-48361297D01*
X253296779Y-48362374D01*
X253296783Y-48362375D01*
X253417594Y-48378280D01*
X253425782Y-48379358D01*
X253433970Y-48378280D01*
X253554781Y-48362375D01*
X253554785Y-48362374D01*
X253562965Y-48361297D01*
X253570589Y-48358139D01*
X253570593Y-48358138D01*
X253683171Y-48311507D01*
X253690800Y-48308347D01*
X253697350Y-48303321D01*
X253794022Y-48229141D01*
X253794023Y-48229140D01*
X253800573Y-48224114D01*
X253805599Y-48217564D01*
X253805602Y-48217561D01*
X253858785Y-48148251D01*
X253884806Y-48114340D01*
X253937756Y-47986506D01*
X253955817Y-47849323D01*
X253937756Y-47712140D01*
X253884806Y-47584306D01*
X253842689Y-47529419D01*
X253805602Y-47481085D01*
X253805599Y-47481082D01*
X253800573Y-47474532D01*
X253690800Y-47390299D01*
X253683171Y-47387139D01*
X253570593Y-47340508D01*
X253570589Y-47340507D01*
X253562965Y-47337349D01*
X253554785Y-47336272D01*
X253554781Y-47336271D01*
X253433970Y-47320366D01*
X253425782Y-47319288D01*
X253288599Y-47337349D01*
X253280966Y-47340511D01*
X253280965Y-47340511D01*
X253275414Y-47342810D01*
X253204825Y-47350400D01*
X253141337Y-47318622D01*
X253127233Y-47303106D01*
X253053848Y-47207469D01*
X253053845Y-47207466D01*
X253048819Y-47200916D01*
X253028857Y-47185598D01*
X252945596Y-47121709D01*
X252939046Y-47116683D01*
X252931417Y-47113523D01*
X252818839Y-47066892D01*
X252818835Y-47066891D01*
X252811211Y-47063733D01*
X252803031Y-47062656D01*
X252803027Y-47062655D01*
X252682216Y-47046750D01*
X252674028Y-47045672D01*
X252536845Y-47063733D01*
X252529213Y-47066894D01*
X252529214Y-47066894D01*
X252523656Y-47069196D01*
X252453066Y-47076784D01*
X252389580Y-47045003D01*
X252375478Y-47029490D01*
X252302093Y-46933853D01*
X252302090Y-46933850D01*
X252297064Y-46927300D01*
X252290490Y-46922255D01*
X252193841Y-46848093D01*
X252187291Y-46843067D01*
X252179662Y-46839907D01*
X252067084Y-46793276D01*
X252067080Y-46793275D01*
X252059456Y-46790117D01*
X252051276Y-46789040D01*
X252051272Y-46789039D01*
X251930461Y-46773134D01*
X251922273Y-46772056D01*
X251785090Y-46790117D01*
X251657256Y-46843067D01*
X251547482Y-46927300D01*
X251463249Y-47037074D01*
X251410299Y-47164908D01*
X251409221Y-47173096D01*
X251407575Y-47185598D01*
X251378851Y-47250524D01*
X251319585Y-47289615D01*
X251299101Y-47294071D01*
X251169799Y-47311094D01*
X251162166Y-47314256D01*
X251162165Y-47314256D01*
X251156614Y-47316555D01*
X251086025Y-47324145D01*
X251022537Y-47292367D01*
X251008433Y-47276851D01*
X250935048Y-47181214D01*
X250935045Y-47181211D01*
X250930019Y-47174661D01*
X250923469Y-47169635D01*
X250923465Y-47169631D01*
X250918436Y-47165772D01*
X250876570Y-47108433D01*
X250872351Y-47037562D01*
X250878734Y-47017594D01*
X250880596Y-47013100D01*
X250930739Y-46892042D01*
X250948800Y-46754859D01*
X250930739Y-46617676D01*
X250877789Y-46489842D01*
X250810732Y-46402452D01*
X250798585Y-46386621D01*
X250798582Y-46386618D01*
X250793556Y-46380068D01*
X250683783Y-46295835D01*
X250633482Y-46275000D01*
X250563576Y-46246044D01*
X250563572Y-46246043D01*
X250555948Y-46242885D01*
X250547768Y-46241808D01*
X250547764Y-46241807D01*
X250426953Y-46225902D01*
X250418765Y-46224824D01*
X250281582Y-46242885D01*
X250273949Y-46246047D01*
X250273948Y-46246047D01*
X250268397Y-46248346D01*
X250197808Y-46255936D01*
X250134320Y-46224158D01*
X250120216Y-46208642D01*
X250046831Y-46113005D01*
X250046828Y-46113002D01*
X250041802Y-46106452D01*
X249932029Y-46022219D01*
X249924400Y-46019059D01*
X249811822Y-45972428D01*
X249811818Y-45972427D01*
X249804194Y-45969269D01*
X249796014Y-45968192D01*
X249796010Y-45968191D01*
X249675199Y-45952286D01*
X249667011Y-45951208D01*
X249529828Y-45969269D01*
X249522195Y-45972431D01*
X249522194Y-45972431D01*
X249516643Y-45974730D01*
X249446054Y-45982320D01*
X249382566Y-45950542D01*
X249368462Y-45935026D01*
X249295076Y-45839388D01*
X249290048Y-45832835D01*
X249180275Y-45748602D01*
X249172646Y-45745442D01*
X249060068Y-45698811D01*
X249060064Y-45698810D01*
X249052440Y-45695652D01*
X249044260Y-45694575D01*
X249044256Y-45694574D01*
X248923445Y-45678669D01*
X248915257Y-45677591D01*
X248778074Y-45695652D01*
X248650240Y-45748602D01*
X248540466Y-45832835D01*
X248456233Y-45942609D01*
X248403283Y-46070443D01*
X248385222Y-46207626D01*
X248403283Y-46344809D01*
X248456233Y-46472643D01*
X248483563Y-46508260D01*
X248535437Y-46575864D01*
X248535440Y-46575867D01*
X248540466Y-46582417D01*
X248547016Y-46587443D01*
X248547017Y-46587444D01*
X248643689Y-46661624D01*
X248650239Y-46666650D01*
X248657868Y-46669810D01*
X248770446Y-46716441D01*
X248770450Y-46716442D01*
X248778074Y-46719600D01*
X248786254Y-46720677D01*
X248786258Y-46720678D01*
X248907069Y-46736583D01*
X248915257Y-46737661D01*
X248923445Y-46736583D01*
X249044256Y-46720678D01*
X249044260Y-46720677D01*
X249052440Y-46719600D01*
X249065630Y-46714137D01*
X249136218Y-46706549D01*
X249199704Y-46738330D01*
X249213804Y-46753841D01*
X249292220Y-46856034D01*
X249298770Y-46861060D01*
X249298771Y-46861061D01*
X249303798Y-46864918D01*
X249345666Y-46922255D01*
X249349890Y-46993126D01*
X249343506Y-47013098D01*
X249291500Y-47138652D01*
X249273439Y-47275835D01*
X249291500Y-47413018D01*
X249344450Y-47540852D01*
X249373946Y-47579292D01*
X249423654Y-47644073D01*
X249423657Y-47644076D01*
X249428683Y-47650626D01*
X249435233Y-47655652D01*
X249435234Y-47655653D01*
X249515635Y-47717348D01*
X249557502Y-47774687D01*
X249561723Y-47845558D01*
X249526958Y-47907460D01*
X249464245Y-47940741D01*
X249395838Y-47935711D01*
X249337214Y-47914374D01*
X249331101Y-47913433D01*
X249331089Y-47913430D01*
X249281113Y-47905738D01*
X249234915Y-47888924D01*
X249230916Y-47886497D01*
X249186390Y-47859478D01*
X249180572Y-47857360D01*
X249180569Y-47857359D01*
X248989480Y-47787809D01*
X248867368Y-47743364D01*
X248820252Y-47736112D01*
X248811266Y-47734729D01*
X248765068Y-47717914D01*
X248742977Y-47704509D01*
X248716543Y-47688468D01*
X248710725Y-47686350D01*
X248710722Y-47686349D01*
X248575396Y-47637095D01*
X248397521Y-47572354D01*
X248338586Y-47563283D01*
X248261108Y-47582242D01*
X248251099Y-47589581D01*
X248214160Y-47616666D01*
X248196783Y-47629407D01*
X248165849Y-47680384D01*
X248163733Y-47686198D01*
X248163731Y-47686202D01*
X247971928Y-48213177D01*
X247912926Y-48375283D01*
X247903856Y-48434218D01*
X244775815Y-48434218D01*
X240944208Y-47065787D01*
X246745433Y-47065787D01*
X246765212Y-47216023D01*
X246823201Y-47356020D01*
X246915448Y-47476238D01*
X247035666Y-47568485D01*
X247175663Y-47626474D01*
X247183851Y-47627552D01*
X247278510Y-47640014D01*
X247288179Y-47641287D01*
X247363619Y-47641287D01*
X247373289Y-47640014D01*
X247467947Y-47627552D01*
X247476135Y-47626474D01*
X247616132Y-47568485D01*
X247736350Y-47476238D01*
X247828597Y-47356020D01*
X247886586Y-47216023D01*
X247906365Y-47065787D01*
X247886586Y-46915551D01*
X247828597Y-46775554D01*
X247736350Y-46655336D01*
X247616132Y-46563089D01*
X247476135Y-46505100D01*
X247363619Y-46490287D01*
X247288179Y-46490287D01*
X247175663Y-46505100D01*
X247035666Y-46563089D01*
X246915448Y-46655336D01*
X246823201Y-46775554D01*
X246765212Y-46915551D01*
X246745433Y-47065787D01*
X240944208Y-47065787D01*
X228815814Y-42734218D01*
X231903856Y-42734218D01*
X231922815Y-42811696D01*
X231969980Y-42876022D01*
X231980586Y-42882458D01*
X231980587Y-42882459D01*
X231991932Y-42889343D01*
X232020957Y-42906956D01*
X232026775Y-42909074D01*
X232026778Y-42909075D01*
X232095392Y-42934048D01*
X232339979Y-43023070D01*
X232387095Y-43030322D01*
X232396081Y-43031705D01*
X232442279Y-43048520D01*
X232490804Y-43077966D01*
X232496622Y-43080084D01*
X232496625Y-43080085D01*
X232607556Y-43120460D01*
X232809826Y-43194080D01*
X232815939Y-43195021D01*
X232815951Y-43195024D01*
X232865927Y-43202716D01*
X232912125Y-43219530D01*
X232960650Y-43248976D01*
X232966468Y-43251094D01*
X232966471Y-43251095D01*
X233101797Y-43300349D01*
X233279672Y-43365090D01*
X233285785Y-43366031D01*
X233285797Y-43366034D01*
X233335773Y-43373726D01*
X233381971Y-43390540D01*
X233430496Y-43419986D01*
X233436314Y-43422104D01*
X233436317Y-43422105D01*
X233496713Y-43444087D01*
X233749518Y-43536100D01*
X233796634Y-43543352D01*
X233805620Y-43544735D01*
X233851818Y-43561550D01*
X233900343Y-43590996D01*
X233906161Y-43593114D01*
X233906164Y-43593115D01*
X234000228Y-43627351D01*
X234219365Y-43707110D01*
X234225478Y-43708051D01*
X234225490Y-43708054D01*
X234275466Y-43715746D01*
X234321664Y-43732560D01*
X234370189Y-43762006D01*
X234376007Y-43764124D01*
X234376010Y-43764125D01*
X234439115Y-43787093D01*
X234689211Y-43878120D01*
X234695324Y-43879061D01*
X234695336Y-43879064D01*
X234745312Y-43886756D01*
X234791510Y-43903570D01*
X234840035Y-43933016D01*
X234845853Y-43935134D01*
X234845856Y-43935135D01*
X234981182Y-43984389D01*
X235159057Y-44049130D01*
X235206173Y-44056382D01*
X235215159Y-44057765D01*
X235261357Y-44074580D01*
X235309882Y-44104026D01*
X235315700Y-44106144D01*
X235315703Y-44106145D01*
X235417454Y-44143179D01*
X235628904Y-44220140D01*
X235635017Y-44221081D01*
X235635029Y-44221084D01*
X235685005Y-44228776D01*
X235731203Y-44245590D01*
X235779728Y-44275036D01*
X235785546Y-44277154D01*
X235785549Y-44277155D01*
X235865716Y-44306333D01*
X236098750Y-44391150D01*
X236104863Y-44392091D01*
X236104875Y-44392094D01*
X236154851Y-44399786D01*
X236201049Y-44416600D01*
X236249574Y-44446046D01*
X236255392Y-44448164D01*
X236255395Y-44448165D01*
X236327476Y-44474400D01*
X236568596Y-44562160D01*
X236627531Y-44571231D01*
X236705009Y-44552272D01*
X236769334Y-44505107D01*
X236800268Y-44454130D01*
X236802440Y-44448165D01*
X237051073Y-43765050D01*
X237053191Y-43759231D01*
X237058238Y-43726439D01*
X237372475Y-43726439D01*
X237379085Y-43877826D01*
X237424652Y-44022344D01*
X237506069Y-44150145D01*
X237617790Y-44252519D01*
X237718454Y-44304921D01*
X238071253Y-44433329D01*
X238182049Y-44457892D01*
X238190296Y-44457532D01*
X238190297Y-44457532D01*
X238222976Y-44456105D01*
X238333437Y-44451282D01*
X238365496Y-44441174D01*
X238470075Y-44408200D01*
X238470078Y-44408199D01*
X238477955Y-44405715D01*
X238605756Y-44324297D01*
X238708130Y-44212577D01*
X238778100Y-44078166D01*
X238810897Y-43930225D01*
X238804287Y-43778838D01*
X238790366Y-43734687D01*
X238761205Y-43642199D01*
X238761204Y-43642196D01*
X238758720Y-43634319D01*
X238745019Y-43612812D01*
X238711413Y-43560062D01*
X238677302Y-43506519D01*
X238575859Y-43413562D01*
X238571674Y-43409727D01*
X238571672Y-43409726D01*
X238565582Y-43404145D01*
X238480318Y-43359760D01*
X238468577Y-43353648D01*
X238468574Y-43353647D01*
X238464917Y-43351743D01*
X238320133Y-43299046D01*
X238116002Y-43224748D01*
X238115998Y-43224747D01*
X238112119Y-43223335D01*
X238108086Y-43222441D01*
X238108083Y-43222440D01*
X238009384Y-43200559D01*
X238009382Y-43200559D01*
X238001322Y-43198772D01*
X237993075Y-43199132D01*
X237993074Y-43199132D01*
X237961837Y-43200496D01*
X237849935Y-43205382D01*
X237705417Y-43250949D01*
X237577616Y-43332366D01*
X237572038Y-43338453D01*
X237572037Y-43338454D01*
X237480820Y-43437999D01*
X237480818Y-43438002D01*
X237475242Y-43444087D01*
X237405272Y-43578498D01*
X237403484Y-43586562D01*
X237403484Y-43586563D01*
X237374846Y-43715746D01*
X237372475Y-43726439D01*
X237058238Y-43726439D01*
X237062261Y-43700296D01*
X237043302Y-43622818D01*
X236996137Y-43558492D01*
X236985531Y-43552056D01*
X236985530Y-43552055D01*
X236972080Y-43543894D01*
X236945160Y-43527558D01*
X236939342Y-43525440D01*
X236939339Y-43525439D01*
X236715824Y-43444087D01*
X236626138Y-43411444D01*
X236620025Y-43410503D01*
X236620013Y-43410500D01*
X236570037Y-43402808D01*
X236523839Y-43385994D01*
X236503622Y-43373726D01*
X236475314Y-43356548D01*
X236469496Y-43354430D01*
X236469493Y-43354429D01*
X236334167Y-43305175D01*
X236156292Y-43240434D01*
X236150179Y-43239493D01*
X236150167Y-43239490D01*
X236100191Y-43231798D01*
X236053993Y-43214984D01*
X236049994Y-43212557D01*
X236005468Y-43185538D01*
X235942318Y-43162553D01*
X235885148Y-43120460D01*
X235859810Y-43054138D01*
X235874351Y-42984647D01*
X235924153Y-42934048D01*
X235993405Y-42918407D01*
X236001860Y-42919231D01*
X236058736Y-42926719D01*
X236066924Y-42925641D01*
X236187735Y-42909736D01*
X236187739Y-42909735D01*
X236195919Y-42908658D01*
X236203543Y-42905500D01*
X236203547Y-42905499D01*
X236316125Y-42858868D01*
X236323754Y-42855708D01*
X236396817Y-42799644D01*
X236426976Y-42776502D01*
X236426977Y-42776501D01*
X236433527Y-42771475D01*
X236438553Y-42764925D01*
X236438556Y-42764922D01*
X236485731Y-42703442D01*
X236517760Y-42661701D01*
X236570710Y-42533867D01*
X236573434Y-42513177D01*
X236602158Y-42448251D01*
X236661424Y-42409160D01*
X236681907Y-42404705D01*
X236732821Y-42398001D01*
X236803026Y-42388759D01*
X236803029Y-42388758D01*
X236811211Y-42387681D01*
X236824401Y-42382218D01*
X236894989Y-42374630D01*
X236958475Y-42406411D01*
X236972577Y-42421924D01*
X237045962Y-42517561D01*
X237045965Y-42517564D01*
X237050991Y-42524114D01*
X237057541Y-42529140D01*
X237057542Y-42529141D01*
X237154214Y-42603321D01*
X237160764Y-42608347D01*
X237168393Y-42611507D01*
X237280971Y-42658138D01*
X237280975Y-42658139D01*
X237288599Y-42661297D01*
X237296779Y-42662374D01*
X237296783Y-42662375D01*
X237417594Y-42678280D01*
X237425782Y-42679358D01*
X237433970Y-42678280D01*
X237554781Y-42662375D01*
X237554785Y-42662374D01*
X237562965Y-42661297D01*
X237570589Y-42658139D01*
X237570593Y-42658138D01*
X237683171Y-42611507D01*
X237690800Y-42608347D01*
X237697350Y-42603321D01*
X237794022Y-42529141D01*
X237794023Y-42529140D01*
X237800573Y-42524114D01*
X237805599Y-42517564D01*
X237805602Y-42517561D01*
X237858785Y-42448251D01*
X237884806Y-42414340D01*
X237937756Y-42286506D01*
X237955817Y-42149323D01*
X237937756Y-42012140D01*
X237884806Y-41884306D01*
X237805739Y-41781264D01*
X237805602Y-41781085D01*
X237805599Y-41781082D01*
X237800573Y-41774532D01*
X237690800Y-41690299D01*
X237683171Y-41687139D01*
X237570593Y-41640508D01*
X237570589Y-41640507D01*
X237562965Y-41637349D01*
X237554785Y-41636272D01*
X237554781Y-41636271D01*
X237433970Y-41620366D01*
X237425782Y-41619288D01*
X237288599Y-41637349D01*
X237280966Y-41640511D01*
X237280965Y-41640511D01*
X237275414Y-41642810D01*
X237204825Y-41650400D01*
X237141337Y-41618622D01*
X237127233Y-41603106D01*
X237053848Y-41507469D01*
X237053845Y-41507466D01*
X237048819Y-41500916D01*
X237028857Y-41485598D01*
X236945596Y-41421709D01*
X236939046Y-41416683D01*
X236931417Y-41413523D01*
X236818839Y-41366892D01*
X236818835Y-41366891D01*
X236811211Y-41363733D01*
X236803031Y-41362656D01*
X236803027Y-41362655D01*
X236682216Y-41346750D01*
X236674028Y-41345672D01*
X236536845Y-41363733D01*
X236529213Y-41366894D01*
X236529214Y-41366894D01*
X236523656Y-41369196D01*
X236453066Y-41376784D01*
X236389580Y-41345003D01*
X236375478Y-41329490D01*
X236302093Y-41233853D01*
X236302090Y-41233850D01*
X236297064Y-41227300D01*
X236290490Y-41222255D01*
X236193841Y-41148093D01*
X236187291Y-41143067D01*
X236179662Y-41139907D01*
X236067084Y-41093276D01*
X236067080Y-41093275D01*
X236059456Y-41090117D01*
X236051276Y-41089040D01*
X236051272Y-41089039D01*
X235930461Y-41073134D01*
X235922273Y-41072056D01*
X235785090Y-41090117D01*
X235657256Y-41143067D01*
X235547482Y-41227300D01*
X235463249Y-41337074D01*
X235410299Y-41464908D01*
X235409221Y-41473096D01*
X235407575Y-41485598D01*
X235378851Y-41550524D01*
X235319585Y-41589615D01*
X235299101Y-41594071D01*
X235169799Y-41611094D01*
X235162166Y-41614256D01*
X235162165Y-41614256D01*
X235156614Y-41616555D01*
X235086025Y-41624145D01*
X235022537Y-41592367D01*
X235008433Y-41576851D01*
X234935048Y-41481214D01*
X234935045Y-41481211D01*
X234930019Y-41474661D01*
X234923469Y-41469635D01*
X234923465Y-41469631D01*
X234918436Y-41465772D01*
X234876570Y-41408433D01*
X234872351Y-41337562D01*
X234878734Y-41317594D01*
X234880596Y-41313100D01*
X234930739Y-41192042D01*
X234948800Y-41054859D01*
X234930739Y-40917676D01*
X234877789Y-40789842D01*
X234835673Y-40734955D01*
X234798585Y-40686621D01*
X234798582Y-40686618D01*
X234793556Y-40680068D01*
X234776138Y-40666702D01*
X234690333Y-40600861D01*
X234683783Y-40595835D01*
X234676154Y-40592675D01*
X234563576Y-40546044D01*
X234563572Y-40546043D01*
X234555948Y-40542885D01*
X234547768Y-40541808D01*
X234547764Y-40541807D01*
X234426953Y-40525902D01*
X234418765Y-40524824D01*
X234281582Y-40542885D01*
X234273949Y-40546047D01*
X234273948Y-40546047D01*
X234268397Y-40548346D01*
X234197808Y-40555936D01*
X234134320Y-40524158D01*
X234120216Y-40508642D01*
X234046831Y-40413005D01*
X234046828Y-40413002D01*
X234041802Y-40406452D01*
X233932029Y-40322219D01*
X233924400Y-40319059D01*
X233811822Y-40272428D01*
X233811818Y-40272427D01*
X233804194Y-40269269D01*
X233796014Y-40268192D01*
X233796010Y-40268191D01*
X233675199Y-40252286D01*
X233667011Y-40251208D01*
X233529828Y-40269269D01*
X233522195Y-40272431D01*
X233522194Y-40272431D01*
X233516643Y-40274730D01*
X233446054Y-40282320D01*
X233382566Y-40250542D01*
X233368462Y-40235026D01*
X233295076Y-40139388D01*
X233290048Y-40132835D01*
X233180275Y-40048602D01*
X233172646Y-40045442D01*
X233060068Y-39998811D01*
X233060064Y-39998810D01*
X233052440Y-39995652D01*
X233044260Y-39994575D01*
X233044256Y-39994574D01*
X232923445Y-39978669D01*
X232915257Y-39977591D01*
X232778074Y-39995652D01*
X232650240Y-40048602D01*
X232540466Y-40132835D01*
X232456233Y-40242609D01*
X232403283Y-40370443D01*
X232385222Y-40507626D01*
X232403283Y-40644809D01*
X232456233Y-40772643D01*
X232483563Y-40808260D01*
X232535437Y-40875864D01*
X232535440Y-40875867D01*
X232540466Y-40882417D01*
X232547016Y-40887443D01*
X232547017Y-40887444D01*
X232643689Y-40961624D01*
X232650239Y-40966650D01*
X232657868Y-40969810D01*
X232770446Y-41016441D01*
X232770450Y-41016442D01*
X232778074Y-41019600D01*
X232786254Y-41020677D01*
X232786258Y-41020678D01*
X232907069Y-41036583D01*
X232915257Y-41037661D01*
X232923445Y-41036583D01*
X233044256Y-41020678D01*
X233044260Y-41020677D01*
X233052440Y-41019600D01*
X233065630Y-41014137D01*
X233136218Y-41006549D01*
X233199704Y-41038330D01*
X233213804Y-41053841D01*
X233292220Y-41156034D01*
X233298770Y-41161060D01*
X233298771Y-41161061D01*
X233303798Y-41164918D01*
X233345666Y-41222255D01*
X233349890Y-41293126D01*
X233343506Y-41313098D01*
X233291500Y-41438652D01*
X233273439Y-41575835D01*
X233291500Y-41713018D01*
X233344450Y-41840852D01*
X233373946Y-41879292D01*
X233423654Y-41944073D01*
X233423657Y-41944076D01*
X233428683Y-41950626D01*
X233435233Y-41955652D01*
X233435234Y-41955653D01*
X233515635Y-42017348D01*
X233557502Y-42074687D01*
X233561723Y-42145558D01*
X233526958Y-42207460D01*
X233464245Y-42240741D01*
X233395838Y-42235711D01*
X233337214Y-42214374D01*
X233331101Y-42213433D01*
X233331089Y-42213430D01*
X233281113Y-42205738D01*
X233234915Y-42188924D01*
X233230916Y-42186497D01*
X233186390Y-42159478D01*
X233180572Y-42157360D01*
X233180569Y-42157359D01*
X232989480Y-42087809D01*
X232867368Y-42043364D01*
X232820252Y-42036112D01*
X232811266Y-42034729D01*
X232765068Y-42017914D01*
X232742977Y-42004509D01*
X232716543Y-41988468D01*
X232710725Y-41986350D01*
X232710722Y-41986349D01*
X232575396Y-41937095D01*
X232397521Y-41872354D01*
X232338586Y-41863283D01*
X232261108Y-41882242D01*
X232196783Y-41929407D01*
X232165849Y-41980384D01*
X232163733Y-41986198D01*
X232163731Y-41986202D01*
X231971928Y-42513177D01*
X231912926Y-42675283D01*
X231903856Y-42734218D01*
X228815814Y-42734218D01*
X228461368Y-42607630D01*
X228446068Y-42600994D01*
X228351006Y-42552049D01*
X228323687Y-42533040D01*
X228250976Y-42466596D01*
X228229589Y-42441098D01*
X228176813Y-42357939D01*
X228162847Y-42327730D01*
X228152434Y-42294137D01*
X228133685Y-42233654D01*
X228128116Y-42200845D01*
X228124603Y-42102411D01*
X228127819Y-42069287D01*
X228152114Y-41965162D01*
X228156970Y-41949207D01*
X228287909Y-41603106D01*
X228377693Y-41365787D01*
X230745433Y-41365787D01*
X230765212Y-41516023D01*
X230823201Y-41656020D01*
X230915448Y-41776238D01*
X231035666Y-41868485D01*
X231175663Y-41926474D01*
X231183851Y-41927552D01*
X231278510Y-41940014D01*
X231288179Y-41941287D01*
X231363619Y-41941287D01*
X231373289Y-41940014D01*
X231467947Y-41927552D01*
X231476135Y-41926474D01*
X231616132Y-41868485D01*
X231736350Y-41776238D01*
X231828597Y-41656020D01*
X231886586Y-41516023D01*
X231906365Y-41365787D01*
X231886586Y-41215551D01*
X231828597Y-41075554D01*
X231736350Y-40955336D01*
X231616132Y-40863089D01*
X231476135Y-40805100D01*
X231363619Y-40790287D01*
X231288179Y-40790287D01*
X231175663Y-40805100D01*
X231035666Y-40863089D01*
X230915448Y-40955336D01*
X230823201Y-41075554D01*
X230765212Y-41215551D01*
X230745433Y-41365787D01*
X228377693Y-41365787D01*
X228707234Y-40494740D01*
X232372819Y-30805794D01*
X232379571Y-30790937D01*
X232429047Y-30698515D01*
X232448034Y-30671993D01*
X232513937Y-30601415D01*
X232539099Y-30580655D01*
X232620914Y-30529362D01*
X232650565Y-30515758D01*
X232742796Y-30487192D01*
X232774946Y-30481655D01*
X232811392Y-30480170D01*
X232871431Y-30477725D01*
X232903921Y-30480629D01*
G37*
%TD.AperFunction*%
%TD*%
%TA.AperFunction,Conductor*%
%TO.N,+3.3V*%
G36*
X241708188Y-48501078D02*
G01*
X241812963Y-48514872D01*
X241844735Y-48523385D01*
X241934674Y-48560639D01*
X241963160Y-48577086D01*
X242040393Y-48636349D01*
X242063651Y-48659607D01*
X242122914Y-48736840D01*
X242139361Y-48765326D01*
X242176615Y-48855265D01*
X242185128Y-48887037D01*
X242198922Y-48991812D01*
X242200000Y-49008258D01*
X242200000Y-57991742D01*
X242198922Y-58008188D01*
X242185128Y-58112963D01*
X242176615Y-58144735D01*
X242139361Y-58234674D01*
X242122914Y-58263160D01*
X242063651Y-58340393D01*
X242040393Y-58363651D01*
X241963160Y-58422914D01*
X241934674Y-58439361D01*
X241844735Y-58476615D01*
X241812963Y-58485128D01*
X241708188Y-58498922D01*
X241691742Y-58500000D01*
X231708258Y-58500000D01*
X231691812Y-58498922D01*
X231587037Y-58485128D01*
X231555265Y-58476615D01*
X231465326Y-58439361D01*
X231436840Y-58422914D01*
X231359607Y-58363651D01*
X231336349Y-58340393D01*
X231277086Y-58263160D01*
X231260639Y-58234674D01*
X231223385Y-58144735D01*
X231214872Y-58112963D01*
X231201078Y-58008188D01*
X231200000Y-57991742D01*
X231200000Y-56569748D01*
X238649500Y-56569748D01*
X238661133Y-56628231D01*
X238705448Y-56694552D01*
X238771769Y-56738867D01*
X238783938Y-56741288D01*
X238783939Y-56741288D01*
X238824184Y-56749293D01*
X238830252Y-56750500D01*
X240869748Y-56750500D01*
X240875816Y-56749293D01*
X240916061Y-56741288D01*
X240916062Y-56741288D01*
X240928231Y-56738867D01*
X240994552Y-56694552D01*
X241038867Y-56628231D01*
X241050500Y-56569748D01*
X241050500Y-55030252D01*
X241038867Y-54971769D01*
X240994552Y-54905448D01*
X240928231Y-54861133D01*
X240916062Y-54858712D01*
X240916061Y-54858712D01*
X240875816Y-54850707D01*
X240869748Y-54849500D01*
X238830252Y-54849500D01*
X238824184Y-54850707D01*
X238783939Y-54858712D01*
X238783938Y-54858712D01*
X238771769Y-54861133D01*
X238705448Y-54905448D01*
X238661133Y-54971769D01*
X238649500Y-55030252D01*
X238649500Y-56569748D01*
X231200000Y-56569748D01*
X231200000Y-51969748D01*
X238649500Y-51969748D01*
X238661133Y-52028231D01*
X238705448Y-52094552D01*
X238771769Y-52138867D01*
X238783938Y-52141288D01*
X238783939Y-52141288D01*
X238824184Y-52149293D01*
X238830252Y-52150500D01*
X240869748Y-52150500D01*
X240875816Y-52149293D01*
X240916061Y-52141288D01*
X240916062Y-52141288D01*
X240928231Y-52138867D01*
X240994552Y-52094552D01*
X241038867Y-52028231D01*
X241050500Y-51969748D01*
X241050500Y-50430252D01*
X241038867Y-50371769D01*
X240994552Y-50305448D01*
X240928231Y-50261133D01*
X240916062Y-50258712D01*
X240916061Y-50258712D01*
X240875816Y-50250707D01*
X240869748Y-50249500D01*
X238830252Y-50249500D01*
X238824184Y-50250707D01*
X238783939Y-50258712D01*
X238783938Y-50258712D01*
X238771769Y-50261133D01*
X238705448Y-50305448D01*
X238661133Y-50371769D01*
X238649500Y-50430252D01*
X238649500Y-51969748D01*
X231200000Y-51969748D01*
X231200000Y-49008258D01*
X231201078Y-48991812D01*
X231214872Y-48887037D01*
X231223385Y-48855265D01*
X231260639Y-48765326D01*
X231277086Y-48736840D01*
X231336349Y-48659607D01*
X231359607Y-48636349D01*
X231436840Y-48577086D01*
X231465326Y-48560639D01*
X231555265Y-48523385D01*
X231587037Y-48514872D01*
X231691812Y-48501078D01*
X231708258Y-48500000D01*
X241691742Y-48500000D01*
X241708188Y-48501078D01*
G37*
%TD.AperFunction*%
%TD*%
M02*
