0
SECTION
2
HEADER
9
$INSUNITS
70
1
9
$ACADVER
1
AC1014
9
$HANDSEED
5
FFFF
0
ENDSEC
0
SECTION
2
TABLES
0
TABLE
2
VPORT
5
8
100
AcDbSymbolTable
0
ENDTAB
0
TABLE
2
LTYPE
5
5
100
AcDbSymbolTable
0
LTYPE
5
14
100
AcDbSymbolTableRecord
100
AcDbLinetypeTableRecord
2
BYBLOCK
70
0
0
LTYPE
5
15
100
AcDbSymbolTableRecord
100
AcDbLinetypeTableRecord
2
BYLAYER
70
0
0
ENDTAB
0
TABLE
2
LAYER
5
2
100
AcDbSymbolTable
70
2
0
LAYER
5
50
100
AcDbSymbolTableRecord
100
AcDbLayerTableRecord
2
0
70
0
6
CONTINUOUS
0
ENDTAB
0
TABLE
2
STYLE
5
3
100
AcDbSymbolTable
70
1
0
STYLE
5
11
100
AcDbSymbolTableRecord
100
AcDbTextStyleTableRecord
2
STANDARD
70
0
0
ENDTAB
0
TABLE
2
VIEW
5
6
100
AcDbSymbolTable
70
0
0
ENDTAB
0
TABLE
2
UCS
5
7
100
AcDbSymbolTable
70
0
0
ENDTAB
0
TABLE
2
APPID
5
9
100
AcDbSymbolTable
70
2
0
APPID
5
12
100
AcDbSymbolTableRecord
100
AcDbRegAppTableRecord
2
ACAD
70
0
0
ENDTAB
0
TABLE
2
DIMSTYLE
5
A
100
AcDbSymbolTable
70
1
0
ENDTAB
0
TABLE
2
BLOCK_RECORD
5
1
100
AcDbSymbolTable
70
1
0
BLOCK_RECORD
5
1F
100
AcDbSymbolTableRecord
100
AcDbBlockTableRecord
2
*MODEL_SPACE
0
BLOCK_RECORD
5
1B
100
AcDbSymbolTableRecord
100
AcDbBlockTableRecord
2
*PAPER_SPACE
0
ENDTAB
0
ENDSEC
0
SECTION
2
BLOCKS
0
BLOCK
5
20
100
AcDbEntity
100
AcDbBlockBegin
2
*MODEL_SPACE
0
ENDBLK
5
21
100
AcDbEntity
100
AcDbBlockEnd
0
BLOCK
5
1C
100
AcDbEntity
100
AcDbBlockBegin
2
*PAPER_SPACE
0
ENDBLK
5
1D
100
AcDbEntity
100
AcDbBlockEnd
0
ENDSEC
0
SECTION
2
ENTITIES
0
LWPOLYLINE
5
100
100
AcDbEntity
8
0
100
AcDbPolyline
90
4
70
1
43
0.0
10
-5.1574803149606296
20
1.1417322834645667
10
-5.1574803149606296
20
1.6929133858267715
10
-4.6062992125984241
20
1.6929133858267715
10
-4.6062992125984241
20
1.1417322834645667
0
LWPOLYLINE
5
101
100
AcDbEntity
8
0
100
AcDbPolyline
90
4
70
1
43
0.0
10
-5.9055118110236213
20
1.0629921259842519
10
-5.9055118110236213
20
1.6141732283464567
10
-5.3543307086614176
20
1.6141732283464567
10
-5.3543307086614176
20
1.0629921259842519
0
LWPOLYLINE
5
102
100
AcDbEntity
8
0
100
AcDbPolyline
90
4
70
1
43
0.0
10
-7.4015748031496056
20
1.0629921259842519
10
-7.4015748031496056
20
1.6141732283464567
10
-6.8503937007874018
20
1.6141732283464567
10
-6.8503937007874018
20
1.0629921259842519
0
LWPOLYLINE
5
103
100
AcDbEntity
8
0
100
AcDbPolyline
90
4
70
1
43
0.0
10
-6.653543307086613
20
1.0236220472440947
10
-6.653543307086613
20
1.5748031496062995
10
-6.1023622047244093
20
1.5748031496062995
10
-6.1023622047244093
20
1.0236220472440947
0
LWPOLYLINE
5
104
100
AcDbEntity
8
0
100
AcDbPolyline
90
4
70
1
43
0.0
10
-8.1496062992125982
20
1.1417322834645667
10
-8.1496062992125982
20
1.6929133858267715
10
-7.5984251968503935
20
1.6929133858267715
10
-7.5984251968503935
20
1.1417322834645667
0
LWPOLYLINE
5
105
100
AcDbEntity
8
0
100
AcDbPolyline
90
4
70
1
43
0.0
10
-8.8976377952755907
20
4.0944881889763778
10
-8.346456692913387
20
4.0944881889763778
10
-8.346456692913387
20
3.5433070866141732
10
-8.8976377952755907
20
3.5433070866141732
0
LWPOLYLINE
5
106
100
AcDbEntity
8
0
100
AcDbPolyline
90
4
70
1
43
0.0
10
-6.1023622047244093
20
4.015748031496063
10
-6.653543307086613
20
4.015748031496063
10
-6.653543307086613
20
4.5669291338582676
10
-6.1023622047244093
20
4.5669291338582676
0
LWPOLYLINE
5
107
100
AcDbEntity
8
0
100
AcDbPolyline
90
4
70
1
43
0.0
10
-5.1574803149606296
20
4.1338582677165352
10
-5.1574803149606296
20
4.6850393700787389
10
-4.6062992125984241
20
4.6850393700787389
10
-4.6062992125984241
20
4.1338582677165352
0
LWPOLYLINE
5
108
100
AcDbEntity
8
0
100
AcDbPolyline
90
4
70
1
43
0.0
10
-3.8582677165354329
20
4.2913385826771648
10
-4.4094488188976371
20
4.2913385826771648
10
-4.4094488188976371
20
4.8425196850393704
10
-3.8582677165354329
20
4.8425196850393704
0
LWPOLYLINE
5
109
100
AcDbEntity
8
0
100
AcDbPolyline
90
4
70
1
43
0.0
10
-7.4015748031496056
20
4.6062992125984241
10
-6.8503937007874018
20
4.6062992125984241
10
-6.8503937007874018
20
4.0551181102362204
10
-7.4015748031496056
20
4.0551181102362204
0
LWPOLYLINE
5
110
100
AcDbEntity
8
0
100
AcDbPolyline
90
4
70
1
43
0.0
10
-5.3543307086614176
20
4.6062992125984241
10
-5.3543307086614176
20
4.0551181102362204
10
-5.9055118110236213
20
4.0551181102362204
10
-5.9055118110236213
20
4.6062992125984241
0
LWPOLYLINE
5
111
100
AcDbEntity
8
0
100
AcDbPolyline
90
4
70
1
43
0.0
10
-8.1496062992125982
20
4.6850393700787389
10
-7.5984251968503935
20
4.6850393700787389
10
-7.5984251968503935
20
4.1338582677165352
10
-8.1496062992125982
20
4.1338582677165352
0
LWPOLYLINE
5
112
100
AcDbEntity
8
0
100
AcDbPolyline
90
4
70
1
43
0.0
10
-8.8976377952755907
20
4.8425196850393704
10
-8.346456692913387
20
4.8425196850393704
10
-8.346456692913387
20
4.2913385826771648
10
-8.8976377952755907
20
4.2913385826771648
0
LWPOLYLINE
5
113
100
AcDbEntity
8
0
100
AcDbPolyline
90
4
70
1
43
0.0
10
-8.897637789076553
20
5.5706996025957771
10
-9.2873816842187438
20
5.9604434977379679
10
-8.897637789076553
20
6.3501873928801613
10
-8.5078938939343605
20
5.9604434977379679
0
CIRCLE
5
114
100
AcDbEntity
8
0
100
AcDbCircle
10
-10.748031496062991
20
2.0472440944881889
30
0
40
0.053149606299212511
210
0
220
-0
230
1
0
LWPOLYLINE
5
115
100
AcDbEntity
8
0
100
AcDbPolyline
90
4
70
1
43
0.0
10
-9.4265759324838125
20
6.0996377460030375
10
-9.8163198276260033
20
6.4893816411452283
10
-9.4265759324838125
20
6.8791255362874217
10
-9.03683203734162
20
6.4893816411452283
0
CIRCLE
5
116
100
AcDbEntity
8
0
100
AcDbCircle
10
-9.9606299212598426
20
6.1023622047244093
30
0
40
0.053149606299212511
210
0
220
-0
230
1
0
CIRCLE
5
117
100
AcDbEntity
8
0
100
AcDbCircle
10
-4.606299212598425
20
4.8425196850393704
30
0
40
0.053149606299212511
210
0
220
-0
230
1
0
CIRCLE
5
118
100
AcDbEntity
8
0
100
AcDbCircle
10
-4.4291338582677158
20
1.122047244094488
30
0
40
0.053149606299212511
210
0
220
-0
230
1
0
LWPOLYLINE
5
119
100
AcDbEntity
8
0
100
AcDbPolyline
90
4
70
1
43
0.0
10
-8.8976377952755907
20
1.2992125984251968
10
-8.8976377952755907
20
1.8503937007874014
10
-8.346456692913387
20
1.8503937007874014
10
-8.346456692913387
20
1.2992125984251968
0
LWPOLYLINE
5
120
100
AcDbEntity
8
0
100
AcDbPolyline
90
4
70
1
43
0.0
10
-8.3686996456692917
20
5.8212492494729
10
-7.9789557505271018
20
5.4315053543307092
10
-8.3686996456692917
20
5.0417614591885167
10
-8.7584435408114842
20
5.4315053543307092
0
LWPOLYLINE
5
121
100
AcDbEntity
8
0
100
AcDbPolyline
90
4
70
1
43
0.0
10
-6.1023622047244093
20
1.7716535433070868
10
-6.653543307086613
20
1.7716535433070868
10
-6.653543307086613
20
2.3228346456692917
10
-6.1023622047244093
20
2.3228346456692917
0
LWPOLYLINE
5
122
100
AcDbEntity
8
0
100
AcDbPolyline
90
4
70
1
43
0.0
10
-5.1574803149606296
20
1.8897637795275588
10
-5.1574803149606296
20
2.4409448818897634
10
-4.6062992125984241
20
2.4409448818897634
10
-4.6062992125984241
20
1.8897637795275588
0
LWPOLYLINE
5
123
100
AcDbEntity
8
0
100
AcDbPolyline
90
4
70
1
43
0.0
10
-3.8582677165354329
20
2.0472440944881889
10
-4.4094488188976371
20
2.0472440944881889
10
-4.4094488188976371
20
2.5984251968503935
10
-3.8582677165354329
20
2.5984251968503935
0
LWPOLYLINE
5
124
100
AcDbEntity
8
0
100
AcDbPolyline
90
4
70
1
43
0.0
10
-7.4015748031496056
20
2.3622047244094491
10
-6.8503937007874018
20
2.3622047244094491
10
-6.8503937007874018
20
1.8110236220472442
10
-7.4015748031496056
20
1.8110236220472442
0
LWPOLYLINE
5
125
100
AcDbEntity
8
0
100
AcDbPolyline
90
4
70
1
43
0.0
10
-5.3543307086614176
20
2.3622047244094491
10
-5.3543307086614176
20
1.8110236220472442
10
-5.9055118110236213
20
1.8110236220472442
10
-5.9055118110236213
20
2.3622047244094491
0
LWPOLYLINE
5
126
100
AcDbEntity
8
0
100
AcDbPolyline
90
4
70
1
43
0.0
10
-8.1496062992125982
20
2.4409448818897634
10
-7.5984251968503935
20
2.4409448818897634
10
-7.5984251968503935
20
1.8897637795275588
10
-8.1496062992125982
20
1.8897637795275588
0
LWPOLYLINE
5
127
100
AcDbEntity
8
0
100
AcDbPolyline
90
4
70
1
43
0.0
10
-8.8976377952755907
20
2.5984251968503935
10
-8.346456692913387
20
2.5984251968503935
10
-8.346456692913387
20
2.0472440944881889
10
-8.8976377952755907
20
2.0472440944881889
0
LWPOLYLINE
5
128
100
AcDbEntity
8
0
100
AcDbPolyline
90
4
70
1
43
0.0
10
-6.1023622047244093
20
2.5196850393700787
10
-6.653543307086613
20
2.5196850393700787
10
-6.653543307086613
20
3.0708661417322833
10
-6.1023622047244093
20
3.0708661417322833
0
LWPOLYLINE
5
129
100
AcDbEntity
8
0
100
AcDbPolyline
90
4
70
1
43
0.0
10
-5.1574803149606296
20
2.6377952755905505
10
-5.1574803149606296
20
3.1889763779527556
10
-4.6062992125984241
20
3.1889763779527556
10
-4.6062992125984241
20
2.6377952755905505
0
LWPOLYLINE
5
130
100
AcDbEntity
8
0
100
AcDbPolyline
90
4
70
1
43
0.0
10
-3.8582677165354329
20
2.7952755905511806
10
-4.4094488188976371
20
2.7952755905511806
10
-4.4094488188976371
20
3.3464566929133857
10
-3.8582677165354329
20
3.3464566929133857
0
LWPOLYLINE
5
131
100
AcDbEntity
8
0
100
AcDbPolyline
90
4
70
1
43
0.0
10
-7.4015748031496056
20
3.1102362204724407
10
-6.8503937007874018
20
3.1102362204724407
10
-6.8503937007874018
20
2.5590551181102361
10
-7.4015748031496056
20
2.5590551181102361
0
LWPOLYLINE
5
132
100
AcDbEntity
8
0
100
AcDbPolyline
90
4
70
1
43
0.0
10
-5.3543307086614176
20
3.1102362204724407
10
-5.3543307086614176
20
2.5590551181102361
10
-5.9055118110236213
20
2.5590551181102361
10
-5.9055118110236213
20
3.1102362204724407
0
LWPOLYLINE
5
133
100
AcDbEntity
8
0
100
AcDbPolyline
90
4
70
1
43
0.0
10
-8.1496062992125982
20
3.1889763779527556
10
-7.5984251968503935
20
3.1889763779527556
10
-7.5984251968503935
20
2.6377952755905505
10
-8.1496062992125982
20
2.6377952755905505
0
LWPOLYLINE
5
134
100
AcDbEntity
8
0
100
AcDbPolyline
90
4
70
1
43
0.0
10
-8.8976377952755907
20
3.3464566929133857
10
-8.346456692913387
20
3.3464566929133857
10
-8.346456692913387
20
2.7952755905511806
10
-8.8976377952755907
20
2.7952755905511806
0
LWPOLYLINE
5
135
100
AcDbEntity
8
0
100
AcDbPolyline
90
4
70
1
43
0.0
10
-6.1023622047244093
20
3.2677165354330708
10
-6.653543307086613
20
3.2677165354330708
10
-6.653543307086613
20
3.8188976377952755
10
-6.1023622047244093
20
3.8188976377952755
0
LWPOLYLINE
5
136
100
AcDbEntity
8
0
100
AcDbPolyline
90
4
70
1
43
0.0
10
-5.1574803149606296
20
3.3858267716535431
10
-5.1574803149606296
20
3.9370078740157477
10
-4.6062992125984241
20
3.9370078740157477
10
-4.6062992125984241
20
3.3858267716535431
0
LWPOLYLINE
5
137
100
AcDbEntity
8
0
100
AcDbPolyline
90
4
70
1
43
0.0
10
-3.8582677165354329
20
3.5433070866141732
10
-4.4094488188976371
20
3.5433070866141732
10
-4.4094488188976371
20
4.0944881889763778
10
-3.8582677165354329
20
4.0944881889763778
0
LWPOLYLINE
5
138
100
AcDbEntity
8
0
100
AcDbPolyline
90
4
70
1
43
0.0
10
-7.4015748031496056
20
3.8582677165354329
10
-6.8503937007874018
20
3.8582677165354329
10
-6.8503937007874018
20
3.3070866141732282
10
-7.4015748031496056
20
3.3070866141732282
0
LWPOLYLINE
5
139
100
AcDbEntity
8
0
100
AcDbPolyline
90
4
70
1
43
0.0
10
-5.3543307086614176
20
3.8582677165354329
10
-5.3543307086614176
20
3.3070866141732282
10
-5.9055118110236213
20
3.3070866141732282
10
-5.9055118110236213
20
3.8582677165354329
0
LWPOLYLINE
5
140
100
AcDbEntity
8
0
100
AcDbPolyline
90
4
70
1
43
0.0
10
-9.6525590551181093
20
5.7608267716535488
10
-9.6525590551181093
20
5.2608267716535435
10
-10.24311023622047
20
5.2608267716535435
10
-10.243110236220476
20
5.7608267716535417
0
LWPOLYLINE
5
141
100
AcDbEntity
8
0
100
AcDbPolyline
90
4
70
1
43
0.0
10
-10.792331809999645
20
4.9533554320468873
10
-9.1730225207090186
20
4.9533554320468873
10
-9.1730225207090186
20
2.2671170088979942
10
-10.792331809999645
20
2.2671170088979942
0
LWPOLYLINE
5
142
100
AcDbEntity
8
0
100
AcDbPolyline
90
4
70
1
43
0.0
10
-4.4094488188976371
20
1.2992125984251968
10
-4.4094488188976371
20
1.8503937007874014
10
-3.8582677165354329
20
1.8503937007874014
10
-3.8582677165354329
20
1.2992125984251968
0
LWPOLYLINE
5
143
100
AcDbEntity
8
0
100
AcDbPolyline
90
4
70
1
43
0.0
10
-8.1496062992125982
20
3.9370078740157477
10
-7.5984251968503935
20
3.9370078740157477
10
-7.5984251968503935
20
3.3858267716535431
10
-8.1496062992125982
20
3.3858267716535431
0
LWPOLYLINE
5
144
100
AcDbEntity
8
0
100
AcDbPolyline
90
9
70
1
43
0.0
10
-9.3897637795275593
20
7.1456692913385833
10
-9.4291338582677167
20
7.1456692913385833
10
-10.984251968503937
20
5.5905511811023612
10
-10.984251968503937
20
4.9999999999999991
10
-10.984252283083464
20
1.9094482091452734
42
0.18641954649910614
10
-3.7007874015748072
20
1.1220472440945026
10
-3.7007874015748028
20
4.9606299212598426
10
-3.7401574803149602
20
4.9999999999999991
10
-7.2440944881889768
20
4.9999999999999991
0
ENDSEC
0
SECTION
2
OBJECTS
0
DICTIONARY
5
C
100
AcDbDictionary
3
ACAD_GROUP
350
D
3
ACAD_MLINESTYLE
350
17
0
DICTIONARY
5
D
100
AcDbDictionary
0
DICTIONARY
5
1A
330
C
100
AcDbDictionary
0
DICTIONARY
5
17
100
AcDbDictionary
0
ENDSEC
0
EOF
