0
SECTION
2
HEADER
9
$INSUNITS
70
1
9
$ACADVER
1
AC1014
9
$HANDSEED
5
FFFF
0
ENDSEC
0
SECTION
2
TABLES
0
TABLE
2
VPORT
5
8
100
AcDbSymbolTable
0
ENDTAB
0
TABLE
2
LTYPE
5
5
100
AcDbSymbolTable
0
LTYPE
5
14
100
AcDbSymbolTableRecord
100
AcDbLinetypeTableRecord
2
BYBLOCK
70
0
0
LTYPE
5
15
100
AcDbSymbolTableRecord
100
AcDbLinetypeTableRecord
2
BYLAYER
70
0
0
ENDTAB
0
TABLE
2
LAYER
5
2
100
AcDbSymbolTable
70
2
0
LAYER
5
50
100
AcDbSymbolTableRecord
100
AcDbLayerTableRecord
2
0
70
0
6
CONTINUOUS
0
ENDTAB
0
TABLE
2
STYLE
5
3
100
AcDbSymbolTable
70
1
0
STYLE
5
11
100
AcDbSymbolTableRecord
100
AcDbTextStyleTableRecord
2
STANDARD
70
0
0
ENDTAB
0
TABLE
2
VIEW
5
6
100
AcDbSymbolTable
70
0
0
ENDTAB
0
TABLE
2
UCS
5
7
100
AcDbSymbolTable
70
0
0
ENDTAB
0
TABLE
2
APPID
5
9
100
AcDbSymbolTable
70
2
0
APPID
5
12
100
AcDbSymbolTableRecord
100
AcDbRegAppTableRecord
2
ACAD
70
0
0
ENDTAB
0
TABLE
2
DIMSTYLE
5
A
100
AcDbSymbolTable
70
1
0
ENDTAB
0
TABLE
2
BLOCK_RECORD
5
1
100
AcDbSymbolTable
70
1
0
BLOCK_RECORD
5
1F
100
AcDbSymbolTableRecord
100
AcDbBlockTableRecord
2
*MODEL_SPACE
0
BLOCK_RECORD
5
1B
100
AcDbSymbolTableRecord
100
AcDbBlockTableRecord
2
*PAPER_SPACE
0
ENDTAB
0
ENDSEC
0
SECTION
2
BLOCKS
0
BLOCK
5
20
100
AcDbEntity
100
AcDbBlockBegin
2
*MODEL_SPACE
0
ENDBLK
5
21
100
AcDbEntity
100
AcDbBlockEnd
0
BLOCK
5
1C
100
AcDbEntity
100
AcDbBlockBegin
2
*PAPER_SPACE
0
ENDBLK
5
1D
100
AcDbEntity
100
AcDbBlockEnd
0
ENDSEC
0
SECTION
2
ENTITIES
0
CIRCLE
5
100
100
AcDbEntity
8
0
100
AcDbCircle
10
-2.0078740157480319
20
2.2440944881889764
30
0
40
0.053149606299212511
210
0
220
0
230
1
0
CIRCLE
5
101
100
AcDbEntity
8
0
100
AcDbCircle
10
-8.3267716535433074
20
1.3188976377952752
30
0
40
0.053149606299212511
210
0
220
0
230
1
0
CIRCLE
5
102
100
AcDbEntity
8
0
100
AcDbCircle
10
-8.1496062992125982
20
5.0393700787401574
30
0
40
0.053149606299212511
210
0
220
0
230
1
0
CIRCLE
5
103
100
AcDbEntity
8
0
100
AcDbCircle
10
-2.795275590551181
20
6.2992125984251963
30
0
40
0.053149606299212511
210
0
220
0
230
1
0
LWPOLYLINE
5
104
100
AcDbEntity
8
0
100
AcDbPolyline
90
8
70
1
43
0.0
10
-3.1029527559055117
20
2.9024409448818904
42
0.41421356237309709
10
-3.0529527559055114
20
2.9524409448818902
10
-3.0529527559055114
20
4.2924409448818901
42
0.41421356237309709
10
-3.1029527559055117
20
4.3424409448818899
10
-3.3529527559055117
20
4.342440944881889
42
0.41421356237309503
10
-3.4029527559055115
20
4.2924409448818901
10
-3.4029527559055119
20
2.9524409448818894
42
0.41421356237309304
10
-3.3529527559055117
20
2.9024409448818895
0
LWPOLYLINE
5
105
100
AcDbEntity
8
0
100
AcDbPolyline
90
19
70
1
43
0.0
10
-9.0551181102171867
20
1.3188983479448648
42
0.13503018577700546
10
-3.6627758649809836
20
1.3594416401791691
10
-3.8793460669624871
20
1.9544633798683793
42
-0.41421356237309326
10
-3.7896951953415523
20
2.1467202944842296
10
-3.1381404488733997
20
2.3838668281862079
42
-0.41421356237309076
10
-2.9458835342575491
20
2.2942159565652722
10
-2.721083310829008
20
1.6765824187880125
42
0.025645373828114458
10
-1.7716535433071865
20
2.1062992125985898
10
-1.7716535433071605
20
2.7496062992125987
10
-2.2718503937007877
20
2.7496062992125991
42
-0.41421356237309453
10
-2.4718503937007874
20
2.9496062992125989
10
-2.4718503937007874
20
3.6496062992125982
42
-0.41421356237309453
10
-2.2718503937007881
20
3.8496062992125974
10
-1.7716535433071621
20
3.8496062992125983
10
-1.7716535433070866
20
5.7874015748031491
10
-3.3267716535433074
20
7.3425196850393704
10
-3.3661417322834644
20
7.3425196850393704
10
-5.5118110236220463
20
5.1968503937007871
10
-9.0551181102362204
20
5.1968503937007871
0
ENDSEC
0
SECTION
2
OBJECTS
0
DICTIONARY
5
C
100
AcDbDictionary
3
ACAD_GROUP
350
D
3
ACAD_MLINESTYLE
350
17
0
DICTIONARY
5
D
100
AcDbDictionary
0
DICTIONARY
5
1A
330
C
100
AcDbDictionary
0
DICTIONARY
5
17
100
AcDbDictionary
0
ENDSEC
0
EOF
