0
SECTION
2
HEADER
9
$INSUNITS
70
1
9
$ACADVER
1
AC1014
9
$HANDSEED
5
FFFF
0
ENDSEC
0
SECTION
2
TABLES
0
TABLE
2
VPORT
5
8
100
AcDbSymbolTable
0
ENDTAB
0
TABLE
2
LTYPE
5
5
100
AcDbSymbolTable
0
LTYPE
5
14
100
AcDbSymbolTableRecord
100
AcDbLinetypeTableRecord
2
BYBLOCK
70
0
0
LTYPE
5
15
100
AcDbSymbolTableRecord
100
AcDbLinetypeTableRecord
2
BYLAYER
70
0
0
ENDTAB
0
TABLE
2
LAYER
5
2
100
AcDbSymbolTable
70
2
0
LAYER
5
50
100
AcDbSymbolTableRecord
100
AcDbLayerTableRecord
2
0
70
0
6
CONTINUOUS
0
ENDTAB
0
TABLE
2
STYLE
5
3
100
AcDbSymbolTable
70
1
0
STYLE
5
11
100
AcDbSymbolTableRecord
100
AcDbTextStyleTableRecord
2
STANDARD
70
0
0
ENDTAB
0
TABLE
2
VIEW
5
6
100
AcDbSymbolTable
70
0
0
ENDTAB
0
TABLE
2
UCS
5
7
100
AcDbSymbolTable
70
0
0
ENDTAB
0
TABLE
2
APPID
5
9
100
AcDbSymbolTable
70
2
0
APPID
5
12
100
AcDbSymbolTableRecord
100
AcDbRegAppTableRecord
2
ACAD
70
0
0
ENDTAB
0
TABLE
2
DIMSTYLE
5
A
100
AcDbSymbolTable
70
1
0
ENDTAB
0
TABLE
2
BLOCK_RECORD
5
1
100
AcDbSymbolTable
70
1
0
BLOCK_RECORD
5
1F
100
AcDbSymbolTableRecord
100
AcDbBlockTableRecord
2
*MODEL_SPACE
0
BLOCK_RECORD
5
1B
100
AcDbSymbolTableRecord
100
AcDbBlockTableRecord
2
*PAPER_SPACE
0
ENDTAB
0
ENDSEC
0
SECTION
2
BLOCKS
0
BLOCK
5
20
100
AcDbEntity
100
AcDbBlockBegin
2
*MODEL_SPACE
0
ENDBLK
5
21
100
AcDbEntity
100
AcDbBlockEnd
0
BLOCK
5
1C
100
AcDbEntity
100
AcDbBlockBegin
2
*PAPER_SPACE
0
ENDBLK
5
1D
100
AcDbEntity
100
AcDbBlockEnd
0
ENDSEC
0
SECTION
2
ENTITIES
0
LINE
5
100
100
AcDbEntity
8
0
100
AcDbLine
10
-1.7716535433070866
20
5.7874015748031491
30
0
11
-3.3267716535433074
21
7.3425196850393704
31
0
0
LINE
5
101
100
AcDbEntity
8
0
100
AcDbLine
10
-3.3267716535433074
20
7.3425196850393704
30
0
11
-3.3661417322834644
21
7.3425196850393704
31
0
0
LINE
5
102
100
AcDbEntity
8
0
100
AcDbLine
10
-3.3661417322834644
20
7.3425196850393704
30
0
11
-5.5118110236220463
21
5.1968503937007871
31
0
0
LWPOLYLINE
5
103
100
AcDbEntity
8
0
100
AcDbPolyline
90
4
70
1
43
0.0
10
-3.3055211147602832
20
6.2809265255305968
10
-2.9157772196180916
20
6.6706704206727885
10
-3.3055211147602832
20
7.0604143158149801
10
-3.6952650099024749
20
6.6706704206727885
0
LWPOLYLINE
5
104
100
AcDbEntity
8
0
100
AcDbPolyline
90
4
70
1
43
0.0
10
-3.8344592581675427
20
5.7519883821233373
10
-3.4447153630253515
20
6.1417322772655281
10
-3.8344592581675427
20
6.5314761724077197
10
-4.2242031533097348
20
6.1417322772655281
0
LWPOLYLINE
5
105
100
AcDbEntity
8
0
100
AcDbPolyline
90
4
70
1
43
0.0
10
-5.3543307086614176
20
4.21259842519685
10
-5.3543307086614176
20
4.7637795275590555
10
-5.9055118110236213
20
4.7637795275590555
10
-5.9055118110236213
20
4.21259842519685
0
LWPOLYLINE
5
106
100
AcDbEntity
8
0
100
AcDbPolyline
90
4
70
1
43
0.0
10
-6.1023622047244093
20
4.7244094488188972
10
-6.653543307086613
20
4.7244094488188972
10
-6.653543307086613
20
4.1732283464566935
10
-6.1023622047244093
20
4.1732283464566935
0
LWPOLYLINE
5
107
100
AcDbEntity
8
0
100
AcDbPolyline
90
4
70
1
43
0.0
10
-4.5988188976377993
20
4.8637795275590552
10
-5.149999999999995
20
4.8637795275590552
10
-5.149999999999995
20
4.3125984251968505
10
-4.5988188976377993
20
4.3125984251968505
0
LWPOLYLINE
5
108
100
AcDbEntity
8
0
100
AcDbPolyline
90
4
70
1
43
0.0
10
-4.4094488188976371
20
5.0393700787401574
10
-4.4094488188976371
20
4.4881889763779528
10
-3.8582677165354329
20
4.4881889763779528
10
-3.8582677165354329
20
5.0393700787401574
0
LWPOLYLINE
5
109
100
AcDbEntity
8
0
100
AcDbPolyline
90
4
70
1
43
0.0
10
-8.1496062992125982
20
4.3307086614173222
10
-7.5984251968503935
20
4.3307086614173222
10
-7.5984251968503935
20
4.8818897637795278
10
-8.1496062992125982
20
4.8818897637795278
0
LWPOLYLINE
5
110
100
AcDbEntity
8
0
100
AcDbPolyline
90
4
70
1
43
0.0
10
-8.8976377952755907
20
2.0472440944881889
10
-8.8976377952755907
20
1.496062992125984
10
-8.346456692913387
20
1.496062992125984
10
-8.346456692913387
20
2.0472440944881889
0
LWPOLYLINE
5
111
100
AcDbEntity
8
0
100
AcDbPolyline
90
4
70
1
43
0.0
10
-7.4015748031496056
20
2.5196850393700791
10
-7.4015748031496056
20
1.9685039370078743
10
-6.8503937007874018
20
1.9685039370078743
10
-6.8503937007874018
20
2.5196850393700791
0
LWPOLYLINE
5
112
100
AcDbEntity
8
0
100
AcDbPolyline
90
4
70
1
43
0.0
10
-7.4015748031496056
20
1.7716535433070868
10
-7.4015748031496056
20
1.2204724409448819
10
-6.8503937007874018
20
1.2204724409448819
10
-6.8503937007874018
20
1.7716535433070868
0
LWPOLYLINE
5
113
100
AcDbEntity
8
0
100
AcDbPolyline
90
4
70
1
43
0.0
10
-5.149999999999995
20
1.8716535433070867
10
-5.149999999999995
20
1.3204724409448818
10
-4.5988188976377993
20
1.3204724409448818
10
-4.5988188976377993
20
1.8716535433070867
0
LWPOLYLINE
5
114
100
AcDbEntity
8
0
100
AcDbPolyline
90
4
70
1
43
0.0
10
-5.9055118110236213
20
1.7716535433070868
10
-5.9055118110236213
20
1.2204724409448819
10
-5.3543307086614176
20
1.2204724409448819
10
-5.3543307086614176
20
1.7716535433070868
0
LWPOLYLINE
5
115
100
AcDbEntity
8
0
100
AcDbPolyline
90
4
70
1
43
0.0
10
-6.653543307086613
20
1.7322834645669292
10
-6.653543307086613
20
1.1811023622047243
10
-6.1023622047244093
20
1.1811023622047243
10
-6.1023622047244093
20
1.7322834645669292
0
LWPOLYLINE
5
116
100
AcDbEntity
8
0
100
AcDbPolyline
90
4
70
1
43
0.0
10
-8.1496062992125982
20
1.8897637795275593
10
-8.1496062992125982
20
1.3385826771653544
10
-7.5984251968503935
20
1.3385826771653544
10
-7.5984251968503935
20
1.8897637795275593
0
LWPOLYLINE
5
117
100
AcDbEntity
8
0
100
AcDbPolyline
90
4
70
1
43
0.0
10
-4.5988188976377993
20
3.3677165354330705
10
-5.149999999999995
20
3.3677165354330705
10
-5.149999999999995
20
2.8165354330708658
10
-4.5988188976377993
20
2.8165354330708658
0
LWPOLYLINE
5
118
100
AcDbEntity
8
0
100
AcDbPolyline
90
4
70
1
43
0.0
10
-8.1496062992125982
20
3.582677165354331
10
-7.5984251968503935
20
3.582677165354331
10
-7.5984251968503935
20
4.1338582677165352
10
-8.1496062992125982
20
4.1338582677165352
0
LWPOLYLINE
5
119
100
AcDbEntity
8
0
100
AcDbPolyline
90
4
70
1
43
0.0
10
-4.4094488188976371
20
2.795275590551181
10
-4.4094488188976371
20
2.2440944881889764
10
-3.8582677165354329
20
2.2440944881889764
10
-3.8582677165354329
20
2.795275590551181
0
LWPOLYLINE
5
120
100
AcDbEntity
8
0
100
AcDbPolyline
90
4
70
1
43
0.0
10
-4.5988188976377993
20
2.6196850393700788
10
-5.149999999999995
20
2.6196850393700788
10
-5.149999999999995
20
2.0685039370078742
10
-4.5988188976377993
20
2.0685039370078742
0
LWPOLYLINE
5
121
100
AcDbEntity
8
0
100
AcDbPolyline
90
4
70
1
43
0.0
10
-6.1023622047244093
20
2.4803149606299213
10
-6.653543307086613
20
2.4803149606299213
10
-6.653543307086613
20
1.9291338582677164
10
-6.1023622047244093
20
1.9291338582677164
0
LWPOLYLINE
5
122
100
AcDbEntity
8
0
100
AcDbPolyline
90
4
70
1
43
0.0
10
-5.3543307086614176
20
1.9685039370078743
10
-5.3543307086614176
20
2.5196850393700791
10
-5.9055118110236213
20
2.5196850393700791
10
-5.9055118110236213
20
1.9685039370078743
0
LWPOLYLINE
5
123
100
AcDbEntity
8
0
100
AcDbPolyline
90
4
70
1
43
0.0
10
-7.4015748031496056
20
3.2677165354330708
10
-7.4015748031496056
20
2.7165354330708662
10
-6.8503937007874018
20
2.7165354330708662
10
-6.8503937007874018
20
3.2677165354330708
0
LWPOLYLINE
5
124
100
AcDbEntity
8
0
100
AcDbPolyline
90
4
70
1
43
0.0
10
-8.346456692913387
20
2.2440944881889764
10
-8.346456692913387
20
2.795275590551181
10
-8.8976377952755907
20
2.795275590551181
10
-8.8976377952755907
20
2.2440944881889764
0
LWPOLYLINE
5
125
100
AcDbEntity
8
0
100
AcDbPolyline
90
4
70
1
43
0.0
10
-8.1496062992125982
20
2.8346456692913389
10
-7.5984251968503935
20
2.8346456692913389
10
-7.5984251968503935
20
3.3858267716535435
10
-8.1496062992125982
20
3.3858267716535435
0
LWPOLYLINE
5
126
100
AcDbEntity
8
0
100
AcDbPolyline
90
4
70
1
43
0.0
10
-4.4094488188976371
20
3.5433070866141732
10
-4.4094488188976371
20
2.9921259842519681
10
-3.8582677165354329
20
2.9921259842519681
10
-3.8582677165354329
20
3.5433070866141732
0
LWPOLYLINE
5
127
100
AcDbEntity
8
0
100
AcDbPolyline
90
4
70
1
43
0.0
10
-8.346456692913387
20
2.9921259842519681
10
-8.346456692913387
20
3.5433070866141732
10
-8.8976377952755907
20
3.5433070866141732
10
-8.8976377952755907
20
2.9921259842519681
0
LWPOLYLINE
5
128
100
AcDbEntity
8
0
100
AcDbPolyline
90
4
70
1
43
0.0
10
-7.4015748031496056
20
4.015748031496063
10
-7.4015748031496056
20
3.4645669291338583
10
-6.8503937007874018
20
3.4645669291338583
10
-6.8503937007874018
20
4.015748031496063
0
LWPOLYLINE
5
129
100
AcDbEntity
8
0
100
AcDbPolyline
90
4
70
1
43
0.0
10
-5.3543307086614176
20
2.7165354330708662
10
-5.3543307086614176
20
3.2677165354330708
10
-5.9055118110236213
20
3.2677165354330708
10
-5.9055118110236213
20
2.7165354330708662
0
LWPOLYLINE
5
130
100
AcDbEntity
8
0
100
AcDbPolyline
90
4
70
1
43
0.0
10
-6.1023622047244093
20
3.2283464566929134
10
-6.653543307086613
20
3.2283464566929134
10
-6.653543307086613
20
2.6771653543307088
10
-6.1023622047244093
20
2.6771653543307088
0
LWPOLYLINE
5
131
100
AcDbEntity
8
0
100
AcDbPolyline
90
4
70
1
43
0.0
10
-4.4094488188976371
20
4.2913385826771648
10
-4.4094488188976371
20
3.7401574803149602
10
-3.8582677165354329
20
3.7401574803149602
10
-3.8582677165354329
20
4.2913385826771648
0
LWPOLYLINE
5
132
100
AcDbEntity
8
0
100
AcDbPolyline
90
4
70
1
43
0.0
10
-4.5988188976377993
20
4.1157480314960626
10
-5.149999999999995
20
4.1157480314960626
10
-5.149999999999995
20
3.564566929133858
10
-4.5988188976377993
20
3.564566929133858
0
LWPOLYLINE
5
133
100
AcDbEntity
8
0
100
AcDbPolyline
90
4
70
1
43
0.0
10
-6.1023622047244093
20
3.9763779527559056
10
-6.653543307086613
20
3.9763779527559056
10
-6.653543307086613
20
3.4251968503937
10
-6.1023622047244093
20
3.4251968503937
0
LWPOLYLINE
5
134
100
AcDbEntity
8
0
100
AcDbPolyline
90
4
70
1
43
0.0
10
-5.3543307086614176
20
3.4645669291338583
10
-5.3543307086614176
20
4.015748031496063
10
-5.9055118110236213
20
4.015748031496063
10
-5.9055118110236213
20
3.4645669291338583
0
LWPOLYLINE
5
135
100
AcDbEntity
8
0
100
AcDbPolyline
90
4
70
1
43
0.0
10
-8.346456692913387
20
4.4881889763779528
10
-8.346456692913387
20
5.0393700787401574
10
-8.8976377952755907
20
5.0393700787401574
10
-8.8976377952755907
20
4.4881889763779528
0
LWPOLYLINE
5
136
100
AcDbEntity
8
0
100
AcDbPolyline
90
4
70
1
43
0.0
10
-7.4015748031496056
20
4.7637795275590555
10
-7.4015748031496056
20
4.21259842519685
10
-6.8503937007874018
20
4.21259842519685
10
-6.8503937007874018
20
4.7637795275590555
0
LWPOLYLINE
5
137
100
AcDbEntity
8
0
100
AcDbPolyline
90
4
70
1
43
0.0
10
-8.346456692913387
20
3.7401574803149602
10
-8.346456692913387
20
4.2913385826771648
10
-8.8976377952755907
20
4.2913385826771648
10
-8.8976377952755907
20
3.7401574803149602
0
LWPOLYLINE
5
138
100
AcDbEntity
8
0
100
AcDbPolyline
90
4
70
1
43
0.0
10
-8.1496062992125982
20
2.0866141732283467
10
-7.5984251968503935
20
2.0866141732283467
10
-7.5984251968503935
20
2.6377952755905514
10
-8.1496062992125982
20
2.6377952755905514
0
LWPOLYLINE
5
139
100
AcDbEntity
8
0
100
AcDbPolyline
90
4
70
1
43
0.0
10
-2.584645669291338
20
5.8877952755905518
10
-3.1751968503937005
20
5.8877952755905518
10
-3.1751968503937005
20
5.3877952755905509
10
-2.584645669291338
20
5.3877952755905509
0
LWPOLYLINE
5
140
100
AcDbEntity
8
0
100
AcDbPolyline
90
4
70
1
43
0.0
10
-4.4094488188976371
20
2.0472440944881889
10
-4.4094488188976371
20
1.496062992125984
10
-3.8582677165354329
20
1.496062992125984
10
-3.8582677165354329
20
2.0472440944881889
0
LWPOLYLINE
5
141
100
AcDbEntity
8
0
100
AcDbPolyline
90
4
70
1
43
0.0
10
-3.6109448818897638
20
5.1774803149606301
10
-3.6109448818897638
20
2.4918110236220472
10
-1.9922047244094487
20
2.4918110236220472
10
-1.9922047244094487
20
5.1774803149606301
0
CIRCLE
5
142
100
AcDbEntity
8
0
100
AcDbCircle
10
-8.3267716535433074
20
1.3188976377952752
30
0
40
0.053149606299212511
210
0
220
-0
230
1
0
CIRCLE
5
143
100
AcDbEntity
8
0
100
AcDbCircle
10
-8.1496062992125982
20
5.0393700787401574
30
0
40
0.053149606299212511
210
0
220
-0
230
1
0
LWPOLYLINE
5
144
100
AcDbEntity
8
0
100
AcDbPolyline
90
4
70
1
43
0.0
10
-4.7531412967169944
20
5.6127941338582685
10
-4.3633974015748027
20
5.2230502387160769
10
-3.9736535064326111
20
5.6127941338582685
10
-4.3633974015748027
20
6.0025380290004593
0
CIRCLE
5
145
100
AcDbEntity
8
0
100
AcDbCircle
10
-2.795275590551181
20
6.2992125984251963
30
0
40
0.053149606299212511
210
0
220
-0
230
1
0
CIRCLE
5
146
100
AcDbEntity
8
0
100
AcDbCircle
10
-2.0078740157480319
20
2.2440944881889764
30
0
40
0.053149606299212511
210
0
220
-0
230
1
0
LWPOLYLINE
5
147
100
AcDbEntity
8
0
100
AcDbPolyline
90
7
70
1
43
0.0
10
-9.0551181102171849
20
1.3188983479448677
10
-9.0551181102362204
20
5.1968503937007871
10
-5.5118110236220463
20
5.1968503937007871
10
-3.3661417322834644
20
7.3425196850393704
10
-3.3267716535433074
20
7.3425196850393704
10
-1.7716535433070866
20
5.7874015748031491
10
-1.7716535433071774
20
2.1062992125985986
42
-0.1864195511603601
0
ENDSEC
0
SECTION
2
OBJECTS
0
DICTIONARY
5
C
100
AcDbDictionary
3
ACAD_GROUP
350
D
3
ACAD_MLINESTYLE
350
17
0
DICTIONARY
5
D
100
AcDbDictionary
0
DICTIONARY
5
1A
330
C
100
AcDbDictionary
0
DICTIONARY
5
17
100
AcDbDictionary
0
ENDSEC
0
EOF
