0
SECTION
2
HEADER
9
$INSUNITS
70
1
9
$ACADVER
1
AC1014
9
$HANDSEED
5
FFFF
0
ENDSEC
0
SECTION
2
TABLES
0
TABLE
2
VPORT
5
8
100
AcDbSymbolTable
0
ENDTAB
0
TABLE
2
LTYPE
5
5
100
AcDbSymbolTable
0
LTYPE
5
14
100
AcDbSymbolTableRecord
100
AcDbLinetypeTableRecord
2
BYBLOCK
70
0
0
LTYPE
5
15
100
AcDbSymbolTableRecord
100
AcDbLinetypeTableRecord
2
BYLAYER
70
0
0
ENDTAB
0
TABLE
2
LAYER
5
2
100
AcDbSymbolTable
70
2
0
LAYER
5
50
100
AcDbSymbolTableRecord
100
AcDbLayerTableRecord
2
0
70
0
6
CONTINUOUS
0
ENDTAB
0
TABLE
2
STYLE
5
3
100
AcDbSymbolTable
70
1
0
STYLE
5
11
100
AcDbSymbolTableRecord
100
AcDbTextStyleTableRecord
2
STANDARD
70
0
0
ENDTAB
0
TABLE
2
VIEW
5
6
100
AcDbSymbolTable
70
0
0
ENDTAB
0
TABLE
2
UCS
5
7
100
AcDbSymbolTable
70
0
0
ENDTAB
0
TABLE
2
APPID
5
9
100
AcDbSymbolTable
70
2
0
APPID
5
12
100
AcDbSymbolTableRecord
100
AcDbRegAppTableRecord
2
ACAD
70
0
0
ENDTAB
0
TABLE
2
DIMSTYLE
5
A
100
AcDbSymbolTable
70
1
0
ENDTAB
0
TABLE
2
BLOCK_RECORD
5
1
100
AcDbSymbolTable
70
1
0
BLOCK_RECORD
5
1F
100
AcDbSymbolTableRecord
100
AcDbBlockTableRecord
2
*MODEL_SPACE
0
BLOCK_RECORD
5
1B
100
AcDbSymbolTableRecord
100
AcDbBlockTableRecord
2
*PAPER_SPACE
0
ENDTAB
0
ENDSEC
0
SECTION
2
BLOCKS
0
BLOCK
5
20
100
AcDbEntity
100
AcDbBlockBegin
2
*MODEL_SPACE
0
ENDBLK
5
21
100
AcDbEntity
100
AcDbBlockEnd
0
BLOCK
5
1C
100
AcDbEntity
100
AcDbBlockBegin
2
*PAPER_SPACE
0
ENDBLK
5
1D
100
AcDbEntity
100
AcDbBlockEnd
0
ENDSEC
0
SECTION
2
ENTITIES
0
CIRCLE
5
100
100
AcDbEntity
8
0
100
AcDbCircle
10
-4.606299212598425
20
4.8425196850393704
30
0
40
0.053149606299212511
210
0
220
0
230
1
0
CIRCLE
5
101
100
AcDbEntity
8
0
100
AcDbCircle
10
-10.748031496062991
20
2.0472440944881889
30
0
40
0.053149606299212511
210
0
220
0
230
1
0
LWPOLYLINE
5
102
100
AcDbEntity
8
0
100
AcDbPolyline
90
8
70
1
43
0.0
10
-9.0268470831130632
20
4.4665354330708098
42
0.41421356237318135
10
-9.2381889763779519
20
4.6778773263357554
10
-9.450787401574738
20
4.6778773263357545
42
0.4142135623731939
10
-9.6621292948396924
20
4.4665354330708666
10
-9.6621292948396924
20
4.2539370078740761
42
0.41421356237318907
10
-9.4507874015748019
20
4.042595114609127
10
-9.2381889763780052
20
4.0425951146091279
42
0.41421356237317547
10
-9.0268470831130649
20
4.2539370078740149
0
CIRCLE
5
103
100
AcDbEntity
8
0
100
AcDbCircle
10
-4.4291338582677158
20
1.122047244094488
30
0
40
0.053149606299212511
210
0
220
0
230
1
0
CIRCLE
5
104
100
AcDbEntity
8
0
100
AcDbCircle
10
-9.9606299212598426
20
6.1023622047244093
30
0
40
0.053149606299212511
210
0
220
0
230
1
0
LWPOLYLINE
5
105
100
AcDbEntity
8
0
100
AcDbPolyline
90
21
70
1
43
0.0
10
-10.98425228308346
20
1.9094482091452665
42
0.016581562576238752
10
-10.375280123840362
20
1.6204182706547883
10
-10.237912306935552
20
1.9799601117189085
42
-0.41421356237309881
10
-10.044255772173017
20
2.0665461760928454
10
-9.0025754338687669
20
1.66855813230341
42
-0.41421356237309248
10
-8.9159893694948309
20
1.4749015975408772
10
-9.0409049182815302
20
1.1479518985483297
42
0.1336722889794148
10
-3.7007874015748046
20
1.1220472440944982
10
-3.7007874015748028
20
4.9606299212598426
10
-3.7401574803149602
20
5
10
-7.2440944881889768
20
5
10
-9.3897637795275593
20
7.1456692913385833
10
-9.4291338582677167
20
7.1456692913385833
10
-10.984251968503937
20
5.590551181102362
10
-10.984251968503937
20
5
10
-10.984252077344424
20
4.7307086614173235
10
-10.339566929133859
20
4.7307086614173226
42
-0.41421356237309503
10
-10.189566929133859
20
4.5807086614173222
10
-10.189566929133859
20
4.0807086614173231
42
-0.41421356237309503
10
-10.339566929133859
20
3.9307086614173232
10
-10.984252077344424
20
3.9307086614173232
0
ENDSEC
0
SECTION
2
OBJECTS
0
DICTIONARY
5
C
100
AcDbDictionary
3
ACAD_GROUP
350
D
3
ACAD_MLINESTYLE
350
17
0
DICTIONARY
5
D
100
AcDbDictionary
0
DICTIONARY
5
1A
330
C
100
AcDbDictionary
0
DICTIONARY
5
17
100
AcDbDictionary
0
ENDSEC
0
EOF
