%TF.GenerationSoftware,KiCad,Pcbnew,(6.0.7-1)-1*%
%TF.CreationDate,2022-10-21T15:59:20-04:00*%
%TF.ProjectId,Splitboard-B,53706c69-7462-46f6-9172-642d422e6b69,rev?*%
%TF.SameCoordinates,Original*%
%TF.FileFunction,Soldermask,Top*%
%TF.FilePolarity,Negative*%
%FSLAX46Y46*%
G04 Gerber Fmt 4.6, Leading zero omitted, Abs format (unit mm)*
G04 Created by KiCad (PCBNEW (6.0.7-1)-1) date 2022-10-21 15:59:20*
%MOMM*%
%LPD*%
G01*
G04 APERTURE LIST*
G04 Aperture macros list*
%AMHorizOval*
0 Thick line with rounded ends*
0 $1 width*
0 $2 $3 position (X,Y) of the first rounded end (center of the circle)*
0 $4 $5 position (X,Y) of the second rounded end (center of the circle)*
0 Add line between two ends*
20,1,$1,$2,$3,$4,$5,0*
0 Add two circle primitives to create the rounded ends*
1,1,$1,$2,$3*
1,1,$1,$4,$5*%
G04 Aperture macros list end*
%ADD10C,2.700000*%
%ADD11C,3.100000*%
%ADD12C,1.750000*%
%ADD13C,4.000000*%
%ADD14R,1.500000X1.500000*%
%ADD15C,1.500000*%
%ADD16R,2.000000X2.000000*%
%ADD17C,2.000000*%
%ADD18R,3.200000X2.000000*%
%ADD19R,1.700000X1.700000*%
%ADD20O,1.700000X1.700000*%
%ADD21R,1.600000X1.600000*%
%ADD22O,1.600000X1.600000*%
%ADD23C,0.650000*%
%ADD24HorizOval,0.650000X0.140954X0.051303X-0.140954X-0.051303X0*%
%ADD25HorizOval,0.800000X-0.102606X0.281908X0.102606X-0.281908X0*%
G04 APERTURE END LIST*
D10*
%TO.C,H2*%
X211500000Y-33500000D03*
%TD*%
D11*
%TO.C,K28*%
X221540000Y-96920000D03*
D12*
X224080000Y-102000000D03*
X213920000Y-102000000D03*
D11*
X215190000Y-99460000D03*
D13*
X219000000Y-102000000D03*
%TD*%
D12*
%TO.C,K11*%
X156920000Y-56000000D03*
D11*
X158190000Y-53460000D03*
D12*
X167080000Y-56000000D03*
D11*
X164540000Y-50920000D03*
D13*
X162000000Y-56000000D03*
%TD*%
%TO.C,U1*%
X54110000Y-128000000D03*
X54110000Y-66800000D03*
X88210000Y-66800000D03*
X88210000Y-128000000D03*
D14*
X61000000Y-129500000D03*
D15*
X63540000Y-129500000D03*
X66080000Y-129500000D03*
X68620000Y-129500000D03*
X71160000Y-129500000D03*
X73700000Y-129500000D03*
X76240000Y-129500000D03*
X78780000Y-129500000D03*
X81320000Y-129500000D03*
X66080000Y-65980000D03*
X68620000Y-65980000D03*
X71160000Y-65980000D03*
X73700000Y-65980000D03*
X76240000Y-65980000D03*
%TD*%
D13*
%TO.C,K33*%
X181000000Y-114000000D03*
D11*
X177190000Y-111460000D03*
X183540000Y-108920000D03*
D12*
X175920000Y-114000000D03*
X186080000Y-114000000D03*
%TD*%
D13*
%TO.C,K20*%
X200000000Y-79000000D03*
D11*
X196190000Y-76460000D03*
X202540000Y-73920000D03*
D12*
X194920000Y-79000000D03*
X205080000Y-79000000D03*
%TD*%
%TO.C,K13*%
X194920000Y-60000000D03*
D11*
X202540000Y-54920000D03*
X196190000Y-57460000D03*
D13*
X200000000Y-60000000D03*
D12*
X205080000Y-60000000D03*
%TD*%
%TO.C,K7*%
X213920000Y-45000000D03*
X224080000Y-45000000D03*
D11*
X221540000Y-39920000D03*
X215190000Y-42460000D03*
D13*
X219000000Y-45000000D03*
%TD*%
%TO.C,K17*%
X143000000Y-76000000D03*
D12*
X148080000Y-76000000D03*
D11*
X145540000Y-70920000D03*
D12*
X137920000Y-76000000D03*
D11*
X139190000Y-73460000D03*
%TD*%
%TO.C,K16*%
X126350000Y-73460000D03*
D12*
X118730000Y-78540000D03*
D13*
X123810000Y-78540000D03*
D12*
X128890000Y-78540000D03*
D11*
X120000000Y-76000000D03*
%TD*%
D13*
%TO.C,K37*%
X97395265Y-156000000D03*
D11*
X92905137Y-156898026D03*
D12*
X93803163Y-159592102D03*
X100987367Y-152407898D03*
D11*
X95599214Y-150611846D03*
%TD*%
%TO.C,K2*%
X120000000Y-38000000D03*
D13*
X123810000Y-40540000D03*
D12*
X128890000Y-40540000D03*
X118730000Y-40540000D03*
D11*
X126350000Y-35460000D03*
%TD*%
D12*
%TO.C,K38*%
X107238192Y-146157073D03*
D13*
X110830294Y-142564971D03*
D11*
X109034243Y-137176817D03*
X106340166Y-143462997D03*
D12*
X114422396Y-138972869D03*
%TD*%
D11*
%TO.C,K5*%
X177190000Y-35460000D03*
D12*
X186080000Y-38000000D03*
D13*
X181000000Y-38000000D03*
D12*
X175920000Y-38000000D03*
D11*
X183540000Y-32920000D03*
%TD*%
D13*
%TO.C,K9*%
X123810000Y-59540000D03*
D11*
X126350000Y-54460000D03*
D12*
X128890000Y-59540000D03*
D11*
X120000000Y-57000000D03*
D12*
X118730000Y-59540000D03*
%TD*%
D11*
%TO.C,K32*%
X164540000Y-107920000D03*
D12*
X167080000Y-113000000D03*
X156920000Y-113000000D03*
D11*
X158190000Y-110460000D03*
D13*
X162000000Y-113000000D03*
%TD*%
D11*
%TO.C,K1*%
X107540000Y-39920000D03*
D12*
X110080000Y-45000000D03*
D11*
X101190000Y-42460000D03*
D13*
X105000000Y-45000000D03*
D12*
X99920000Y-45000000D03*
%TD*%
%TO.C,K26*%
X186080000Y-95000000D03*
D13*
X181000000Y-95000000D03*
D11*
X183540000Y-89920000D03*
X177190000Y-92460000D03*
D12*
X175920000Y-95000000D03*
%TD*%
D16*
%TO.C,SW1*%
X65650000Y-140700000D03*
D17*
X65650000Y-145700000D03*
X65650000Y-143200000D03*
D18*
X73150000Y-148800000D03*
X73150000Y-137600000D03*
D17*
X80150000Y-145700000D03*
X80150000Y-140700000D03*
%TD*%
D11*
%TO.C,K4*%
X158190000Y-34460000D03*
X164540000Y-31920000D03*
D12*
X167080000Y-37000000D03*
X156920000Y-37000000D03*
D13*
X162000000Y-37000000D03*
%TD*%
D11*
%TO.C,K34*%
X196190000Y-114460000D03*
D12*
X194920000Y-117000000D03*
D11*
X202540000Y-111920000D03*
D12*
X205080000Y-117000000D03*
D13*
X200000000Y-117000000D03*
%TD*%
D11*
%TO.C,K30*%
X126350000Y-111460000D03*
X120000000Y-114000000D03*
D12*
X128890000Y-116540000D03*
X118730000Y-116540000D03*
D13*
X123810000Y-116540000D03*
%TD*%
D12*
%TO.C,K14*%
X213920000Y-64000000D03*
D11*
X221540000Y-58920000D03*
D12*
X224080000Y-64000000D03*
D13*
X219000000Y-64000000D03*
D11*
X215190000Y-61460000D03*
%TD*%
D12*
%TO.C,K12*%
X186080000Y-57000000D03*
D13*
X181000000Y-57000000D03*
D11*
X177190000Y-54460000D03*
D12*
X175920000Y-57000000D03*
D11*
X183540000Y-51920000D03*
%TD*%
D12*
%TO.C,K22*%
X110080000Y-102000000D03*
D11*
X107540000Y-96920000D03*
D13*
X105000000Y-102000000D03*
D11*
X101190000Y-99460000D03*
D12*
X99920000Y-102000000D03*
%TD*%
D11*
%TO.C,K6*%
X202540000Y-35920000D03*
D13*
X200000000Y-41000000D03*
D11*
X196190000Y-38460000D03*
D12*
X194920000Y-41000000D03*
X205080000Y-41000000D03*
%TD*%
%TO.C,K8*%
X99920000Y-64000000D03*
X110080000Y-64000000D03*
D11*
X107540000Y-58920000D03*
X101190000Y-61460000D03*
D13*
X105000000Y-64000000D03*
%TD*%
D12*
%TO.C,K18*%
X156920000Y-75000000D03*
D11*
X158190000Y-72460000D03*
D13*
X162000000Y-75000000D03*
D11*
X164540000Y-69920000D03*
D12*
X167080000Y-75000000D03*
%TD*%
D11*
%TO.C,K15*%
X107540000Y-77920000D03*
D12*
X99920000Y-83000000D03*
D11*
X101190000Y-80460000D03*
D13*
X105000000Y-83000000D03*
D12*
X110080000Y-83000000D03*
%TD*%
D11*
%TO.C,K21*%
X221540000Y-77920000D03*
D13*
X219000000Y-83000000D03*
D11*
X215190000Y-80460000D03*
D12*
X224080000Y-83000000D03*
X213920000Y-83000000D03*
%TD*%
D11*
%TO.C,K19*%
X183540000Y-70920000D03*
D12*
X175920000Y-76000000D03*
D13*
X181000000Y-76000000D03*
D12*
X186080000Y-76000000D03*
D11*
X177190000Y-73460000D03*
%TD*%
D10*
%TO.C,H1*%
X51000000Y-57000000D03*
%TD*%
%TO.C,H3*%
X71000000Y-160000000D03*
%TD*%
%TO.C,H4*%
X207000000Y-128000000D03*
%TD*%
D12*
%TO.C,K25*%
X167080000Y-94000000D03*
D11*
X164540000Y-88920000D03*
D13*
X162000000Y-94000000D03*
D12*
X156920000Y-94000000D03*
D11*
X158190000Y-91460000D03*
%TD*%
%TO.C,K10*%
X139190000Y-54460000D03*
D12*
X148080000Y-57000000D03*
D13*
X143000000Y-57000000D03*
D11*
X145540000Y-51920000D03*
D12*
X137920000Y-57000000D03*
%TD*%
D11*
%TO.C,K31*%
X145540000Y-108920000D03*
D13*
X143000000Y-114000000D03*
D12*
X148080000Y-114000000D03*
D11*
X139190000Y-111460000D03*
D12*
X137920000Y-114000000D03*
%TD*%
%TO.C,K23*%
X118730000Y-97540000D03*
D13*
X123810000Y-97540000D03*
D11*
X126350000Y-92460000D03*
X120000000Y-95000000D03*
D12*
X128890000Y-97540000D03*
%TD*%
D11*
%TO.C,K29*%
X107540000Y-115920000D03*
X101190000Y-118460000D03*
D13*
X105000000Y-121000000D03*
D12*
X110080000Y-121000000D03*
X99920000Y-121000000D03*
%TD*%
D11*
%TO.C,K24*%
X145540000Y-89920000D03*
D13*
X143000000Y-95000000D03*
D12*
X148080000Y-95000000D03*
X137920000Y-95000000D03*
D11*
X139190000Y-92460000D03*
%TD*%
D12*
%TO.C,K36*%
X87552338Y-165842926D03*
X80368134Y-173027130D03*
D13*
X83960236Y-169435028D03*
D11*
X82164185Y-164046874D03*
X79470108Y-170333054D03*
%TD*%
D13*
%TO.C,K35*%
X219000000Y-121000000D03*
D12*
X224080000Y-121000000D03*
X213920000Y-121000000D03*
D11*
X221540000Y-115920000D03*
X215190000Y-118460000D03*
%TD*%
D13*
%TO.C,K27*%
X200000000Y-98000000D03*
D11*
X202540000Y-92920000D03*
X196190000Y-95460000D03*
D12*
X194920000Y-98000000D03*
X205080000Y-98000000D03*
%TD*%
%TO.C,K3*%
X148080000Y-38000000D03*
D13*
X143000000Y-38000000D03*
D11*
X145540000Y-32920000D03*
D12*
X137920000Y-38000000D03*
D11*
X139190000Y-35460000D03*
%TD*%
D19*
%TO.C,J2*%
X58975000Y-73650000D03*
D20*
X58975000Y-76190000D03*
X58975000Y-78730000D03*
X58975000Y-81270000D03*
X58975000Y-83810000D03*
X58975000Y-86350000D03*
X58975000Y-88890000D03*
X58975000Y-91430000D03*
X58975000Y-93970000D03*
%TD*%
D21*
%TO.C,U2*%
X85800000Y-75500000D03*
D22*
X85800000Y-78040000D03*
X85800000Y-80580000D03*
X85800000Y-83120000D03*
X85800000Y-85660000D03*
X85800000Y-88200000D03*
X85800000Y-90740000D03*
X85800000Y-93280000D03*
X85800000Y-95820000D03*
X85800000Y-98360000D03*
X85800000Y-100900000D03*
X85800000Y-103440000D03*
X85800000Y-105980000D03*
X85800000Y-108520000D03*
X78180000Y-108520000D03*
X78180000Y-105980000D03*
X78180000Y-103440000D03*
X78180000Y-100900000D03*
X78180000Y-98360000D03*
X78180000Y-95820000D03*
X78180000Y-93280000D03*
X78180000Y-90740000D03*
X78180000Y-88200000D03*
X78180000Y-85660000D03*
X78180000Y-83120000D03*
X78180000Y-80580000D03*
X78180000Y-78040000D03*
X78180000Y-75500000D03*
%TD*%
D23*
%TO.C,J1*%
X82358314Y-52828332D03*
D24*
X89124101Y-50365787D03*
D23*
X88150034Y-50028603D03*
X87534743Y-49507626D03*
X86782989Y-49781243D03*
X86646526Y-50575835D03*
X86031235Y-50054859D03*
X85894772Y-50849452D03*
X85143018Y-51123068D03*
X84527727Y-50602091D03*
X84391264Y-51396684D03*
X83775972Y-50875707D03*
X83024218Y-51149323D03*
X82887755Y-51943916D03*
D25*
X87497883Y-43295603D03*
X79059443Y-46366943D03*
X89194613Y-49009901D03*
X81432752Y-51834987D03*
%TD*%
M02*
