%TF.GenerationSoftware,KiCad,Pcbnew,(6.0.7-1)-1*%
%TF.CreationDate,2022-10-21T15:59:20-04:00*%
%TF.ProjectId,Splitboard-B,53706c69-7462-46f6-9172-642d422e6b69,rev?*%
%TF.SameCoordinates,Original*%
%TF.FileFunction,Paste,Bot*%
%TF.FilePolarity,Positive*%
%FSLAX46Y46*%
G04 Gerber Fmt 4.6, Leading zero omitted, Abs format (unit mm)*
G04 Created by KiCad (PCBNEW (6.0.7-1)-1) date 2022-10-21 15:59:20*
%MOMM*%
%LPD*%
G01*
G04 APERTURE LIST*
G04 Aperture macros list*
%AMRoundRect*
0 Rectangle with rounded corners*
0 $1 Rounding radius*
0 $2 $3 $4 $5 $6 $7 $8 $9 X,Y pos of 4 corners*
0 Add a 4 corners polygon primitive as box body*
4,1,4,$2,$3,$4,$5,$6,$7,$8,$9,$2,$3,0*
0 Add four circle primitives for the rounded corners*
1,1,$1+$1,$2,$3*
1,1,$1+$1,$4,$5*
1,1,$1+$1,$6,$7*
1,1,$1+$1,$8,$9*
0 Add four rect primitives between the rounded corners*
20,1,$1+$1,$2,$3,$4,$5,0*
20,1,$1+$1,$4,$5,$6,$7,0*
20,1,$1+$1,$6,$7,$8,$9,0*
20,1,$1+$1,$8,$9,$2,$3,0*%
%AMRotRect*
0 Rectangle, with rotation*
0 The origin of the aperture is its center*
0 $1 length*
0 $2 width*
0 $3 Rotation angle, in degrees counterclockwise*
0 Add horizontal line*
21,1,$1,$2,0,0,$3*%
G04 Aperture macros list end*
%ADD10RoundRect,0.250000X-1.025000X-1.000000X1.025000X-1.000000X1.025000X1.000000X-1.025000X1.000000X0*%
%ADD11RoundRect,0.250000X-0.017678X-1.431891X1.431891X0.017678X0.017678X1.431891X-1.431891X-0.017678X0*%
%ADD12RoundRect,0.250000X0.262500X0.450000X-0.262500X0.450000X-0.262500X-0.450000X0.262500X-0.450000X0*%
%ADD13RoundRect,0.250000X-0.450000X0.262500X-0.450000X-0.262500X0.450000X-0.262500X0.450000X0.262500X0*%
%ADD14RoundRect,0.250000X0.250000X0.475000X-0.250000X0.475000X-0.250000X-0.475000X0.250000X-0.475000X0*%
%ADD15RoundRect,0.250000X-0.262500X-0.450000X0.262500X-0.450000X0.262500X0.450000X-0.262500X0.450000X0*%
%ADD16RoundRect,0.250000X0.450000X-0.262500X0.450000X0.262500X-0.450000X0.262500X-0.450000X-0.262500X0*%
%ADD17R,0.900000X1.200000*%
%ADD18RoundRect,0.250000X-0.250000X-0.475000X0.250000X-0.475000X0.250000X0.475000X-0.250000X0.475000X0*%
%ADD19RoundRect,0.250000X-0.475000X0.250000X-0.475000X-0.250000X0.475000X-0.250000X0.475000X0.250000X0*%
%ADD20RotRect,0.900000X1.200000X225.000000*%
%ADD21R,0.600000X0.450000*%
%ADD22R,2.000000X1.500000*%
%ADD23R,2.000000X3.800000*%
%ADD24RotRect,0.300000X0.700000X20.000000*%
G04 APERTURE END LIST*
D10*
%TO.C,K28*%
X224842000Y-96920000D03*
X211915000Y-99460000D03*
%TD*%
%TO.C,K11*%
X154915000Y-53460000D03*
X167842000Y-50920000D03*
%TD*%
%TO.C,K33*%
X173915000Y-111460000D03*
X186842000Y-108920000D03*
%TD*%
%TO.C,K20*%
X192915000Y-76460000D03*
X205842000Y-73920000D03*
%TD*%
%TO.C,K13*%
X205842000Y-54920000D03*
X192915000Y-57460000D03*
%TD*%
%TO.C,K7*%
X211915000Y-42460000D03*
X224842000Y-39920000D03*
%TD*%
%TO.C,K17*%
X135915000Y-73460000D03*
X148842000Y-70920000D03*
%TD*%
%TO.C,K16*%
X129652000Y-73460000D03*
X116725000Y-76000000D03*
%TD*%
D11*
%TO.C,K37*%
X97934080Y-148276980D03*
X90589362Y-159213800D03*
%TD*%
D10*
%TO.C,K2*%
X116725000Y-38000000D03*
X129652000Y-35460000D03*
%TD*%
D11*
%TO.C,K38*%
X111369109Y-134841951D03*
X104024391Y-145778771D03*
%TD*%
D10*
%TO.C,K5*%
X173915000Y-35460000D03*
X186842000Y-32920000D03*
%TD*%
%TO.C,K9*%
X116725000Y-57000000D03*
X129652000Y-54460000D03*
%TD*%
%TO.C,K32*%
X154915000Y-110460000D03*
X167842000Y-107920000D03*
%TD*%
%TO.C,K1*%
X97915000Y-42460000D03*
X110842000Y-39920000D03*
%TD*%
%TO.C,K26*%
X173915000Y-92460000D03*
X186842000Y-89920000D03*
%TD*%
%TO.C,K4*%
X167842000Y-31920000D03*
X154915000Y-34460000D03*
%TD*%
%TO.C,K34*%
X192915000Y-114460000D03*
X205842000Y-111920000D03*
%TD*%
%TO.C,K30*%
X129652000Y-111460000D03*
X116725000Y-114000000D03*
%TD*%
%TO.C,K14*%
X211915000Y-61460000D03*
X224842000Y-58920000D03*
%TD*%
%TO.C,K12*%
X173915000Y-54460000D03*
X186842000Y-51920000D03*
%TD*%
%TO.C,K22*%
X97915000Y-99460000D03*
X110842000Y-96920000D03*
%TD*%
%TO.C,K6*%
X205842000Y-35920000D03*
X192915000Y-38460000D03*
%TD*%
%TO.C,K8*%
X110842000Y-58920000D03*
X97915000Y-61460000D03*
%TD*%
%TO.C,K18*%
X167842000Y-69920000D03*
X154915000Y-72460000D03*
%TD*%
%TO.C,K15*%
X110842000Y-77920000D03*
X97915000Y-80460000D03*
%TD*%
%TO.C,K21*%
X224842000Y-77920000D03*
X211915000Y-80460000D03*
%TD*%
%TO.C,K19*%
X173915000Y-73460000D03*
X186842000Y-70920000D03*
%TD*%
%TO.C,K25*%
X167842000Y-88920000D03*
X154915000Y-91460000D03*
%TD*%
%TO.C,K10*%
X135915000Y-54460000D03*
X148842000Y-51920000D03*
%TD*%
%TO.C,K31*%
X148842000Y-108920000D03*
X135915000Y-111460000D03*
%TD*%
%TO.C,K23*%
X116725000Y-95000000D03*
X129652000Y-92460000D03*
%TD*%
%TO.C,K29*%
X110842000Y-115920000D03*
X97915000Y-118460000D03*
%TD*%
%TO.C,K24*%
X148842000Y-89920000D03*
X135915000Y-92460000D03*
%TD*%
D11*
%TO.C,K36*%
X77154333Y-172648828D03*
X84499051Y-161712008D03*
%TD*%
D10*
%TO.C,K35*%
X224842000Y-115920000D03*
X211915000Y-118460000D03*
%TD*%
%TO.C,K27*%
X205842000Y-92920000D03*
X192915000Y-95460000D03*
%TD*%
%TO.C,K3*%
X148842000Y-32920000D03*
X135915000Y-35460000D03*
%TD*%
D12*
%TO.C,R12*%
X89800000Y-83311111D03*
X87975000Y-83311111D03*
%TD*%
D13*
%TO.C,R22*%
X73200000Y-97487500D03*
X73200000Y-99312500D03*
%TD*%
D14*
%TO.C,C8*%
X93950000Y-38590000D03*
X92050000Y-38590000D03*
%TD*%
D15*
%TO.C,R36*%
X67087500Y-72200000D03*
X68912500Y-72200000D03*
%TD*%
D14*
%TO.C,C6*%
X75450000Y-58250000D03*
X73550000Y-58250000D03*
%TD*%
D16*
%TO.C,R6*%
X60900000Y-150312500D03*
X60900000Y-148487500D03*
%TD*%
D17*
%TO.C,D22*%
X110650000Y-107000000D03*
X107350000Y-107000000D03*
%TD*%
%TO.C,D19*%
X186650000Y-81000000D03*
X183350000Y-81000000D03*
%TD*%
D13*
%TO.C,R19*%
X69800000Y-86487500D03*
X69800000Y-88312500D03*
%TD*%
D17*
%TO.C,D9*%
X129460000Y-64540000D03*
X126160000Y-64540000D03*
%TD*%
D12*
%TO.C,R18*%
X75512500Y-78000000D03*
X73687500Y-78000000D03*
%TD*%
D17*
%TO.C,D13*%
X205650000Y-65000000D03*
X202350000Y-65000000D03*
%TD*%
%TO.C,D10*%
X148650000Y-62000000D03*
X145350000Y-62000000D03*
%TD*%
%TO.C,D12*%
X186650000Y-62000000D03*
X183350000Y-62000000D03*
%TD*%
D12*
%TO.C,R7*%
X62112500Y-145700000D03*
X60287500Y-145700000D03*
%TD*%
D17*
%TO.C,D16*%
X129460000Y-83540000D03*
X126160000Y-83540000D03*
%TD*%
D12*
%TO.C,R17*%
X85000000Y-72600000D03*
X83175000Y-72600000D03*
%TD*%
%TO.C,R13*%
X89800000Y-85800000D03*
X87975000Y-85800000D03*
%TD*%
D15*
%TO.C,R32*%
X67000000Y-83000000D03*
X68825000Y-83000000D03*
%TD*%
%TO.C,R26*%
X73675000Y-85500000D03*
X75500000Y-85500000D03*
%TD*%
D17*
%TO.C,D11*%
X167650000Y-61000000D03*
X164350000Y-61000000D03*
%TD*%
D13*
%TO.C,R23*%
X71000000Y-97487500D03*
X71000000Y-99312500D03*
%TD*%
D15*
%TO.C,R30*%
X67087500Y-74400000D03*
X68912500Y-74400000D03*
%TD*%
D18*
%TO.C,C3*%
X56050000Y-145450000D03*
X57950000Y-145450000D03*
%TD*%
D17*
%TO.C,D2*%
X129460000Y-45540000D03*
X126160000Y-45540000D03*
%TD*%
%TO.C,D14*%
X224650000Y-69000000D03*
X221350000Y-69000000D03*
%TD*%
D12*
%TO.C,R15*%
X89800000Y-90777778D03*
X87975000Y-90777778D03*
%TD*%
D17*
%TO.C,D17*%
X148650000Y-81000000D03*
X145350000Y-81000000D03*
%TD*%
%TO.C,D23*%
X129460000Y-102540000D03*
X126160000Y-102540000D03*
%TD*%
D14*
%TO.C,C9*%
X93950000Y-41600000D03*
X92050000Y-41600000D03*
%TD*%
D19*
%TO.C,C2*%
X53700000Y-140750000D03*
X53700000Y-142650000D03*
%TD*%
D17*
%TO.C,D3*%
X148650000Y-43000000D03*
X145350000Y-43000000D03*
%TD*%
%TO.C,D34*%
X205650000Y-122000000D03*
X202350000Y-122000000D03*
%TD*%
D12*
%TO.C,R10*%
X57912500Y-148000000D03*
X56087500Y-148000000D03*
%TD*%
D15*
%TO.C,R33*%
X67000000Y-81000000D03*
X68825000Y-81000000D03*
%TD*%
D19*
%TO.C,C5*%
X88250000Y-96300000D03*
X88250000Y-98200000D03*
%TD*%
D17*
%TO.C,D30*%
X129460000Y-121540000D03*
X126160000Y-121540000D03*
%TD*%
%TO.C,D25*%
X167650000Y-99000000D03*
X164350000Y-99000000D03*
%TD*%
D20*
%TO.C,D36*%
X91629942Y-168870057D03*
X89296490Y-171203509D03*
%TD*%
D17*
%TO.C,D35*%
X224650000Y-126000000D03*
X221350000Y-126000000D03*
%TD*%
D21*
%TO.C,D39*%
X79950000Y-62000000D03*
X82050000Y-62000000D03*
%TD*%
D15*
%TO.C,R5*%
X59787500Y-140700000D03*
X61612500Y-140700000D03*
%TD*%
D12*
%TO.C,R11*%
X89800000Y-80822222D03*
X87975000Y-80822222D03*
%TD*%
D17*
%TO.C,D31*%
X148650000Y-119000000D03*
X145350000Y-119000000D03*
%TD*%
D15*
%TO.C,R34*%
X67000000Y-78800000D03*
X68825000Y-78800000D03*
%TD*%
D12*
%TO.C,R16*%
X89800000Y-93266667D03*
X87975000Y-93266667D03*
%TD*%
D15*
%TO.C,R28*%
X73675000Y-80500000D03*
X75500000Y-80500000D03*
%TD*%
D17*
%TO.C,D21*%
X224650000Y-88000000D03*
X221350000Y-88000000D03*
%TD*%
D22*
%TO.C,U3*%
X60100000Y-57550000D03*
D23*
X66400000Y-55250000D03*
D22*
X60100000Y-55250000D03*
X60100000Y-52950000D03*
%TD*%
D15*
%TO.C,R21*%
X71487500Y-101600000D03*
X73312500Y-101600000D03*
%TD*%
D17*
%TO.C,D5*%
X186650000Y-43000000D03*
X183350000Y-43000000D03*
%TD*%
%TO.C,D18*%
X167650000Y-80000000D03*
X164350000Y-80000000D03*
%TD*%
%TO.C,D28*%
X224650000Y-107000000D03*
X221350000Y-107000000D03*
%TD*%
D16*
%TO.C,R31*%
X70800000Y-81112500D03*
X70800000Y-79287500D03*
%TD*%
D17*
%TO.C,D32*%
X167650000Y-118000000D03*
X164350000Y-118000000D03*
%TD*%
D19*
%TO.C,C4*%
X75500000Y-101050000D03*
X75500000Y-102950000D03*
%TD*%
D15*
%TO.C,R9*%
X53687500Y-138400000D03*
X55512500Y-138400000D03*
%TD*%
D16*
%TO.C,R8*%
X83950000Y-138162500D03*
X83950000Y-136337500D03*
%TD*%
D12*
%TO.C,R1*%
X89952500Y-103540000D03*
X88127500Y-103540000D03*
%TD*%
D13*
%TO.C,R4*%
X60700000Y-135787500D03*
X60700000Y-137612500D03*
%TD*%
D15*
%TO.C,R35*%
X67087500Y-76600000D03*
X68912500Y-76600000D03*
%TD*%
D17*
%TO.C,D27*%
X205650000Y-103000000D03*
X202350000Y-103000000D03*
%TD*%
D20*
%TO.C,D38*%
X118500000Y-142000000D03*
X116166548Y-144333452D03*
%TD*%
D18*
%TO.C,C7*%
X71750000Y-62000000D03*
X73650000Y-62000000D03*
%TD*%
D17*
%TO.C,D29*%
X110650000Y-126000000D03*
X107350000Y-126000000D03*
%TD*%
D18*
%TO.C,C1*%
X82950000Y-140550000D03*
X84850000Y-140550000D03*
%TD*%
D17*
%TO.C,D7*%
X224650000Y-50000000D03*
X221350000Y-50000000D03*
%TD*%
%TO.C,D6*%
X205650000Y-46000000D03*
X202350000Y-46000000D03*
%TD*%
D12*
%TO.C,R2*%
X89912500Y-106000000D03*
X88087500Y-106000000D03*
%TD*%
D17*
%TO.C,D1*%
X110650000Y-50000000D03*
X107350000Y-50000000D03*
%TD*%
D15*
%TO.C,R27*%
X73675000Y-83000000D03*
X75500000Y-83000000D03*
%TD*%
D17*
%TO.C,D8*%
X110650000Y-69000000D03*
X107350000Y-69000000D03*
%TD*%
%TO.C,D20*%
X205650000Y-84000000D03*
X202350000Y-84000000D03*
%TD*%
D24*
%TO.C,J1*%
X83382786Y-53157812D03*
X83852633Y-52986802D03*
X84322479Y-52815792D03*
X84792325Y-52644782D03*
X85262172Y-52473772D03*
X85732018Y-52302762D03*
X86201864Y-52131752D03*
X86671711Y-51960742D03*
X87141557Y-51789732D03*
X87611403Y-51618722D03*
X88081250Y-51447712D03*
X88551096Y-51276702D03*
%TD*%
D17*
%TO.C,D26*%
X186650000Y-100000000D03*
X183350000Y-100000000D03*
%TD*%
D15*
%TO.C,R24*%
X73675000Y-93000000D03*
X75500000Y-93000000D03*
%TD*%
%TO.C,R25*%
X73675000Y-88000000D03*
X75500000Y-88000000D03*
%TD*%
D20*
%TO.C,D37*%
X105064971Y-155435029D03*
X102731519Y-157768481D03*
%TD*%
D13*
%TO.C,R20*%
X75400000Y-97487500D03*
X75400000Y-99312500D03*
%TD*%
D12*
%TO.C,FB1*%
X77162500Y-62000000D03*
X75337500Y-62000000D03*
%TD*%
D17*
%TO.C,D4*%
X167650000Y-42000000D03*
X164350000Y-42000000D03*
%TD*%
D15*
%TO.C,R3*%
X82987500Y-145800000D03*
X84812500Y-145800000D03*
%TD*%
D12*
%TO.C,R14*%
X89800000Y-88288889D03*
X87975000Y-88288889D03*
%TD*%
D15*
%TO.C,R29*%
X73675000Y-90500000D03*
X75500000Y-90500000D03*
%TD*%
D17*
%TO.C,D24*%
X148650000Y-100000000D03*
X145350000Y-100000000D03*
%TD*%
%TO.C,D15*%
X110650000Y-88000000D03*
X107350000Y-88000000D03*
%TD*%
%TO.C,D33*%
X186650000Y-119000000D03*
X183350000Y-119000000D03*
%TD*%
M02*
