%TF.GenerationSoftware,KiCad,Pcbnew,(6.0.7-1)-1*%
%TF.CreationDate,2022-10-21T15:59:20-04:00*%
%TF.ProjectId,Splitboard-B,53706c69-7462-46f6-9172-642d422e6b69,rev?*%
%TF.SameCoordinates,Original*%
%TF.FileFunction,Copper,L1,Top*%
%TF.FilePolarity,Positive*%
%FSLAX46Y46*%
G04 Gerber Fmt 4.6, Leading zero omitted, Abs format (unit mm)*
G04 Created by KiCad (PCBNEW (6.0.7-1)-1) date 2022-10-21 15:59:20*
%MOMM*%
%LPD*%
G01*
G04 APERTURE LIST*
G04 Aperture macros list*
%AMHorizOval*
0 Thick line with rounded ends*
0 $1 width*
0 $2 $3 position (X,Y) of the first rounded end (center of the circle)*
0 $4 $5 position (X,Y) of the second rounded end (center of the circle)*
0 Add line between two ends*
20,1,$1,$2,$3,$4,$5,0*
0 Add two circle primitives to create the rounded ends*
1,1,$1,$2,$3*
1,1,$1,$4,$5*%
G04 Aperture macros list end*
%TA.AperFunction,ComponentPad*%
%ADD10C,3.600000*%
%TD*%
%TA.AperFunction,ComponentPad*%
%ADD11C,4.000000*%
%TD*%
%TA.AperFunction,ComponentPad*%
%ADD12R,1.500000X1.500000*%
%TD*%
%TA.AperFunction,ComponentPad*%
%ADD13C,1.500000*%
%TD*%
%TA.AperFunction,ComponentPad*%
%ADD14R,2.000000X2.000000*%
%TD*%
%TA.AperFunction,ComponentPad*%
%ADD15C,2.000000*%
%TD*%
%TA.AperFunction,ComponentPad*%
%ADD16R,3.200000X2.000000*%
%TD*%
%TA.AperFunction,ComponentPad*%
%ADD17R,1.700000X1.700000*%
%TD*%
%TA.AperFunction,ComponentPad*%
%ADD18O,1.700000X1.700000*%
%TD*%
%TA.AperFunction,ComponentPad*%
%ADD19R,1.600000X1.600000*%
%TD*%
%TA.AperFunction,ComponentPad*%
%ADD20O,1.600000X1.600000*%
%TD*%
%TA.AperFunction,ComponentPad*%
%ADD21C,0.650000*%
%TD*%
%TA.AperFunction,ComponentPad*%
%ADD22HorizOval,0.800000X-0.102606X0.281908X0.102606X-0.281908X0*%
%TD*%
%TA.AperFunction,ViaPad*%
%ADD23C,0.800000*%
%TD*%
%TA.AperFunction,ViaPad*%
%ADD24C,1.500000*%
%TD*%
%TA.AperFunction,Conductor*%
%ADD25C,0.250000*%
%TD*%
%TA.AperFunction,Conductor*%
%ADD26C,1.250000*%
%TD*%
G04 APERTURE END LIST*
D10*
%TO.P,K28,1*%
%TO.N,/col3*%
X215190000Y-99460000D03*
%TO.P,K28,2*%
%TO.N,Net-(D28-Pad2)*%
X221540000Y-96920000D03*
%TD*%
%TO.P,K11,1*%
%TO.N,/col1*%
X158190000Y-53460000D03*
%TO.P,K11,2*%
%TO.N,Net-(D11-Pad2)*%
X164540000Y-50920000D03*
%TD*%
D11*
%TO.P,U1,*%
%TO.N,*%
X54110000Y-128000000D03*
X54110000Y-66800000D03*
X88210000Y-66800000D03*
X88210000Y-128000000D03*
D12*
%TO.P,U1,1,VCC*%
%TO.N,VBUS*%
X61000000Y-129500000D03*
D13*
%TO.P,U1,2,GND*%
%TO.N,GND*%
X63540000Y-129500000D03*
%TO.P,U1,3,~{CS}*%
%TO.N,/LCD2_CS*%
X66080000Y-129500000D03*
%TO.P,U1,4,RESET*%
%TO.N,/LCD2_RST*%
X68620000Y-129500000D03*
%TO.P,U1,5,D/~{C}*%
%TO.N,/LCD2_DC*%
X71160000Y-129500000D03*
%TO.P,U1,6,MOSI*%
%TO.N,/MOSI*%
X73700000Y-129500000D03*
%TO.P,U1,7,SCK*%
%TO.N,/SCK*%
X76240000Y-129500000D03*
%TO.P,U1,8,LED*%
%TO.N,+3.3V*%
X78780000Y-129500000D03*
%TO.P,U1,9,MISO*%
%TO.N,unconnected-(U1-Pad9)*%
X81320000Y-129500000D03*
%TO.P,U1,10,SD_CS*%
%TO.N,unconnected-(U1-Pad10)*%
X66080000Y-65980000D03*
%TO.P,U1,11,SD_MOSI*%
%TO.N,unconnected-(U1-Pad11)*%
X68620000Y-65980000D03*
%TO.P,U1,12,SD_MISO*%
%TO.N,unconnected-(U1-Pad12)*%
X71160000Y-65980000D03*
%TO.P,U1,13,SD_SCK*%
%TO.N,unconnected-(U1-Pad13)*%
X73700000Y-65980000D03*
%TO.P,U1,14,FLASH_CD*%
%TO.N,unconnected-(U1-Pad14)*%
X76240000Y-65980000D03*
%TD*%
D10*
%TO.P,K33,1*%
%TO.N,/col4*%
X177190000Y-111460000D03*
%TO.P,K33,2*%
%TO.N,Net-(D33-Pad2)*%
X183540000Y-108920000D03*
%TD*%
%TO.P,K20,1*%
%TO.N,/col2*%
X196190000Y-76460000D03*
%TO.P,K20,2*%
%TO.N,Net-(D20-Pad2)*%
X202540000Y-73920000D03*
%TD*%
%TO.P,K13,1*%
%TO.N,/col1*%
X196190000Y-57460000D03*
%TO.P,K13,2*%
%TO.N,Net-(D13-Pad2)*%
X202540000Y-54920000D03*
%TD*%
%TO.P,K7,1*%
%TO.N,/col0*%
X215190000Y-42460000D03*
%TO.P,K7,2*%
%TO.N,Net-(D7-Pad2)*%
X221540000Y-39920000D03*
%TD*%
%TO.P,K17,1*%
%TO.N,/col2*%
X139190000Y-73460000D03*
%TO.P,K17,2*%
%TO.N,Net-(D17-Pad2)*%
X145540000Y-70920000D03*
%TD*%
%TO.P,K16,1*%
%TO.N,/col2*%
X120000000Y-76000000D03*
%TO.P,K16,2*%
%TO.N,Net-(D16-Pad2)*%
X126350000Y-73460000D03*
%TD*%
%TO.P,K37,1*%
%TO.N,/col5*%
X92905137Y-156898026D03*
%TO.P,K37,2*%
%TO.N,Net-(D37-Pad2)*%
X95599214Y-150611846D03*
%TD*%
%TO.P,K2,1*%
%TO.N,/col0*%
X120000000Y-38000000D03*
%TO.P,K2,2*%
%TO.N,Net-(D2-Pad2)*%
X126350000Y-35460000D03*
%TD*%
%TO.P,K38,1*%
%TO.N,/col5*%
X106340166Y-143462997D03*
%TO.P,K38,2*%
%TO.N,Net-(D38-Pad2)*%
X109034243Y-137176817D03*
%TD*%
%TO.P,K5,1*%
%TO.N,/col0*%
X177190000Y-35460000D03*
%TO.P,K5,2*%
%TO.N,Net-(D5-Pad2)*%
X183540000Y-32920000D03*
%TD*%
%TO.P,K9,1*%
%TO.N,/col1*%
X120000000Y-57000000D03*
%TO.P,K9,2*%
%TO.N,Net-(D9-Pad2)*%
X126350000Y-54460000D03*
%TD*%
%TO.P,K32,1*%
%TO.N,/col4*%
X158190000Y-110460000D03*
%TO.P,K32,2*%
%TO.N,Net-(D32-Pad2)*%
X164540000Y-107920000D03*
%TD*%
%TO.P,K1,1*%
%TO.N,/col0*%
X101190000Y-42460000D03*
%TO.P,K1,2*%
%TO.N,Net-(D1-Pad2)*%
X107540000Y-39920000D03*
%TD*%
%TO.P,K26,1*%
%TO.N,/col3*%
X177190000Y-92460000D03*
%TO.P,K26,2*%
%TO.N,Net-(D26-Pad2)*%
X183540000Y-89920000D03*
%TD*%
D14*
%TO.P,SW1,A,A*%
%TO.N,Net-(R4-Pad2)*%
X65650000Y-140700000D03*
D15*
%TO.P,SW1,B,B*%
%TO.N,Net-(R6-Pad2)*%
X65650000Y-145700000D03*
%TO.P,SW1,C,C*%
%TO.N,GND*%
X65650000Y-143200000D03*
D16*
%TO.P,SW1,MP*%
%TO.N,N/C*%
X73150000Y-148800000D03*
X73150000Y-137600000D03*
D15*
%TO.P,SW1,S1,S1*%
%TO.N,/ENC_SW*%
X80150000Y-145700000D03*
%TO.P,SW1,S2,S2*%
%TO.N,GND*%
X80150000Y-140700000D03*
%TD*%
D10*
%TO.P,K4,1*%
%TO.N,/col0*%
X158190000Y-34460000D03*
%TO.P,K4,2*%
%TO.N,Net-(D4-Pad2)*%
X164540000Y-31920000D03*
%TD*%
%TO.P,K34,1*%
%TO.N,/col4*%
X196190000Y-114460000D03*
%TO.P,K34,2*%
%TO.N,Net-(D34-Pad2)*%
X202540000Y-111920000D03*
%TD*%
%TO.P,K30,1*%
%TO.N,/col4*%
X120000000Y-114000000D03*
%TO.P,K30,2*%
%TO.N,Net-(D30-Pad2)*%
X126350000Y-111460000D03*
%TD*%
%TO.P,K14,1*%
%TO.N,/col1*%
X215190000Y-61460000D03*
%TO.P,K14,2*%
%TO.N,Net-(D14-Pad2)*%
X221540000Y-58920000D03*
%TD*%
%TO.P,K12,1*%
%TO.N,/col1*%
X177190000Y-54460000D03*
%TO.P,K12,2*%
%TO.N,Net-(D12-Pad2)*%
X183540000Y-51920000D03*
%TD*%
%TO.P,K22,1*%
%TO.N,/col3*%
X101190000Y-99460000D03*
%TO.P,K22,2*%
%TO.N,Net-(D22-Pad2)*%
X107540000Y-96920000D03*
%TD*%
%TO.P,K6,1*%
%TO.N,/col0*%
X196190000Y-38460000D03*
%TO.P,K6,2*%
%TO.N,Net-(D6-Pad2)*%
X202540000Y-35920000D03*
%TD*%
%TO.P,K8,1*%
%TO.N,/col1*%
X101190000Y-61460000D03*
%TO.P,K8,2*%
%TO.N,Net-(D8-Pad2)*%
X107540000Y-58920000D03*
%TD*%
%TO.P,K18,1*%
%TO.N,/col2*%
X158190000Y-72460000D03*
%TO.P,K18,2*%
%TO.N,Net-(D18-Pad2)*%
X164540000Y-69920000D03*
%TD*%
%TO.P,K15,1*%
%TO.N,/col2*%
X101190000Y-80460000D03*
%TO.P,K15,2*%
%TO.N,Net-(D15-Pad2)*%
X107540000Y-77920000D03*
%TD*%
%TO.P,K21,1*%
%TO.N,/col2*%
X215190000Y-80460000D03*
%TO.P,K21,2*%
%TO.N,Net-(D21-Pad2)*%
X221540000Y-77920000D03*
%TD*%
%TO.P,K19,1*%
%TO.N,/col2*%
X177190000Y-73460000D03*
%TO.P,K19,2*%
%TO.N,Net-(D19-Pad2)*%
X183540000Y-70920000D03*
%TD*%
%TO.P,K25,1*%
%TO.N,/col3*%
X158190000Y-91460000D03*
%TO.P,K25,2*%
%TO.N,Net-(D25-Pad2)*%
X164540000Y-88920000D03*
%TD*%
%TO.P,K10,1*%
%TO.N,/col1*%
X139190000Y-54460000D03*
%TO.P,K10,2*%
%TO.N,Net-(D10-Pad2)*%
X145540000Y-51920000D03*
%TD*%
%TO.P,K31,1*%
%TO.N,/col4*%
X139190000Y-111460000D03*
%TO.P,K31,2*%
%TO.N,Net-(D31-Pad2)*%
X145540000Y-108920000D03*
%TD*%
%TO.P,K23,1*%
%TO.N,/col3*%
X120000000Y-95000000D03*
%TO.P,K23,2*%
%TO.N,Net-(D23-Pad2)*%
X126350000Y-92460000D03*
%TD*%
%TO.P,K29,1*%
%TO.N,/col4*%
X101190000Y-118460000D03*
%TO.P,K29,2*%
%TO.N,Net-(D29-Pad2)*%
X107540000Y-115920000D03*
%TD*%
%TO.P,K24,1*%
%TO.N,/col3*%
X139190000Y-92460000D03*
%TO.P,K24,2*%
%TO.N,Net-(D24-Pad2)*%
X145540000Y-89920000D03*
%TD*%
%TO.P,K36,1*%
%TO.N,/col5*%
X79470108Y-170333054D03*
%TO.P,K36,2*%
%TO.N,Net-(D36-Pad2)*%
X82164185Y-164046874D03*
%TD*%
%TO.P,K35,1*%
%TO.N,/col4*%
X215190000Y-118460000D03*
%TO.P,K35,2*%
%TO.N,Net-(D35-Pad2)*%
X221540000Y-115920000D03*
%TD*%
%TO.P,K27,1*%
%TO.N,/col3*%
X196190000Y-95460000D03*
%TO.P,K27,2*%
%TO.N,Net-(D27-Pad2)*%
X202540000Y-92920000D03*
%TD*%
%TO.P,K3,1*%
%TO.N,/col0*%
X139190000Y-35460000D03*
%TO.P,K3,2*%
%TO.N,Net-(D3-Pad2)*%
X145540000Y-32920000D03*
%TD*%
D17*
%TO.P,J2,1,Pin_1*%
%TO.N,+3.3V*%
X58975000Y-73650000D03*
D18*
%TO.P,J2,2,Pin_2*%
%TO.N,/SCL*%
X58975000Y-76190000D03*
%TO.P,J2,3,Pin_3*%
%TO.N,/SDA*%
X58975000Y-78730000D03*
%TO.P,J2,4,Pin_4*%
%TO.N,/LCD2_CS*%
X58975000Y-81270000D03*
%TO.P,J2,5,Pin_5*%
%TO.N,/LCD2_DC*%
X58975000Y-83810000D03*
%TO.P,J2,6,Pin_6*%
%TO.N,/LCD2_RST*%
X58975000Y-86350000D03*
%TO.P,J2,7,Pin_7*%
%TO.N,/MOSI*%
X58975000Y-88890000D03*
%TO.P,J2,8,Pin_8*%
%TO.N,/SCK*%
X58975000Y-91430000D03*
%TO.P,J2,9,Pin_9*%
%TO.N,GND*%
X58975000Y-93970000D03*
%TD*%
D19*
%TO.P,U2,1,GPB0*%
%TO.N,Net-(R9-Pad2)*%
X85800000Y-75500000D03*
D20*
%TO.P,U2,2,GPB1*%
%TO.N,Net-(R10-Pad2)*%
X85800000Y-78040000D03*
%TO.P,U2,3,GPB2*%
%TO.N,Net-(R11-Pad2)*%
X85800000Y-80580000D03*
%TO.P,U2,4,GPB3*%
%TO.N,Net-(R12-Pad2)*%
X85800000Y-83120000D03*
%TO.P,U2,5,GPB4*%
%TO.N,Net-(R13-Pad2)*%
X85800000Y-85660000D03*
%TO.P,U2,6,GPB5*%
%TO.N,Net-(R14-Pad2)*%
X85800000Y-88200000D03*
%TO.P,U2,7,GPB6*%
%TO.N,Net-(R15-Pad2)*%
X85800000Y-90740000D03*
%TO.P,U2,8,GPB7*%
%TO.N,Net-(R16-Pad2)*%
X85800000Y-93280000D03*
%TO.P,U2,9,VDD*%
%TO.N,+3.3V*%
X85800000Y-95820000D03*
%TO.P,U2,10,VSS*%
%TO.N,GND*%
X85800000Y-98360000D03*
%TO.P,U2,11,NC*%
%TO.N,unconnected-(U2-Pad11)*%
X85800000Y-100900000D03*
%TO.P,U2,12,SCK*%
%TO.N,/SDA*%
X85800000Y-103440000D03*
%TO.P,U2,13,SDA*%
%TO.N,/SCL*%
X85800000Y-105980000D03*
%TO.P,U2,14,NC*%
%TO.N,unconnected-(U2-Pad14)*%
X85800000Y-108520000D03*
%TO.P,U2,15,A0*%
%TO.N,GND*%
X78180000Y-108520000D03*
%TO.P,U2,16,A1*%
X78180000Y-105980000D03*
%TO.P,U2,17,A2*%
X78180000Y-103440000D03*
%TO.P,U2,18,~{RESET}*%
%TO.N,+3.3V*%
X78180000Y-100900000D03*
%TO.P,U2,19,INTB*%
%TO.N,unconnected-(U2-Pad19)*%
X78180000Y-98360000D03*
%TO.P,U2,20,INTA*%
%TO.N,unconnected-(U2-Pad20)*%
X78180000Y-95820000D03*
%TO.P,U2,21,GPA0*%
%TO.N,Net-(R23-Pad1)*%
X78180000Y-93280000D03*
%TO.P,U2,22,GPA1*%
%TO.N,Net-(R22-Pad1)*%
X78180000Y-90740000D03*
%TO.P,U2,23,GPA2*%
%TO.N,Net-(R21-Pad1)*%
X78180000Y-88200000D03*
%TO.P,U2,24,GPA3*%
%TO.N,Net-(R20-Pad1)*%
X78180000Y-85660000D03*
%TO.P,U2,25,GPA4*%
%TO.N,Net-(R19-Pad1)*%
X78180000Y-83120000D03*
%TO.P,U2,26,GPA5*%
%TO.N,Net-(R18-Pad1)*%
X78180000Y-80580000D03*
%TO.P,U2,27,GPA6*%
%TO.N,Net-(R8-Pad2)*%
X78180000Y-78040000D03*
%TO.P,U2,28,GPA7*%
%TO.N,Net-(R17-Pad2)*%
X78180000Y-75500000D03*
%TD*%
D21*
%TO.P,J1,B1,GND*%
%TO.N,GND*%
X88150034Y-50028603D03*
%TO.P,J1,B2,TX2+*%
%TO.N,Net-(J1-PadA2)*%
X87534743Y-49507626D03*
%TO.P,J1,B3,TX2-*%
%TO.N,Net-(J1-PadA3)*%
X86782989Y-49781243D03*
%TO.P,J1,B4,VBUS*%
%TO.N,VBUS*%
X86646526Y-50575835D03*
%TO.P,J1,B5,CC2*%
%TO.N,Net-(J1-PadA5)*%
X86031235Y-50054859D03*
%TO.P,J1,B6,D+*%
%TO.N,Net-(J1-PadA6)*%
X85894772Y-50849452D03*
%TO.P,J1,B7,D-*%
%TO.N,Net-(J1-PadA7)*%
X85143018Y-51123068D03*
%TO.P,J1,B8,SBU2*%
%TO.N,Net-(J1-PadA8)*%
X84527727Y-50602091D03*
%TO.P,J1,B9,VBUS*%
%TO.N,VBUS*%
X84391264Y-51396684D03*
%TO.P,J1,B10,RX1-*%
%TO.N,Net-(J1-PadA10)*%
X83775972Y-50875707D03*
%TO.P,J1,B11,RX1+*%
%TO.N,Net-(J1-PadA11)*%
X83024218Y-51149323D03*
%TO.P,J1,B12,GND*%
%TO.N,GND*%
X82887755Y-51943916D03*
D22*
%TO.P,J1,S1,SHIELD*%
X87497883Y-43295603D03*
X79059443Y-46366943D03*
X89194613Y-49009901D03*
X81432752Y-51834987D03*
%TD*%
D23*
%TO.N,/row0*%
X113500000Y-107000000D03*
X113500000Y-69000000D03*
X113500000Y-50000000D03*
X105400000Y-74200000D03*
X113495278Y-125998054D03*
X113500000Y-88000000D03*
%TO.N,/row1*%
X132500000Y-45500000D03*
X94400000Y-83000000D03*
X132500000Y-121500000D03*
X132500000Y-102500000D03*
X132500000Y-64500000D03*
X132500000Y-83500000D03*
X110200000Y-85400000D03*
%TO.N,/row2*%
X151500000Y-81000000D03*
X151500000Y-62000000D03*
X151500000Y-43000000D03*
X151500000Y-100000000D03*
X151500000Y-119000000D03*
%TO.N,/row3*%
X170500000Y-80000000D03*
X170500000Y-42000000D03*
X170500000Y-61000000D03*
X170500000Y-118000000D03*
X170500000Y-99000000D03*
%TO.N,/col0*%
X72000000Y-78575500D03*
X72000000Y-93000000D03*
%TO.N,/col1*%
X72224500Y-90000000D03*
X76624500Y-78400000D03*
%TO.N,/row4*%
X189483957Y-61984389D03*
X189500000Y-81000000D03*
X189500000Y-119000000D03*
X189500000Y-43000000D03*
X189500000Y-100000000D03*
%TO.N,/row5*%
X208500000Y-46000000D03*
X208500000Y-103000000D03*
X208500000Y-122000000D03*
X208500000Y-65000000D03*
X208500000Y-84000000D03*
%TO.N,/col5*%
X74177700Y-133077700D03*
%TO.N,GND*%
X93200000Y-56500000D03*
X76300000Y-52400000D03*
X64600000Y-105600000D03*
X73900000Y-55600000D03*
%TO.N,+3.3V*%
X77000000Y-118500000D03*
X69800000Y-88312500D03*
X66300000Y-70800000D03*
X82275500Y-96800000D03*
X73700000Y-78000000D03*
X77000000Y-112500000D03*
X64100000Y-67200000D03*
D24*
%TO.N,VBUS*%
X92100000Y-48100000D03*
X81600000Y-53975500D03*
X84075491Y-60754936D03*
X82900000Y-58125500D03*
D23*
%TO.N,Net-(J1-PadA2)*%
X84203486Y-57100000D03*
%TO.N,/LCD2_RST*%
X64375500Y-76800000D03*
%TO.N,/MOSI*%
X64875500Y-74800000D03*
%TO.N,/SDA*%
X61500000Y-78700000D03*
X85200000Y-60000000D03*
X67000000Y-83000000D03*
X77000000Y-58499500D03*
%TO.N,/SCL*%
X70775500Y-81112500D03*
%TO.N,/SCK*%
X65600000Y-72800000D03*
%TO.N,/LCD2_DC*%
X63300000Y-77700000D03*
%TO.N,Net-(J1-PadA3)*%
X90650000Y-56150000D03*
X84653486Y-58216480D03*
%TO.N,Net-(J1-PadA5)*%
X85500500Y-59046742D03*
X89800000Y-56900000D03*
%TO.N,Net-(J1-PadA6)*%
X71200000Y-69849500D03*
X68800000Y-83000000D03*
%TO.N,Net-(J1-PadA7)*%
X87400000Y-58600000D03*
X91200000Y-62400000D03*
X87000000Y-55300000D03*
%TO.N,Net-(J1-PadA8)*%
X88964300Y-54496936D03*
%TO.N,Net-(J1-PadA10)*%
X90200000Y-54475500D03*
X92200000Y-53500000D03*
%TO.N,Net-(J1-PadA11)*%
X90275451Y-53375451D03*
%TO.N,Net-(R8-Pad2)*%
X83500000Y-128100000D03*
%TO.N,Net-(R9-Pad2)*%
X56500000Y-133300000D03*
%TO.N,Net-(R10-Pad2)*%
X80600000Y-142275500D03*
%TO.N,Net-(R20-Pad1)*%
X75725500Y-96875500D03*
%TO.N,Net-(R21-Pad1)*%
X72100000Y-94700000D03*
%TO.N,Net-(R22-Pad1)*%
X74100000Y-94500000D03*
%TO.N,Net-(R23-Pad1)*%
X72000000Y-96100000D03*
%TD*%
D25*
%TO.N,/row0*%
X113400000Y-74200000D02*
X113500000Y-74100000D01*
X105400000Y-74200000D02*
X113400000Y-74200000D01*
X113500000Y-88000000D02*
X113500000Y-107000000D01*
X113500000Y-74100000D02*
X113500000Y-88000000D01*
X113500000Y-50000000D02*
X113500000Y-69000000D01*
X113500000Y-69000000D02*
X113500000Y-74100000D01*
X113500000Y-107000000D02*
X113500000Y-126000000D01*
%TO.N,/row1*%
X132500000Y-64500000D02*
X132500000Y-83500000D01*
X132500000Y-45500000D02*
X132500000Y-64500000D01*
X132500000Y-102500000D02*
X132500000Y-121500000D01*
X94400000Y-83000000D02*
X95800000Y-83000000D01*
X95800000Y-83000000D02*
X98400000Y-85600000D01*
X98400000Y-85600000D02*
X110000000Y-85600000D01*
X110000000Y-85600000D02*
X110200000Y-85400000D01*
X132500000Y-83500000D02*
X132500000Y-102500000D01*
%TO.N,/row2*%
X151500000Y-100000000D02*
X151500000Y-119000000D01*
X151500000Y-81000000D02*
X151500000Y-100000000D01*
X151500000Y-62000000D02*
X151500000Y-81000000D01*
X151500000Y-43000000D02*
X151500000Y-62000000D01*
%TO.N,/row3*%
X170500000Y-61000000D02*
X170500000Y-80000000D01*
X170500000Y-99000000D02*
X170500000Y-118000000D01*
X170500000Y-80000000D02*
X170500000Y-99000000D01*
X170500000Y-42000000D02*
X170500000Y-61000000D01*
%TO.N,/col0*%
X71500000Y-92500000D02*
X72000000Y-93000000D01*
X71500000Y-79075500D02*
X71500000Y-92500000D01*
X72000000Y-78575500D02*
X71500000Y-79075500D01*
%TO.N,/col1*%
X72224500Y-82800000D02*
X72224500Y-90000000D01*
X76624500Y-78400000D02*
X72224500Y-82800000D01*
%TO.N,/row4*%
X189483957Y-61984389D02*
X189483957Y-80984389D01*
X189500000Y-81000000D02*
X189500000Y-100000000D01*
X189500000Y-43000000D02*
X189500000Y-62000000D01*
X189500000Y-100000000D02*
X189500000Y-119000000D01*
%TO.N,/row5*%
X208500000Y-65000000D02*
X208500000Y-84000000D01*
X208500000Y-46000000D02*
X208500000Y-65000000D01*
X208500000Y-103000000D02*
X208500000Y-122000000D01*
X208500000Y-84000000D02*
X208500000Y-103000000D01*
%TO.N,/col5*%
X79398026Y-156898026D02*
X92905137Y-156898026D01*
X74577700Y-133077700D02*
X75300000Y-133800000D01*
X75300000Y-152800000D02*
X79398026Y-156898026D01*
X75300000Y-133800000D02*
X75300000Y-152800000D01*
X106340166Y-143462997D02*
X92905137Y-156898026D01*
X74177700Y-133077700D02*
X74577700Y-133077700D01*
X92905137Y-156898026D02*
X79470108Y-170333054D01*
%TO.N,GND*%
X93200000Y-67036396D02*
X93200000Y-56500000D01*
X84450000Y-97010000D02*
X84450000Y-74186396D01*
X62900000Y-143200000D02*
X65650000Y-143200000D01*
X59000000Y-127700000D02*
X54300000Y-132400000D01*
X64600000Y-105600000D02*
X64980000Y-105980000D01*
X63540000Y-128440000D02*
X62800000Y-127700000D01*
X85800000Y-98360000D02*
X84450000Y-97010000D01*
X54300000Y-134600000D02*
X62900000Y-143200000D01*
X80150000Y-140700000D02*
X80150000Y-127950000D01*
X84450000Y-74186396D02*
X84786396Y-73850000D01*
X64980000Y-105980000D02*
X78180000Y-105980000D01*
X84786396Y-73850000D02*
X84900000Y-73850000D01*
X73900000Y-54800000D02*
X73900000Y-55600000D01*
X62800000Y-127700000D02*
X59000000Y-127700000D01*
X78180000Y-125980000D02*
X78180000Y-108520000D01*
X54300000Y-132400000D02*
X54300000Y-134600000D01*
X86386396Y-73850000D02*
X93200000Y-67036396D01*
X76300000Y-52400000D02*
X73900000Y-54800000D01*
X84900000Y-73850000D02*
X86386396Y-73850000D01*
X63540000Y-129500000D02*
X63540000Y-128440000D01*
X80150000Y-127950000D02*
X78180000Y-125980000D01*
%TO.N,+3.3V*%
X82500000Y-96575500D02*
X82500000Y-69500000D01*
X82500000Y-69500000D02*
X82000000Y-69000000D01*
X66300000Y-70800000D02*
X68000000Y-72500000D01*
X68112500Y-88312500D02*
X69800000Y-88312500D01*
X77000000Y-127720000D02*
X77000000Y-118500000D01*
X73700000Y-69000000D02*
X68900000Y-69000000D01*
X64100000Y-67200000D02*
X64100000Y-68600000D01*
X77000000Y-118500000D02*
X77000000Y-112500000D01*
X68000000Y-88200000D02*
X68112500Y-88312500D01*
X73700000Y-78000000D02*
X73700000Y-69000000D01*
X68000000Y-72500000D02*
X68000000Y-88200000D01*
X66000000Y-70500000D02*
X66300000Y-70800000D01*
X82000000Y-69000000D02*
X73700000Y-69000000D01*
X64100000Y-68600000D02*
X66000000Y-70500000D01*
X82275500Y-96800000D02*
X82500000Y-96575500D01*
X68900000Y-69000000D02*
X67400000Y-70500000D01*
X67400000Y-70500000D02*
X66000000Y-70500000D01*
X78780000Y-129500000D02*
X77000000Y-127720000D01*
D26*
%TO.N,VBUS*%
X87418974Y-51700000D02*
X87044772Y-51325798D01*
X83650000Y-53250000D02*
X85068069Y-53250000D01*
D25*
X84391264Y-51396684D02*
X84767648Y-51773068D01*
D26*
X84400000Y-52500000D02*
X84400000Y-52218069D01*
X84400000Y-52218069D02*
X84391264Y-52218069D01*
X87055033Y-51100000D02*
X87055033Y-51300000D01*
X81600000Y-54000000D02*
X81700000Y-54100000D01*
X89800000Y-51700000D02*
X87418974Y-51700000D01*
X92100000Y-48100000D02*
X91200000Y-49000000D01*
X91200000Y-50300000D02*
X89800000Y-51700000D01*
X91200000Y-49000000D02*
X91200000Y-50300000D01*
X87044772Y-51325798D02*
X87044772Y-51100000D01*
X86100000Y-52218069D02*
X86152501Y-52218069D01*
X82900000Y-59432412D02*
X84075491Y-60607903D01*
X81700000Y-54100000D02*
X82800000Y-54100000D01*
X83650000Y-53250000D02*
X84400000Y-52500000D01*
X84075491Y-60607903D02*
X84075491Y-60754936D01*
X87044772Y-51100000D02*
X87055033Y-51100000D01*
X86152501Y-52218069D02*
X87044772Y-51325798D01*
X82900000Y-58125500D02*
X82900000Y-59432412D01*
X81600000Y-53975500D02*
X81600000Y-54000000D01*
X82800000Y-54100000D02*
X83650000Y-53250000D01*
X85068069Y-53250000D02*
X86100000Y-52218069D01*
D25*
%TO.N,Net-(J1-PadA2)*%
X88663995Y-55221936D02*
X89264605Y-55221936D01*
X86992647Y-56332658D02*
X88125305Y-55200000D01*
X93700000Y-47372792D02*
X92977208Y-46650000D01*
X84203486Y-57100000D02*
X86174450Y-57100000D01*
X88386396Y-46650000D02*
X87534743Y-47501653D01*
X93700000Y-53600000D02*
X93700000Y-47372792D01*
X88125305Y-55200000D02*
X88642059Y-55200000D01*
X89264605Y-55221936D02*
X89286541Y-55200000D01*
X88642059Y-55200000D02*
X88663995Y-55221936D01*
X92100000Y-55200000D02*
X93700000Y-53600000D01*
X92977208Y-46650000D02*
X88386396Y-46650000D01*
X87534743Y-47501653D02*
X87534743Y-49507626D01*
X89286541Y-55200000D02*
X92100000Y-55200000D01*
X86941792Y-56332658D02*
X86992647Y-56332658D01*
X86174450Y-57100000D02*
X86941792Y-56332658D01*
%TO.N,/LCD2_RST*%
X68620000Y-129500000D02*
X69920000Y-130800000D01*
X62550000Y-86350000D02*
X58975000Y-86350000D01*
X58700000Y-109400000D02*
X58700000Y-103600000D01*
X55900000Y-89425000D02*
X58975000Y-86350000D01*
X64375500Y-76800000D02*
X64375500Y-84524500D01*
X69920000Y-130800000D02*
X71600000Y-130800000D01*
X55900000Y-100800000D02*
X55900000Y-89425000D01*
X72400000Y-123100000D02*
X58700000Y-109400000D01*
X72400000Y-130000000D02*
X72400000Y-123100000D01*
X71600000Y-130800000D02*
X72400000Y-130000000D01*
X64375500Y-84524500D02*
X62550000Y-86350000D01*
X58700000Y-103600000D02*
X55900000Y-100800000D01*
%TO.N,/MOSI*%
X65100000Y-87400000D02*
X63610000Y-88890000D01*
X73700000Y-129500000D02*
X73700000Y-122300000D01*
X73700000Y-122300000D02*
X61500000Y-110100000D01*
X56500000Y-96800000D02*
X56500000Y-90200000D01*
X56500000Y-90200000D02*
X57810000Y-88890000D01*
X65100000Y-75024500D02*
X65100000Y-87400000D01*
X63610000Y-88890000D02*
X58975000Y-88890000D01*
X61500000Y-101800000D02*
X56500000Y-96800000D01*
X64875500Y-74800000D02*
X65100000Y-75024500D01*
X61500000Y-110100000D02*
X61500000Y-101800000D01*
X57810000Y-88890000D02*
X58975000Y-88890000D01*
%TO.N,/SDA*%
X86200000Y-73400000D02*
X84600000Y-73400000D01*
X63300000Y-66300000D02*
X63300000Y-65700000D01*
X92000000Y-67600000D02*
X86200000Y-73400000D01*
X84000000Y-74000000D02*
X84000000Y-101640000D01*
X84600000Y-73400000D02*
X84000000Y-74000000D01*
X87000000Y-60000000D02*
X92000000Y-65000000D01*
X92000000Y-65000000D02*
X92000000Y-67600000D01*
X61500000Y-68100000D02*
X63300000Y-66300000D01*
X84000000Y-101640000D02*
X85800000Y-103440000D01*
X76999500Y-58500000D02*
X77000000Y-58499500D01*
X85200000Y-60000000D02*
X87000000Y-60000000D01*
X61500000Y-78700000D02*
X61500000Y-68100000D01*
X70500000Y-58500000D02*
X76999500Y-58500000D01*
X63300000Y-65700000D02*
X70500000Y-58500000D01*
%TO.N,/SCL*%
X70775500Y-81112500D02*
X70775500Y-78124500D01*
X85800000Y-105980000D02*
X83000000Y-103180000D01*
X60800000Y-67563604D02*
X60800000Y-76190000D01*
X83000000Y-98500000D02*
X83000000Y-61700000D01*
X70775500Y-78124500D02*
X71200000Y-77700000D01*
X60800000Y-76190000D02*
X58975000Y-76190000D01*
X70588604Y-57775000D02*
X60800000Y-67563604D01*
X76800000Y-76900000D02*
X79200000Y-76900000D01*
X83000000Y-103180000D02*
X83000000Y-98500000D01*
X79200000Y-76900000D02*
X81500000Y-79200000D01*
X79075000Y-57775000D02*
X70588604Y-57775000D01*
X81500000Y-98500000D02*
X83000000Y-98500000D01*
X81500000Y-79200000D02*
X81500000Y-98500000D01*
X74800000Y-78900000D02*
X76800000Y-76900000D01*
X72149805Y-77700000D02*
X73349805Y-78900000D01*
X83000000Y-61700000D02*
X79075000Y-57775000D01*
X73349805Y-78900000D02*
X74800000Y-78900000D01*
X71200000Y-77700000D02*
X72149805Y-77700000D01*
%TO.N,/SCK*%
X76240000Y-129500000D02*
X76240000Y-121440000D01*
X65600000Y-72800000D02*
X65600000Y-89700000D01*
X62200000Y-107400000D02*
X62200000Y-94655000D01*
X62200000Y-94655000D02*
X58975000Y-91430000D01*
X76240000Y-121440000D02*
X62200000Y-107400000D01*
X63870000Y-91430000D02*
X58975000Y-91430000D01*
X65600000Y-89700000D02*
X63870000Y-91430000D01*
%TO.N,/LCD2_DC*%
X54400000Y-107500000D02*
X54400000Y-88385000D01*
X71160000Y-129500000D02*
X71160000Y-124260000D01*
X63300000Y-79485000D02*
X58975000Y-83810000D01*
X71160000Y-124260000D02*
X54400000Y-107500000D01*
X54400000Y-88385000D02*
X58975000Y-83810000D01*
X63300000Y-77700000D02*
X63300000Y-79485000D01*
%TO.N,Net-(J1-PadA3)*%
X87811701Y-56150000D02*
X90650000Y-56150000D01*
X85694366Y-58216480D02*
X87128188Y-56782658D01*
X87128188Y-56782658D02*
X87179043Y-56782658D01*
X91813604Y-56150000D02*
X94150000Y-53813604D01*
X94150000Y-47186396D02*
X93163604Y-46200000D01*
X90650000Y-56150000D02*
X91813604Y-56150000D01*
X86884743Y-47515257D02*
X86884743Y-49715257D01*
X87179043Y-56782658D02*
X87811701Y-56150000D01*
X88200000Y-46200000D02*
X86884743Y-47515257D01*
X93163604Y-46200000D02*
X88200000Y-46200000D01*
X84653486Y-58216480D02*
X85694366Y-58216480D01*
X94150000Y-53813604D02*
X94150000Y-47186396D01*
%TO.N,Net-(J1-PadA5)*%
X94600000Y-54000000D02*
X94600000Y-47000000D01*
X87365439Y-57232658D02*
X87698097Y-56900000D01*
X88000000Y-45600000D02*
X86031235Y-47568765D01*
X93200000Y-45600000D02*
X88000000Y-45600000D01*
X87698097Y-56900000D02*
X89800000Y-56900000D01*
X94600000Y-47000000D02*
X93200000Y-45600000D01*
X85500500Y-59046742D02*
X87314584Y-57232658D01*
X86031235Y-47568765D02*
X86031235Y-50054859D01*
X87314584Y-57232658D02*
X87365439Y-57232658D01*
X91700000Y-56900000D02*
X94600000Y-54000000D01*
X89800000Y-56900000D02*
X91700000Y-56900000D01*
%TO.N,Net-(J1-PadA6)*%
X71200000Y-73100000D02*
X68800000Y-75500000D01*
X68800000Y-75500000D02*
X68800000Y-83000000D01*
X71200000Y-69849500D02*
X71200000Y-73100000D01*
%TO.N,Net-(J1-PadA7)*%
X83894875Y-49050000D02*
X80040812Y-49050000D01*
X78350000Y-54850000D02*
X79900000Y-56400000D01*
X91200000Y-62400000D02*
X87400000Y-58600000D01*
X80040812Y-49050000D02*
X78350000Y-50740812D01*
X83878181Y-56400000D02*
X83903181Y-56375000D01*
X84528791Y-56400000D02*
X85900000Y-56400000D01*
X85244772Y-50399897D02*
X83894875Y-49050000D01*
X85900000Y-56400000D02*
X87000000Y-55300000D01*
X85244772Y-51021314D02*
X85244772Y-50399897D01*
X84503791Y-56375000D02*
X84528791Y-56400000D01*
X79900000Y-56400000D02*
X83878181Y-56400000D01*
X83903181Y-56375000D02*
X84503791Y-56375000D01*
X78350000Y-50740812D02*
X78350000Y-54850000D01*
%TO.N,Net-(J1-PadA8)*%
X84715187Y-55950000D02*
X84690187Y-55925000D01*
X80086396Y-55950000D02*
X78800000Y-54663604D01*
X84690187Y-55925000D02*
X83716785Y-55925000D01*
X83425636Y-49500000D02*
X84527727Y-50602091D01*
X88964300Y-54496936D02*
X86777759Y-54496936D01*
X85324695Y-55950000D02*
X84715187Y-55950000D01*
X78800000Y-54663604D02*
X78800000Y-50927208D01*
X86777759Y-54496936D02*
X85324695Y-55950000D01*
X80227208Y-49500000D02*
X83425636Y-49500000D01*
X83691785Y-55950000D02*
X80086396Y-55950000D01*
X78800000Y-50927208D02*
X80227208Y-49500000D01*
X83716785Y-55925000D02*
X83691785Y-55950000D01*
%TO.N,Net-(J1-PadA10)*%
X90200000Y-54475500D02*
X91175500Y-53500000D01*
X80413604Y-49950000D02*
X82850265Y-49950000D01*
X79250000Y-51113604D02*
X80413604Y-49950000D01*
X86866363Y-53771936D02*
X85163299Y-55475000D01*
X90200000Y-54475500D02*
X89496436Y-53771936D01*
X89496436Y-53771936D02*
X86866363Y-53771936D01*
X83505389Y-55500000D02*
X80272792Y-55500000D01*
X80272792Y-55500000D02*
X79250000Y-54477208D01*
X79250000Y-54477208D02*
X79250000Y-51113604D01*
X83530389Y-55475000D02*
X83505389Y-55500000D01*
X91175500Y-53500000D02*
X92200000Y-53500000D01*
X82850265Y-49950000D02*
X83775972Y-50875707D01*
X85163299Y-55475000D02*
X83530389Y-55475000D01*
%TO.N,Net-(J1-PadA11)*%
X84976903Y-55025000D02*
X83343993Y-55025000D01*
X83318993Y-55050000D02*
X80459188Y-55050000D01*
X82274895Y-50400000D02*
X83024218Y-51149323D01*
X79700000Y-51300000D02*
X80600000Y-50400000D01*
X86952400Y-53049503D02*
X84976903Y-55025000D01*
X83343993Y-55025000D02*
X83318993Y-55050000D01*
X88599695Y-52774503D02*
X88324695Y-53049503D01*
X89674503Y-52774503D02*
X88599695Y-52774503D01*
X79700000Y-54290812D02*
X79700000Y-51300000D01*
X88324695Y-53049503D02*
X86952400Y-53049503D01*
X80600000Y-50400000D02*
X82274895Y-50400000D01*
X80459188Y-55050000D02*
X79700000Y-54290812D01*
X90275451Y-53375451D02*
X89674503Y-52774503D01*
%TO.N,Net-(R8-Pad2)*%
X80200000Y-124800000D02*
X80200000Y-80060000D01*
X80200000Y-124800000D02*
X83500000Y-128100000D01*
X80200000Y-80060000D02*
X78180000Y-78040000D01*
%TO.N,Net-(R9-Pad2)*%
X77300000Y-141900000D02*
X77300000Y-134200000D01*
X78700000Y-143300000D02*
X77300000Y-141900000D01*
X58300000Y-131500000D02*
X56500000Y-133300000D01*
X97679419Y-87379419D02*
X97679419Y-133120581D01*
X85800000Y-75500000D02*
X97679419Y-87379419D01*
X87500000Y-143300000D02*
X78700000Y-143300000D01*
X77300000Y-134200000D02*
X74600000Y-131500000D01*
X58300000Y-131500000D02*
X74600000Y-131500000D01*
X87500000Y-143300000D02*
X97679419Y-133120581D01*
%TO.N,Net-(R10-Pad2)*%
X85800000Y-78040000D02*
X96200000Y-88440000D01*
X87200000Y-142275500D02*
X80600000Y-142275500D01*
X96200000Y-133275500D02*
X87200000Y-142275500D01*
X96200000Y-88440000D02*
X96200000Y-133275500D01*
%TO.N,Net-(R20-Pad1)*%
X75900000Y-96701000D02*
X75900000Y-91100000D01*
X78800000Y-89400000D02*
X79305000Y-88895000D01*
X75725500Y-96875500D02*
X75900000Y-96701000D01*
X79305000Y-86785000D02*
X78180000Y-85660000D01*
X75900000Y-91100000D02*
X77600000Y-89400000D01*
X77600000Y-89400000D02*
X78800000Y-89400000D01*
X79305000Y-88895000D02*
X79305000Y-86785000D01*
%TO.N,Net-(R21-Pad1)*%
X72100000Y-94100000D02*
X72100000Y-94700000D01*
X78000000Y-88200000D02*
X72100000Y-94100000D01*
%TO.N,Net-(R22-Pad1)*%
X76163604Y-97600000D02*
X76450000Y-97313604D01*
X76450000Y-97313604D02*
X76450000Y-92470000D01*
X74100000Y-94500000D02*
X74100000Y-97100000D01*
X74550000Y-97550000D02*
X74786396Y-97550000D01*
X76450000Y-92470000D02*
X78180000Y-90740000D01*
X74100000Y-97100000D02*
X74550000Y-97550000D01*
X74786396Y-97550000D02*
X74836396Y-97600000D01*
X74836396Y-97600000D02*
X76163604Y-97600000D01*
%TO.N,Net-(R23-Pad1)*%
X74600000Y-98000000D02*
X74650000Y-98050000D01*
X76350000Y-98050000D02*
X76900000Y-97500000D01*
X76900000Y-97500000D02*
X76900000Y-94560000D01*
X76900000Y-94560000D02*
X78180000Y-93280000D01*
X72000000Y-96100000D02*
X73900000Y-98000000D01*
X74650000Y-98050000D02*
X76350000Y-98050000D01*
X73900000Y-98000000D02*
X74600000Y-98000000D01*
%TD*%
M02*
