%TF.GenerationSoftware,KiCad,Pcbnew,(6.0.7-1)-1*%
%TF.CreationDate,2022-10-21T15:59:20-04:00*%
%TF.ProjectId,Splitboard-B,53706c69-7462-46f6-9172-642d422e6b69,rev?*%
%TF.SameCoordinates,Original*%
%TF.FileFunction,Copper,L2,Bot*%
%TF.FilePolarity,Positive*%
%FSLAX46Y46*%
G04 Gerber Fmt 4.6, Leading zero omitted, Abs format (unit mm)*
G04 Created by KiCad (PCBNEW (6.0.7-1)-1) date 2022-10-21 15:59:20*
%MOMM*%
%LPD*%
G01*
G04 APERTURE LIST*
G04 Aperture macros list*
%AMRoundRect*
0 Rectangle with rounded corners*
0 $1 Rounding radius*
0 $2 $3 $4 $5 $6 $7 $8 $9 X,Y pos of 4 corners*
0 Add a 4 corners polygon primitive as box body*
4,1,4,$2,$3,$4,$5,$6,$7,$8,$9,$2,$3,0*
0 Add four circle primitives for the rounded corners*
1,1,$1+$1,$2,$3*
1,1,$1+$1,$4,$5*
1,1,$1+$1,$6,$7*
1,1,$1+$1,$8,$9*
0 Add four rect primitives between the rounded corners*
20,1,$1+$1,$2,$3,$4,$5,0*
20,1,$1+$1,$4,$5,$6,$7,0*
20,1,$1+$1,$6,$7,$8,$9,0*
20,1,$1+$1,$8,$9,$2,$3,0*%
%AMHorizOval*
0 Thick line with rounded ends*
0 $1 width*
0 $2 $3 position (X,Y) of the first rounded end (center of the circle)*
0 $4 $5 position (X,Y) of the second rounded end (center of the circle)*
0 Add line between two ends*
20,1,$1,$2,$3,$4,$5,0*
0 Add two circle primitives to create the rounded ends*
1,1,$1,$2,$3*
1,1,$1,$4,$5*%
%AMRotRect*
0 Rectangle, with rotation*
0 The origin of the aperture is its center*
0 $1 length*
0 $2 width*
0 $3 Rotation angle, in degrees counterclockwise*
0 Add horizontal line*
21,1,$1,$2,0,0,$3*%
G04 Aperture macros list end*
%TA.AperFunction,ComponentPad*%
%ADD10C,3.600000*%
%TD*%
%TA.AperFunction,SMDPad,CuDef*%
%ADD11RoundRect,0.250000X-1.525000X-1.000000X1.525000X-1.000000X1.525000X1.000000X-1.525000X1.000000X0*%
%TD*%
%TA.AperFunction,ComponentPad*%
%ADD12C,4.000000*%
%TD*%
%TA.AperFunction,ComponentPad*%
%ADD13R,1.500000X1.500000*%
%TD*%
%TA.AperFunction,ComponentPad*%
%ADD14C,1.500000*%
%TD*%
%TA.AperFunction,SMDPad,CuDef*%
%ADD15RoundRect,0.250000X-0.371231X-1.785445X1.785445X0.371231X0.371231X1.785445X-1.785445X-0.371231X0*%
%TD*%
%TA.AperFunction,ComponentPad*%
%ADD16R,2.000000X2.000000*%
%TD*%
%TA.AperFunction,ComponentPad*%
%ADD17C,2.000000*%
%TD*%
%TA.AperFunction,ComponentPad*%
%ADD18R,3.200000X2.000000*%
%TD*%
%TA.AperFunction,SMDPad,CuDef*%
%ADD19RoundRect,0.250000X0.262500X0.450000X-0.262500X0.450000X-0.262500X-0.450000X0.262500X-0.450000X0*%
%TD*%
%TA.AperFunction,SMDPad,CuDef*%
%ADD20RoundRect,0.250000X-0.450000X0.262500X-0.450000X-0.262500X0.450000X-0.262500X0.450000X0.262500X0*%
%TD*%
%TA.AperFunction,SMDPad,CuDef*%
%ADD21RoundRect,0.250000X0.250000X0.475000X-0.250000X0.475000X-0.250000X-0.475000X0.250000X-0.475000X0*%
%TD*%
%TA.AperFunction,SMDPad,CuDef*%
%ADD22RoundRect,0.250000X-0.262500X-0.450000X0.262500X-0.450000X0.262500X0.450000X-0.262500X0.450000X0*%
%TD*%
%TA.AperFunction,SMDPad,CuDef*%
%ADD23RoundRect,0.250000X0.450000X-0.262500X0.450000X0.262500X-0.450000X0.262500X-0.450000X-0.262500X0*%
%TD*%
%TA.AperFunction,SMDPad,CuDef*%
%ADD24R,0.900000X1.200000*%
%TD*%
%TA.AperFunction,SMDPad,CuDef*%
%ADD25RoundRect,0.250000X-0.250000X-0.475000X0.250000X-0.475000X0.250000X0.475000X-0.250000X0.475000X0*%
%TD*%
%TA.AperFunction,SMDPad,CuDef*%
%ADD26RoundRect,0.250000X-0.475000X0.250000X-0.475000X-0.250000X0.475000X-0.250000X0.475000X0.250000X0*%
%TD*%
%TA.AperFunction,SMDPad,CuDef*%
%ADD27RotRect,0.900000X1.200000X225.000000*%
%TD*%
%TA.AperFunction,SMDPad,CuDef*%
%ADD28R,0.600000X0.450000*%
%TD*%
%TA.AperFunction,ComponentPad*%
%ADD29R,1.700000X1.700000*%
%TD*%
%TA.AperFunction,ComponentPad*%
%ADD30O,1.700000X1.700000*%
%TD*%
%TA.AperFunction,SMDPad,CuDef*%
%ADD31R,2.000000X1.500000*%
%TD*%
%TA.AperFunction,SMDPad,CuDef*%
%ADD32R,2.000000X3.800000*%
%TD*%
%TA.AperFunction,ComponentPad*%
%ADD33R,1.600000X1.600000*%
%TD*%
%TA.AperFunction,ComponentPad*%
%ADD34O,1.600000X1.600000*%
%TD*%
%TA.AperFunction,SMDPad,CuDef*%
%ADD35RotRect,0.300000X0.700000X20.000000*%
%TD*%
%TA.AperFunction,ComponentPad*%
%ADD36C,0.650000*%
%TD*%
%TA.AperFunction,ComponentPad*%
%ADD37HorizOval,0.800000X-0.102606X0.281908X0.102606X-0.281908X0*%
%TD*%
%TA.AperFunction,ViaPad*%
%ADD38C,0.800000*%
%TD*%
%TA.AperFunction,ViaPad*%
%ADD39C,1.500000*%
%TD*%
%TA.AperFunction,Conductor*%
%ADD40C,0.250000*%
%TD*%
%TA.AperFunction,Conductor*%
%ADD41C,1.250000*%
%TD*%
G04 APERTURE END LIST*
D10*
%TO.P,K28,1*%
%TO.N,/col3*%
X215190000Y-99460000D03*
D11*
X212415000Y-99460000D03*
D10*
%TO.P,K28,2*%
%TO.N,Net-(D28-Pad2)*%
X221540000Y-96920000D03*
D11*
X224320000Y-96920000D03*
%TD*%
%TO.P,K11,1*%
%TO.N,/col1*%
X155415000Y-53460000D03*
D10*
X158190000Y-53460000D03*
D11*
%TO.P,K11,2*%
%TO.N,Net-(D11-Pad2)*%
X167320000Y-50920000D03*
D10*
X164540000Y-50920000D03*
%TD*%
D12*
%TO.P,U1,*%
%TO.N,*%
X54110000Y-128000000D03*
X54110000Y-66800000D03*
X88210000Y-66800000D03*
X88210000Y-128000000D03*
D13*
%TO.P,U1,1,VCC*%
%TO.N,VBUS*%
X61000000Y-129500000D03*
D14*
%TO.P,U1,2,GND*%
%TO.N,GND*%
X63540000Y-129500000D03*
%TO.P,U1,3,~{CS}*%
%TO.N,/LCD2_CS*%
X66080000Y-129500000D03*
%TO.P,U1,4,RESET*%
%TO.N,/LCD2_RST*%
X68620000Y-129500000D03*
%TO.P,U1,5,D/~{C}*%
%TO.N,/LCD2_DC*%
X71160000Y-129500000D03*
%TO.P,U1,6,MOSI*%
%TO.N,/MOSI*%
X73700000Y-129500000D03*
%TO.P,U1,7,SCK*%
%TO.N,/SCK*%
X76240000Y-129500000D03*
%TO.P,U1,8,LED*%
%TO.N,+3.3V*%
X78780000Y-129500000D03*
%TO.P,U1,9,MISO*%
%TO.N,unconnected-(U1-Pad9)*%
X81320000Y-129500000D03*
%TO.P,U1,10,SD_CS*%
%TO.N,unconnected-(U1-Pad10)*%
X66080000Y-65980000D03*
%TO.P,U1,11,SD_MOSI*%
%TO.N,unconnected-(U1-Pad11)*%
X68620000Y-65980000D03*
%TO.P,U1,12,SD_MISO*%
%TO.N,unconnected-(U1-Pad12)*%
X71160000Y-65980000D03*
%TO.P,U1,13,SD_SCK*%
%TO.N,unconnected-(U1-Pad13)*%
X73700000Y-65980000D03*
%TO.P,U1,14,FLASH_CD*%
%TO.N,unconnected-(U1-Pad14)*%
X76240000Y-65980000D03*
%TD*%
D10*
%TO.P,K33,1*%
%TO.N,/col4*%
X177190000Y-111460000D03*
D11*
X174415000Y-111460000D03*
%TO.P,K33,2*%
%TO.N,Net-(D33-Pad2)*%
X186320000Y-108920000D03*
D10*
X183540000Y-108920000D03*
%TD*%
%TO.P,K20,1*%
%TO.N,/col2*%
X196190000Y-76460000D03*
D11*
X193415000Y-76460000D03*
D10*
%TO.P,K20,2*%
%TO.N,Net-(D20-Pad2)*%
X202540000Y-73920000D03*
D11*
X205320000Y-73920000D03*
%TD*%
%TO.P,K13,1*%
%TO.N,/col1*%
X193415000Y-57460000D03*
D10*
X196190000Y-57460000D03*
%TO.P,K13,2*%
%TO.N,Net-(D13-Pad2)*%
X202540000Y-54920000D03*
D11*
X205320000Y-54920000D03*
%TD*%
D10*
%TO.P,K7,1*%
%TO.N,/col0*%
X215190000Y-42460000D03*
D11*
X212415000Y-42460000D03*
%TO.P,K7,2*%
%TO.N,Net-(D7-Pad2)*%
X224320000Y-39920000D03*
D10*
X221540000Y-39920000D03*
%TD*%
D11*
%TO.P,K17,1*%
%TO.N,/col2*%
X136415000Y-73460000D03*
D10*
X139190000Y-73460000D03*
D11*
%TO.P,K17,2*%
%TO.N,Net-(D17-Pad2)*%
X148320000Y-70920000D03*
D10*
X145540000Y-70920000D03*
%TD*%
%TO.P,K16,1*%
%TO.N,/col2*%
X120000000Y-76000000D03*
D11*
X117225000Y-76000000D03*
%TO.P,K16,2*%
%TO.N,Net-(D16-Pad2)*%
X129130000Y-73460000D03*
D10*
X126350000Y-73460000D03*
%TD*%
%TO.P,K37,1*%
%TO.N,/col5*%
X92905137Y-156898026D03*
D15*
X90942916Y-158860247D03*
%TO.P,K37,2*%
%TO.N,Net-(D37-Pad2)*%
X97564971Y-148646089D03*
D10*
X95599214Y-150611846D03*
%TD*%
D11*
%TO.P,K2,1*%
%TO.N,/col0*%
X117225000Y-38000000D03*
D10*
X120000000Y-38000000D03*
%TO.P,K2,2*%
%TO.N,Net-(D2-Pad2)*%
X126350000Y-35460000D03*
D11*
X129130000Y-35460000D03*
%TD*%
D15*
%TO.P,K38,1*%
%TO.N,/col5*%
X104377945Y-145425218D03*
D10*
X106340166Y-143462997D03*
D15*
%TO.P,K38,2*%
%TO.N,Net-(D38-Pad2)*%
X111000000Y-135211060D03*
D10*
X109034243Y-137176817D03*
%TD*%
%TO.P,K5,1*%
%TO.N,/col0*%
X177190000Y-35460000D03*
D11*
X174415000Y-35460000D03*
%TO.P,K5,2*%
%TO.N,Net-(D5-Pad2)*%
X186320000Y-32920000D03*
D10*
X183540000Y-32920000D03*
%TD*%
%TO.P,K9,1*%
%TO.N,/col1*%
X120000000Y-57000000D03*
D11*
X117225000Y-57000000D03*
D10*
%TO.P,K9,2*%
%TO.N,Net-(D9-Pad2)*%
X126350000Y-54460000D03*
D11*
X129130000Y-54460000D03*
%TD*%
%TO.P,K32,1*%
%TO.N,/col4*%
X155415000Y-110460000D03*
D10*
X158190000Y-110460000D03*
%TO.P,K32,2*%
%TO.N,Net-(D32-Pad2)*%
X164540000Y-107920000D03*
D11*
X167320000Y-107920000D03*
%TD*%
D10*
%TO.P,K1,1*%
%TO.N,/col0*%
X101190000Y-42460000D03*
D11*
X98415000Y-42460000D03*
D10*
%TO.P,K1,2*%
%TO.N,Net-(D1-Pad2)*%
X107540000Y-39920000D03*
D11*
X110320000Y-39920000D03*
%TD*%
D10*
%TO.P,K26,1*%
%TO.N,/col3*%
X177190000Y-92460000D03*
D11*
X174415000Y-92460000D03*
%TO.P,K26,2*%
%TO.N,Net-(D26-Pad2)*%
X186320000Y-89920000D03*
D10*
X183540000Y-89920000D03*
%TD*%
D16*
%TO.P,SW1,A,A*%
%TO.N,Net-(R4-Pad2)*%
X65650000Y-140700000D03*
D17*
%TO.P,SW1,B,B*%
%TO.N,Net-(R6-Pad2)*%
X65650000Y-145700000D03*
%TO.P,SW1,C,C*%
%TO.N,GND*%
X65650000Y-143200000D03*
D18*
%TO.P,SW1,MP*%
%TO.N,N/C*%
X73150000Y-148800000D03*
X73150000Y-137600000D03*
D17*
%TO.P,SW1,S1,S1*%
%TO.N,/ENC_SW*%
X80150000Y-145700000D03*
%TO.P,SW1,S2,S2*%
%TO.N,GND*%
X80150000Y-140700000D03*
%TD*%
D11*
%TO.P,K4,1*%
%TO.N,/col0*%
X155415000Y-34460000D03*
D10*
X158190000Y-34460000D03*
%TO.P,K4,2*%
%TO.N,Net-(D4-Pad2)*%
X164540000Y-31920000D03*
D11*
X167320000Y-31920000D03*
%TD*%
D10*
%TO.P,K34,1*%
%TO.N,/col4*%
X196190000Y-114460000D03*
D11*
X193415000Y-114460000D03*
D10*
%TO.P,K34,2*%
%TO.N,Net-(D34-Pad2)*%
X202540000Y-111920000D03*
D11*
X205320000Y-111920000D03*
%TD*%
D10*
%TO.P,K30,1*%
%TO.N,/col4*%
X120000000Y-114000000D03*
D11*
X117225000Y-114000000D03*
%TO.P,K30,2*%
%TO.N,Net-(D30-Pad2)*%
X129130000Y-111460000D03*
D10*
X126350000Y-111460000D03*
%TD*%
D11*
%TO.P,K14,1*%
%TO.N,/col1*%
X212415000Y-61460000D03*
D10*
X215190000Y-61460000D03*
%TO.P,K14,2*%
%TO.N,Net-(D14-Pad2)*%
X221540000Y-58920000D03*
D11*
X224320000Y-58920000D03*
%TD*%
%TO.P,K12,1*%
%TO.N,/col1*%
X174415000Y-54460000D03*
D10*
X177190000Y-54460000D03*
%TO.P,K12,2*%
%TO.N,Net-(D12-Pad2)*%
X183540000Y-51920000D03*
D11*
X186320000Y-51920000D03*
%TD*%
%TO.P,K22,1*%
%TO.N,/col3*%
X98415000Y-99460000D03*
D10*
X101190000Y-99460000D03*
D11*
%TO.P,K22,2*%
%TO.N,Net-(D22-Pad2)*%
X110320000Y-96920000D03*
D10*
X107540000Y-96920000D03*
%TD*%
%TO.P,K6,1*%
%TO.N,/col0*%
X196190000Y-38460000D03*
D11*
X193415000Y-38460000D03*
%TO.P,K6,2*%
%TO.N,Net-(D6-Pad2)*%
X205320000Y-35920000D03*
D10*
X202540000Y-35920000D03*
%TD*%
D11*
%TO.P,K8,1*%
%TO.N,/col1*%
X98415000Y-61460000D03*
D10*
X101190000Y-61460000D03*
%TO.P,K8,2*%
%TO.N,Net-(D8-Pad2)*%
X107540000Y-58920000D03*
D11*
X110320000Y-58920000D03*
%TD*%
D10*
%TO.P,K18,1*%
%TO.N,/col2*%
X158190000Y-72460000D03*
D11*
X155415000Y-72460000D03*
D10*
%TO.P,K18,2*%
%TO.N,Net-(D18-Pad2)*%
X164540000Y-69920000D03*
D11*
X167320000Y-69920000D03*
%TD*%
D10*
%TO.P,K15,1*%
%TO.N,/col2*%
X101190000Y-80460000D03*
D11*
X98415000Y-80460000D03*
D10*
%TO.P,K15,2*%
%TO.N,Net-(D15-Pad2)*%
X107540000Y-77920000D03*
D11*
X110320000Y-77920000D03*
%TD*%
%TO.P,K21,1*%
%TO.N,/col2*%
X212415000Y-80460000D03*
D10*
X215190000Y-80460000D03*
%TO.P,K21,2*%
%TO.N,Net-(D21-Pad2)*%
X221540000Y-77920000D03*
D11*
X224320000Y-77920000D03*
%TD*%
D10*
%TO.P,K19,1*%
%TO.N,/col2*%
X177190000Y-73460000D03*
D11*
X174415000Y-73460000D03*
D10*
%TO.P,K19,2*%
%TO.N,Net-(D19-Pad2)*%
X183540000Y-70920000D03*
D11*
X186320000Y-70920000D03*
%TD*%
D10*
%TO.P,K25,1*%
%TO.N,/col3*%
X158190000Y-91460000D03*
D11*
X155415000Y-91460000D03*
%TO.P,K25,2*%
%TO.N,Net-(D25-Pad2)*%
X167320000Y-88920000D03*
D10*
X164540000Y-88920000D03*
%TD*%
%TO.P,K10,1*%
%TO.N,/col1*%
X139190000Y-54460000D03*
D11*
X136415000Y-54460000D03*
D10*
%TO.P,K10,2*%
%TO.N,Net-(D10-Pad2)*%
X145540000Y-51920000D03*
D11*
X148320000Y-51920000D03*
%TD*%
%TO.P,K31,1*%
%TO.N,/col4*%
X136415000Y-111460000D03*
D10*
X139190000Y-111460000D03*
%TO.P,K31,2*%
%TO.N,Net-(D31-Pad2)*%
X145540000Y-108920000D03*
D11*
X148320000Y-108920000D03*
%TD*%
%TO.P,K23,1*%
%TO.N,/col3*%
X117225000Y-95000000D03*
D10*
X120000000Y-95000000D03*
D11*
%TO.P,K23,2*%
%TO.N,Net-(D23-Pad2)*%
X129130000Y-92460000D03*
D10*
X126350000Y-92460000D03*
%TD*%
%TO.P,K29,1*%
%TO.N,/col4*%
X101190000Y-118460000D03*
D11*
X98415000Y-118460000D03*
%TO.P,K29,2*%
%TO.N,Net-(D29-Pad2)*%
X110320000Y-115920000D03*
D10*
X107540000Y-115920000D03*
%TD*%
D11*
%TO.P,K24,1*%
%TO.N,/col3*%
X136415000Y-92460000D03*
D10*
X139190000Y-92460000D03*
%TO.P,K24,2*%
%TO.N,Net-(D24-Pad2)*%
X145540000Y-89920000D03*
D11*
X148320000Y-89920000D03*
%TD*%
D15*
%TO.P,K36,1*%
%TO.N,/col5*%
X77507887Y-172295275D03*
D10*
X79470108Y-170333054D03*
D15*
%TO.P,K36,2*%
%TO.N,Net-(D36-Pad2)*%
X84129942Y-162081117D03*
D10*
X82164185Y-164046874D03*
%TD*%
D11*
%TO.P,K35,1*%
%TO.N,/col4*%
X212415000Y-118460000D03*
D10*
X215190000Y-118460000D03*
D11*
%TO.P,K35,2*%
%TO.N,Net-(D35-Pad2)*%
X224320000Y-115920000D03*
D10*
X221540000Y-115920000D03*
%TD*%
D11*
%TO.P,K27,1*%
%TO.N,/col3*%
X193415000Y-95460000D03*
D10*
X196190000Y-95460000D03*
D11*
%TO.P,K27,2*%
%TO.N,Net-(D27-Pad2)*%
X205320000Y-92920000D03*
D10*
X202540000Y-92920000D03*
%TD*%
%TO.P,K3,1*%
%TO.N,/col0*%
X139190000Y-35460000D03*
D11*
X136415000Y-35460000D03*
%TO.P,K3,2*%
%TO.N,Net-(D3-Pad2)*%
X148320000Y-32920000D03*
D10*
X145540000Y-32920000D03*
%TD*%
D19*
%TO.P,R12,1*%
%TO.N,/row1*%
X89800000Y-83311111D03*
%TO.P,R12,2*%
%TO.N,Net-(R12-Pad2)*%
X87975000Y-83311111D03*
%TD*%
D20*
%TO.P,R22,1*%
%TO.N,Net-(R22-Pad1)*%
X73200000Y-97487500D03*
%TO.P,R22,2*%
%TO.N,+3.3V*%
X73200000Y-99312500D03*
%TD*%
D21*
%TO.P,C8,1*%
%TO.N,VBUS*%
X93950000Y-38590000D03*
%TO.P,C8,2*%
%TO.N,GND*%
X92050000Y-38590000D03*
%TD*%
D22*
%TO.P,R36,1*%
%TO.N,/SCK*%
X67087500Y-72200000D03*
%TO.P,R36,2*%
%TO.N,Net-(J1-PadA8)*%
X68912500Y-72200000D03*
%TD*%
D21*
%TO.P,C6,1*%
%TO.N,Net-(C6-Pad1)*%
X75450000Y-58250000D03*
%TO.P,C6,2*%
%TO.N,GND*%
X73550000Y-58250000D03*
%TD*%
D23*
%TO.P,R6,1*%
%TO.N,+3.3V*%
X60900000Y-150312500D03*
%TO.P,R6,2*%
%TO.N,Net-(R6-Pad2)*%
X60900000Y-148487500D03*
%TD*%
D24*
%TO.P,D22,1,K*%
%TO.N,/row0*%
X110650000Y-107000000D03*
%TO.P,D22,2,A*%
%TO.N,Net-(D22-Pad2)*%
X107350000Y-107000000D03*
%TD*%
%TO.P,D19,1,K*%
%TO.N,/row4*%
X186650000Y-81000000D03*
%TO.P,D19,2,A*%
%TO.N,Net-(D19-Pad2)*%
X183350000Y-81000000D03*
%TD*%
D20*
%TO.P,R19,1*%
%TO.N,Net-(R19-Pad1)*%
X69800000Y-86487500D03*
%TO.P,R19,2*%
%TO.N,+3.3V*%
X69800000Y-88312500D03*
%TD*%
D24*
%TO.P,D9,1,K*%
%TO.N,/row1*%
X129460000Y-64540000D03*
%TO.P,D9,2,A*%
%TO.N,Net-(D9-Pad2)*%
X126160000Y-64540000D03*
%TD*%
D19*
%TO.P,R18,1*%
%TO.N,Net-(R18-Pad1)*%
X75512500Y-78000000D03*
%TO.P,R18,2*%
%TO.N,+3.3V*%
X73687500Y-78000000D03*
%TD*%
D24*
%TO.P,D13,1,K*%
%TO.N,/row5*%
X205650000Y-65000000D03*
%TO.P,D13,2,A*%
%TO.N,Net-(D13-Pad2)*%
X202350000Y-65000000D03*
%TD*%
%TO.P,D10,1,K*%
%TO.N,/row2*%
X148650000Y-62000000D03*
%TO.P,D10,2,A*%
%TO.N,Net-(D10-Pad2)*%
X145350000Y-62000000D03*
%TD*%
%TO.P,D12,1,K*%
%TO.N,/row4*%
X186650000Y-62000000D03*
%TO.P,D12,2,A*%
%TO.N,Net-(D12-Pad2)*%
X183350000Y-62000000D03*
%TD*%
D19*
%TO.P,R7,1*%
%TO.N,Net-(R6-Pad2)*%
X62112500Y-145700000D03*
%TO.P,R7,2*%
%TO.N,/ENC_B*%
X60287500Y-145700000D03*
%TD*%
D24*
%TO.P,D16,1,K*%
%TO.N,/row1*%
X129460000Y-83540000D03*
%TO.P,D16,2,A*%
%TO.N,Net-(D16-Pad2)*%
X126160000Y-83540000D03*
%TD*%
D19*
%TO.P,R17,1*%
%TO.N,/row6*%
X85000000Y-72600000D03*
%TO.P,R17,2*%
%TO.N,Net-(R17-Pad2)*%
X83175000Y-72600000D03*
%TD*%
%TO.P,R13,1*%
%TO.N,/row2*%
X89800000Y-85800000D03*
%TO.P,R13,2*%
%TO.N,Net-(R13-Pad2)*%
X87975000Y-85800000D03*
%TD*%
D22*
%TO.P,R32,1*%
%TO.N,/SDA*%
X67000000Y-83000000D03*
%TO.P,R32,2*%
%TO.N,Net-(J1-PadA6)*%
X68825000Y-83000000D03*
%TD*%
%TO.P,R26,1*%
%TO.N,/col3*%
X73675000Y-85500000D03*
%TO.P,R26,2*%
%TO.N,Net-(R20-Pad1)*%
X75500000Y-85500000D03*
%TD*%
D24*
%TO.P,D11,1,K*%
%TO.N,/row3*%
X167650000Y-61000000D03*
%TO.P,D11,2,A*%
%TO.N,Net-(D11-Pad2)*%
X164350000Y-61000000D03*
%TD*%
D20*
%TO.P,R23,1*%
%TO.N,Net-(R23-Pad1)*%
X71000000Y-97487500D03*
%TO.P,R23,2*%
%TO.N,+3.3V*%
X71000000Y-99312500D03*
%TD*%
D22*
%TO.P,R30,1*%
%TO.N,/MOSI*%
X67087500Y-74400000D03*
%TO.P,R30,2*%
%TO.N,Net-(J1-PadA5)*%
X68912500Y-74400000D03*
%TD*%
D25*
%TO.P,C3,1*%
%TO.N,GND*%
X56050000Y-145450000D03*
%TO.P,C3,2*%
%TO.N,/ENC_B*%
X57950000Y-145450000D03*
%TD*%
D24*
%TO.P,D2,1,K*%
%TO.N,/row1*%
X129460000Y-45540000D03*
%TO.P,D2,2,A*%
%TO.N,Net-(D2-Pad2)*%
X126160000Y-45540000D03*
%TD*%
%TO.P,D14,1,K*%
%TO.N,/row6*%
X224650000Y-69000000D03*
%TO.P,D14,2,A*%
%TO.N,Net-(D14-Pad2)*%
X221350000Y-69000000D03*
%TD*%
D19*
%TO.P,R15,1*%
%TO.N,/row4*%
X89800000Y-90777778D03*
%TO.P,R15,2*%
%TO.N,Net-(R15-Pad2)*%
X87975000Y-90777778D03*
%TD*%
D24*
%TO.P,D17,1,K*%
%TO.N,/row2*%
X148650000Y-81000000D03*
%TO.P,D17,2,A*%
%TO.N,Net-(D17-Pad2)*%
X145350000Y-81000000D03*
%TD*%
%TO.P,D23,1,K*%
%TO.N,/row1*%
X129460000Y-102540000D03*
%TO.P,D23,2,A*%
%TO.N,Net-(D23-Pad2)*%
X126160000Y-102540000D03*
%TD*%
D21*
%TO.P,C9,1*%
%TO.N,VBUS*%
X93950000Y-41600000D03*
%TO.P,C9,2*%
%TO.N,GND*%
X92050000Y-41600000D03*
%TD*%
D26*
%TO.P,C2,1*%
%TO.N,/ENC_A*%
X53700000Y-140750000D03*
%TO.P,C2,2*%
%TO.N,GND*%
X53700000Y-142650000D03*
%TD*%
D24*
%TO.P,D3,1,K*%
%TO.N,/row2*%
X148650000Y-43000000D03*
%TO.P,D3,2,A*%
%TO.N,Net-(D3-Pad2)*%
X145350000Y-43000000D03*
%TD*%
%TO.P,D34,1,K*%
%TO.N,/row5*%
X205650000Y-122000000D03*
%TO.P,D34,2,A*%
%TO.N,Net-(D34-Pad2)*%
X202350000Y-122000000D03*
%TD*%
D19*
%TO.P,R10,1*%
%TO.N,/ENC_B*%
X57912500Y-148000000D03*
%TO.P,R10,2*%
%TO.N,Net-(R10-Pad2)*%
X56087500Y-148000000D03*
%TD*%
D22*
%TO.P,R33,1*%
%TO.N,/LCD2_CS*%
X67000000Y-81000000D03*
%TO.P,R33,2*%
%TO.N,Net-(J1-PadA10)*%
X68825000Y-81000000D03*
%TD*%
D26*
%TO.P,C5,1*%
%TO.N,+3.3V*%
X88250000Y-96300000D03*
%TO.P,C5,2*%
%TO.N,GND*%
X88250000Y-98200000D03*
%TD*%
D24*
%TO.P,D30,1,K*%
%TO.N,/row1*%
X129460000Y-121540000D03*
%TO.P,D30,2,A*%
%TO.N,Net-(D30-Pad2)*%
X126160000Y-121540000D03*
%TD*%
%TO.P,D25,1,K*%
%TO.N,/row3*%
X167650000Y-99000000D03*
%TO.P,D25,2,A*%
%TO.N,Net-(D25-Pad2)*%
X164350000Y-99000000D03*
%TD*%
D27*
%TO.P,D36,1,K*%
%TO.N,/row0*%
X91629942Y-168870057D03*
%TO.P,D36,2,A*%
%TO.N,Net-(D36-Pad2)*%
X89296490Y-171203509D03*
%TD*%
D24*
%TO.P,D35,1,K*%
%TO.N,/row6*%
X224650000Y-126000000D03*
%TO.P,D35,2,A*%
%TO.N,Net-(D35-Pad2)*%
X221350000Y-126000000D03*
%TD*%
D28*
%TO.P,D39,1,K*%
%TO.N,Net-(D39-Pad1)*%
X79950000Y-62000000D03*
%TO.P,D39,2,A*%
%TO.N,VBUS*%
X82050000Y-62000000D03*
%TD*%
D22*
%TO.P,R5,1*%
%TO.N,/ENC_A*%
X59787500Y-140700000D03*
%TO.P,R5,2*%
%TO.N,Net-(R4-Pad2)*%
X61612500Y-140700000D03*
%TD*%
D19*
%TO.P,R11,1*%
%TO.N,/row0*%
X89800000Y-80822222D03*
%TO.P,R11,2*%
%TO.N,Net-(R11-Pad2)*%
X87975000Y-80822222D03*
%TD*%
D24*
%TO.P,D31,1,K*%
%TO.N,/row2*%
X148650000Y-119000000D03*
%TO.P,D31,2,A*%
%TO.N,Net-(D31-Pad2)*%
X145350000Y-119000000D03*
%TD*%
D22*
%TO.P,R34,1*%
%TO.N,/LCD2_DC*%
X67000000Y-78800000D03*
%TO.P,R34,2*%
%TO.N,Net-(J1-PadA11)*%
X68825000Y-78800000D03*
%TD*%
D19*
%TO.P,R16,1*%
%TO.N,/row5*%
X89800000Y-93266667D03*
%TO.P,R16,2*%
%TO.N,Net-(R16-Pad2)*%
X87975000Y-93266667D03*
%TD*%
D22*
%TO.P,R28,1*%
%TO.N,/col5*%
X73675000Y-80500000D03*
%TO.P,R28,2*%
%TO.N,Net-(R18-Pad1)*%
X75500000Y-80500000D03*
%TD*%
D24*
%TO.P,D21,1,K*%
%TO.N,/row6*%
X224650000Y-88000000D03*
%TO.P,D21,2,A*%
%TO.N,Net-(D21-Pad2)*%
X221350000Y-88000000D03*
%TD*%
D29*
%TO.P,J2,1,Pin_1*%
%TO.N,+3.3V*%
X58975000Y-73650000D03*
D30*
%TO.P,J2,2,Pin_2*%
%TO.N,/SCL*%
X58975000Y-76190000D03*
%TO.P,J2,3,Pin_3*%
%TO.N,/SDA*%
X58975000Y-78730000D03*
%TO.P,J2,4,Pin_4*%
%TO.N,/LCD2_CS*%
X58975000Y-81270000D03*
%TO.P,J2,5,Pin_5*%
%TO.N,/LCD2_DC*%
X58975000Y-83810000D03*
%TO.P,J2,6,Pin_6*%
%TO.N,/LCD2_RST*%
X58975000Y-86350000D03*
%TO.P,J2,7,Pin_7*%
%TO.N,/MOSI*%
X58975000Y-88890000D03*
%TO.P,J2,8,Pin_8*%
%TO.N,/SCK*%
X58975000Y-91430000D03*
%TO.P,J2,9,Pin_9*%
%TO.N,GND*%
X58975000Y-93970000D03*
%TD*%
D31*
%TO.P,U3,1,GND*%
%TO.N,GND*%
X60100000Y-57550000D03*
D32*
%TO.P,U3,2,VO*%
%TO.N,+3.3V*%
X66400000Y-55250000D03*
D31*
X60100000Y-55250000D03*
%TO.P,U3,3,VI*%
%TO.N,Net-(C6-Pad1)*%
X60100000Y-52950000D03*
%TD*%
D22*
%TO.P,R21,1*%
%TO.N,Net-(R21-Pad1)*%
X71487500Y-101600000D03*
%TO.P,R21,2*%
%TO.N,+3.3V*%
X73312500Y-101600000D03*
%TD*%
D24*
%TO.P,D5,1,K*%
%TO.N,/row4*%
X186650000Y-43000000D03*
%TO.P,D5,2,A*%
%TO.N,Net-(D5-Pad2)*%
X183350000Y-43000000D03*
%TD*%
%TO.P,D18,1,K*%
%TO.N,/row3*%
X167650000Y-80000000D03*
%TO.P,D18,2,A*%
%TO.N,Net-(D18-Pad2)*%
X164350000Y-80000000D03*
%TD*%
%TO.P,D28,1,K*%
%TO.N,/row6*%
X224650000Y-107000000D03*
%TO.P,D28,2,A*%
%TO.N,Net-(D28-Pad2)*%
X221350000Y-107000000D03*
%TD*%
D23*
%TO.P,R31,1*%
%TO.N,/SCL*%
X70800000Y-81112500D03*
%TO.P,R31,2*%
%TO.N,Net-(J1-PadA7)*%
X70800000Y-79287500D03*
%TD*%
D24*
%TO.P,D32,1,K*%
%TO.N,/row3*%
X167650000Y-118000000D03*
%TO.P,D32,2,A*%
%TO.N,Net-(D32-Pad2)*%
X164350000Y-118000000D03*
%TD*%
D26*
%TO.P,C4,1*%
%TO.N,+3.3V*%
X75500000Y-101050000D03*
%TO.P,C4,2*%
%TO.N,GND*%
X75500000Y-102950000D03*
%TD*%
D22*
%TO.P,R9,1*%
%TO.N,/ENC_A*%
X53687500Y-138400000D03*
%TO.P,R9,2*%
%TO.N,Net-(R9-Pad2)*%
X55512500Y-138400000D03*
%TD*%
D23*
%TO.P,R8,1*%
%TO.N,/ENC_SW*%
X83950000Y-138162500D03*
%TO.P,R8,2*%
%TO.N,Net-(R8-Pad2)*%
X83950000Y-136337500D03*
%TD*%
D19*
%TO.P,R1,1*%
%TO.N,+3.3V*%
X89952500Y-103540000D03*
%TO.P,R1,2*%
%TO.N,/SDA*%
X88127500Y-103540000D03*
%TD*%
D20*
%TO.P,R4,1*%
%TO.N,+3.3V*%
X60700000Y-135787500D03*
%TO.P,R4,2*%
%TO.N,Net-(R4-Pad2)*%
X60700000Y-137612500D03*
%TD*%
D22*
%TO.P,R35,1*%
%TO.N,/LCD2_RST*%
X67087500Y-76600000D03*
%TO.P,R35,2*%
%TO.N,Net-(J1-PadA3)*%
X68912500Y-76600000D03*
%TD*%
D24*
%TO.P,D27,1,K*%
%TO.N,/row5*%
X205650000Y-103000000D03*
%TO.P,D27,2,A*%
%TO.N,Net-(D27-Pad2)*%
X202350000Y-103000000D03*
%TD*%
D27*
%TO.P,D38,1,K*%
%TO.N,/row2*%
X118500000Y-142000000D03*
%TO.P,D38,2,A*%
%TO.N,Net-(D38-Pad2)*%
X116166548Y-144333452D03*
%TD*%
D25*
%TO.P,C7,1*%
%TO.N,+3.3V*%
X71750000Y-62000000D03*
%TO.P,C7,2*%
%TO.N,GND*%
X73650000Y-62000000D03*
%TD*%
D24*
%TO.P,D29,1,K*%
%TO.N,/row0*%
X110650000Y-126000000D03*
%TO.P,D29,2,A*%
%TO.N,Net-(D29-Pad2)*%
X107350000Y-126000000D03*
%TD*%
D25*
%TO.P,C1,1*%
%TO.N,GND*%
X82950000Y-140550000D03*
%TO.P,C1,2*%
%TO.N,/ENC_SW*%
X84850000Y-140550000D03*
%TD*%
D33*
%TO.P,U2,1,GPB0*%
%TO.N,Net-(R9-Pad2)*%
X85800000Y-75500000D03*
D34*
%TO.P,U2,2,GPB1*%
%TO.N,Net-(R10-Pad2)*%
X85800000Y-78040000D03*
%TO.P,U2,3,GPB2*%
%TO.N,Net-(R11-Pad2)*%
X85800000Y-80580000D03*
%TO.P,U2,4,GPB3*%
%TO.N,Net-(R12-Pad2)*%
X85800000Y-83120000D03*
%TO.P,U2,5,GPB4*%
%TO.N,Net-(R13-Pad2)*%
X85800000Y-85660000D03*
%TO.P,U2,6,GPB5*%
%TO.N,Net-(R14-Pad2)*%
X85800000Y-88200000D03*
%TO.P,U2,7,GPB6*%
%TO.N,Net-(R15-Pad2)*%
X85800000Y-90740000D03*
%TO.P,U2,8,GPB7*%
%TO.N,Net-(R16-Pad2)*%
X85800000Y-93280000D03*
%TO.P,U2,9,VDD*%
%TO.N,+3.3V*%
X85800000Y-95820000D03*
%TO.P,U2,10,VSS*%
%TO.N,GND*%
X85800000Y-98360000D03*
%TO.P,U2,11,NC*%
%TO.N,unconnected-(U2-Pad11)*%
X85800000Y-100900000D03*
%TO.P,U2,12,SCK*%
%TO.N,/SDA*%
X85800000Y-103440000D03*
%TO.P,U2,13,SDA*%
%TO.N,/SCL*%
X85800000Y-105980000D03*
%TO.P,U2,14,NC*%
%TO.N,unconnected-(U2-Pad14)*%
X85800000Y-108520000D03*
%TO.P,U2,15,A0*%
%TO.N,GND*%
X78180000Y-108520000D03*
%TO.P,U2,16,A1*%
X78180000Y-105980000D03*
%TO.P,U2,17,A2*%
X78180000Y-103440000D03*
%TO.P,U2,18,~{RESET}*%
%TO.N,+3.3V*%
X78180000Y-100900000D03*
%TO.P,U2,19,INTB*%
%TO.N,unconnected-(U2-Pad19)*%
X78180000Y-98360000D03*
%TO.P,U2,20,INTA*%
%TO.N,unconnected-(U2-Pad20)*%
X78180000Y-95820000D03*
%TO.P,U2,21,GPA0*%
%TO.N,Net-(R23-Pad1)*%
X78180000Y-93280000D03*
%TO.P,U2,22,GPA1*%
%TO.N,Net-(R22-Pad1)*%
X78180000Y-90740000D03*
%TO.P,U2,23,GPA2*%
%TO.N,Net-(R21-Pad1)*%
X78180000Y-88200000D03*
%TO.P,U2,24,GPA3*%
%TO.N,Net-(R20-Pad1)*%
X78180000Y-85660000D03*
%TO.P,U2,25,GPA4*%
%TO.N,Net-(R19-Pad1)*%
X78180000Y-83120000D03*
%TO.P,U2,26,GPA5*%
%TO.N,Net-(R18-Pad1)*%
X78180000Y-80580000D03*
%TO.P,U2,27,GPA6*%
%TO.N,Net-(R8-Pad2)*%
X78180000Y-78040000D03*
%TO.P,U2,28,GPA7*%
%TO.N,Net-(R17-Pad2)*%
X78180000Y-75500000D03*
%TD*%
D24*
%TO.P,D7,1,K*%
%TO.N,/row6*%
X224650000Y-50000000D03*
%TO.P,D7,2,A*%
%TO.N,Net-(D7-Pad2)*%
X221350000Y-50000000D03*
%TD*%
%TO.P,D6,1,K*%
%TO.N,/row5*%
X205650000Y-46000000D03*
%TO.P,D6,2,A*%
%TO.N,Net-(D6-Pad2)*%
X202350000Y-46000000D03*
%TD*%
D19*
%TO.P,R2,1*%
%TO.N,+3.3V*%
X89912500Y-106000000D03*
%TO.P,R2,2*%
%TO.N,/SCL*%
X88087500Y-106000000D03*
%TD*%
D24*
%TO.P,D1,1,K*%
%TO.N,/row0*%
X110650000Y-50000000D03*
%TO.P,D1,2,A*%
%TO.N,Net-(D1-Pad2)*%
X107350000Y-50000000D03*
%TD*%
D22*
%TO.P,R27,1*%
%TO.N,/col4*%
X73675000Y-83000000D03*
%TO.P,R27,2*%
%TO.N,Net-(R19-Pad1)*%
X75500000Y-83000000D03*
%TD*%
D24*
%TO.P,D8,1,K*%
%TO.N,/row0*%
X110650000Y-69000000D03*
%TO.P,D8,2,A*%
%TO.N,Net-(D8-Pad2)*%
X107350000Y-69000000D03*
%TD*%
%TO.P,D20,1,K*%
%TO.N,/row5*%
X205650000Y-84000000D03*
%TO.P,D20,2,A*%
%TO.N,Net-(D20-Pad2)*%
X202350000Y-84000000D03*
%TD*%
D35*
%TO.P,J1,A1,GND*%
%TO.N,GND*%
X83382786Y-53157812D03*
%TO.P,J1,A2,TX1+*%
%TO.N,Net-(J1-PadA2)*%
X83852633Y-52986802D03*
%TO.P,J1,A3,TX1-*%
%TO.N,Net-(J1-PadA3)*%
X84322479Y-52815792D03*
%TO.P,J1,A4,VBUS*%
%TO.N,VBUS*%
X84792325Y-52644782D03*
%TO.P,J1,A5,CC1*%
%TO.N,Net-(J1-PadA5)*%
X85262172Y-52473772D03*
%TO.P,J1,A6,D+*%
%TO.N,Net-(J1-PadA6)*%
X85732018Y-52302762D03*
%TO.P,J1,A7,D-*%
%TO.N,Net-(J1-PadA7)*%
X86201864Y-52131752D03*
%TO.P,J1,A8,SBU1*%
%TO.N,Net-(J1-PadA8)*%
X86671711Y-51960742D03*
%TO.P,J1,A9,VBUS*%
%TO.N,VBUS*%
X87141557Y-51789732D03*
%TO.P,J1,A10,RX2-*%
%TO.N,Net-(J1-PadA10)*%
X87611403Y-51618722D03*
%TO.P,J1,A11,RX2+*%
%TO.N,Net-(J1-PadA11)*%
X88081250Y-51447712D03*
%TO.P,J1,A12,GND*%
%TO.N,GND*%
X88551096Y-51276702D03*
D36*
%TO.P,J1,B1,GND*%
X88150034Y-50028603D03*
%TO.P,J1,B2,TX2+*%
%TO.N,Net-(J1-PadA2)*%
X87534743Y-49507626D03*
%TO.P,J1,B3,TX2-*%
%TO.N,Net-(J1-PadA3)*%
X86782989Y-49781243D03*
%TO.P,J1,B4,VBUS*%
%TO.N,VBUS*%
X86646526Y-50575835D03*
%TO.P,J1,B5,CC2*%
%TO.N,Net-(J1-PadA5)*%
X86031235Y-50054859D03*
%TO.P,J1,B6,D+*%
%TO.N,Net-(J1-PadA6)*%
X85894772Y-50849452D03*
%TO.P,J1,B7,D-*%
%TO.N,Net-(J1-PadA7)*%
X85143018Y-51123068D03*
%TO.P,J1,B8,SBU2*%
%TO.N,Net-(J1-PadA8)*%
X84527727Y-50602091D03*
%TO.P,J1,B9,VBUS*%
%TO.N,VBUS*%
X84391264Y-51396684D03*
%TO.P,J1,B10,RX1-*%
%TO.N,Net-(J1-PadA10)*%
X83775972Y-50875707D03*
%TO.P,J1,B11,RX1+*%
%TO.N,Net-(J1-PadA11)*%
X83024218Y-51149323D03*
%TO.P,J1,B12,GND*%
%TO.N,GND*%
X82887755Y-51943916D03*
D37*
%TO.P,J1,S1,SHIELD*%
X87497883Y-43295603D03*
X79059443Y-46366943D03*
X89194613Y-49009901D03*
X81432752Y-51834987D03*
%TD*%
D24*
%TO.P,D26,1,K*%
%TO.N,/row4*%
X186650000Y-100000000D03*
%TO.P,D26,2,A*%
%TO.N,Net-(D26-Pad2)*%
X183350000Y-100000000D03*
%TD*%
D22*
%TO.P,R24,1*%
%TO.N,/col0*%
X73675000Y-93000000D03*
%TO.P,R24,2*%
%TO.N,Net-(R23-Pad1)*%
X75500000Y-93000000D03*
%TD*%
%TO.P,R25,1*%
%TO.N,/col2*%
X73675000Y-88000000D03*
%TO.P,R25,2*%
%TO.N,Net-(R21-Pad1)*%
X75500000Y-88000000D03*
%TD*%
D27*
%TO.P,D37,1,K*%
%TO.N,/row1*%
X105064971Y-155435029D03*
%TO.P,D37,2,A*%
%TO.N,Net-(D37-Pad2)*%
X102731519Y-157768481D03*
%TD*%
D20*
%TO.P,R20,1*%
%TO.N,Net-(R20-Pad1)*%
X75400000Y-97487500D03*
%TO.P,R20,2*%
%TO.N,+3.3V*%
X75400000Y-99312500D03*
%TD*%
D19*
%TO.P,FB1,1*%
%TO.N,Net-(D39-Pad1)*%
X77162500Y-62000000D03*
%TO.P,FB1,2*%
%TO.N,Net-(C6-Pad1)*%
X75337500Y-62000000D03*
%TD*%
D24*
%TO.P,D4,1,K*%
%TO.N,/row3*%
X167650000Y-42000000D03*
%TO.P,D4,2,A*%
%TO.N,Net-(D4-Pad2)*%
X164350000Y-42000000D03*
%TD*%
D22*
%TO.P,R3,1*%
%TO.N,/ENC_SW*%
X82987500Y-145800000D03*
%TO.P,R3,2*%
%TO.N,+3.3V*%
X84812500Y-145800000D03*
%TD*%
D19*
%TO.P,R14,1*%
%TO.N,/row3*%
X89800000Y-88288889D03*
%TO.P,R14,2*%
%TO.N,Net-(R14-Pad2)*%
X87975000Y-88288889D03*
%TD*%
D22*
%TO.P,R29,1*%
%TO.N,/col1*%
X73675000Y-90500000D03*
%TO.P,R29,2*%
%TO.N,Net-(R22-Pad1)*%
X75500000Y-90500000D03*
%TD*%
D24*
%TO.P,D24,1,K*%
%TO.N,/row2*%
X148650000Y-100000000D03*
%TO.P,D24,2,A*%
%TO.N,Net-(D24-Pad2)*%
X145350000Y-100000000D03*
%TD*%
%TO.P,D15,1,K*%
%TO.N,/row0*%
X110650000Y-88000000D03*
%TO.P,D15,2,A*%
%TO.N,Net-(D15-Pad2)*%
X107350000Y-88000000D03*
%TD*%
%TO.P,D33,1,K*%
%TO.N,/row4*%
X186650000Y-119000000D03*
%TO.P,D33,2,A*%
%TO.N,Net-(D33-Pad2)*%
X183350000Y-119000000D03*
%TD*%
D38*
%TO.N,/row0*%
X113500000Y-107000000D03*
X113500000Y-69000000D03*
X113500000Y-50000000D03*
X105400000Y-74200000D03*
X113495278Y-125998054D03*
X113500000Y-88000000D03*
%TO.N,/row1*%
X132500000Y-45500000D03*
X94400000Y-83000000D03*
X132500000Y-121500000D03*
X132500000Y-102500000D03*
X132500000Y-64500000D03*
X132500000Y-83500000D03*
X110200000Y-85400000D03*
%TO.N,/row2*%
X151500000Y-81000000D03*
X151500000Y-62000000D03*
X151500000Y-43000000D03*
X151500000Y-100000000D03*
X151500000Y-119000000D03*
%TO.N,/row3*%
X170500000Y-80000000D03*
X170500000Y-42000000D03*
X170500000Y-61000000D03*
X170500000Y-118000000D03*
X170500000Y-99000000D03*
%TO.N,/col0*%
X72000000Y-78575500D03*
X72000000Y-93000000D03*
%TO.N,/col1*%
X72224500Y-90000000D03*
X76624500Y-78400000D03*
%TO.N,/row4*%
X189483957Y-61984389D03*
X189500000Y-81000000D03*
X189500000Y-119000000D03*
X189500000Y-43000000D03*
X189500000Y-100000000D03*
%TO.N,/row5*%
X208500000Y-46000000D03*
X208500000Y-103000000D03*
X208500000Y-122000000D03*
X208500000Y-65000000D03*
X208500000Y-84000000D03*
%TO.N,/col5*%
X74177700Y-133077700D03*
%TO.N,GND*%
X93200000Y-56500000D03*
X76300000Y-52400000D03*
X64600000Y-105600000D03*
X73900000Y-55600000D03*
%TO.N,+3.3V*%
X77000000Y-118500000D03*
X69800000Y-88312500D03*
X66300000Y-70800000D03*
X82275500Y-96800000D03*
X73700000Y-78000000D03*
X77000000Y-112500000D03*
X64100000Y-67200000D03*
D39*
%TO.N,VBUS*%
X92100000Y-48100000D03*
X81600000Y-53975500D03*
X84075491Y-60754936D03*
X82900000Y-58125500D03*
D38*
%TO.N,Net-(J1-PadA2)*%
X84203486Y-57100000D03*
%TO.N,/LCD2_RST*%
X64375500Y-76800000D03*
%TO.N,/MOSI*%
X64875500Y-74800000D03*
%TO.N,/SDA*%
X61500000Y-78700000D03*
X85200000Y-60000000D03*
X67000000Y-83000000D03*
X77000000Y-58499500D03*
%TO.N,/SCL*%
X70775500Y-81112500D03*
%TO.N,/SCK*%
X65600000Y-72800000D03*
%TO.N,/LCD2_DC*%
X63300000Y-77700000D03*
%TO.N,Net-(J1-PadA3)*%
X90650000Y-56150000D03*
X84653486Y-58216480D03*
%TO.N,Net-(J1-PadA5)*%
X85500500Y-59046742D03*
X89800000Y-56900000D03*
%TO.N,Net-(J1-PadA6)*%
X71200000Y-69849500D03*
X68800000Y-83000000D03*
%TO.N,Net-(J1-PadA7)*%
X87400000Y-58600000D03*
X91200000Y-62400000D03*
X87000000Y-55300000D03*
%TO.N,Net-(J1-PadA8)*%
X88964300Y-54496936D03*
%TO.N,Net-(J1-PadA10)*%
X90200000Y-54475500D03*
X92200000Y-53500000D03*
%TO.N,Net-(J1-PadA11)*%
X90275451Y-53375451D03*
%TO.N,Net-(R8-Pad2)*%
X83500000Y-128100000D03*
%TO.N,Net-(R9-Pad2)*%
X56500000Y-133300000D03*
%TO.N,Net-(R10-Pad2)*%
X80600000Y-142275500D03*
%TO.N,Net-(R20-Pad1)*%
X75725500Y-96875500D03*
%TO.N,Net-(R21-Pad1)*%
X72100000Y-94700000D03*
%TO.N,Net-(R22-Pad1)*%
X74100000Y-94500000D03*
%TO.N,Net-(R23-Pad1)*%
X72000000Y-96100000D03*
%TD*%
D40*
%TO.N,/col4*%
X133085000Y-108323173D02*
X136585000Y-104823173D01*
X136585000Y-104823173D02*
X187585000Y-104823173D01*
X187585000Y-104823173D02*
X191585000Y-108823173D01*
X191585000Y-108823173D02*
X206105173Y-108823173D01*
X206105173Y-108823173D02*
X212000000Y-114718000D01*
X212000000Y-114718000D02*
X212000000Y-118283173D01*
%TO.N,/col1*%
X133085000Y-51323173D02*
X136585000Y-47823173D01*
X136585000Y-47823173D02*
X187585000Y-47823173D01*
X187585000Y-47823173D02*
X191585000Y-51823173D01*
X191585000Y-51823173D02*
X206661573Y-51823173D01*
X206661573Y-51823173D02*
X212000000Y-57161600D01*
X212000000Y-57161600D02*
X212000000Y-61283173D01*
%TO.N,/col3*%
X133085000Y-89323173D02*
X136585000Y-85823173D01*
X136585000Y-85823173D02*
X187585000Y-85823173D01*
X187585000Y-85823173D02*
X191585000Y-89823173D01*
X191585000Y-89823173D02*
X206663173Y-89823173D01*
X206663173Y-89823173D02*
X207924400Y-91084400D01*
X207924400Y-91084400D02*
X207924400Y-92424400D01*
X207924400Y-92424400D02*
X212000000Y-96500000D01*
X212000000Y-96500000D02*
X212000000Y-99283173D01*
%TO.N,Net-(D39-Pad1)*%
X79950000Y-62000000D02*
X77162500Y-62000000D01*
%TO.N,Net-(D1-Pad2)*%
X107540000Y-39920000D02*
X107540000Y-49810000D01*
%TO.N,/row0*%
X110650000Y-50000000D02*
X113500000Y-50000000D01*
X91629942Y-168870057D02*
X98629943Y-168870057D01*
X110645278Y-125998054D02*
X113495278Y-125998054D01*
X108500000Y-152517121D02*
X100500000Y-144517121D01*
X110650000Y-88000000D02*
X113500000Y-88000000D01*
X100500000Y-144517121D02*
X100500000Y-136150000D01*
X100500000Y-136150000D02*
X110650000Y-126000000D01*
X99800000Y-74200000D02*
X105400000Y-74200000D01*
X93177778Y-80822222D02*
X99800000Y-74200000D01*
X108500000Y-159000000D02*
X108500000Y-152517121D01*
X89800000Y-80822222D02*
X93177778Y-80822222D01*
X98629943Y-168870057D02*
X108500000Y-159000000D01*
X110650000Y-107000000D02*
X113500000Y-107000000D01*
X110650000Y-69000000D02*
X113500000Y-69000000D01*
%TO.N,Net-(D2-Pad2)*%
X126500000Y-35500000D02*
X126500000Y-45390000D01*
%TO.N,/row1*%
X110200000Y-85400000D02*
X127600000Y-85400000D01*
X105064971Y-155435029D02*
X105064971Y-150564971D01*
X99500000Y-145000000D02*
X99500000Y-135500000D01*
X127600000Y-85400000D02*
X129460000Y-83540000D01*
X89800000Y-83311111D02*
X94088889Y-83311111D01*
X129650000Y-83500000D02*
X132500000Y-83500000D01*
X111000000Y-124000000D02*
X127000000Y-124000000D01*
X105064971Y-150564971D02*
X99500000Y-145000000D01*
X127000000Y-124000000D02*
X129460000Y-121540000D01*
X129650000Y-102500000D02*
X132500000Y-102500000D01*
X129650000Y-121500000D02*
X132500000Y-121500000D01*
X129650000Y-45500000D02*
X132500000Y-45500000D01*
X94088889Y-83311111D02*
X94400000Y-83000000D01*
X129650000Y-64500000D02*
X132500000Y-64500000D01*
X99500000Y-135500000D02*
X111000000Y-124000000D01*
%TO.N,Net-(D3-Pad2)*%
X145500000Y-33000000D02*
X145500000Y-42890000D01*
%TO.N,/row2*%
X107000000Y-90800000D02*
X112600000Y-90800000D01*
X135200000Y-83800000D02*
X146600000Y-83800000D01*
X89800000Y-85800000D02*
X102000000Y-85800000D01*
X118500000Y-142000000D02*
X139500000Y-121000000D01*
X148650000Y-81000000D02*
X151500000Y-81000000D01*
X116600000Y-86800000D02*
X132200000Y-86800000D01*
X148650000Y-81750000D02*
X148650000Y-81000000D01*
X148650000Y-43000000D02*
X151500000Y-43000000D01*
X148000000Y-121000000D02*
X148650000Y-120350000D01*
X139500000Y-121000000D02*
X148000000Y-121000000D01*
X148650000Y-100000000D02*
X151500000Y-100000000D01*
X148650000Y-119000000D02*
X151500000Y-119000000D01*
X102000000Y-85800000D02*
X107000000Y-90800000D01*
X146600000Y-83800000D02*
X148650000Y-81750000D01*
X148650000Y-120350000D02*
X148650000Y-119000000D01*
X148650000Y-62000000D02*
X151500000Y-62000000D01*
X132200000Y-86800000D02*
X135200000Y-83800000D01*
X112600000Y-90800000D02*
X116600000Y-86800000D01*
%TO.N,Net-(D4-Pad2)*%
X164500000Y-32000000D02*
X164500000Y-41890000D01*
%TO.N,/row3*%
X167650000Y-42000000D02*
X170500000Y-42000000D01*
X147036396Y-84000000D02*
X163650000Y-84000000D01*
X89800000Y-88288889D02*
X103852493Y-88288889D01*
X103852493Y-88288889D02*
X106813604Y-91250000D01*
X167650000Y-61000000D02*
X170500000Y-61000000D01*
X167650000Y-99000000D02*
X170500000Y-99000000D01*
X132386396Y-87250000D02*
X135386396Y-84250000D01*
X116786396Y-87250000D02*
X132386396Y-87250000D01*
X167650000Y-80000000D02*
X170500000Y-80000000D01*
X135386396Y-84250000D02*
X146786396Y-84250000D01*
X167650000Y-118000000D02*
X170500000Y-118000000D01*
X106813604Y-91250000D02*
X112786396Y-91250000D01*
X112786396Y-91250000D02*
X116786396Y-87250000D01*
X146786396Y-84250000D02*
X147036396Y-84000000D01*
X163650000Y-84000000D02*
X167650000Y-80000000D01*
%TO.N,Net-(D5-Pad2)*%
X183500000Y-33000000D02*
X183500000Y-42890000D01*
%TO.N,Net-(D6-Pad2)*%
X202500000Y-36000000D02*
X202500000Y-45890000D01*
%TO.N,Net-(D7-Pad2)*%
X221500000Y-40000000D02*
X221500000Y-49890000D01*
%TO.N,Net-(D8-Pad2)*%
X107500000Y-59110000D02*
X107500000Y-69000000D01*
%TO.N,Net-(D9-Pad2)*%
X126460000Y-54690000D02*
X126460000Y-64580000D01*
%TO.N,Net-(D10-Pad2)*%
X145460000Y-52190000D02*
X145460000Y-62080000D01*
%TO.N,Net-(D11-Pad2)*%
X164460000Y-51190000D02*
X164460000Y-61080000D01*
%TO.N,Net-(D12-Pad2)*%
X183460000Y-52190000D02*
X183460000Y-62080000D01*
%TO.N,Net-(D13-Pad2)*%
X202500000Y-55110000D02*
X202500000Y-65000000D01*
%TO.N,Net-(D14-Pad2)*%
X221460000Y-59190000D02*
X221460000Y-69080000D01*
%TO.N,Net-(D15-Pad2)*%
X107500000Y-78110000D02*
X107500000Y-88000000D01*
%TO.N,Net-(D16-Pad2)*%
X126460000Y-73690000D02*
X126460000Y-83580000D01*
%TO.N,/col0*%
X88713604Y-61950000D02*
X88850000Y-61950000D01*
X72000000Y-78575500D02*
X72000000Y-77400000D01*
X193415000Y-33085000D02*
X193500000Y-33000000D01*
X72000000Y-77400000D02*
X72600000Y-76800000D01*
X74075000Y-76725000D02*
X74075000Y-76588604D01*
X95000000Y-45875000D02*
X98415000Y-42460000D01*
X117225000Y-33275000D02*
X117500000Y-33000000D01*
X136415000Y-35415000D02*
X133500000Y-32500000D01*
X117500000Y-33000000D02*
X133000000Y-33000000D01*
X155500000Y-29000000D02*
X174500000Y-29000000D01*
X174415000Y-29085000D02*
X174500000Y-29000000D01*
X133000000Y-33000000D02*
X133500000Y-32500000D01*
X212415000Y-39676827D02*
X212415000Y-42460000D01*
X155415000Y-34460000D02*
X155415000Y-29085000D01*
X72600000Y-76800000D02*
X74000000Y-76800000D01*
X192000000Y-33000000D02*
X193500000Y-33000000D01*
X155415000Y-29085000D02*
X155500000Y-29000000D01*
X117225000Y-38000000D02*
X117225000Y-33275000D01*
X74000000Y-76800000D02*
X74075000Y-76725000D01*
X101190000Y-42460000D02*
X110650000Y-33000000D01*
X188000000Y-29000000D02*
X192000000Y-33000000D01*
X205738173Y-33000000D02*
X212415000Y-39676827D01*
X193415000Y-38460000D02*
X193415000Y-33085000D01*
X193500000Y-33000000D02*
X205738173Y-33000000D01*
X110650000Y-33000000D02*
X117500000Y-33000000D01*
X74075000Y-76588604D02*
X88713604Y-61950000D01*
X88850000Y-61950000D02*
X95000000Y-55800000D01*
X72000000Y-93000000D02*
X73675000Y-93000000D01*
X133500000Y-32500000D02*
X137000000Y-29000000D01*
X174415000Y-35460000D02*
X174415000Y-29085000D01*
X174500000Y-29000000D02*
X188000000Y-29000000D01*
X137000000Y-29000000D02*
X155500000Y-29000000D01*
X95000000Y-55800000D02*
X95000000Y-45875000D01*
%TO.N,/col1*%
X132585000Y-51823173D02*
X133085000Y-51323173D01*
X136000000Y-54238173D02*
X133085000Y-51323173D01*
X76624500Y-75311896D02*
X82811396Y-69125000D01*
X174000000Y-54283173D02*
X174000000Y-47908173D01*
X116810000Y-56823173D02*
X116810000Y-52098173D01*
X155000000Y-53283173D02*
X155000000Y-47908173D01*
X110235000Y-51823173D02*
X117085000Y-51823173D01*
X117085000Y-51823173D02*
X132585000Y-51823173D01*
X72724500Y-90500000D02*
X72224500Y-90000000D01*
X76624500Y-78400000D02*
X76624500Y-75311896D01*
X82811396Y-69125000D02*
X90750000Y-69125000D01*
X116810000Y-52098173D02*
X117085000Y-51823173D01*
X193000000Y-57283173D02*
X193000000Y-51908173D01*
X73675000Y-90500000D02*
X72724500Y-90500000D01*
X100775000Y-61283173D02*
X110235000Y-51823173D01*
X90750000Y-69125000D02*
X98415000Y-61460000D01*
%TO.N,/col2*%
X117585000Y-70823173D02*
X133085000Y-70823173D01*
X174585000Y-66823173D02*
X188085000Y-66823173D01*
X72837500Y-84687500D02*
X73050000Y-84475000D01*
X72837500Y-87162500D02*
X72837500Y-84687500D01*
X73675000Y-88000000D02*
X72837500Y-87162500D01*
X155585000Y-66823173D02*
X174585000Y-66823173D01*
X193585000Y-70823173D02*
X205823173Y-70823173D01*
X137085000Y-66823173D02*
X155585000Y-66823173D01*
X133585000Y-70323173D02*
X137085000Y-66823173D01*
X136500000Y-73238173D02*
X133585000Y-70323173D01*
X133085000Y-70823173D02*
X133585000Y-70323173D01*
X110735000Y-70823173D02*
X117585000Y-70823173D01*
X193500000Y-76283173D02*
X193500000Y-70908173D01*
X192085000Y-70823173D02*
X193585000Y-70823173D01*
X205823173Y-70823173D02*
X212500000Y-77500000D01*
X174500000Y-73283173D02*
X174500000Y-66908173D01*
X155500000Y-72283173D02*
X155500000Y-66908173D01*
X73050000Y-84475000D02*
X94400000Y-84475000D01*
X101275000Y-80283173D02*
X110735000Y-70823173D01*
X117310000Y-75823173D02*
X117310000Y-71098173D01*
X117310000Y-71098173D02*
X117585000Y-70823173D01*
X188085000Y-66823173D02*
X192085000Y-70823173D01*
X212500000Y-77500000D02*
X212500000Y-80283173D01*
X94400000Y-84475000D02*
X98415000Y-80460000D01*
%TO.N,/col3*%
X136000000Y-92238173D02*
X133085000Y-89323173D01*
X75474327Y-94500000D02*
X93500000Y-94500000D01*
X93500000Y-94500000D02*
X98415000Y-99415000D01*
X73675000Y-85500000D02*
X74512500Y-86337500D01*
X112708173Y-94200000D02*
X117085000Y-89823173D01*
X105858173Y-94200000D02*
X112708173Y-94200000D01*
X174000000Y-92283173D02*
X174000000Y-85908173D01*
X74512500Y-93538173D02*
X75474327Y-94500000D01*
X132585000Y-89823173D02*
X133085000Y-89323173D01*
X193000000Y-95283173D02*
X193000000Y-89908173D01*
X74512500Y-86337500D02*
X74512500Y-93538173D01*
X100775000Y-99283173D02*
X105858173Y-94200000D01*
X116810000Y-90098173D02*
X117085000Y-89823173D01*
X116810000Y-94823173D02*
X116810000Y-90098173D01*
X155000000Y-91283173D02*
X155000000Y-85908173D01*
X117085000Y-89823173D02*
X132585000Y-89823173D01*
%TO.N,/row4*%
X90722222Y-91700000D02*
X112972792Y-91700000D01*
X132572792Y-87700000D02*
X135572792Y-84700000D01*
X116972792Y-87700000D02*
X132572792Y-87700000D01*
X112972792Y-91700000D02*
X116972792Y-87700000D01*
X135572792Y-84700000D02*
X183300000Y-84700000D01*
X89800000Y-90777778D02*
X90722222Y-91700000D01*
X186650000Y-119000000D02*
X189500000Y-119000000D01*
X186650000Y-100000000D02*
X189500000Y-100000000D01*
X186633957Y-61984389D02*
X189483957Y-61984389D01*
X186650000Y-43000000D02*
X189500000Y-43000000D01*
X186650000Y-81000000D02*
X189500000Y-81000000D01*
X186650000Y-81350000D02*
X183300000Y-84700000D01*
%TO.N,/row5*%
X204800000Y-85200000D02*
X205650000Y-84350000D01*
X205650000Y-84000000D02*
X208500000Y-84000000D01*
X132709188Y-88200000D02*
X135709188Y-85200000D01*
X117400000Y-88200000D02*
X132709188Y-88200000D01*
X205650000Y-65000000D02*
X208500000Y-65000000D01*
X205650000Y-122000000D02*
X208500000Y-122000000D01*
X205650000Y-103000000D02*
X208500000Y-103000000D01*
X135709188Y-85200000D02*
X204800000Y-85200000D01*
X205650000Y-46000000D02*
X208500000Y-46000000D01*
X112333333Y-93266667D02*
X117400000Y-88200000D01*
X89800000Y-93266667D02*
X112333333Y-93266667D01*
%TO.N,/row6*%
X225000000Y-50000000D02*
X227500000Y-52500000D01*
X224650000Y-107000000D02*
X227500000Y-107000000D01*
X227500000Y-70300000D02*
X227500000Y-88000000D01*
X227500000Y-52500000D02*
X227500000Y-69000000D01*
X227500000Y-107000000D02*
X227500000Y-123150000D01*
X224650000Y-88000000D02*
X227500000Y-88000000D01*
X188426827Y-66200000D02*
X192600000Y-70373173D01*
X192600000Y-70373173D02*
X227426827Y-70373173D01*
X227500000Y-123150000D02*
X224650000Y-126000000D01*
X87226827Y-70373173D02*
X132226827Y-70373173D01*
X85000000Y-72600000D02*
X87226827Y-70373173D01*
X227500000Y-88000000D02*
X227500000Y-107000000D01*
X227426827Y-70373173D02*
X227500000Y-70300000D01*
X227500000Y-69000000D02*
X227500000Y-70300000D01*
X136400000Y-66200000D02*
X188426827Y-66200000D01*
X132226827Y-70373173D02*
X136400000Y-66200000D01*
X224650000Y-50000000D02*
X225000000Y-50000000D01*
X224650000Y-69000000D02*
X227500000Y-69000000D01*
%TO.N,Net-(D17-Pad2)*%
X145460000Y-71190000D02*
X145460000Y-81080000D01*
%TO.N,Net-(D18-Pad2)*%
X164460000Y-70190000D02*
X164460000Y-80080000D01*
%TO.N,Net-(D19-Pad2)*%
X183460000Y-71190000D02*
X183460000Y-81080000D01*
%TO.N,Net-(D20-Pad2)*%
X202500000Y-74110000D02*
X202500000Y-84000000D01*
%TO.N,Net-(D21-Pad2)*%
X221460000Y-78190000D02*
X221460000Y-88080000D01*
%TO.N,Net-(D22-Pad2)*%
X107492454Y-97060235D02*
X107492454Y-106950235D01*
%TO.N,Net-(D23-Pad2)*%
X126452454Y-92640235D02*
X126452454Y-102530235D01*
%TO.N,Net-(D24-Pad2)*%
X145452454Y-90140235D02*
X145452454Y-100030235D01*
%TO.N,Net-(D25-Pad2)*%
X164452454Y-89140235D02*
X164452454Y-99030235D01*
%TO.N,Net-(D26-Pad2)*%
X183452454Y-90140235D02*
X183452454Y-100030235D01*
%TO.N,Net-(D27-Pad2)*%
X202500000Y-93110000D02*
X202500000Y-103000000D01*
%TO.N,Net-(D28-Pad2)*%
X221452454Y-97140235D02*
X221452454Y-107030235D01*
%TO.N,Net-(D29-Pad2)*%
X107500000Y-116110000D02*
X107500000Y-126000000D01*
%TO.N,Net-(D30-Pad2)*%
X126460000Y-111690000D02*
X126460000Y-121580000D01*
%TO.N,Net-(D31-Pad2)*%
X145460000Y-109190000D02*
X145460000Y-119080000D01*
%TO.N,Net-(D32-Pad2)*%
X164460000Y-108190000D02*
X164460000Y-118080000D01*
%TO.N,Net-(D33-Pad2)*%
X183540000Y-108920000D02*
X183540000Y-118810000D01*
X183460000Y-109190000D02*
X183460000Y-119080000D01*
%TO.N,Net-(D37-Pad2)*%
X95599214Y-150611846D02*
X102731519Y-157744151D01*
%TO.N,Net-(D38-Pad2)*%
X109034243Y-137176817D02*
X116166548Y-144309122D01*
%TO.N,/col4*%
X72387500Y-84287500D02*
X73675000Y-83000000D01*
X100775000Y-118283173D02*
X110235000Y-108823173D01*
X68450000Y-92487500D02*
X72387500Y-88550000D01*
X132585000Y-108823173D02*
X133085000Y-108323173D01*
X155000000Y-110283173D02*
X155000000Y-104908173D01*
X136000000Y-111238173D02*
X133085000Y-108323173D01*
X110235000Y-108823173D02*
X117085000Y-108823173D01*
X97875000Y-119000000D02*
X79500000Y-119000000D01*
X72387500Y-88550000D02*
X72387500Y-84287500D01*
X116810000Y-109098173D02*
X117085000Y-108823173D01*
X174000000Y-111283173D02*
X174000000Y-104908173D01*
X193000000Y-114283173D02*
X193000000Y-108908173D01*
X79500000Y-119000000D02*
X68450000Y-107950000D01*
X116810000Y-113823173D02*
X116810000Y-109098173D01*
X117085000Y-108823173D02*
X132585000Y-108823173D01*
X68450000Y-107950000D02*
X68450000Y-92487500D01*
%TO.N,/col5*%
X68000000Y-124590812D02*
X70659688Y-127250500D01*
X77321802Y-130178198D02*
X74422300Y-133077700D01*
X75510780Y-127250500D02*
X77321802Y-129061522D01*
X73663604Y-80500000D02*
X68000000Y-86163604D01*
X68000000Y-86163604D02*
X68000000Y-124590812D01*
X77321802Y-129061522D02*
X77321802Y-130178198D01*
X74422300Y-133077700D02*
X74177700Y-133077700D01*
X70659688Y-127250500D02*
X75510780Y-127250500D01*
%TO.N,Net-(C6-Pad1)*%
X75337500Y-62000000D02*
X75337500Y-58362500D01*
X75450000Y-54950000D02*
X69000000Y-48500000D01*
X60100000Y-50650000D02*
X60100000Y-52950000D01*
X75450000Y-58250000D02*
X75450000Y-54950000D01*
X62250000Y-48500000D02*
X60100000Y-50650000D01*
X69000000Y-48500000D02*
X62250000Y-48500000D01*
%TO.N,GND*%
X83000000Y-140700000D02*
X80150000Y-140700000D01*
X77650000Y-143200000D02*
X80150000Y-140700000D01*
X75500000Y-102950000D02*
X75990000Y-103440000D01*
X88551096Y-51056496D02*
X88551096Y-51276702D01*
X60850000Y-60650000D02*
X73550000Y-60650000D01*
X58975000Y-93970000D02*
X64600000Y-99595000D01*
X73900000Y-55600000D02*
X73550000Y-55950000D01*
X85800000Y-98360000D02*
X88090000Y-98360000D01*
X82887755Y-51943916D02*
X83212755Y-52268916D01*
X78180000Y-103440000D02*
X78180000Y-108520000D01*
X82887755Y-51943916D02*
X81541681Y-51943916D01*
X90354397Y-43295603D02*
X87497883Y-43295603D01*
X92050000Y-41600000D02*
X90354397Y-43295603D01*
X88150034Y-50028603D02*
X88150034Y-50655434D01*
X56050000Y-145450000D02*
X58300000Y-143200000D01*
X53700000Y-143100000D02*
X56050000Y-145450000D01*
X75990000Y-103440000D02*
X78180000Y-103440000D01*
X81432752Y-51834987D02*
X76865013Y-51834987D01*
X93200000Y-56500000D02*
X93200000Y-53015288D01*
X58300000Y-143200000D02*
X65650000Y-143200000D01*
X64600000Y-99595000D02*
X64600000Y-105600000D01*
X83212755Y-52268916D02*
X83212755Y-52987781D01*
X83260000Y-98360000D02*
X78180000Y-103440000D01*
X83212755Y-52987781D02*
X83382786Y-53157812D01*
X53700000Y-142650000D02*
X53700000Y-143100000D01*
X73550000Y-55950000D02*
X73550000Y-58250000D01*
X65650000Y-143200000D02*
X77650000Y-143200000D01*
X60100000Y-57550000D02*
X60100000Y-59900000D01*
X92050000Y-38590000D02*
X92050000Y-41600000D01*
X93200000Y-53015288D02*
X89194613Y-49009901D01*
X88150034Y-50655434D02*
X88551096Y-51056496D01*
X73550000Y-58250000D02*
X73550000Y-60650000D01*
X73550000Y-60650000D02*
X73550000Y-61900000D01*
X60100000Y-59900000D02*
X60850000Y-60650000D01*
X76865013Y-51834987D02*
X76300000Y-52400000D01*
X88175911Y-50028603D02*
X89194613Y-49009901D01*
X85800000Y-98360000D02*
X83260000Y-98360000D01*
%TO.N,+3.3V*%
X72492500Y-135787500D02*
X78780000Y-129500000D01*
X88168750Y-149156250D02*
X88256250Y-149156250D01*
X88256250Y-149156250D02*
X87100000Y-150312500D01*
X78500000Y-120000000D02*
X84000000Y-120000000D01*
X71500000Y-62000000D02*
X68000000Y-62000000D01*
X89912500Y-106000000D02*
X89912500Y-109587500D01*
X56250000Y-59750000D02*
X56250000Y-55750000D01*
X89912500Y-109587500D02*
X87000000Y-112500000D01*
X73862500Y-101050000D02*
X73312500Y-101600000D01*
X56750000Y-55250000D02*
X60100000Y-55250000D01*
X68000000Y-62000000D02*
X58500000Y-62000000D01*
X82275500Y-96800000D02*
X83255500Y-95820000D01*
X56250000Y-55750000D02*
X56750000Y-55250000D01*
X87000000Y-112500000D02*
X77000000Y-112500000D01*
X65005000Y-66295000D02*
X65005000Y-64995000D01*
X75500000Y-101050000D02*
X73862500Y-101050000D01*
X89952500Y-98002500D02*
X88250000Y-96300000D01*
X58975000Y-73650000D02*
X63450000Y-73650000D01*
X84000000Y-120000000D02*
X97000000Y-133000000D01*
X82275500Y-96804500D02*
X78180000Y-100900000D01*
X83255500Y-95820000D02*
X85800000Y-95820000D01*
X63450000Y-73650000D02*
X66300000Y-70800000D01*
X60700000Y-135787500D02*
X72492500Y-135787500D01*
X89952500Y-103540000D02*
X89952500Y-105960000D01*
X73200000Y-99312500D02*
X75400000Y-99312500D01*
X65005000Y-64995000D02*
X68000000Y-62000000D01*
X82275500Y-96800000D02*
X82275500Y-96804500D01*
X87770000Y-95820000D02*
X88250000Y-96300000D01*
X84812500Y-145800000D02*
X88168750Y-149156250D01*
X75650000Y-100900000D02*
X78180000Y-100900000D01*
X75400000Y-99312500D02*
X75400000Y-100950000D01*
X97000000Y-133000000D02*
X97000000Y-139000000D01*
X77000000Y-118500000D02*
X78500000Y-120000000D01*
X73200000Y-99312500D02*
X71000000Y-99312500D01*
X94662500Y-141337500D02*
X94662500Y-142750000D01*
X94662500Y-142750000D02*
X88256250Y-149156250D01*
X58500000Y-62000000D02*
X56250000Y-59750000D01*
X85800000Y-95820000D02*
X87770000Y-95820000D01*
X97000000Y-139000000D02*
X94662500Y-141337500D01*
X87100000Y-150312500D02*
X60900000Y-150312500D01*
X89952500Y-103540000D02*
X89952500Y-98002500D01*
X64100000Y-67200000D02*
X65005000Y-66295000D01*
D41*
%TO.N,VBUS*%
X58975000Y-69125000D02*
X56400000Y-71700000D01*
D40*
X84391264Y-51396684D02*
X84391264Y-52014753D01*
D41*
X82076099Y-54451599D02*
X81600000Y-53975500D01*
X93950000Y-38590000D02*
X93950000Y-41600000D01*
X82900000Y-58125500D02*
X82900000Y-57600000D01*
X93950000Y-41600000D02*
X93950000Y-46250000D01*
X76350000Y-68300000D02*
X66925805Y-68300000D01*
X56400000Y-124900000D02*
X61000000Y-129500000D01*
D40*
X86646526Y-51046526D02*
X87000000Y-51400000D01*
D41*
X82650000Y-62000000D02*
X76350000Y-68300000D01*
X82650000Y-62000000D02*
X83895064Y-60754936D01*
D40*
X86646526Y-50575835D02*
X86646526Y-51046526D01*
D41*
X66925805Y-68300000D02*
X66100805Y-69125000D01*
X93950000Y-46250000D02*
X92100000Y-48100000D01*
X82900000Y-57600000D02*
X82876099Y-57576099D01*
X66100805Y-69125000D02*
X58975000Y-69125000D01*
X82876099Y-54451599D02*
X82076099Y-54451599D01*
X56400000Y-71700000D02*
X56400000Y-124900000D01*
X82876099Y-54451599D02*
X82876099Y-57576099D01*
X83895064Y-60754936D02*
X84075491Y-60754936D01*
D40*
X84391264Y-52014753D02*
X84676511Y-52300000D01*
%TO.N,Net-(J1-PadA2)*%
X84075500Y-53429875D02*
X83972812Y-53327187D01*
X84203486Y-57100000D02*
X84075500Y-56972014D01*
X84075500Y-56972014D02*
X84075500Y-53429875D01*
%TO.N,/LCD2_RST*%
X66887500Y-76800000D02*
X64375500Y-76800000D01*
X67087500Y-76600000D02*
X66887500Y-76800000D01*
%TO.N,/MOSI*%
X67087500Y-74400000D02*
X65275500Y-74400000D01*
X65275500Y-74400000D02*
X64875500Y-74800000D01*
%TO.N,/SDA*%
X61500000Y-78700000D02*
X62700000Y-78700000D01*
X77700500Y-59200000D02*
X84400000Y-59200000D01*
X62700000Y-78700000D02*
X67000000Y-83000000D01*
X61470000Y-78730000D02*
X58975000Y-78730000D01*
X61500000Y-78700000D02*
X61470000Y-78730000D01*
X85800000Y-103440000D02*
X88027500Y-103440000D01*
X77000000Y-58499500D02*
X77700500Y-59200000D01*
X84400000Y-59200000D02*
X85200000Y-60000000D01*
%TO.N,/SCL*%
X88087500Y-106000000D02*
X85820000Y-106000000D01*
%TO.N,/SCK*%
X67087500Y-72200000D02*
X66200000Y-72200000D01*
X66200000Y-72200000D02*
X65600000Y-72800000D01*
%TO.N,/LCD2_CS*%
X66080000Y-129500000D02*
X66080000Y-85445673D01*
X58975000Y-81270000D02*
X61904327Y-81270000D01*
X66080000Y-85445673D02*
X67900000Y-83625673D01*
X67900000Y-83625673D02*
X67900000Y-81900000D01*
X67900000Y-81900000D02*
X67000000Y-81000000D01*
X61904327Y-81270000D02*
X66080000Y-85445673D01*
%TO.N,/LCD2_DC*%
X67000000Y-78800000D02*
X64400000Y-78800000D01*
X64400000Y-78800000D02*
X63300000Y-77700000D01*
%TO.N,Net-(J1-PadA3)*%
X70662500Y-74850000D02*
X73448097Y-74850000D01*
X68912500Y-76600000D02*
X70662500Y-74850000D01*
X84927986Y-57941980D02*
X84927986Y-53641505D01*
X73448097Y-74850000D02*
X90650000Y-57648097D01*
X84653486Y-58216480D02*
X84927986Y-57941980D01*
X90650000Y-57648097D02*
X90650000Y-56150000D01*
X84927986Y-53641505D02*
X84438294Y-53151813D01*
%TO.N,/ENC_SW*%
X82787500Y-145700000D02*
X80150000Y-145700000D01*
X84850000Y-140550000D02*
X84850000Y-139062500D01*
X83037500Y-142362500D02*
X83037500Y-145950000D01*
X84850000Y-139062500D02*
X83950000Y-138162500D01*
X84850000Y-140550000D02*
X83037500Y-142362500D01*
%TO.N,Net-(R4-Pad2)*%
X60700000Y-137612500D02*
X61612500Y-138525000D01*
X61612500Y-138525000D02*
X61612500Y-140700000D01*
X65650000Y-140700000D02*
X61612500Y-140700000D01*
%TO.N,Net-(R6-Pad2)*%
X62112500Y-147375000D02*
X62112500Y-145700000D01*
X60950000Y-148537500D02*
X62112500Y-147375000D01*
X62112500Y-145700000D02*
X65650000Y-145700000D01*
%TO.N,/ENC_A*%
X59787500Y-140700000D02*
X53750000Y-140700000D01*
X53687500Y-138400000D02*
X53687500Y-140737500D01*
%TO.N,/ENC_B*%
X57950000Y-145450000D02*
X57950000Y-147962500D01*
X57950000Y-145450000D02*
X60037500Y-145450000D01*
%TO.N,Net-(D34-Pad2)*%
X202500000Y-112110000D02*
X202500000Y-122000000D01*
%TO.N,Net-(D35-Pad2)*%
X221460000Y-116190000D02*
X221460000Y-126080000D01*
%TO.N,Net-(D36-Pad2)*%
X82164185Y-164046874D02*
X89296490Y-171179179D01*
%TO.N,Net-(J1-PadA5)*%
X89800000Y-57861701D02*
X89800000Y-56900000D01*
X85377986Y-58924228D02*
X85377986Y-52800000D01*
X85500500Y-59046742D02*
X85377986Y-58924228D01*
X73261701Y-74400000D02*
X89800000Y-57861701D01*
X68912500Y-74400000D02*
X73261701Y-74400000D01*
%TO.N,Net-(J1-PadA6)*%
X86225000Y-58199695D02*
X85847833Y-57822528D01*
X86225000Y-60125000D02*
X86225000Y-58199695D01*
X83425000Y-62963909D02*
X83425000Y-62925000D01*
X85894772Y-50849452D02*
X85894772Y-51291844D01*
X85894772Y-51291844D02*
X85600000Y-51586616D01*
X76539409Y-69849500D02*
X83425000Y-62963909D01*
X85600000Y-51586616D02*
X85600000Y-52000000D01*
X71200000Y-69849500D02*
X76539409Y-69849500D01*
X85847833Y-57822528D02*
X85847833Y-52600000D01*
X83425000Y-62925000D02*
X86225000Y-60125000D01*
%TO.N,Net-(J1-PadA7)*%
X86850000Y-55150000D02*
X86450000Y-55150000D01*
X74525000Y-78688173D02*
X74525000Y-76775000D01*
X86450000Y-55150000D02*
X86450000Y-52613604D01*
X88900000Y-62400000D02*
X91200000Y-62400000D01*
X87000000Y-55300000D02*
X86850000Y-55150000D01*
X86450000Y-57650000D02*
X86450000Y-55150000D01*
X87400000Y-58600000D02*
X86450000Y-57650000D01*
X73913173Y-79300000D02*
X74525000Y-78688173D01*
X74525000Y-76775000D02*
X88900000Y-62400000D01*
X86450000Y-52613604D02*
X86318198Y-52481802D01*
X71250305Y-79300000D02*
X73913173Y-79300000D01*
%TO.N,Net-(J1-PadA8)*%
X86800000Y-52300000D02*
X86845381Y-52354618D01*
X86900000Y-52600000D02*
X86900000Y-52409237D01*
X88964300Y-58061005D02*
X88964300Y-54496936D01*
X88964300Y-54496936D02*
X88796936Y-54496936D01*
X86845381Y-52354618D02*
X86800000Y-52309237D01*
X88796936Y-54496936D02*
X86900000Y-52600000D01*
X86900000Y-52409237D02*
X86800000Y-52309237D01*
X86800000Y-52309237D02*
X86800000Y-52300000D01*
X68912500Y-72200000D02*
X74825305Y-72200000D01*
X74825305Y-72200000D02*
X88964300Y-58061005D01*
%TO.N,Net-(J1-PadA10)*%
X73950000Y-75750000D02*
X92200000Y-57500000D01*
X90200000Y-54475500D02*
X88949500Y-53225000D01*
X92200000Y-57500000D02*
X92200000Y-53500000D01*
X88599695Y-53225000D02*
X87727218Y-52352523D01*
X69662500Y-78637500D02*
X72550000Y-75750000D01*
X87727218Y-52352523D02*
X87727218Y-52000000D01*
X72550000Y-75750000D02*
X73950000Y-75750000D01*
X88949500Y-53225000D02*
X88599695Y-53225000D01*
X69662500Y-80162500D02*
X69662500Y-78637500D01*
X68825000Y-81000000D02*
X69662500Y-80162500D01*
%TO.N,Net-(J1-PadA11)*%
X70000000Y-76600000D02*
X71300000Y-75300000D01*
X73634493Y-75300000D02*
X91400000Y-57534493D01*
X68825000Y-78800000D02*
X70000000Y-77625000D01*
X70000000Y-77625000D02*
X70000000Y-76600000D01*
X89135896Y-52775000D02*
X88800000Y-52775000D01*
X91400000Y-54500000D02*
X90275451Y-53375451D01*
X88197064Y-52172064D02*
X88197064Y-51700000D01*
X89736347Y-53375451D02*
X89135896Y-52775000D01*
X88800000Y-52775000D02*
X88197064Y-52172064D01*
X91400000Y-57534493D02*
X91400000Y-54500000D01*
X90275451Y-53375451D02*
X89736347Y-53375451D01*
X71300000Y-75300000D02*
X73634493Y-75300000D01*
%TO.N,Net-(R8-Pad2)*%
X83500000Y-135887500D02*
X83950000Y-136337500D01*
X83500000Y-128100000D02*
X83500000Y-135887500D01*
%TO.N,Net-(R9-Pad2)*%
X56500000Y-133300000D02*
X55512500Y-134287500D01*
X55512500Y-134287500D02*
X55512500Y-138400000D01*
%TO.N,Net-(R10-Pad2)*%
X69325000Y-149375000D02*
X74900000Y-143800000D01*
X56087500Y-148000000D02*
X57462500Y-149375000D01*
X57462500Y-149375000D02*
X69325000Y-149375000D01*
X79075500Y-143800000D02*
X80600000Y-142275500D01*
X74900000Y-143800000D02*
X79075500Y-143800000D01*
%TO.N,Net-(R11-Pad2)*%
X87975000Y-80822222D02*
X86042222Y-80822222D01*
%TO.N,Net-(R12-Pad2)*%
X87975000Y-83311111D02*
X85991111Y-83311111D01*
%TO.N,Net-(R13-Pad2)*%
X87975000Y-85800000D02*
X85940000Y-85800000D01*
%TO.N,Net-(R14-Pad2)*%
X87975000Y-88288889D02*
X85888889Y-88288889D01*
%TO.N,Net-(R15-Pad2)*%
X87975000Y-90777778D02*
X85837778Y-90777778D01*
%TO.N,Net-(R16-Pad2)*%
X87975000Y-93266667D02*
X85813333Y-93266667D01*
%TO.N,Net-(R17-Pad2)*%
X83175000Y-72600000D02*
X80275000Y-75500000D01*
X80275000Y-75500000D02*
X78180000Y-75500000D01*
%TO.N,Net-(R18-Pad1)*%
X75512500Y-80487500D02*
X75512500Y-78000000D01*
X78180000Y-80580000D02*
X75580000Y-80580000D01*
%TO.N,Net-(R19-Pad1)*%
X69800000Y-85000000D02*
X69800000Y-86487500D01*
X74300000Y-81800000D02*
X73000000Y-81800000D01*
X78180000Y-83120000D02*
X75620000Y-83120000D01*
X75500000Y-83000000D02*
X74300000Y-81800000D01*
X73000000Y-81800000D02*
X69800000Y-85000000D01*
%TO.N,Net-(R20-Pad1)*%
X75725500Y-96875500D02*
X75400000Y-97201000D01*
X78180000Y-85660000D02*
X75660000Y-85660000D01*
%TO.N,Net-(R21-Pad1)*%
X71800000Y-95000000D02*
X70800000Y-95000000D01*
X69800000Y-101600000D02*
X71487500Y-101600000D01*
X70800000Y-95000000D02*
X69400000Y-96400000D01*
X72100000Y-94700000D02*
X71800000Y-95000000D01*
X78180000Y-88200000D02*
X75700000Y-88200000D01*
X69400000Y-101200000D02*
X69800000Y-101600000D01*
X69400000Y-96400000D02*
X69400000Y-101200000D01*
%TO.N,Net-(R22-Pad1)*%
X78180000Y-90740000D02*
X75740000Y-90740000D01*
X73200000Y-97200000D02*
X74100000Y-96300000D01*
X74100000Y-96300000D02*
X74100000Y-94500000D01*
%TO.N,Net-(R23-Pad1)*%
X72000000Y-96800000D02*
X72000000Y-96100000D01*
X78180000Y-93280000D02*
X75780000Y-93280000D01*
X71312500Y-97487500D02*
X72000000Y-96800000D01*
%TD*%
%TA.AperFunction,Conductor*%
%TO.N,+3.3V*%
G36*
X59404957Y-50520002D02*
G01*
X59451450Y-50573658D01*
X59462216Y-50627188D01*
X59461780Y-50629943D01*
X59462526Y-50637835D01*
X59462526Y-50637837D01*
X59465941Y-50673961D01*
X59466500Y-50685819D01*
X59466500Y-51565500D01*
X59446498Y-51633621D01*
X59392842Y-51680114D01*
X59340500Y-51691500D01*
X59051866Y-51691500D01*
X58989684Y-51698255D01*
X58853295Y-51749385D01*
X58736739Y-51836739D01*
X58649385Y-51953295D01*
X58598255Y-52089684D01*
X58591500Y-52151866D01*
X58591500Y-53748134D01*
X58598255Y-53810316D01*
X58649385Y-53946705D01*
X58736739Y-54063261D01*
X58853295Y-54150615D01*
X58989684Y-54201745D01*
X59051866Y-54208500D01*
X61148134Y-54208500D01*
X61210316Y-54201745D01*
X61346705Y-54150615D01*
X61463261Y-54063261D01*
X61550615Y-53946705D01*
X61601745Y-53810316D01*
X61608500Y-53748134D01*
X61608500Y-52151866D01*
X61601745Y-52089684D01*
X61550615Y-51953295D01*
X61463261Y-51836739D01*
X61346705Y-51749385D01*
X61210316Y-51698255D01*
X61148134Y-51691500D01*
X60859500Y-51691500D01*
X60791379Y-51671498D01*
X60744886Y-51617842D01*
X60733500Y-51565500D01*
X60733500Y-50964594D01*
X60753502Y-50896473D01*
X60770405Y-50875499D01*
X61108999Y-50536905D01*
X61171311Y-50502879D01*
X61198094Y-50500000D01*
X67741742Y-50500000D01*
X67758188Y-50501078D01*
X67862963Y-50514872D01*
X67894735Y-50523385D01*
X67984674Y-50560639D01*
X68013160Y-50577086D01*
X68090393Y-50636349D01*
X68113651Y-50659607D01*
X68172914Y-50736840D01*
X68189361Y-50765326D01*
X68226615Y-50855265D01*
X68235128Y-50887037D01*
X68248922Y-50991812D01*
X68250000Y-51008258D01*
X68250000Y-58991742D01*
X68248922Y-59008188D01*
X68235128Y-59112963D01*
X68226615Y-59144735D01*
X68189361Y-59234674D01*
X68172914Y-59263160D01*
X68113651Y-59340393D01*
X68090393Y-59363651D01*
X68013160Y-59422914D01*
X67984674Y-59439361D01*
X67894735Y-59476615D01*
X67862963Y-59485128D01*
X67758188Y-59498922D01*
X67741742Y-59500000D01*
X60859500Y-59500000D01*
X60791379Y-59479998D01*
X60744886Y-59426342D01*
X60733500Y-59374000D01*
X60733500Y-58934500D01*
X60753502Y-58866379D01*
X60807158Y-58819886D01*
X60859500Y-58808500D01*
X61148134Y-58808500D01*
X61210316Y-58801745D01*
X61346705Y-58750615D01*
X61463261Y-58663261D01*
X61550615Y-58546705D01*
X61601745Y-58410316D01*
X61608500Y-58348134D01*
X61608500Y-56751866D01*
X61601745Y-56689684D01*
X61550615Y-56553295D01*
X61463261Y-56436739D01*
X61346705Y-56349385D01*
X61210316Y-56298255D01*
X61148134Y-56291500D01*
X59051866Y-56291500D01*
X58989684Y-56298255D01*
X58853295Y-56349385D01*
X58736739Y-56436739D01*
X58649385Y-56553295D01*
X58598255Y-56689684D01*
X58591500Y-56751866D01*
X58591500Y-58348134D01*
X58598255Y-58410316D01*
X58649385Y-58546705D01*
X58736739Y-58663261D01*
X58853295Y-58750615D01*
X58989684Y-58801745D01*
X59051866Y-58808500D01*
X59340500Y-58808500D01*
X59408621Y-58828502D01*
X59455114Y-58882158D01*
X59466500Y-58934500D01*
X59466500Y-59374000D01*
X59446498Y-59442121D01*
X59392842Y-59488614D01*
X59340500Y-59500000D01*
X58258258Y-59500000D01*
X58241812Y-59498922D01*
X58137037Y-59485128D01*
X58105265Y-59476615D01*
X58015326Y-59439361D01*
X57986840Y-59422914D01*
X57909607Y-59363651D01*
X57886349Y-59340393D01*
X57827086Y-59263160D01*
X57810639Y-59234674D01*
X57773385Y-59144735D01*
X57764872Y-59112963D01*
X57751078Y-59008188D01*
X57750000Y-58991742D01*
X57750000Y-51008258D01*
X57751078Y-50991812D01*
X57764872Y-50887037D01*
X57773385Y-50855265D01*
X57810639Y-50765326D01*
X57827086Y-50736840D01*
X57886349Y-50659607D01*
X57909607Y-50636349D01*
X57986840Y-50577086D01*
X58015326Y-50560639D01*
X58105265Y-50523385D01*
X58137037Y-50514872D01*
X58241812Y-50501078D01*
X58258258Y-50500000D01*
X59336836Y-50500000D01*
X59404957Y-50520002D01*
G37*
%TD.AperFunction*%
%TD*%
%TA.AperFunction,Conductor*%
%TO.N,GND*%
G36*
X87743369Y-38147956D02*
G01*
X87775511Y-38148920D01*
X87807828Y-38154143D01*
X87900660Y-38181899D01*
X87930541Y-38195272D01*
X88013089Y-38246006D01*
X88038515Y-38266625D01*
X88105202Y-38336905D01*
X88124460Y-38363378D01*
X88174761Y-38455756D01*
X88181650Y-38470641D01*
X91438841Y-46909725D01*
X91444710Y-46980479D01*
X91411394Y-47043174D01*
X91393563Y-47058308D01*
X91292478Y-47129088D01*
X91292472Y-47129093D01*
X91287962Y-47132251D01*
X91132251Y-47287962D01*
X91005944Y-47468347D01*
X91003621Y-47473329D01*
X91003618Y-47473334D01*
X90994160Y-47493617D01*
X90912880Y-47667924D01*
X90855885Y-47880629D01*
X90836693Y-48100000D01*
X90855885Y-48319371D01*
X90912880Y-48532076D01*
X90915205Y-48537061D01*
X91003618Y-48726666D01*
X91003621Y-48726671D01*
X91005944Y-48731653D01*
X91009100Y-48736160D01*
X91009101Y-48736162D01*
X91128062Y-48906055D01*
X91132251Y-48912038D01*
X91287962Y-49067749D01*
X91468346Y-49194056D01*
X91667924Y-49287120D01*
X91880629Y-49344115D01*
X92100000Y-49363307D01*
X92282096Y-49347376D01*
X92351700Y-49361365D01*
X92402693Y-49410765D01*
X92410624Y-49427524D01*
X92730766Y-50256984D01*
X93316773Y-51775275D01*
X93321692Y-51791018D01*
X93346560Y-51893815D01*
X93350055Y-51926547D01*
X93347654Y-52023941D01*
X93342551Y-52056460D01*
X93318020Y-52139687D01*
X93315008Y-52149904D01*
X93301657Y-52179992D01*
X93266323Y-52237801D01*
X93250850Y-52263115D01*
X93230161Y-52288718D01*
X93159555Y-52355848D01*
X93132942Y-52375218D01*
X93078886Y-52404621D01*
X93040034Y-52425754D01*
X93025079Y-52432662D01*
X92534281Y-52621430D01*
X92462854Y-52627075D01*
X92301944Y-52592872D01*
X92301939Y-52592872D01*
X92295487Y-52591500D01*
X92104513Y-52591500D01*
X92098061Y-52592872D01*
X92098056Y-52592872D01*
X92019402Y-52609591D01*
X91917712Y-52631206D01*
X91911682Y-52633891D01*
X91911681Y-52633891D01*
X91749278Y-52706197D01*
X91749276Y-52706198D01*
X91743248Y-52708882D01*
X91737907Y-52712762D01*
X91737906Y-52712763D01*
X91712935Y-52730906D01*
X91588747Y-52821134D01*
X91460960Y-52963056D01*
X91430412Y-53015967D01*
X91379029Y-53064960D01*
X91366533Y-53070564D01*
X91281738Y-53103177D01*
X91210982Y-53108963D01*
X91148327Y-53075574D01*
X91116677Y-53024513D01*
X91112019Y-53010177D01*
X91109978Y-53003895D01*
X91014491Y-52838507D01*
X90969357Y-52788380D01*
X90891126Y-52701496D01*
X90891125Y-52701495D01*
X90886704Y-52696585D01*
X90766968Y-52609591D01*
X90737545Y-52588214D01*
X90737544Y-52588213D01*
X90732203Y-52584333D01*
X90726175Y-52581649D01*
X90726173Y-52581648D01*
X90563770Y-52509342D01*
X90563769Y-52509342D01*
X90557739Y-52506657D01*
X90464339Y-52486804D01*
X90377395Y-52468323D01*
X90377390Y-52468323D01*
X90370938Y-52466951D01*
X90179964Y-52466951D01*
X90173512Y-52468323D01*
X90173507Y-52468323D01*
X90086563Y-52486804D01*
X89993163Y-52506657D01*
X89913332Y-52542200D01*
X89842966Y-52551634D01*
X89778669Y-52521528D01*
X89772988Y-52516188D01*
X89725124Y-52468323D01*
X89639543Y-52382742D01*
X89632009Y-52374463D01*
X89627896Y-52367982D01*
X89578244Y-52321356D01*
X89575403Y-52318602D01*
X89555666Y-52298865D01*
X89552469Y-52296385D01*
X89543447Y-52288680D01*
X89529366Y-52275457D01*
X89511217Y-52258414D01*
X89504271Y-52254595D01*
X89504268Y-52254593D01*
X89493462Y-52248652D01*
X89476943Y-52237801D01*
X89476479Y-52237441D01*
X89460937Y-52225386D01*
X89453668Y-52222241D01*
X89453664Y-52222238D01*
X89420359Y-52207826D01*
X89409709Y-52202609D01*
X89370956Y-52181305D01*
X89351333Y-52176267D01*
X89332630Y-52169863D01*
X89321316Y-52164967D01*
X89321315Y-52164967D01*
X89314041Y-52161819D01*
X89306218Y-52160580D01*
X89306208Y-52160577D01*
X89270372Y-52154901D01*
X89258752Y-52152495D01*
X89223607Y-52143472D01*
X89223606Y-52143472D01*
X89215926Y-52141500D01*
X89195672Y-52141500D01*
X89175961Y-52139949D01*
X89163782Y-52138020D01*
X89155953Y-52136780D01*
X89148061Y-52137526D01*
X89148060Y-52137526D01*
X89125198Y-52139687D01*
X89055497Y-52126184D01*
X89024246Y-52103341D01*
X88873857Y-51952952D01*
X88839831Y-51890640D01*
X88842362Y-51827334D01*
X88847126Y-51811603D01*
X88849729Y-51803009D01*
X88851127Y-51657358D01*
X88836207Y-51596615D01*
X88835044Y-51593419D01*
X88835041Y-51593410D01*
X88770135Y-51415084D01*
X88765632Y-51344230D01*
X88800150Y-51282190D01*
X88862730Y-51248660D01*
X88899518Y-51246468D01*
X88924572Y-51248660D01*
X88993916Y-51254727D01*
X88993917Y-51254727D01*
X89000706Y-51255321D01*
X89068872Y-51246468D01*
X89175167Y-51232663D01*
X89175169Y-51232663D01*
X89180294Y-51231997D01*
X89185610Y-51230392D01*
X89592644Y-51082244D01*
X89595693Y-51080744D01*
X89595697Y-51080742D01*
X89708179Y-51025394D01*
X89708180Y-51025394D01*
X89714300Y-51022382D01*
X89855830Y-50909399D01*
X89969798Y-50768661D01*
X89974641Y-50758991D01*
X90047830Y-50612834D01*
X90050886Y-50606732D01*
X90060366Y-50569270D01*
X90093636Y-50437787D01*
X90095311Y-50431169D01*
X90098936Y-50315823D01*
X90100785Y-50256984D01*
X90100785Y-50256981D01*
X90100999Y-50250162D01*
X90067686Y-50072156D01*
X90054974Y-50042207D01*
X89999593Y-49911738D01*
X89996926Y-49905455D01*
X89992973Y-49899893D01*
X89992971Y-49899889D01*
X89895975Y-49763403D01*
X89892021Y-49757839D01*
X89850579Y-49720261D01*
X89762923Y-49640780D01*
X89762922Y-49640779D01*
X89757863Y-49636192D01*
X89745145Y-49628908D01*
X89620166Y-49557333D01*
X89600713Y-49546192D01*
X89427905Y-49492037D01*
X89421109Y-49491442D01*
X89421107Y-49491442D01*
X89254286Y-49476847D01*
X89254285Y-49476847D01*
X89247496Y-49476253D01*
X89067908Y-49499577D01*
X89062592Y-49501183D01*
X88952783Y-49541150D01*
X88658763Y-49648163D01*
X88658755Y-49648166D01*
X88655558Y-49649330D01*
X88652500Y-49650835D01*
X88652497Y-49650836D01*
X88546506Y-49702989D01*
X88476553Y-49715117D01*
X88411148Y-49687501D01*
X88371056Y-49628908D01*
X88365567Y-49576766D01*
X88372834Y-49507626D01*
X88365405Y-49436939D01*
X88355211Y-49339947D01*
X88355210Y-49339943D01*
X88354520Y-49333377D01*
X88300377Y-49166744D01*
X88238354Y-49059316D01*
X88216076Y-49020728D01*
X88216073Y-49020724D01*
X88212773Y-49015008D01*
X88183772Y-48982799D01*
X88099950Y-48889706D01*
X88099948Y-48889705D01*
X88095535Y-48884803D01*
X87953789Y-48781818D01*
X87947761Y-48779134D01*
X87947759Y-48779133D01*
X87799758Y-48713239D01*
X87799757Y-48713239D01*
X87793727Y-48710554D01*
X87708037Y-48692340D01*
X87628804Y-48675498D01*
X87628800Y-48675498D01*
X87622347Y-48674126D01*
X87447139Y-48674126D01*
X87440686Y-48675498D01*
X87440682Y-48675498D01*
X87361449Y-48692340D01*
X87275759Y-48710554D01*
X87269730Y-48713239D01*
X87269728Y-48713239D01*
X87121728Y-48779133D01*
X87121726Y-48779134D01*
X87115698Y-48781818D01*
X86973951Y-48884803D01*
X86969537Y-48889705D01*
X86969535Y-48889707D01*
X86954815Y-48906055D01*
X86894369Y-48943293D01*
X86861180Y-48947743D01*
X86695385Y-48947743D01*
X86688932Y-48949115D01*
X86688928Y-48949115D01*
X86609695Y-48965957D01*
X86524005Y-48984171D01*
X86517976Y-48986856D01*
X86517974Y-48986856D01*
X86369974Y-49052750D01*
X86369972Y-49052751D01*
X86363944Y-49055435D01*
X86222197Y-49158420D01*
X86217785Y-49163320D01*
X86217776Y-49163328D01*
X86203062Y-49179670D01*
X86142616Y-49216909D01*
X86109427Y-49221359D01*
X85943631Y-49221359D01*
X85937178Y-49222731D01*
X85937174Y-49222731D01*
X85857941Y-49239573D01*
X85772251Y-49257787D01*
X85766222Y-49260472D01*
X85766220Y-49260472D01*
X85618220Y-49326366D01*
X85618218Y-49326367D01*
X85612190Y-49329051D01*
X85606849Y-49332931D01*
X85606848Y-49332932D01*
X85499720Y-49410765D01*
X85470443Y-49432036D01*
X85466030Y-49436938D01*
X85466028Y-49436939D01*
X85357624Y-49557333D01*
X85353205Y-49562241D01*
X85349905Y-49567957D01*
X85349902Y-49567961D01*
X85302055Y-49650836D01*
X85265601Y-49713977D01*
X85263560Y-49720260D01*
X85263559Y-49720261D01*
X85215636Y-49867751D01*
X85175562Y-49926357D01*
X85110166Y-49953994D01*
X85040209Y-49941887D01*
X85021742Y-49930751D01*
X84952115Y-49880164D01*
X84952114Y-49880163D01*
X84946773Y-49876283D01*
X84940745Y-49873599D01*
X84940743Y-49873598D01*
X84792742Y-49807704D01*
X84792741Y-49807704D01*
X84786711Y-49805019D01*
X84701021Y-49786805D01*
X84621788Y-49769963D01*
X84621784Y-49769963D01*
X84615331Y-49768591D01*
X84440123Y-49768591D01*
X84433670Y-49769963D01*
X84433666Y-49769963D01*
X84354433Y-49786805D01*
X84268743Y-49805019D01*
X84262714Y-49807704D01*
X84262712Y-49807704D01*
X84114712Y-49873598D01*
X84114710Y-49873599D01*
X84108682Y-49876283D01*
X83966935Y-49979268D01*
X83962524Y-49984167D01*
X83962514Y-49984176D01*
X83947800Y-50000518D01*
X83887354Y-50037757D01*
X83854165Y-50042207D01*
X83688368Y-50042207D01*
X83681915Y-50043579D01*
X83681911Y-50043579D01*
X83602678Y-50060421D01*
X83516988Y-50078635D01*
X83510959Y-50081320D01*
X83510957Y-50081320D01*
X83362957Y-50147214D01*
X83362955Y-50147215D01*
X83356927Y-50149899D01*
X83215180Y-50252884D01*
X83210768Y-50257784D01*
X83210759Y-50257792D01*
X83196045Y-50274134D01*
X83135599Y-50311373D01*
X83102410Y-50315823D01*
X82936614Y-50315823D01*
X82930161Y-50317195D01*
X82930157Y-50317195D01*
X82850924Y-50334037D01*
X82765234Y-50352251D01*
X82759205Y-50354936D01*
X82759203Y-50354936D01*
X82611203Y-50420830D01*
X82611201Y-50420831D01*
X82605173Y-50423515D01*
X82463426Y-50526500D01*
X82459013Y-50531402D01*
X82459011Y-50531403D01*
X82419004Y-50575835D01*
X82346188Y-50656705D01*
X82342888Y-50662421D01*
X82342885Y-50662425D01*
X82295656Y-50744230D01*
X82258584Y-50808441D01*
X82204441Y-50975074D01*
X82203751Y-50981640D01*
X82203750Y-50981644D01*
X82189441Y-51117794D01*
X82186127Y-51149323D01*
X82186817Y-51155888D01*
X82200092Y-51282190D01*
X82204441Y-51323572D01*
X82258584Y-51490205D01*
X82261887Y-51495926D01*
X82342885Y-51636221D01*
X82342888Y-51636225D01*
X82346188Y-51641941D01*
X82350606Y-51646848D01*
X82350607Y-51646849D01*
X82367185Y-51665260D01*
X82463426Y-51772146D01*
X82468023Y-51775486D01*
X82505084Y-51835641D01*
X82503733Y-51906625D01*
X82464219Y-51965610D01*
X82399089Y-51993868D01*
X82383534Y-51994832D01*
X82313070Y-51994832D01*
X82178277Y-52009475D01*
X82060124Y-52049238D01*
X82013110Y-52065060D01*
X82013108Y-52065061D01*
X82006639Y-52067238D01*
X81851409Y-52160509D01*
X81846452Y-52165197D01*
X81846449Y-52165199D01*
X81724787Y-52280250D01*
X81719829Y-52284939D01*
X81715997Y-52290577D01*
X81715994Y-52290581D01*
X81649690Y-52388144D01*
X81618037Y-52434720D01*
X81550784Y-52602866D01*
X81547658Y-52621746D01*
X81516801Y-52685682D01*
X81456274Y-52722789D01*
X81434334Y-52726687D01*
X81380629Y-52731385D01*
X81167924Y-52788380D01*
X81106010Y-52817251D01*
X80973334Y-52879118D01*
X80973329Y-52879121D01*
X80968347Y-52881444D01*
X80963840Y-52884600D01*
X80963838Y-52884601D01*
X80792473Y-53004592D01*
X80792470Y-53004594D01*
X80787962Y-53007751D01*
X80632251Y-53163462D01*
X80629094Y-53167970D01*
X80629092Y-53167973D01*
X80518244Y-53326281D01*
X80505944Y-53343847D01*
X80503621Y-53348829D01*
X80503618Y-53348834D01*
X80490312Y-53377370D01*
X80412880Y-53543424D01*
X80355885Y-53756129D01*
X80336693Y-53975500D01*
X80355885Y-54194871D01*
X80412880Y-54407576D01*
X80447717Y-54482284D01*
X80503618Y-54602166D01*
X80503621Y-54602171D01*
X80505944Y-54607153D01*
X80509100Y-54611660D01*
X80509101Y-54611662D01*
X80615109Y-54763056D01*
X80632251Y-54787538D01*
X80787962Y-54943249D01*
X80968346Y-55069556D01*
X81163588Y-55160598D01*
X81167924Y-55162620D01*
X81167582Y-55163353D01*
X81213936Y-55195329D01*
X81214142Y-55195620D01*
X81218477Y-55199770D01*
X81218478Y-55199771D01*
X81282629Y-55261182D01*
X81284593Y-55263105D01*
X81312806Y-55291318D01*
X81318742Y-55296219D01*
X81325619Y-55302335D01*
X81370384Y-55345189D01*
X81375421Y-55348441D01*
X81375427Y-55348446D01*
X81399307Y-55363865D01*
X81411191Y-55372563D01*
X81437725Y-55394475D01*
X81492104Y-55424185D01*
X81500023Y-55428896D01*
X81552090Y-55462515D01*
X81584027Y-55475386D01*
X81597323Y-55481672D01*
X81627535Y-55498178D01*
X81633251Y-55500008D01*
X81633254Y-55500009D01*
X81655011Y-55506973D01*
X81713792Y-55546790D01*
X81741714Y-55612065D01*
X81742599Y-55626975D01*
X81742599Y-56685540D01*
X81722597Y-56753661D01*
X81668941Y-56800154D01*
X81661830Y-56803142D01*
X80968258Y-57069901D01*
X80949505Y-57075485D01*
X80827045Y-57101807D01*
X80788095Y-57104002D01*
X80701447Y-57095383D01*
X80673331Y-57092586D01*
X80635578Y-57082761D01*
X80529803Y-57036782D01*
X80496867Y-57015879D01*
X80410231Y-56939751D01*
X80385265Y-56909773D01*
X80320974Y-56802267D01*
X80312266Y-56784746D01*
X76416123Y-47129088D01*
X74944526Y-43482086D01*
X74939313Y-43466205D01*
X74912716Y-43362361D01*
X74908790Y-43329227D01*
X74910256Y-43230498D01*
X74915164Y-43197497D01*
X74942491Y-43102615D01*
X74955889Y-43072058D01*
X75007161Y-42987677D01*
X75028109Y-42961708D01*
X75099736Y-42893738D01*
X75126762Y-42874181D01*
X75221161Y-42823389D01*
X75236373Y-42816464D01*
X84006954Y-39506810D01*
X87528015Y-38178107D01*
X87543701Y-38173329D01*
X87646099Y-38149293D01*
X87678670Y-38146016D01*
X87743369Y-38147956D01*
G37*
%TD.AperFunction*%
%TA.AperFunction,Conductor*%
G36*
X83650498Y-51815612D02*
G01*
X83697659Y-51862325D01*
X83713234Y-51889302D01*
X83717652Y-51894209D01*
X83717653Y-51894210D01*
X83724111Y-51901382D01*
X83754828Y-51965389D01*
X83756413Y-51981731D01*
X83757354Y-52011652D01*
X83757479Y-52015629D01*
X83739628Y-52084345D01*
X83687460Y-52132502D01*
X83674636Y-52137991D01*
X83664995Y-52141500D01*
X83372824Y-52247842D01*
X83316702Y-52275457D01*
X83218992Y-52359057D01*
X83154230Y-52388144D01*
X83084021Y-52377601D01*
X83040842Y-52344645D01*
X82940908Y-52226390D01*
X82936501Y-52221175D01*
X82920469Y-52208918D01*
X82878503Y-52151654D01*
X82874158Y-52080790D01*
X82908814Y-52018827D01*
X82971469Y-51985437D01*
X82997000Y-51982823D01*
X83111822Y-51982823D01*
X83118275Y-51981451D01*
X83118279Y-51981451D01*
X83197512Y-51964609D01*
X83283202Y-51946395D01*
X83289233Y-51943710D01*
X83437234Y-51877816D01*
X83437236Y-51877815D01*
X83443264Y-51875131D01*
X83455440Y-51866285D01*
X83514479Y-51823390D01*
X83581346Y-51799532D01*
X83650498Y-51815612D01*
G37*
%TD.AperFunction*%
%TA.AperFunction,Conductor*%
G36*
X88098778Y-50233980D02*
G01*
X88142665Y-50289788D01*
X88151629Y-50340574D01*
X88148782Y-50431169D01*
X88148574Y-50437788D01*
X88126442Y-50505247D01*
X88071352Y-50550031D01*
X88039614Y-50558349D01*
X88034553Y-50558300D01*
X88008275Y-50564755D01*
X87977111Y-50572409D01*
X87977104Y-50572411D01*
X87973811Y-50573220D01*
X87728723Y-50662425D01*
X87653022Y-50689978D01*
X87582168Y-50694481D01*
X87520128Y-50659963D01*
X87486598Y-50597383D01*
X87484491Y-50577030D01*
X87484617Y-50575835D01*
X87482972Y-50560183D01*
X87474576Y-50480296D01*
X87487348Y-50410458D01*
X87535851Y-50358611D01*
X87599886Y-50341126D01*
X87622347Y-50341126D01*
X87628800Y-50339754D01*
X87628804Y-50339754D01*
X87734933Y-50317195D01*
X87793727Y-50304698D01*
X87799758Y-50302013D01*
X87947761Y-50236118D01*
X87947762Y-50236117D01*
X87953789Y-50233434D01*
X87959127Y-50229556D01*
X87962691Y-50227498D01*
X88031686Y-50210760D01*
X88098778Y-50233980D01*
G37*
%TD.AperFunction*%
%TD*%
M02*
