%TF.GenerationSoftware,KiCad,Pcbnew,(6.0.7-1)-1*%
%TF.CreationDate,2022-10-21T15:59:20-04:00*%
%TF.ProjectId,Splitboard-B,53706c69-7462-46f6-9172-642d422e6b69,rev?*%
%TF.SameCoordinates,Original*%
%TF.FileFunction,Legend,Top*%
%TF.FilePolarity,Positive*%
%FSLAX46Y46*%
G04 Gerber Fmt 4.6, Leading zero omitted, Abs format (unit mm)*
G04 Created by KiCad (PCBNEW (6.0.7-1)-1) date 2022-10-21 15:59:20*
%MOMM*%
%LPD*%
G01*
G04 APERTURE LIST*
%ADD10C,0.150000*%
%ADD11C,0.120000*%
G04 APERTURE END LIST*
D10*
X154209523Y-122479761D02*
X154352380Y-122527380D01*
X154590476Y-122527380D01*
X154685714Y-122479761D01*
X154733333Y-122432142D01*
X154780952Y-122336904D01*
X154780952Y-122241666D01*
X154733333Y-122146428D01*
X154685714Y-122098809D01*
X154590476Y-122051190D01*
X154400000Y-122003571D01*
X154304761Y-121955952D01*
X154257142Y-121908333D01*
X154209523Y-121813095D01*
X154209523Y-121717857D01*
X154257142Y-121622619D01*
X154304761Y-121575000D01*
X154400000Y-121527380D01*
X154638095Y-121527380D01*
X154780952Y-121575000D01*
X155209523Y-121860714D02*
X155209523Y-122860714D01*
X155209523Y-121908333D02*
X155304761Y-121860714D01*
X155495238Y-121860714D01*
X155590476Y-121908333D01*
X155638095Y-121955952D01*
X155685714Y-122051190D01*
X155685714Y-122336904D01*
X155638095Y-122432142D01*
X155590476Y-122479761D01*
X155495238Y-122527380D01*
X155304761Y-122527380D01*
X155209523Y-122479761D01*
X156257142Y-122527380D02*
X156161904Y-122479761D01*
X156114285Y-122384523D01*
X156114285Y-121527380D01*
X156638095Y-122527380D02*
X156638095Y-121860714D01*
X156638095Y-121527380D02*
X156590476Y-121575000D01*
X156638095Y-121622619D01*
X156685714Y-121575000D01*
X156638095Y-121527380D01*
X156638095Y-121622619D01*
X156971428Y-121860714D02*
X157352380Y-121860714D01*
X157114285Y-121527380D02*
X157114285Y-122384523D01*
X157161904Y-122479761D01*
X157257142Y-122527380D01*
X157352380Y-122527380D01*
X158447619Y-122527380D02*
X158447619Y-121527380D01*
X159019047Y-122527380D02*
X158590476Y-121955952D01*
X159019047Y-121527380D02*
X158447619Y-122098809D01*
X159828571Y-122479761D02*
X159733333Y-122527380D01*
X159542857Y-122527380D01*
X159447619Y-122479761D01*
X159400000Y-122384523D01*
X159400000Y-122003571D01*
X159447619Y-121908333D01*
X159542857Y-121860714D01*
X159733333Y-121860714D01*
X159828571Y-121908333D01*
X159876190Y-122003571D01*
X159876190Y-122098809D01*
X159400000Y-122194047D01*
X160209523Y-121860714D02*
X160447619Y-122527380D01*
X160685714Y-121860714D02*
X160447619Y-122527380D01*
X160352380Y-122765476D01*
X160304761Y-122813095D01*
X160209523Y-122860714D01*
X161066666Y-122527380D02*
X161066666Y-121527380D01*
X161066666Y-121908333D02*
X161161904Y-121860714D01*
X161352380Y-121860714D01*
X161447619Y-121908333D01*
X161495238Y-121955952D01*
X161542857Y-122051190D01*
X161542857Y-122336904D01*
X161495238Y-122432142D01*
X161447619Y-122479761D01*
X161352380Y-122527380D01*
X161161904Y-122527380D01*
X161066666Y-122479761D01*
X162114285Y-122527380D02*
X162019047Y-122479761D01*
X161971428Y-122432142D01*
X161923809Y-122336904D01*
X161923809Y-122051190D01*
X161971428Y-121955952D01*
X162019047Y-121908333D01*
X162114285Y-121860714D01*
X162257142Y-121860714D01*
X162352380Y-121908333D01*
X162400000Y-121955952D01*
X162447619Y-122051190D01*
X162447619Y-122336904D01*
X162400000Y-122432142D01*
X162352380Y-122479761D01*
X162257142Y-122527380D01*
X162114285Y-122527380D01*
X163304761Y-122527380D02*
X163304761Y-122003571D01*
X163257142Y-121908333D01*
X163161904Y-121860714D01*
X162971428Y-121860714D01*
X162876190Y-121908333D01*
X163304761Y-122479761D02*
X163209523Y-122527380D01*
X162971428Y-122527380D01*
X162876190Y-122479761D01*
X162828571Y-122384523D01*
X162828571Y-122289285D01*
X162876190Y-122194047D01*
X162971428Y-122146428D01*
X163209523Y-122146428D01*
X163304761Y-122098809D01*
X163780952Y-122527380D02*
X163780952Y-121860714D01*
X163780952Y-122051190D02*
X163828571Y-121955952D01*
X163876190Y-121908333D01*
X163971428Y-121860714D01*
X164066666Y-121860714D01*
X164828571Y-122527380D02*
X164828571Y-121527380D01*
X164828571Y-122479761D02*
X164733333Y-122527380D01*
X164542857Y-122527380D01*
X164447619Y-122479761D01*
X164400000Y-122432142D01*
X164352380Y-122336904D01*
X164352380Y-122051190D01*
X164400000Y-121955952D01*
X164447619Y-121908333D01*
X164542857Y-121860714D01*
X164733333Y-121860714D01*
X164828571Y-121908333D01*
X166019047Y-122479761D02*
X166161904Y-122527380D01*
X166400000Y-122527380D01*
X166495238Y-122479761D01*
X166542857Y-122432142D01*
X166590476Y-122336904D01*
X166590476Y-122241666D01*
X166542857Y-122146428D01*
X166495238Y-122098809D01*
X166400000Y-122051190D01*
X166209523Y-122003571D01*
X166114285Y-121955952D01*
X166066666Y-121908333D01*
X166019047Y-121813095D01*
X166019047Y-121717857D01*
X166066666Y-121622619D01*
X166114285Y-121575000D01*
X166209523Y-121527380D01*
X166447619Y-121527380D01*
X166590476Y-121575000D01*
X167019047Y-122527380D02*
X167019047Y-121860714D01*
X167019047Y-121527380D02*
X166971428Y-121575000D01*
X167019047Y-121622619D01*
X167066666Y-121575000D01*
X167019047Y-121527380D01*
X167019047Y-121622619D01*
X167923809Y-122527380D02*
X167923809Y-121527380D01*
X167923809Y-122479761D02*
X167828571Y-122527380D01*
X167638095Y-122527380D01*
X167542857Y-122479761D01*
X167495238Y-122432142D01*
X167447619Y-122336904D01*
X167447619Y-122051190D01*
X167495238Y-121955952D01*
X167542857Y-121908333D01*
X167638095Y-121860714D01*
X167828571Y-121860714D01*
X167923809Y-121908333D01*
X168780952Y-122479761D02*
X168685714Y-122527380D01*
X168495238Y-122527380D01*
X168400000Y-122479761D01*
X168352380Y-122384523D01*
X168352380Y-122003571D01*
X168400000Y-121908333D01*
X168495238Y-121860714D01*
X168685714Y-121860714D01*
X168780952Y-121908333D01*
X168828571Y-122003571D01*
X168828571Y-122098809D01*
X168352380Y-122194047D01*
X170352380Y-122003571D02*
X170495238Y-122051190D01*
X170542857Y-122098809D01*
X170590476Y-122194047D01*
X170590476Y-122336904D01*
X170542857Y-122432142D01*
X170495238Y-122479761D01*
X170400000Y-122527380D01*
X170019047Y-122527380D01*
X170019047Y-121527380D01*
X170352380Y-121527380D01*
X170447619Y-121575000D01*
X170495238Y-121622619D01*
X170542857Y-121717857D01*
X170542857Y-121813095D01*
X170495238Y-121908333D01*
X170447619Y-121955952D01*
X170352380Y-122003571D01*
X170019047Y-122003571D01*
X146352380Y-123613571D02*
X146685714Y-123613571D01*
X146828571Y-124137380D02*
X146352380Y-124137380D01*
X146352380Y-123137380D01*
X146828571Y-123137380D01*
X147828571Y-124042142D02*
X147780952Y-124089761D01*
X147638095Y-124137380D01*
X147542857Y-124137380D01*
X147400000Y-124089761D01*
X147304761Y-123994523D01*
X147257142Y-123899285D01*
X147209523Y-123708809D01*
X147209523Y-123565952D01*
X147257142Y-123375476D01*
X147304761Y-123280238D01*
X147400000Y-123185000D01*
X147542857Y-123137380D01*
X147638095Y-123137380D01*
X147780952Y-123185000D01*
X147828571Y-123232619D01*
X148257142Y-123613571D02*
X148590476Y-123613571D01*
X148733333Y-124137380D02*
X148257142Y-124137380D01*
X148257142Y-123137380D01*
X148733333Y-123137380D01*
X150352380Y-123470714D02*
X150352380Y-124137380D01*
X150114285Y-123089761D02*
X149876190Y-123804047D01*
X150495238Y-123804047D01*
X150780952Y-123137380D02*
X151447619Y-123137380D01*
X151019047Y-124137380D01*
X151733333Y-123137380D02*
X152400000Y-123137380D01*
X151971428Y-124137380D01*
X154066666Y-123185000D02*
X153971428Y-123137380D01*
X153828571Y-123137380D01*
X153685714Y-123185000D01*
X153590476Y-123280238D01*
X153542857Y-123375476D01*
X153495238Y-123565952D01*
X153495238Y-123708809D01*
X153542857Y-123899285D01*
X153590476Y-123994523D01*
X153685714Y-124089761D01*
X153828571Y-124137380D01*
X153923809Y-124137380D01*
X154066666Y-124089761D01*
X154114285Y-124042142D01*
X154114285Y-123708809D01*
X153923809Y-123708809D01*
X154542857Y-124137380D02*
X154542857Y-123470714D01*
X154542857Y-123661190D02*
X154590476Y-123565952D01*
X154638095Y-123518333D01*
X154733333Y-123470714D01*
X154828571Y-123470714D01*
X155304761Y-124137380D02*
X155209523Y-124089761D01*
X155161904Y-124042142D01*
X155114285Y-123946904D01*
X155114285Y-123661190D01*
X155161904Y-123565952D01*
X155209523Y-123518333D01*
X155304761Y-123470714D01*
X155447619Y-123470714D01*
X155542857Y-123518333D01*
X155590476Y-123565952D01*
X155638095Y-123661190D01*
X155638095Y-123946904D01*
X155590476Y-124042142D01*
X155542857Y-124089761D01*
X155447619Y-124137380D01*
X155304761Y-124137380D01*
X156495238Y-123470714D02*
X156495238Y-124137380D01*
X156066666Y-123470714D02*
X156066666Y-123994523D01*
X156114285Y-124089761D01*
X156209523Y-124137380D01*
X156352380Y-124137380D01*
X156447619Y-124089761D01*
X156495238Y-124042142D01*
X156971428Y-123470714D02*
X156971428Y-124470714D01*
X156971428Y-123518333D02*
X157066666Y-123470714D01*
X157257142Y-123470714D01*
X157352380Y-123518333D01*
X157400000Y-123565952D01*
X157447619Y-123661190D01*
X157447619Y-123946904D01*
X157400000Y-124042142D01*
X157352380Y-124089761D01*
X157257142Y-124137380D01*
X157066666Y-124137380D01*
X156971428Y-124089761D01*
X159066666Y-123470714D02*
X159066666Y-124137380D01*
X158828571Y-123089761D02*
X158590476Y-123804047D01*
X159209523Y-123804047D01*
X160685714Y-123613571D02*
X160352380Y-123613571D01*
X160352380Y-124137380D02*
X160352380Y-123137380D01*
X160828571Y-123137380D01*
X161638095Y-124137380D02*
X161638095Y-123613571D01*
X161590476Y-123518333D01*
X161495238Y-123470714D01*
X161304761Y-123470714D01*
X161209523Y-123518333D01*
X161638095Y-124089761D02*
X161542857Y-124137380D01*
X161304761Y-124137380D01*
X161209523Y-124089761D01*
X161161904Y-123994523D01*
X161161904Y-123899285D01*
X161209523Y-123804047D01*
X161304761Y-123756428D01*
X161542857Y-123756428D01*
X161638095Y-123708809D01*
X162257142Y-124137380D02*
X162161904Y-124089761D01*
X162114285Y-123994523D01*
X162114285Y-123137380D01*
X162780952Y-124137380D02*
X162685714Y-124089761D01*
X162638095Y-123994523D01*
X162638095Y-123137380D01*
X163876190Y-123232619D02*
X163923809Y-123185000D01*
X164019047Y-123137380D01*
X164257142Y-123137380D01*
X164352380Y-123185000D01*
X164399999Y-123232619D01*
X164447619Y-123327857D01*
X164447619Y-123423095D01*
X164399999Y-123565952D01*
X163828571Y-124137380D01*
X164447619Y-124137380D01*
X165066666Y-123137380D02*
X165161904Y-123137380D01*
X165257142Y-123185000D01*
X165304761Y-123232619D01*
X165352380Y-123327857D01*
X165399999Y-123518333D01*
X165399999Y-123756428D01*
X165352380Y-123946904D01*
X165304761Y-124042142D01*
X165257142Y-124089761D01*
X165161904Y-124137380D01*
X165066666Y-124137380D01*
X164971428Y-124089761D01*
X164923809Y-124042142D01*
X164876190Y-123946904D01*
X164828571Y-123756428D01*
X164828571Y-123518333D01*
X164876190Y-123327857D01*
X164923809Y-123232619D01*
X164971428Y-123185000D01*
X165066666Y-123137380D01*
X165780952Y-123232619D02*
X165828571Y-123185000D01*
X165923809Y-123137380D01*
X166161904Y-123137380D01*
X166257142Y-123185000D01*
X166304761Y-123232619D01*
X166352380Y-123327857D01*
X166352380Y-123423095D01*
X166304761Y-123565952D01*
X165733333Y-124137380D01*
X166352380Y-124137380D01*
X166733333Y-123232619D02*
X166780952Y-123185000D01*
X166876190Y-123137380D01*
X167114285Y-123137380D01*
X167209523Y-123185000D01*
X167257142Y-123232619D01*
X167304761Y-123327857D01*
X167304761Y-123423095D01*
X167257142Y-123565952D01*
X166685714Y-124137380D01*
X167304761Y-124137380D01*
X168447619Y-124089761D02*
X168590476Y-124137380D01*
X168828571Y-124137380D01*
X168923809Y-124089761D01*
X168971428Y-124042142D01*
X169019047Y-123946904D01*
X169019047Y-123851666D01*
X168971428Y-123756428D01*
X168923809Y-123708809D01*
X168828571Y-123661190D01*
X168638095Y-123613571D01*
X168542857Y-123565952D01*
X168495238Y-123518333D01*
X168447619Y-123423095D01*
X168447619Y-123327857D01*
X168495238Y-123232619D01*
X168542857Y-123185000D01*
X168638095Y-123137380D01*
X168876190Y-123137380D01*
X169019047Y-123185000D01*
X169828571Y-124089761D02*
X169733333Y-124137380D01*
X169542857Y-124137380D01*
X169447619Y-124089761D01*
X169399999Y-123994523D01*
X169399999Y-123613571D01*
X169447619Y-123518333D01*
X169542857Y-123470714D01*
X169733333Y-123470714D01*
X169828571Y-123518333D01*
X169876190Y-123613571D01*
X169876190Y-123708809D01*
X169399999Y-123804047D01*
X170304761Y-123470714D02*
X170304761Y-124137380D01*
X170304761Y-123565952D02*
X170352380Y-123518333D01*
X170447619Y-123470714D01*
X170590476Y-123470714D01*
X170685714Y-123518333D01*
X170733333Y-123613571D01*
X170733333Y-124137380D01*
X171209523Y-124137380D02*
X171209523Y-123470714D01*
X171209523Y-123137380D02*
X171161904Y-123185000D01*
X171209523Y-123232619D01*
X171257142Y-123185000D01*
X171209523Y-123137380D01*
X171209523Y-123232619D01*
X171828571Y-124137380D02*
X171733333Y-124089761D01*
X171685714Y-124042142D01*
X171638095Y-123946904D01*
X171638095Y-123661190D01*
X171685714Y-123565952D01*
X171733333Y-123518333D01*
X171828571Y-123470714D01*
X171971428Y-123470714D01*
X172066666Y-123518333D01*
X172114285Y-123565952D01*
X172161904Y-123661190D01*
X172161904Y-123946904D01*
X172114285Y-124042142D01*
X172066666Y-124089761D01*
X171971428Y-124137380D01*
X171828571Y-124137380D01*
X172590476Y-124137380D02*
X172590476Y-123470714D01*
X172590476Y-123661190D02*
X172638095Y-123565952D01*
X172685714Y-123518333D01*
X172780952Y-123470714D01*
X172876190Y-123470714D01*
X173971428Y-124137380D02*
X173971428Y-123137380D01*
X174209523Y-123137380D01*
X174352380Y-123185000D01*
X174447619Y-123280238D01*
X174495238Y-123375476D01*
X174542857Y-123565952D01*
X174542857Y-123708809D01*
X174495238Y-123899285D01*
X174447619Y-123994523D01*
X174352380Y-124089761D01*
X174209523Y-124137380D01*
X173971428Y-124137380D01*
X175352380Y-124089761D02*
X175257142Y-124137380D01*
X175066666Y-124137380D01*
X174971428Y-124089761D01*
X174923809Y-123994523D01*
X174923809Y-123613571D01*
X174971428Y-123518333D01*
X175066666Y-123470714D01*
X175257142Y-123470714D01*
X175352380Y-123518333D01*
X175399999Y-123613571D01*
X175399999Y-123708809D01*
X174923809Y-123804047D01*
X175780952Y-124089761D02*
X175876190Y-124137380D01*
X176066666Y-124137380D01*
X176161904Y-124089761D01*
X176209523Y-123994523D01*
X176209523Y-123946904D01*
X176161904Y-123851666D01*
X176066666Y-123804047D01*
X175923809Y-123804047D01*
X175828571Y-123756428D01*
X175780952Y-123661190D01*
X175780952Y-123613571D01*
X175828571Y-123518333D01*
X175923809Y-123470714D01*
X176066666Y-123470714D01*
X176161904Y-123518333D01*
X176638095Y-124137380D02*
X176638095Y-123470714D01*
X176638095Y-123137380D02*
X176590476Y-123185000D01*
X176638095Y-123232619D01*
X176685714Y-123185000D01*
X176638095Y-123137380D01*
X176638095Y-123232619D01*
X177542857Y-123470714D02*
X177542857Y-124280238D01*
X177495238Y-124375476D01*
X177447619Y-124423095D01*
X177352380Y-124470714D01*
X177209523Y-124470714D01*
X177114285Y-124423095D01*
X177542857Y-124089761D02*
X177447619Y-124137380D01*
X177257142Y-124137380D01*
X177161904Y-124089761D01*
X177114285Y-124042142D01*
X177066666Y-123946904D01*
X177066666Y-123661190D01*
X177114285Y-123565952D01*
X177161904Y-123518333D01*
X177257142Y-123470714D01*
X177447619Y-123470714D01*
X177542857Y-123518333D01*
X178019047Y-123470714D02*
X178019047Y-124137380D01*
X178019047Y-123565952D02*
X178066666Y-123518333D01*
X178161904Y-123470714D01*
X178304761Y-123470714D01*
X178399999Y-123518333D01*
X178447619Y-123613571D01*
X178447619Y-124137380D01*
X155685714Y-125461666D02*
X156161904Y-125461666D01*
X155590476Y-125747380D02*
X155923809Y-124747380D01*
X156257142Y-125747380D01*
X156590476Y-125080714D02*
X156590476Y-125747380D01*
X156590476Y-125175952D02*
X156638095Y-125128333D01*
X156733333Y-125080714D01*
X156876190Y-125080714D01*
X156971428Y-125128333D01*
X157019047Y-125223571D01*
X157019047Y-125747380D01*
X157923809Y-125747380D02*
X157923809Y-124747380D01*
X157923809Y-125699761D02*
X157828571Y-125747380D01*
X157638095Y-125747380D01*
X157542857Y-125699761D01*
X157495238Y-125652142D01*
X157447619Y-125556904D01*
X157447619Y-125271190D01*
X157495238Y-125175952D01*
X157542857Y-125128333D01*
X157638095Y-125080714D01*
X157828571Y-125080714D01*
X157923809Y-125128333D01*
X158400000Y-125747380D02*
X158400000Y-125080714D01*
X158400000Y-125271190D02*
X158447619Y-125175952D01*
X158495238Y-125128333D01*
X158590476Y-125080714D01*
X158685714Y-125080714D01*
X159400000Y-125699761D02*
X159304761Y-125747380D01*
X159114285Y-125747380D01*
X159019047Y-125699761D01*
X158971428Y-125604523D01*
X158971428Y-125223571D01*
X159019047Y-125128333D01*
X159114285Y-125080714D01*
X159304761Y-125080714D01*
X159400000Y-125128333D01*
X159447619Y-125223571D01*
X159447619Y-125318809D01*
X158971428Y-125414047D01*
X159780952Y-125080714D02*
X159971428Y-125747380D01*
X160161904Y-125271190D01*
X160352380Y-125747380D01*
X160542857Y-125080714D01*
X161638095Y-125699761D02*
X161780952Y-125747380D01*
X162019047Y-125747380D01*
X162114285Y-125699761D01*
X162161904Y-125652142D01*
X162209523Y-125556904D01*
X162209523Y-125461666D01*
X162161904Y-125366428D01*
X162114285Y-125318809D01*
X162019047Y-125271190D01*
X161828571Y-125223571D01*
X161733333Y-125175952D01*
X161685714Y-125128333D01*
X161638095Y-125033095D01*
X161638095Y-124937857D01*
X161685714Y-124842619D01*
X161733333Y-124795000D01*
X161828571Y-124747380D01*
X162066666Y-124747380D01*
X162209523Y-124795000D01*
X162638095Y-125747380D02*
X162638095Y-125080714D01*
X162638095Y-125175952D02*
X162685714Y-125128333D01*
X162780952Y-125080714D01*
X162923809Y-125080714D01*
X163019047Y-125128333D01*
X163066666Y-125223571D01*
X163066666Y-125747380D01*
X163066666Y-125223571D02*
X163114285Y-125128333D01*
X163209523Y-125080714D01*
X163352380Y-125080714D01*
X163447619Y-125128333D01*
X163495238Y-125223571D01*
X163495238Y-125747380D01*
X164114285Y-125747380D02*
X164019047Y-125699761D01*
X163971428Y-125652142D01*
X163923809Y-125556904D01*
X163923809Y-125271190D01*
X163971428Y-125175952D01*
X164019047Y-125128333D01*
X164114285Y-125080714D01*
X164257142Y-125080714D01*
X164352380Y-125128333D01*
X164400000Y-125175952D01*
X164447619Y-125271190D01*
X164447619Y-125556904D01*
X164400000Y-125652142D01*
X164352380Y-125699761D01*
X164257142Y-125747380D01*
X164114285Y-125747380D01*
X165019047Y-125747380D02*
X164923809Y-125699761D01*
X164876190Y-125604523D01*
X164876190Y-124747380D01*
X165780952Y-125699761D02*
X165685714Y-125747380D01*
X165495238Y-125747380D01*
X165400000Y-125699761D01*
X165352380Y-125604523D01*
X165352380Y-125223571D01*
X165400000Y-125128333D01*
X165495238Y-125080714D01*
X165685714Y-125080714D01*
X165780952Y-125128333D01*
X165828571Y-125223571D01*
X165828571Y-125318809D01*
X165352380Y-125414047D01*
X166257142Y-125080714D02*
X166257142Y-125747380D01*
X166257142Y-125175952D02*
X166304761Y-125128333D01*
X166400000Y-125080714D01*
X166542857Y-125080714D01*
X166638095Y-125128333D01*
X166685714Y-125223571D01*
X166685714Y-125747380D01*
X167114285Y-125699761D02*
X167209523Y-125747380D01*
X167400000Y-125747380D01*
X167495238Y-125699761D01*
X167542857Y-125604523D01*
X167542857Y-125556904D01*
X167495238Y-125461666D01*
X167400000Y-125414047D01*
X167257142Y-125414047D01*
X167161904Y-125366428D01*
X167114285Y-125271190D01*
X167114285Y-125223571D01*
X167161904Y-125128333D01*
X167257142Y-125080714D01*
X167400000Y-125080714D01*
X167495238Y-125128333D01*
X167971428Y-125747380D02*
X167971428Y-124747380D01*
X168066666Y-125366428D02*
X168352380Y-125747380D01*
X168352380Y-125080714D02*
X167971428Y-125461666D01*
X168685714Y-125080714D02*
X168923809Y-125747380D01*
X169161904Y-125080714D02*
X168923809Y-125747380D01*
X168828571Y-125985476D01*
X168780952Y-126033095D01*
X168685714Y-126080714D01*
X156971428Y-127357380D02*
X156495238Y-127357380D01*
X156495238Y-126357380D01*
X157447619Y-127357380D02*
X157352380Y-127309761D01*
X157304761Y-127262142D01*
X157257142Y-127166904D01*
X157257142Y-126881190D01*
X157304761Y-126785952D01*
X157352380Y-126738333D01*
X157447619Y-126690714D01*
X157590476Y-126690714D01*
X157685714Y-126738333D01*
X157733333Y-126785952D01*
X157780952Y-126881190D01*
X157780952Y-127166904D01*
X157733333Y-127262142D01*
X157685714Y-127309761D01*
X157590476Y-127357380D01*
X157447619Y-127357380D01*
X158638095Y-126690714D02*
X158638095Y-127500238D01*
X158590476Y-127595476D01*
X158542857Y-127643095D01*
X158447619Y-127690714D01*
X158304761Y-127690714D01*
X158209523Y-127643095D01*
X158638095Y-127309761D02*
X158542857Y-127357380D01*
X158352380Y-127357380D01*
X158257142Y-127309761D01*
X158209523Y-127262142D01*
X158161904Y-127166904D01*
X158161904Y-126881190D01*
X158209523Y-126785952D01*
X158257142Y-126738333D01*
X158352380Y-126690714D01*
X158542857Y-126690714D01*
X158638095Y-126738333D01*
X159542857Y-127357380D02*
X159542857Y-126833571D01*
X159495238Y-126738333D01*
X159400000Y-126690714D01*
X159209523Y-126690714D01*
X159114285Y-126738333D01*
X159542857Y-127309761D02*
X159447619Y-127357380D01*
X159209523Y-127357380D01*
X159114285Y-127309761D01*
X159066666Y-127214523D01*
X159066666Y-127119285D01*
X159114285Y-127024047D01*
X159209523Y-126976428D01*
X159447619Y-126976428D01*
X159542857Y-126928809D01*
X160019047Y-126690714D02*
X160019047Y-127357380D01*
X160019047Y-126785952D02*
X160066666Y-126738333D01*
X160161904Y-126690714D01*
X160304761Y-126690714D01*
X160400000Y-126738333D01*
X160447619Y-126833571D01*
X160447619Y-127357380D01*
X161638095Y-127309761D02*
X161780952Y-127357380D01*
X162019047Y-127357380D01*
X162114285Y-127309761D01*
X162161904Y-127262142D01*
X162209523Y-127166904D01*
X162209523Y-127071666D01*
X162161904Y-126976428D01*
X162114285Y-126928809D01*
X162019047Y-126881190D01*
X161828571Y-126833571D01*
X161733333Y-126785952D01*
X161685714Y-126738333D01*
X161638095Y-126643095D01*
X161638095Y-126547857D01*
X161685714Y-126452619D01*
X161733333Y-126405000D01*
X161828571Y-126357380D01*
X162066666Y-126357380D01*
X162209523Y-126405000D01*
X162495238Y-126690714D02*
X162876190Y-126690714D01*
X162638095Y-126357380D02*
X162638095Y-127214523D01*
X162685714Y-127309761D01*
X162780952Y-127357380D01*
X162876190Y-127357380D01*
X163638095Y-127357380D02*
X163638095Y-126833571D01*
X163590476Y-126738333D01*
X163495238Y-126690714D01*
X163304761Y-126690714D01*
X163209523Y-126738333D01*
X163638095Y-127309761D02*
X163542857Y-127357380D01*
X163304761Y-127357380D01*
X163209523Y-127309761D01*
X163161904Y-127214523D01*
X163161904Y-127119285D01*
X163209523Y-127024047D01*
X163304761Y-126976428D01*
X163542857Y-126976428D01*
X163638095Y-126928809D01*
X164114285Y-126690714D02*
X164114285Y-127690714D01*
X164114285Y-126738333D02*
X164209523Y-126690714D01*
X164400000Y-126690714D01*
X164495238Y-126738333D01*
X164542857Y-126785952D01*
X164590476Y-126881190D01*
X164590476Y-127166904D01*
X164542857Y-127262142D01*
X164495238Y-127309761D01*
X164400000Y-127357380D01*
X164209523Y-127357380D01*
X164114285Y-127309761D01*
X165161904Y-127357380D02*
X165066666Y-127309761D01*
X165019047Y-127214523D01*
X165019047Y-126357380D01*
X165923809Y-127309761D02*
X165828571Y-127357380D01*
X165638095Y-127357380D01*
X165542857Y-127309761D01*
X165495238Y-127214523D01*
X165495238Y-126833571D01*
X165542857Y-126738333D01*
X165638095Y-126690714D01*
X165828571Y-126690714D01*
X165923809Y-126738333D01*
X165971428Y-126833571D01*
X165971428Y-126928809D01*
X165495238Y-127024047D01*
X166257142Y-126690714D02*
X166638095Y-126690714D01*
X166400000Y-126357380D02*
X166400000Y-127214523D01*
X166447619Y-127309761D01*
X166542857Y-127357380D01*
X166638095Y-127357380D01*
X167114285Y-127357380D02*
X167019047Y-127309761D01*
X166971428Y-127262142D01*
X166923809Y-127166904D01*
X166923809Y-126881190D01*
X166971428Y-126785952D01*
X167019047Y-126738333D01*
X167114285Y-126690714D01*
X167257142Y-126690714D01*
X167352380Y-126738333D01*
X167400000Y-126785952D01*
X167447619Y-126881190D01*
X167447619Y-127166904D01*
X167400000Y-127262142D01*
X167352380Y-127309761D01*
X167257142Y-127357380D01*
X167114285Y-127357380D01*
X167876190Y-126690714D02*
X167876190Y-127357380D01*
X167876190Y-126785952D02*
X167923809Y-126738333D01*
X168019047Y-126690714D01*
X168161904Y-126690714D01*
X168257142Y-126738333D01*
X168304761Y-126833571D01*
X168304761Y-127357380D01*
X159209523Y-127967380D02*
X159209523Y-128681666D01*
X159161904Y-128824523D01*
X159066666Y-128919761D01*
X158923809Y-128967380D01*
X158828571Y-128967380D01*
X159828571Y-128967380D02*
X159733333Y-128919761D01*
X159685714Y-128872142D01*
X159638095Y-128776904D01*
X159638095Y-128491190D01*
X159685714Y-128395952D01*
X159733333Y-128348333D01*
X159828571Y-128300714D01*
X159971428Y-128300714D01*
X160066666Y-128348333D01*
X160114285Y-128395952D01*
X160161904Y-128491190D01*
X160161904Y-128776904D01*
X160114285Y-128872142D01*
X160066666Y-128919761D01*
X159971428Y-128967380D01*
X159828571Y-128967380D01*
X160971428Y-128919761D02*
X160876190Y-128967380D01*
X160685714Y-128967380D01*
X160590476Y-128919761D01*
X160542857Y-128824523D01*
X160542857Y-128443571D01*
X160590476Y-128348333D01*
X160685714Y-128300714D01*
X160876190Y-128300714D01*
X160971428Y-128348333D01*
X161019047Y-128443571D01*
X161019047Y-128538809D01*
X160542857Y-128634047D01*
X162114285Y-127967380D02*
X162780952Y-127967380D01*
X162114285Y-128967380D01*
X162780952Y-128967380D01*
X163304761Y-128967380D02*
X163209523Y-128919761D01*
X163161904Y-128872142D01*
X163114285Y-128776904D01*
X163114285Y-128491190D01*
X163161904Y-128395952D01*
X163209523Y-128348333D01*
X163304761Y-128300714D01*
X163447619Y-128300714D01*
X163542857Y-128348333D01*
X163590476Y-128395952D01*
X163638095Y-128491190D01*
X163638095Y-128776904D01*
X163590476Y-128872142D01*
X163542857Y-128919761D01*
X163447619Y-128967380D01*
X163304761Y-128967380D01*
X164066666Y-128967380D02*
X164066666Y-127967380D01*
X164066666Y-128348333D02*
X164161904Y-128300714D01*
X164352380Y-128300714D01*
X164447619Y-128348333D01*
X164495238Y-128395952D01*
X164542857Y-128491190D01*
X164542857Y-128776904D01*
X164495238Y-128872142D01*
X164447619Y-128919761D01*
X164352380Y-128967380D01*
X164161904Y-128967380D01*
X164066666Y-128919761D01*
X165352380Y-128919761D02*
X165257142Y-128967380D01*
X165066666Y-128967380D01*
X164971428Y-128919761D01*
X164923809Y-128824523D01*
X164923809Y-128443571D01*
X164971428Y-128348333D01*
X165066666Y-128300714D01*
X165257142Y-128300714D01*
X165352380Y-128348333D01*
X165400000Y-128443571D01*
X165400000Y-128538809D01*
X164923809Y-128634047D01*
X165971428Y-128967380D02*
X165876190Y-128919761D01*
X165828571Y-128824523D01*
X165828571Y-127967380D01*
X158257142Y-129577380D02*
X158257142Y-130291666D01*
X158209523Y-130434523D01*
X158114285Y-130529761D01*
X157971428Y-130577380D01*
X157876190Y-130577380D01*
X159161904Y-129910714D02*
X159161904Y-130577380D01*
X158733333Y-129910714D02*
X158733333Y-130434523D01*
X158780952Y-130529761D01*
X158876190Y-130577380D01*
X159019047Y-130577380D01*
X159114285Y-130529761D01*
X159161904Y-130482142D01*
X159590476Y-130529761D02*
X159685714Y-130577380D01*
X159876190Y-130577380D01*
X159971428Y-130529761D01*
X160019047Y-130434523D01*
X160019047Y-130386904D01*
X159971428Y-130291666D01*
X159876190Y-130244047D01*
X159733333Y-130244047D01*
X159638095Y-130196428D01*
X159590476Y-130101190D01*
X159590476Y-130053571D01*
X159638095Y-129958333D01*
X159733333Y-129910714D01*
X159876190Y-129910714D01*
X159971428Y-129958333D01*
X160304761Y-129910714D02*
X160685714Y-129910714D01*
X160447619Y-129577380D02*
X160447619Y-130434523D01*
X160495238Y-130529761D01*
X160590476Y-130577380D01*
X160685714Y-130577380D01*
X161019047Y-130577380D02*
X161019047Y-129910714D01*
X161019047Y-129577380D02*
X160971428Y-129625000D01*
X161019047Y-129672619D01*
X161066666Y-129625000D01*
X161019047Y-129577380D01*
X161019047Y-129672619D01*
X161495238Y-129910714D02*
X161495238Y-130577380D01*
X161495238Y-130005952D02*
X161542857Y-129958333D01*
X161638095Y-129910714D01*
X161780952Y-129910714D01*
X161876190Y-129958333D01*
X161923809Y-130053571D01*
X161923809Y-130577380D01*
X163114285Y-130529761D02*
X163257142Y-130577380D01*
X163495238Y-130577380D01*
X163590476Y-130529761D01*
X163638095Y-130482142D01*
X163685714Y-130386904D01*
X163685714Y-130291666D01*
X163638095Y-130196428D01*
X163590476Y-130148809D01*
X163495238Y-130101190D01*
X163304761Y-130053571D01*
X163209523Y-130005952D01*
X163161904Y-129958333D01*
X163114285Y-129863095D01*
X163114285Y-129767857D01*
X163161904Y-129672619D01*
X163209523Y-129625000D01*
X163304761Y-129577380D01*
X163542857Y-129577380D01*
X163685714Y-129625000D01*
X164495238Y-130529761D02*
X164400000Y-130577380D01*
X164209523Y-130577380D01*
X164114285Y-130529761D01*
X164066666Y-130434523D01*
X164066666Y-130053571D01*
X164114285Y-129958333D01*
X164209523Y-129910714D01*
X164400000Y-129910714D01*
X164495238Y-129958333D01*
X164542857Y-130053571D01*
X164542857Y-130148809D01*
X164066666Y-130244047D01*
X165114285Y-130577380D02*
X165019047Y-130529761D01*
X164971428Y-130434523D01*
X164971428Y-129577380D01*
X165495238Y-130577380D02*
X165495238Y-129577380D01*
X165495238Y-129958333D02*
X165590476Y-129910714D01*
X165780952Y-129910714D01*
X165876190Y-129958333D01*
X165923809Y-130005952D01*
X165971428Y-130101190D01*
X165971428Y-130386904D01*
X165923809Y-130482142D01*
X165876190Y-130529761D01*
X165780952Y-130577380D01*
X165590476Y-130577380D01*
X165495238Y-130529761D01*
X166542857Y-130577380D02*
X166447619Y-130529761D01*
X166400000Y-130482142D01*
X166352380Y-130386904D01*
X166352380Y-130101190D01*
X166400000Y-130005952D01*
X166447619Y-129958333D01*
X166542857Y-129910714D01*
X166685714Y-129910714D01*
X166780952Y-129958333D01*
X166828571Y-130005952D01*
X166876190Y-130101190D01*
X166876190Y-130386904D01*
X166828571Y-130482142D01*
X166780952Y-130529761D01*
X166685714Y-130577380D01*
X166542857Y-130577380D01*
%TO.C,H2*%
X206738095Y-31952380D02*
X206738095Y-30952380D01*
X206738095Y-31428571D02*
X207309523Y-31428571D01*
X207309523Y-31952380D02*
X207309523Y-30952380D01*
X207738095Y-31047619D02*
X207785714Y-31000000D01*
X207880952Y-30952380D01*
X208119047Y-30952380D01*
X208214285Y-31000000D01*
X208261904Y-31047619D01*
X208309523Y-31142857D01*
X208309523Y-31238095D01*
X208261904Y-31380952D01*
X207690476Y-31952380D01*
X208309523Y-31952380D01*
%TO.C,K28*%
X217785714Y-94452380D02*
X217785714Y-93452380D01*
X218357142Y-94452380D02*
X217928571Y-93880952D01*
X218357142Y-93452380D02*
X217785714Y-94023809D01*
X218738095Y-93547619D02*
X218785714Y-93500000D01*
X218880952Y-93452380D01*
X219119047Y-93452380D01*
X219214285Y-93500000D01*
X219261904Y-93547619D01*
X219309523Y-93642857D01*
X219309523Y-93738095D01*
X219261904Y-93880952D01*
X218690476Y-94452380D01*
X219309523Y-94452380D01*
X219880952Y-93880952D02*
X219785714Y-93833333D01*
X219738095Y-93785714D01*
X219690476Y-93690476D01*
X219690476Y-93642857D01*
X219738095Y-93547619D01*
X219785714Y-93500000D01*
X219880952Y-93452380D01*
X220071428Y-93452380D01*
X220166666Y-93500000D01*
X220214285Y-93547619D01*
X220261904Y-93642857D01*
X220261904Y-93690476D01*
X220214285Y-93785714D01*
X220166666Y-93833333D01*
X220071428Y-93880952D01*
X219880952Y-93880952D01*
X219785714Y-93928571D01*
X219738095Y-93976190D01*
X219690476Y-94071428D01*
X219690476Y-94261904D01*
X219738095Y-94357142D01*
X219785714Y-94404761D01*
X219880952Y-94452380D01*
X220071428Y-94452380D01*
X220166666Y-94404761D01*
X220214285Y-94357142D01*
X220261904Y-94261904D01*
X220261904Y-94071428D01*
X220214285Y-93976190D01*
X220166666Y-93928571D01*
X220071428Y-93880952D01*
%TO.C,K11*%
X160785714Y-48452380D02*
X160785714Y-47452380D01*
X161357142Y-48452380D02*
X160928571Y-47880952D01*
X161357142Y-47452380D02*
X160785714Y-48023809D01*
X162309523Y-48452380D02*
X161738095Y-48452380D01*
X162023809Y-48452380D02*
X162023809Y-47452380D01*
X161928571Y-47595238D01*
X161833333Y-47690476D01*
X161738095Y-47738095D01*
X163261904Y-48452380D02*
X162690476Y-48452380D01*
X162976190Y-48452380D02*
X162976190Y-47452380D01*
X162880952Y-47595238D01*
X162785714Y-47690476D01*
X162690476Y-47738095D01*
%TO.C,U1*%
X49272380Y-129671904D02*
X50081904Y-129671904D01*
X50177142Y-129624285D01*
X50224761Y-129576666D01*
X50272380Y-129481428D01*
X50272380Y-129290952D01*
X50224761Y-129195714D01*
X50177142Y-129148095D01*
X50081904Y-129100476D01*
X49272380Y-129100476D01*
X50272380Y-128100476D02*
X50272380Y-128671904D01*
X50272380Y-128386190D02*
X49272380Y-128386190D01*
X49415238Y-128481428D01*
X49510476Y-128576666D01*
X49558095Y-128671904D01*
%TO.C,K33*%
X179785714Y-106452380D02*
X179785714Y-105452380D01*
X180357142Y-106452380D02*
X179928571Y-105880952D01*
X180357142Y-105452380D02*
X179785714Y-106023809D01*
X180690476Y-105452380D02*
X181309523Y-105452380D01*
X180976190Y-105833333D01*
X181119047Y-105833333D01*
X181214285Y-105880952D01*
X181261904Y-105928571D01*
X181309523Y-106023809D01*
X181309523Y-106261904D01*
X181261904Y-106357142D01*
X181214285Y-106404761D01*
X181119047Y-106452380D01*
X180833333Y-106452380D01*
X180738095Y-106404761D01*
X180690476Y-106357142D01*
X181642857Y-105452380D02*
X182261904Y-105452380D01*
X181928571Y-105833333D01*
X182071428Y-105833333D01*
X182166666Y-105880952D01*
X182214285Y-105928571D01*
X182261904Y-106023809D01*
X182261904Y-106261904D01*
X182214285Y-106357142D01*
X182166666Y-106404761D01*
X182071428Y-106452380D01*
X181785714Y-106452380D01*
X181690476Y-106404761D01*
X181642857Y-106357142D01*
%TO.C,K20*%
X198785714Y-70452380D02*
X198785714Y-69452380D01*
X199357142Y-70452380D02*
X198928571Y-69880952D01*
X199357142Y-69452380D02*
X198785714Y-70023809D01*
X199738095Y-69547619D02*
X199785714Y-69500000D01*
X199880952Y-69452380D01*
X200119047Y-69452380D01*
X200214285Y-69500000D01*
X200261904Y-69547619D01*
X200309523Y-69642857D01*
X200309523Y-69738095D01*
X200261904Y-69880952D01*
X199690476Y-70452380D01*
X200309523Y-70452380D01*
X200928571Y-69452380D02*
X201023809Y-69452380D01*
X201119047Y-69500000D01*
X201166666Y-69547619D01*
X201214285Y-69642857D01*
X201261904Y-69833333D01*
X201261904Y-70071428D01*
X201214285Y-70261904D01*
X201166666Y-70357142D01*
X201119047Y-70404761D01*
X201023809Y-70452380D01*
X200928571Y-70452380D01*
X200833333Y-70404761D01*
X200785714Y-70357142D01*
X200738095Y-70261904D01*
X200690476Y-70071428D01*
X200690476Y-69833333D01*
X200738095Y-69642857D01*
X200785714Y-69547619D01*
X200833333Y-69500000D01*
X200928571Y-69452380D01*
%TO.C,K13*%
X198785714Y-51452380D02*
X198785714Y-50452380D01*
X199357142Y-51452380D02*
X198928571Y-50880952D01*
X199357142Y-50452380D02*
X198785714Y-51023809D01*
X200309523Y-51452380D02*
X199738095Y-51452380D01*
X200023809Y-51452380D02*
X200023809Y-50452380D01*
X199928571Y-50595238D01*
X199833333Y-50690476D01*
X199738095Y-50738095D01*
X200642857Y-50452380D02*
X201261904Y-50452380D01*
X200928571Y-50833333D01*
X201071428Y-50833333D01*
X201166666Y-50880952D01*
X201214285Y-50928571D01*
X201261904Y-51023809D01*
X201261904Y-51261904D01*
X201214285Y-51357142D01*
X201166666Y-51404761D01*
X201071428Y-51452380D01*
X200785714Y-51452380D01*
X200690476Y-51404761D01*
X200642857Y-51357142D01*
%TO.C,K7*%
X218261904Y-37452380D02*
X218261904Y-36452380D01*
X218833333Y-37452380D02*
X218404761Y-36880952D01*
X218833333Y-36452380D02*
X218261904Y-37023809D01*
X219166666Y-36452380D02*
X219833333Y-36452380D01*
X219404761Y-37452380D01*
%TO.C,K17*%
X141785714Y-68452380D02*
X141785714Y-67452380D01*
X142357142Y-68452380D02*
X141928571Y-67880952D01*
X142357142Y-67452380D02*
X141785714Y-68023809D01*
X143309523Y-68452380D02*
X142738095Y-68452380D01*
X143023809Y-68452380D02*
X143023809Y-67452380D01*
X142928571Y-67595238D01*
X142833333Y-67690476D01*
X142738095Y-67738095D01*
X143642857Y-67452380D02*
X144309523Y-67452380D01*
X143880952Y-68452380D01*
%TO.C,K16*%
X122595714Y-70992380D02*
X122595714Y-69992380D01*
X123167142Y-70992380D02*
X122738571Y-70420952D01*
X123167142Y-69992380D02*
X122595714Y-70563809D01*
X124119523Y-70992380D02*
X123548095Y-70992380D01*
X123833809Y-70992380D02*
X123833809Y-69992380D01*
X123738571Y-70135238D01*
X123643333Y-70230476D01*
X123548095Y-70278095D01*
X124976666Y-69992380D02*
X124786190Y-69992380D01*
X124690952Y-70040000D01*
X124643333Y-70087619D01*
X124548095Y-70230476D01*
X124500476Y-70420952D01*
X124500476Y-70801904D01*
X124548095Y-70897142D01*
X124595714Y-70944761D01*
X124690952Y-70992380D01*
X124881428Y-70992380D01*
X124976666Y-70944761D01*
X125024285Y-70897142D01*
X125071904Y-70801904D01*
X125071904Y-70563809D01*
X125024285Y-70468571D01*
X124976666Y-70420952D01*
X124881428Y-70373333D01*
X124690952Y-70373333D01*
X124595714Y-70420952D01*
X124548095Y-70468571D01*
X124500476Y-70563809D01*
%TO.C,K37*%
X91199662Y-151521657D02*
X90492556Y-150814550D01*
X91603723Y-151117596D02*
X90896617Y-151016581D01*
X90896617Y-150410489D02*
X90896617Y-151218611D01*
X91132319Y-150174787D02*
X91570052Y-149737054D01*
X91603723Y-150242130D01*
X91704739Y-150141115D01*
X91805754Y-150107443D01*
X91873098Y-150107443D01*
X91974113Y-150141115D01*
X92142472Y-150309474D01*
X92176143Y-150410489D01*
X92176143Y-150477833D01*
X92142472Y-150578848D01*
X91940441Y-150780878D01*
X91839426Y-150814550D01*
X91772082Y-150814550D01*
X91805754Y-149501352D02*
X92277159Y-149029947D01*
X92681220Y-150040100D01*
%TO.C,K2*%
X123071904Y-32992380D02*
X123071904Y-31992380D01*
X123643333Y-32992380D02*
X123214761Y-32420952D01*
X123643333Y-31992380D02*
X123071904Y-32563809D01*
X124024285Y-32087619D02*
X124071904Y-32040000D01*
X124167142Y-31992380D01*
X124405238Y-31992380D01*
X124500476Y-32040000D01*
X124548095Y-32087619D01*
X124595714Y-32182857D01*
X124595714Y-32278095D01*
X124548095Y-32420952D01*
X123976666Y-32992380D01*
X124595714Y-32992380D01*
%TO.C,K38*%
X104634691Y-138086628D02*
X103927585Y-137379521D01*
X105038752Y-137682567D02*
X104331646Y-137581552D01*
X104331646Y-136975460D02*
X104331646Y-137783582D01*
X104567348Y-136739758D02*
X105005081Y-136302025D01*
X105038752Y-136807101D01*
X105139768Y-136706086D01*
X105240783Y-136672414D01*
X105308127Y-136672414D01*
X105409142Y-136706086D01*
X105577501Y-136874445D01*
X105611172Y-136975460D01*
X105611172Y-137042804D01*
X105577501Y-137143819D01*
X105375470Y-137345849D01*
X105274455Y-137379521D01*
X105207111Y-137379521D01*
X105712188Y-136201010D02*
X105611172Y-136234681D01*
X105543829Y-136234681D01*
X105442814Y-136201010D01*
X105409142Y-136167338D01*
X105375470Y-136066323D01*
X105375470Y-135998979D01*
X105409142Y-135897964D01*
X105543829Y-135763277D01*
X105644844Y-135729605D01*
X105712188Y-135729605D01*
X105813203Y-135763277D01*
X105846875Y-135796949D01*
X105880546Y-135897964D01*
X105880546Y-135965307D01*
X105846875Y-136066323D01*
X105712188Y-136201010D01*
X105678516Y-136302025D01*
X105678516Y-136369368D01*
X105712188Y-136470384D01*
X105846875Y-136605071D01*
X105947890Y-136638742D01*
X106015233Y-136638742D01*
X106116249Y-136605071D01*
X106250936Y-136470384D01*
X106284607Y-136369368D01*
X106284607Y-136302025D01*
X106250936Y-136201010D01*
X106116249Y-136066323D01*
X106015233Y-136032651D01*
X105947890Y-136032651D01*
X105846875Y-136066323D01*
%TO.C,K5*%
X180261904Y-30452380D02*
X180261904Y-29452380D01*
X180833333Y-30452380D02*
X180404761Y-29880952D01*
X180833333Y-29452380D02*
X180261904Y-30023809D01*
X181738095Y-29452380D02*
X181261904Y-29452380D01*
X181214285Y-29928571D01*
X181261904Y-29880952D01*
X181357142Y-29833333D01*
X181595238Y-29833333D01*
X181690476Y-29880952D01*
X181738095Y-29928571D01*
X181785714Y-30023809D01*
X181785714Y-30261904D01*
X181738095Y-30357142D01*
X181690476Y-30404761D01*
X181595238Y-30452380D01*
X181357142Y-30452380D01*
X181261904Y-30404761D01*
X181214285Y-30357142D01*
%TO.C,K9*%
X123071904Y-51992380D02*
X123071904Y-50992380D01*
X123643333Y-51992380D02*
X123214761Y-51420952D01*
X123643333Y-50992380D02*
X123071904Y-51563809D01*
X124119523Y-51992380D02*
X124310000Y-51992380D01*
X124405238Y-51944761D01*
X124452857Y-51897142D01*
X124548095Y-51754285D01*
X124595714Y-51563809D01*
X124595714Y-51182857D01*
X124548095Y-51087619D01*
X124500476Y-51040000D01*
X124405238Y-50992380D01*
X124214761Y-50992380D01*
X124119523Y-51040000D01*
X124071904Y-51087619D01*
X124024285Y-51182857D01*
X124024285Y-51420952D01*
X124071904Y-51516190D01*
X124119523Y-51563809D01*
X124214761Y-51611428D01*
X124405238Y-51611428D01*
X124500476Y-51563809D01*
X124548095Y-51516190D01*
X124595714Y-51420952D01*
%TO.C,K32*%
X160785714Y-105452380D02*
X160785714Y-104452380D01*
X161357142Y-105452380D02*
X160928571Y-104880952D01*
X161357142Y-104452380D02*
X160785714Y-105023809D01*
X161690476Y-104452380D02*
X162309523Y-104452380D01*
X161976190Y-104833333D01*
X162119047Y-104833333D01*
X162214285Y-104880952D01*
X162261904Y-104928571D01*
X162309523Y-105023809D01*
X162309523Y-105261904D01*
X162261904Y-105357142D01*
X162214285Y-105404761D01*
X162119047Y-105452380D01*
X161833333Y-105452380D01*
X161738095Y-105404761D01*
X161690476Y-105357142D01*
X162690476Y-104547619D02*
X162738095Y-104500000D01*
X162833333Y-104452380D01*
X163071428Y-104452380D01*
X163166666Y-104500000D01*
X163214285Y-104547619D01*
X163261904Y-104642857D01*
X163261904Y-104738095D01*
X163214285Y-104880952D01*
X162642857Y-105452380D01*
X163261904Y-105452380D01*
%TO.C,K1*%
X104261904Y-37452380D02*
X104261904Y-36452380D01*
X104833333Y-37452380D02*
X104404761Y-36880952D01*
X104833333Y-36452380D02*
X104261904Y-37023809D01*
X105785714Y-37452380D02*
X105214285Y-37452380D01*
X105500000Y-37452380D02*
X105500000Y-36452380D01*
X105404761Y-36595238D01*
X105309523Y-36690476D01*
X105214285Y-36738095D01*
%TO.C,K26*%
X179785714Y-87452380D02*
X179785714Y-86452380D01*
X180357142Y-87452380D02*
X179928571Y-86880952D01*
X180357142Y-86452380D02*
X179785714Y-87023809D01*
X180738095Y-86547619D02*
X180785714Y-86500000D01*
X180880952Y-86452380D01*
X181119047Y-86452380D01*
X181214285Y-86500000D01*
X181261904Y-86547619D01*
X181309523Y-86642857D01*
X181309523Y-86738095D01*
X181261904Y-86880952D01*
X180690476Y-87452380D01*
X181309523Y-87452380D01*
X182166666Y-86452380D02*
X181976190Y-86452380D01*
X181880952Y-86500000D01*
X181833333Y-86547619D01*
X181738095Y-86690476D01*
X181690476Y-86880952D01*
X181690476Y-87261904D01*
X181738095Y-87357142D01*
X181785714Y-87404761D01*
X181880952Y-87452380D01*
X182071428Y-87452380D01*
X182166666Y-87404761D01*
X182214285Y-87357142D01*
X182261904Y-87261904D01*
X182261904Y-87023809D01*
X182214285Y-86928571D01*
X182166666Y-86880952D01*
X182071428Y-86833333D01*
X181880952Y-86833333D01*
X181785714Y-86880952D01*
X181738095Y-86928571D01*
X181690476Y-87023809D01*
%TO.C,SW1*%
X67116666Y-136404761D02*
X67259523Y-136452380D01*
X67497619Y-136452380D01*
X67592857Y-136404761D01*
X67640476Y-136357142D01*
X67688095Y-136261904D01*
X67688095Y-136166666D01*
X67640476Y-136071428D01*
X67592857Y-136023809D01*
X67497619Y-135976190D01*
X67307142Y-135928571D01*
X67211904Y-135880952D01*
X67164285Y-135833333D01*
X67116666Y-135738095D01*
X67116666Y-135642857D01*
X67164285Y-135547619D01*
X67211904Y-135500000D01*
X67307142Y-135452380D01*
X67545238Y-135452380D01*
X67688095Y-135500000D01*
X68021428Y-135452380D02*
X68259523Y-136452380D01*
X68450000Y-135738095D01*
X68640476Y-136452380D01*
X68878571Y-135452380D01*
X69783333Y-136452380D02*
X69211904Y-136452380D01*
X69497619Y-136452380D02*
X69497619Y-135452380D01*
X69402380Y-135595238D01*
X69307142Y-135690476D01*
X69211904Y-135738095D01*
%TO.C,K4*%
X161261904Y-29452380D02*
X161261904Y-28452380D01*
X161833333Y-29452380D02*
X161404761Y-28880952D01*
X161833333Y-28452380D02*
X161261904Y-29023809D01*
X162690476Y-28785714D02*
X162690476Y-29452380D01*
X162452380Y-28404761D02*
X162214285Y-29119047D01*
X162833333Y-29119047D01*
%TO.C,K34*%
X198785714Y-108452380D02*
X198785714Y-107452380D01*
X199357142Y-108452380D02*
X198928571Y-107880952D01*
X199357142Y-107452380D02*
X198785714Y-108023809D01*
X199690476Y-107452380D02*
X200309523Y-107452380D01*
X199976190Y-107833333D01*
X200119047Y-107833333D01*
X200214285Y-107880952D01*
X200261904Y-107928571D01*
X200309523Y-108023809D01*
X200309523Y-108261904D01*
X200261904Y-108357142D01*
X200214285Y-108404761D01*
X200119047Y-108452380D01*
X199833333Y-108452380D01*
X199738095Y-108404761D01*
X199690476Y-108357142D01*
X201166666Y-107785714D02*
X201166666Y-108452380D01*
X200928571Y-107404761D02*
X200690476Y-108119047D01*
X201309523Y-108119047D01*
%TO.C,K30*%
X122595714Y-108992380D02*
X122595714Y-107992380D01*
X123167142Y-108992380D02*
X122738571Y-108420952D01*
X123167142Y-107992380D02*
X122595714Y-108563809D01*
X123500476Y-107992380D02*
X124119523Y-107992380D01*
X123786190Y-108373333D01*
X123929047Y-108373333D01*
X124024285Y-108420952D01*
X124071904Y-108468571D01*
X124119523Y-108563809D01*
X124119523Y-108801904D01*
X124071904Y-108897142D01*
X124024285Y-108944761D01*
X123929047Y-108992380D01*
X123643333Y-108992380D01*
X123548095Y-108944761D01*
X123500476Y-108897142D01*
X124738571Y-107992380D02*
X124833809Y-107992380D01*
X124929047Y-108040000D01*
X124976666Y-108087619D01*
X125024285Y-108182857D01*
X125071904Y-108373333D01*
X125071904Y-108611428D01*
X125024285Y-108801904D01*
X124976666Y-108897142D01*
X124929047Y-108944761D01*
X124833809Y-108992380D01*
X124738571Y-108992380D01*
X124643333Y-108944761D01*
X124595714Y-108897142D01*
X124548095Y-108801904D01*
X124500476Y-108611428D01*
X124500476Y-108373333D01*
X124548095Y-108182857D01*
X124595714Y-108087619D01*
X124643333Y-108040000D01*
X124738571Y-107992380D01*
%TO.C,K14*%
X217785714Y-56452380D02*
X217785714Y-55452380D01*
X218357142Y-56452380D02*
X217928571Y-55880952D01*
X218357142Y-55452380D02*
X217785714Y-56023809D01*
X219309523Y-56452380D02*
X218738095Y-56452380D01*
X219023809Y-56452380D02*
X219023809Y-55452380D01*
X218928571Y-55595238D01*
X218833333Y-55690476D01*
X218738095Y-55738095D01*
X220166666Y-55785714D02*
X220166666Y-56452380D01*
X219928571Y-55404761D02*
X219690476Y-56119047D01*
X220309523Y-56119047D01*
%TO.C,K12*%
X179785714Y-49452380D02*
X179785714Y-48452380D01*
X180357142Y-49452380D02*
X179928571Y-48880952D01*
X180357142Y-48452380D02*
X179785714Y-49023809D01*
X181309523Y-49452380D02*
X180738095Y-49452380D01*
X181023809Y-49452380D02*
X181023809Y-48452380D01*
X180928571Y-48595238D01*
X180833333Y-48690476D01*
X180738095Y-48738095D01*
X181690476Y-48547619D02*
X181738095Y-48500000D01*
X181833333Y-48452380D01*
X182071428Y-48452380D01*
X182166666Y-48500000D01*
X182214285Y-48547619D01*
X182261904Y-48642857D01*
X182261904Y-48738095D01*
X182214285Y-48880952D01*
X181642857Y-49452380D01*
X182261904Y-49452380D01*
%TO.C,K22*%
X103785714Y-94452380D02*
X103785714Y-93452380D01*
X104357142Y-94452380D02*
X103928571Y-93880952D01*
X104357142Y-93452380D02*
X103785714Y-94023809D01*
X104738095Y-93547619D02*
X104785714Y-93500000D01*
X104880952Y-93452380D01*
X105119047Y-93452380D01*
X105214285Y-93500000D01*
X105261904Y-93547619D01*
X105309523Y-93642857D01*
X105309523Y-93738095D01*
X105261904Y-93880952D01*
X104690476Y-94452380D01*
X105309523Y-94452380D01*
X105690476Y-93547619D02*
X105738095Y-93500000D01*
X105833333Y-93452380D01*
X106071428Y-93452380D01*
X106166666Y-93500000D01*
X106214285Y-93547619D01*
X106261904Y-93642857D01*
X106261904Y-93738095D01*
X106214285Y-93880952D01*
X105642857Y-94452380D01*
X106261904Y-94452380D01*
%TO.C,K6*%
X199261904Y-33452380D02*
X199261904Y-32452380D01*
X199833333Y-33452380D02*
X199404761Y-32880952D01*
X199833333Y-32452380D02*
X199261904Y-33023809D01*
X200690476Y-32452380D02*
X200500000Y-32452380D01*
X200404761Y-32500000D01*
X200357142Y-32547619D01*
X200261904Y-32690476D01*
X200214285Y-32880952D01*
X200214285Y-33261904D01*
X200261904Y-33357142D01*
X200309523Y-33404761D01*
X200404761Y-33452380D01*
X200595238Y-33452380D01*
X200690476Y-33404761D01*
X200738095Y-33357142D01*
X200785714Y-33261904D01*
X200785714Y-33023809D01*
X200738095Y-32928571D01*
X200690476Y-32880952D01*
X200595238Y-32833333D01*
X200404761Y-32833333D01*
X200309523Y-32880952D01*
X200261904Y-32928571D01*
X200214285Y-33023809D01*
%TO.C,K8*%
X104261904Y-56452380D02*
X104261904Y-55452380D01*
X104833333Y-56452380D02*
X104404761Y-55880952D01*
X104833333Y-55452380D02*
X104261904Y-56023809D01*
X105404761Y-55880952D02*
X105309523Y-55833333D01*
X105261904Y-55785714D01*
X105214285Y-55690476D01*
X105214285Y-55642857D01*
X105261904Y-55547619D01*
X105309523Y-55500000D01*
X105404761Y-55452380D01*
X105595238Y-55452380D01*
X105690476Y-55500000D01*
X105738095Y-55547619D01*
X105785714Y-55642857D01*
X105785714Y-55690476D01*
X105738095Y-55785714D01*
X105690476Y-55833333D01*
X105595238Y-55880952D01*
X105404761Y-55880952D01*
X105309523Y-55928571D01*
X105261904Y-55976190D01*
X105214285Y-56071428D01*
X105214285Y-56261904D01*
X105261904Y-56357142D01*
X105309523Y-56404761D01*
X105404761Y-56452380D01*
X105595238Y-56452380D01*
X105690476Y-56404761D01*
X105738095Y-56357142D01*
X105785714Y-56261904D01*
X105785714Y-56071428D01*
X105738095Y-55976190D01*
X105690476Y-55928571D01*
X105595238Y-55880952D01*
%TO.C,K18*%
X160785714Y-67452380D02*
X160785714Y-66452380D01*
X161357142Y-67452380D02*
X160928571Y-66880952D01*
X161357142Y-66452380D02*
X160785714Y-67023809D01*
X162309523Y-67452380D02*
X161738095Y-67452380D01*
X162023809Y-67452380D02*
X162023809Y-66452380D01*
X161928571Y-66595238D01*
X161833333Y-66690476D01*
X161738095Y-66738095D01*
X162880952Y-66880952D02*
X162785714Y-66833333D01*
X162738095Y-66785714D01*
X162690476Y-66690476D01*
X162690476Y-66642857D01*
X162738095Y-66547619D01*
X162785714Y-66500000D01*
X162880952Y-66452380D01*
X163071428Y-66452380D01*
X163166666Y-66500000D01*
X163214285Y-66547619D01*
X163261904Y-66642857D01*
X163261904Y-66690476D01*
X163214285Y-66785714D01*
X163166666Y-66833333D01*
X163071428Y-66880952D01*
X162880952Y-66880952D01*
X162785714Y-66928571D01*
X162738095Y-66976190D01*
X162690476Y-67071428D01*
X162690476Y-67261904D01*
X162738095Y-67357142D01*
X162785714Y-67404761D01*
X162880952Y-67452380D01*
X163071428Y-67452380D01*
X163166666Y-67404761D01*
X163214285Y-67357142D01*
X163261904Y-67261904D01*
X163261904Y-67071428D01*
X163214285Y-66976190D01*
X163166666Y-66928571D01*
X163071428Y-66880952D01*
%TO.C,K15*%
X103785714Y-75452380D02*
X103785714Y-74452380D01*
X104357142Y-75452380D02*
X103928571Y-74880952D01*
X104357142Y-74452380D02*
X103785714Y-75023809D01*
X105309523Y-75452380D02*
X104738095Y-75452380D01*
X105023809Y-75452380D02*
X105023809Y-74452380D01*
X104928571Y-74595238D01*
X104833333Y-74690476D01*
X104738095Y-74738095D01*
X106214285Y-74452380D02*
X105738095Y-74452380D01*
X105690476Y-74928571D01*
X105738095Y-74880952D01*
X105833333Y-74833333D01*
X106071428Y-74833333D01*
X106166666Y-74880952D01*
X106214285Y-74928571D01*
X106261904Y-75023809D01*
X106261904Y-75261904D01*
X106214285Y-75357142D01*
X106166666Y-75404761D01*
X106071428Y-75452380D01*
X105833333Y-75452380D01*
X105738095Y-75404761D01*
X105690476Y-75357142D01*
%TO.C,K21*%
X217785714Y-75452380D02*
X217785714Y-74452380D01*
X218357142Y-75452380D02*
X217928571Y-74880952D01*
X218357142Y-74452380D02*
X217785714Y-75023809D01*
X218738095Y-74547619D02*
X218785714Y-74500000D01*
X218880952Y-74452380D01*
X219119047Y-74452380D01*
X219214285Y-74500000D01*
X219261904Y-74547619D01*
X219309523Y-74642857D01*
X219309523Y-74738095D01*
X219261904Y-74880952D01*
X218690476Y-75452380D01*
X219309523Y-75452380D01*
X220261904Y-75452380D02*
X219690476Y-75452380D01*
X219976190Y-75452380D02*
X219976190Y-74452380D01*
X219880952Y-74595238D01*
X219785714Y-74690476D01*
X219690476Y-74738095D01*
%TO.C,K19*%
X179785714Y-68452380D02*
X179785714Y-67452380D01*
X180357142Y-68452380D02*
X179928571Y-67880952D01*
X180357142Y-67452380D02*
X179785714Y-68023809D01*
X181309523Y-68452380D02*
X180738095Y-68452380D01*
X181023809Y-68452380D02*
X181023809Y-67452380D01*
X180928571Y-67595238D01*
X180833333Y-67690476D01*
X180738095Y-67738095D01*
X181785714Y-68452380D02*
X181976190Y-68452380D01*
X182071428Y-68404761D01*
X182119047Y-68357142D01*
X182214285Y-68214285D01*
X182261904Y-68023809D01*
X182261904Y-67642857D01*
X182214285Y-67547619D01*
X182166666Y-67500000D01*
X182071428Y-67452380D01*
X181880952Y-67452380D01*
X181785714Y-67500000D01*
X181738095Y-67547619D01*
X181690476Y-67642857D01*
X181690476Y-67880952D01*
X181738095Y-67976190D01*
X181785714Y-68023809D01*
X181880952Y-68071428D01*
X182071428Y-68071428D01*
X182166666Y-68023809D01*
X182214285Y-67976190D01*
X182261904Y-67880952D01*
%TO.C,H1*%
X50238095Y-53752380D02*
X50238095Y-52752380D01*
X50238095Y-53228571D02*
X50809523Y-53228571D01*
X50809523Y-53752380D02*
X50809523Y-52752380D01*
X51809523Y-53752380D02*
X51238095Y-53752380D01*
X51523809Y-53752380D02*
X51523809Y-52752380D01*
X51428571Y-52895238D01*
X51333333Y-52990476D01*
X51238095Y-53038095D01*
%TO.C,H3*%
X70238095Y-156752380D02*
X70238095Y-155752380D01*
X70238095Y-156228571D02*
X70809523Y-156228571D01*
X70809523Y-156752380D02*
X70809523Y-155752380D01*
X71190476Y-155752380D02*
X71809523Y-155752380D01*
X71476190Y-156133333D01*
X71619047Y-156133333D01*
X71714285Y-156180952D01*
X71761904Y-156228571D01*
X71809523Y-156323809D01*
X71809523Y-156561904D01*
X71761904Y-156657142D01*
X71714285Y-156704761D01*
X71619047Y-156752380D01*
X71333333Y-156752380D01*
X71238095Y-156704761D01*
X71190476Y-156657142D01*
%TO.C,H4*%
X201738095Y-128952380D02*
X201738095Y-127952380D01*
X201738095Y-128428571D02*
X202309523Y-128428571D01*
X202309523Y-128952380D02*
X202309523Y-127952380D01*
X203214285Y-128285714D02*
X203214285Y-128952380D01*
X202976190Y-127904761D02*
X202738095Y-128619047D01*
X203357142Y-128619047D01*
%TO.C,K25*%
X160785714Y-86452380D02*
X160785714Y-85452380D01*
X161357142Y-86452380D02*
X160928571Y-85880952D01*
X161357142Y-85452380D02*
X160785714Y-86023809D01*
X161738095Y-85547619D02*
X161785714Y-85500000D01*
X161880952Y-85452380D01*
X162119047Y-85452380D01*
X162214285Y-85500000D01*
X162261904Y-85547619D01*
X162309523Y-85642857D01*
X162309523Y-85738095D01*
X162261904Y-85880952D01*
X161690476Y-86452380D01*
X162309523Y-86452380D01*
X163214285Y-85452380D02*
X162738095Y-85452380D01*
X162690476Y-85928571D01*
X162738095Y-85880952D01*
X162833333Y-85833333D01*
X163071428Y-85833333D01*
X163166666Y-85880952D01*
X163214285Y-85928571D01*
X163261904Y-86023809D01*
X163261904Y-86261904D01*
X163214285Y-86357142D01*
X163166666Y-86404761D01*
X163071428Y-86452380D01*
X162833333Y-86452380D01*
X162738095Y-86404761D01*
X162690476Y-86357142D01*
%TO.C,K10*%
X141785714Y-49452380D02*
X141785714Y-48452380D01*
X142357142Y-49452380D02*
X141928571Y-48880952D01*
X142357142Y-48452380D02*
X141785714Y-49023809D01*
X143309523Y-49452380D02*
X142738095Y-49452380D01*
X143023809Y-49452380D02*
X143023809Y-48452380D01*
X142928571Y-48595238D01*
X142833333Y-48690476D01*
X142738095Y-48738095D01*
X143928571Y-48452380D02*
X144023809Y-48452380D01*
X144119047Y-48500000D01*
X144166666Y-48547619D01*
X144214285Y-48642857D01*
X144261904Y-48833333D01*
X144261904Y-49071428D01*
X144214285Y-49261904D01*
X144166666Y-49357142D01*
X144119047Y-49404761D01*
X144023809Y-49452380D01*
X143928571Y-49452380D01*
X143833333Y-49404761D01*
X143785714Y-49357142D01*
X143738095Y-49261904D01*
X143690476Y-49071428D01*
X143690476Y-48833333D01*
X143738095Y-48642857D01*
X143785714Y-48547619D01*
X143833333Y-48500000D01*
X143928571Y-48452380D01*
%TO.C,K31*%
X141785714Y-106452380D02*
X141785714Y-105452380D01*
X142357142Y-106452380D02*
X141928571Y-105880952D01*
X142357142Y-105452380D02*
X141785714Y-106023809D01*
X142690476Y-105452380D02*
X143309523Y-105452380D01*
X142976190Y-105833333D01*
X143119047Y-105833333D01*
X143214285Y-105880952D01*
X143261904Y-105928571D01*
X143309523Y-106023809D01*
X143309523Y-106261904D01*
X143261904Y-106357142D01*
X143214285Y-106404761D01*
X143119047Y-106452380D01*
X142833333Y-106452380D01*
X142738095Y-106404761D01*
X142690476Y-106357142D01*
X144261904Y-106452380D02*
X143690476Y-106452380D01*
X143976190Y-106452380D02*
X143976190Y-105452380D01*
X143880952Y-105595238D01*
X143785714Y-105690476D01*
X143690476Y-105738095D01*
%TO.C,K23*%
X122595714Y-89992380D02*
X122595714Y-88992380D01*
X123167142Y-89992380D02*
X122738571Y-89420952D01*
X123167142Y-88992380D02*
X122595714Y-89563809D01*
X123548095Y-89087619D02*
X123595714Y-89040000D01*
X123690952Y-88992380D01*
X123929047Y-88992380D01*
X124024285Y-89040000D01*
X124071904Y-89087619D01*
X124119523Y-89182857D01*
X124119523Y-89278095D01*
X124071904Y-89420952D01*
X123500476Y-89992380D01*
X124119523Y-89992380D01*
X124452857Y-88992380D02*
X125071904Y-88992380D01*
X124738571Y-89373333D01*
X124881428Y-89373333D01*
X124976666Y-89420952D01*
X125024285Y-89468571D01*
X125071904Y-89563809D01*
X125071904Y-89801904D01*
X125024285Y-89897142D01*
X124976666Y-89944761D01*
X124881428Y-89992380D01*
X124595714Y-89992380D01*
X124500476Y-89944761D01*
X124452857Y-89897142D01*
%TO.C,K29*%
X103785714Y-113452380D02*
X103785714Y-112452380D01*
X104357142Y-113452380D02*
X103928571Y-112880952D01*
X104357142Y-112452380D02*
X103785714Y-113023809D01*
X104738095Y-112547619D02*
X104785714Y-112500000D01*
X104880952Y-112452380D01*
X105119047Y-112452380D01*
X105214285Y-112500000D01*
X105261904Y-112547619D01*
X105309523Y-112642857D01*
X105309523Y-112738095D01*
X105261904Y-112880952D01*
X104690476Y-113452380D01*
X105309523Y-113452380D01*
X105785714Y-113452380D02*
X105976190Y-113452380D01*
X106071428Y-113404761D01*
X106119047Y-113357142D01*
X106214285Y-113214285D01*
X106261904Y-113023809D01*
X106261904Y-112642857D01*
X106214285Y-112547619D01*
X106166666Y-112500000D01*
X106071428Y-112452380D01*
X105880952Y-112452380D01*
X105785714Y-112500000D01*
X105738095Y-112547619D01*
X105690476Y-112642857D01*
X105690476Y-112880952D01*
X105738095Y-112976190D01*
X105785714Y-113023809D01*
X105880952Y-113071428D01*
X106071428Y-113071428D01*
X106166666Y-113023809D01*
X106214285Y-112976190D01*
X106261904Y-112880952D01*
%TO.C,K24*%
X141785714Y-87452380D02*
X141785714Y-86452380D01*
X142357142Y-87452380D02*
X141928571Y-86880952D01*
X142357142Y-86452380D02*
X141785714Y-87023809D01*
X142738095Y-86547619D02*
X142785714Y-86500000D01*
X142880952Y-86452380D01*
X143119047Y-86452380D01*
X143214285Y-86500000D01*
X143261904Y-86547619D01*
X143309523Y-86642857D01*
X143309523Y-86738095D01*
X143261904Y-86880952D01*
X142690476Y-87452380D01*
X143309523Y-87452380D01*
X144166666Y-86785714D02*
X144166666Y-87452380D01*
X143928571Y-86404761D02*
X143690476Y-87119047D01*
X144309523Y-87119047D01*
%TO.C,K36*%
X77764633Y-164956685D02*
X77057527Y-164249578D01*
X78168694Y-164552624D02*
X77461588Y-164451609D01*
X77461588Y-163845517D02*
X77461588Y-164653639D01*
X77697290Y-163609815D02*
X78135023Y-163172082D01*
X78168694Y-163677158D01*
X78269710Y-163576143D01*
X78370725Y-163542471D01*
X78438069Y-163542471D01*
X78539084Y-163576143D01*
X78707443Y-163744502D01*
X78741114Y-163845517D01*
X78741114Y-163912861D01*
X78707443Y-164013876D01*
X78505412Y-164215906D01*
X78404397Y-164249578D01*
X78337053Y-164249578D01*
X78741114Y-162565990D02*
X78606427Y-162700677D01*
X78572756Y-162801693D01*
X78572756Y-162869036D01*
X78606427Y-163037395D01*
X78707443Y-163205754D01*
X78976817Y-163475128D01*
X79077832Y-163508799D01*
X79145175Y-163508799D01*
X79246191Y-163475128D01*
X79380878Y-163340441D01*
X79414549Y-163239425D01*
X79414549Y-163172082D01*
X79380878Y-163071067D01*
X79212519Y-162902708D01*
X79111504Y-162869036D01*
X79044160Y-162869036D01*
X78943145Y-162902708D01*
X78808458Y-163037395D01*
X78774786Y-163138410D01*
X78774786Y-163205754D01*
X78808458Y-163306769D01*
%TO.C,K35*%
X217785714Y-113452380D02*
X217785714Y-112452380D01*
X218357142Y-113452380D02*
X217928571Y-112880952D01*
X218357142Y-112452380D02*
X217785714Y-113023809D01*
X218690476Y-112452380D02*
X219309523Y-112452380D01*
X218976190Y-112833333D01*
X219119047Y-112833333D01*
X219214285Y-112880952D01*
X219261904Y-112928571D01*
X219309523Y-113023809D01*
X219309523Y-113261904D01*
X219261904Y-113357142D01*
X219214285Y-113404761D01*
X219119047Y-113452380D01*
X218833333Y-113452380D01*
X218738095Y-113404761D01*
X218690476Y-113357142D01*
X220214285Y-112452380D02*
X219738095Y-112452380D01*
X219690476Y-112928571D01*
X219738095Y-112880952D01*
X219833333Y-112833333D01*
X220071428Y-112833333D01*
X220166666Y-112880952D01*
X220214285Y-112928571D01*
X220261904Y-113023809D01*
X220261904Y-113261904D01*
X220214285Y-113357142D01*
X220166666Y-113404761D01*
X220071428Y-113452380D01*
X219833333Y-113452380D01*
X219738095Y-113404761D01*
X219690476Y-113357142D01*
%TO.C,K27*%
X198785714Y-89452380D02*
X198785714Y-88452380D01*
X199357142Y-89452380D02*
X198928571Y-88880952D01*
X199357142Y-88452380D02*
X198785714Y-89023809D01*
X199738095Y-88547619D02*
X199785714Y-88500000D01*
X199880952Y-88452380D01*
X200119047Y-88452380D01*
X200214285Y-88500000D01*
X200261904Y-88547619D01*
X200309523Y-88642857D01*
X200309523Y-88738095D01*
X200261904Y-88880952D01*
X199690476Y-89452380D01*
X200309523Y-89452380D01*
X200642857Y-88452380D02*
X201309523Y-88452380D01*
X200880952Y-89452380D01*
%TO.C,K3*%
X142261904Y-30452380D02*
X142261904Y-29452380D01*
X142833333Y-30452380D02*
X142404761Y-29880952D01*
X142833333Y-29452380D02*
X142261904Y-30023809D01*
X143166666Y-29452380D02*
X143785714Y-29452380D01*
X143452380Y-29833333D01*
X143595238Y-29833333D01*
X143690476Y-29880952D01*
X143738095Y-29928571D01*
X143785714Y-30023809D01*
X143785714Y-30261904D01*
X143738095Y-30357142D01*
X143690476Y-30404761D01*
X143595238Y-30452380D01*
X143309523Y-30452380D01*
X143214285Y-30404761D01*
X143166666Y-30357142D01*
D11*
%TO.C,K28*%
X226100000Y-109100000D02*
X226100000Y-94900000D01*
X211900000Y-94900000D02*
X211900000Y-109100000D01*
X211900000Y-109100000D02*
X226100000Y-109100000D01*
X226100000Y-94900000D02*
X211900000Y-94900000D01*
%TO.C,K11*%
X169100000Y-48900000D02*
X154900000Y-48900000D01*
X154900000Y-63100000D02*
X169100000Y-63100000D01*
X169100000Y-63100000D02*
X169100000Y-48900000D01*
X154900000Y-48900000D02*
X154900000Y-63100000D01*
%TO.C,U1*%
X58000000Y-131500000D02*
X63000000Y-131500000D01*
X89000000Y-71500000D02*
X89000000Y-123500000D01*
X89000000Y-123500000D02*
X53000000Y-123500000D01*
X50990000Y-131120000D02*
X50990000Y-63680000D01*
X53000000Y-123500000D02*
X53000000Y-71500000D01*
X53000000Y-71500000D02*
X89000000Y-71500000D01*
X91330000Y-131120000D02*
X50990000Y-131120000D01*
X91330000Y-63680000D02*
X91330000Y-131120000D01*
X50990000Y-63680000D02*
X91330000Y-63680000D01*
%TO.C,K33*%
X188100000Y-121100000D02*
X188100000Y-106900000D01*
X188100000Y-106900000D02*
X173900000Y-106900000D01*
X173900000Y-106900000D02*
X173900000Y-121100000D01*
X173900000Y-121100000D02*
X188100000Y-121100000D01*
%TO.C,K20*%
X192900000Y-86100000D02*
X207100000Y-86100000D01*
X192900000Y-71900000D02*
X192900000Y-86100000D01*
X207100000Y-86100000D02*
X207100000Y-71900000D01*
X207100000Y-71900000D02*
X192900000Y-71900000D01*
%TO.C,K13*%
X207100000Y-52900000D02*
X192900000Y-52900000D01*
X192900000Y-67100000D02*
X207100000Y-67100000D01*
X207100000Y-67100000D02*
X207100000Y-52900000D01*
X192900000Y-52900000D02*
X192900000Y-67100000D01*
%TO.C,K7*%
X211900000Y-52100000D02*
X226100000Y-52100000D01*
X226100000Y-37900000D02*
X211900000Y-37900000D01*
X211900000Y-37900000D02*
X211900000Y-52100000D01*
X226100000Y-52100000D02*
X226100000Y-37900000D01*
%TO.C,K17*%
X135900000Y-68900000D02*
X135900000Y-83100000D01*
X150100000Y-83100000D02*
X150100000Y-68900000D01*
X150100000Y-68900000D02*
X135900000Y-68900000D01*
X135900000Y-83100000D02*
X150100000Y-83100000D01*
%TO.C,K16*%
X130910000Y-85640000D02*
X130910000Y-71440000D01*
X116710000Y-85640000D02*
X130910000Y-85640000D01*
X130910000Y-71440000D02*
X116710000Y-71440000D01*
X116710000Y-71440000D02*
X116710000Y-85640000D01*
%TO.C,K37*%
X107436181Y-156000000D02*
X97395265Y-145959084D01*
X87354349Y-156000000D02*
X97395265Y-166040916D01*
X97395265Y-166040916D02*
X107436181Y-156000000D01*
X97395265Y-145959084D02*
X87354349Y-156000000D01*
%TO.C,K2*%
X116710000Y-47640000D02*
X130910000Y-47640000D01*
X130910000Y-47640000D02*
X130910000Y-33440000D01*
X130910000Y-33440000D02*
X116710000Y-33440000D01*
X116710000Y-33440000D02*
X116710000Y-47640000D01*
%TO.C,K38*%
X110830294Y-132524055D02*
X100789378Y-142564971D01*
X100789378Y-142564971D02*
X110830294Y-152605887D01*
X120871210Y-142564971D02*
X110830294Y-132524055D01*
X110830294Y-152605887D02*
X120871210Y-142564971D01*
%TO.C,K5*%
X173900000Y-30900000D02*
X173900000Y-45100000D01*
X173900000Y-45100000D02*
X188100000Y-45100000D01*
X188100000Y-45100000D02*
X188100000Y-30900000D01*
X188100000Y-30900000D02*
X173900000Y-30900000D01*
%TO.C,K9*%
X116710000Y-66640000D02*
X130910000Y-66640000D01*
X130910000Y-52440000D02*
X116710000Y-52440000D01*
X130910000Y-66640000D02*
X130910000Y-52440000D01*
X116710000Y-52440000D02*
X116710000Y-66640000D01*
%TO.C,K32*%
X169100000Y-105900000D02*
X154900000Y-105900000D01*
X169100000Y-120100000D02*
X169100000Y-105900000D01*
X154900000Y-120100000D02*
X169100000Y-120100000D01*
X154900000Y-105900000D02*
X154900000Y-120100000D01*
%TO.C,K1*%
X97900000Y-37900000D02*
X97900000Y-52100000D01*
X112100000Y-52100000D02*
X112100000Y-37900000D01*
X97900000Y-52100000D02*
X112100000Y-52100000D01*
X112100000Y-37900000D02*
X97900000Y-37900000D01*
%TO.C,K26*%
X173900000Y-102100000D02*
X188100000Y-102100000D01*
X188100000Y-87900000D02*
X173900000Y-87900000D01*
X173900000Y-87900000D02*
X173900000Y-102100000D01*
X188100000Y-102100000D02*
X188100000Y-87900000D01*
%TO.C,SW1*%
X65350000Y-139100000D02*
X65950000Y-139100000D01*
X73150000Y-142700000D02*
X73150000Y-143700000D01*
X75150000Y-137300000D02*
X79250000Y-137300000D01*
X67050000Y-137300000D02*
X67050000Y-149100000D01*
X65950000Y-139100000D02*
X65650000Y-139400000D01*
X71150000Y-137300000D02*
X67050000Y-137300000D01*
X65650000Y-139400000D02*
X65350000Y-139100000D01*
X72650000Y-143200000D02*
X73650000Y-143200000D01*
X79250000Y-149100000D02*
X75150000Y-149100000D01*
X79250000Y-146700000D02*
X79250000Y-149100000D01*
X71150000Y-149100000D02*
X67050000Y-149100000D01*
X79250000Y-137300000D02*
X79250000Y-139700000D01*
X79250000Y-141900000D02*
X79250000Y-144500000D01*
X76150000Y-143200000D02*
G75*
G03*
X76150000Y-143200000I-3000000J0D01*
G01*
%TO.C,K4*%
X169100000Y-44100000D02*
X169100000Y-29900000D01*
X169100000Y-29900000D02*
X154900000Y-29900000D01*
X154900000Y-29900000D02*
X154900000Y-44100000D01*
X154900000Y-44100000D02*
X169100000Y-44100000D01*
%TO.C,K34*%
X207100000Y-109900000D02*
X192900000Y-109900000D01*
X207100000Y-124100000D02*
X207100000Y-109900000D01*
X192900000Y-124100000D02*
X207100000Y-124100000D01*
X192900000Y-109900000D02*
X192900000Y-124100000D01*
%TO.C,K30*%
X116710000Y-123640000D02*
X130910000Y-123640000D01*
X130910000Y-109440000D02*
X116710000Y-109440000D01*
X116710000Y-109440000D02*
X116710000Y-123640000D01*
X130910000Y-123640000D02*
X130910000Y-109440000D01*
%TO.C,K14*%
X226100000Y-71100000D02*
X226100000Y-56900000D01*
X211900000Y-56900000D02*
X211900000Y-71100000D01*
X211900000Y-71100000D02*
X226100000Y-71100000D01*
X226100000Y-56900000D02*
X211900000Y-56900000D01*
%TO.C,K12*%
X173900000Y-64100000D02*
X188100000Y-64100000D01*
X188100000Y-64100000D02*
X188100000Y-49900000D01*
X188100000Y-49900000D02*
X173900000Y-49900000D01*
X173900000Y-49900000D02*
X173900000Y-64100000D01*
%TO.C,K22*%
X112100000Y-94900000D02*
X97900000Y-94900000D01*
X97900000Y-109100000D02*
X112100000Y-109100000D01*
X97900000Y-94900000D02*
X97900000Y-109100000D01*
X112100000Y-109100000D02*
X112100000Y-94900000D01*
%TO.C,K6*%
X192900000Y-48100000D02*
X207100000Y-48100000D01*
X192900000Y-33900000D02*
X192900000Y-48100000D01*
X207100000Y-33900000D02*
X192900000Y-33900000D01*
X207100000Y-48100000D02*
X207100000Y-33900000D01*
%TO.C,K8*%
X97900000Y-71100000D02*
X112100000Y-71100000D01*
X97900000Y-56900000D02*
X97900000Y-71100000D01*
X112100000Y-71100000D02*
X112100000Y-56900000D01*
X112100000Y-56900000D02*
X97900000Y-56900000D01*
%TO.C,K18*%
X169100000Y-67900000D02*
X154900000Y-67900000D01*
X154900000Y-82100000D02*
X169100000Y-82100000D01*
X169100000Y-82100000D02*
X169100000Y-67900000D01*
X154900000Y-67900000D02*
X154900000Y-82100000D01*
%TO.C,K15*%
X112100000Y-90100000D02*
X112100000Y-75900000D01*
X97900000Y-75900000D02*
X97900000Y-90100000D01*
X97900000Y-90100000D02*
X112100000Y-90100000D01*
X112100000Y-75900000D02*
X97900000Y-75900000D01*
%TO.C,K21*%
X211900000Y-90100000D02*
X226100000Y-90100000D01*
X226100000Y-75900000D02*
X211900000Y-75900000D01*
X226100000Y-90100000D02*
X226100000Y-75900000D01*
X211900000Y-75900000D02*
X211900000Y-90100000D01*
%TO.C,K19*%
X173900000Y-83100000D02*
X188100000Y-83100000D01*
X173900000Y-68900000D02*
X173900000Y-83100000D01*
X188100000Y-83100000D02*
X188100000Y-68900000D01*
X188100000Y-68900000D02*
X173900000Y-68900000D01*
%TO.C,K25*%
X169100000Y-86900000D02*
X154900000Y-86900000D01*
X154900000Y-86900000D02*
X154900000Y-101100000D01*
X154900000Y-101100000D02*
X169100000Y-101100000D01*
X169100000Y-101100000D02*
X169100000Y-86900000D01*
%TO.C,K10*%
X135900000Y-64100000D02*
X150100000Y-64100000D01*
X150100000Y-64100000D02*
X150100000Y-49900000D01*
X150100000Y-49900000D02*
X135900000Y-49900000D01*
X135900000Y-49900000D02*
X135900000Y-64100000D01*
%TO.C,K31*%
X135900000Y-106900000D02*
X135900000Y-121100000D01*
X150100000Y-106900000D02*
X135900000Y-106900000D01*
X150100000Y-121100000D02*
X150100000Y-106900000D01*
X135900000Y-121100000D02*
X150100000Y-121100000D01*
%TO.C,K23*%
X130910000Y-90440000D02*
X116710000Y-90440000D01*
X116710000Y-104640000D02*
X130910000Y-104640000D01*
X116710000Y-90440000D02*
X116710000Y-104640000D01*
X130910000Y-104640000D02*
X130910000Y-90440000D01*
%TO.C,K29*%
X97900000Y-113900000D02*
X97900000Y-128100000D01*
X97900000Y-128100000D02*
X112100000Y-128100000D01*
X112100000Y-113900000D02*
X97900000Y-113900000D01*
X112100000Y-128100000D02*
X112100000Y-113900000D01*
%TO.C,K24*%
X150100000Y-87900000D02*
X135900000Y-87900000D01*
X150100000Y-102100000D02*
X150100000Y-87900000D01*
X135900000Y-87900000D02*
X135900000Y-102100000D01*
X135900000Y-102100000D02*
X150100000Y-102100000D01*
%TO.C,K36*%
X94001152Y-169435028D02*
X83960236Y-159394112D01*
X83960236Y-159394112D02*
X73919320Y-169435028D01*
X83960236Y-179475944D02*
X94001152Y-169435028D01*
X73919320Y-169435028D02*
X83960236Y-179475944D01*
%TO.C,K35*%
X211900000Y-128100000D02*
X226100000Y-128100000D01*
X226100000Y-128100000D02*
X226100000Y-113900000D01*
X211900000Y-113900000D02*
X211900000Y-128100000D01*
X226100000Y-113900000D02*
X211900000Y-113900000D01*
%TO.C,K27*%
X192900000Y-105100000D02*
X207100000Y-105100000D01*
X207100000Y-90900000D02*
X192900000Y-90900000D01*
X207100000Y-105100000D02*
X207100000Y-90900000D01*
X192900000Y-90900000D02*
X192900000Y-105100000D01*
%TO.C,K3*%
X150100000Y-30900000D02*
X135900000Y-30900000D01*
X135900000Y-30900000D02*
X135900000Y-45100000D01*
X135900000Y-45100000D02*
X150100000Y-45100000D01*
X150100000Y-45100000D02*
X150100000Y-30900000D01*
%TD*%
M02*
