M48
; DRILL file {KiCad (6.0.7-1)-1} date Tuesday, September 13, 2022 at 12:36:01 PM
; FORMAT={-:-/ absolute / inch / decimal}
; #@! TF.CreationDate,2022-09-13T12:36:01-04:00
; #@! TF.GenerationSoftware,Kicad,Pcbnew,(6.0.7-1)-1
; #@! TF.FileFunction,Plated,1,2,PTH
FMAT,2
INCH
; #@! TA.AperFunction,Plated,PTH,ComponentDrill
T1C0.0315
; #@! TA.AperFunction,Plated,PTH,ComponentDrill
T2C0.0394
; #@! TA.AperFunction,Plated,PTH,ComponentDrill
T3C0.1201
%
G90
G05
T1
X1.17Y-1.36
X1.17Y-2.11
X1.17Y-2.86
X1.17Y-3.61
X1.47Y-1.36
X1.47Y-2.11
X1.47Y-2.86
X1.47Y-3.61
X1.92Y-1.36
X1.92Y-2.11
X1.92Y-2.86
X1.92Y-3.61
X2.22Y-1.36
X2.22Y-2.11
X2.22Y-2.86
X2.22Y-3.61
X2.67Y-1.36
X2.67Y-2.11
X2.67Y-2.86
X2.67Y-3.61
X2.97Y-1.36
X2.97Y-2.11
X2.97Y-2.86
X2.97Y-3.61
X3.42Y-1.36
X3.42Y-2.11
X3.42Y-2.86
X3.42Y-3.61
X3.72Y-1.36
X3.72Y-2.11
X3.72Y-2.86
X3.72Y-3.61
T2
X2.0Y-3.9
X2.1Y-3.9
X2.2Y-3.9
X2.3Y-3.9
X2.4Y-3.9
X2.5Y-3.9
X2.6Y-3.9
X2.7Y-3.9
T3
X1.1Y-1.05
X1.1Y-1.8
X1.1Y-2.55
X1.1Y-3.3
X1.35Y-0.95
X1.35Y-1.7
X1.35Y-2.45
X1.35Y-3.2
X1.85Y-1.05
X1.85Y-1.8
X1.85Y-2.55
X1.85Y-3.3
X2.1Y-0.95
X2.1Y-1.7
X2.1Y-2.45
X2.1Y-3.2
X2.6Y-1.05
X2.6Y-2.55
X2.6Y-3.3
X2.603Y-1.8
X2.85Y-0.95
X2.85Y-2.45
X2.85Y-3.2
X2.853Y-1.7
X3.35Y-1.05
X3.35Y-1.8
X3.35Y-2.55
X3.35Y-3.3
X3.6Y-0.95
X3.6Y-1.7
X3.6Y-2.45
X3.6Y-3.2
T0
M30
