%TF.GenerationSoftware,KiCad,Pcbnew,(6.0.7-1)-1*%
%TF.CreationDate,2022-09-13T12:36:23-04:00*%
%TF.ProjectId,KBT1,4b425431-2e6b-4696-9361-645f70636258,rev?*%
%TF.SameCoordinates,Original*%
%TF.FileFunction,Legend,Top*%
%TF.FilePolarity,Positive*%
%FSLAX46Y46*%
G04 Gerber Fmt 4.6, Leading zero omitted, Abs format (unit mm)*
G04 Created by KiCad (PCBNEW (6.0.7-1)-1) date 2022-09-13 12:36:23*
%MOMM*%
%LPD*%
G01*
G04 APERTURE LIST*
%ADD10C,0.150000*%
%ADD11C,0.120000*%
G04 APERTURE END LIST*
D10*
X40266666Y-18900000D02*
X40733333Y-18900000D01*
X40933333Y-19633333D02*
X40266666Y-19633333D01*
X40266666Y-18233333D01*
X40933333Y-18233333D01*
X42333333Y-19500000D02*
X42266666Y-19566666D01*
X42066666Y-19633333D01*
X41933333Y-19633333D01*
X41733333Y-19566666D01*
X41599999Y-19433333D01*
X41533333Y-19300000D01*
X41466666Y-19033333D01*
X41466666Y-18833333D01*
X41533333Y-18566666D01*
X41599999Y-18433333D01*
X41733333Y-18300000D01*
X41933333Y-18233333D01*
X42066666Y-18233333D01*
X42266666Y-18300000D01*
X42333333Y-18366666D01*
X42933333Y-18900000D02*
X43399999Y-18900000D01*
X43599999Y-19633333D02*
X42933333Y-19633333D01*
X42933333Y-18233333D01*
X43599999Y-18233333D01*
X45866666Y-18700000D02*
X45866666Y-19633333D01*
X45533333Y-18166666D02*
X45199999Y-19166666D01*
X46066666Y-19166666D01*
X46466666Y-18233333D02*
X47399999Y-18233333D01*
X46799999Y-19633333D01*
X47799999Y-18233333D02*
X48733333Y-18233333D01*
X48133333Y-19633333D01*
X51066666Y-18300000D02*
X50933333Y-18233333D01*
X50733333Y-18233333D01*
X50533333Y-18300000D01*
X50399999Y-18433333D01*
X50333333Y-18566666D01*
X50266666Y-18833333D01*
X50266666Y-19033333D01*
X50333333Y-19300000D01*
X50399999Y-19433333D01*
X50533333Y-19566666D01*
X50733333Y-19633333D01*
X50866666Y-19633333D01*
X51066666Y-19566666D01*
X51133333Y-19500000D01*
X51133333Y-19033333D01*
X50866666Y-19033333D01*
X51733333Y-19633333D02*
X51733333Y-18700000D01*
X51733333Y-18966666D02*
X51799999Y-18833333D01*
X51866666Y-18766666D01*
X51999999Y-18700000D01*
X52133333Y-18700000D01*
X52799999Y-19633333D02*
X52666666Y-19566666D01*
X52599999Y-19500000D01*
X52533333Y-19366666D01*
X52533333Y-18966666D01*
X52599999Y-18833333D01*
X52666666Y-18766666D01*
X52799999Y-18700000D01*
X52999999Y-18700000D01*
X53133333Y-18766666D01*
X53199999Y-18833333D01*
X53266666Y-18966666D01*
X53266666Y-19366666D01*
X53199999Y-19500000D01*
X53133333Y-19566666D01*
X52999999Y-19633333D01*
X52799999Y-19633333D01*
X54466666Y-18700000D02*
X54466666Y-19633333D01*
X53866666Y-18700000D02*
X53866666Y-19433333D01*
X53933333Y-19566666D01*
X54066666Y-19633333D01*
X54266666Y-19633333D01*
X54399999Y-19566666D01*
X54466666Y-19500000D01*
X55133333Y-18700000D02*
X55133333Y-20100000D01*
X55133333Y-18766666D02*
X55266666Y-18700000D01*
X55533333Y-18700000D01*
X55666666Y-18766666D01*
X55733333Y-18833333D01*
X55799999Y-18966666D01*
X55799999Y-19366666D01*
X55733333Y-19500000D01*
X55666666Y-19566666D01*
X55533333Y-19633333D01*
X55266666Y-19633333D01*
X55133333Y-19566666D01*
X58066666Y-18700000D02*
X58066666Y-19633333D01*
X57733333Y-18166666D02*
X57399999Y-19166666D01*
X58266666Y-19166666D01*
X59866666Y-19633333D02*
X59866666Y-18233333D01*
X60666666Y-19633333D02*
X60066666Y-18833333D01*
X60666666Y-18233333D02*
X59866666Y-19033333D01*
X61799999Y-19566666D02*
X61666666Y-19633333D01*
X61399999Y-19633333D01*
X61266666Y-19566666D01*
X61199999Y-19433333D01*
X61199999Y-18900000D01*
X61266666Y-18766666D01*
X61399999Y-18700000D01*
X61666666Y-18700000D01*
X61799999Y-18766666D01*
X61866666Y-18900000D01*
X61866666Y-19033333D01*
X61199999Y-19166666D01*
X62333333Y-18700000D02*
X62666666Y-19633333D01*
X62999999Y-18700000D02*
X62666666Y-19633333D01*
X62533333Y-19966666D01*
X62466666Y-20033333D01*
X62333333Y-20100000D01*
X63533333Y-19633333D02*
X63533333Y-18233333D01*
X63533333Y-18766666D02*
X63666666Y-18700000D01*
X63933333Y-18700000D01*
X64066666Y-18766666D01*
X64133333Y-18833333D01*
X64199999Y-18966666D01*
X64199999Y-19366666D01*
X64133333Y-19500000D01*
X64066666Y-19566666D01*
X63933333Y-19633333D01*
X63666666Y-19633333D01*
X63533333Y-19566666D01*
X64999999Y-19633333D02*
X64866666Y-19566666D01*
X64799999Y-19500000D01*
X64733333Y-19366666D01*
X64733333Y-18966666D01*
X64799999Y-18833333D01*
X64866666Y-18766666D01*
X64999999Y-18700000D01*
X65199999Y-18700000D01*
X65333333Y-18766666D01*
X65399999Y-18833333D01*
X65466666Y-18966666D01*
X65466666Y-19366666D01*
X65399999Y-19500000D01*
X65333333Y-19566666D01*
X65199999Y-19633333D01*
X64999999Y-19633333D01*
X66666666Y-19633333D02*
X66666666Y-18900000D01*
X66600000Y-18766666D01*
X66466666Y-18700000D01*
X66200000Y-18700000D01*
X66066666Y-18766666D01*
X66666666Y-19566666D02*
X66533333Y-19633333D01*
X66200000Y-19633333D01*
X66066666Y-19566666D01*
X66000000Y-19433333D01*
X66000000Y-19300000D01*
X66066666Y-19166666D01*
X66200000Y-19100000D01*
X66533333Y-19100000D01*
X66666666Y-19033333D01*
X67333333Y-19633333D02*
X67333333Y-18700000D01*
X67333333Y-18966666D02*
X67400000Y-18833333D01*
X67466666Y-18766666D01*
X67600000Y-18700000D01*
X67733333Y-18700000D01*
X68800000Y-19633333D02*
X68800000Y-18233333D01*
X68800000Y-19566666D02*
X68666666Y-19633333D01*
X68400000Y-19633333D01*
X68266666Y-19566666D01*
X68200000Y-19500000D01*
X68133333Y-19366666D01*
X68133333Y-18966666D01*
X68200000Y-18833333D01*
X68266666Y-18766666D01*
X68400000Y-18700000D01*
X68666666Y-18700000D01*
X68800000Y-18766666D01*
X70333333Y-18233333D02*
X71133333Y-18233333D01*
X70733333Y-19633333D02*
X70733333Y-18233333D01*
X72133333Y-19566666D02*
X72000000Y-19633333D01*
X71733333Y-19633333D01*
X71600000Y-19566666D01*
X71533333Y-19433333D01*
X71533333Y-18900000D01*
X71600000Y-18766666D01*
X71733333Y-18700000D01*
X72000000Y-18700000D01*
X72133333Y-18766666D01*
X72200000Y-18900000D01*
X72200000Y-19033333D01*
X71533333Y-19166666D01*
X72733333Y-19566666D02*
X72866666Y-19633333D01*
X73133333Y-19633333D01*
X73266666Y-19566666D01*
X73333333Y-19433333D01*
X73333333Y-19366666D01*
X73266666Y-19233333D01*
X73133333Y-19166666D01*
X72933333Y-19166666D01*
X72800000Y-19100000D01*
X72733333Y-18966666D01*
X72733333Y-18900000D01*
X72800000Y-18766666D01*
X72933333Y-18700000D01*
X73133333Y-18700000D01*
X73266666Y-18766666D01*
X73733333Y-18700000D02*
X74266666Y-18700000D01*
X73933333Y-18233333D02*
X73933333Y-19433333D01*
X74000000Y-19566666D01*
X74133333Y-19633333D01*
X74266666Y-19633333D01*
X75266666Y-19566666D02*
X75133333Y-19633333D01*
X74866666Y-19633333D01*
X74733333Y-19566666D01*
X74666666Y-19433333D01*
X74666666Y-18900000D01*
X74733333Y-18766666D01*
X74866666Y-18700000D01*
X75133333Y-18700000D01*
X75266666Y-18766666D01*
X75333333Y-18900000D01*
X75333333Y-19033333D01*
X74666666Y-19166666D01*
X75933333Y-19633333D02*
X75933333Y-18700000D01*
X75933333Y-18966666D02*
X76000000Y-18833333D01*
X76066666Y-18766666D01*
X76200000Y-18700000D01*
X76333333Y-18700000D01*
X77666666Y-18233333D02*
X78133333Y-19633333D01*
X78600000Y-18233333D01*
X79800000Y-19633333D02*
X79000000Y-19633333D01*
X79400000Y-19633333D02*
X79400000Y-18233333D01*
X79266666Y-18433333D01*
X79133333Y-18566666D01*
X79000000Y-18633333D01*
%TO.C,K0*%
X31011904Y-21662380D02*
X31011904Y-20662380D01*
X31583333Y-21662380D02*
X31154761Y-21090952D01*
X31583333Y-20662380D02*
X31011904Y-21233809D01*
X32202380Y-20662380D02*
X32297619Y-20662380D01*
X32392857Y-20710000D01*
X32440476Y-20757619D01*
X32488095Y-20852857D01*
X32535714Y-21043333D01*
X32535714Y-21281428D01*
X32488095Y-21471904D01*
X32440476Y-21567142D01*
X32392857Y-21614761D01*
X32297619Y-21662380D01*
X32202380Y-21662380D01*
X32107142Y-21614761D01*
X32059523Y-21567142D01*
X32011904Y-21471904D01*
X31964285Y-21281428D01*
X31964285Y-21043333D01*
X32011904Y-20852857D01*
X32059523Y-20757619D01*
X32107142Y-20710000D01*
X32202380Y-20662380D01*
%TO.C,K1*%
X31011904Y-40712380D02*
X31011904Y-39712380D01*
X31583333Y-40712380D02*
X31154761Y-40140952D01*
X31583333Y-39712380D02*
X31011904Y-40283809D01*
X32535714Y-40712380D02*
X31964285Y-40712380D01*
X32250000Y-40712380D02*
X32250000Y-39712380D01*
X32154761Y-39855238D01*
X32059523Y-39950476D01*
X31964285Y-39998095D01*
%TO.C,K2*%
X31011904Y-59762380D02*
X31011904Y-58762380D01*
X31583333Y-59762380D02*
X31154761Y-59190952D01*
X31583333Y-58762380D02*
X31011904Y-59333809D01*
X31964285Y-58857619D02*
X32011904Y-58810000D01*
X32107142Y-58762380D01*
X32345238Y-58762380D01*
X32440476Y-58810000D01*
X32488095Y-58857619D01*
X32535714Y-58952857D01*
X32535714Y-59048095D01*
X32488095Y-59190952D01*
X31916666Y-59762380D01*
X32535714Y-59762380D01*
%TO.C,K3*%
X31011904Y-78812380D02*
X31011904Y-77812380D01*
X31583333Y-78812380D02*
X31154761Y-78240952D01*
X31583333Y-77812380D02*
X31011904Y-78383809D01*
X31916666Y-77812380D02*
X32535714Y-77812380D01*
X32202380Y-78193333D01*
X32345238Y-78193333D01*
X32440476Y-78240952D01*
X32488095Y-78288571D01*
X32535714Y-78383809D01*
X32535714Y-78621904D01*
X32488095Y-78717142D01*
X32440476Y-78764761D01*
X32345238Y-78812380D01*
X32059523Y-78812380D01*
X31964285Y-78764761D01*
X31916666Y-78717142D01*
%TO.C,K4*%
X50061904Y-21662380D02*
X50061904Y-20662380D01*
X50633333Y-21662380D02*
X50204761Y-21090952D01*
X50633333Y-20662380D02*
X50061904Y-21233809D01*
X51490476Y-20995714D02*
X51490476Y-21662380D01*
X51252380Y-20614761D02*
X51014285Y-21329047D01*
X51633333Y-21329047D01*
%TO.C,K5*%
X50061904Y-40712380D02*
X50061904Y-39712380D01*
X50633333Y-40712380D02*
X50204761Y-40140952D01*
X50633333Y-39712380D02*
X50061904Y-40283809D01*
X51538095Y-39712380D02*
X51061904Y-39712380D01*
X51014285Y-40188571D01*
X51061904Y-40140952D01*
X51157142Y-40093333D01*
X51395238Y-40093333D01*
X51490476Y-40140952D01*
X51538095Y-40188571D01*
X51585714Y-40283809D01*
X51585714Y-40521904D01*
X51538095Y-40617142D01*
X51490476Y-40664761D01*
X51395238Y-40712380D01*
X51157142Y-40712380D01*
X51061904Y-40664761D01*
X51014285Y-40617142D01*
%TO.C,K6*%
X50061904Y-59762380D02*
X50061904Y-58762380D01*
X50633333Y-59762380D02*
X50204761Y-59190952D01*
X50633333Y-58762380D02*
X50061904Y-59333809D01*
X51490476Y-58762380D02*
X51300000Y-58762380D01*
X51204761Y-58810000D01*
X51157142Y-58857619D01*
X51061904Y-59000476D01*
X51014285Y-59190952D01*
X51014285Y-59571904D01*
X51061904Y-59667142D01*
X51109523Y-59714761D01*
X51204761Y-59762380D01*
X51395238Y-59762380D01*
X51490476Y-59714761D01*
X51538095Y-59667142D01*
X51585714Y-59571904D01*
X51585714Y-59333809D01*
X51538095Y-59238571D01*
X51490476Y-59190952D01*
X51395238Y-59143333D01*
X51204761Y-59143333D01*
X51109523Y-59190952D01*
X51061904Y-59238571D01*
X51014285Y-59333809D01*
%TO.C,K7*%
X50061904Y-78812380D02*
X50061904Y-77812380D01*
X50633333Y-78812380D02*
X50204761Y-78240952D01*
X50633333Y-77812380D02*
X50061904Y-78383809D01*
X50966666Y-77812380D02*
X51633333Y-77812380D01*
X51204761Y-78812380D01*
%TO.C,K8*%
X69111904Y-21662380D02*
X69111904Y-20662380D01*
X69683333Y-21662380D02*
X69254761Y-21090952D01*
X69683333Y-20662380D02*
X69111904Y-21233809D01*
X70254761Y-21090952D02*
X70159523Y-21043333D01*
X70111904Y-20995714D01*
X70064285Y-20900476D01*
X70064285Y-20852857D01*
X70111904Y-20757619D01*
X70159523Y-20710000D01*
X70254761Y-20662380D01*
X70445238Y-20662380D01*
X70540476Y-20710000D01*
X70588095Y-20757619D01*
X70635714Y-20852857D01*
X70635714Y-20900476D01*
X70588095Y-20995714D01*
X70540476Y-21043333D01*
X70445238Y-21090952D01*
X70254761Y-21090952D01*
X70159523Y-21138571D01*
X70111904Y-21186190D01*
X70064285Y-21281428D01*
X70064285Y-21471904D01*
X70111904Y-21567142D01*
X70159523Y-21614761D01*
X70254761Y-21662380D01*
X70445238Y-21662380D01*
X70540476Y-21614761D01*
X70588095Y-21567142D01*
X70635714Y-21471904D01*
X70635714Y-21281428D01*
X70588095Y-21186190D01*
X70540476Y-21138571D01*
X70445238Y-21090952D01*
%TO.C,K9*%
X69186905Y-40712380D02*
X69186905Y-39712380D01*
X69758334Y-40712380D02*
X69329762Y-40140952D01*
X69758334Y-39712380D02*
X69186905Y-40283809D01*
X70234524Y-40712380D02*
X70425001Y-40712380D01*
X70520239Y-40664761D01*
X70567858Y-40617142D01*
X70663096Y-40474285D01*
X70710715Y-40283809D01*
X70710715Y-39902857D01*
X70663096Y-39807619D01*
X70615477Y-39760000D01*
X70520239Y-39712380D01*
X70329762Y-39712380D01*
X70234524Y-39760000D01*
X70186905Y-39807619D01*
X70139286Y-39902857D01*
X70139286Y-40140952D01*
X70186905Y-40236190D01*
X70234524Y-40283809D01*
X70329762Y-40331428D01*
X70520239Y-40331428D01*
X70615477Y-40283809D01*
X70663096Y-40236190D01*
X70710715Y-40140952D01*
%TO.C,K10*%
X68635714Y-59762380D02*
X68635714Y-58762380D01*
X69207142Y-59762380D02*
X68778571Y-59190952D01*
X69207142Y-58762380D02*
X68635714Y-59333809D01*
X70159523Y-59762380D02*
X69588095Y-59762380D01*
X69873809Y-59762380D02*
X69873809Y-58762380D01*
X69778571Y-58905238D01*
X69683333Y-59000476D01*
X69588095Y-59048095D01*
X70778571Y-58762380D02*
X70873809Y-58762380D01*
X70969047Y-58810000D01*
X71016666Y-58857619D01*
X71064285Y-58952857D01*
X71111904Y-59143333D01*
X71111904Y-59381428D01*
X71064285Y-59571904D01*
X71016666Y-59667142D01*
X70969047Y-59714761D01*
X70873809Y-59762380D01*
X70778571Y-59762380D01*
X70683333Y-59714761D01*
X70635714Y-59667142D01*
X70588095Y-59571904D01*
X70540476Y-59381428D01*
X70540476Y-59143333D01*
X70588095Y-58952857D01*
X70635714Y-58857619D01*
X70683333Y-58810000D01*
X70778571Y-58762380D01*
%TO.C,K11*%
X68635714Y-78812380D02*
X68635714Y-77812380D01*
X69207142Y-78812380D02*
X68778571Y-78240952D01*
X69207142Y-77812380D02*
X68635714Y-78383809D01*
X70159523Y-78812380D02*
X69588095Y-78812380D01*
X69873809Y-78812380D02*
X69873809Y-77812380D01*
X69778571Y-77955238D01*
X69683333Y-78050476D01*
X69588095Y-78098095D01*
X71111904Y-78812380D02*
X70540476Y-78812380D01*
X70826190Y-78812380D02*
X70826190Y-77812380D01*
X70730952Y-77955238D01*
X70635714Y-78050476D01*
X70540476Y-78098095D01*
%TO.C,K12*%
X87685714Y-21662380D02*
X87685714Y-20662380D01*
X88257142Y-21662380D02*
X87828571Y-21090952D01*
X88257142Y-20662380D02*
X87685714Y-21233809D01*
X89209523Y-21662380D02*
X88638095Y-21662380D01*
X88923809Y-21662380D02*
X88923809Y-20662380D01*
X88828571Y-20805238D01*
X88733333Y-20900476D01*
X88638095Y-20948095D01*
X89590476Y-20757619D02*
X89638095Y-20710000D01*
X89733333Y-20662380D01*
X89971428Y-20662380D01*
X90066666Y-20710000D01*
X90114285Y-20757619D01*
X90161904Y-20852857D01*
X90161904Y-20948095D01*
X90114285Y-21090952D01*
X89542857Y-21662380D01*
X90161904Y-21662380D01*
%TO.C,K13*%
X87685714Y-40712380D02*
X87685714Y-39712380D01*
X88257142Y-40712380D02*
X87828571Y-40140952D01*
X88257142Y-39712380D02*
X87685714Y-40283809D01*
X89209523Y-40712380D02*
X88638095Y-40712380D01*
X88923809Y-40712380D02*
X88923809Y-39712380D01*
X88828571Y-39855238D01*
X88733333Y-39950476D01*
X88638095Y-39998095D01*
X89542857Y-39712380D02*
X90161904Y-39712380D01*
X89828571Y-40093333D01*
X89971428Y-40093333D01*
X90066666Y-40140952D01*
X90114285Y-40188571D01*
X90161904Y-40283809D01*
X90161904Y-40521904D01*
X90114285Y-40617142D01*
X90066666Y-40664761D01*
X89971428Y-40712380D01*
X89685714Y-40712380D01*
X89590476Y-40664761D01*
X89542857Y-40617142D01*
%TO.C,K14*%
X87685714Y-59762380D02*
X87685714Y-58762380D01*
X88257142Y-59762380D02*
X87828571Y-59190952D01*
X88257142Y-58762380D02*
X87685714Y-59333809D01*
X89209523Y-59762380D02*
X88638095Y-59762380D01*
X88923809Y-59762380D02*
X88923809Y-58762380D01*
X88828571Y-58905238D01*
X88733333Y-59000476D01*
X88638095Y-59048095D01*
X90066666Y-59095714D02*
X90066666Y-59762380D01*
X89828571Y-58714761D02*
X89590476Y-59429047D01*
X90209523Y-59429047D01*
%TO.C,K15*%
X87685714Y-78812380D02*
X87685714Y-77812380D01*
X88257142Y-78812380D02*
X87828571Y-78240952D01*
X88257142Y-77812380D02*
X87685714Y-78383809D01*
X89209523Y-78812380D02*
X88638095Y-78812380D01*
X88923809Y-78812380D02*
X88923809Y-77812380D01*
X88828571Y-77955238D01*
X88733333Y-78050476D01*
X88638095Y-78098095D01*
X90114285Y-77812380D02*
X89638095Y-77812380D01*
X89590476Y-78288571D01*
X89638095Y-78240952D01*
X89733333Y-78193333D01*
X89971428Y-78193333D01*
X90066666Y-78240952D01*
X90114285Y-78288571D01*
X90161904Y-78383809D01*
X90161904Y-78621904D01*
X90114285Y-78717142D01*
X90066666Y-78764761D01*
X89971428Y-78812380D01*
X89733333Y-78812380D01*
X89638095Y-78764761D01*
X89590476Y-78717142D01*
%TO.C,H3*%
X20238095Y-95752380D02*
X20238095Y-94752380D01*
X20238095Y-95228571D02*
X20809523Y-95228571D01*
X20809523Y-95752380D02*
X20809523Y-94752380D01*
X21190476Y-94752380D02*
X21809523Y-94752380D01*
X21476190Y-95133333D01*
X21619047Y-95133333D01*
X21714285Y-95180952D01*
X21761904Y-95228571D01*
X21809523Y-95323809D01*
X21809523Y-95561904D01*
X21761904Y-95657142D01*
X21714285Y-95704761D01*
X21619047Y-95752380D01*
X21333333Y-95752380D01*
X21238095Y-95704761D01*
X21190476Y-95657142D01*
%TO.C,J1*%
X47341666Y-98512380D02*
X47341666Y-99226666D01*
X47294047Y-99369523D01*
X47198809Y-99464761D01*
X47055952Y-99512380D01*
X46960714Y-99512380D01*
X48341666Y-99512380D02*
X47770238Y-99512380D01*
X48055952Y-99512380D02*
X48055952Y-98512380D01*
X47960714Y-98655238D01*
X47865476Y-98750476D01*
X47770238Y-98798095D01*
%TO.C,H1*%
X20238095Y-17752380D02*
X20238095Y-16752380D01*
X20238095Y-17228571D02*
X20809523Y-17228571D01*
X20809523Y-17752380D02*
X20809523Y-16752380D01*
X21809523Y-17752380D02*
X21238095Y-17752380D01*
X21523809Y-17752380D02*
X21523809Y-16752380D01*
X21428571Y-16895238D01*
X21333333Y-16990476D01*
X21238095Y-17038095D01*
%TO.C,H4*%
X98238095Y-95752380D02*
X98238095Y-94752380D01*
X98238095Y-95228571D02*
X98809523Y-95228571D01*
X98809523Y-95752380D02*
X98809523Y-94752380D01*
X99714285Y-95085714D02*
X99714285Y-95752380D01*
X99476190Y-94704761D02*
X99238095Y-95419047D01*
X99857142Y-95419047D01*
%TO.C,H2*%
X98238095Y-17752380D02*
X98238095Y-16752380D01*
X98238095Y-17228571D02*
X98809523Y-17228571D01*
X98809523Y-17752380D02*
X98809523Y-16752380D01*
X99238095Y-16847619D02*
X99285714Y-16800000D01*
X99380952Y-16752380D01*
X99619047Y-16752380D01*
X99714285Y-16800000D01*
X99761904Y-16847619D01*
X99809523Y-16942857D01*
X99809523Y-17038095D01*
X99761904Y-17180952D01*
X99190476Y-17752380D01*
X99809523Y-17752380D01*
D11*
%TO.C,K0*%
X24650000Y-36310000D02*
X38850000Y-36310000D01*
X38850000Y-36310000D02*
X38850000Y-22110000D01*
X38850000Y-22110000D02*
X24650000Y-22110000D01*
X24650000Y-22110000D02*
X24650000Y-36310000D01*
%TO.C,K1*%
X24650000Y-41160000D02*
X24650000Y-55360000D01*
X24650000Y-55360000D02*
X38850000Y-55360000D01*
X38850000Y-55360000D02*
X38850000Y-41160000D01*
X38850000Y-41160000D02*
X24650000Y-41160000D01*
%TO.C,K2*%
X24650000Y-74410000D02*
X38850000Y-74410000D01*
X38850000Y-74410000D02*
X38850000Y-60210000D01*
X38850000Y-60210000D02*
X24650000Y-60210000D01*
X24650000Y-60210000D02*
X24650000Y-74410000D01*
%TO.C,K3*%
X24650000Y-79260000D02*
X24650000Y-93460000D01*
X38850000Y-79260000D02*
X24650000Y-79260000D01*
X38850000Y-93460000D02*
X38850000Y-79260000D01*
X24650000Y-93460000D02*
X38850000Y-93460000D01*
%TO.C,K4*%
X57900000Y-36310000D02*
X57900000Y-22110000D01*
X43700000Y-22110000D02*
X43700000Y-36310000D01*
X43700000Y-36310000D02*
X57900000Y-36310000D01*
X57900000Y-22110000D02*
X43700000Y-22110000D01*
%TO.C,K5*%
X43700000Y-55360000D02*
X57900000Y-55360000D01*
X43700000Y-41160000D02*
X43700000Y-55360000D01*
X57900000Y-41160000D02*
X43700000Y-41160000D01*
X57900000Y-55360000D02*
X57900000Y-41160000D01*
%TO.C,K6*%
X43700000Y-74410000D02*
X57900000Y-74410000D01*
X57900000Y-60210000D02*
X43700000Y-60210000D01*
X57900000Y-74410000D02*
X57900000Y-60210000D01*
X43700000Y-60210000D02*
X43700000Y-74410000D01*
%TO.C,K7*%
X43700000Y-93460000D02*
X57900000Y-93460000D01*
X43700000Y-79260000D02*
X43700000Y-93460000D01*
X57900000Y-93460000D02*
X57900000Y-79260000D01*
X57900000Y-79260000D02*
X43700000Y-79260000D01*
%TO.C,K8*%
X62750000Y-36310000D02*
X76950000Y-36310000D01*
X62750000Y-22110000D02*
X62750000Y-36310000D01*
X76950000Y-36310000D02*
X76950000Y-22110000D01*
X76950000Y-22110000D02*
X62750000Y-22110000D01*
%TO.C,K9*%
X77025001Y-41160000D02*
X62825001Y-41160000D01*
X62825001Y-55360000D02*
X77025001Y-55360000D01*
X77025001Y-55360000D02*
X77025001Y-41160000D01*
X62825001Y-41160000D02*
X62825001Y-55360000D01*
%TO.C,K10*%
X76950000Y-60210000D02*
X62750000Y-60210000D01*
X62750000Y-74410000D02*
X76950000Y-74410000D01*
X62750000Y-60210000D02*
X62750000Y-74410000D01*
X76950000Y-74410000D02*
X76950000Y-60210000D01*
%TO.C,K11*%
X62750000Y-79260000D02*
X62750000Y-93460000D01*
X76950000Y-79260000D02*
X62750000Y-79260000D01*
X62750000Y-93460000D02*
X76950000Y-93460000D01*
X76950000Y-93460000D02*
X76950000Y-79260000D01*
%TO.C,K12*%
X81800000Y-22110000D02*
X81800000Y-36310000D01*
X81800000Y-36310000D02*
X96000000Y-36310000D01*
X96000000Y-36310000D02*
X96000000Y-22110000D01*
X96000000Y-22110000D02*
X81800000Y-22110000D01*
%TO.C,K13*%
X96000000Y-55360000D02*
X96000000Y-41160000D01*
X81800000Y-41160000D02*
X81800000Y-55360000D01*
X81800000Y-55360000D02*
X96000000Y-55360000D01*
X96000000Y-41160000D02*
X81800000Y-41160000D01*
%TO.C,K14*%
X96000000Y-74410000D02*
X96000000Y-60210000D01*
X81800000Y-74410000D02*
X96000000Y-74410000D01*
X96000000Y-60210000D02*
X81800000Y-60210000D01*
X81800000Y-60210000D02*
X81800000Y-74410000D01*
%TO.C,K15*%
X96000000Y-79260000D02*
X81800000Y-79260000D01*
X81800000Y-79260000D02*
X81800000Y-93460000D01*
X96000000Y-93460000D02*
X96000000Y-79260000D01*
X81800000Y-93460000D02*
X96000000Y-93460000D01*
%TO.C,J1*%
X52070000Y-100390000D02*
X52070000Y-97730000D01*
X49470000Y-100390000D02*
X49470000Y-99060000D01*
X52070000Y-97730000D02*
X69910000Y-97730000D01*
X69910000Y-100390000D02*
X69910000Y-97730000D01*
X52070000Y-100390000D02*
X69910000Y-100390000D01*
X50800000Y-100390000D02*
X49470000Y-100390000D01*
%TD*%
M02*
