%TF.GenerationSoftware,KiCad,Pcbnew,(6.0.7-1)-1*%
%TF.CreationDate,2022-09-13T12:36:23-04:00*%
%TF.ProjectId,KBT1,4b425431-2e6b-4696-9361-645f70636258,rev?*%
%TF.SameCoordinates,Original*%
%TF.FileFunction,Copper,L2,Bot*%
%TF.FilePolarity,Positive*%
%FSLAX46Y46*%
G04 Gerber Fmt 4.6, Leading zero omitted, Abs format (unit mm)*
G04 Created by KiCad (PCBNEW (6.0.7-1)-1) date 2022-09-13 12:36:23*
%MOMM*%
%LPD*%
G01*
G04 APERTURE LIST*
G04 Aperture macros list*
%AMRoundRect*
0 Rectangle with rounded corners*
0 $1 Rounding radius*
0 $2 $3 $4 $5 $6 $7 $8 $9 X,Y pos of 4 corners*
0 Add a 4 corners polygon primitive as box body*
4,1,4,$2,$3,$4,$5,$6,$7,$8,$9,$2,$3,0*
0 Add four circle primitives for the rounded corners*
1,1,$1+$1,$2,$3*
1,1,$1+$1,$4,$5*
1,1,$1+$1,$6,$7*
1,1,$1+$1,$8,$9*
0 Add four rect primitives between the rounded corners*
20,1,$1+$1,$2,$3,$4,$5,0*
20,1,$1+$1,$4,$5,$6,$7,0*
20,1,$1+$1,$6,$7,$8,$9,0*
20,1,$1+$1,$8,$9,$2,$3,0*%
G04 Aperture macros list end*
%TA.AperFunction,ComponentPad*%
%ADD10C,3.600000*%
%TD*%
%TA.AperFunction,SMDPad,CuDef*%
%ADD11RoundRect,0.250000X-1.525000X-1.000000X1.525000X-1.000000X1.525000X1.000000X-1.525000X1.000000X0*%
%TD*%
%TA.AperFunction,ComponentPad*%
%ADD12R,1.700000X1.700000*%
%TD*%
%TA.AperFunction,ComponentPad*%
%ADD13O,1.700000X1.700000*%
%TD*%
%TA.AperFunction,ComponentPad*%
%ADD14R,1.600000X1.600000*%
%TD*%
%TA.AperFunction,ComponentPad*%
%ADD15O,1.600000X1.600000*%
%TD*%
%TA.AperFunction,Conductor*%
%ADD16C,0.250000*%
%TD*%
G04 APERTURE END LIST*
D10*
%TO.P,K0,1*%
%TO.N,/col0*%
X27940000Y-26670000D03*
D11*
X25165000Y-26670000D03*
D10*
%TO.P,K0,2*%
%TO.N,Net-(D1-Pad2)*%
X34290000Y-24130000D03*
D11*
X37070000Y-24130000D03*
%TD*%
D10*
%TO.P,K1,1*%
%TO.N,/col0*%
X27940000Y-45720000D03*
D11*
X25165000Y-45720000D03*
%TO.P,K1,2*%
%TO.N,Net-(D2-Pad2)*%
X37070000Y-43180000D03*
D10*
X34290000Y-43180000D03*
%TD*%
%TO.P,K2,1*%
%TO.N,/col0*%
X27940000Y-64770000D03*
D11*
X25165000Y-64770000D03*
%TO.P,K2,2*%
%TO.N,Net-(D3-Pad2)*%
X37070000Y-62230000D03*
D10*
X34290000Y-62230000D03*
%TD*%
D11*
%TO.P,K3,1*%
%TO.N,/col0*%
X25165000Y-83820000D03*
D10*
X27940000Y-83820000D03*
D11*
%TO.P,K3,2*%
%TO.N,Net-(D4-Pad2)*%
X37070000Y-81280000D03*
D10*
X34290000Y-81280000D03*
%TD*%
%TO.P,K4,1*%
%TO.N,/col1*%
X46990000Y-26670000D03*
D11*
X44215000Y-26670000D03*
D10*
%TO.P,K4,2*%
%TO.N,Net-(D5-Pad2)*%
X53340000Y-24130000D03*
D11*
X56120000Y-24130000D03*
%TD*%
D10*
%TO.P,K5,1*%
%TO.N,/col1*%
X46990000Y-45720000D03*
D11*
X44215000Y-45720000D03*
D10*
%TO.P,K5,2*%
%TO.N,Net-(D6-Pad2)*%
X53340000Y-43180000D03*
D11*
X56120000Y-43180000D03*
%TD*%
%TO.P,K6,1*%
%TO.N,/col1*%
X44215000Y-64770000D03*
D10*
X46990000Y-64770000D03*
%TO.P,K6,2*%
%TO.N,Net-(D7-Pad2)*%
X53340000Y-62230000D03*
D11*
X56120000Y-62230000D03*
%TD*%
D10*
%TO.P,K7,1*%
%TO.N,/col1*%
X46990000Y-83820000D03*
D11*
X44215000Y-83820000D03*
%TO.P,K7,2*%
%TO.N,Net-(D8-Pad2)*%
X56120000Y-81280000D03*
D10*
X53340000Y-81280000D03*
%TD*%
D11*
%TO.P,K8,1*%
%TO.N,/col2*%
X63265000Y-26670000D03*
D10*
X66040000Y-26670000D03*
%TO.P,K8,2*%
%TO.N,Net-(D9-Pad2)*%
X72390000Y-24130000D03*
D11*
X75170000Y-24130000D03*
%TD*%
%TO.P,K9,1*%
%TO.N,/col2*%
X63340001Y-45720000D03*
D10*
X66115001Y-45720000D03*
D11*
%TO.P,K9,2*%
%TO.N,Net-(D10-Pad2)*%
X75245001Y-43180000D03*
D10*
X72465001Y-43180000D03*
%TD*%
%TO.P,K10,1*%
%TO.N,/col2*%
X66040000Y-64770000D03*
D11*
X63265000Y-64770000D03*
%TO.P,K10,2*%
%TO.N,Net-(D11-Pad2)*%
X75170000Y-62230000D03*
D10*
X72390000Y-62230000D03*
%TD*%
D11*
%TO.P,K11,1*%
%TO.N,/col2*%
X63265000Y-83820000D03*
D10*
X66040000Y-83820000D03*
D11*
%TO.P,K11,2*%
%TO.N,Net-(D12-Pad2)*%
X75170000Y-81280000D03*
D10*
X72390000Y-81280000D03*
%TD*%
D11*
%TO.P,K12,1*%
%TO.N,/col3*%
X82315000Y-26670000D03*
D10*
X85090000Y-26670000D03*
D11*
%TO.P,K12,2*%
%TO.N,Net-(D13-Pad2)*%
X94220000Y-24130000D03*
D10*
X91440000Y-24130000D03*
%TD*%
D11*
%TO.P,K13,1*%
%TO.N,/col3*%
X82315000Y-45720000D03*
D10*
X85090000Y-45720000D03*
%TO.P,K13,2*%
%TO.N,Net-(D14-Pad2)*%
X91440000Y-43180000D03*
D11*
X94220000Y-43180000D03*
%TD*%
D10*
%TO.P,K14,1*%
%TO.N,/col3*%
X85090000Y-64770000D03*
D11*
X82315000Y-64770000D03*
D10*
%TO.P,K14,2*%
%TO.N,Net-(D15-Pad2)*%
X91440000Y-62230000D03*
D11*
X94220000Y-62230000D03*
%TD*%
D10*
%TO.P,K15,1*%
%TO.N,/col3*%
X85090000Y-83820000D03*
D11*
X82315000Y-83820000D03*
D10*
%TO.P,K15,2*%
%TO.N,Net-(D16-Pad2)*%
X91440000Y-81280000D03*
D11*
X94220000Y-81280000D03*
%TD*%
D12*
%TO.P,J1,1,Pin_1*%
%TO.N,/col0*%
X50800000Y-99060000D03*
D13*
%TO.P,J1,2,Pin_2*%
%TO.N,/col1*%
X53340000Y-99060000D03*
%TO.P,J1,3,Pin_3*%
%TO.N,/col2*%
X55880000Y-99060000D03*
%TO.P,J1,4,Pin_4*%
%TO.N,/col3*%
X58420000Y-99060000D03*
%TO.P,J1,5,Pin_5*%
%TO.N,/row0*%
X60960000Y-99060000D03*
%TO.P,J1,6,Pin_6*%
%TO.N,/row1*%
X63500000Y-99060000D03*
%TO.P,J1,7,Pin_7*%
%TO.N,/row2*%
X66040000Y-99060000D03*
%TO.P,J1,8,Pin_8*%
%TO.N,/row3*%
X68580000Y-99060000D03*
%TD*%
D14*
%TO.P,D1,1,K*%
%TO.N,/row0*%
X29718000Y-34544000D03*
D15*
%TO.P,D1,2,A*%
%TO.N,Net-(D1-Pad2)*%
X37338000Y-34544000D03*
%TD*%
D14*
%TO.P,D2,1,K*%
%TO.N,/row1*%
X29718000Y-53594000D03*
D15*
%TO.P,D2,2,A*%
%TO.N,Net-(D2-Pad2)*%
X37338000Y-53594000D03*
%TD*%
D14*
%TO.P,D3,1,K*%
%TO.N,/row2*%
X29718000Y-72644000D03*
D15*
%TO.P,D3,2,A*%
%TO.N,Net-(D3-Pad2)*%
X37338000Y-72644000D03*
%TD*%
D14*
%TO.P,D4,1,K*%
%TO.N,/row3*%
X29718000Y-91694000D03*
D15*
%TO.P,D4,2,A*%
%TO.N,Net-(D4-Pad2)*%
X37338000Y-91694000D03*
%TD*%
D14*
%TO.P,D5,1,K*%
%TO.N,/row0*%
X48768000Y-34544000D03*
D15*
%TO.P,D5,2,A*%
%TO.N,Net-(D5-Pad2)*%
X56388000Y-34544000D03*
%TD*%
D14*
%TO.P,D6,1,K*%
%TO.N,/row1*%
X48768000Y-53594000D03*
D15*
%TO.P,D6,2,A*%
%TO.N,Net-(D6-Pad2)*%
X56388000Y-53594000D03*
%TD*%
D14*
%TO.P,D7,1,K*%
%TO.N,/row2*%
X48768000Y-72644000D03*
D15*
%TO.P,D7,2,A*%
%TO.N,Net-(D7-Pad2)*%
X56388000Y-72644000D03*
%TD*%
D14*
%TO.P,D8,1,K*%
%TO.N,/row3*%
X48768000Y-91694000D03*
D15*
%TO.P,D8,2,A*%
%TO.N,Net-(D8-Pad2)*%
X56388000Y-91694000D03*
%TD*%
D14*
%TO.P,D9,1,K*%
%TO.N,/row0*%
X67818000Y-34544000D03*
D15*
%TO.P,D9,2,A*%
%TO.N,Net-(D9-Pad2)*%
X75438000Y-34544000D03*
%TD*%
D14*
%TO.P,D10,1,K*%
%TO.N,/row1*%
X67818000Y-53594000D03*
D15*
%TO.P,D10,2,A*%
%TO.N,Net-(D10-Pad2)*%
X75438000Y-53594000D03*
%TD*%
D14*
%TO.P,D11,1,K*%
%TO.N,/row2*%
X67818000Y-72644000D03*
D15*
%TO.P,D11,2,A*%
%TO.N,Net-(D11-Pad2)*%
X75438000Y-72644000D03*
%TD*%
D14*
%TO.P,D12,1,K*%
%TO.N,/row3*%
X67818000Y-91694000D03*
D15*
%TO.P,D12,2,A*%
%TO.N,Net-(D12-Pad2)*%
X75438000Y-91694000D03*
%TD*%
D14*
%TO.P,D13,1,K*%
%TO.N,/row0*%
X86868000Y-34544000D03*
D15*
%TO.P,D13,2,A*%
%TO.N,Net-(D13-Pad2)*%
X94488000Y-34544000D03*
%TD*%
D14*
%TO.P,D14,1,K*%
%TO.N,/row1*%
X86868000Y-53594000D03*
D15*
%TO.P,D14,2,A*%
%TO.N,Net-(D14-Pad2)*%
X94488000Y-53594000D03*
%TD*%
D14*
%TO.P,D15,1,K*%
%TO.N,/row2*%
X86868000Y-72644000D03*
D15*
%TO.P,D15,2,A*%
%TO.N,Net-(D15-Pad2)*%
X94488000Y-72644000D03*
%TD*%
D14*
%TO.P,D16,1,K*%
%TO.N,/row3*%
X86868000Y-91694000D03*
D15*
%TO.P,D16,2,A*%
%TO.N,Net-(D16-Pad2)*%
X94488000Y-91694000D03*
%TD*%
D16*
%TO.N,Net-(D1-Pad2)*%
X37338000Y-34544000D02*
X34290000Y-31496000D01*
X34290000Y-31496000D02*
X34290000Y-24130000D01*
%TO.N,/row0*%
X67818000Y-34544000D02*
X67818000Y-38608000D01*
X33782000Y-38608000D02*
X48768000Y-38608000D01*
X60960000Y-99060000D02*
X63384000Y-101484000D01*
X90796792Y-101484000D02*
X98436000Y-93844792D01*
X67818000Y-38608000D02*
X86868000Y-38608000D01*
X29718000Y-34544000D02*
X33782000Y-38608000D01*
X63384000Y-101484000D02*
X90796792Y-101484000D01*
X86868000Y-34544000D02*
X86868000Y-38608000D01*
X98436000Y-93844792D02*
X98436000Y-43064000D01*
X48768000Y-34544000D02*
X48768000Y-38608000D01*
X93980000Y-38608000D02*
X86868000Y-38608000D01*
X48768000Y-38608000D02*
X67818000Y-38608000D01*
X98436000Y-43064000D02*
X93980000Y-38608000D01*
%TO.N,Net-(D2-Pad2)*%
X34290000Y-50546000D02*
X37338000Y-53594000D01*
X34290000Y-43180000D02*
X34290000Y-50546000D01*
%TO.N,/row1*%
X97986000Y-62426000D02*
X92710000Y-57150000D01*
X48768000Y-53594000D02*
X48768000Y-57150000D01*
X97986000Y-93658396D02*
X97986000Y-62426000D01*
X92710000Y-57150000D02*
X86868000Y-57150000D01*
X65474000Y-101034000D02*
X90610396Y-101034000D01*
X34290000Y-57150000D02*
X48768000Y-57150000D01*
X67818000Y-53594000D02*
X67818000Y-57150000D01*
X67818000Y-57150000D02*
X86868000Y-57150000D01*
X48768000Y-57150000D02*
X67818000Y-57150000D01*
X86868000Y-53594000D02*
X86868000Y-57150000D01*
X29718000Y-53594000D02*
X33274000Y-57150000D01*
X90610396Y-101034000D02*
X97986000Y-93658396D01*
X63500000Y-99060000D02*
X65474000Y-101034000D01*
X33274000Y-57150000D02*
X34290000Y-57150000D01*
%TO.N,Net-(D3-Pad2)*%
X37338000Y-72644000D02*
X34290000Y-69596000D01*
X34290000Y-69596000D02*
X34290000Y-62230000D01*
%TO.N,/row2*%
X67564000Y-100584000D02*
X90424000Y-100584000D01*
X48768000Y-72644000D02*
X48768000Y-76454000D01*
X86868000Y-76454000D02*
X94234000Y-76454000D01*
X86868000Y-72644000D02*
X86868000Y-76454000D01*
X29718000Y-72644000D02*
X33528000Y-76454000D01*
X33528000Y-76454000D02*
X48768000Y-76454000D01*
X97536000Y-93472000D02*
X97536000Y-79756000D01*
X66040000Y-99060000D02*
X67564000Y-100584000D01*
X48768000Y-76454000D02*
X57150000Y-76454000D01*
X67818000Y-72644000D02*
X67818000Y-76454000D01*
X97536000Y-79756000D02*
X94234000Y-76454000D01*
X67818000Y-76454000D02*
X86868000Y-76454000D01*
X90424000Y-100584000D02*
X97536000Y-93472000D01*
X57150000Y-76454000D02*
X67818000Y-76454000D01*
%TO.N,Net-(D4-Pad2)*%
X34290000Y-81280000D02*
X34290000Y-88646000D01*
X34290000Y-88646000D02*
X37338000Y-91694000D01*
%TO.N,/row3*%
X86868000Y-91694000D02*
X83058000Y-95504000D01*
X67818000Y-95504000D02*
X48768000Y-95504000D01*
X48768000Y-95504000D02*
X33528000Y-95504000D01*
X48768000Y-91694000D02*
X48768000Y-95504000D01*
X67818000Y-91694000D02*
X67818000Y-95504000D01*
X68580000Y-95504000D02*
X67818000Y-95504000D01*
X68580000Y-99060000D02*
X68580000Y-95504000D01*
X83058000Y-95504000D02*
X68580000Y-95504000D01*
X33528000Y-95504000D02*
X29718000Y-91694000D01*
%TO.N,Net-(D5-Pad2)*%
X53340000Y-31496000D02*
X53340000Y-24130000D01*
X56388000Y-34544000D02*
X53340000Y-31496000D01*
%TO.N,Net-(D6-Pad2)*%
X53340000Y-50546000D02*
X56388000Y-53594000D01*
X53340000Y-43180000D02*
X53340000Y-50546000D01*
%TO.N,Net-(D7-Pad2)*%
X53340000Y-62230000D02*
X53340000Y-69596000D01*
X53340000Y-69596000D02*
X56388000Y-72644000D01*
%TO.N,Net-(D8-Pad2)*%
X53340000Y-81280000D02*
X53340000Y-88646000D01*
X53340000Y-88646000D02*
X56388000Y-91694000D01*
%TO.N,Net-(D9-Pad2)*%
X75438000Y-34544000D02*
X72390000Y-31496000D01*
X72390000Y-31496000D02*
X72390000Y-24130000D01*
%TO.N,Net-(D10-Pad2)*%
X72465001Y-43180000D02*
X72465001Y-50621001D01*
X72465001Y-50621001D02*
X75438000Y-53594000D01*
%TO.N,Net-(D11-Pad2)*%
X72390000Y-62230000D02*
X72390000Y-69596000D01*
X72390000Y-69596000D02*
X75438000Y-72644000D01*
%TO.N,Net-(D12-Pad2)*%
X72390000Y-88646000D02*
X75438000Y-91694000D01*
X72390000Y-81280000D02*
X72390000Y-88646000D01*
%TO.N,Net-(D13-Pad2)*%
X91440000Y-31496000D02*
X91440000Y-24130000D01*
X94488000Y-34544000D02*
X91440000Y-31496000D01*
%TO.N,Net-(D14-Pad2)*%
X91440000Y-43180000D02*
X91440000Y-50546000D01*
X91440000Y-50546000D02*
X94488000Y-53594000D01*
%TO.N,Net-(D15-Pad2)*%
X91440000Y-62230000D02*
X91440000Y-69596000D01*
X91440000Y-69596000D02*
X94488000Y-72644000D01*
%TO.N,Net-(D16-Pad2)*%
X91440000Y-88646000D02*
X94488000Y-91694000D01*
X91440000Y-81280000D02*
X91440000Y-88646000D01*
%TD*%
M02*
