%TF.GenerationSoftware,KiCad,Pcbnew,(6.0.7-1)-1*%
%TF.CreationDate,2022-09-13T12:36:23-04:00*%
%TF.ProjectId,KBT1,4b425431-2e6b-4696-9361-645f70636258,rev?*%
%TF.SameCoordinates,Original*%
%TF.FileFunction,Legend,Bot*%
%TF.FilePolarity,Positive*%
%FSLAX46Y46*%
G04 Gerber Fmt 4.6, Leading zero omitted, Abs format (unit mm)*
G04 Created by KiCad (PCBNEW (6.0.7-1)-1) date 2022-09-13 12:36:23*
%MOMM*%
%LPD*%
G01*
G04 APERTURE LIST*
%ADD10C,0.150000*%
%ADD11C,0.120000*%
G04 APERTURE END LIST*
D10*
%TO.C,D1*%
X34266095Y-37116380D02*
X34266095Y-36116380D01*
X34028000Y-36116380D01*
X33885142Y-36164000D01*
X33789904Y-36259238D01*
X33742285Y-36354476D01*
X33694666Y-36544952D01*
X33694666Y-36687809D01*
X33742285Y-36878285D01*
X33789904Y-36973523D01*
X33885142Y-37068761D01*
X34028000Y-37116380D01*
X34266095Y-37116380D01*
X32742285Y-37116380D02*
X33313714Y-37116380D01*
X33028000Y-37116380D02*
X33028000Y-36116380D01*
X33123238Y-36259238D01*
X33218476Y-36354476D01*
X33313714Y-36402095D01*
X29979904Y-36796380D02*
X29979904Y-35796380D01*
X29408476Y-36796380D02*
X29837047Y-36224952D01*
X29408476Y-35796380D02*
X29979904Y-36367809D01*
%TO.C,D2*%
X34266095Y-56166380D02*
X34266095Y-55166380D01*
X34028000Y-55166380D01*
X33885142Y-55214000D01*
X33789904Y-55309238D01*
X33742285Y-55404476D01*
X33694666Y-55594952D01*
X33694666Y-55737809D01*
X33742285Y-55928285D01*
X33789904Y-56023523D01*
X33885142Y-56118761D01*
X34028000Y-56166380D01*
X34266095Y-56166380D01*
X33313714Y-55261619D02*
X33266095Y-55214000D01*
X33170857Y-55166380D01*
X32932761Y-55166380D01*
X32837523Y-55214000D01*
X32789904Y-55261619D01*
X32742285Y-55356857D01*
X32742285Y-55452095D01*
X32789904Y-55594952D01*
X33361333Y-56166380D01*
X32742285Y-56166380D01*
X29979904Y-55846380D02*
X29979904Y-54846380D01*
X29408476Y-55846380D02*
X29837047Y-55274952D01*
X29408476Y-54846380D02*
X29979904Y-55417809D01*
%TO.C,D3*%
X34266095Y-75216380D02*
X34266095Y-74216380D01*
X34028000Y-74216380D01*
X33885142Y-74264000D01*
X33789904Y-74359238D01*
X33742285Y-74454476D01*
X33694666Y-74644952D01*
X33694666Y-74787809D01*
X33742285Y-74978285D01*
X33789904Y-75073523D01*
X33885142Y-75168761D01*
X34028000Y-75216380D01*
X34266095Y-75216380D01*
X33361333Y-74216380D02*
X32742285Y-74216380D01*
X33075619Y-74597333D01*
X32932761Y-74597333D01*
X32837523Y-74644952D01*
X32789904Y-74692571D01*
X32742285Y-74787809D01*
X32742285Y-75025904D01*
X32789904Y-75121142D01*
X32837523Y-75168761D01*
X32932761Y-75216380D01*
X33218476Y-75216380D01*
X33313714Y-75168761D01*
X33361333Y-75121142D01*
X29979904Y-74896380D02*
X29979904Y-73896380D01*
X29408476Y-74896380D02*
X29837047Y-74324952D01*
X29408476Y-73896380D02*
X29979904Y-74467809D01*
%TO.C,D4*%
X34266095Y-94266380D02*
X34266095Y-93266380D01*
X34028000Y-93266380D01*
X33885142Y-93314000D01*
X33789904Y-93409238D01*
X33742285Y-93504476D01*
X33694666Y-93694952D01*
X33694666Y-93837809D01*
X33742285Y-94028285D01*
X33789904Y-94123523D01*
X33885142Y-94218761D01*
X34028000Y-94266380D01*
X34266095Y-94266380D01*
X32837523Y-93599714D02*
X32837523Y-94266380D01*
X33075619Y-93218761D02*
X33313714Y-93933047D01*
X32694666Y-93933047D01*
X29979904Y-93946380D02*
X29979904Y-92946380D01*
X29408476Y-93946380D02*
X29837047Y-93374952D01*
X29408476Y-92946380D02*
X29979904Y-93517809D01*
%TO.C,D5*%
X53316095Y-37116380D02*
X53316095Y-36116380D01*
X53078000Y-36116380D01*
X52935142Y-36164000D01*
X52839904Y-36259238D01*
X52792285Y-36354476D01*
X52744666Y-36544952D01*
X52744666Y-36687809D01*
X52792285Y-36878285D01*
X52839904Y-36973523D01*
X52935142Y-37068761D01*
X53078000Y-37116380D01*
X53316095Y-37116380D01*
X51839904Y-36116380D02*
X52316095Y-36116380D01*
X52363714Y-36592571D01*
X52316095Y-36544952D01*
X52220857Y-36497333D01*
X51982761Y-36497333D01*
X51887523Y-36544952D01*
X51839904Y-36592571D01*
X51792285Y-36687809D01*
X51792285Y-36925904D01*
X51839904Y-37021142D01*
X51887523Y-37068761D01*
X51982761Y-37116380D01*
X52220857Y-37116380D01*
X52316095Y-37068761D01*
X52363714Y-37021142D01*
X49029904Y-36796380D02*
X49029904Y-35796380D01*
X48458476Y-36796380D02*
X48887047Y-36224952D01*
X48458476Y-35796380D02*
X49029904Y-36367809D01*
%TO.C,D6*%
X53316095Y-56166380D02*
X53316095Y-55166380D01*
X53078000Y-55166380D01*
X52935142Y-55214000D01*
X52839904Y-55309238D01*
X52792285Y-55404476D01*
X52744666Y-55594952D01*
X52744666Y-55737809D01*
X52792285Y-55928285D01*
X52839904Y-56023523D01*
X52935142Y-56118761D01*
X53078000Y-56166380D01*
X53316095Y-56166380D01*
X51887523Y-55166380D02*
X52078000Y-55166380D01*
X52173238Y-55214000D01*
X52220857Y-55261619D01*
X52316095Y-55404476D01*
X52363714Y-55594952D01*
X52363714Y-55975904D01*
X52316095Y-56071142D01*
X52268476Y-56118761D01*
X52173238Y-56166380D01*
X51982761Y-56166380D01*
X51887523Y-56118761D01*
X51839904Y-56071142D01*
X51792285Y-55975904D01*
X51792285Y-55737809D01*
X51839904Y-55642571D01*
X51887523Y-55594952D01*
X51982761Y-55547333D01*
X52173238Y-55547333D01*
X52268476Y-55594952D01*
X52316095Y-55642571D01*
X52363714Y-55737809D01*
X49029904Y-55846380D02*
X49029904Y-54846380D01*
X48458476Y-55846380D02*
X48887047Y-55274952D01*
X48458476Y-54846380D02*
X49029904Y-55417809D01*
%TO.C,D7*%
X53316095Y-75216380D02*
X53316095Y-74216380D01*
X53078000Y-74216380D01*
X52935142Y-74264000D01*
X52839904Y-74359238D01*
X52792285Y-74454476D01*
X52744666Y-74644952D01*
X52744666Y-74787809D01*
X52792285Y-74978285D01*
X52839904Y-75073523D01*
X52935142Y-75168761D01*
X53078000Y-75216380D01*
X53316095Y-75216380D01*
X52411333Y-74216380D02*
X51744666Y-74216380D01*
X52173238Y-75216380D01*
X49029904Y-74896380D02*
X49029904Y-73896380D01*
X48458476Y-74896380D02*
X48887047Y-74324952D01*
X48458476Y-73896380D02*
X49029904Y-74467809D01*
%TO.C,D8*%
X53316095Y-94266380D02*
X53316095Y-93266380D01*
X53078000Y-93266380D01*
X52935142Y-93314000D01*
X52839904Y-93409238D01*
X52792285Y-93504476D01*
X52744666Y-93694952D01*
X52744666Y-93837809D01*
X52792285Y-94028285D01*
X52839904Y-94123523D01*
X52935142Y-94218761D01*
X53078000Y-94266380D01*
X53316095Y-94266380D01*
X52173238Y-93694952D02*
X52268476Y-93647333D01*
X52316095Y-93599714D01*
X52363714Y-93504476D01*
X52363714Y-93456857D01*
X52316095Y-93361619D01*
X52268476Y-93314000D01*
X52173238Y-93266380D01*
X51982761Y-93266380D01*
X51887523Y-93314000D01*
X51839904Y-93361619D01*
X51792285Y-93456857D01*
X51792285Y-93504476D01*
X51839904Y-93599714D01*
X51887523Y-93647333D01*
X51982761Y-93694952D01*
X52173238Y-93694952D01*
X52268476Y-93742571D01*
X52316095Y-93790190D01*
X52363714Y-93885428D01*
X52363714Y-94075904D01*
X52316095Y-94171142D01*
X52268476Y-94218761D01*
X52173238Y-94266380D01*
X51982761Y-94266380D01*
X51887523Y-94218761D01*
X51839904Y-94171142D01*
X51792285Y-94075904D01*
X51792285Y-93885428D01*
X51839904Y-93790190D01*
X51887523Y-93742571D01*
X51982761Y-93694952D01*
X49029904Y-93946380D02*
X49029904Y-92946380D01*
X48458476Y-93946380D02*
X48887047Y-93374952D01*
X48458476Y-92946380D02*
X49029904Y-93517809D01*
%TO.C,D9*%
X72366095Y-37116380D02*
X72366095Y-36116380D01*
X72128000Y-36116380D01*
X71985142Y-36164000D01*
X71889904Y-36259238D01*
X71842285Y-36354476D01*
X71794666Y-36544952D01*
X71794666Y-36687809D01*
X71842285Y-36878285D01*
X71889904Y-36973523D01*
X71985142Y-37068761D01*
X72128000Y-37116380D01*
X72366095Y-37116380D01*
X71318476Y-37116380D02*
X71128000Y-37116380D01*
X71032761Y-37068761D01*
X70985142Y-37021142D01*
X70889904Y-36878285D01*
X70842285Y-36687809D01*
X70842285Y-36306857D01*
X70889904Y-36211619D01*
X70937523Y-36164000D01*
X71032761Y-36116380D01*
X71223238Y-36116380D01*
X71318476Y-36164000D01*
X71366095Y-36211619D01*
X71413714Y-36306857D01*
X71413714Y-36544952D01*
X71366095Y-36640190D01*
X71318476Y-36687809D01*
X71223238Y-36735428D01*
X71032761Y-36735428D01*
X70937523Y-36687809D01*
X70889904Y-36640190D01*
X70842285Y-36544952D01*
X68079904Y-36796380D02*
X68079904Y-35796380D01*
X67508476Y-36796380D02*
X67937047Y-36224952D01*
X67508476Y-35796380D02*
X68079904Y-36367809D01*
%TO.C,D10*%
X72842285Y-56166380D02*
X72842285Y-55166380D01*
X72604190Y-55166380D01*
X72461333Y-55214000D01*
X72366095Y-55309238D01*
X72318476Y-55404476D01*
X72270857Y-55594952D01*
X72270857Y-55737809D01*
X72318476Y-55928285D01*
X72366095Y-56023523D01*
X72461333Y-56118761D01*
X72604190Y-56166380D01*
X72842285Y-56166380D01*
X71318476Y-56166380D02*
X71889904Y-56166380D01*
X71604190Y-56166380D02*
X71604190Y-55166380D01*
X71699428Y-55309238D01*
X71794666Y-55404476D01*
X71889904Y-55452095D01*
X70699428Y-55166380D02*
X70604190Y-55166380D01*
X70508952Y-55214000D01*
X70461333Y-55261619D01*
X70413714Y-55356857D01*
X70366095Y-55547333D01*
X70366095Y-55785428D01*
X70413714Y-55975904D01*
X70461333Y-56071142D01*
X70508952Y-56118761D01*
X70604190Y-56166380D01*
X70699428Y-56166380D01*
X70794666Y-56118761D01*
X70842285Y-56071142D01*
X70889904Y-55975904D01*
X70937523Y-55785428D01*
X70937523Y-55547333D01*
X70889904Y-55356857D01*
X70842285Y-55261619D01*
X70794666Y-55214000D01*
X70699428Y-55166380D01*
X68079904Y-55846380D02*
X68079904Y-54846380D01*
X67508476Y-55846380D02*
X67937047Y-55274952D01*
X67508476Y-54846380D02*
X68079904Y-55417809D01*
%TO.C,D11*%
X72842285Y-75216380D02*
X72842285Y-74216380D01*
X72604190Y-74216380D01*
X72461333Y-74264000D01*
X72366095Y-74359238D01*
X72318476Y-74454476D01*
X72270857Y-74644952D01*
X72270857Y-74787809D01*
X72318476Y-74978285D01*
X72366095Y-75073523D01*
X72461333Y-75168761D01*
X72604190Y-75216380D01*
X72842285Y-75216380D01*
X71318476Y-75216380D02*
X71889904Y-75216380D01*
X71604190Y-75216380D02*
X71604190Y-74216380D01*
X71699428Y-74359238D01*
X71794666Y-74454476D01*
X71889904Y-74502095D01*
X70366095Y-75216380D02*
X70937523Y-75216380D01*
X70651809Y-75216380D02*
X70651809Y-74216380D01*
X70747047Y-74359238D01*
X70842285Y-74454476D01*
X70937523Y-74502095D01*
X68079904Y-74896380D02*
X68079904Y-73896380D01*
X67508476Y-74896380D02*
X67937047Y-74324952D01*
X67508476Y-73896380D02*
X68079904Y-74467809D01*
%TO.C,D12*%
X72842285Y-94266380D02*
X72842285Y-93266380D01*
X72604190Y-93266380D01*
X72461333Y-93314000D01*
X72366095Y-93409238D01*
X72318476Y-93504476D01*
X72270857Y-93694952D01*
X72270857Y-93837809D01*
X72318476Y-94028285D01*
X72366095Y-94123523D01*
X72461333Y-94218761D01*
X72604190Y-94266380D01*
X72842285Y-94266380D01*
X71318476Y-94266380D02*
X71889904Y-94266380D01*
X71604190Y-94266380D02*
X71604190Y-93266380D01*
X71699428Y-93409238D01*
X71794666Y-93504476D01*
X71889904Y-93552095D01*
X70937523Y-93361619D02*
X70889904Y-93314000D01*
X70794666Y-93266380D01*
X70556571Y-93266380D01*
X70461333Y-93314000D01*
X70413714Y-93361619D01*
X70366095Y-93456857D01*
X70366095Y-93552095D01*
X70413714Y-93694952D01*
X70985142Y-94266380D01*
X70366095Y-94266380D01*
X68079904Y-93946380D02*
X68079904Y-92946380D01*
X67508476Y-93946380D02*
X67937047Y-93374952D01*
X67508476Y-92946380D02*
X68079904Y-93517809D01*
%TO.C,D13*%
X91892285Y-37116380D02*
X91892285Y-36116380D01*
X91654190Y-36116380D01*
X91511333Y-36164000D01*
X91416095Y-36259238D01*
X91368476Y-36354476D01*
X91320857Y-36544952D01*
X91320857Y-36687809D01*
X91368476Y-36878285D01*
X91416095Y-36973523D01*
X91511333Y-37068761D01*
X91654190Y-37116380D01*
X91892285Y-37116380D01*
X90368476Y-37116380D02*
X90939904Y-37116380D01*
X90654190Y-37116380D02*
X90654190Y-36116380D01*
X90749428Y-36259238D01*
X90844666Y-36354476D01*
X90939904Y-36402095D01*
X90035142Y-36116380D02*
X89416095Y-36116380D01*
X89749428Y-36497333D01*
X89606571Y-36497333D01*
X89511333Y-36544952D01*
X89463714Y-36592571D01*
X89416095Y-36687809D01*
X89416095Y-36925904D01*
X89463714Y-37021142D01*
X89511333Y-37068761D01*
X89606571Y-37116380D01*
X89892285Y-37116380D01*
X89987523Y-37068761D01*
X90035142Y-37021142D01*
X87129904Y-36796380D02*
X87129904Y-35796380D01*
X86558476Y-36796380D02*
X86987047Y-36224952D01*
X86558476Y-35796380D02*
X87129904Y-36367809D01*
%TO.C,D14*%
X91892285Y-56166380D02*
X91892285Y-55166380D01*
X91654190Y-55166380D01*
X91511333Y-55214000D01*
X91416095Y-55309238D01*
X91368476Y-55404476D01*
X91320857Y-55594952D01*
X91320857Y-55737809D01*
X91368476Y-55928285D01*
X91416095Y-56023523D01*
X91511333Y-56118761D01*
X91654190Y-56166380D01*
X91892285Y-56166380D01*
X90368476Y-56166380D02*
X90939904Y-56166380D01*
X90654190Y-56166380D02*
X90654190Y-55166380D01*
X90749428Y-55309238D01*
X90844666Y-55404476D01*
X90939904Y-55452095D01*
X89511333Y-55499714D02*
X89511333Y-56166380D01*
X89749428Y-55118761D02*
X89987523Y-55833047D01*
X89368476Y-55833047D01*
X87129904Y-55846380D02*
X87129904Y-54846380D01*
X86558476Y-55846380D02*
X86987047Y-55274952D01*
X86558476Y-54846380D02*
X87129904Y-55417809D01*
%TO.C,D15*%
X91892285Y-75216380D02*
X91892285Y-74216380D01*
X91654190Y-74216380D01*
X91511333Y-74264000D01*
X91416095Y-74359238D01*
X91368476Y-74454476D01*
X91320857Y-74644952D01*
X91320857Y-74787809D01*
X91368476Y-74978285D01*
X91416095Y-75073523D01*
X91511333Y-75168761D01*
X91654190Y-75216380D01*
X91892285Y-75216380D01*
X90368476Y-75216380D02*
X90939904Y-75216380D01*
X90654190Y-75216380D02*
X90654190Y-74216380D01*
X90749428Y-74359238D01*
X90844666Y-74454476D01*
X90939904Y-74502095D01*
X89463714Y-74216380D02*
X89939904Y-74216380D01*
X89987523Y-74692571D01*
X89939904Y-74644952D01*
X89844666Y-74597333D01*
X89606571Y-74597333D01*
X89511333Y-74644952D01*
X89463714Y-74692571D01*
X89416095Y-74787809D01*
X89416095Y-75025904D01*
X89463714Y-75121142D01*
X89511333Y-75168761D01*
X89606571Y-75216380D01*
X89844666Y-75216380D01*
X89939904Y-75168761D01*
X89987523Y-75121142D01*
X87129904Y-74896380D02*
X87129904Y-73896380D01*
X86558476Y-74896380D02*
X86987047Y-74324952D01*
X86558476Y-73896380D02*
X87129904Y-74467809D01*
%TO.C,D16*%
X91892285Y-94266380D02*
X91892285Y-93266380D01*
X91654190Y-93266380D01*
X91511333Y-93314000D01*
X91416095Y-93409238D01*
X91368476Y-93504476D01*
X91320857Y-93694952D01*
X91320857Y-93837809D01*
X91368476Y-94028285D01*
X91416095Y-94123523D01*
X91511333Y-94218761D01*
X91654190Y-94266380D01*
X91892285Y-94266380D01*
X90368476Y-94266380D02*
X90939904Y-94266380D01*
X90654190Y-94266380D02*
X90654190Y-93266380D01*
X90749428Y-93409238D01*
X90844666Y-93504476D01*
X90939904Y-93552095D01*
X89511333Y-93266380D02*
X89701809Y-93266380D01*
X89797047Y-93314000D01*
X89844666Y-93361619D01*
X89939904Y-93504476D01*
X89987523Y-93694952D01*
X89987523Y-94075904D01*
X89939904Y-94171142D01*
X89892285Y-94218761D01*
X89797047Y-94266380D01*
X89606571Y-94266380D01*
X89511333Y-94218761D01*
X89463714Y-94171142D01*
X89416095Y-94075904D01*
X89416095Y-93837809D01*
X89463714Y-93742571D01*
X89511333Y-93694952D01*
X89606571Y-93647333D01*
X89797047Y-93647333D01*
X89892285Y-93694952D01*
X89939904Y-93742571D01*
X89987523Y-93837809D01*
X87129904Y-93946380D02*
X87129904Y-92946380D01*
X86558476Y-93946380D02*
X86987047Y-93374952D01*
X86558476Y-92946380D02*
X87129904Y-93517809D01*
D11*
%TO.C,K0*%
X31550000Y-26510000D02*
X36650000Y-26510000D01*
X27650000Y-22310000D02*
X32750000Y-22310000D01*
X27650000Y-22310000D02*
G75*
G03*
X25650000Y-24310000I-1J-1999999D01*
G01*
X31550000Y-26510000D02*
G75*
G03*
X29550000Y-28510000I-1J-1999999D01*
G01*
%TO.C,K1*%
X31550000Y-45560000D02*
X36650000Y-45560000D01*
X27650000Y-41360000D02*
X32750000Y-41360000D01*
X27650000Y-41360000D02*
G75*
G03*
X25650000Y-43360000I-1J-1999999D01*
G01*
X31550000Y-45560000D02*
G75*
G03*
X29550000Y-47560000I-1J-1999999D01*
G01*
%TO.C,K2*%
X27650000Y-60410000D02*
X32750000Y-60410000D01*
X31550000Y-64610000D02*
X36650000Y-64610000D01*
X31550000Y-64610000D02*
G75*
G03*
X29550000Y-66610000I-1J-1999999D01*
G01*
X27650000Y-60410000D02*
G75*
G03*
X25650000Y-62410000I-1J-1999999D01*
G01*
%TO.C,K3*%
X31550000Y-83660000D02*
X36650000Y-83660000D01*
X27650000Y-79460000D02*
X32750000Y-79460000D01*
X27650000Y-79460000D02*
G75*
G03*
X25650000Y-81460000I-1J-1999999D01*
G01*
X31550000Y-83660000D02*
G75*
G03*
X29550000Y-85660000I-1J-1999999D01*
G01*
%TO.C,K4*%
X50600000Y-26510000D02*
X55700000Y-26510000D01*
X46700000Y-22310000D02*
X51800000Y-22310000D01*
X46700000Y-22310000D02*
G75*
G03*
X44700000Y-24310000I-1J-1999999D01*
G01*
X50600000Y-26510000D02*
G75*
G03*
X48600000Y-28510000I-1J-1999999D01*
G01*
%TO.C,K5*%
X50600000Y-45560000D02*
X55700000Y-45560000D01*
X46700000Y-41360000D02*
X51800000Y-41360000D01*
X46700000Y-41360000D02*
G75*
G03*
X44700000Y-43360000I-1J-1999999D01*
G01*
X50600000Y-45560000D02*
G75*
G03*
X48600000Y-47560000I-1J-1999999D01*
G01*
%TO.C,K6*%
X50600000Y-64610000D02*
X55700000Y-64610000D01*
X46700000Y-60410000D02*
X51800000Y-60410000D01*
X46700000Y-60410000D02*
G75*
G03*
X44700000Y-62410000I-1J-1999999D01*
G01*
X50600000Y-64610000D02*
G75*
G03*
X48600000Y-66610000I-1J-1999999D01*
G01*
%TO.C,K7*%
X46700000Y-79460000D02*
X51800000Y-79460000D01*
X50600000Y-83660000D02*
X55700000Y-83660000D01*
X50600000Y-83660000D02*
G75*
G03*
X48600000Y-85660000I-1J-1999999D01*
G01*
X46700000Y-79460000D02*
G75*
G03*
X44700000Y-81460000I-1J-1999999D01*
G01*
%TO.C,K8*%
X69650000Y-26510000D02*
X74750000Y-26510000D01*
X65750000Y-22310000D02*
X70850000Y-22310000D01*
X65750000Y-22310000D02*
G75*
G03*
X63750000Y-24310000I-1J-1999999D01*
G01*
X69650000Y-26510000D02*
G75*
G03*
X67650000Y-28510000I-1J-1999999D01*
G01*
%TO.C,K9*%
X69725001Y-45560000D02*
X74825001Y-45560000D01*
X65825001Y-41360000D02*
X70925001Y-41360000D01*
X69725001Y-45560000D02*
G75*
G03*
X67725001Y-47560000I-1J-1999999D01*
G01*
X65825001Y-41360000D02*
G75*
G03*
X63825001Y-43360000I-1J-1999999D01*
G01*
%TO.C,K10*%
X65750000Y-60410000D02*
X70850000Y-60410000D01*
X69650000Y-64610000D02*
X74750000Y-64610000D01*
X69650000Y-64610000D02*
G75*
G03*
X67650000Y-66610000I-1J-1999999D01*
G01*
X65750000Y-60410000D02*
G75*
G03*
X63750000Y-62410000I-1J-1999999D01*
G01*
%TO.C,K11*%
X65750000Y-79460000D02*
X70850000Y-79460000D01*
X69650000Y-83660000D02*
X74750000Y-83660000D01*
X69650000Y-83660000D02*
G75*
G03*
X67650000Y-85660000I-1J-1999999D01*
G01*
X65750000Y-79460000D02*
G75*
G03*
X63750000Y-81460000I-1J-1999999D01*
G01*
%TO.C,K12*%
X84800000Y-22310000D02*
X89900000Y-22310000D01*
X88700000Y-26510000D02*
X93800000Y-26510000D01*
X88700000Y-26510000D02*
G75*
G03*
X86700000Y-28510000I-1J-1999999D01*
G01*
X84800000Y-22310000D02*
G75*
G03*
X82800000Y-24310000I-1J-1999999D01*
G01*
%TO.C,K13*%
X84800000Y-41360000D02*
X89900000Y-41360000D01*
X88700000Y-45560000D02*
X93800000Y-45560000D01*
X88700000Y-45560000D02*
G75*
G03*
X86700000Y-47560000I-1J-1999999D01*
G01*
X84800000Y-41360000D02*
G75*
G03*
X82800000Y-43360000I-1J-1999999D01*
G01*
%TO.C,K14*%
X88700000Y-64610000D02*
X93800000Y-64610000D01*
X84800000Y-60410000D02*
X89900000Y-60410000D01*
X88700000Y-64610000D02*
G75*
G03*
X86700000Y-66610000I-1J-1999999D01*
G01*
X84800000Y-60410000D02*
G75*
G03*
X82800000Y-62410000I-1J-1999999D01*
G01*
%TO.C,K15*%
X84800000Y-79460000D02*
X89900000Y-79460000D01*
X88700000Y-83660000D02*
X93800000Y-83660000D01*
X88700000Y-83660000D02*
G75*
G03*
X86700000Y-85660000I-1J-1999999D01*
G01*
X84800000Y-79460000D02*
G75*
G03*
X82800000Y-81460000I-1J-1999999D01*
G01*
%TO.C,D1*%
X31408000Y-35664000D02*
X31408000Y-33424000D01*
X31408000Y-33424000D02*
X35648000Y-33424000D01*
X32128000Y-35664000D02*
X32128000Y-33424000D01*
X32248000Y-35664000D02*
X32248000Y-33424000D01*
X35648000Y-35664000D02*
X31408000Y-35664000D01*
X35648000Y-33424000D02*
X35648000Y-35664000D01*
X36298000Y-34544000D02*
X35648000Y-34544000D01*
X30758000Y-34544000D02*
X31408000Y-34544000D01*
X32008000Y-35664000D02*
X32008000Y-33424000D01*
%TO.C,D2*%
X32128000Y-54714000D02*
X32128000Y-52474000D01*
X35648000Y-52474000D02*
X35648000Y-54714000D01*
X31408000Y-52474000D02*
X35648000Y-52474000D01*
X32008000Y-54714000D02*
X32008000Y-52474000D01*
X32248000Y-54714000D02*
X32248000Y-52474000D01*
X35648000Y-54714000D02*
X31408000Y-54714000D01*
X36298000Y-53594000D02*
X35648000Y-53594000D01*
X30758000Y-53594000D02*
X31408000Y-53594000D01*
X31408000Y-54714000D02*
X31408000Y-52474000D01*
%TO.C,D3*%
X35648000Y-73764000D02*
X31408000Y-73764000D01*
X31408000Y-73764000D02*
X31408000Y-71524000D01*
X32248000Y-73764000D02*
X32248000Y-71524000D01*
X35648000Y-71524000D02*
X35648000Y-73764000D01*
X31408000Y-71524000D02*
X35648000Y-71524000D01*
X32128000Y-73764000D02*
X32128000Y-71524000D01*
X36298000Y-72644000D02*
X35648000Y-72644000D01*
X32008000Y-73764000D02*
X32008000Y-71524000D01*
X30758000Y-72644000D02*
X31408000Y-72644000D01*
%TO.C,D4*%
X30758000Y-91694000D02*
X31408000Y-91694000D01*
X32008000Y-92814000D02*
X32008000Y-90574000D01*
X36298000Y-91694000D02*
X35648000Y-91694000D01*
X35648000Y-92814000D02*
X31408000Y-92814000D01*
X32128000Y-92814000D02*
X32128000Y-90574000D01*
X31408000Y-90574000D02*
X35648000Y-90574000D01*
X31408000Y-92814000D02*
X31408000Y-90574000D01*
X32248000Y-92814000D02*
X32248000Y-90574000D01*
X35648000Y-90574000D02*
X35648000Y-92814000D01*
%TO.C,D5*%
X54698000Y-35664000D02*
X50458000Y-35664000D01*
X50458000Y-35664000D02*
X50458000Y-33424000D01*
X49808000Y-34544000D02*
X50458000Y-34544000D01*
X50458000Y-33424000D02*
X54698000Y-33424000D01*
X51178000Y-35664000D02*
X51178000Y-33424000D01*
X51298000Y-35664000D02*
X51298000Y-33424000D01*
X51058000Y-35664000D02*
X51058000Y-33424000D01*
X55348000Y-34544000D02*
X54698000Y-34544000D01*
X54698000Y-33424000D02*
X54698000Y-35664000D01*
%TO.C,D6*%
X51058000Y-54714000D02*
X51058000Y-52474000D01*
X50458000Y-52474000D02*
X54698000Y-52474000D01*
X51298000Y-54714000D02*
X51298000Y-52474000D01*
X54698000Y-52474000D02*
X54698000Y-54714000D01*
X51178000Y-54714000D02*
X51178000Y-52474000D01*
X49808000Y-53594000D02*
X50458000Y-53594000D01*
X54698000Y-54714000D02*
X50458000Y-54714000D01*
X55348000Y-53594000D02*
X54698000Y-53594000D01*
X50458000Y-54714000D02*
X50458000Y-52474000D01*
%TO.C,D7*%
X54698000Y-71524000D02*
X54698000Y-73764000D01*
X54698000Y-73764000D02*
X50458000Y-73764000D01*
X51298000Y-73764000D02*
X51298000Y-71524000D01*
X50458000Y-71524000D02*
X54698000Y-71524000D01*
X51178000Y-73764000D02*
X51178000Y-71524000D01*
X50458000Y-73764000D02*
X50458000Y-71524000D01*
X51058000Y-73764000D02*
X51058000Y-71524000D01*
X55348000Y-72644000D02*
X54698000Y-72644000D01*
X49808000Y-72644000D02*
X50458000Y-72644000D01*
%TO.C,D8*%
X49808000Y-91694000D02*
X50458000Y-91694000D01*
X50458000Y-90574000D02*
X54698000Y-90574000D01*
X55348000Y-91694000D02*
X54698000Y-91694000D01*
X51058000Y-92814000D02*
X51058000Y-90574000D01*
X51298000Y-92814000D02*
X51298000Y-90574000D01*
X51178000Y-92814000D02*
X51178000Y-90574000D01*
X54698000Y-90574000D02*
X54698000Y-92814000D01*
X54698000Y-92814000D02*
X50458000Y-92814000D01*
X50458000Y-92814000D02*
X50458000Y-90574000D01*
%TO.C,D9*%
X73748000Y-35664000D02*
X69508000Y-35664000D01*
X74398000Y-34544000D02*
X73748000Y-34544000D01*
X70348000Y-35664000D02*
X70348000Y-33424000D01*
X73748000Y-33424000D02*
X73748000Y-35664000D01*
X69508000Y-33424000D02*
X73748000Y-33424000D01*
X70108000Y-35664000D02*
X70108000Y-33424000D01*
X70228000Y-35664000D02*
X70228000Y-33424000D01*
X69508000Y-35664000D02*
X69508000Y-33424000D01*
X68858000Y-34544000D02*
X69508000Y-34544000D01*
%TO.C,D10*%
X73748000Y-52474000D02*
X73748000Y-54714000D01*
X70348000Y-54714000D02*
X70348000Y-52474000D01*
X70228000Y-54714000D02*
X70228000Y-52474000D01*
X69508000Y-52474000D02*
X73748000Y-52474000D01*
X70108000Y-54714000D02*
X70108000Y-52474000D01*
X73748000Y-54714000D02*
X69508000Y-54714000D01*
X74398000Y-53594000D02*
X73748000Y-53594000D01*
X69508000Y-54714000D02*
X69508000Y-52474000D01*
X68858000Y-53594000D02*
X69508000Y-53594000D01*
%TO.C,D11*%
X73748000Y-71524000D02*
X73748000Y-73764000D01*
X69508000Y-71524000D02*
X73748000Y-71524000D01*
X70228000Y-73764000D02*
X70228000Y-71524000D01*
X73748000Y-73764000D02*
X69508000Y-73764000D01*
X74398000Y-72644000D02*
X73748000Y-72644000D01*
X68858000Y-72644000D02*
X69508000Y-72644000D01*
X70108000Y-73764000D02*
X70108000Y-71524000D01*
X70348000Y-73764000D02*
X70348000Y-71524000D01*
X69508000Y-73764000D02*
X69508000Y-71524000D01*
%TO.C,D12*%
X73748000Y-92814000D02*
X69508000Y-92814000D01*
X70228000Y-92814000D02*
X70228000Y-90574000D01*
X74398000Y-91694000D02*
X73748000Y-91694000D01*
X70108000Y-92814000D02*
X70108000Y-90574000D01*
X69508000Y-92814000D02*
X69508000Y-90574000D01*
X70348000Y-92814000D02*
X70348000Y-90574000D01*
X73748000Y-90574000D02*
X73748000Y-92814000D01*
X68858000Y-91694000D02*
X69508000Y-91694000D01*
X69508000Y-90574000D02*
X73748000Y-90574000D01*
%TO.C,D13*%
X87908000Y-34544000D02*
X88558000Y-34544000D01*
X92798000Y-35664000D02*
X88558000Y-35664000D01*
X92798000Y-33424000D02*
X92798000Y-35664000D01*
X89158000Y-35664000D02*
X89158000Y-33424000D01*
X88558000Y-33424000D02*
X92798000Y-33424000D01*
X88558000Y-35664000D02*
X88558000Y-33424000D01*
X89278000Y-35664000D02*
X89278000Y-33424000D01*
X93448000Y-34544000D02*
X92798000Y-34544000D01*
X89398000Y-35664000D02*
X89398000Y-33424000D01*
%TO.C,D14*%
X92798000Y-54714000D02*
X88558000Y-54714000D01*
X89398000Y-54714000D02*
X89398000Y-52474000D01*
X88558000Y-52474000D02*
X92798000Y-52474000D01*
X88558000Y-54714000D02*
X88558000Y-52474000D01*
X92798000Y-52474000D02*
X92798000Y-54714000D01*
X87908000Y-53594000D02*
X88558000Y-53594000D01*
X89158000Y-54714000D02*
X89158000Y-52474000D01*
X93448000Y-53594000D02*
X92798000Y-53594000D01*
X89278000Y-54714000D02*
X89278000Y-52474000D01*
%TO.C,D15*%
X89278000Y-73764000D02*
X89278000Y-71524000D01*
X88558000Y-71524000D02*
X92798000Y-71524000D01*
X92798000Y-71524000D02*
X92798000Y-73764000D01*
X92798000Y-73764000D02*
X88558000Y-73764000D01*
X89398000Y-73764000D02*
X89398000Y-71524000D01*
X88558000Y-73764000D02*
X88558000Y-71524000D01*
X93448000Y-72644000D02*
X92798000Y-72644000D01*
X89158000Y-73764000D02*
X89158000Y-71524000D01*
X87908000Y-72644000D02*
X88558000Y-72644000D01*
%TO.C,D16*%
X89278000Y-92814000D02*
X89278000Y-90574000D01*
X88558000Y-90574000D02*
X92798000Y-90574000D01*
X88558000Y-92814000D02*
X88558000Y-90574000D01*
X92798000Y-92814000D02*
X88558000Y-92814000D01*
X89398000Y-92814000D02*
X89398000Y-90574000D01*
X93448000Y-91694000D02*
X92798000Y-91694000D01*
X92798000Y-90574000D02*
X92798000Y-92814000D01*
X89158000Y-92814000D02*
X89158000Y-90574000D01*
X87908000Y-91694000D02*
X88558000Y-91694000D01*
%TD*%
M02*
