%TF.GenerationSoftware,KiCad,Pcbnew,(6.0.7-1)-1*%
%TF.CreationDate,2022-09-13T12:36:23-04:00*%
%TF.ProjectId,KBT1,4b425431-2e6b-4696-9361-645f70636258,rev?*%
%TF.SameCoordinates,Original*%
%TF.FileFunction,Copper,L1,Top*%
%TF.FilePolarity,Positive*%
%FSLAX46Y46*%
G04 Gerber Fmt 4.6, Leading zero omitted, Abs format (unit mm)*
G04 Created by KiCad (PCBNEW (6.0.7-1)-1) date 2022-09-13 12:36:23*
%MOMM*%
%LPD*%
G01*
G04 APERTURE LIST*
%TA.AperFunction,ComponentPad*%
%ADD10C,3.600000*%
%TD*%
%TA.AperFunction,ComponentPad*%
%ADD11R,1.700000X1.700000*%
%TD*%
%TA.AperFunction,ComponentPad*%
%ADD12O,1.700000X1.700000*%
%TD*%
%TA.AperFunction,ComponentPad*%
%ADD13R,1.600000X1.600000*%
%TD*%
%TA.AperFunction,ComponentPad*%
%ADD14O,1.600000X1.600000*%
%TD*%
%TA.AperFunction,Conductor*%
%ADD15C,0.250000*%
%TD*%
G04 APERTURE END LIST*
D10*
%TO.P,K0,1*%
%TO.N,/col0*%
X27940000Y-26670000D03*
%TO.P,K0,2*%
%TO.N,Net-(D1-Pad2)*%
X34290000Y-24130000D03*
%TD*%
%TO.P,K1,1*%
%TO.N,/col0*%
X27940000Y-45720000D03*
%TO.P,K1,2*%
%TO.N,Net-(D2-Pad2)*%
X34290000Y-43180000D03*
%TD*%
%TO.P,K2,1*%
%TO.N,/col0*%
X27940000Y-64770000D03*
%TO.P,K2,2*%
%TO.N,Net-(D3-Pad2)*%
X34290000Y-62230000D03*
%TD*%
%TO.P,K3,1*%
%TO.N,/col0*%
X27940000Y-83820000D03*
%TO.P,K3,2*%
%TO.N,Net-(D4-Pad2)*%
X34290000Y-81280000D03*
%TD*%
%TO.P,K4,1*%
%TO.N,/col1*%
X46990000Y-26670000D03*
%TO.P,K4,2*%
%TO.N,Net-(D5-Pad2)*%
X53340000Y-24130000D03*
%TD*%
%TO.P,K5,1*%
%TO.N,/col1*%
X46990000Y-45720000D03*
%TO.P,K5,2*%
%TO.N,Net-(D6-Pad2)*%
X53340000Y-43180000D03*
%TD*%
%TO.P,K6,1*%
%TO.N,/col1*%
X46990000Y-64770000D03*
%TO.P,K6,2*%
%TO.N,Net-(D7-Pad2)*%
X53340000Y-62230000D03*
%TD*%
%TO.P,K7,1*%
%TO.N,/col1*%
X46990000Y-83820000D03*
%TO.P,K7,2*%
%TO.N,Net-(D8-Pad2)*%
X53340000Y-81280000D03*
%TD*%
%TO.P,K8,1*%
%TO.N,/col2*%
X66040000Y-26670000D03*
%TO.P,K8,2*%
%TO.N,Net-(D9-Pad2)*%
X72390000Y-24130000D03*
%TD*%
%TO.P,K9,1*%
%TO.N,/col2*%
X66115001Y-45720000D03*
%TO.P,K9,2*%
%TO.N,Net-(D10-Pad2)*%
X72465001Y-43180000D03*
%TD*%
%TO.P,K10,1*%
%TO.N,/col2*%
X66040000Y-64770000D03*
%TO.P,K10,2*%
%TO.N,Net-(D11-Pad2)*%
X72390000Y-62230000D03*
%TD*%
%TO.P,K11,1*%
%TO.N,/col2*%
X66040000Y-83820000D03*
%TO.P,K11,2*%
%TO.N,Net-(D12-Pad2)*%
X72390000Y-81280000D03*
%TD*%
%TO.P,K12,1*%
%TO.N,/col3*%
X85090000Y-26670000D03*
%TO.P,K12,2*%
%TO.N,Net-(D13-Pad2)*%
X91440000Y-24130000D03*
%TD*%
%TO.P,K13,1*%
%TO.N,/col3*%
X85090000Y-45720000D03*
%TO.P,K13,2*%
%TO.N,Net-(D14-Pad2)*%
X91440000Y-43180000D03*
%TD*%
%TO.P,K14,1*%
%TO.N,/col3*%
X85090000Y-64770000D03*
%TO.P,K14,2*%
%TO.N,Net-(D15-Pad2)*%
X91440000Y-62230000D03*
%TD*%
%TO.P,K15,1*%
%TO.N,/col3*%
X85090000Y-83820000D03*
%TO.P,K15,2*%
%TO.N,Net-(D16-Pad2)*%
X91440000Y-81280000D03*
%TD*%
D11*
%TO.P,J1,1,Pin_1*%
%TO.N,/col0*%
X50800000Y-99060000D03*
D12*
%TO.P,J1,2,Pin_2*%
%TO.N,/col1*%
X53340000Y-99060000D03*
%TO.P,J1,3,Pin_3*%
%TO.N,/col2*%
X55880000Y-99060000D03*
%TO.P,J1,4,Pin_4*%
%TO.N,/col3*%
X58420000Y-99060000D03*
%TO.P,J1,5,Pin_5*%
%TO.N,/row0*%
X60960000Y-99060000D03*
%TO.P,J1,6,Pin_6*%
%TO.N,/row1*%
X63500000Y-99060000D03*
%TO.P,J1,7,Pin_7*%
%TO.N,/row2*%
X66040000Y-99060000D03*
%TO.P,J1,8,Pin_8*%
%TO.N,/row3*%
X68580000Y-99060000D03*
%TD*%
D13*
%TO.P,D1,1,K*%
%TO.N,/row0*%
X29718000Y-34544000D03*
D14*
%TO.P,D1,2,A*%
%TO.N,Net-(D1-Pad2)*%
X37338000Y-34544000D03*
%TD*%
D13*
%TO.P,D2,1,K*%
%TO.N,/row1*%
X29718000Y-53594000D03*
D14*
%TO.P,D2,2,A*%
%TO.N,Net-(D2-Pad2)*%
X37338000Y-53594000D03*
%TD*%
D13*
%TO.P,D3,1,K*%
%TO.N,/row2*%
X29718000Y-72644000D03*
D14*
%TO.P,D3,2,A*%
%TO.N,Net-(D3-Pad2)*%
X37338000Y-72644000D03*
%TD*%
D13*
%TO.P,D4,1,K*%
%TO.N,/row3*%
X29718000Y-91694000D03*
D14*
%TO.P,D4,2,A*%
%TO.N,Net-(D4-Pad2)*%
X37338000Y-91694000D03*
%TD*%
D13*
%TO.P,D5,1,K*%
%TO.N,/row0*%
X48768000Y-34544000D03*
D14*
%TO.P,D5,2,A*%
%TO.N,Net-(D5-Pad2)*%
X56388000Y-34544000D03*
%TD*%
D13*
%TO.P,D6,1,K*%
%TO.N,/row1*%
X48768000Y-53594000D03*
D14*
%TO.P,D6,2,A*%
%TO.N,Net-(D6-Pad2)*%
X56388000Y-53594000D03*
%TD*%
D13*
%TO.P,D7,1,K*%
%TO.N,/row2*%
X48768000Y-72644000D03*
D14*
%TO.P,D7,2,A*%
%TO.N,Net-(D7-Pad2)*%
X56388000Y-72644000D03*
%TD*%
D13*
%TO.P,D8,1,K*%
%TO.N,/row3*%
X48768000Y-91694000D03*
D14*
%TO.P,D8,2,A*%
%TO.N,Net-(D8-Pad2)*%
X56388000Y-91694000D03*
%TD*%
D13*
%TO.P,D9,1,K*%
%TO.N,/row0*%
X67818000Y-34544000D03*
D14*
%TO.P,D9,2,A*%
%TO.N,Net-(D9-Pad2)*%
X75438000Y-34544000D03*
%TD*%
D13*
%TO.P,D10,1,K*%
%TO.N,/row1*%
X67818000Y-53594000D03*
D14*
%TO.P,D10,2,A*%
%TO.N,Net-(D10-Pad2)*%
X75438000Y-53594000D03*
%TD*%
D13*
%TO.P,D11,1,K*%
%TO.N,/row2*%
X67818000Y-72644000D03*
D14*
%TO.P,D11,2,A*%
%TO.N,Net-(D11-Pad2)*%
X75438000Y-72644000D03*
%TD*%
D13*
%TO.P,D12,1,K*%
%TO.N,/row3*%
X67818000Y-91694000D03*
D14*
%TO.P,D12,2,A*%
%TO.N,Net-(D12-Pad2)*%
X75438000Y-91694000D03*
%TD*%
D13*
%TO.P,D13,1,K*%
%TO.N,/row0*%
X86868000Y-34544000D03*
D14*
%TO.P,D13,2,A*%
%TO.N,Net-(D13-Pad2)*%
X94488000Y-34544000D03*
%TD*%
D13*
%TO.P,D14,1,K*%
%TO.N,/row1*%
X86868000Y-53594000D03*
D14*
%TO.P,D14,2,A*%
%TO.N,Net-(D14-Pad2)*%
X94488000Y-53594000D03*
%TD*%
D13*
%TO.P,D15,1,K*%
%TO.N,/row2*%
X86868000Y-72644000D03*
D14*
%TO.P,D15,2,A*%
%TO.N,Net-(D15-Pad2)*%
X94488000Y-72644000D03*
%TD*%
D13*
%TO.P,D16,1,K*%
%TO.N,/row3*%
X86868000Y-91694000D03*
D14*
%TO.P,D16,2,A*%
%TO.N,Net-(D16-Pad2)*%
X94488000Y-91694000D03*
%TD*%
D15*
%TO.N,/col0*%
X50800000Y-99060000D02*
X32512000Y-99060000D01*
X27940000Y-94488000D02*
X27940000Y-83820000D01*
X32512000Y-99060000D02*
X27940000Y-94488000D01*
X27940000Y-64770000D02*
X27940000Y-83820000D01*
X27940000Y-45720000D02*
X27940000Y-64770000D01*
X27940000Y-26670000D02*
X27940000Y-45720000D01*
%TO.N,/col1*%
X46990000Y-92710000D02*
X53340000Y-99060000D01*
X46990000Y-45720000D02*
X46990000Y-64770000D01*
X46990000Y-83820000D02*
X46990000Y-92710000D01*
X46990000Y-64770000D02*
X46990000Y-83820000D01*
X46990000Y-26670000D02*
X46990000Y-45720000D01*
%TO.N,/col2*%
X66115001Y-45720000D02*
X66115001Y-64694999D01*
X66040000Y-26670000D02*
X66040000Y-45644999D01*
X66115001Y-64694999D02*
X66040000Y-64770000D01*
X66040000Y-83820000D02*
X66040000Y-88900000D01*
X66040000Y-45644999D02*
X66115001Y-45720000D01*
X66040000Y-88900000D02*
X55880000Y-99060000D01*
X66040000Y-64770000D02*
X66040000Y-83820000D01*
%TO.N,/col3*%
X73679999Y-86340001D02*
X71120000Y-88900000D01*
X85090000Y-64770000D02*
X85090000Y-83820000D01*
X73679999Y-84074465D02*
X73679999Y-86340001D01*
X73934464Y-83820000D02*
X73679999Y-84074465D01*
X85090000Y-45720000D02*
X85090000Y-64770000D01*
X85090000Y-83820000D02*
X73934464Y-83820000D01*
X71120000Y-88900000D02*
X67377919Y-88900000D01*
X58420000Y-97857919D02*
X58420000Y-99060000D01*
X67377919Y-88900000D02*
X58420000Y-97857919D01*
X85090000Y-26670000D02*
X85090000Y-45720000D01*
%TD*%
M02*
